<svg xmlns="http://www.w3.org/2000/svg" xmlns:xlink="http://www.w3.org/1999/xlink" width="808" height="599" viewBox="0 0 808 599">
  <defs>
    <filter id="tablet_base" x="0" y="70" width="808" height="524" filterUnits="userSpaceOnUse">
      <feOffset dx="18" dy="24" input="SourceAlpha"/>
      <feGaussianBlur stdDeviation="24" result="blur"/>
      <feFlood flood-opacity="0.122"/>
      <feComposite operator="in" in2="blur"/>
      <feComposite in="SourceGraphic"/>
    </filter>
    <clipPath id="clip-path">
      <path id="Path_7" data-name="Path 7" d="M298,564.392C246.17,548.8,14.845,575.581,28.84,416.645s-58.383-197.333-14.572-295.8S123.529-33.949,256.377,22.379,354.421,152.427,457.2,177.992s241.185,23.432,255.66,169.74S600.43,599,509.815,599,349.825,579.988,298,564.392Z" fill="#ebf1ff"/>
    </clipPath>
    <linearGradient id="linear-gradient" x1="-0.182" y1="0.239" x2="0.561" y2="1.167" gradientUnits="objectBoundingBox">
      <stop offset="0" stop-color="#8ab5ff"/>
      <stop offset="1" stop-color="#cce3ff"/>
    </linearGradient>
    <linearGradient id="linear-gradient-2" x1="0.702" y1="0.906" x2="-0.044" y2="0.296" gradientUnits="objectBoundingBox">
      <stop offset="0" stop-color="#fff" stop-opacity="0"/>
      <stop offset="1" stop-color="#fff"/>
    </linearGradient>
    <filter id="tablet_base-2" x="0" y="70" width="808" height="524" filterUnits="userSpaceOnUse">
      <feOffset dx="18" dy="24" input="SourceAlpha"/>
      <feGaussianBlur stdDeviation="24" result="blur-2"/>
      <feFlood flood-opacity="0.122"/>
      <feComposite operator="in" in2="blur-2"/>
      <feComposite in="SourceGraphic"/>
    </filter>
    <clipPath id="clip-path-2">
      <g transform="matrix(1, 0, 0, 1, 0, 0)" filter="url(#tablet_base)">
        <rect id="tablet_base-3" data-name="tablet_base" width="656" height="372" rx="19" transform="translate(-793 -1844.5)" fill="#fff" stroke="#f5f5f5" stroke-miterlimit="10" stroke-width="8"/>
      </g>
    </clipPath>
    <linearGradient id="linear-gradient-3" x1="1" y1="0.412" x2="0.797" y2="0.867" xlink:href="#linear-gradient"/>
    <linearGradient id="linear-gradient-4" x1="1.22" y1="0.692" x2="0.797" y2="0.867" xlink:href="#linear-gradient"/>
    <linearGradient id="linear-gradient-11" x1="0.695" y1="1" x2="0.335" y2="0" xlink:href="#linear-gradient"/>
    <linearGradient id="linear-gradient-12" x1="0.265" y1="0.149" x2="0.265" y2="0.741" gradientUnits="objectBoundingBox">
      <stop offset="0" stop-color="#ccf2f6"/>
      <stop offset="0.329" stop-color="#bbe1fc"/>
      <stop offset="1" stop-color="#cce3ff" stop-opacity="0"/>
    </linearGradient>
  </defs>
  <g id="Group_5" data-name="Group 5" transform="translate(-223 -3206)">
    <g id="bg_analytics" transform="translate(280 3206)">
      <path id="Path_7-2" data-name="Path 7" d="M298,564.392C246.17,548.8,14.845,575.581,28.84,416.645s-58.383-197.333-14.572-295.8S123.529-33.949,256.377,22.379,354.421,152.427,457.2,177.992s241.185,23.432,255.66,169.74S600.43,599,509.815,599,349.825,579.988,298,564.392Z" fill="#ebf1ff"/>
      <g id="bg_analytics-2" data-name="bg_analytics" clip-path="url(#clip-path)">
        <g id="Path_7-3" data-name="Path 7" opacity="0.821">
          <path id="Path_7-4" data-name="Path 7" d="M226.067,454.624c-102.86-51.147-213.744,23.8-202.126-108.307s-48.466-164.024-12.1-245.869S102.546-28.218,212.828,18.6s81.391,108.1,166.714,129.346,200.217,19.477,212.233,141.089S525.245,507,450.022,507,328.928,505.77,226.067,454.624Z" transform="translate(45 58)" fill="url(#linear-gradient)"/>
          <path id="Path_7-5" data-name="Path 7" d="M226.067,454.624c-102.86-51.147-213.744,23.8-202.126-108.307s-48.466-164.024-12.1-245.869S102.546-28.218,212.828,18.6s81.391,108.1,166.714,129.346,200.217,19.477,212.233,141.089S525.245,507,450.022,507,328.928,505.77,226.067,454.624Z" transform="translate(45 58)" fill="url(#linear-gradient-2)"/>
          <path id="Path_7-6" data-name="Path 7" d="M226.067,454.624c-102.86-51.147-213.744,23.8-202.126-108.307s-48.466-164.024-12.1-245.869S102.546-28.218,212.828,18.6s81.391,108.1,166.714,129.346,200.217,19.477,212.233,141.089S525.245,507,450.022,507,328.928,505.77,226.067,454.624Z" transform="translate(45 58)" fill="rgba(216,216,216,0.02)"/>
        </g>
      </g>
    </g>
    <g transform="matrix(1, 0, 0, 1, 223, 3206)" filter="url(#tablet_base-2)">
      <rect id="tablet_base-4" data-name="tablet_base" width="656" height="372" rx="19" transform="translate(58 122)" fill="#fff" stroke="#f5f5f5" stroke-miterlimit="10" stroke-width="8"/>
    </g>
    <g transform="translate(1074 5172.5)" clip-path="url(#clip-path-2)">
      <g id="analytics_pic" transform="translate(-744 -1792.5)">
        <g id="Group_10" data-name="Group 10">
          <path id="Fill_82" data-name="Fill 82" d="M507.5,1.252h-1.667V0H507.5V1.251Zm-5,0h-1.667V0H502.5V1.251Zm-4.166,0h-1.667V0h1.667V1.251Zm-5,0h-1.667V0h1.667V1.251Zm-5,0h-1.667V0h1.667V1.251Zm-4.167,0H482.5V0h1.667V1.251Zm-5,0H477.5V0h1.666V1.251Zm-4.166,0h-1.667V0H475V1.251Zm-5,0h-1.667V0H470V1.251Zm-4.166,0h-1.667V0h1.667V1.251Zm-5,0h-1.667V0h1.667V1.251Zm-5,0h-1.666V0h1.666V1.251Zm-4.166,0H450V0h1.667V1.251Zm-5,0H445V0h1.667V1.251Zm-4.166,0h-1.667V0H442.5V1.251Zm-5,0h-1.667V0H437.5V1.251Zm-4.167,0h-1.666V0h1.666V1.251Zm-5,0h-1.667V0h1.667V1.251Zm-5,0h-1.666V0h1.666V1.251Zm-4.166,0H417.5V0h1.667V1.251Zm-5,0H412.5V0h1.667V1.251Zm-4.166,0h-1.667V0H410V1.251Zm-5,0h-1.667V0H405V1.251Zm-4.167,0h-1.666V0h1.666V1.251Zm-5,0h-1.667V0h1.667V1.251Zm-5,0h-1.667V0h1.667V1.251Zm-4.166,0H385V0h1.667V1.251Zm-5,0H380V0h1.667V1.251Zm-4.167,0h-1.666V0H377.5V1.251Zm-5,0h-1.667V0H372.5V1.251Zm-4.167,0h-1.667V0h1.667V1.251Zm-5,0h-1.667V0h1.667V1.251Zm-5,0h-1.667V0h1.667V1.251Zm-4.167,0H352.5V0h1.666V1.251Zm-5,0H347.5V0h1.667V1.251Zm-4.167,0h-1.667V0H345V1.251Zm-5,0h-1.667V0H340V1.251Zm-4.167,0h-1.667V0h1.667V1.251Zm-5,0h-1.667V0h1.667V1.251Zm-5,0h-1.667V0h1.667V1.251Zm-4.167,0H320V0h1.666V1.251Zm-5,0H315V0h1.667V1.251Zm-4.167,0h-1.667V0H312.5V1.251Zm-5,0h-1.667V0H307.5V1.251Zm-4.167,0h-1.667V0h1.667V1.251Zm-5,0h-1.666V0h1.666V1.251Zm-5,0h-1.667V0h1.667V1.251Zm-4.167,0H287.5V0h1.667V1.251Zm-5,0H282.5V0h1.667V1.251Zm-4.167,0h-1.667V0H280V1.251Zm-5,0h-1.667V0H275V1.251Zm-4.167,0h-1.667V0h1.667V1.251Zm-5,0h-1.666V0h1.666V1.251Zm-5,0h-1.667V0h1.667V1.251Zm-4.167,0H255V0h1.667V1.251Zm-5,0H250V0h1.667V1.251Zm-4.167,0h-1.667V0H247.5V1.251Zm-5,0h-1.666V0H242.5V1.251Zm-4.166,0h-1.667V0h1.667V1.251Zm-5,0h-1.667V0h1.667V1.251Zm-4.166,0H227.5V0h1.667V1.251Zm-5,0H222.5V0h1.667V1.251Zm-5,0H217.5V0h1.667V1.251Zm-4.167,0h-1.667V0H215V1.251Zm-5,0h-1.667V0H210V1.251Zm-4.166,0h-1.667V0h1.667V1.251Zm-5,0h-1.667V0h1.667V1.251Zm-4.166,0H195V0h1.667V1.251Zm-5,0H190V0h1.667V1.251Zm-5,0H185V0h1.666V1.251Zm-4.166,0h-1.667V0H182.5V1.251Zm-5,0h-1.667V0H177.5V1.251Zm-4.166,0h-1.667V0h1.667V1.251Zm-5,0h-1.667V0h1.667V1.251Zm-4.167,0H162.5V0h1.666V1.251Zm-5,0H157.5V0h1.667V1.251Zm-5,0H152.5V0h1.667V1.251Zm-4.166,0h-1.667V0H150V1.251Zm-5,0h-1.667V0H145V1.251Zm-4.167,0h-1.666V0h1.666V1.251Zm-5,0h-1.667V0h1.667V1.251Zm-4.167,0H130V0h1.667V1.251Zm-5,0H125V0h1.667V1.251Zm-5,0H120V0h1.667V1.251Zm-4.166,0h-1.667V0H117.5V1.251Zm-5,0h-1.667V0H112.5V1.251Zm-4.167,0h-1.666V0h1.666V1.251Zm-5,0h-1.667V0h1.667V1.251Zm-4.167,0H97.5V0h1.667V1.251Zm-5,0H92.5V0h1.667V1.251Zm-5,0H87.5V0h1.667V1.251ZM85,1.252H83.334V0H85V1.251Zm-5,0H78.333V0H80V1.251Zm-4.167,0H74.166V0h1.667V1.251Zm-5,0H69.167V0h1.667V1.251Zm-4.167,0H65V0h1.667V1.251Zm-5,0H60V0h1.667V1.251Zm-5,0H55V0h1.667V1.251Zm-4.167,0H50.833V0H52.5V1.251Zm-5,0H45.833V0H47.5V1.251Zm-4.167,0H41.666V0h1.667V1.251Zm-5,0H36.667V0h1.667V1.251Zm-4.167,0H32.5V0h1.667V1.251Zm-5,0H27.5V0h1.666V1.251Zm-5,0H22.5V0h1.667V1.251ZM20,1.252H18.333V0H20V1.251Zm-5,0H13.333V0H15V1.251Zm-4.167,0H9.166V0h1.667V1.251Zm-5,0H4.167V0H5.833V1.251Zm-4.166,0H0V0H1.667V1.251Z" transform="translate(18.333 20.38)" fill="#d4dbfc"/>
          <path id="Fill_83" data-name="Fill 83" d="M507.5,1.252h-1.667V0H507.5V1.251Zm-5,0h-1.667V0H502.5V1.251Zm-4.166,0h-1.667V0h1.667V1.251Zm-5,0h-1.667V0h1.667V1.251Zm-5,0h-1.667V0h1.667V1.251Zm-4.167,0H482.5V0h1.667V1.251Zm-5,0H477.5V0h1.666V1.251Zm-4.166,0h-1.667V0H475V1.251Zm-5,0h-1.667V0H470V1.251Zm-4.166,0h-1.667V0h1.667V1.251Zm-5,0h-1.667V0h1.667V1.251Zm-5,0h-1.666V0h1.666V1.251Zm-4.166,0H450V0h1.667V1.251Zm-5,0H445V0h1.667V1.251Zm-4.166,0h-1.667V0H442.5V1.251Zm-5,0h-1.667V0H437.5V1.251Zm-4.167,0h-1.666V0h1.666V1.251Zm-5,0h-1.667V0h1.667V1.251Zm-5,0h-1.666V0h1.666V1.251Zm-4.166,0H417.5V0h1.667V1.251Zm-5,0H412.5V0h1.667V1.251Zm-4.166,0h-1.667V0H410V1.251Zm-5,0h-1.667V0H405V1.251Zm-4.167,0h-1.666V0h1.666V1.251Zm-5,0h-1.667V0h1.667V1.251Zm-5,0h-1.667V0h1.667V1.251Zm-4.166,0H385V0h1.667V1.251Zm-5,0H380V0h1.667V1.251Zm-4.167,0h-1.666V0H377.5V1.251Zm-5,0h-1.667V0H372.5V1.251Zm-4.167,0h-1.667V0h1.667V1.251Zm-5,0h-1.667V0h1.667V1.251Zm-5,0h-1.667V0h1.667V1.251Zm-4.167,0H352.5V0h1.666V1.251Zm-5,0H347.5V0h1.667V1.251Zm-4.167,0h-1.667V0H345V1.251Zm-5,0h-1.667V0H340V1.251Zm-4.167,0h-1.667V0h1.667V1.251Zm-5,0h-1.667V0h1.667V1.251Zm-5,0h-1.667V0h1.667V1.251Zm-4.167,0H320V0h1.666V1.251Zm-5,0H315V0h1.667V1.251Zm-4.167,0h-1.667V0H312.5V1.251Zm-5,0h-1.667V0H307.5V1.251Zm-4.167,0h-1.667V0h1.667V1.251Zm-5,0h-1.666V0h1.666V1.251Zm-5,0h-1.667V0h1.667V1.251Zm-4.167,0H287.5V0h1.667V1.251Zm-5,0H282.5V0h1.667V1.251Zm-4.167,0h-1.667V0H280V1.251Zm-5,0h-1.667V0H275V1.251Zm-4.167,0h-1.667V0h1.667V1.251Zm-5,0h-1.666V0h1.666V1.251Zm-5,0h-1.667V0h1.667V1.251Zm-4.167,0H255V0h1.667V1.251Zm-5,0H250V0h1.667V1.251Zm-4.167,0h-1.667V0H247.5V1.251Zm-5,0h-1.666V0H242.5V1.251Zm-4.166,0h-1.667V0h1.667V1.251Zm-5,0h-1.667V0h1.667V1.251Zm-4.166,0H227.5V0h1.667V1.251Zm-5,0H222.5V0h1.667V1.251Zm-5,0H217.5V0h1.667V1.251Zm-4.167,0h-1.667V0H215V1.251Zm-5,0h-1.667V0H210V1.251Zm-4.166,0h-1.667V0h1.667V1.251Zm-5,0h-1.667V0h1.667V1.251Zm-4.166,0H195V0h1.667V1.251Zm-5,0H190V0h1.667V1.251Zm-5,0H185V0h1.666V1.251Zm-4.166,0h-1.667V0H182.5V1.251Zm-5,0h-1.667V0H177.5V1.251Zm-4.166,0h-1.667V0h1.667V1.251Zm-5,0h-1.667V0h1.667V1.251Zm-4.167,0H162.5V0h1.666V1.251Zm-5,0H157.5V0h1.667V1.251Zm-5,0H152.5V0h1.667V1.251Zm-4.166,0h-1.667V0H150V1.251Zm-5,0h-1.667V0H145V1.251Zm-4.167,0h-1.666V0h1.666V1.251Zm-5,0h-1.667V0h1.667V1.251Zm-4.167,0H130V0h1.667V1.251Zm-5,0H125V0h1.667V1.251Zm-5,0H120V0h1.667V1.251Zm-4.166,0h-1.667V0H117.5V1.251Zm-5,0h-1.667V0H112.5V1.251Zm-4.167,0h-1.666V0h1.666V1.251Zm-5,0h-1.667V0h1.667V1.251Zm-4.167,0H97.5V0h1.667V1.251Zm-5,0H92.5V0h1.667V1.251Zm-5,0H87.5V0h1.667V1.251ZM85,1.252H83.334V0H85V1.251Zm-5,0H78.333V0H80V1.251Zm-4.167,0H74.166V0h1.667V1.251Zm-5,0H69.167V0h1.667V1.251Zm-4.167,0H65V0h1.667V1.251Zm-5,0H60V0h1.667V1.251Zm-5,0H55V0h1.667V1.251Zm-4.167,0H50.833V0H52.5V1.251Zm-5,0H45.833V0H47.5V1.251Zm-4.167,0H41.666V0h1.667V1.251Zm-5,0H36.667V0h1.667V1.251Zm-4.167,0H32.5V0h1.667V1.251Zm-5,0H27.5V0h1.666V1.251Zm-5,0H22.5V0h1.667V1.251ZM20,1.252H18.333V0H20V1.251Zm-5,0H13.333V0H15V1.251Zm-4.167,0H9.166V0h1.667V1.251Zm-5,0H4.167V0H5.833V1.251Zm-4.166,0H0V0H1.667V1.251Z" transform="translate(18.333 63.774)" fill="#d4dbfc"/>
          <path id="Fill_84" data-name="Fill 84" d="M507.5,1.252h-1.667V0H507.5V1.251Zm-5,0h-1.667V0H502.5V1.251Zm-4.166,0h-1.667V0h1.667V1.251Zm-5,0h-1.667V0h1.667V1.251Zm-5,0h-1.667V0h1.667V1.251Zm-4.167,0H482.5V0h1.667V1.251Zm-5,0H477.5V0h1.666V1.251Zm-4.166,0h-1.667V0H475V1.251Zm-5,0h-1.667V0H470V1.251Zm-4.166,0h-1.667V0h1.667V1.251Zm-5,0h-1.667V0h1.667V1.251Zm-5,0h-1.666V0h1.666V1.251Zm-4.166,0H450V0h1.667V1.251Zm-5,0H445V0h1.667V1.251Zm-4.166,0h-1.667V0H442.5V1.251Zm-5,0h-1.667V0H437.5V1.251Zm-4.167,0h-1.666V0h1.666V1.251Zm-5,0h-1.667V0h1.667V1.251Zm-5,0h-1.666V0h1.666V1.251Zm-4.166,0H417.5V0h1.667V1.251Zm-5,0H412.5V0h1.667V1.251Zm-4.166,0h-1.667V0H410V1.251Zm-5,0h-1.667V0H405V1.251Zm-4.167,0h-1.666V0h1.666V1.251Zm-5,0h-1.667V0h1.667V1.251Zm-5,0h-1.667V0h1.667V1.251Zm-4.166,0H385V0h1.667V1.251Zm-5,0H380V0h1.667V1.251Zm-4.167,0h-1.666V0H377.5V1.251Zm-5,0h-1.667V0H372.5V1.251Zm-4.167,0h-1.667V0h1.667V1.251Zm-5,0h-1.667V0h1.667V1.251Zm-5,0h-1.667V0h1.667V1.251Zm-4.167,0H352.5V0h1.666V1.251Zm-5,0H347.5V0h1.667V1.251Zm-4.167,0h-1.667V0H345V1.251Zm-5,0h-1.667V0H340V1.251Zm-4.167,0h-1.667V0h1.667V1.251Zm-5,0h-1.667V0h1.667V1.251Zm-5,0h-1.667V0h1.667V1.251Zm-4.167,0H320V0h1.666V1.251Zm-5,0H315V0h1.667V1.251Zm-4.167,0h-1.667V0H312.5V1.251Zm-5,0h-1.667V0H307.5V1.251Zm-4.167,0h-1.667V0h1.667V1.251Zm-5,0h-1.666V0h1.666V1.251Zm-5,0h-1.667V0h1.667V1.251Zm-4.167,0H287.5V0h1.667V1.251Zm-5,0H282.5V0h1.667V1.251Zm-4.167,0h-1.667V0H280V1.251Zm-5,0h-1.667V0H275V1.251Zm-4.167,0h-1.667V0h1.667V1.251Zm-5,0h-1.666V0h1.666V1.251Zm-5,0h-1.667V0h1.667V1.251Zm-4.167,0H255V0h1.667V1.251Zm-5,0H250V0h1.667V1.251Zm-4.167,0h-1.667V0H247.5V1.251Zm-5,0h-1.666V0H242.5V1.251Zm-4.166,0h-1.667V0h1.667V1.251Zm-5,0h-1.667V0h1.667V1.251Zm-4.166,0H227.5V0h1.667V1.251Zm-5,0H222.5V0h1.667V1.251Zm-5,0H217.5V0h1.667V1.251Zm-4.167,0h-1.667V0H215V1.251Zm-5,0h-1.667V0H210V1.251Zm-4.166,0h-1.667V0h1.667V1.251Zm-5,0h-1.667V0h1.667V1.251Zm-4.166,0H195V0h1.667V1.251Zm-5,0H190V0h1.667V1.251Zm-5,0H185V0h1.666V1.251Zm-4.166,0h-1.667V0H182.5V1.251Zm-5,0h-1.667V0H177.5V1.251Zm-4.166,0h-1.667V0h1.667V1.251Zm-5,0h-1.667V0h1.667V1.251Zm-4.167,0H162.5V0h1.666V1.251Zm-5,0H157.5V0h1.667V1.251Zm-5,0H152.5V0h1.667V1.251Zm-4.166,0h-1.667V0H150V1.251Zm-5,0h-1.667V0H145V1.251Zm-4.167,0h-1.666V0h1.666V1.251Zm-5,0h-1.667V0h1.667V1.251Zm-4.167,0H130V0h1.667V1.251Zm-5,0H125V0h1.667V1.251Zm-5,0H120V0h1.667V1.251Zm-4.166,0h-1.667V0H117.5V1.251Zm-5,0h-1.667V0H112.5V1.251Zm-4.167,0h-1.666V0h1.666V1.251Zm-5,0h-1.667V0h1.667V1.251Zm-4.167,0H97.5V0h1.667V1.251Zm-5,0H92.5V0h1.667V1.251Zm-5,0H87.5V0h1.667V1.251ZM85,1.252H83.334V0H85V1.251Zm-5,0H78.333V0H80V1.251Zm-4.167,0H74.166V0h1.667V1.251Zm-5,0H69.167V0h1.667V1.251Zm-4.167,0H65V0h1.667V1.251Zm-5,0H60V0h1.667V1.251Zm-5,0H55V0h1.667V1.251Zm-4.167,0H50.833V0H52.5V1.251Zm-5,0H45.833V0H47.5V1.251Zm-4.167,0H41.666V0h1.667V1.251Zm-5,0H36.667V0h1.667V1.251Zm-4.167,0H32.5V0h1.667V1.251Zm-5,0H27.5V0h1.666V1.251Zm-5,0H22.5V0h1.667V1.251ZM20,1.252H18.333V0H20V1.251Zm-5,0H13.333V0H15V1.251Zm-4.167,0H9.166V0h1.667V1.251Zm-5,0H4.167V0H5.833V1.251Zm-4.166,0H0V0H1.667V1.251Z" transform="translate(18.333 108.003)" fill="#d4dbfc"/>
          <path id="Fill_85" data-name="Fill 85" d="M507.5,1.252h-1.667V0H507.5V1.251Zm-5,0h-1.667V0H502.5V1.251Zm-4.166,0h-1.667V0h1.667V1.251Zm-5,0h-1.667V0h1.667V1.251Zm-5,0h-1.667V0h1.667V1.251Zm-4.167,0H482.5V0h1.667V1.251Zm-5,0H477.5V0h1.666V1.251Zm-4.166,0h-1.667V0H475V1.251Zm-5,0h-1.667V0H470V1.251Zm-4.166,0h-1.667V0h1.667V1.251Zm-5,0h-1.667V0h1.667V1.251Zm-5,0h-1.666V0h1.666V1.251Zm-4.166,0H450V0h1.667V1.251Zm-5,0H445V0h1.667V1.251Zm-4.166,0h-1.667V0H442.5V1.251Zm-5,0h-1.667V0H437.5V1.251Zm-4.167,0h-1.666V0h1.666V1.251Zm-5,0h-1.667V0h1.667V1.251Zm-5,0h-1.666V0h1.666V1.251Zm-4.166,0H417.5V0h1.667V1.251Zm-5,0H412.5V0h1.667V1.251Zm-4.166,0h-1.667V0H410V1.251Zm-5,0h-1.667V0H405V1.251Zm-4.167,0h-1.666V0h1.666V1.251Zm-5,0h-1.667V0h1.667V1.251Zm-5,0h-1.667V0h1.667V1.251Zm-4.166,0H385V0h1.667V1.251Zm-5,0H380V0h1.667V1.251Zm-4.167,0h-1.666V0H377.5V1.251Zm-5,0h-1.667V0H372.5V1.251Zm-4.167,0h-1.667V0h1.667V1.251Zm-5,0h-1.667V0h1.667V1.251Zm-5,0h-1.667V0h1.667V1.251Zm-4.167,0H352.5V0h1.666V1.251Zm-5,0H347.5V0h1.667V1.251Zm-4.167,0h-1.667V0H345V1.251Zm-5,0h-1.667V0H340V1.251Zm-4.167,0h-1.667V0h1.667V1.251Zm-5,0h-1.667V0h1.667V1.251Zm-5,0h-1.667V0h1.667V1.251Zm-4.167,0H320V0h1.666V1.251Zm-5,0H315V0h1.667V1.251Zm-4.167,0h-1.667V0H312.5V1.251Zm-5,0h-1.667V0H307.5V1.251Zm-4.167,0h-1.667V0h1.667V1.251Zm-5,0h-1.666V0h1.666V1.251Zm-5,0h-1.667V0h1.667V1.251Zm-4.167,0H287.5V0h1.667V1.251Zm-5,0H282.5V0h1.667V1.251Zm-4.167,0h-1.667V0H280V1.251Zm-5,0h-1.667V0H275V1.251Zm-4.167,0h-1.667V0h1.667V1.251Zm-5,0h-1.666V0h1.666V1.251Zm-5,0h-1.667V0h1.667V1.251Zm-4.167,0H255V0h1.667V1.251Zm-5,0H250V0h1.667V1.251Zm-4.167,0h-1.667V0H247.5V1.251Zm-5,0h-1.666V0H242.5V1.251Zm-4.166,0h-1.667V0h1.667V1.251Zm-5,0h-1.667V0h1.667V1.251Zm-4.166,0H227.5V0h1.667V1.251Zm-5,0H222.5V0h1.667V1.251Zm-5,0H217.5V0h1.667V1.251Zm-4.167,0h-1.667V0H215V1.251Zm-5,0h-1.667V0H210V1.251Zm-4.166,0h-1.667V0h1.667V1.251Zm-5,0h-1.667V0h1.667V1.251Zm-4.166,0H195V0h1.667V1.251Zm-5,0H190V0h1.667V1.251Zm-5,0H185V0h1.666V1.251Zm-4.166,0h-1.667V0H182.5V1.251Zm-5,0h-1.667V0H177.5V1.251Zm-4.166,0h-1.667V0h1.667V1.251Zm-5,0h-1.667V0h1.667V1.251Zm-4.167,0H162.5V0h1.666V1.251Zm-5,0H157.5V0h1.667V1.251Zm-5,0H152.5V0h1.667V1.251Zm-4.166,0h-1.667V0H150V1.251Zm-5,0h-1.667V0H145V1.251Zm-4.167,0h-1.666V0h1.666V1.251Zm-5,0h-1.667V0h1.667V1.251Zm-4.167,0H130V0h1.667V1.251Zm-5,0H125V0h1.667V1.251Zm-5,0H120V0h1.667V1.251Zm-4.166,0h-1.667V0H117.5V1.251Zm-5,0h-1.667V0H112.5V1.251Zm-4.167,0h-1.666V0h1.666V1.251Zm-5,0h-1.667V0h1.667V1.251Zm-4.167,0H97.5V0h1.667V1.251Zm-5,0H92.5V0h1.667V1.251Zm-5,0H87.5V0h1.667V1.251ZM85,1.252H83.334V0H85V1.251Zm-5,0H78.333V0H80V1.251Zm-4.167,0H74.166V0h1.667V1.251Zm-5,0H69.167V0h1.667V1.251Zm-4.167,0H65V0h1.667V1.251Zm-5,0H60V0h1.667V1.251Zm-5,0H55V0h1.667V1.251Zm-4.167,0H50.833V0H52.5V1.251Zm-5,0H45.833V0H47.5V1.251Zm-4.167,0H41.666V0h1.667V1.251Zm-5,0H36.667V0h1.667V1.251Zm-4.167,0H32.5V0h1.667V1.251Zm-5,0H27.5V0h1.666V1.251Zm-5,0H22.5V0h1.667V1.251ZM20,1.252H18.333V0H20V1.251Zm-5,0H13.333V0H15V1.251Zm-4.167,0H9.166V0h1.667V1.251Zm-5,0H4.167V0H5.833V1.251Zm-4.166,0H0V0H1.667V1.251Z" transform="translate(18.333 152.232)" fill="#d4dbfc"/>
          <path id="Fill_86" data-name="Fill 86" d="M507.5,1.252h-1.667V0H507.5V1.251Zm-5,0h-1.667V0H502.5V1.251Zm-4.166,0h-1.667V0h1.667V1.251Zm-5,0h-1.667V0h1.667V1.251Zm-5,0h-1.667V0h1.667V1.251Zm-4.167,0H482.5V0h1.667V1.251Zm-5,0H477.5V0h1.666V1.251Zm-4.166,0h-1.667V0H475V1.251Zm-5,0h-1.667V0H470V1.251Zm-4.166,0h-1.667V0h1.667V1.251Zm-5,0h-1.667V0h1.667V1.251Zm-5,0h-1.666V0h1.666V1.251Zm-4.166,0H450V0h1.667V1.251Zm-5,0H445V0h1.667V1.251Zm-4.166,0h-1.667V0H442.5V1.251Zm-5,0h-1.667V0H437.5V1.251Zm-4.167,0h-1.666V0h1.666V1.251Zm-5,0h-1.667V0h1.667V1.251Zm-5,0h-1.666V0h1.666V1.251Zm-4.166,0H417.5V0h1.667V1.251Zm-5,0H412.5V0h1.667V1.251Zm-4.166,0h-1.667V0H410V1.251Zm-5,0h-1.667V0H405V1.251Zm-4.167,0h-1.666V0h1.666V1.251Zm-5,0h-1.667V0h1.667V1.251Zm-5,0h-1.667V0h1.667V1.251Zm-4.166,0H385V0h1.667V1.251Zm-5,0H380V0h1.667V1.251Zm-4.167,0h-1.666V0H377.5V1.251Zm-5,0h-1.667V0H372.5V1.251Zm-4.167,0h-1.667V0h1.667V1.251Zm-5,0h-1.667V0h1.667V1.251Zm-5,0h-1.667V0h1.667V1.251Zm-4.167,0H352.5V0h1.666V1.251Zm-5,0H347.5V0h1.667V1.251Zm-4.167,0h-1.667V0H345V1.251Zm-5,0h-1.667V0H340V1.251Zm-4.167,0h-1.667V0h1.667V1.251Zm-5,0h-1.667V0h1.667V1.251Zm-5,0h-1.667V0h1.667V1.251Zm-4.167,0H320V0h1.666V1.251Zm-5,0H315V0h1.667V1.251Zm-4.167,0h-1.667V0H312.5V1.251Zm-5,0h-1.667V0H307.5V1.251Zm-4.167,0h-1.667V0h1.667V1.251Zm-5,0h-1.666V0h1.666V1.251Zm-5,0h-1.667V0h1.667V1.251Zm-4.167,0H287.5V0h1.667V1.251Zm-5,0H282.5V0h1.667V1.251Zm-4.167,0h-1.667V0H280V1.251Zm-5,0h-1.667V0H275V1.251Zm-4.167,0h-1.667V0h1.667V1.251Zm-5,0h-1.666V0h1.666V1.251Zm-5,0h-1.667V0h1.667V1.251Zm-4.167,0H255V0h1.667V1.251Zm-5,0H250V0h1.667V1.251Zm-4.167,0h-1.667V0H247.5V1.251Zm-5,0h-1.666V0H242.5V1.251Zm-4.166,0h-1.667V0h1.667V1.251Zm-5,0h-1.667V0h1.667V1.251Zm-4.166,0H227.5V0h1.667V1.251Zm-5,0H222.5V0h1.667V1.251Zm-5,0H217.5V0h1.667V1.251Zm-4.167,0h-1.667V0H215V1.251Zm-5,0h-1.667V0H210V1.251Zm-4.166,0h-1.667V0h1.667V1.251Zm-5,0h-1.667V0h1.667V1.251Zm-4.166,0H195V0h1.667V1.251Zm-5,0H190V0h1.667V1.251Zm-5,0H185V0h1.666V1.251Zm-4.166,0h-1.667V0H182.5V1.251Zm-5,0h-1.667V0H177.5V1.251Zm-4.166,0h-1.667V0h1.667V1.251Zm-5,0h-1.667V0h1.667V1.251Zm-4.167,0H162.5V0h1.666V1.251Zm-5,0H157.5V0h1.667V1.251Zm-5,0H152.5V0h1.667V1.251Zm-4.166,0h-1.667V0H150V1.251Zm-5,0h-1.667V0H145V1.251Zm-4.167,0h-1.666V0h1.666V1.251Zm-5,0h-1.667V0h1.667V1.251Zm-4.167,0H130V0h1.667V1.251Zm-5,0H125V0h1.667V1.251Zm-5,0H120V0h1.667V1.251Zm-4.166,0h-1.667V0H117.5V1.251Zm-5,0h-1.667V0H112.5V1.251Zm-4.167,0h-1.666V0h1.666V1.251Zm-5,0h-1.667V0h1.667V1.251Zm-4.167,0H97.5V0h1.667V1.251Zm-5,0H92.5V0h1.667V1.251Zm-5,0H87.5V0h1.667V1.251ZM85,1.252H83.334V0H85V1.251Zm-5,0H78.333V0H80V1.251Zm-4.167,0H74.166V0h1.667V1.251Zm-5,0H69.167V0h1.667V1.251Zm-4.167,0H65V0h1.667V1.251Zm-5,0H60V0h1.667V1.251Zm-5,0H55V0h1.667V1.251Zm-4.167,0H50.833V0H52.5V1.251Zm-5,0H45.833V0H47.5V1.251Zm-4.167,0H41.666V0h1.667V1.251Zm-5,0H36.667V0h1.667V1.251Zm-4.167,0H32.5V0h1.667V1.251Zm-5,0H27.5V0h1.666V1.251Zm-5,0H22.5V0h1.667V1.251ZM20,1.252H18.333V0H20V1.251Zm-5,0H13.333V0H15V1.251Zm-4.167,0H9.166V0h1.667V1.251Zm-5,0H4.167V0H5.833V1.251Zm-4.166,0H0V0H1.667V1.251Z" transform="translate(18.333 198.129)" fill="#d4dbfc"/>
          <path id="Fill_87" data-name="Fill 87" d="M0,268.71H.833V0H0Z" transform="translate(90)" fill="#4027a2" opacity="0.501"/>
          <path id="Fill_88" data-name="Fill 88" d="M0,1H550V0H0Z" transform="translate(0 239)" fill="#4027a2"/>
          <text id="_40.000_" data-name="40.000 $" transform="translate(22 37)" fill="#1d262c" font-size="12" font-family="SegoeUI, Segoe UI" letter-spacing="0em" opacity="0.797"><tspan x="0" y="13">40.000 $</tspan></text>
          <text id="_30.000_" data-name="30.000 $" transform="translate(22 82)" fill="#1d262c" font-size="12" font-family="SegoeUI, Segoe UI" letter-spacing="0em" opacity="0.797"><tspan x="0" y="13">30.000 $</tspan></text>
          <text id="_20.000_" data-name="20.000 $" transform="translate(22 128)" fill="#1d262c" font-size="12" font-family="SegoeUI, Segoe UI" letter-spacing="0em" opacity="0.797"><tspan x="0" y="13">20.000 $</tspan></text>
          <text id="_10.000_" data-name="10.000 $" transform="translate(22 171)" fill="#1d262c" font-size="12" font-family="SegoeUI, Segoe UI" letter-spacing="0em" opacity="0.797"><tspan x="0" y="13">10.000 $</tspan></text>
        </g>
        <text id="Jan" transform="translate(397 265)" fill="#232323" font-size="13" font-family="SegoeUI, Segoe UI"><tspan x="0" y="0">Jan</tspan></text>
        <text id="Jun" transform="translate(353 265)" fill="#232323" font-size="13" font-family="SegoeUI, Segoe UI"><tspan x="0" y="0">Jun</tspan></text>
        <text id="Sept" transform="translate(487 265)" fill="#232323" font-size="13" font-family="SegoeUI, Segoe UI"><tspan x="0" y="0">Sept</tspan></text>
        <text id="Aug" transform="translate(443 265)" fill="#232323" font-size="13" font-family="SegoeUI, Segoe UI"><tspan x="0" y="0">Aug</tspan></text>
        <text id="May" transform="translate(307 265)" fill="#232323" font-size="13" font-family="SegoeUI, Segoe UI"><tspan x="0" y="0">May</tspan></text>
        <text id="Apr" transform="translate(266 265)" fill="#232323" font-size="13" font-family="SegoeUI, Segoe UI"><tspan x="0" y="0">Apr</tspan></text>
        <text id="Marc" transform="translate(215 265)" fill="#232323" font-size="13" font-family="SegoeUI, Segoe UI"><tspan x="0" y="0">Marc</tspan></text>
        <text id="Feb" transform="translate(172 265)" fill="#232323" font-size="13" font-family="SegoeUI, Segoe UI"><tspan x="0" y="0">Feb</tspan></text>
        <text id="Jan-2" data-name="Jan" transform="translate(119 265)" fill="#232323" font-size="13" font-family="SegoeUI, Segoe UI"><tspan x="0" y="0">Jan</tspan></text>
      </g>
    </g>
    <g id="plan_analytics" transform="translate(886 3574)">
      <g id="Group_43" data-name="Group 43" transform="translate(109) rotate(180)">
        <path id="Fill_316" data-name="Fill 316" d="M-3.675,86C-3.147,84.726,9,54.178-13.981,0L-17,1.346C5.357,54.059-6.582,84.382-6.705,84.683L-3.675,86" transform="translate(50 -85) rotate(-180)" fill="url(#linear-gradient-3)"/>
        <path id="Fill_317" data-name="Fill 317" d="M-32.944,0s-3.278,25.412-4,43.443C-38.314,77.933-15.6,85.115-5.9,91,7.033,65.82-3.521,43.034-16.216,25.392S-31.5,6.536-32.944,0" transform="translate(52 -16) rotate(-180)" fill="url(#linear-gradient-4)"/>
        <path id="Fill_318" data-name="Fill 318" d="M-30.814,43.443C-29.5,25.39-26.847,0-26.847,0c-.041,13.656,8.459,58.584,24.14,86.195C-1.929,87.569-.7,89.607,0,91c-10.624-5.155-33.279-13.765-30.814-47.557" transform="translate(58 -16) rotate(-180)" fill="url(#linear-gradient-3)"/>
        <path id="Fill_324" data-name="Fill 324" d="M-19.812,77l3.393-.2C-16.448,76.305-19.16,27,0,2.03L-2.711,0c-19.922,25.96-17.226,74.928-17.1,77" transform="translate(32 -86) rotate(-180)" fill="url(#linear-gradient-3)"/>
        <path id="Fill_325" data-name="Fill 325" d="M0,0S-22.654,23.528-37.293,41.539c-28,34.452-13.268,60.451-9.166,74.461C-15.35,100.612-7.1,68.469-4.754,39.883S-3.781,7.924,0,0" transform="rotate(-180)" fill="url(#linear-gradient-3)"/>
        <path id="Fill_326" data-name="Fill 326" d="M-37.507,41.539C-22.219,24,0,0,0,0-10.7,14.052-38.073,67.4-45.428,108.811c-.367,2.061-.844,5.174-1.3,7.189-5.6-14.079-19.391-41.637,9.218-74.461" transform="rotate(-180)" fill="url(#linear-gradient-4)"/>
        <path id="Fill_334" data-name="Fill 334" d="M-67,0s28.78,4,44.215,13.376C6.742,31.3,2.035,60.879-6.376,73c-28.279-3.088-28.24-23.185-35.793-43.58S-60.5,3.547-67,0" transform="translate(41 -95) rotate(-180)" fill="url(#linear-gradient-4)"/>
        <path id="Fill_335" data-name="Fill 335" d="M-35.143,29.457C-27.645,49.708-27.6,69.65-.008,73,.3,63.239-8.232,51.328-22.77,29.743-29.681,19.483-44.553,8.818-58.878.168-59.6.058-60,0-60,0c6.508,3.552,17.3,9.035,24.857,29.457" transform="translate(49 -95) rotate(-180)" fill="url(#linear-gradient-3)"/>
      </g>
      <path id="planter" d="M0,0H55L50.335,41.345A12,12,0,0,1,38.411,52H16.589A12,12,0,0,1,4.665,41.345Z" transform="translate(27 169)" fill="url(#linear-gradient-11)"/>
    </g>
    <path id="Combined_Shape" data-name="Combined Shape" d="M-134,270V57h-33V270Zm45,0V75h-33V270Zm89,0V0H-33V270Zm-43-1V19H-76V269Zm-319-20V75h-34V249Z" transform="translate(845 3379)" fill="url(#linear-gradient-12)"/>
  </g>
</svg>
