<?xml version="1.0" encoding="utf-8"?>
<svg width="821px" height="678px" viewBox="0 0 821 678" version="1.1" xmlns:xlink="http://www.w3.org/1999/xlink" xmlns="http://www.w3.org/2000/svg">
  <desc>Created with Lunacy</desc>
  <defs>
    <linearGradient x1="0.1608725" y1="-0.08713625" x2="0.658734262" y2="1.22639656" id="gradient_1">
      <stop offset="0" stop-color="#8AB5FF" />
      <stop offset="1" stop-color="#CCE3FF" />
    </linearGradient>
    <linearGradient x1="0.689776659" y1="0.7344376" x2="0.7268388" y2="0.9763476" id="gradient_2">
      <stop offset="0" stop-color="#FFFFFF" stop-opacity="0" />
      <stop offset="1" stop-color="#FFFFFF" />
    </linearGradient>
    <linearGradient x1="0" y1="0.4120433" x2="0.20287329" y2="0.8670063" id="gradient_3">
      <stop offset="0" stop-color="#8AB5FF" />
      <stop offset="1" stop-color="#CCE3FF" />
    </linearGradient>
    <linearGradient x1="-0.220231682" y1="0.6918248" x2="0.20287329" y2="0.8670063" id="gradient_4">
      <stop offset="0" stop-color="#8AB5FF" />
      <stop offset="1" stop-color="#CCE3FF" />
    </linearGradient>
    <linearGradient x1="0.748554051" y1="0.5836475" x2="1.8432951" y2="1.38367748" id="gradient_5">
      <stop offset="0" stop-color="#6CA2FF" />
      <stop offset="1" stop-color="#CCE3FF" />
    </linearGradient>
    <linearGradient x1="0.6084516" y1="0.451680779" x2="0.6084516" y2="1" id="gradient_6">
      <stop offset="0" stop-color="#8AB5FF" />
      <stop offset="1" stop-color="#CCE3FF" />
    </linearGradient>
    <linearGradient x1="0.157977715" y1="0.149158448" x2="0.7972584" y2="0.6641453" id="gradient_7">
      <stop offset="0" stop-color="#8AB5FF" />
      <stop offset="1" stop-color="#CCE3FF" />
    </linearGradient>
    <linearGradient x1="0.8826112" y1="0.7258404" x2="0.334292" y2="0.7258404" id="gradient_8">
      <stop offset="0" stop-color="#8AB5FF" />
      <stop offset="1" stop-color="#CCE3FF" />
    </linearGradient>
    <linearGradient x1="0.5863532" y1="-0.144402266" x2="0.20287329" y2="0.8670063" id="gradient_9">
      <stop offset="0" stop-color="#8AB5FF" />
      <stop offset="1" stop-color="#CCE3FF" />
    </linearGradient>
    <linearGradient x1="0.7972584" y1="0.16403842" x2="0.20287329" y2="0.8670063" id="gradient_10">
      <stop offset="0" stop-color="#8AB5FF" />
      <stop offset="1" stop-color="#CCE3FF" />
    </linearGradient>
    <linearGradient x1="1.59559965" y1="1.900869" x2="0.20287329" y2="0.8670063" id="gradient_11">
      <stop offset="0" stop-color="#8AB5FF" />
      <stop offset="1" stop-color="#CCE3FF" />
    </linearGradient>
    <linearGradient x1="0.114910826" y1="-0.07643898" x2="1.59559965" y2="1.900869" id="gradient_12">
      <stop offset="0" stop-color="#8AB5FF" />
      <stop offset="0.229501292" stop-color="#99BFFF" />
      <stop offset="1" stop-color="#CCE3FF" />
    </linearGradient>
    <linearGradient x1="0.967879951" y1="0.53751" x2="0.178614751" y2="0.734052" id="gradient_13">
      <stop offset="0" stop-color="#2627C5" />
      <stop offset="1" stop-color="#43BEFF" />
    </linearGradient>
    <linearGradient x1="0.07519531" y1="-0.09423828" x2="0.5" y2="0.405557156" id="gradient_14">
      <stop offset="0" stop-color="#FFFFFF" />
      <stop offset="1" stop-color="#43A1FF" stop-opacity="0.533333361" />
    </linearGradient>
    <linearGradient x1="0.408565551" y1="0.7826936" x2="0.606817842" y2="0.2626668" id="gradient_15">
      <stop offset="0" stop-color="#F9F7F7" />
      <stop offset="1" stop-color="#FFFFFF" />
    </linearGradient>
    <linearGradient x1="0.263307" y1="0.7053041" x2="-0.109524667" y2="1" id="gradient_16">
      <stop offset="0" stop-color="#50E3C2" />
      <stop offset="1" stop-color="#85FEF4" />
    </linearGradient>
    <linearGradient x1="0.33084" y1="0.6407953" x2="0.735677063" y2="0.191253886" id="gradient_17">
      <stop offset="0" stop-color="#FFFFFF" stop-opacity="0" />
      <stop offset="0.346731871" stop-color="#FFFFFF" stop-opacity="0.933333337" />
      <stop offset="1" stop-color="#D7D7D7" />
    </linearGradient>
    <linearGradient x1="0.12347468" y1="0" x2="0.832443535" y2="0.9603516" id="gradient_18">
      <stop offset="0" stop-color="#FCAD5E" />
      <stop offset="0.291341215" stop-color="#F78B6E" />
      <stop offset="0.698628247" stop-color="#F36781" />
      <stop offset="1" stop-color="#EF4A8F" />
    </linearGradient>
    <linearGradient x1="0.35140413" y1="0" x2="0.7136824" y2="0.5725337" id="gradient_19">
      <stop offset="0" stop-color="#FCE6CE" />
      <stop offset="1" stop-color="#FAC99D" />
    </linearGradient>
    <linearGradient x1="0.5" y1="0.6464078" x2="1.69283152" y2="1.16191792" id="gradient_20">
      <stop offset="0" stop-color="#FFFFFF" stop-opacity="0" />
      <stop offset="1" stop-color="#FFFFFF" />
    </linearGradient>
    <linearGradient x1="0.5" y1="0" x2="0.5" y2="1" id="gradient_21">
      <stop offset="0" stop-color="#4027A2" />
      <stop offset="1" stop-color="#415DD1" />
    </linearGradient>
    <linearGradient x1="0.2936726" y1="0.316758931" x2="0.5630226" y2="0.7377027" id="gradient_22">
      <stop offset="0" stop-color="#FCE6CE" />
      <stop offset="1" stop-color="#FAC99D" />
    </linearGradient>
    <linearGradient x1="0.4488555" y1="0.253474832" x2="0.585864961" y2="0.3994529" id="gradient_23">
      <stop offset="0" stop-color="#4027A2" />
      <stop offset="1" stop-color="#415DD1" />
    </linearGradient>
    <linearGradient x1="0.2327181" y1="0.4900101" x2="0.483664036" y2="0.779655039" id="gradient_24">
      <stop offset="0" stop-color="#4027A2" />
      <stop offset="1" stop-color="#415DD1" />
    </linearGradient>
    <linearGradient x1="0.719639" y1="0.2610934" x2="0.8492187" y2="0.0193157326" id="gradient_25">
      <stop offset="0" stop-color="#FFFFFF" stop-opacity="0" />
      <stop offset="1" stop-color="#FFFFFF" stop-opacity="0.3372549" />
    </linearGradient>
    <linearGradient x1="1" y1="0.5" x2="0.2481705" y2="0.251862973" id="gradient_26">
      <stop offset="0" stop-color="#2A2114" />
      <stop offset="1" stop-color="#120E08" />
    </linearGradient>
    <linearGradient x1="1.18141806" y1="0.6781796" x2="0.6660898" y2="0" id="gradient_27">
      <stop offset="0" stop-color="#FFFFFF" stop-opacity="0" />
      <stop offset="1" stop-color="#FFFFFF" stop-opacity="0.7294118" />
    </linearGradient>
    <linearGradient x1="0.2309543" y1="0.5" x2="-0.106123343" y2="0.263591081" id="gradient_28">
      <stop offset="0" stop-color="#FFFFFF" stop-opacity="0" />
      <stop offset="1" stop-color="#FFFFFF" />
    </linearGradient>
    <linearGradient x1="0.281317353" y1="0.2015625" x2="0.7996363" y2="0.834355" id="gradient_29">
      <stop offset="0" stop-color="#61F3AC" />
      <stop offset="1" stop-color="#029AC0" />
    </linearGradient>
    <linearGradient x1="0.5729391" y1="0.7203526" x2="0.4271619" y2="1" id="gradient_30">
      <stop offset="0" stop-color="#DADADA" stop-opacity="0" />
      <stop offset="1" stop-color="#004CC0" />
    </linearGradient>
    <linearGradient x1="1" y1="0.844555438" x2="0" y2="0.5" id="gradient_31">
      <stop offset="0" stop-color="#FCE6CE" />
      <stop offset="1" stop-color="#FAC99D" />
    </linearGradient>
    <linearGradient x1="0.131349415" y1="0.5" x2="-0.0428464" y2="0.5" id="gradient_32">
      <stop offset="0" stop-color="#FFFFFF" stop-opacity="0" />
      <stop offset="1" stop-color="#FFFFFF" />
    </linearGradient>
    <linearGradient x1="0.270353615" y1="0.342156649" x2="0.7136824" y2="0.5725337" id="gradient_33">
      <stop offset="0" stop-color="#FCE6CE" />
      <stop offset="1" stop-color="#FAC99D" />
    </linearGradient>
    <linearGradient x1="0.5" y1="0.0659722239" x2="0.5" y2="1" id="gradient_34">
      <stop offset="0" stop-color="#61F3AC" />
      <stop offset="1" stop-color="#029AC0" />
    </linearGradient>
    <linearGradient x1="-5.526693" y1="0.5" x2="2.279948" y2="0.5" id="gradient_35">
      <stop offset="0" stop-color="#FAD961" />
      <stop offset="1" stop-color="#9E0902" />
    </linearGradient>
    <linearGradient x1="0.115048684" y1="0.116428085" x2="1.11926544" y2="0.7673427" id="gradient_36">
      <stop offset="0" stop-color="#F093FB" />
      <stop offset="1" stop-color="#F5576C" />
    </linearGradient>
    <linearGradient x1="0.9812477" y1="0.481247753" x2="0.0187522583" y2="0.481247753" id="gradient_37">
      <stop offset="0" stop-color="#F15765" />
      <stop offset="1" stop-color="#FFD7D7" />
    </linearGradient>
    <linearGradient x1="0" y1="0" x2="1.02" y2="1.01" id="gradient_38">
      <stop offset="0" stop-color="#3023AE" />
      <stop offset="1" stop-color="#C86DD7" />
    </linearGradient>
    <filter filterUnits="userSpaceOnUse" color-interpolation-filters="sRGB" id="filter_1">
      <feFlood flood-opacity="0" result="BackgroundImageFix" />
      <feColorMatrix in="SourceAlpha" type="matrix" values="0 0 0 0 0 0 0 0 0 0 0 0 0 0 0 0 0 0 127 0" />
      <feOffset dx="0" dy="2" />
      <feGaussianBlur stdDeviation="5" />
      <feColorMatrix type="matrix" values="0 0 0 0 0 0 0 0 0 0 0 0 0 0 0 0 0 0 0.2039216 0" />
      <feBlend mode="normal" in2="BackgroundImageFix" result="effect0_dropShadow" />
      <feBlend mode="normal" in="SourceGraphic" in2="effect0_dropShadow" result="shape" />
    </filter>
    <filter filterUnits="userSpaceOnUse" color-interpolation-filters="sRGB" id="filter_2">
      <feFlood flood-opacity="0" result="BackgroundImageFix" />
      <feColorMatrix in="SourceAlpha" type="matrix" values="0 0 0 0 0 0 0 0 0 0 0 0 0 0 0 0 0 0 127 0" />
      <feOffset dx="0" dy="2" />
      <feGaussianBlur stdDeviation="11.5" />
      <feColorMatrix type="matrix" values="0 0 0 0 0 0 0 0 0 0 0 0 0 0 0 0 0 0 0.1019608 0" />
      <feBlend mode="normal" in2="BackgroundImageFix" result="effect0_dropShadow" />
      <feBlend mode="normal" in="SourceGraphic" in2="effect0_dropShadow" result="shape" />
    </filter>
    <path d="M281.739 533.711C232.739 518.963 14.0348 544.292 27.2663 393.996C40.4978 243.7 -27.9318 207.39 13.4894 114.276C54.9105 21.1623 116.789 -32.1032 242.389 21.1623C367.989 74.4278 335.084 144.141 432.259 168.316C529.434 192.491 660.285 190.474 673.97 328.829C687.656 467.183 567.671 566.438 482 566.438C396.329 566.438 330.739 548.459 281.739 533.711Z" id="path_1" />
    <path d="M214 430.834C116.63 382.364 11.6654 453.389 22.663 328.194C33.6607 203 -23.2161 172.754 11.212 95.1908C45.6402 17.6279 97.0722 -26.7416 201.467 17.6279C305.862 61.9975 278.513 120.068 359.282 140.205C440.051 160.343 548.811 158.663 560.186 273.911C571.561 389.159 497.208 480.47 426 480.47C354.792 480.47 311.37 479.304 214 430.834Z" transform="translate(56 68)" id="path_2" />
    <path d="M62.6939 9.73656C62.6939 9.73656 43.5201 3.74966 26.7434 37.2712C4.92787 80.861 -24.7852 156.992 36.3316 158.189C36.3316 158.189 95.0487 162.978 115.421 70.7928C135.793 -21.3928 81.8676 -1.03987 62.6939 9.73656" id="path_3" />
    <path d="M38.1562 6.03031C38.1562 6.03031 26.4869 2.32234 16.2764 23.0838C2.99916 50.081 -15.0845 97.2321 22.1118 97.9737C22.1118 97.9737 57.8477 100.94 70.2465 43.8453C82.6453 -13.2496 49.8256 -0.644037 38.1562 6.03031" id="path_4" />
    <path d="M86.049 156.003C86.049 156.003 102.677 111.705 74.1685 41.072C45.6602 -29.5633 19.5255 12.3374 19.5255 12.3374C19.5255 12.3374 -8.98275 9.94261 2.89528 102.128L25.4658 76.9858L14.7758 117.692L36.1558 145.226L48.0363 124.876L49.2244 153.608C49.2244 153.608 81.2968 161.987 86.049 156.003" id="path_5" />
    <path d="M70.3285 123.248C70.3285 123.248 83.9184 88.2506 60.6184 32.4483C37.3184 -23.3561 15.9583 9.74696 15.9583 9.74696C15.9583 9.74696 -7.34166 7.85501 2.36633 80.6849L20.8134 60.8214L12.0764 92.9805L29.5504 114.734L39.2604 98.6563L40.2314 121.356C40.2314 121.356 66.4445 127.975 70.3285 123.248" transform="translate(0.4953965 0.8818369)" id="path_6" />
    <path d="M12.6765 77.6993L418.324 0.0367888C425.325 -0.379035 431 2.77793 431 7.08806L431 384.089C431 388.399 425.325 392.23 418.324 392.646L12.6765 362.055C5.67545 362.471 0 359.314 0 355.004L0 86.2564C0 81.9463 5.67545 78.1152 12.6765 77.6993Z" id="path_7" />
    <path d="M7.42734 53.237C10.0588 52.9532 299.898 0.0251004 299.898 0.0251004C302.529 -0.258609 304.663 1.89533 304.663 4.83606L304.663 41.2498C304.663 44.1906 302.529 46.8045 299.898 47.0882C299.898 47.0882 10.0588 97.3685 7.42734 97.6522C6.92806 97.7061 2.17672 98.6583 1.87943 95.4804C0.162634 77.1288 -0.285479 70.0433 0.162634 60.537C0.462231 54.1814 6.573 53.3291 7.42734 53.237Z" transform="translate(0.3373659 7.105427E-14)" id="path_8" />
    <path d="M4.76471 28.237L157.235 0.0251004C159.867 -0.258609 162 1.89533 162 4.83606L162 169.25C162 172.191 159.867 174.805 157.235 175.088L4.76471 182.652C2.13323 182.936 0 180.782 0 177.841L0 34.0753C0 31.1346 2.13323 28.5207 4.76471 28.237Z" id="path_9" />
    <path d="M3.4839 23.6223C3.4839 23.6223 21.5749 50.8777 21.5749 64.0119C21.5749 68.1085 21.2655 71.9298 21.0627 75.3362C20.6153 82.851 20.6866 88.3466 25.7425 90.325C33.0902 93.2003 42.6174 95.0982 60.6551 92.2413C78.6927 89.3844 89.4141 78.4285 80.7858 78.4285C74.1941 78.4285 44.1335 74.1162 41.8762 72.0868C32.3129 63.4889 31.7243 59.7731 33.5269 37.7029C35.3295 15.6327 42.2967 6.10102 33.5269 0.964007C24.7571 -4.173 1.70226e-15 18.0641 1.70226e-15 18.0641L3.4839 23.6223Z" transform="matrix(0.9876884 0.1564345 -0.1564345 0.9876884 15.42589 -1.430511E-06)" id="path_10" />
    <path d="M3.4839 35.4171C3.4839 35.4171 21.5749 62.6725 21.5749 75.8067C21.5749 79.9033 21.2655 83.7246 21.0627 87.131C20.6153 94.6458 20.6866 100.141 25.7425 102.12C33.0902 104.995 42.6174 106.893 60.6551 104.036C78.6927 101.179 89.4141 90.2233 80.7858 90.2233C74.1941 90.2233 44.1335 85.911 41.8762 83.8815C32.3129 75.2837 32.301 72.4556 33.5269 49.4977C34.7528 26.5398 37.4663 5.80569 28.6965 0.668678C19.9267 -4.46833 5.95584e-13 29.8589 5.95584e-13 29.8589L3.4839 35.4171Z" transform="matrix(0.9876884 0.1564345 -0.1564345 0.9876884 17.271 0.3504248)" id="path_11" />
    <path d="M84.3896 28.4675C84.3896 28.4675 88.1425 32.9714 91.0605 30.7194C93.9785 28.4675 93.1211 22.614 99.8594 22.614C106.598 22.614 101.871 12.1628 108.781 16.6208C115.691 21.0788 115.451 26.2155 115.451 28.4675C115.451 30.7194 121.286 25.7126 119.877 16.6208C118.468 7.529 108.246 -2.76104 102.243 0.679393C96.2402 4.11982 91.9853 -1.51006 84.3896 6.31513C76.7939 14.1403 81.7705 8.3874 66.2588 18.4274C50.747 28.4675 56.9883 41.3894 51.0586 46.5222C45.1289 51.655 26.291 43.861 15.1494 65.8122C4.00778 87.7634 -3.9307 90.7224 2.0488 100.213C8.02829 109.703 1.34274 124.416 15.1494 128.944C28.956 133.472 27.7666 133.079 27.7666 133.079C27.7666 133.079 52.2799 153.924 69.1494 136.466C86.0188 119.007 86.9345 71.8454 86.9345 71.8454L91.0605 51.4753L82.9365 37.322C82.9365 37.322 78.6543 32.9714 78.6543 30.7194C78.6543 28.4675 82.9365 26.6755 82.9365 26.6755L84.3896 28.4675Z" transform="translate(0.7646798 0.9211933)" id="path_12" />
    <path d="M77.8005 33.2834C77.8005 33.2834 81.5535 37.7873 84.4714 35.5353C87.3894 33.2834 86.532 27.4299 93.2702 27.4299C100.009 27.4299 92.5007 20.5444 99.4109 25.0024C106.321 29.4604 108.862 31.0314 108.862 33.2834C108.862 35.5353 114.697 30.5285 113.288 21.4367C111.879 12.3449 97.6568 -2.94514 91.654 0.49529C85.6511 3.93572 81.3962 -1.69416 73.8005 6.13103C66.2048 13.9562 74.1814 7.2033 58.6697 17.2433C43.1579 27.2834 50.3992 46.2052 44.4695 51.3381C38.5398 56.4709 17.7019 44.6769 6.56029 66.6281C-4.58131 88.5793 0.580797 96.1488 6.56029 105.639C12.5398 115.129 -7.24635 125.232 6.56029 129.76C20.3669 134.288 21.1775 137.895 21.1775 137.895L80.3454 76.6613L84.4714 56.2912L76.3474 42.1379C76.3474 42.1379 72.0652 37.7873 72.0652 35.5353C72.0652 33.2834 76.3474 31.4914 76.3474 31.4914L77.8005 33.2834Z" transform="translate(18.58909 6.184103)" id="path_13" />
    <path d="M0 19.3633C0 19.3633 0 71.6395 0 101.401C0 131.162 0 185.063 0 190.032C0 195 36.9553 195 36.9553 195L79 19.3633L15.4605 -6.0089e-31L0 19.3633Z" transform="matrix(-1 0 0 1 158 231)" id="path_14" />
    <path d="M6.62069 0.837962C6.62069 0.837962 -2.52259 22.9333 0.961148 34.0196C4.44489 45.1058 30.3919 49.9251 30.3919 49.9251C30.3919 49.9251 59.9085 48.6467 72.1411 48.6467C84.3736 48.6467 82.9394 46.1272 85.9933 50.0849C87.5377 52.0862 102.462 49.004 104.198 50.0849C105.935 51.1657 111.419 51.6853 107.777 49.352C105.025 47.5891 100.16 43.8064 95.5675 41.8246C93.1585 40.7851 90.3756 39.1884 88.0705 39.1884C81.3708 39.1884 80.2049 39.8748 76.0849 39.8748C71.9649 39.8748 23.8112 28.8562 23.8112 23.5577C23.8112 18.8284 31.019 4.38098 29.9548 0.152057C29.8267 -0.356957 6.62069 0.837962 6.62069 0.837962Z" transform="matrix(0.7880108 0.6156615 -0.6156615 0.7880108 126.2528 139.8522)" id="path_15" />
    <path d="M28.4179 0.21073C28.4179 0.21073 17.7931 -1.79347 5.59553 15.2637C-6.60206 32.3209 7.78965 63.5287 7.78965 63.5287C7.78965 63.5287 20.6711 84.5297 20.6711 90.3996C20.6711 96.2694 23.0843 131.748 17.7931 145.409C12.502 159.071 1.4691 186.964 1.4691 186.964C1.4691 186.964 37.8929 195 58.6862 195C79.4795 195 99.4611 192.434 99.4611 192.434C99.4611 192.434 116 186.964 116 186.964L99.4611 127.077C99.4611 127.077 84.3711 84.2626 84.3711 72.0028C84.3711 59.743 90.209 41.3437 83.7272 31.9513C77.2455 22.559 60.1896 2.76241 60.1896 2.76241C60.1896 2.76241 54.1993 0.21073 52.4536 0.21073C50.7078 0.21073 28.4179 0.21073 28.4179 0.21073Z" transform="translate(58 63)" id="path_16" />
    <path d="M9.46926 1.20848C9.46926 1.20848 -3.60794 33.0735 1.37468 49.0617C6.35731 65.0498 43.4681 72 43.4681 72C43.4681 72 83.4799 69.2381 97.6119 67.5608C111.744 65.8836 120.301 64.0239 124.669 69.7315C126.878 72.6178 139.649 64.7821 142.132 66.3408C144.616 67.8996 152.46 68.649 147.25 65.2839C143.314 62.7416 143.254 63.1759 136.686 60.3178C133.24 58.8186 129.26 56.516 125.963 56.516C116.381 56.516 114.713 57.5059 108.821 57.5059C102.928 57.5059 34.056 41.6152 34.056 33.974C34.056 27.1536 44.3651 6.31807 42.8429 0.219291C42.6597 -0.514789 9.46926 1.20848 9.46926 1.20848Z" transform="matrix(0.8290376 -0.5591929 0.5591929 0.8290376 55.60575 143.8145)" id="path_17" />
    <path d="M0 1.47588C0 1.47588 1.30364 25.5898 1.30364 27.1772C1.30364 28.7647 5.92951 43.7001 17.4759 43.7001C29.0223 43.7001 34.1077 51 34.1077 51C34.1077 51 37 37.6598 37 35.9142C37 34.1685 30.3575 28.3261 27.5363 26.2379C24.715 24.1498 23.0938 21.1116 23.9044 16.7966C24.715 12.4815 27.5363 0 27.5363 0L0 1.47588Z" transform="translate(86 38)" id="path_18" />
    <path d="M12.4304 15.1407C9.50578 17.3831 5.74426 12.8983 5.74426 12.8983L4.28782 11.1139C4.28782 11.1139 2.53304 11.8435 1.26754 12.9558C0.758332 13.6519 0.308638 14.4557 0.00105748 15.2802C0.168726 17.5577 4.28782 21.7152 4.28782 21.7152L5.66979 24.1072C5.84538 24.2191 5.9459 24.2805 5.9459 24.2805C5.9459 24.2805 6.06032 24.6229 6.2999 25.1978L9.63361 30.9678C11.8239 33.8136 15.0677 36.649 19.5688 37.3858C29.3469 38.9864 35.5006 37.166 36.8347 35.2737C38.1688 33.3813 38.5936 16.5517 36.8347 9.37622C36.6694 8.7019 36.5048 8.05101 36.3391 7.42337C35.2886 5.41129 33.4376 3.18238 30.1916 1.10191C26.5767 -1.21503 26.1391 0.512384 25.5866 2.69351C25.0805 4.69126 24.478 7.06964 21.2494 7.06964C14.4957 7.06964 15.355 12.8983 12.4304 15.1407Z" transform="translate(79 16)" id="path_19" />
    <path d="M2.61765 4.8667L86.3823 0.0137581C87.828 -0.14175 89 1.03888 89 2.65077L89 103.381C89 104.993 87.828 106.425 86.3823 106.581L2.61765 100.116C1.17196 100.272 0 99.0911 0 97.4792L0 8.06685C0 6.45496 1.17196 5.0222 2.61765 4.8667Z" id="path_20" />
    <clipPath id="mask_1">
      <use xlink:href="#path_1" />
    </clipPath>
    <clipPath id="mask_2">
      <use xlink:href="#path_3" />
    </clipPath>
    <clipPath id="mask_3">
      <use xlink:href="#path_4" />
    </clipPath>
    <clipPath id="mask_4">
      <use xlink:href="#path_5" />
    </clipPath>
    <clipPath id="mask_5">
      <use xlink:href="#path_6" />
    </clipPath>
    <clipPath id="mask_6">
      <use xlink:href="#path_7" />
    </clipPath>
    <clipPath id="mask_7">
      <use xlink:href="#path_8" />
    </clipPath>
    <clipPath id="mask_8">
      <use xlink:href="#path_9" />
    </clipPath>
    <clipPath id="mask_9">
      <use xlink:href="#path_10" />
    </clipPath>
    <clipPath id="mask_10">
      <use xlink:href="#path_11" />
    </clipPath>
    <clipPath id="mask_11">
      <use xlink:href="#path_12" />
    </clipPath>
    <clipPath id="mask_12">
      <use xlink:href="#path_20" />
    </clipPath>
  </defs>
  <g id="фон-растения" transform="translate(0.5 0.5)" opacity="0.65">
    <g id="Group-15">
      <g id="Group-11" transform="translate(10 0)">
        <g id="bg-pic-1" transform="matrix(-1 0 0 1 721 9)">
          <path d="M281.739 533.711C232.739 518.963 14.0348 544.292 27.2663 393.996C40.4978 243.7 -27.9318 207.39 13.4894 114.276C54.9105 21.1623 116.789 -32.1032 242.389 21.1623C367.989 74.4278 335.084 144.141 432.259 168.316C529.434 192.491 660.285 190.474 673.97 328.829C687.656 467.183 567.671 566.438 482 566.438C396.329 566.438 330.739 548.459 281.739 533.711Z" id="Path-7" fill="#EBF1FF" stroke="none" />
          <g clip-path="url(#mask_1)">
            <g id="Path-7">
              <use stroke="none" fill="url(#gradient_1)" fill-opacity="0.8210798" xlink:href="#path_2" />
              <use stroke="none" fill="url(#gradient_2)" fill-opacity="0.8210798" xlink:href="#path_2" />
            </g>
          </g>
        </g>
        <path d="M224.958 134.214C223.059 122.804 210.538 111.398 189.266 104.552C167.999 97.7077 168.032 107.594 181.312 110.638C194.598 113.678 213.193 125.846 218.125 131.172C223.059 136.496 218.884 152.846 208.64 164.254C207.5 152.846 194.218 135.736 179.793 126.997C165.374 118.264 157.785 128.508 170.308 134.972C182.833 141.438 207.119 169.958 207.119 169.958L188.903 197.338C188.903 197.338 185.488 180.226 171.068 163.494C156.645 146.764 138.05 144.102 135.77 149.806C134.32 153.445 138.429 155.226 146.224 158.606C150.648 160.524 156.259 162.957 162.715 166.536C180.554 176.424 188.524 203.042 188.524 203.042L173.725 216.73C173.725 216.73 156.645 186.69 144.882 174.142C133.117 161.594 128.179 183.648 146.399 189.734C164.615 195.818 171.068 215.972 171.068 215.972C171.068 215.972 170.689 223.958 154.747 236.506C151.711 203.804 122.87 204.944 132.734 212.93C142.605 220.914 144.122 239.548 144.122 239.548L119.073 254C119.073 254 79.2241 249.056 72.0125 244.872C64.8008 240.69 61.3874 217.492 76.9485 202.282C92.5078 187.07 109.963 168.82 101.235 166.536C96.2492 165.232 93.2441 168.273 88.2583 173.317C84.5166 177.102 79.6594 182.016 72.0125 187.07C54.1795 198.86 52.2776 202.282 35.9579 225.098C36.7164 200.762 43.93 190.114 59.1118 180.228C74.2899 170.34 101.995 152.088 87.1925 147.144C72.3918 142.2 45.0659 169.58 24.195 207.606C20.3986 195.058 34.0523 157.164 46.2056 150.186C58.3607 143.206 86.8114 125.468 81.4997 121.666C76.1881 117.862 47.7245 134.214 42.0299 144.102C36.3409 153.988 16.2248 185.17 16.2248 185.17C16.2248 185.17 15.0852 169.96 4.07898 152.088C6.35645 126.226 46.1107 112.445 67.1731 104.746C88.2355 97.0446 65.4664 94.4757 47.8193 100.752C30.1722 107.026 20.209 110.733 0 125.28C6.25977 113.585 12.5233 87.9185 26.1862 81.6426C39.8473 75.3704 68.3109 79.3606 79.9808 73.6566C91.6545 67.9526 67.1731 58.8284 39.5628 66.5257C22.1704 71.3783 15.2878 76.9054 12.5716 80.3349C17.2901 71.5199 30.3711 47.575 37.2891 39.7175C45.8263 30.0214 62.0511 38.2925 78.8449 47.9885C95.6368 57.6865 91.3681 37.7224 75.7122 30.4816C60.0581 23.2444 42.9799 30.4816 42.9799 30.4816C42.9799 30.4816 46.966 4.9234 84.8202 0.361304C122.678 -4.20265 122.678 35.7255 119.547 49.4155C116.415 63.1055 126.093 60.8216 126.093 60.8216L129.323 60.0616C131.812 59.4721 131.588 48.0146 131.355 36.1728C131.287 32.6709 131.217 29.1354 131.217 25.8375C131.217 11.3856 151.33 9.48549 169.929 9.86365C188.524 10.2474 210.917 35.7236 214.333 52.0756C200.67 44.8496 155.126 49.4136 145.261 60.4398C135.863 70.9442 160.888 69.3732 174.109 68.5431C174.77 68.5016 175.402 68.462 175.999 68.4258C181.293 68.1053 184.553 65.5421 188.072 62.7756C192.878 58.9972 198.166 54.8395 209.778 55.4976C229.892 56.6377 234.445 75.2717 227.616 90.1036C223.441 81.7357 180.174 75.6517 160.819 75.6517C141.465 75.6517 155.886 90.4818 177.518 85.1578C197.536 80.2315 206.502 84.4218 218.857 90.1962C219.855 90.6624 220.874 91.1389 221.924 91.6218C235.964 98.0859 231.032 120.144 224.958 134.214ZM86.5581 86.8947C84.3671 79.953 87.9413 80.6199 92.0677 81.3898C94.2158 81.7906 96.5136 82.2193 98.2255 81.617C100.097 81.617 99.867 82.7265 99.6002 84.011C99.3919 85.0139 99.1614 86.1234 99.8922 86.8947C94.8919 90.4152 86.5581 88.654 86.5581 86.8947ZM135.692 101.329L135.692 106.373C143.633 111.419 153.163 113.1 162.692 109.737C162.692 96.285 143.633 94.6036 135.692 101.329ZM95.8417 233.19C99.1034 221.897 97.4744 212.219 108.889 205.765C113.783 202.237 112.15 197.7 110.521 194.473C110.496 194.433 110.471 194.394 110.446 194.355C109.571 193 108.899 191.958 102.058 195.685C88.3472 202.723 76.7456 216.619 82.7948 231.577C84.4276 236.417 94.2108 238.03 95.8417 233.19Z" transform="matrix(-0.9205049 -0.3907311 -0.3907311 0.9205049 809.4412 255.2253)" id="Fill-424" fill="url(#gradient_3)" fill-opacity="0.21693638" fill-rule="evenodd" stroke="none" />
        <g id="Group-43" transform="translate(553 293)">
          <path d="M22.2533 20L19.3619 18.2888C19.3882 18.2407 19.9893 17.1261 19.2763 15.302C18.3357 12.8989 14.5781 8.12321 0 3.13292L1.11083 0C13.3958 4.20405 20.596 9.02969 22.5119 14.3419C23.6811 17.5821 22.4019 19.7614 22.2533 20" transform="translate(84 148)" id="Fill-315" fill="url(#gradient_3)" stroke="none" />
          <path d="M3.67499 86C3.14658 84.7264 -8.99684 54.1785 13.9809 0L17 1.34604C-5.35666 54.059 6.58218 84.3821 6.70511 84.6831L3.67499 86" transform="translate(111 85)" id="Fill-316" fill="url(#gradient_3)" stroke="none" />
          <path d="M32.9444 0C32.9444 0 36.2221 25.4118 36.9403 43.4433C38.3145 77.933 15.5997 85.1147 5.90155 91C-7.03329 65.8198 3.52075 43.0338 16.2155 25.3921C28.9085 7.75131 31.4996 6.53584 32.9444 0" transform="translate(113 16)" id="Fill-317" fill="url(#gradient_4)" stroke="none" />
          <path d="M30.8139 43.4433C29.4987 25.3902 26.847 0 26.847 0C26.8876 13.6564 18.3884 58.5844 2.70714 86.1946C1.92945 87.5692 0.699183 89.6066 0 91C10.6244 85.8453 33.2791 77.2354 30.8139 43.4433" transform="translate(119 16)" id="Fill-318" fill="url(#gradient_3)" stroke="none" />
          <path d="M0 21.7515C0 21.7515 23.6604 4.89772 41.2922 1.21697C75.0167 -5.82557 91.824 19.3579 94 34.1437C71.3295 51.3317 57.614 36.3983 38.1733 26.47C18.7316 16.5436 7.15174 19.9035 0 21.7515" transform="translate(0 119)" id="Fill-319" fill="url(#gradient_4)" stroke="none" />
          <path d="M37.9968 9.54146C57.1841 19.3488 70.7746 34.0422 93 17.5948C86.5834 10.1827 72.3198 7.23548 47.1357 1.26991C35.1643 -1.56538 17.1624 0.759574 0.925475 4.19436C0.332797 4.60509 0 4.84033 0 4.84033C7.11868 2.99915 18.6451 -0.34836 37.9968 9.54146" transform="translate(0 136)" id="Fill-320" fill="url(#gradient_3)" stroke="none" />
          <path d="M76 0.153317C76 0.153317 47.0803 -1.34067 30.1953 4.99863C-2.09994 17.1213 -3.11475 47.2436 2.81328 60.8169C31.07 63.1216 34.848 43.2524 46.1153 24.5252C57.3817 5.798 68.9659 2.42591 76 0.153317" transform="translate(124 98)" id="Fill-321" fill="url(#gradient_4)" stroke="none" />
          <path d="M42.3176 24.4669C31.2237 43.0729 27.4236 62.789 0 60.8703C1.54507 51.1598 12.0691 40.9963 30.2513 22.4055C38.8921 13.5687 55.3424 5.84013 70.8781 0C71.5946 0.0264773 72 0.0472809 72 0.0472809C65.0135 2.32433 53.5077 5.70302 42.3176 24.4669" transform="translate(127 98)" id="Fill-322" fill="url(#gradient_3)" stroke="none" />
          <path d="M33.7634 26.7314L33.7784 26.7541C44.8005 43.5908 51.0279 60.4974 77.1762 56.3714C82.0674 42.3836 78.844 12.3932 45.864 2.69585C30.6347 -1.78443 6.53754 0.534586 1.11786 1.13536L0.97262 1.15236C0.352317 1.22132 0 1.26571 0 1.26571C7.15691 3.01324 18.9145 5.51551 31.4855 23.3696C31.8791 23.9269 32.2623 24.4861 32.6418 25.0444L32.7758 25.2465C33.1094 25.7415 33.4392 26.2365 33.7634 26.7314" transform="translate(14 75)" id="Fill-323" fill="url(#gradient_3)" stroke="none" />
          <path d="M19.812 77L16.4185 76.8015C16.4479 76.3051 19.1599 26.9963 0 2.03046L2.71099 0C22.633 25.9604 19.9371 74.9283 19.812 77" transform="translate(93 86)" id="Fill-324" fill="url(#gradient_3)" stroke="none" />
          <path d="M0 0C0 0 22.6543 23.528 37.2927 41.5392C65.2919 75.9913 50.5603 101.99 46.4583 116C15.3497 100.612 7.09858 68.4694 4.75403 39.883C2.40947 11.2966 3.78121 7.92366 0 0" transform="translate(61 0)" id="Fill-325" fill="url(#gradient_3)" stroke="none" />
          <path d="M37.5069 41.5392C22.2195 24.0035 0 0 0 0C10.6981 14.0522 38.0727 67.4021 45.4278 108.811C45.7949 110.872 46.2718 113.985 46.7251 116C52.3249 101.921 66.1163 74.3625 37.5069 41.5392" transform="translate(61 0)" id="Fill-326" fill="url(#gradient_4)" stroke="none" />
          <path d="M64 0C64 0 59.4533 32.3784 54.3085 55.024C44.4681 98.3428 14.9668 102.645 1.43407 108C-5.62099 73.9296 14.5618 47.6621 35.5838 28.2513C56.6058 8.84334 60.0995 7.85666 64 0" transform="translate(116 44)" id="Fill-330" fill="url(#gradient_4)" stroke="none" />
          <path d="M52.3961 55.024C56.7822 32.2264 62 0 62 0C57.5448 17.0475 32.5985 71.351 4.81174 102.565C3.42935 104.119 1.29371 106.407 0 108C14.3587 103.763 44.184 97.696 52.3961 55.024" transform="translate(119 44)" id="Fill-331" fill="url(#gradient_4)" stroke="none" />
          <path d="M0 0C0 0 2.22641 25.5401 5.38799 43.3123C11.4338 77.308 35.3152 79.368 46.1155 83C53.4376 55.5798 38.1685 35.6205 21.8996 21.1555C5.63068 6.69139 2.8233 6.06878 0 0" transform="translate(63 74)" id="Fill-332" fill="url(#gradient_3)" stroke="none" />
          <path d="M5.37449 43.3123C2.81343 25.3866 0 0 0 0C2.88072 13.3508 20.8932 55.3745 42.2958 78.9036C43.3595 80.0744 45.0111 81.7943 46 83C34.3977 80.3014 10.1676 76.8662 5.37449 43.3123" transform="translate(63 74)" id="Fill-333" fill="url(#gradient_4)" stroke="none" />
          <path d="M67 0C67 0 38.2203 4.00383 22.7847 13.3758C-6.7416 31.3011 -2.03495 60.8788 6.37605 73C34.6546 69.9123 34.616 49.8153 42.1691 29.4202C49.7231 9.02408 60.4992 3.54719 67 0" transform="translate(102 95)" id="Fill-334" fill="url(#gradient_4)" stroke="none" />
          <path d="M35.143 29.4569C27.6453 49.7075 27.6037 69.6502 0.0078729 73C-0.296344 63.2389 8.23212 51.3279 22.7703 29.7432C29.6813 19.4827 44.553 8.81847 58.8776 0.168051C59.5956 0.0582077 60 0 60 0C53.4924 3.55161 42.705 9.03534 35.143 29.4569" transform="translate(110 95)" id="Fill-335" fill="url(#gradient_3)" stroke="none" />
        </g>
        <g id="Group" transform="translate(496 26)">
          <path d="M11 53C7.33231 35.333 3.66667 17.667 0 0C3.66667 17.666 7.33333 35.333 11 53" transform="translate(49 213)" id="Fill-356" fill="#B2A491" stroke="none" />
          <path d="M48.4285 0.441008C40.3754 -2.79453 34.5867 12.6361 37.1033 18.6084C37.2027 18.8461 37.2871 19.0839 37.3619 19.3206L37.4207 19.515C37.4784 19.7116 37.5286 19.9071 37.5703 20.1025L37.6002 20.2304C37.644 20.4629 37.6793 20.6922 37.7049 20.9204L37.7209 21.0979C37.7359 21.2797 37.7477 21.4604 37.7519 21.6389L37.7573 21.8154C37.7573 22.0384 37.7519 22.2581 37.737 22.4758L37.7252 22.6079C37.7092 22.7886 37.6889 22.9682 37.6643 23.1468L37.6376 23.3338C37.6045 23.5399 37.5681 23.7449 37.5222 23.9467L37.5158 23.9731C37.4698 24.1802 37.4164 24.3842 37.3576 24.586L37.3063 24.7561C37.255 24.922 37.2027 25.0869 37.1471 25.2475L37.1076 25.3574C37.037 25.5497 36.9644 25.7378 36.8864 25.9227L36.8308 26.0558C36.7645 26.2059 36.6983 26.3528 36.6299 26.4975L36.5732 26.6201C36.4878 26.7944 36.4001 26.9667 36.3114 27.1326L36.2794 27.1939C36.1971 27.3429 36.1169 27.4876 36.0368 27.6271L35.977 27.7285C35.791 28.0424 35.6051 28.333 35.4255 28.5961L35.3828 28.6595C35.2962 28.7863 35.2097 28.9089 35.1263 29.023C34.5365 29.8324 34.0834 30.3047 34.0834 30.3047C30.7279 32.1307 26.0292 29.3093 27.2869 20.8475C28.5458 12.3867 23.2614 5.91669 14.4507 7.2798C5.64204 8.64291 2.87325 18.8567 0.608839 24.5807C-1.65557 30.3047 2.62426 48.4732 9.66967 58.6753C16.7172 68.8796 29.0491 74.3543 29.3024 77.3404C29.5524 80.3277 32.8673 105.535 42.9048 113C39.3495 98.8152 58.496 84.5575 64.5358 57.68C70.5778 30.8024 56.4816 3.67654 48.4285 0.441008" transform="translate(88 113)" id="Fill-361" fill="url(#gradient_5)" stroke="none" />
          <path d="M9.98631 139C-14.6614 18.042 13.9227 0.679444 15.1499 0L17 3.22178C16.9324 3.26112 10.1388 7.48877 6.31626 26.1145C2.76432 43.4164 1.15478 76.9197 13.6542 138.266L9.98631 139" transform="translate(103 103)" id="Fill-363" fill="url(#gradient_6)" stroke="none" />
          <path d="M10.048 164C-14.6945 21.2229 13.892 0.799747 15.1199 0L17 3.11753C16.9313 3.16514 10.0207 8.2027 6.1393 30.3809C2.54667 50.8982 0.909892 90.6211 13.5114 163.34L10.048 164" transform="translate(95 43)" id="Fill-364" fill="url(#gradient_6)" stroke="none" />
          <path d="M34.9872 179L31.3307 178.982C31.7135 96.9854 23.171 53.5846 15.9354 31.6152C8.09044 7.78944 0.080768 3.36881 0 3.32635L1.60068 0C2.99471 0.672912 35.7393 18.331 34.9872 179" transform="translate(61 28)" id="Fill-365" fill="url(#gradient_6)" stroke="none" />
          <path d="M0 0C0 0 15.1004 15.6122 15.1004 27.4955C28.7719 37.121 53.3372 52.1258 58.0928 61.2479C62.8474 70.371 74.2333 84.5342 87.007 85.149C99.7786 85.7648 107 91 107 91C107 91 102.158 81.455 98.5204 74.066C94.8839 66.677 94.0756 58.0457 86.2146 55.1266C78.3545 52.2075 73.9551 40.6708 67.7379 32.2759C61.5218 23.882 52.7913 18.3406 40.9365 15.2614C29.0775 12.1832 30.2588 3.5795 22.9341 2.18565C15.6083 0.791793 0 0 0 0" transform="translate(103 81)" id="Fill-366" fill="url(#gradient_7)" stroke="none" />
          <path d="M0.0413858 39.149C0.0413858 39.149 10.987 12.8155 5.51525 0.00915109C15.5472 -0.535396 23.7821 23.373 28.4793 31.6488C33.1797 39.9268 43.6094 43.9064 40.8264 52.7975C38.0434 61.6897 45.4902 75.1767 48 81C38.3459 76.7091 34.7308 66.5653 27.0036 60.3969C19.2753 54.2285 -1.03769 41.952 0.0413858 39.149" transform="translate(117 68)" id="Fill-367" fill="url(#gradient_3)" stroke="none" />
          <path d="M41.3136 37.3014C41.3136 37.3014 48.025 30.2555 44.9739 22.9038C41.9227 15.551 48.9398 -3.43941 58.7023 0.542811C68.4659 4.52504 85.548 37.9152 78.2253 70.9974C70.9047 104.08 55.8833 121.54 60.1917 139C48.025 129.811 35.8215 98.8719 35.5169 95.1955C35.2113 91.5202 20.2624 84.7802 11.7213 72.2218C3.17817 59.6635 -2.00821 37.3014 0.739375 30.2555C3.48381 23.2107 6.83952 10.6386 17.5169 8.96074C28.1963 7.2818 34.6011 15.2462 33.075 25.6606C31.551 36.0759 37.2457 39.5477 41.3136 37.3014" transform="translate(61 139)" id="Fill-368" fill="url(#gradient_7)" stroke="none" />
          <path d="M16.3745 0.542811C6.46172 -3.43941 -0.663342 15.551 2.43474 22.9038C4.6466 28.1537 1.80659 33.2432 0 35.7269C13.7564 60.1433 5.66401 90.9053 8.63092 117.786C9.86908 129.025 17.2149 138.501 17.8868 139C13.5121 121.54 28.7647 104.08 36.198 70.9974C43.6334 37.9152 26.2884 4.52504 16.3745 0.542811" transform="translate(103 139)" id="Fill-369" fill="url(#gradient_3)" stroke="none" />
          <path d="M31.4401 31.6284C31.4401 31.6284 32.9717 24.1794 27.9138 20.588C22.8517 16.9986 19.6451 1.52266 27.7577 0.0941763C35.8692 -1.33644 60.993 13.6265 69.8236 38.542C78.6543 63.4585 75.9278 81.2518 86 91C74.1402 89.9888 53.266 74.616 51.5421 72.3105C49.8225 70.0091 37.1353 71.775 26.2835 67.0266C15.4316 62.2802 2.75074 49.6558 1.65462 43.8546C0.559552 38.0555 -2.41656 28.3499 3.96052 22.7956C10.3386 17.2435 17.8756 19.8418 21.1714 27.361C24.4693 34.8813 29.6749 34.8058 31.4401 31.6284" transform="translate(119 152)" id="Fill-370" fill="url(#gradient_7)" stroke="none" />
          <path d="M4.92632 0.0941763C-3.16279 1.52266 0.0345143 16.9986 5.08201 20.588C8.68493 23.1522 8.93381 27.6814 8.78555 30.0626C27.7989 40.5655 35.2197 64.2164 48.2335 80.7717C53.6739 87.6917 62.3582 90.9457 63 91C52.9569 81.2518 55.6755 63.4585 46.8705 38.542C38.0654 13.6265 13.0144 -1.33644 4.92632 0.0941763" transform="translate(142 152)" id="Fill-371" fill="url(#gradient_3)" stroke="none" />
          <path d="M65.9903 47.9787C65.9903 47.9787 73.366 39.6906 69.0633 23.746C64.7596 7.80136 72.4443 -3.86708 83.511 1.1966C94.5756 6.26029 88.7353 30.7381 85.9681 38.9997C83.202 47.2612 95.1893 70.9526 84.1247 78.6834C73.0591 86.4121 65.3744 92.2591 57.6918 95.5015C50.005 98.7439 41.7076 108.608 35.8695 111.999C30.0282 115.391 14.6599 140.669 13.1224 153C6.36043 132.346 -3.78247 104.209 1.44295 84.8297C6.66836 65.4506 2.98052 61.8091 9.43345 49.4486C15.8896 37.0882 9.12551 30.6819 21.1139 23.8659C33.1013 17.0499 38.9415 2.46491 47.2399 2.20488C55.5394 1.94379 69.0633 -0.566296 65.6823 12.5573C62.3014 25.6819 57.077 49.6195 65.9903 47.9787" transform="translate(0 76)" id="Fill-372" fill="url(#gradient_7)" stroke="none" />
          <path d="M72.9878 38.9997C75.7415 30.7381 81.5533 6.26029 70.5426 1.1966C59.5298 -3.86708 51.8826 7.80136 56.1653 23.746C60.447 39.6906 53.1073 47.9787 53.1073 47.9787C52.0542 48.1729 51.2034 48.0041 50.521 47.5403C14.1372 68.5762 4.60708 111.841 0 151.477C0.167435 151.987 0.333816 152.497 0.497038 153C2.02712 140.669 17.3205 115.391 23.1333 111.999C28.943 108.608 37.2 98.7439 44.8493 95.5015C52.4944 92.2591 60.1417 86.4121 71.1534 78.6834C82.164 70.9526 70.2351 47.2612 72.9878 38.9997" transform="translate(12 76)" id="Fill-373" fill="url(#gradient_3)" stroke="none" />
          <path d="M34.4609 25.4003C34.4609 25.4003 38.3137 21.0114 36.0647 12.5706C33.8189 4.1299 37.8312 -2.04761 43.612 0.633717C49.3896 3.31398 46.3392 16.2716 44.8938 20.6456C43.4494 25.0206 49.7095 37.5623 43.9308 41.6546C38.1511 45.747 34.1399 48.8433 30.1277 50.5593C26.1133 52.2754 21.7812 57.4973 18.7308 59.2934C15.6804 61.0884 7.65596 74.4716 6.85351 81C3.32064 70.0646 -1.97552 55.1701 0.753853 44.9087C3.48113 34.6495 1.5563 32.7211 4.92763 26.1778C8.29687 19.6345 4.7661 16.2428 11.0252 12.6336C17.2874 9.0254 20.3347 1.30458 24.671 1.167C29.0032 1.02834 36.0647 -0.299522 34.2994 6.64698C32.5361 13.5967 29.8056 26.2685 34.4609 25.4003" transform="translate(41 193)" id="Fill-374" fill="url(#gradient_7)" stroke="none" />
          <path d="M38.863 20.6456C40.3296 16.2716 43.4245 3.31398 37.5625 0.633717C31.6973 -2.04761 27.6264 4.1299 29.905 12.5706C32.1868 21.0114 28.2778 25.4003 28.2778 25.4003C27.7179 25.5027 27.2635 25.4141 26.9016 25.1678C7.52867 36.3048 2.45422 59.2091 0 80.1916C0.0904633 80.4625 0.178798 80.7344 0.267133 81C1.0813 74.4716 9.22299 61.0884 12.3179 59.2934C15.4128 57.4973 19.8083 52.2754 23.8812 50.5593C27.9521 48.8433 32.0219 45.747 37.886 41.6546C43.7491 37.5623 37.3975 25.0206 38.863 20.6456" transform="translate(48 193)" id="Fill-375" fill="url(#gradient_3)" stroke="none" />
          <path d="M37.7332 29.0656C37.7332 29.0656 58.1185 31.7952 55.8191 14.3357C53.5177 -3.12375 5.71008 -12.8536 0 35C21.6869 26.5538 37.7332 29.0656 37.7332 29.0656" transform="translate(30 6)" id="Fill-376" fill="url(#gradient_3)" stroke="none" />
          <path d="M15.8728 33.9829C16.2883 35.1692 15.6529 36.463 14.4489 36.874C13.249 37.2851 11.9361 36.657 11.5195 35.4707L0.127934 3.01853C-0.289632 1.83225 0.348874 0.537455 1.54977 0.125334C2.75173 -0.284701 4.06362 0.344436 4.47907 1.52968L15.8728 33.9829" transform="translate(54 0)" id="Fill-377" fill="url(#gradient_8)" stroke="none" />
          <path d="M56 21.5926C56 21.5926 47.9132 -3.85136 26.7636 0.500837C5.61409 4.85409 -3.20599 17.7444 1.03663 40C4.34363 25.3745 29.7125 1.65097 56 21.5926" transform="translate(25 25)" id="Fill-378" fill="url(#gradient_3)" stroke="none" />
          <path d="M18.2662 29.0655C18.2662 29.0655 -2.11945 31.7962 0.181021 14.3355C2.48044 -3.12315 50.2888 -12.8542 56 35C34.3127 26.5526 18.2662 29.0655 18.2662 29.0655" transform="translate(86 31)" id="Fill-379" fill="url(#gradient_3)" stroke="none" />
          <path d="M0.127635 33.982C-0.288923 35.1683 0.347543 36.462 1.5507 36.8742C2.75174 37.2852 4.06379 36.6561 4.47823 35.4698L15.8722 3.01693C16.2888 1.83066 15.6534 0.53693 14.4502 0.125857C13.2503 -0.285217 11.9382 0.343913 11.5217 1.52914L0.127635 33.982" transform="translate(102 25)" id="Fill-380" fill="url(#gradient_8)" stroke="none" />
          <path d="M0 21.5922C0 21.5922 8.08483 -3.85226 29.2357 0.501077C50.3856 4.85337 59.2047 17.744 54.9642 40C51.6571 25.3742 26.2858 1.65018 0 21.5922" transform="translate(91 50)" id="Fill-381" fill="url(#gradient_3)" stroke="none" />
        </g>
      </g>
      <g id="Group-12" transform="translate(0 49)">
        <path d="M79 34.2466C76.3397 28.1113 69.6468 25.3001 63.2606 25.9806C56.0645 26.7474 58.672 30.4981 62.8155 29.6655C66.9605 28.8322 74.4879 31.6265 76.6961 33.5952C78.9074 35.5654 79.8108 44.5783 77.3057 51.394C76.4322 44.7534 72.0233 38.94 65.8911 36.6701C60.7265 34.7588 60.4382 40.0569 64.6803 41.3023C68.9217 42.5477 76.9302 54.5163 76.9302 54.5163C74.9223 60.8427 73.5799 63.9574 70.3459 69.9673C70.3459 69.9673 71.6279 60.7556 67.349 54.0767C63.0702 47.3979 57.325 48.8145 57.1996 51.3428C57.1288 52.7687 58.1351 53.1079 59.9009 53.7031C61.265 54.163 63.0823 54.7756 65.2066 56.16C70.082 59.3359 69.4502 72.9933 69.4502 72.9933C67.1379 76.0384 65.9187 77.5154 63.3869 80.3594C64.2925 73.8465 63.8642 66.5185 60.5391 60.8878C57.7419 56.1493 56.0782 65.8488 60.3051 67.8442C64.5319 69.8396 62.9111 79.981 62.9111 79.981C62.9111 79.981 61.2207 84.3433 54.2807 90.1308C62.6174 73.9696 53.1211 75.2884 54.2562 78.8105C55.3921 82.3334 51.1377 91.325 51.1377 91.325C47.3813 93.7974 45.4897 94.9327 41.7417 97C41.7417 97 35.1437 93.1009 34.5249 91.2699C33.9061 89.4389 36.7722 81.3977 41.8121 75.4336C46.8528 69.4688 51.3443 61.1042 48.9723 60.9322C47.7276 60.8415 47.0389 62.0275 45.9561 63.892C44.9764 65.5793 43.6739 67.8223 41.3447 70.1775C36.4432 75.1362 36.0944 76.4764 29.7664 83.6071C32.6792 75.8717 34.1409 72.6378 38.0985 68.5567C42.0561 64.4757 47.2467 54.618 44.0601 55.3886C37.7803 56.907 32.7044 71.1309 28.4279 78.325C29.0207 72.4176 30.3768 64.9849 33.4357 60.5392C35.5483 57.4658 41.2828 48.5271 39.2718 48.1708C37.2617 47.8145 32.3273 56.095 31.7789 59.3305C31.2304 62.569 26.9906 72.3373 26.9906 72.3373C26.9906 72.3373 26.7175 68.0461 22.392 65.2074C21.6678 59.4421 26.1492 53.8239 29.9178 49.0994C30.8378 47.946 31.7153 46.8459 32.4642 45.8099C36.2306 40.599 29.9347 43.7794 26.7841 48.0714C23.6335 52.3634 21.9293 54.8122 18.5186 60.2456C18.5662 59.1346 18.183 57.7151 17.7702 56.1855C17.0618 53.5609 16.266 50.6124 17.4095 48.3436C19.2177 44.7526 26.8567 39.9407 27.8626 36.456C28.8677 32.9713 20.8072 36.5241 16.7448 43.3551C14.1877 47.6563 13.8053 49.7258 13.9085 50.7335C13.1084 48.5752 9.59754 42.8941 8.42036 40.5325C6.97011 37.6173 12.5156 34.4018 19.3164 32.109C26.1171 29.8154 17.798 27.6151 12.2097 30.5623C6.61978 33.5103 6.42473 38.3627 6.42473 38.3627C6.42473 38.3627 -2.38157 35.3161 0.626023 26.0822C3.95487 15.8621 20.7666 18.4714 28.0584 23.2749C32.8903 26.4576 33.8586 24.2321 33.8586 24.2321C33.8586 24.2321 33.8625 24.2344 34.2663 23.3766C34.6702 22.5188 26.804 18.6511 19.7944 16.6679C12.7849 14.6848 14.2305 8.98371 17.2481 5.09306C22.8999 -2.19435 40.1239 -0.481825 48.6097 2.94858C42.0821 4.67946 35.6332 14.0731 37.843 20.0861C39.5036 24.6014 45.2993 18.6251 47.7982 15.8484C48.8739 14.6526 48.4388 13.1261 47.9722 11.4895C47.3557 9.32666 46.6844 6.97167 49.3731 4.93404C55.7279 0.115267 65.0979 7.60911 68.1996 13.5838C61.2589 11.0311 52.1505 16.8644 47.1067 21.0287C42.6481 24.7107 51.0276 26.6877 54.3802 20.872C57.735 15.0563 62.0835 14.7283 67.3544 15.2214C74.9521 15.9324 78.4722 27.375 79 34.2466ZM49.5116 34.6578C49.9222 35.1085 50.3204 35.5658 50.7055 36.0303C53.9198 36.3036 56.8011 35.6114 58.5116 33.2601C55.3943 29.0877 49.9037 31.6911 49.5116 34.6578ZM33.3889 37.9593C30.8918 36.7045 31.9814 36.1318 33.2449 35.4677C33.9122 35.117 34.628 34.7407 34.8895 34.225C35.3749 33.8285 35.6463 34.1623 35.9612 34.5496C36.204 34.8481 36.4726 35.1786 36.8852 35.2308C36.5932 37.1745 33.8796 38.3917 33.3889 37.9593ZM42.9858 87.383C46.0814 82.9909 46.926 79.2652 50.6026 76.4435C52.2668 74.9264 52.2773 73.111 52.0774 71.8908C52.0742 71.8788 52.071 71.8669 52.0678 71.855C51.9313 71.3463 51.8339 70.983 49.7491 72.6645C45.6204 75.8527 41.627 80.8267 40.2545 86.5411C39.7339 88.3847 41.6045 89.2614 42.9858 87.383Z" transform="matrix(0.9876884 -0.1564345 0.1564345 0.9876884 488.8992 377.7763)" id="Fill-432" fill="url(#gradient_3)" fill-rule="evenodd" stroke="none" />
        <path d="M114.913 68.1637C113.944 62.3689 107.548 56.576 96.6811 53.0991C85.8176 49.6232 85.8346 54.6441 92.6183 56.19C99.4049 57.734 108.904 63.9139 111.423 66.6187C113.944 69.3227 111.811 77.6265 106.578 83.4203C105.996 77.6265 99.2111 68.9367 91.8424 64.4986C84.4766 60.0633 80.5999 65.2658 86.9971 68.5488C93.3952 71.8326 105.801 86.3172 105.801 86.3172L96.496 100.223C96.496 100.223 94.7514 91.5321 87.3855 83.0343C80.0177 74.5375 70.5189 73.1855 69.3545 76.0825C68.6135 77.9306 70.7124 78.8354 74.6946 80.5519C76.9543 81.526 79.8206 82.7616 83.1185 84.5793C92.2309 89.6011 96.3022 103.12 96.3022 103.12L88.7426 110.072C88.7426 110.072 80.0177 94.815 74.009 88.4422C67.9993 82.0693 65.4769 93.27 74.784 96.3609C84.0891 99.4508 87.3855 109.687 87.3855 109.687C87.3855 109.687 87.1918 113.742 79.0481 120.115C77.4972 103.507 62.7646 104.086 67.8037 108.142C72.8456 112.197 73.6206 121.66 73.6206 121.66L60.8253 129C60.8253 129 40.4695 126.489 36.7856 124.364C33.1017 122.24 31.3581 110.459 39.307 102.734C47.2551 95.008 56.1718 85.7392 51.713 84.5793C49.1662 83.9172 47.6312 85.4612 45.0843 88.0231C43.173 89.9456 40.6918 92.4413 36.7856 95.008C27.6761 100.996 26.7046 102.734 18.3681 114.321C18.7556 101.962 22.4404 96.5539 30.1956 91.533C37.949 86.5112 52.1014 77.2414 44.5399 74.7305C36.9793 72.2196 23.0207 86.1252 12.3594 105.438C10.4201 99.0648 17.3947 79.8195 23.6028 76.2755C29.812 72.7305 44.3452 63.7218 41.6319 61.7909C38.9186 59.8589 24.3787 68.1637 21.4698 73.1855C18.5637 78.2064 8.28801 94.043 8.28801 94.043C8.28801 94.043 7.70585 86.3182 2.08364 77.2414C3.24702 64.1069 23.5544 57.1077 34.3135 53.1975C45.0727 49.2864 33.4417 47.9818 24.4272 51.1691C15.4126 54.3555 10.3232 56.2383 0 63.6263C3.19763 57.6867 6.39716 44.6515 13.3765 41.4642C20.3549 38.2787 34.8947 40.3052 40.856 37.4083C46.8192 34.5114 34.3135 29.8774 20.2096 33.7867C11.3251 36.2512 7.80937 39.0583 6.42186 40.8C8.83219 36.3231 15.5143 24.1621 19.0481 20.1715C23.4091 15.2471 31.6971 19.4477 40.2757 24.3721C48.8534 29.2975 46.6729 19.1582 38.6755 15.4808C30.679 11.8052 21.9551 15.4808 21.9551 15.4808C21.9551 15.4808 23.9913 2.50047 43.3281 0.183497C62.6668 -2.13442 62.6668 18.144 61.0675 25.0968C59.4672 32.0496 64.4114 30.8897 64.4114 30.8897L66.061 30.5037C67.3326 30.2044 67.2179 24.3853 67.0992 18.3712C67.0641 16.5927 67.0287 14.7971 67.0287 13.1222C67.0287 5.78245 77.3026 4.81744 86.8033 5.00949C96.3022 5.20439 107.741 18.1431 109.486 26.4478C102.507 22.778 79.2418 25.0959 74.2027 30.6958C69.4019 36.0307 82.185 35.2328 88.9388 34.8113C89.2767 34.7902 89.5994 34.7701 89.9041 34.7517C92.6086 34.5889 94.2739 33.2871 96.0713 31.8821C98.5262 29.9631 101.228 27.8515 107.159 28.1858C117.434 28.7648 119.76 38.2285 116.272 45.7613C114.138 41.5115 92.0371 38.4215 82.1498 38.4215C72.2635 38.4215 79.6303 45.9533 90.68 43.2494C100.906 40.7475 105.486 42.8756 111.797 45.8083C112.307 46.0451 112.828 46.2871 113.364 46.5323C120.536 49.8153 118.016 61.0179 114.913 68.1637ZM43.9823 43.5736C42.8868 40.1027 44.6739 40.4361 46.7371 40.8211C47.8111 41.0215 48.96 41.2358 49.8159 40.9347C50.7519 40.9347 50.6367 41.4894 50.5033 42.1317C50.3992 42.6331 50.2839 43.1879 50.6493 43.5736C48.1492 45.3338 43.9823 44.4532 43.9823 43.5736ZM68.525 52.2945L68.525 54.8164C72.6424 57.3394 77.5841 58.18 82.525 56.4987C82.525 49.7725 72.6424 48.9319 68.525 52.2945ZM48.914 118.679C50.5975 112.901 49.7567 107.949 55.6479 104.648C58.1741 102.842 57.3314 100.521 56.4906 98.8699C56.4775 98.8498 56.4645 98.8298 56.4515 98.81C56.0003 98.1165 55.6533 97.5832 52.1223 99.4902C45.0459 103.091 39.058 110.2 42.1801 117.853C43.0229 120.33 48.0723 121.155 48.914 118.679Z" transform="matrix(0.9510565 0.309017 -0.309017 0.9510565 401.8193 322.9249)" id="Fill-424" fill="url(#gradient_3)" fill-rule="evenodd" stroke="none" />
        <g id=",jkmijt-hfcntybt">
          <path d="M0.567473 3.41095C6.13692 21.3338 51.0854 168.97 59.6539 281L65 280.594C60.3781 220.325 45.4081 150.235 31.5962 95.1543C17.7842 40.0787 5.1278 0.0357435 5.11496 0L0 1.59824C0 1.6008 0.195149 2.2161 0.567473 3.41095Z" transform="translate(66 126)" id="Fill-50" fill="url(#gradient_6)" stroke="none" />
          <path d="M88.8564 0C88.3391 0.672819 32.1422 69.8452 0 372.437L5.31648 373C21.3504 221.982 43.3898 129.401 61.37 74.6675C70.3589 47.2994 78.331 29.3943 84.024 18.3733C86.8717 12.8629 89.1484 9.0741 90.6952 6.68214C91.4711 5.48744 92.0627 4.64066 92.452 4.10343C92.6466 3.83481 92.7926 3.64294 92.8848 3.52526L92.9821 3.39991L93 3.37689L92.644 3.0878L92.9974 3.37944L93 3.37689L92.644 3.0878L92.9974 3.37944L88.8564 0" transform="translate(149 34)" id="Fill-53" fill="url(#gradient_6)" stroke="none" />
          <g id="листик-1" transform="translate(0 101)">
            <path d="M62.6939 9.73656C62.6939 9.73656 43.5201 3.74966 26.7434 37.2712C4.92787 80.861 -24.7852 156.992 36.3316 158.189C36.3316 158.189 95.0487 162.978 115.421 70.7928C135.793 -21.3928 81.8676 -1.03987 62.6939 9.73656" id="Fill-51" fill="url(#gradient_9)" stroke="none" />
            <g clip-path="url(#mask_2)">
              <path d="M62.6939 10.6771C62.6939 10.6771 43.5201 4.11189 26.7434 40.8718C4.92787 88.6725 -24.7852 172.157 36.3316 173.47C36.3316 173.47 95.0487 178.723 115.421 77.6316C135.793 -23.4594 81.8676 -1.14032 62.6939 10.6771" transform="translate(25.50037 -15.28571)" id="Fill-51" fill="url(#gradient_3)" stroke="none" />
            </g>
          </g>
          <g id="Group-28" transform="matrix(-0.9925461 -0.1218693 -0.1218693 0.9925461 199.6995 163.8135)">
            <path d="M38.1562 6.03031C38.1562 6.03031 26.4869 2.32234 16.2764 23.0838C2.99916 50.081 -15.0845 97.2321 22.1118 97.9737C22.1118 97.9737 57.8477 100.94 70.2465 43.8453C82.6453 -13.2496 49.8256 -0.644037 38.1562 6.03031" id="Fill-51" fill="url(#gradient_9)" stroke="none" />
            <g clip-path="url(#mask_3)">
              <path d="M38.1562 6.66507C38.1562 6.66507 26.4869 2.56679 16.2764 25.5137C2.99916 55.3526 -15.0845 107.467 22.1118 108.287C22.1118 108.287 57.8477 111.565 70.2465 48.4606C82.6453 -14.6442 49.8256 -0.711831 38.1562 6.66507" transform="translate(15.10345 -10.31579)" id="Fill-51" fill="url(#gradient_4)" stroke="none" />
            </g>
          </g>
          <path d="M1.68412 5.33224L1.44163 2.70455L1.44163 5.34248L1.68412 5.33224L1.44163 2.70455L1.44163 5.34248L1.44163 3.14207L0.191862 5.01754C0.410372 5.16082 0.890028 5.3476 1.44163 5.34248L1.44163 3.14207L0.191862 5.01754L0.831403 4.05806L0.00266475 4.87937L0.191862 5.01754L0.831403 4.05806L0.00266475 4.87937L0.0532951 4.83076L0 4.87425L0.00266475 4.87937L0.0532951 4.83076L0 4.87425C0.0612893 4.93054 0.559598 5.57787 1.2018 7.21538C2.34765 10.0836 4.00779 15.9275 5.82515 27.0651C11.3039 60.5189 18.3548 141.67 20.4333 337L26 336.944C24.2226 170.373 18.8478 86.7473 13.8647 44.63C11.3652 23.5598 8.98288 12.8878 7.1069 7.25632C6.15825 4.43417 5.36148 2.86574 4.5514 1.79368C4.14103 1.26149 3.71467 0.841881 3.19237 0.516937C2.67808 0.191993 2.02521 -0.00501991 1.44163 9.73135e-05L1.19381 0.0103318L1.68412 5.33224" transform="translate(119 70)" id="Fill-56" fill="url(#gradient_6)" stroke="none" />
          <path d="M35 10.788C34.9356 10.6908 33.4008 8.18633 30.8925 5.577C29.6306 4.2749 28.1241 2.93698 26.3601 1.87279C24.5986 0.816267 22.5307 0.00533014 20.213 0.000213822C18.0266 -0.0151351 15.7141 0.795802 13.7234 2.45605C11.7199 4.11374 9.96615 6.53887 8.36951 9.90029C8.02185 10.6396 7.76948 11.4403 7.52483 12.3919C6.6029 16.0348 5.86896 22.0311 5.19425 30.1814C2.85336 58.6205 1.56317 112.69 0.847252 168.468C0.131337 224.233 0 281.654 0 316.593C0 337.209 0.0463542 349.997 0.0463542 350L5.42344 349.98C5.42344 349.972 5.41057 346.787 5.40026 341.016C5.38996 335.245 5.37709 326.897 5.37709 316.593C5.37709 275.391 5.5625 202.903 6.66728 138.793C7.22095 106.737 8.00383 76.7732 9.1086 53.8853C9.6597 42.4452 10.2932 32.7677 11.0117 25.5179C11.3722 21.8929 11.7534 18.8743 12.1474 16.5771C12.5259 14.2978 12.9843 12.6631 13.2367 12.1745C14.599 9.28889 15.9819 7.53144 17.1588 6.56701C18.3485 5.6077 19.2602 5.357 20.213 5.34165C21.2148 5.33654 22.3685 5.71514 23.5737 6.44166C25.3789 7.51609 27.1661 9.32727 28.4229 10.8647C29.0564 11.6322 29.5663 12.328 29.9088 12.8217C30.0813 13.0699 30.2126 13.2643 30.2976 13.3973L30.3903 13.5406L30.4109 13.5738L35 10.788" transform="translate(140 42)" id="Fill-61" fill="url(#gradient_6)" stroke="none" />
          <g id="Group-25" transform="translate(154 31)">
            <path d="M86.049 156.003C86.049 156.003 102.677 111.705 74.1685 41.072C45.6602 -29.5633 19.5255 12.3374 19.5255 12.3374C19.5255 12.3374 -8.98275 9.94261 2.89528 102.128L25.4658 76.9858L14.7758 117.692L36.1558 145.226L48.0363 124.876L49.2244 153.608C49.2244 153.608 81.2968 161.987 86.049 156.003" id="Fill-62" fill="url(#gradient_10)" stroke="none" />
            <g clip-path="url(#mask_4)">
              <path d="M86.049 156.003C86.049 156.003 102.677 111.705 74.1685 41.072C45.6602 -29.5633 19.5255 12.3374 19.5255 12.3374C19.5255 12.3374 -8.98275 9.94261 2.89528 102.128L25.4658 76.9858L14.7758 117.692L36.1558 145.226L48.0363 124.876L49.2244 153.608C49.2244 153.608 81.2968 161.987 86.049 156.003" transform="translate(-5.055555 10.19048)" id="Fill-62" fill="url(#gradient_10)" stroke="none" />
              <path d="M69.7466 145.176C69.739 145.128 65.4291 109.143 55.1562 73.0504C50.0147 55.0006 43.3945 36.9277 34.9871 23.2317C30.7783 16.3837 26.1196 10.621 20.9023 6.51937C15.6951 2.42279 9.86855 -0.00508723 3.53142 8.00387e-06C2.8565 8.00387e-06 2.174 0.0254842 1.48897 0.0815318C0.599194 0.155413 -0.0656118 0.940079 0.00516601 1.83939C0.0759438 2.73615 0.857027 3.40617 1.7468 3.33229C2.34842 3.28389 2.94244 3.26096 3.53142 3.26096C9.03692 3.26606 14.1127 5.32963 18.9155 9.09246C27.3102 15.6653 34.6458 27.499 40.7428 41.5619C49.9111 62.6536 56.3797 88.6903 60.5303 109.423C62.6081 119.789 64.1096 128.833 65.0929 135.281C65.5833 138.506 65.9448 141.082 66.1824 142.848C66.42 144.616 66.5338 145.566 66.5338 145.568C66.6424 146.463 67.4463 147.1 68.3335 146.99C69.2208 146.883 69.8527 146.07 69.7466 145.176" transform="translate(17.69444 12.7381)" id="Fill-63" fill="url(#gradient_11)" stroke="none" />
            </g>
          </g>
          <g id="list4" transform="matrix(0.7660444 -0.6427876 0.6427876 0.7660444 213.2777 48.84373)">
            <path d="M70.3285 123.248C70.3285 123.248 83.9184 88.2506 60.6184 32.4483C37.3184 -23.3561 15.9583 9.74696 15.9583 9.74696C15.9583 9.74696 -7.34166 7.85501 2.36633 80.6849L20.8134 60.8214L12.0764 92.9805L29.5504 114.734L39.2604 98.6563L40.2314 121.356C40.2314 121.356 66.4445 127.975 70.3285 123.248" transform="translate(0.4953965 0.8818369)" id="Fill-62" fill="url(#gradient_10)" stroke="none" />
            <g clip-path="url(#mask_5)">
              <path d="M70.3285 123.248C70.3285 123.248 83.9184 88.2506 60.6184 32.4483C37.3184 -23.3561 15.9583 9.74695 15.9583 9.74695C15.9583 9.74695 -7.34166 7.85501 2.36633 80.6848L20.8134 60.8214L12.0764 92.9805L29.5504 114.734L39.2604 98.6563L40.2314 121.356C40.2314 121.356 66.4445 127.975 70.3285 123.248" transform="translate(-9.381584 12.60232)" id="Fill-62" fill="url(#gradient_7)" stroke="none" />
              <path d="M44.5479 58.2904C40.3953 43.8875 35.0483 29.4664 28.2579 18.5377C24.8587 13.0734 21.096 8.47502 16.8821 5.20211C12.6764 1.93326 7.97052 -0.00405934 2.85221 6.38666e-06C2.3071 6.38666e-06 1.75587 0.020335 1.20259 0.0650581C0.48395 0.124011 -0.0529925 0.750134 0.00417242 1.46773C0.0613374 2.1833 0.692193 2.71795 1.41084 2.65899C1.89674 2.62037 2.37652 2.60207 2.85221 2.60207C7.29883 2.60614 11.3984 4.25276 15.2774 7.2553C22.0576 12.5001 27.9823 21.9428 32.9067 33.1642C40.3116 49.9943 45.5361 70.7701 48.8884 87.3136C50.5666 95.5853 51.7793 102.802 52.5735 107.947C52.9695 110.521 53.2615 112.576 53.4534 113.985C53.6453 115.396 53.7372 116.154 53.7372 116.156C53.825 116.869 54.4742 117.378 55.1908 117.29C55.9074 117.205 46.2646 115.434 56.3321 115.843C56.3259 115.804 52.845 87.09 44.5479 58.2904Z" transform="translate(17.46392 13.05953)" id="Fill-63" fill="url(#gradient_12)" stroke="none" />
            </g>
          </g>
          <g id="list2" transform="matrix(0.1736482 0.9848077 0.9848077 -0.1736482 6.945307 22.00955)">
            <path d="M70.3285 123.248C70.3285 123.248 83.9184 88.2506 60.6184 32.4483C37.3184 -23.3561 15.9583 9.74696 15.9583 9.74696C15.9583 9.74696 -7.34166 7.85501 2.36633 80.6849L20.8134 60.8214L12.0764 92.9805L29.5504 114.734L39.2604 98.6563L40.2314 121.356C40.2314 121.356 66.4445 127.975 70.3285 123.248" transform="translate(0.4953965 0.8818369)" id="Fill-62" fill="url(#gradient_10)" stroke="none" />
            <g clip-path="url(#mask_5)">
              <path d="M70.3285 123.248C70.3285 123.248 83.9184 88.2506 60.6184 32.4483C37.3184 -23.3561 15.9583 9.74695 15.9583 9.74695C15.9583 9.74695 -7.34166 7.85501 2.36633 80.6848L20.8134 60.8214L12.0764 92.9805L29.5504 114.734L39.2604 98.6563L40.2314 121.356C40.2314 121.356 66.4445 127.975 70.3285 123.248" transform="translate(-9.381584 12.60232)" id="Fill-62" fill="url(#gradient_7)" stroke="none" />
              <path d="M44.5479 58.2904C40.3953 43.8875 35.0483 29.4664 28.2579 18.5377C24.8587 13.0734 21.096 8.47502 16.8821 5.20211C12.6764 1.93326 7.97052 -0.00405934 2.85221 6.38666e-06C2.3071 6.38666e-06 1.75587 0.020335 1.20259 0.0650581C0.48395 0.124011 -0.0529925 0.750134 0.00417242 1.46773C0.0613374 2.1833 0.692193 2.71795 1.41084 2.65899C1.89674 2.62037 2.37652 2.60207 2.85221 2.60207C7.29883 2.60614 11.3984 4.25276 15.2774 7.2553C22.0576 12.5001 27.9823 21.9428 32.9067 33.1642C40.3116 49.9943 45.5361 70.7701 48.8884 87.3136C50.5666 95.5853 51.7793 102.802 52.5735 107.947C52.9695 110.521 53.2615 112.576 53.4534 113.985C53.6453 115.396 53.7372 116.154 53.7372 116.156C53.825 116.869 54.4742 117.378 55.1908 117.29C55.9074 117.205 46.2646 115.434 56.3321 115.843C56.3259 115.804 52.845 87.09 44.5479 58.2904Z" transform="translate(17.46392 13.05953)" id="Fill-63" fill="url(#gradient_12)" stroke="none" />
            </g>
          </g>
        </g>
        <g id="Group-6" transform="translate(177 34)" />
      </g>
    </g>
    <g id="Group-43" transform="matrix(-1 0 0 1 167 290)">
      <path d="M3.67499 86C3.14658 84.7264 -8.99684 54.1785 13.9809 0L17 1.34604C-5.35666 54.059 6.58218 84.3821 6.70511 84.6831L3.67499 86" transform="translate(50 85)" id="Fill-316" fill="url(#gradient_3)" stroke="none" />
      <path d="M32.9444 0C32.9444 0 36.2221 25.4118 36.9403 43.4433C38.3145 77.933 15.5997 85.1147 5.90155 91C-7.03329 65.8198 3.52075 43.0338 16.2155 25.3921C28.9085 7.75131 31.4996 6.53584 32.9444 0" transform="translate(52 16)" id="Fill-317" fill="url(#gradient_4)" stroke="none" />
      <path d="M30.8139 43.4433C29.4987 25.3902 26.847 0 26.847 0C26.8876 13.6564 18.3884 58.5844 2.70714 86.1946C1.92945 87.5692 0.699183 89.6066 0 91C10.6244 85.8453 33.2791 77.2354 30.8139 43.4433" transform="translate(58 16)" id="Fill-318" fill="url(#gradient_3)" stroke="none" />
      <path d="M19.812 77L16.4185 76.8015C16.4479 76.3051 19.1599 26.9963 0 2.03046L2.71099 0C22.633 25.9604 19.9371 74.9283 19.812 77" transform="translate(32 86)" id="Fill-324" fill="url(#gradient_3)" stroke="none" />
      <path d="M0 0C0 0 22.6543 23.528 37.2927 41.5392C65.2919 75.9913 50.5603 101.99 46.4583 116C15.3497 100.612 7.09858 68.4694 4.75403 39.883C2.40947 11.2966 3.78121 7.92366 0 0" id="Fill-325" fill="url(#gradient_3)" stroke="none" />
      <path d="M37.5069 41.5392C22.2195 24.0035 0 0 0 0C10.6981 14.0522 38.0727 67.4021 45.4278 108.811C45.7949 110.872 46.2718 113.985 46.7251 116C52.3249 101.921 66.1163 74.3625 37.5069 41.5392" id="Fill-326" fill="url(#gradient_4)" stroke="none" />
      <path d="M67 0C67 0 38.2203 4.00383 22.7847 13.3758C-6.7416 31.3011 -2.03495 60.8788 6.37605 73C34.6546 69.9123 34.616 49.8153 42.1691 29.4202C49.7231 9.02408 60.4992 3.54719 67 0" transform="translate(41 95)" id="Fill-334" fill="url(#gradient_4)" stroke="none" />
      <path d="M35.143 29.4569C27.6453 49.7075 27.6037 69.6502 0.0078729 73C-0.296344 63.2389 8.23212 51.3279 22.7703 29.7432C29.6813 19.4827 44.553 8.81847 58.8776 0.168051C59.5956 0.0582077 60 0 60 0C53.4924 3.55161 42.705 9.03534 35.143 29.4569" transform="translate(49 95)" id="Fill-335" fill="url(#gradient_3)" stroke="none" />
    </g>
  </g>
  <g id="screen" transform="translate(177.5 73.5)">
    <g id="Group-3" transform="translate(0 0.2925912)">
      <g filter="url(#filter_1)">
        <path d="M12.6765 77.6993L418.324 0.0367888C425.325 -0.379035 431 2.77793 431 7.08806L431 384.089C431 388.399 425.325 392.23 418.324 392.646L12.6765 362.055C5.67545 362.471 0 359.314 0 355.004L0 86.2564C0 81.9463 5.67545 78.1152 12.6765 77.6993Z" id="Rectangle" fill="url(#gradient_13)" stroke="none" />
      </g>
      <g clip-path="url(#mask_6)">
        <g filter="url(#filter_2)">
          <path d="M13.5178 73.8401L446.089 0.0529613C453.554 -0.545661 459.607 3.99912 459.607 10.204L459.607 371.375C459.607 377.58 453.554 383.095 446.089 383.694L13.5178 399.654C6.05214 400.252 0 395.707 0 389.502L0 86.1589C0 79.954 6.05214 74.4387 13.5178 73.8401Z" transform="translate(115.2736 7.573478)" id="Rectangle" fill="url(#gradient_14)" fill-opacity="0.5807292" stroke="none" />
        </g>
        <g filter="url(#filter_2)">
          <path d="M10.7531 73.8401L354.853 0.0529613C360.792 -0.545661 365.607 3.99912 365.607 10.204L365.607 371.375C365.607 377.58 360.792 383.095 354.853 383.694L10.7531 399.654C4.81434 400.252 0 395.707 0 389.502L0 86.1589C0 79.954 4.81434 74.4387 10.7531 73.8401Z" transform="translate(23 82.32181)" id="Rectangle" fill="url(#gradient_14)" fill-opacity="0.5807292" stroke="none" />
        </g>
        <g filter="url(#filter_2)">
          <path d="M11.0473 37.0777L364.559 0.0265937C370.661 -0.273995 375.607 2.00809 375.607 5.12378L375.607 186.48C375.607 189.596 370.661 192.365 364.559 192.666L11.0473 200.68C4.94602 200.98 0 198.698 0 195.583L0 43.2634C0 40.1477 4.94602 37.3783 11.0473 37.0777Z" transform="translate(55 207)" id="Rectangle" fill="url(#gradient_14)" fill-opacity="0.5807292" stroke="none" />
        </g>
      </g>
    </g>
  </g>
  <g id="Group" transform="translate(226.5 140.5)">
    <g id="Group-8">
      <g filter="url(#filter_2)">
        <path d="M7.42734 53.237C10.0588 52.9532 299.898 0.0251004 299.898 0.0251004C302.529 -0.258609 304.663 1.89533 304.663 4.83606L304.663 41.2498C304.663 44.1906 302.529 46.8045 299.898 47.0882C299.898 47.0882 10.0588 97.3685 7.42734 97.6522C6.92806 97.7061 2.17672 98.6583 1.87943 95.4804C0.162634 77.1288 -0.285479 70.0433 0.162634 60.537C0.462231 54.1814 6.573 53.3291 7.42734 53.237Z" transform="translate(0.3373659 7.105427E-14)" id="Rectangle" fill="url(#gradient_15)" stroke="none" />
      </g>
      <g clip-path="url(#mask_7)">
        <path d="M4.93487 14.7984L86.0651 0.0259129C88.7906 -0.266981 91 1.95668 91 4.99261L91 45.5851C91 48.621 88.7906 51.3196 86.0651 51.6125L4.93487 64.6514C2.20942 64.9443 0 62.7207 0 59.6847L0 20.8258C0 17.7898 2.20942 15.0913 4.93487 14.7984Z" transform="translate(230 -6)" id="Rectangle" fill="url(#gradient_16)" stroke="none" />
        <path d="M30.4561 1.35505C30.2791 1.38622 30.1219 1.49936 30.0226 1.64933L27.6757 1.79693C27.5851 1.63644 27.4031 1.54811 27.193 1.58509C27.0263 1.61444 26.8772 1.71643 26.7775 1.85342L24.2914 2.00977C24.2021 1.84512 24.0179 1.75387 23.805 1.79135C23.6354 1.82121 23.4841 1.92624 23.3844 2.06681L20.9123 2.22228C20.8417 2.01338 20.6368 1.88957 20.3947 1.93219C20.1955 1.96725 20.0216 2.10602 19.9268 2.28425L17.3859 2.44405C17.3211 2.20866 17.0856 2.07383 16.8373 2.12689C16.6343 2.17102 16.4618 2.32148 16.3752 2.50761L13.4379 2.69234L13.4335 2.65813C13.3953 2.36301 13.1249 2.19857 12.8255 2.28786C12.6042 2.35516 12.431 2.54516 12.3719 2.75938L9.11262 2.96435C9.04418 2.68516 8.75832 2.55099 8.46868 2.66627C8.29935 2.73301 8.16565 2.86968 8.09492 3.02835L5 3.22299L5.34414 4.21155L8.19284 4.0324L9.51282 10.0006L6.96296 10.4495L3.97279 0.978681C3.79807 0.42558 3.3227 0.0718341 2.73101 0.0554578L0.650668 0.000330241C0.353221 -0.0102912 0.0690824 0.236653 0.0106774 0.545041C-0.0482821 0.854088 0.142889 1.11043 0.437132 1.11837L2.51698 1.17358C2.71456 1.17919 2.87332 1.29705 2.93179 1.4815L8.1156 17.9009L5.27982 23.7367C5.00467 24.3023 5.01798 24.9101 5.31487 25.3621C5.61232 25.8139 6.13593 26.023 6.71591 25.9209L29.3683 21.9336C29.6689 21.8806 29.9122 21.5914 29.9122 21.2868C29.9122 20.9822 29.6689 20.7786 29.3683 20.8315L6.71604 24.8189C6.4372 24.868 6.29648 24.7049 6.24923 24.6326C6.20142 24.5603 6.10531 24.3625 6.23752 24.0907L9.03967 18.3247L29.49 13.1709C30.3366 12.9578 31 12.1168 31 11.2569L31 2.59806L31.3915 2.57344C31.4138 2.57247 31.436 2.56958 31.4578 2.56575C31.7281 2.51816 31.9625 2.29076 31.9959 2.03021C32.0324 1.7489 31.8209 1.53583 31.5229 1.55498L30.9515 1.59092C30.866 1.41534 30.6764 1.31627 30.4561 1.35505ZM27.7368 2.80328L29.9122 2.66647L29.9122 6.40982L27.7368 6.79275L27.7368 2.80328ZM26.6491 2.87169L24.3489 3.01635L24.3489 7.38912L26.6491 6.98422L26.6491 2.87169ZM20.9386 7.98941L20.9386 3.23082L23.2611 3.08476L23.2611 7.58059L20.9386 7.98941ZM19.8508 3.29923L17.4398 3.45086L17.6505 8.56827L19.8508 8.18095L19.8508 3.29923ZM14.2675 9.16376L13.5664 3.69446L16.3462 3.51963L16.562 8.75987L14.2675 9.16376ZM12.454 3.76441L9.33312 3.96069L10.6257 9.80462L13.171 9.35657L12.454 3.76441ZM29.9122 7.51181L29.9122 11.4484C29.9122 11.7352 29.6913 12.0152 29.4088 12.0865L27.7368 12.5078L27.7368 7.89473L29.9122 7.51181ZM26.6491 12.7818L26.6491 8.08613L24.3489 8.49103L24.3489 13.3615L26.6491 12.7818ZM23.2612 8.68256L23.2612 13.6357L20.9386 14.221L20.9386 9.09139L23.2612 8.68256ZM19.8509 14.495L19.8509 9.28279L17.6956 9.66219L17.9146 14.983L19.8509 14.495ZM16.8294 15.2565L15.1045 15.6911L14.4058 10.2414L16.6071 9.85392L16.8294 15.2565ZM12.0952 16.4494L14.0182 15.9648L13.3091 10.4344L10.8602 10.8654L12.0952 16.4494ZM11.0001 16.7254L9.09592 17.2052L7.29257 11.4934L9.74743 11.0613L11.0001 16.7254ZM26.7061 24.8855C26.7061 25.6981 27.4392 26.2277 28.3435 26.0686C29.2478 25.9094 29.9809 25.1216 29.9809 24.3091C29.9809 23.4965 29.2478 22.9668 28.3435 23.126C27.4392 23.2852 26.7061 24.0729 26.7061 24.8855ZM8.69495 29.5272C7.79065 29.6864 7.05756 29.1567 7.05756 28.3441C7.05756 27.5316 7.79065 26.7438 8.69495 26.5846C9.59926 26.4255 10.3323 26.9551 10.3323 27.7677C10.3323 28.5803 9.59926 29.368 8.69495 29.5272Z" transform="translate(252 18)" id="Combined-Shape" fill="#FFFFFF" fill-rule="evenodd" stroke="none" />
      </g>
    </g>
  </g>
  <g id="dress" transform="translate(249.5 147.5)">
    <g id="Group-3">
      <g filter="url(#filter_2)">
        <path d="M4.76471 28.237L157.235 0.0251004C159.867 -0.258609 162 1.89533 162 4.83606L162 169.25C162 172.191 159.867 174.805 157.235 175.088L4.76471 182.652C2.13323 182.936 0 180.782 0 177.841L0 34.0753C0 31.1346 2.13323 28.5207 4.76471 28.237Z" id="Rectangle" fill="url(#gradient_15)" stroke="none" />
      </g>
      <g clip-path="url(#mask_8)">
        <g filter="url(#filter_2)">
          <path d="M4.14706 24.5272L136.853 0.0218027C139.143 -0.224634 141 1.64632 141 4.20071L141 147.014C141 149.568 139.143 151.839 136.853 152.085L4.14706 158.656C1.8567 158.902 0 157.031 0 154.477L0 29.5985C0 27.0442 1.8567 24.7736 4.14706 24.5272Z" transform="translate(30 60)" id="Rectangle" fill="url(#gradient_17)" fill-opacity="0.561942" stroke="none" />
        </g>
      </g>
    </g>
    <path d="M17.1016 8.51662C17.1016 8.51662 13.5155 9.15495 12.4123 13.8758C11.3091 18.5967 -1.7053e-13 80.3024 -1.7053e-13 80.3024C-1.7053e-13 80.3024 1.55042 81.2202 4.07454 80.9366C6.11022 80.7081 8.82675 79.1577 8.82675 79.1577L19.5761 26.9134C19.5761 26.9134 25.0858 46.271 22.6986 53.605C22.6986 53.605 11.2377 76.7055 21.5044 122.836C21.5044 122.836 22.937 123.671 24.1311 124.086L22.6986 97.7945L28.4287 124.429C28.4287 124.429 44.665 132.581 55.1706 123.173C55.1706 123.173 64.7216 69.5305 53.977 44.6564C53.977 44.6564 52.3056 42.6816 57.7973 15.5818L67.5866 63.5154C67.5866 63.5154 69.8946 63.8862 72.6005 62.7947C75.3567 61.6835 77.376 59.8141 77.376 59.8141L64.0053 1.04481C64.0053 1.04481 62.0949 -0.388816 59.2298 0.102584C59.2298 0.102584 55.1934 6.34832 37.5129 13.2915" transform="translate(37 32.83917)" id="Fill-69" fill="url(#gradient_18)" stroke="none" />
  </g>
  <g id="women" transform="translate(82.5 176.5)">
    <g id="нога" transform="matrix(0.9848077 0.1736482 -0.1736482 0.9848077 79.95537 356.2096)">
      <g id="Path-5">
        <use stroke="none" fill="url(#gradient_19)" xlink:href="#path_10" />
        <use stroke="none" fill="url(#gradient_20)" xlink:href="#path_10" />
      </g>
      <g clip-path="url(#mask_9)">
        <path d="M5.9793 6.468L17.2129 21.0727L41.1797 25.822L59.3105 0L59.3105 9.57212L77.3965 36.8122C77.3965 36.8122 42.9033 36.8122 38.6982 36.8122C34.4932 36.8122 11.8672 32.4724 11.8672 32.4724L0 25.302L5.9793 6.468Z" transform="translate(19.11719 68.178)" id="Path-6" fill="url(#gradient_21)" stroke="none" />
      </g>
    </g>
    <g id="нога" transform="matrix(0.9961947 -0.08715574 0.08715574 0.9961947 106.05 382.6259)">
      <path d="M3.4839 35.4171C3.4839 35.4171 21.5749 62.6725 21.5749 75.8067C21.5749 79.9033 21.2655 83.7246 21.0627 87.131C20.6153 94.6458 20.6866 100.141 25.7425 102.12C33.0902 104.995 42.6174 106.893 60.6551 104.036C78.6927 101.179 89.4141 90.2233 80.7858 90.2233C74.1941 90.2233 44.1335 85.911 41.8762 83.8815C32.3129 75.2837 32.301 72.4556 33.5269 49.4977C34.7528 26.5398 37.4663 5.80569 28.6965 0.668678C19.9267 -4.46833 5.95584e-13 29.8589 5.95584e-13 29.8589L3.4839 35.4171Z" transform="matrix(0.9876884 0.1564345 -0.1564345 0.9876884 17.271 0.3504248)" id="Path-5" fill="url(#gradient_22)" stroke="none" />
      <g clip-path="url(#mask_10)">
        <path d="M5.9793 6.468L17.2129 21.0727L41.1797 25.822L59.3105 0L59.3105 9.57212L77.3965 36.8122C77.3965 36.8122 42.9033 36.8122 38.6982 36.8122C34.4932 36.8122 11.8672 32.4724 11.8672 32.4724L0 25.302L5.9793 6.468Z" transform="translate(19.11719 80.178)" id="Path-6" fill="url(#gradient_21)" stroke="none" />
      </g>
    </g>
    <g id="hair">
      <path d="M84.3896 28.4675C84.3896 28.4675 88.1425 32.9714 91.0605 30.7194C93.9785 28.4675 93.1211 22.614 99.8594 22.614C106.598 22.614 101.871 12.1628 108.781 16.6208C115.691 21.0788 115.451 26.2155 115.451 28.4675C115.451 30.7194 121.286 25.7126 119.877 16.6208C118.468 7.529 108.246 -2.76104 102.243 0.679393C96.2402 4.11982 91.9853 -1.51006 84.3896 6.31513C76.7939 14.1403 81.7705 8.3874 66.2588 18.4274C50.747 28.4675 56.9883 41.3894 51.0586 46.5222C45.1289 51.655 26.291 43.861 15.1494 65.8122C4.00778 87.7634 -3.9307 90.7224 2.0488 100.213C8.02829 109.703 1.34274 124.416 15.1494 128.944C28.956 133.472 27.7666 133.079 27.7666 133.079C27.7666 133.079 52.2799 153.924 69.1494 136.466C86.0188 119.007 86.9345 71.8454 86.9345 71.8454L91.0605 51.4753L82.9365 37.322C82.9365 37.322 78.6543 32.9714 78.6543 30.7194C78.6543 28.4675 82.9365 26.6755 82.9365 26.6755L84.3896 28.4675Z" transform="translate(0.7646798 0.9211933)" id="волосы" fill="url(#gradient_23)" stroke="none" />
      <g clip-path="url(#mask_11)">
        <g id="волосы">
          <use stroke="none" fill="url(#gradient_24)" xlink:href="#path_13" />
          <use stroke="none" fill="url(#gradient_25)" xlink:href="#path_13" />
        </g>
      </g>
    </g>
    <path d="M0 17.4766C0 17.4766 0 64.6593 0 91.5209C0 118.382 0 167.031 0 171.516C0 176 38.3586 176 38.3586 176L82 17.4766L16.0476 -5.42342e-31L0 17.4766Z" transform="translate(85 231)" id="Path-4" fill="url(#gradient_26)" stroke="none" />
    <g id="Path-4">
      <use stroke="none" fill="url(#gradient_26)" xlink:href="#path_14" />
      <use stroke="none" fill="url(#gradient_27)" xlink:href="#path_14" />
    </g>
    <g id="Path-2">
      <use stroke="none" fill="#F8C99F" xlink:href="#path_15" />
      <use stroke="none" fill="url(#gradient_28)" xlink:href="#path_15" />
    </g>
    <g id="Path-3">
      <use stroke="none" fill="url(#gradient_29)" xlink:href="#path_16" />
      <use stroke="none" fill="url(#gradient_30)" xlink:href="#path_16" />
    </g>
    <g id="hand">
      <use stroke="none" fill="url(#gradient_31)" xlink:href="#path_17" />
      <use stroke="none" fill="url(#gradient_32)" xlink:href="#path_17" />
    </g>
    <g id="шея">
      <use stroke="none" fill="url(#gradient_19)" xlink:href="#path_18" />
      <use stroke="none" fill="url(#gradient_20)" xlink:href="#path_18" />
    </g>
    <g id="Combined-Shape">
      <use stroke="none" fill="url(#gradient_33)" xlink:href="#path_19" fill-rule="evenodd" />
      <use stroke="none" fill="url(#gradient_20)" xlink:href="#path_19" fill-rule="evenodd" />
    </g>
    <path d="M52.7637 4.9738e-13C52.7637 4.9738e-13 34.6281 1.29282 26.0761 10.9799C17.524 20.6671 3.81575e-15 62.9658 3.81575e-15 62.9658C3.81575e-15 62.9658 15.7404 64.7987 19.3855 64.7987C23.0305 64.7987 40.4046 70 40.4046 70C40.4046 70 39.4097 41.6858 41.0579 32.7524C41.5655 30.0006 45.6808 18.8258 46.3694 17.1869C50.756 6.74755 57.1385 0.408263 61.8125 0.408263C66.4865 0.408263 52.7637 4.9738e-13 52.7637 4.9738e-13Z" transform="matrix(0.8290376 -0.5591929 0.5591929 0.8290376 28.81356 98.59826)" id="ff" fill="url(#gradient_34)" stroke="none" />
    <g id="face" transform="translate(95 23)">
      <path d="M0 0C0.599389 0.692837 1.30323 1.30579 2.10509 1.76171C2.91178 2.20799 3.82774 2.48485 4.7678 2.45455C5.71429 2.44904 6.62221 2.15289 7.50281 1.80028C7.92865 1.59642 8.35128 1.37741 8.77069 1.15152C9.17725 0.904959 9.57255 0.644628 10 0.406336C9.67218 0.73416 9.31223 1.03994 8.96352 1.36088C8.57143 1.63774 8.16487 1.90634 7.74546 2.16253C6.86003 2.61846 5.8573 2.95179 4.77744 3C3.70079 2.98898 2.63538 2.66529 1.81906 2.10055C1.00916 1.5303 0.376024 0.80854 0 0" transform="matrix(-0.9848077 -0.1736482 -0.1736482 0.9848077 18.12759 21.24376)" id="Fill-146" fill="url(#gradient_35)" stroke="none" />
      <path d="M0 0C0.419573 0.461892 0.912261 0.870524 1.47357 1.17447C2.03825 1.47199 2.67942 1.65657 3.33746 1.63636C4 1.63269 4.63555 1.43526 5.25197 1.20018C5.55006 1.06428 5.84589 0.918274 6.13948 0.767677C6.42407 0.603306 6.70079 0.429752 7 0.270891C6.77053 0.48944 6.51856 0.693297 6.27447 0.907254C6 1.09183 5.71541 1.27089 5.42182 1.44169C4.80202 1.74564 4.10011 1.96786 3.34421 2C2.59055 1.99265 1.84477 1.77686 1.27334 1.40037C0.706412 1.0202 0.263217 0.539027 0 0" transform="matrix(-0.9659258 0.258819 -0.258819 -0.9659258 8.263158 4.783976)" id="Fill-146" fill="#2C2B3C" stroke="none" />
      <path d="M0 0C0.419573 0.461892 0.912261 0.870523 1.47357 1.17447C2.03824 1.47199 2.67941 1.65657 3.33746 1.63636C4 1.63269 4.63554 1.43526 5.25197 1.20018C5.55006 1.06428 5.84589 0.918274 6.13948 0.767677C6.42407 0.603306 6.70079 0.429752 7 0.270891C6.77053 0.48944 6.51856 0.693297 6.27446 0.907254C6 1.09183 5.71541 1.27089 5.42182 1.44169C4.80202 1.74564 4.10011 1.96786 3.34421 2C2.59055 1.99265 1.84477 1.77686 1.27334 1.40037C0.706412 1.0202 0.263217 0.539027 0 0" transform="matrix(0.9659258 -0.258819 -0.258819 -0.9659258 13.50168 4.595709)" id="Fill-146" fill="#2C2B3C" stroke="none" />
      <path d="M0 0C0.424349 0.624969 0.808135 1.25342 1.19504 1.86968C1.58351 2.4755 1.97821 3.09177 2.43376 3.55658C2.57885 3.70803 2.6085 3.68714 2.86435 3.90649C3.15297 4.32604 2.9018 4.61154 2.83315 4.76996C2.61162 5.12683 2.3542 5.38796 2.09366 5.64909C1.56323 6.15742 0.995347 6.5996 0.404067 7C0.901741 6.46556 1.39473 5.93111 1.85185 5.37404C2.07806 5.09898 2.30428 4.80652 2.44781 4.51231L2.52425 4.31908L2.09522 4.04054C1.47742 3.54265 1.08271 2.8672 0.73793 2.18826C0.402507 1.50062 0.14197 0.771201 0 0" transform="translate(13 11)" id="Fill-147" fill="#2C2B3C" stroke="none" />
      <path d="M1 3C1.55228 3 2 2.32843 2 1.5C2 0.671573 1.55228 0 1 0C0.447715 0 0 0.671573 0 1.5C0 2.32843 0.447715 3 1 3Z" transform="matrix(0.9743701 -0.224951 0.224951 0.9743701 4.688203 7.263396)" id="Oval" fill="#2C2B3C" stroke="none" />
      <path d="M1 3C1.55228 3 2 2.32843 2 1.5C2 0.671573 1.55228 0 1 0C0.447715 0 0 0.671573 0 1.5C0 2.32843 0.447715 3 1 3Z" transform="matrix(0.9743701 -0.224951 0.224951 0.9743701 14.6882 5.263396)" id="Oval" fill="#2C2B3C" stroke="none" />
    </g>
  </g>
  <g id="shoes" transform="translate(392.5 230.5)">
    <g filter="url(#filter_2)">
      <path d="M2.85294 16.9531L94.1471 0.01507C95.7227 -0.155266 97 1.13794 97 2.90352L97 101.616C97 103.381 95.7227 104.951 94.1471 105.121L2.85294 109.662C1.27731 109.833 0 108.539 0 106.774L0 20.4584C0 18.6928 1.27731 17.1235 2.85294 16.9531Z" id="Rectangle" fill="url(#gradient_15)" stroke="none" />
    </g>
    <path d="M37.1244 51.232C35.9684 51.232 34.8474 51.195 33.7904 51.114C24.8104 50.414 24.2004 43.904 21.6004 39.134C20.0734 36.337 16.3814 31.024 13.3704 28.811C12.4154 37.321 13.0514 47.848 13.0514 47.848L12.2804 48.17L12.2794 48.17L12.2794 48.173L9.9354 48.173L9.9354 48.17L9.9304 48.17C9.9304 48.17 10.2774 38.252 9.75039 30.554L9.7344 30.334C9.69139 30.497 9.65739 30.654 9.63939 30.798C8.59739 39.392 9.2604 50.352 9.2604 50.352L8.49039 50.674L8.48939 50.674L8.48939 50.677L6.14539 50.677L6.14539 50.674L6.14039 50.674C6.14039 50.674 6.48639 40.756 5.96039 33.058C5.80239 30.762 5.5674 28.67 5.22239 27.092C4.97939 25.98 4.68439 25.117 4.32039 24.634L4.2254 24.51C4.14439 24.405 4.06139 24.298 3.97439 24.188C1.16439 20.649 -4.86861 14.564 7.45039 2.504C7.45039 2.504 7.70439 2.845 8.09739 3.416C8.97939 2.333 10.0184 1.196 11.2404 0C11.2404 0 12.1004 1.15 13.1404 2.83C16.2504 5.18 18.2504 8.52 20.3504 11.79C23.0704 16.03 25.7204 20.35 27.9004 24.89C29.8104 28.9 30.9604 32.73 31.9804 37.02C32.6004 39.63 33.4104 41.27 36.1004 42.19C36.9904 42.496 38.0894 42.734 38.8524 43.188C40.7864 41.675 42.2934 40.171 43.8614 39.701C45.6044 38.259 47.0354 37.04 48.6294 37.04C49.0554 37.04 49.4924 37.127 49.9504 37.32C53.8294 38.956 57.1604 39.84 59.9304 40.88C62.7104 41.92 65.5804 44.75 62.8004 45.77C62.2544 45.969 61.2914 46.226 60.0354 46.505C60.3074 47.225 60.0764 47.883 59.0104 48.274C56.5574 49.165 45.7984 51.232 37.1244 51.232" transform="translate(17 32)" id="Fill-38" fill="url(#gradient_36)" stroke="none" />
    <g id="like-(1)" transform="translate(69 86)">
      <path d="M8.73258 0.000227531C10.4404 0.000227531 11.805 1.37929 11.9802 3.28009C11.9938 3.36405 12.0506 3.80592 11.8779 4.52628C11.6291 5.56587 11.0545 6.51103 10.2165 7.25984L5.96409 11L1.78344 7.25961C0.945467 6.51103 0.370815 5.56564 0.12203 4.52628C-0.0505963 3.80569 0.00617654 3.36382 0.0200236 3.27986C0.194958 1.37907 1.55981 0 3.26738 0C4.38692 0 5.38598 0.591354 5.96686 1.57133C6.55305 0.603868 7.59481 0.000227531 8.73258 0.000227531Z" id="Shape" fill="url(#gradient_37)" fill-rule="evenodd" stroke="none" />
    </g>
  </g>
  <g id="bag" transform="translate(320.5 318.5)">
    <g id="Group-2" />
    <g id="Group-4">
      <g filter="url(#filter_2)">
        <path d="M2.61765 4.8667L86.3823 0.0137581C87.828 -0.14175 89 1.03888 89 2.65077L89 103.381C89 104.993 87.828 106.425 86.3823 106.581L2.61765 100.116C1.17196 100.272 0 99.0911 0 97.4792L0 8.06685C0 6.45496 1.17196 5.0222 2.61765 4.8667Z" id="Rectangle" fill="url(#gradient_15)" stroke="none" />
      </g>
      <g clip-path="url(#mask_12)">
        <g filter="url(#filter_2)">
          <path d="M2.61765 4.8667L86.3823 0.0137581C87.828 -0.14175 89 1.03888 89 2.65077L89 103.381C89 104.993 87.828 106.425 86.3823 106.581L2.61765 100.116C1.17196 100.272 0 99.0911 0 97.4792L0 8.06685C0 6.45496 1.17196 5.0222 2.61765 4.8667Z" transform="translate(20 30)" id="Rectangle" fill="url(#gradient_17)" fill-opacity="0.411249071" stroke="none" />
        </g>
        <g filter="url(#filter_2)">
          <path d="M2.61765 4.8667L86.3823 0.0137581C87.828 -0.14175 89 1.03888 89 2.65077L89 103.381C89 104.993 87.828 106.425 86.3823 106.581L2.61765 100.116C1.17196 100.272 0 99.0911 0 97.4792L0 8.06685C0 6.45496 1.17196 5.0222 2.61765 4.8667Z" transform="translate(50 10)" id="Rectangle" fill="url(#gradient_17)" fill-opacity="0.411249071" stroke="none" />
        </g>
        <g id="like-(1)" transform="translate(68 88)" opacity="0.9759347">
          <path d="M8.73258 0.000227531C10.4404 0.000227531 11.805 1.37929 11.9802 3.28009C11.9938 3.36405 12.0506 3.80592 11.8779 4.52628C11.6291 5.56587 11.0545 6.51103 10.2165 7.25984L5.96409 11L1.78344 7.25961C0.945467 6.51103 0.370815 5.56564 0.12203 4.52628C-0.0505963 3.80569 0.00617654 3.36382 0.0200236 3.27986C0.194958 1.37907 1.55981 0 3.26738 0C4.38692 0 5.38598 0.591354 5.96686 1.57133C6.55305 0.603868 7.59481 0.000227531 8.73258 0.000227531Z" id="Shape" fill="url(#gradient_37)" fill-rule="evenodd" stroke="none" />
        </g>
      </g>
    </g>
    <path d="M2.08383 60.7283L2.07124 60.666C2.04354 60.5371 2.01269 60.3958 1.9787 60.2458L1.95225 60.1286C1.91952 59.9836 1.88426 59.8311 1.84649 59.67C1.83075 59.6052 1.81501 59.5379 1.79927 59.4706C1.77346 59.362 1.74639 59.2502 1.71932 59.1355C1.67399 58.9484 1.62803 58.7572 1.58019 58.5573C0.927966 55.8656 0 52.1529 0 50.7878C0 50.0563 0.00629556 49.3342 0.0157389 48.6171C0.00818423 48.506 0 48.3956 0 48.3043C0 35.7905 1.13635 25.2082 13.9806 21.6581C14.6995 9.49352 19.2367 0.219485 24.9027 0.00369019C30.5536 -0.21153 35.0827 9.0105 35.8199 21.5858C49.1262 25.3811 50 37.0654 50 50.8903C50 50.9744 49.9924 51.0766 49.9868 51.1742C49.9956 51.9789 50 52.7893 50 53.6094C50 55.1694 48.9877 59.1453 48.3348 61.8747C48.2851 62.0824 48.2385 62.2796 48.1938 62.4711L48.1743 62.5515C48.1346 62.7235 48.0981 62.8831 48.0629 63.0395L48.0364 63.1557C48.0037 63.301 47.9766 63.4309 47.9495 63.5589L47.925 63.6751C47.8954 63.8206 47.8715 63.9488 47.8513 64.0653L47.845 64.0978L2.1556 61.0918C2.13671 60.9872 2.11153 60.8621 2.08383 60.7283ZM25.5003 0.995079C30.0859 0.828845 34.0505 9.23299 35 20.2507C33.2565 12.2156 29.6998 6.913 25.5003 7.01947C21.3002 7.12595 17.7435 12.4603 16 20.2771C16.9495 9.5925 20.9141 1.16134 25.5003 0.995079ZM17 21.2743C19.3603 20.8477 22.0396 20.6141 25.1044 20.6118C28.0763 20.6095 30.6936 20.8172 33 21.215C31.4695 14.0151 28.4242 9.04519 25.0072 9.11891C21.5789 9.19287 18.5261 14.2082 17 21.2743Z" transform="translate(19 18.05958)" id="Fill-40" fill="url(#gradient_38)" fill-rule="evenodd" stroke="none" />
  </g>
</svg>