<svg xmlns="http://www.w3.org/2000/svg" xmlns:xlink="http://www.w3.org/1999/xlink" width="144" height="192" viewBox="0 0 144 192">
  <defs>
    <linearGradient id="linear-gradient" x1="0.305" y1="1" x2="0.665" gradientUnits="objectBoundingBox">
      <stop offset="0" stop-color="#8ab5ff"/>
      <stop offset="1" stop-color="#cce3ff"/>
    </linearGradient>
    <linearGradient id="linear-gradient-2" x1="0.251" y1="0.584" x2="-0.843" y2="1.384" gradientUnits="objectBoundingBox">
      <stop offset="0" stop-color="#6ca2ff"/>
      <stop offset="1" stop-color="#cce3ff"/>
    </linearGradient>
    <linearGradient id="linear-gradient-3" x1="0.392" y1="0.452" x2="0.392" y2="1" xlink:href="#linear-gradient"/>
    <linearGradient id="linear-gradient-6" x1="0.842" y1="0.149" x2="0.203" y2="0.664" xlink:href="#linear-gradient"/>
    <linearGradient id="linear-gradient-7" x1="1" y1="0.412" x2="0.797" y2="0.867" xlink:href="#linear-gradient"/>
    <linearGradient id="linear-gradient-17" x1="0.117" y1="0.726" x2="0.666" y2="0.726" xlink:href="#linear-gradient"/>
  </defs>
  <g id="greens" transform="translate(144.5) rotate(180)">
    <path id="planter" d="M0,0H-55l4.665,41.345A12,12,0,0,0-38.411,52h21.822A12,12,0,0,0-4.665,41.345Z" transform="translate(46.5 -140) rotate(-180)" fill="url(#linear-gradient)"/>
    <path id="Fill_356" data-name="Fill 356" d="M-6,36Q-3,18,0,0L-6,36" transform="translate(35.5 -147) rotate(-180)" fill="#b2a491"/>
    <path id="Fill_361" data-name="Fill 361" d="M-33.019.3c5.491-2.233,9.438,8.418,7.722,12.54-.068.164-.125.328-.176.492l-.04.134q-.059.2-.1.406l-.02.088c-.03.16-.054.319-.071.476l-.011.123c-.01.125-.018.25-.021.373l0,.122c0,.154,0,.306.014.456l.008.091q.016.187.042.372l.018.129c.023.142.047.284.079.423l0,.018c.031.143.068.284.108.423l.035.117c.035.115.071.228.109.339l.027.076c.048.133.1.263.151.39l.038.092c.045.1.09.2.137.3l.039.085c.058.12.118.239.179.354l.022.042c.056.1.111.2.165.3l.041.07c.127.217.254.417.376.6l.029.044c.059.088.118.172.175.251a9.34,9.34,0,0,0,.711.885c2.288,1.26,5.491-.687,4.634-6.528S-15.86,4.084-9.853,5.025s7.894,7.991,9.438,11.942S-1.789,33.459-6.593,40.5-19.806,51.324-19.979,53.385-22.41,72.847-29.253,78C-26.829,68.209-39.884,58.367-44,39.814S-38.51,2.538-33.019.3" transform="translate(60.5 -79) rotate(-180)" fill="url(#linear-gradient-2)"/>
    <path id="Fill_363" data-name="Fill 363" d="M-7.049,96C10.349,12.461-9.828.469-10.694,0L-12,2.225c.048.027,4.843,2.947,7.541,15.811,2.507,11.95,3.643,35.088-5.18,77.457L-7.049,96" transform="translate(71.5 -72) rotate(-180)" fill="url(#linear-gradient-3)"/>
    <path id="Fill_364" data-name="Fill 364" d="M-7.093,114C10.373,14.753-9.806.556-10.673,0L-12,2.167c.048.033,4.927,3.535,7.666,18.951C-1.8,35.38-.642,62.993-9.537,113.541l2.445.459" transform="translate(65.5 -30) rotate(-180)" fill="url(#linear-gradient-3)"/>
    <path id="Fill_365" data-name="Fill 365" d="M-22.992,124l2.4-.012C-20.84,67.185-15.227,37.12-10.472,21.9-5.317,5.4-.053,2.334,0,2.3L-1.052,0c-.916.466-22.434,12.7-21.94,124" transform="translate(43.5 -18) rotate(-180)" fill="url(#linear-gradient-3)"/>
    <path id="Fill_366" data-name="Fill 366" d="M0,0S-10.3,10.808-10.3,19.035C-19.629,25.7-36.389,36.087-39.633,42.4S-50.645,58.524-59.36,58.949-73,63-73,63s3.3-6.608,5.785-11.724,3.032-11.091,8.4-13.112,8.364-10.008,12.606-15.82,10.2-9.648,18.285-11.779,7.285-8.087,12.282-9.052S0,0,0,0" transform="translate(71.5 -56) rotate(-180)" fill="url(#linear-gradient-6)"/>
    <path id="Fill_367" data-name="Fill 367" d="M-.028,27.066S-7.554,8.86-3.792.006C-10.689-.37-16.35,16.159-19.58,21.881s-10.4,8.474-8.489,14.621S-31.275,51.974-33,56c6.637-2.967,9.123-9.98,14.435-14.244S.713,29-.028,27.066" transform="translate(81.5 -49) rotate(-180)" fill="url(#linear-gradient-7)"/>
    <path id="Fill_368" data-name="Fill 368" d="M-29.436,25.762s-4.782-4.866-2.608-9.944S-34.87-2.375-41.825.375s-19.128,25.811-13.91,48.659S-39.817,83.941-42.887,96c8.669-6.346,17.364-27.714,17.581-30.253S-14.437,58.553-8.351,49.88,1.431,25.762-.527,20.9-4.873,7.348-12.481,6.189-24.653,10.53-23.566,17.722s-2.972,9.591-5.87,8.04" transform="translate(41.5 -96) rotate(-180)" fill="url(#linear-gradient-6)"/>
    <path id="Fill_369" data-name="Fill 369" d="M-11.635.375C-4.591-2.375.471,10.74-1.73,15.818-3.3,19.444-1.284,22.959,0,24.675-9.774,41.538-4.024,62.784-6.132,81.349A29.433,29.433,0,0,1-12.709,96C-9.6,83.941-20.438,71.882-25.72,49.034S-18.679,3.125-11.635.375" transform="translate(71.5 -96) rotate(-180)" fill="url(#linear-gradient-7)"/>
    <path id="Fill_370" data-name="Fill 370" d="M-21.935,21.9S-23,16.74-19.475,14.253s5.769-13.2.109-14.188S-42.553,9.434-48.714,26.683-52.973,56.251-60,63c8.274-.7,22.838-11.343,24.04-12.939s10.051-.371,17.622-3.658S-1.919,34.377-1.154,30.361s2.84-10.734-1.609-14.579-9.708-2.045-12.008,3.161S-20.7,24.1-21.935,21.9" transform="translate(81.5 -105) rotate(-180)" fill="url(#linear-gradient-6)"/>
    <path id="Fill_371" data-name="Fill 371" d="M-3.441.065c5.65.989,3.417,11.7-.109,14.188-2.516,1.775-2.69,4.911-2.587,6.559C-19.415,28.084-24.6,44.458-33.687,55.919A23.517,23.517,0,0,1-44,63c7.014-6.749,5.116-19.067,11.265-36.317S-9.089-.925-3.441.065" transform="translate(97.5 -105) rotate(-180)" fill="url(#linear-gradient-7)"/>
    <path id="Fill_372" data-name="Fill 372" d="M-45.46,33.24s-5.081-5.742-2.117-16.789S-49.906-2.679-57.53.829s-3.6,20.467-1.693,26.19-6.352,22.137,1.27,27.493,12.917,9.405,18.209,11.652,11.011,9.08,15.033,11.43S-10.1,97.457-9.04,106C-4.382,91.691,2.606,72.2-.994,58.771S-2.053,42.822-6.5,34.259s.212-13-8.047-17.724-12.281-14.827-18-15.007S-47.577-.392-45.248,8.7s5.928,25.677-.212,24.54" transform="translate(0.5 -53) rotate(-180)" fill="url(#linear-gradient-6)"/>
    <path id="Fill_373" data-name="Fill 373" d="M-51.186,27.019C-53.117,21.3-57.193,4.337-49.471.829S-36.385,5.4-39.389,16.451s2.145,16.789,2.145,16.789a2.37,2.37,0,0,0,1.814-.3C-9.914,47.51-3.231,77.485,0,104.945c-.117.354-.234.707-.349,1.055-1.073-8.543-11.8-26.056-15.875-28.406s-9.865-9.183-15.229-11.43-10.725-6.3-18.447-11.652.644-21.77-1.286-27.493" transform="translate(8.5 -53) rotate(-180)" fill="url(#linear-gradient-7)"/>
    <path id="Fill_374" data-name="Fill 374" d="M-23.463,17.561s-2.623-3.034-1.092-8.87-1.2-10.106-5.139-8.253-1.857,10.811-.873,13.835-3.279,11.7.656,14.525,6.666,4.97,9.4,6.156,5.683,4.8,7.76,6.038S-5.213,51.487-4.666,56c2.405-7.56,6.011-17.858,4.153-24.952S-1.06,22.622-3.355,18.1s.11-6.869-4.152-9.364S-13.845.9-16.8.807-24.555-.207-23.353,4.6s3.06,13.565-.11,12.965" transform="translate(30.5 -132) rotate(-180)" fill="url(#linear-gradient-6)"/>
    <path id="Fill_375" data-name="Fill 375" d="M-26.541,14.273c-1-3.024-3.115-11.982.888-13.835s6.786,2.417,5.229,8.253,1.111,8.87,1.111,8.87a1.207,1.207,0,0,0,.94-.161C-5.142,25.1-1.676,40.935,0,55.441c-.062.187-.122.375-.182.559C-.738,51.487-6.3,42.234-8.412,40.993s-5.115-4.852-7.9-6.038-5.559-3.327-9.564-6.156.334-11.5-.667-14.525" transform="translate(32.5 -132) rotate(-180)" fill="url(#linear-gradient-7)"/>
    <path id="Fill_376" data-name="Fill 376" d="M-26.952,19.1s-14.561,1.794-12.919-9.68S-4.079-8.447,0,23c-15.491-5.55-26.952-3.9-26.952-3.9" transform="translate(19.5 -4) rotate(-180)" fill="url(#linear-gradient-7)"/>
    <path id="Fill_377" data-name="Fill 377" d="M-9.921,24.8a1.731,1.731,0,0,0,.89,2.11A1.4,1.4,0,0,0-7.2,25.884L-.08,2.2A1.733,1.733,0,0,0-.969.091,1.4,1.4,0,0,0-2.8,1.116L-9.921,24.8" transform="translate(37.5) rotate(-180)" fill="url(#linear-gradient-17)"/>
    <path id="Fill_378" data-name="Fill 378" d="M-40,15.115S-34.224-2.7-19.117.351,2.29,12.421-.74,28C-3.1,17.762-21.223,1.156-40,15.115" transform="translate(16.5 -18) rotate(-180)" fill="url(#linear-gradient-7)"/>
    <path id="Fill_379" data-name="Fill 379" d="M-13.047,19.1S1.514,20.895-.129,9.42-35.921-8.447-40,23c15.491-5.551,26.953-3.9,26.953-3.9" transform="translate(59.5 -22) rotate(-180)" fill="url(#linear-gradient-7)"/>
    <path id="Fill_380" data-name="Fill 380" d="M-.08,24.8a1.731,1.731,0,0,1-.889,2.11A1.4,1.4,0,0,1-2.8,25.883L-9.92,2.2A1.73,1.73,0,0,1-9.031.092,1.4,1.4,0,0,1-7.2,1.116L-.08,24.8" transform="translate(71.5 -17) rotate(-180)" fill="url(#linear-gradient-17)"/>
    <path id="Fill_381" data-name="Fill 381" d="M0,15.115S-5.775-2.7-20.883.351-42.289,12.421-39.26,28C-36.9,17.762-18.776,1.155,0,15.115" transform="translate(63.5 -35) rotate(-180)" fill="url(#linear-gradient-7)"/>
  </g>
</svg>
