<?xml version="1.0" encoding="utf-8"?>
<svg width="263px" height="221px" viewBox="0 0 263 221" version="1.1" xmlns:xlink="http://www.w3.org/1999/xlink" xmlns="http://www.w3.org/2000/svg">
  <desc>Created with Lunacy</desc>
  <defs>
    <linearGradient x1="-0.182244346" y1="0.239403144" x2="0.560825467" y2="1.16671145" id="gradient_1">
      <stop offset="0" stop-color="#8AB5FF" />
      <stop offset="1" stop-color="#CCE3FF" />
    </linearGradient>
    <linearGradient x1="0.7022423" y1="0.9064195" x2="-0.0440161265" y2="0.296351075" id="gradient_2">
      <stop offset="0" stop-color="#FFFFFF" stop-opacity="0" />
      <stop offset="1" stop-color="#FFFFFF" />
    </linearGradient>
    <linearGradient x1="0" y1="0.4120433" x2="0.20287329" y2="0.8670063" id="gradient_3">
      <stop offset="0" stop-color="#8AB5FF" />
      <stop offset="1" stop-color="#CCE3FF" />
    </linearGradient>
    <linearGradient x1="-0.220231682" y1="0.6918248" x2="0.20287329" y2="0.8670063" id="gradient_4">
      <stop offset="0" stop-color="#8AB5FF" />
      <stop offset="1" stop-color="#CCE3FF" />
    </linearGradient>
    <linearGradient x1="0.6947917" y1="1" x2="0.3347656" y2="0" id="gradient_5">
      <stop offset="0" stop-color="#8AB5FF" />
      <stop offset="1" stop-color="#CCE3FF" />
    </linearGradient>
    <linearGradient x1="0.7352964" y1="0.149356619" x2="0.7352964" y2="0.7411822" id="gradient_6">
      <stop offset="0" stop-color="#CCF2F6" />
      <stop offset="0.328706622" stop-color="#BBE1FC" />
      <stop offset="1" stop-color="#CCE3FF" stop-opacity="0" />
    </linearGradient>
    <filter filterUnits="userSpaceOnUse" color-interpolation-filters="sRGB" id="filter_1">
      <feFlood flood-opacity="0" result="BackgroundImageFix" />
      <feColorMatrix in="SourceAlpha" type="matrix" values="0 0 0 0 0 0 0 0 0 0 0 0 0 0 0 0 0 0 127 0" />
      <feOffset dx="18" dy="24" />
      <feGaussianBlur stdDeviation="24" />
      <feColorMatrix type="matrix" values="0 0 0 0 0 0 0 0 0 0 0 0 0 0 0 0 0 0 0.1215686 0" />
      <feBlend mode="normal" in2="BackgroundImageFix" result="effect0_dropShadow" />
      <feBlend mode="normal" in="SourceGraphic" in2="effect0_dropShadow" result="shape" />
    </filter>
    <path d="M108.097 204.463C89.2968 198.813 5.38486 208.516 10.4615 150.938C15.5381 93.3606 -10.7168 79.4503 5.17558 43.7788C21.068 8.10719 44.8095 -12.2986 92.9993 8.10719C141.189 28.513 128.565 55.2197 165.848 64.4811C203.132 73.7425 253.337 72.97 258.588 125.973C263.838 178.976 217.803 217 184.933 217C152.063 217 126.897 210.112 108.097 204.463Z" id="path_1" />
    <path d="M82.0049 164.697C44.6927 146.168 4.47018 173.319 8.68448 125.46C12.8988 77.6015 -8.89643 66.0393 4.29645 36.389C17.4893 6.73871 37.1981 -10.2226 77.2023 6.73871C117.207 23.7 106.726 45.8987 137.677 53.5968C168.628 61.2949 210.305 60.6528 214.664 104.709C219.022 148.765 190.53 183.671 163.243 183.671C135.957 183.671 119.317 183.226 82.0049 164.697Z" transform="translate(16.32353 21.01169)" id="path_2" />
    <path d="M8 0L230 0Q230.205 0 230.408 0.009326Q230.612 0.018652 230.814 0.037285Q231.016 0.055918 231.215 0.0838199Q231.415 0.111722 231.612 0.148836Q231.808 0.18595 232.002 0.2322Q232.196 0.27845 232.387 0.333743Q232.577 0.389035 232.764 0.453256Q232.951 0.517478 233.133 0.590497Q233.316 0.663517 233.494 0.745186Q233.672 0.826855 233.845 0.917006Q234.018 1.00716 234.186 1.10561Q234.354 1.20406 234.516 1.31061Q234.678 1.41715 234.834 1.53158Q234.991 1.64601 235.141 1.76809Q235.291 1.89016 235.434 2.01963Q235.578 2.14911 235.714 2.28571Q235.851 2.42232 235.98 2.56578Q236.11 2.70925 236.232 2.85927Q236.354 3.0093 236.468 3.16558Q236.583 3.32186 236.689 3.48408Q236.796 3.6463 236.894 3.81412Q236.993 3.98195 237.083 4.15504Q237.173 4.32813 237.255 4.50613Q237.337 4.68413 237.41 4.86668Q237.483 5.04923 237.547 5.23595Q237.611 5.42268 237.666 5.61319Q237.722 5.80371 237.768 5.99764Q237.814 6.19157 237.851 6.3885Q237.888 6.58544 237.916 6.78498Q237.944 6.98453 237.963 7.18627Q237.981 7.38802 237.991 7.59155Q238 7.79509 238 8L238 127Q238 127.205 237.991 127.408Q237.981 127.612 237.963 127.814Q237.944 128.015 237.916 128.215Q237.888 128.415 237.851 128.611Q237.814 128.808 237.768 129.002Q237.722 129.196 237.666 129.387Q237.611 129.577 237.547 129.764Q237.483 129.951 237.41 130.133Q237.337 130.316 237.255 130.494Q237.173 130.672 237.083 130.845Q236.993 131.018 236.894 131.186Q236.796 131.354 236.689 131.516Q236.583 131.678 236.468 131.834Q236.354 131.991 236.232 132.141Q236.11 132.291 235.98 132.434Q235.851 132.578 235.714 132.714Q235.578 132.851 235.434 132.98Q235.291 133.11 235.141 133.232Q234.991 133.354 234.834 133.468Q234.678 133.583 234.516 133.689Q234.354 133.796 234.186 133.894Q234.018 133.993 233.845 134.083Q233.672 134.173 233.494 134.255Q233.316 134.337 233.133 134.41Q232.951 134.483 232.764 134.547Q232.577 134.611 232.387 134.666Q232.196 134.722 232.002 134.768Q231.808 134.814 231.612 134.851Q231.415 134.888 231.215 134.916Q231.016 134.944 230.814 134.963Q230.612 134.981 230.408 134.991Q230.205 135 230 135L8 135Q7.79509 135 7.59155 134.991Q7.38802 134.981 7.18627 134.963Q6.98453 134.944 6.78498 134.916Q6.58544 134.888 6.3885 134.851Q6.19157 134.814 5.99764 134.768Q5.80371 134.722 5.6132 134.666Q5.42268 134.611 5.23595 134.547Q5.04923 134.483 4.86668 134.41Q4.68413 134.337 4.50613 134.255Q4.32813 134.173 4.15504 134.083Q3.98195 133.993 3.81412 133.894Q3.6463 133.796 3.48408 133.689Q3.32186 133.583 3.16558 133.468Q3.0093 133.354 2.85927 133.232Q2.70925 133.11 2.56578 132.98Q2.42232 132.851 2.28571 132.714Q2.14911 132.578 2.01963 132.434Q1.89016 132.291 1.76809 132.141Q1.64601 131.991 1.53158 131.834Q1.41715 131.678 1.31061 131.516Q1.20406 131.354 1.10561 131.186Q1.00716 131.018 0.917006 130.845Q0.826855 130.672 0.745186 130.494Q0.663517 130.316 0.590497 130.133Q0.517478 129.951 0.453256 129.764Q0.389035 129.577 0.333743 129.387Q0.27845 129.196 0.2322 129.002Q0.18595 128.808 0.148836 128.612Q0.111722 128.415 0.0838199 128.215Q0.055918 128.015 0.037285 127.814Q0.018652 127.612 0.009326 127.408Q0 127.205 0 127L0 8Q0 7.79509 0.009326 7.59155Q0.018652 7.38802 0.037285 7.18627Q0.055918 6.98453 0.0838199 6.78498Q0.111722 6.58544 0.148836 6.3885Q0.18595 6.19157 0.2322 5.99764Q0.27845 5.80371 0.333743 5.6132Q0.389035 5.42268 0.453256 5.23595Q0.517478 5.04923 0.590497 4.86668Q0.663517 4.68413 0.745186 4.50613Q0.826855 4.32813 0.917006 4.15504Q1.00716 3.98195 1.10561 3.81412Q1.20406 3.6463 1.31061 3.48408Q1.41715 3.32186 1.53158 3.16558Q1.64601 3.0093 1.76809 2.85927Q1.89016 2.70925 2.01963 2.56578Q2.14911 2.42232 2.28571 2.28571Q2.42232 2.14911 2.56578 2.01963Q2.70925 1.89016 2.85927 1.76809Q3.0093 1.64601 3.16558 1.53158Q3.32186 1.41715 3.48408 1.31061Q3.6463 1.20406 3.81412 1.10561Q3.98195 1.00716 4.15504 0.917006Q4.32813 0.826855 4.50613 0.745186Q4.68413 0.663517 4.86668 0.590497Q5.04923 0.517478 5.23595 0.453256Q5.42268 0.389035 5.61319 0.333743Q5.80371 0.27845 5.99764 0.2322Q6.19157 0.18595 6.3885 0.148836Q6.58544 0.111722 6.78498 0.0838199Q6.98453 0.055918 7.18627 0.037285Q7.38802 0.018652 7.59155 0.009326Q7.79509 0 8 0Z" transform="translate(0 44)" id="path_3" />
    <clipPath id="mask_1">
      <use xlink:href="#path_1" />
    </clipPath>
    <clipPath id="mask_2">
      <use xlink:href="#path_3" />
    </clipPath>
  </defs>
  <g id="Group-9" transform="translate(2 2)">
    <g id="bg_analytics">
      <path d="M108.097 204.463C89.2968 198.813 5.38486 208.516 10.4615 150.938C15.5381 93.3606 -10.7168 79.4503 5.17558 43.7788C21.068 8.10719 44.8095 -12.2986 92.9993 8.10719C141.189 28.513 128.565 55.2197 165.848 64.4811C203.132 73.7425 253.337 72.97 258.588 125.973C263.838 178.976 217.803 217 184.933 217C152.063 217 126.897 210.112 108.097 204.463Z" id="Path-7" fill="#EBF1FF" stroke="none" />
      <g clip-path="url(#mask_1)">
        <g id="Path-7">
          <use stroke="none" fill="url(#gradient_1)" fill-opacity="0.8210798" xlink:href="#path_2" />
          <use stroke="none" fill="url(#gradient_2)" fill-opacity="0.8210798" xlink:href="#path_2" />
        </g>
      </g>
    </g>
    <g filter="url(#filter_1)">
      <path d="M8 0L230 0Q230.205 0 230.408 0.009326Q230.612 0.018652 230.814 0.037285Q231.016 0.055918 231.215 0.0838199Q231.415 0.111722 231.612 0.148836Q231.808 0.18595 232.002 0.2322Q232.196 0.27845 232.387 0.333743Q232.577 0.389035 232.764 0.453256Q232.951 0.517478 233.133 0.590497Q233.316 0.663517 233.494 0.745186Q233.672 0.826855 233.845 0.917006Q234.018 1.00716 234.186 1.10561Q234.354 1.20406 234.516 1.31061Q234.678 1.41715 234.834 1.53158Q234.991 1.64601 235.141 1.76809Q235.291 1.89016 235.434 2.01963Q235.578 2.14911 235.714 2.28571Q235.851 2.42232 235.98 2.56578Q236.11 2.70925 236.232 2.85927Q236.354 3.0093 236.468 3.16558Q236.583 3.32186 236.689 3.48408Q236.796 3.6463 236.894 3.81412Q236.993 3.98195 237.083 4.15504Q237.173 4.32813 237.255 4.50613Q237.337 4.68413 237.41 4.86668Q237.483 5.04923 237.547 5.23595Q237.611 5.42268 237.666 5.61319Q237.722 5.80371 237.768 5.99764Q237.814 6.19157 237.851 6.3885Q237.888 6.58544 237.916 6.78498Q237.944 6.98453 237.963 7.18627Q237.981 7.38802 237.991 7.59155Q238 7.79509 238 8L238 127Q238 127.205 237.991 127.408Q237.981 127.612 237.963 127.814Q237.944 128.015 237.916 128.215Q237.888 128.415 237.851 128.611Q237.814 128.808 237.768 129.002Q237.722 129.196 237.666 129.387Q237.611 129.577 237.547 129.764Q237.483 129.951 237.41 130.133Q237.337 130.316 237.255 130.494Q237.173 130.672 237.083 130.845Q236.993 131.018 236.894 131.186Q236.796 131.354 236.689 131.516Q236.583 131.678 236.468 131.834Q236.354 131.991 236.232 132.141Q236.11 132.291 235.98 132.434Q235.851 132.578 235.714 132.714Q235.578 132.851 235.434 132.98Q235.291 133.11 235.141 133.232Q234.991 133.354 234.834 133.468Q234.678 133.583 234.516 133.689Q234.354 133.796 234.186 133.894Q234.018 133.993 233.845 134.083Q233.672 134.173 233.494 134.255Q233.316 134.337 233.133 134.41Q232.951 134.483 232.764 134.547Q232.577 134.611 232.387 134.666Q232.196 134.722 232.002 134.768Q231.808 134.814 231.612 134.851Q231.415 134.888 231.215 134.916Q231.016 134.944 230.814 134.963Q230.612 134.981 230.408 134.991Q230.205 135 230 135L8 135Q7.79509 135 7.59155 134.991Q7.38802 134.981 7.18627 134.963Q6.98453 134.944 6.78498 134.916Q6.58544 134.888 6.3885 134.851Q6.19157 134.814 5.99764 134.768Q5.80371 134.722 5.6132 134.666Q5.42268 134.611 5.23595 134.547Q5.04923 134.483 4.86668 134.41Q4.68413 134.337 4.50613 134.255Q4.32813 134.173 4.15504 134.083Q3.98195 133.993 3.81412 133.894Q3.6463 133.796 3.48408 133.689Q3.32186 133.583 3.16558 133.468Q3.0093 133.354 2.85927 133.232Q2.70925 133.11 2.56578 132.98Q2.42232 132.851 2.28571 132.714Q2.14911 132.578 2.01963 132.434Q1.89016 132.291 1.76809 132.141Q1.64601 131.991 1.53158 131.834Q1.41715 131.678 1.31061 131.516Q1.20406 131.354 1.10561 131.186Q1.00716 131.018 0.917006 130.845Q0.826855 130.672 0.745186 130.494Q0.663517 130.316 0.590497 130.133Q0.517478 129.951 0.453256 129.764Q0.389035 129.577 0.333743 129.387Q0.27845 129.196 0.2322 129.002Q0.18595 128.808 0.148836 128.612Q0.111722 128.415 0.0838199 128.215Q0.055918 128.015 0.037285 127.814Q0.018652 127.612 0.009326 127.408Q0 127.205 0 127L0 8Q0 7.79509 0.009326 7.59155Q0.018652 7.38802 0.037285 7.18627Q0.055918 6.98453 0.0838199 6.78498Q0.111722 6.58544 0.148836 6.3885Q0.18595 6.19157 0.2322 5.99764Q0.27845 5.80371 0.333743 5.6132Q0.389035 5.42268 0.453256 5.23595Q0.517478 5.04923 0.590497 4.86668Q0.663517 4.68413 0.745186 4.50613Q0.826855 4.32813 0.917006 4.15504Q1.00716 3.98195 1.10561 3.81412Q1.20406 3.6463 1.31061 3.48408Q1.41715 3.32186 1.53158 3.16558Q1.64601 3.0093 1.76809 2.85927Q1.89016 2.70925 2.01963 2.56578Q2.14911 2.42232 2.28571 2.28571Q2.42232 2.14911 2.56578 2.01963Q2.70925 1.89016 2.85927 1.76809Q3.0093 1.64601 3.16558 1.53158Q3.32186 1.41715 3.48408 1.31061Q3.6463 1.20406 3.81412 1.10561Q3.98195 1.00716 4.15504 0.917006Q4.32813 0.826855 4.50613 0.745186Q4.68413 0.663517 4.86668 0.590497Q5.04923 0.517478 5.23595 0.453256Q5.42268 0.389035 5.61319 0.333743Q5.80371 0.27845 5.99764 0.2322Q6.19157 0.18595 6.3885 0.148836Q6.58544 0.111722 6.78498 0.0838199Q6.98453 0.055918 7.18627 0.037285Q7.38802 0.018652 7.59155 0.009326Q7.79509 0 8 0Z" transform="translate(0 44)" id="tablet_base" fill="#FFFFFF" stroke="#F5F5F5" stroke-width="4" />
    </g>
    <g clip-path="url(#mask_2)">
      <g id="analytics_pic" transform="translate(18 63)">
        <g id="Group-10">
          <path d="M0 0.5L0.60303 0.5L0.60303 -4.54747e-13L0 -4.54747e-13L0 0.5ZM1.50758 0.5L2.11061 0.5L2.11061 -4.54747e-13L1.50758 -4.54747e-13L1.50758 0.5ZM3.31667 0.5L3.9197 0.5L3.9197 -4.54747e-13L3.31667 -4.54747e-13L3.31667 0.5ZM4.82424 0.5L5.42727 0.5L5.42727 -4.54747e-13L4.82424 -4.54747e-13L4.82424 0.5ZM6.63333 0.5L7.23636 0.5L7.23636 -4.54747e-13L6.63333 -4.54747e-13L6.63333 0.5ZM8.14091 0.5L8.74394 0.5L8.74394 -4.54747e-13L8.14091 -4.54747e-13L8.14091 0.5ZM9.95 0.5L10.553 0.5L10.553 -4.54747e-13L9.95 -4.54747e-13L9.95 0.5ZM11.7591 0.5L12.3621 0.5L12.3621 -4.54747e-13L11.7591 -4.54747e-13L11.7591 0.5ZM13.2667 0.5L13.8697 0.5L13.8697 -4.54747e-13L13.2667 -4.54747e-13L13.2667 0.5ZM15.0758 0.5L15.6788 0.5L15.6788 -4.54747e-13L15.0758 -4.54747e-13L15.0758 0.5ZM16.5833 0.5L17.1864 0.5L17.1864 -4.54747e-13L16.5833 -4.54747e-13L16.5833 0.5ZM18.3924 0.5L18.9955 0.5L18.9955 -4.54747e-13L18.3924 -4.54747e-13L18.3924 0.5ZM19.9 0.5L20.503 0.5L20.503 -4.54747e-13L19.9 -4.54747e-13L19.9 0.5ZM21.7091 0.5L22.3121 0.5L22.3121 -4.54747e-13L21.7091 -4.54747e-13L21.7091 0.5ZM23.5182 0.5L24.1212 0.5L24.1212 -4.54747e-13L23.5182 -4.54747e-13L23.5182 0.5ZM25.0258 0.5L25.6288 0.5L25.6288 -4.54747e-13L25.0258 -4.54747e-13L25.0258 0.5ZM26.8348 0.5L27.4379 0.5L27.4379 -4.54747e-13L26.8348 -4.54747e-13L26.8348 0.5ZM28.3424 0.5L28.9455 0.5L28.9455 -4.54747e-13L28.3424 -4.54747e-13L28.3424 0.5ZM30.1515 0.5L30.7545 0.5L30.7545 -4.54747e-13L30.1515 -4.54747e-13L30.1515 0.5ZM31.6591 0.5L32.2621 0.5L32.2621 -4.54747e-13L31.6591 -4.54747e-13L31.6591 0.5ZM33.4682 0.5L34.0712 0.5L34.0712 -4.54747e-13L33.4682 -4.54747e-13L33.4682 0.5ZM35.2773 0.5L35.8803 0.5L35.8803 -4.54747e-13L35.2773 -4.54747e-13L35.2773 0.5ZM36.7849 0.5L37.3879 0.5L37.3879 -4.54747e-13L36.7849 -4.54747e-13L36.7849 0.5ZM38.5939 0.5L39.197 0.5L39.197 -4.54747e-13L38.5939 -4.54747e-13L38.5939 0.5ZM40.1015 0.5L40.7045 0.5L40.7045 -4.54747e-13L40.1015 -4.54747e-13L40.1015 0.5ZM41.9106 0.5L42.5136 0.5L42.5136 -4.54747e-13L41.9106 -4.54747e-13L41.9106 0.5ZM43.4182 0.5L44.0212 0.5L44.0212 -4.54747e-13L43.4182 -4.54747e-13L43.4182 0.5ZM45.2273 0.5L45.8303 0.5L45.8303 -4.54747e-13L45.2273 -4.54747e-13L45.2273 0.5ZM47.0364 0.5L47.6394 0.5L47.6394 -4.54747e-13L47.0364 -4.54747e-13L47.0364 0.5ZM48.5439 0.5L49.147 0.5L49.147 -4.54747e-13L48.5439 -4.54747e-13L48.5439 0.5ZM50.353 0.5L50.9561 0.5L50.9561 -4.54747e-13L50.353 -4.54747e-13L50.353 0.5ZM51.8606 0.5L52.4636 0.5L52.4636 -4.54747e-13L51.8606 -4.54747e-13L51.8606 0.5ZM53.6697 0.5L54.2727 0.5L54.2727 -4.54747e-13L53.6697 -4.54747e-13L53.6697 0.5ZM55.1773 0.5L55.7803 0.5L55.7803 -4.54747e-13L55.1773 -4.54747e-13L55.1773 0.5ZM56.9864 0.5L57.5894 0.5L57.5894 -4.54747e-13L56.9864 -4.54747e-13L56.9864 0.5ZM58.7955 0.5L59.3985 0.5L59.3985 -4.54747e-13L58.7955 -4.54747e-13L58.7955 0.5ZM60.303 0.5L60.9061 0.5L60.9061 -4.54747e-13L60.303 -4.54747e-13L60.303 0.5ZM62.1121 0.5L62.7152 0.5L62.7152 -4.54747e-13L62.1121 -4.54747e-13L62.1121 0.5ZM63.6197 0.5L64.2227 0.5L64.2227 -4.54747e-13L63.6197 -4.54747e-13L63.6197 0.5ZM65.4288 0.5L66.0318 0.5L66.0318 -4.54747e-13L65.4288 -4.54747e-13L65.4288 0.5ZM66.9364 0.5L67.5394 0.5L67.5394 -4.54747e-13L66.9364 -4.54747e-13L66.9364 0.5ZM68.7455 0.5L69.3485 0.5L69.3485 -4.54747e-13L68.7455 -4.54747e-13L68.7455 0.5ZM70.5545 0.5L71.1576 0.5L71.1576 -4.54747e-13L70.5545 -4.54747e-13L70.5545 0.5ZM72.0621 0.5L72.6652 0.5L72.6652 -4.54747e-13L72.0621 -4.54747e-13L72.0621 0.5ZM73.8712 0.5L74.4742 0.5L74.4742 -4.54747e-13L73.8712 -4.54747e-13L73.8712 0.5ZM75.3788 0.5L75.9818 0.5L75.9818 -4.54747e-13L75.3788 -4.54747e-13L75.3788 0.5ZM77.1879 0.5L77.7909 0.5L77.7909 -4.54747e-13L77.1879 -4.54747e-13L77.1879 0.5ZM78.6954 0.5L79.2985 0.5L79.2985 -4.54747e-13L78.6954 -4.54747e-13L78.6954 0.5ZM80.5045 0.5L81.1076 0.5L81.1076 -4.54747e-13L80.5045 -4.54747e-13L80.5045 0.5ZM82.3136 0.5L82.9167 0.5L82.9167 -4.54747e-13L82.3136 -4.54747e-13L82.3136 0.5ZM83.8212 0.5L84.4242 0.5L84.4242 -4.54747e-13L83.8212 -4.54747e-13L83.8212 0.5ZM85.6303 0.5L86.2333 0.5L86.2333 -4.54747e-13L85.6303 -4.54747e-13L85.6303 0.5ZM87.1379 0.5L87.7409 0.5L87.7409 -4.54747e-13L87.1379 -4.54747e-13L87.1379 0.5ZM88.947 0.5L89.55 0.5L89.55 -4.54747e-13L88.947 -4.54747e-13L88.947 0.5ZM90.4545 0.5L91.0576 0.5L91.0576 -4.54747e-13L90.4545 -4.54747e-13L90.4545 0.5ZM92.2636 0.5L92.8667 0.5L92.8667 -4.54747e-13L92.2636 -4.54747e-13L92.2636 0.5ZM93.7712 0.5L94.3742 0.5L94.3742 -4.54747e-13L93.7712 -4.54747e-13L93.7712 0.5ZM95.5803 0.5L96.1833 0.5L96.1833 -4.54747e-13L95.5803 -4.54747e-13L95.5803 0.5ZM97.3894 0.5L97.9924 0.5L97.9924 -4.54747e-13L97.3894 -4.54747e-13L97.3894 0.5ZM98.897 0.5L99.5 0.5L99.5 -4.54747e-13L98.897 -4.54747e-13L98.897 0.5ZM100.706 0.5L101.309 0.5L101.309 -4.54747e-13L100.706 -4.54747e-13L100.706 0.5ZM102.214 0.5L102.817 0.5L102.817 -4.54747e-13L102.214 -4.54747e-13L102.214 0.5ZM104.023 0.5L104.626 0.5L104.626 -4.54747e-13L104.023 -4.54747e-13L104.023 0.5ZM105.53 0.5L106.133 0.5L106.133 -4.54747e-13L105.53 -4.54747e-13L105.53 0.5ZM107.339 0.5L107.942 0.5L107.942 -4.54747e-13L107.339 -4.54747e-13L107.339 0.5ZM109.148 0.5L109.752 0.5L109.752 -4.54747e-13L109.148 -4.54747e-13L109.148 0.5ZM110.656 0.5L111.259 0.5L111.259 -4.54747e-13L110.656 -4.54747e-13L110.656 0.5ZM112.465 0.5L113.068 0.5L113.068 -4.54747e-13L112.465 -4.54747e-13L112.465 0.5ZM113.973 0.5L114.576 0.5L114.576 -4.54747e-13L113.973 -4.54747e-13L113.973 0.5ZM115.782 0.5L116.385 0.5L116.385 -4.54747e-13L115.782 -4.54747e-13L115.782 0.5ZM117.289 0.5L117.892 0.5L117.892 -4.54747e-13L117.289 -4.54747e-13L117.289 0.5ZM119.098 0.5L119.702 0.5L119.702 -4.54747e-13L119.098 -4.54747e-13L119.098 0.5ZM120.908 0.5L121.511 0.5L121.511 -4.54747e-13L120.908 -4.54747e-13L120.908 0.5ZM122.415 0.5L123.018 0.5L123.018 -4.54747e-13L122.415 -4.54747e-13L122.415 0.5ZM124.224 0.5L124.827 0.5L124.827 -4.54747e-13L124.224 -4.54747e-13L124.224 0.5ZM125.732 0.5L126.335 0.5L126.335 -4.54747e-13L125.732 -4.54747e-13L125.732 0.5ZM127.541 0.5L128.144 0.5L128.144 -4.54747e-13L127.541 -4.54747e-13L127.541 0.5ZM129.048 0.5L129.652 0.5L129.652 -4.54747e-13L129.048 -4.54747e-13L129.048 0.5ZM130.858 0.5L131.461 0.5L131.461 -4.54747e-13L130.858 -4.54747e-13L130.858 0.5ZM132.667 0.5L133.27 0.5L133.27 -4.54747e-13L132.667 -4.54747e-13L132.667 0.5ZM134.174 0.5L134.777 0.5L134.777 -4.54747e-13L134.174 -4.54747e-13L134.174 0.5ZM135.983 0.5L136.586 0.5L136.586 -4.54747e-13L135.983 -4.54747e-13L135.983 0.5ZM137.491 0.5L138.094 0.5L138.094 -4.54747e-13L137.491 -4.54747e-13L137.491 0.5ZM139.3 0.5L139.903 0.5L139.903 -4.54747e-13L139.3 -4.54747e-13L139.3 0.5ZM140.808 0.5L141.411 0.5L141.411 -4.54747e-13L140.808 -4.54747e-13L140.808 0.5ZM142.617 0.5L143.22 0.5L143.22 -4.54747e-13L142.617 -4.54747e-13L142.617 0.5ZM144.426 0.5L145.029 0.5L145.029 -4.54747e-13L144.426 -4.54747e-13L144.426 0.5ZM145.933 0.5L146.536 0.5L146.536 -4.54747e-13L145.933 -4.54747e-13L145.933 0.5ZM147.742 0.5L148.345 0.5L148.345 -4.54747e-13L147.742 -4.54747e-13L147.742 0.5ZM149.25 0.5L149.853 0.5L149.853 -4.54747e-13L149.25 -4.54747e-13L149.25 0.5ZM151.059 0.5L151.662 0.5L151.662 -4.54747e-13L151.059 -4.54747e-13L151.059 0.5ZM152.567 0.5L153.17 0.5L153.17 -4.54747e-13L152.567 -4.54747e-13L152.567 0.5ZM154.376 0.5L154.979 0.5L154.979 -4.54747e-13L154.376 -4.54747e-13L154.376 0.5ZM156.185 0.5L156.788 0.5L156.788 -4.54747e-13L156.185 -4.54747e-13L156.185 0.5ZM157.692 0.5L158.295 0.5L158.295 -4.54747e-13L157.692 -4.54747e-13L157.692 0.5ZM159.502 0.5L160.105 0.5L160.105 -4.54747e-13L159.502 -4.54747e-13L159.502 0.5ZM161.009 0.5L161.612 0.5L161.612 -4.54747e-13L161.009 -4.54747e-13L161.009 0.5ZM162.818 0.5L163.421 0.5L163.421 -4.54747e-13L162.818 -4.54747e-13L162.818 0.5ZM164.326 0.5L164.929 0.5L164.929 -4.54747e-13L164.326 -4.54747e-13L164.326 0.5ZM166.135 0.5L166.738 0.5L166.738 -4.54747e-13L166.135 -4.54747e-13L166.135 0.5ZM167.944 0.5L168.547 0.5L168.547 -4.54747e-13L167.944 -4.54747e-13L167.944 0.5ZM169.452 0.5L170.055 0.5L170.055 -4.54747e-13L169.452 -4.54747e-13L169.452 0.5ZM171.261 0.5L171.864 0.5L171.864 -4.54747e-13L171.261 -4.54747e-13L171.261 0.5ZM172.768 0.5L173.371 0.5L173.371 -4.54747e-13L172.768 -4.54747e-13L172.768 0.5ZM174.577 0.5L175.18 0.5L175.18 -4.54747e-13L174.577 -4.54747e-13L174.577 0.5ZM176.085 0.5L176.688 0.5L176.688 -4.54747e-13L176.085 -4.54747e-13L176.085 0.5ZM177.894 0.5L178.497 0.5L178.497 -4.54747e-13L177.894 -4.54747e-13L177.894 0.5ZM179.703 0.5L180.306 0.5L180.306 -4.54747e-13L179.703 -4.54747e-13L179.703 0.5ZM181.211 0.5L181.814 0.5L181.814 -4.54747e-13L181.211 -4.54747e-13L181.211 0.5ZM183.02 0.5L183.623 0.5L183.623 -4.54747e-13L183.02 -4.54747e-13L183.02 0.5Z" transform="translate(6.633333 7.348966)" id="Fill-82" fill="#D4DBFC" stroke="none" />
          <path d="M0 0.5L0.60303 0.5L0.60303 0L0 0L0 0.5ZM1.50758 0.5L2.11061 0.5L2.11061 0L1.50758 0L1.50758 0.5ZM3.31667 0.5L3.9197 0.5L3.9197 0L3.31667 0L3.31667 0.5ZM4.82424 0.5L5.42727 0.5L5.42727 0L4.82424 0L4.82424 0.5ZM6.63333 0.5L7.23636 0.5L7.23636 0L6.63333 0L6.63333 0.5ZM8.14091 0.5L8.74394 0.5L8.74394 0L8.14091 0L8.14091 0.5ZM9.95 0.5L10.553 0.5L10.553 0L9.95 0L9.95 0.5ZM11.7591 0.5L12.3621 0.5L12.3621 0L11.7591 0L11.7591 0.5ZM13.2667 0.5L13.8697 0.5L13.8697 0L13.2667 0L13.2667 0.5ZM15.0758 0.5L15.6788 0.5L15.6788 0L15.0758 0L15.0758 0.5ZM16.5833 0.5L17.1864 0.5L17.1864 0L16.5833 0L16.5833 0.5ZM18.3924 0.5L18.9955 0.5L18.9955 0L18.3924 0L18.3924 0.5ZM19.9 0.5L20.503 0.5L20.503 0L19.9 0L19.9 0.5ZM21.7091 0.5L22.3121 0.5L22.3121 0L21.7091 0L21.7091 0.5ZM23.5182 0.5L24.1212 0.5L24.1212 0L23.5182 0L23.5182 0.5ZM25.0258 0.5L25.6288 0.5L25.6288 0L25.0258 0L25.0258 0.5ZM26.8348 0.5L27.4379 0.5L27.4379 0L26.8348 0L26.8348 0.5ZM28.3424 0.5L28.9455 0.5L28.9455 0L28.3424 0L28.3424 0.5ZM30.1515 0.5L30.7545 0.5L30.7545 0L30.1515 0L30.1515 0.5ZM31.6591 0.5L32.2621 0.5L32.2621 0L31.6591 0L31.6591 0.5ZM33.4682 0.5L34.0712 0.5L34.0712 0L33.4682 0L33.4682 0.5ZM35.2773 0.5L35.8803 0.5L35.8803 0L35.2773 0L35.2773 0.5ZM36.7849 0.5L37.3879 0.5L37.3879 0L36.7849 0L36.7849 0.5ZM38.5939 0.5L39.197 0.5L39.197 0L38.5939 0L38.5939 0.5ZM40.1015 0.5L40.7045 0.5L40.7045 0L40.1015 0L40.1015 0.5ZM41.9106 0.5L42.5136 0.5L42.5136 0L41.9106 0L41.9106 0.5ZM43.4182 0.5L44.0212 0.5L44.0212 0L43.4182 0L43.4182 0.5ZM45.2273 0.5L45.8303 0.5L45.8303 0L45.2273 0L45.2273 0.5ZM47.0364 0.5L47.6394 0.5L47.6394 0L47.0364 0L47.0364 0.5ZM48.5439 0.5L49.147 0.5L49.147 0L48.5439 0L48.5439 0.5ZM50.353 0.5L50.9561 0.5L50.9561 0L50.353 0L50.353 0.5ZM51.8606 0.5L52.4636 0.5L52.4636 0L51.8606 0L51.8606 0.5ZM53.6697 0.5L54.2727 0.5L54.2727 0L53.6697 0L53.6697 0.5ZM55.1773 0.5L55.7803 0.5L55.7803 0L55.1773 0L55.1773 0.5ZM56.9864 0.5L57.5894 0.5L57.5894 0L56.9864 0L56.9864 0.5ZM58.7955 0.5L59.3985 0.5L59.3985 0L58.7955 0L58.7955 0.5ZM60.303 0.5L60.9061 0.5L60.9061 0L60.303 0L60.303 0.5ZM62.1121 0.5L62.7152 0.5L62.7152 0L62.1121 0L62.1121 0.5ZM63.6197 0.5L64.2227 0.5L64.2227 0L63.6197 0L63.6197 0.5ZM65.4288 0.5L66.0318 0.5L66.0318 0L65.4288 0L65.4288 0.5ZM66.9364 0.5L67.5394 0.5L67.5394 0L66.9364 0L66.9364 0.5ZM68.7455 0.5L69.3485 0.5L69.3485 0L68.7455 0L68.7455 0.5ZM70.5545 0.5L71.1576 0.5L71.1576 0L70.5545 0L70.5545 0.5ZM72.0621 0.5L72.6652 0.5L72.6652 0L72.0621 0L72.0621 0.5ZM73.8712 0.5L74.4742 0.5L74.4742 0L73.8712 0L73.8712 0.5ZM75.3788 0.5L75.9818 0.5L75.9818 0L75.3788 0L75.3788 0.5ZM77.1879 0.5L77.7909 0.5L77.7909 0L77.1879 0L77.1879 0.5ZM78.6954 0.5L79.2985 0.5L79.2985 0L78.6954 0L78.6954 0.5ZM80.5045 0.5L81.1076 0.5L81.1076 0L80.5045 0L80.5045 0.5ZM82.3136 0.5L82.9167 0.5L82.9167 0L82.3136 0L82.3136 0.5ZM83.8212 0.5L84.4242 0.5L84.4242 0L83.8212 0L83.8212 0.5ZM85.6303 0.5L86.2333 0.5L86.2333 0L85.6303 0L85.6303 0.5ZM87.1379 0.5L87.7409 0.5L87.7409 0L87.1379 0L87.1379 0.5ZM88.947 0.5L89.55 0.5L89.55 0L88.947 0L88.947 0.5ZM90.4545 0.5L91.0576 0.5L91.0576 0L90.4545 0L90.4545 0.5ZM92.2636 0.5L92.8667 0.5L92.8667 0L92.2636 0L92.2636 0.5ZM93.7712 0.5L94.3742 0.5L94.3742 0L93.7712 0L93.7712 0.5ZM95.5803 0.5L96.1833 0.5L96.1833 0L95.5803 0L95.5803 0.5ZM97.3894 0.5L97.9924 0.5L97.9924 0L97.3894 0L97.3894 0.5ZM98.897 0.5L99.5 0.5L99.5 0L98.897 0L98.897 0.5ZM100.706 0.5L101.309 0.5L101.309 0L100.706 0L100.706 0.5ZM102.214 0.5L102.817 0.5L102.817 0L102.214 0L102.214 0.5ZM104.023 0.5L104.626 0.5L104.626 0L104.023 0L104.023 0.5ZM105.53 0.5L106.133 0.5L106.133 0L105.53 0L105.53 0.5ZM107.339 0.5L107.942 0.5L107.942 0L107.339 0L107.339 0.5ZM109.148 0.5L109.752 0.5L109.752 0L109.148 0L109.148 0.5ZM110.656 0.5L111.259 0.5L111.259 0L110.656 0L110.656 0.5ZM112.465 0.5L113.068 0.5L113.068 0L112.465 0L112.465 0.5ZM113.973 0.5L114.576 0.5L114.576 0L113.973 0L113.973 0.5ZM115.782 0.5L116.385 0.5L116.385 0L115.782 0L115.782 0.5ZM117.289 0.5L117.892 0.5L117.892 0L117.289 0L117.289 0.5ZM119.098 0.5L119.702 0.5L119.702 0L119.098 0L119.098 0.5ZM120.908 0.5L121.511 0.5L121.511 0L120.908 0L120.908 0.5ZM122.415 0.5L123.018 0.5L123.018 0L122.415 0L122.415 0.5ZM124.224 0.5L124.827 0.5L124.827 0L124.224 0L124.224 0.5ZM125.732 0.5L126.335 0.5L126.335 0L125.732 0L125.732 0.5ZM127.541 0.5L128.144 0.5L128.144 0L127.541 0L127.541 0.5ZM129.048 0.5L129.652 0.5L129.652 0L129.048 0L129.048 0.5ZM130.858 0.5L131.461 0.5L131.461 0L130.858 0L130.858 0.5ZM132.667 0.5L133.27 0.5L133.27 0L132.667 0L132.667 0.5ZM134.174 0.5L134.777 0.5L134.777 0L134.174 0L134.174 0.5ZM135.983 0.5L136.586 0.5L136.586 0L135.983 0L135.983 0.5ZM137.491 0.5L138.094 0.5L138.094 0L137.491 0L137.491 0.5ZM139.3 0.5L139.903 0.5L139.903 0L139.3 0L139.3 0.5ZM140.808 0.5L141.411 0.5L141.411 0L140.808 0L140.808 0.5ZM142.617 0.5L143.22 0.5L143.22 0L142.617 0L142.617 0.5ZM144.426 0.5L145.029 0.5L145.029 0L144.426 0L144.426 0.5ZM145.933 0.5L146.536 0.5L146.536 0L145.933 0L145.933 0.5ZM147.742 0.5L148.345 0.5L148.345 0L147.742 0L147.742 0.5ZM149.25 0.5L149.853 0.5L149.853 0L149.25 0L149.25 0.5ZM151.059 0.5L151.662 0.5L151.662 0L151.059 0L151.059 0.5ZM152.567 0.5L153.17 0.5L153.17 0L152.567 0L152.567 0.5ZM154.376 0.5L154.979 0.5L154.979 0L154.376 0L154.376 0.5ZM156.185 0.5L156.788 0.5L156.788 0L156.185 0L156.185 0.5ZM157.692 0.5L158.295 0.5L158.295 0L157.692 0L157.692 0.5ZM159.502 0.5L160.105 0.5L160.105 0L159.502 0L159.502 0.5ZM161.009 0.5L161.612 0.5L161.612 0L161.009 0L161.009 0.5ZM162.818 0.5L163.421 0.5L163.421 0L162.818 0L162.818 0.5ZM164.326 0.5L164.929 0.5L164.929 0L164.326 0L164.326 0.5ZM166.135 0.5L166.738 0.5L166.738 0L166.135 0L166.135 0.5ZM167.944 0.5L168.547 0.5L168.547 0L167.944 0L167.944 0.5ZM169.452 0.5L170.055 0.5L170.055 0L169.452 0L169.452 0.5ZM171.261 0.5L171.864 0.5L171.864 0L171.261 0L171.261 0.5ZM172.768 0.5L173.371 0.5L173.371 0L172.768 0L172.768 0.5ZM174.577 0.5L175.18 0.5L175.18 0L174.577 0L174.577 0.5ZM176.085 0.5L176.688 0.5L176.688 0L176.085 0L176.085 0.5ZM177.894 0.5L178.497 0.5L178.497 0L177.894 0L177.894 0.5ZM179.703 0.5L180.306 0.5L180.306 0L179.703 0L179.703 0.5ZM181.211 0.5L181.814 0.5L181.814 0L181.211 0L181.211 0.5ZM183.02 0.5L183.623 0.5L183.623 0L183.02 0L183.02 0.5Z" transform="translate(6.633333 22.99667)" id="Fill-83" fill="#D4DBFC" stroke="none" />
          <path d="M0 0.5L0.60303 0.5L0.60303 0L0 0L0 0.5ZM1.50758 0.5L2.11061 0.5L2.11061 0L1.50758 0L1.50758 0.5ZM3.31667 0.5L3.9197 0.5L3.9197 0L3.31667 0L3.31667 0.5ZM4.82424 0.5L5.42727 0.5L5.42727 0L4.82424 0L4.82424 0.5ZM6.63333 0.5L7.23636 0.5L7.23636 0L6.63333 0L6.63333 0.5ZM8.14091 0.5L8.74394 0.5L8.74394 0L8.14091 0L8.14091 0.5ZM9.95 0.5L10.553 0.5L10.553 0L9.95 0L9.95 0.5ZM11.7591 0.5L12.3621 0.5L12.3621 0L11.7591 0L11.7591 0.5ZM13.2667 0.5L13.8697 0.5L13.8697 0L13.2667 0L13.2667 0.5ZM15.0758 0.5L15.6788 0.5L15.6788 0L15.0758 0L15.0758 0.5ZM16.5833 0.5L17.1864 0.5L17.1864 0L16.5833 0L16.5833 0.5ZM18.3924 0.5L18.9955 0.5L18.9955 0L18.3924 0L18.3924 0.5ZM19.9 0.5L20.503 0.5L20.503 0L19.9 0L19.9 0.5ZM21.7091 0.5L22.3121 0.5L22.3121 0L21.7091 0L21.7091 0.5ZM23.5182 0.5L24.1212 0.5L24.1212 0L23.5182 0L23.5182 0.5ZM25.0258 0.5L25.6288 0.5L25.6288 0L25.0258 0L25.0258 0.5ZM26.8348 0.5L27.4379 0.5L27.4379 0L26.8348 0L26.8348 0.5ZM28.3424 0.5L28.9455 0.5L28.9455 0L28.3424 0L28.3424 0.5ZM30.1515 0.5L30.7545 0.5L30.7545 0L30.1515 0L30.1515 0.5ZM31.6591 0.5L32.2621 0.5L32.2621 0L31.6591 0L31.6591 0.5ZM33.4682 0.5L34.0712 0.5L34.0712 0L33.4682 0L33.4682 0.5ZM35.2773 0.5L35.8803 0.5L35.8803 0L35.2773 0L35.2773 0.5ZM36.7849 0.5L37.3879 0.5L37.3879 0L36.7849 0L36.7849 0.5ZM38.5939 0.5L39.197 0.5L39.197 0L38.5939 0L38.5939 0.5ZM40.1015 0.5L40.7045 0.5L40.7045 0L40.1015 0L40.1015 0.5ZM41.9106 0.5L42.5136 0.5L42.5136 0L41.9106 0L41.9106 0.5ZM43.4182 0.5L44.0212 0.5L44.0212 0L43.4182 0L43.4182 0.5ZM45.2273 0.5L45.8303 0.5L45.8303 0L45.2273 0L45.2273 0.5ZM47.0364 0.5L47.6394 0.5L47.6394 0L47.0364 0L47.0364 0.5ZM48.5439 0.5L49.147 0.5L49.147 0L48.5439 0L48.5439 0.5ZM50.353 0.5L50.9561 0.5L50.9561 0L50.353 0L50.353 0.5ZM51.8606 0.5L52.4636 0.5L52.4636 0L51.8606 0L51.8606 0.5ZM53.6697 0.5L54.2727 0.5L54.2727 0L53.6697 0L53.6697 0.5ZM55.1773 0.5L55.7803 0.5L55.7803 0L55.1773 0L55.1773 0.5ZM56.9864 0.5L57.5894 0.5L57.5894 0L56.9864 0L56.9864 0.5ZM58.7955 0.5L59.3985 0.5L59.3985 0L58.7955 0L58.7955 0.5ZM60.303 0.5L60.9061 0.5L60.9061 0L60.303 0L60.303 0.5ZM62.1121 0.5L62.7152 0.5L62.7152 0L62.1121 0L62.1121 0.5ZM63.6197 0.5L64.2227 0.5L64.2227 0L63.6197 0L63.6197 0.5ZM65.4288 0.5L66.0318 0.5L66.0318 0L65.4288 0L65.4288 0.5ZM66.9364 0.5L67.5394 0.5L67.5394 0L66.9364 0L66.9364 0.5ZM68.7455 0.5L69.3485 0.5L69.3485 0L68.7455 0L68.7455 0.5ZM70.5545 0.5L71.1576 0.5L71.1576 0L70.5545 0L70.5545 0.5ZM72.0621 0.5L72.6652 0.5L72.6652 0L72.0621 0L72.0621 0.5ZM73.8712 0.5L74.4742 0.5L74.4742 0L73.8712 0L73.8712 0.5ZM75.3788 0.5L75.9818 0.5L75.9818 0L75.3788 0L75.3788 0.5ZM77.1879 0.5L77.7909 0.5L77.7909 0L77.1879 0L77.1879 0.5ZM78.6954 0.5L79.2985 0.5L79.2985 0L78.6954 0L78.6954 0.5ZM80.5045 0.5L81.1076 0.5L81.1076 0L80.5045 0L80.5045 0.5ZM82.3136 0.5L82.9167 0.5L82.9167 0L82.3136 0L82.3136 0.5ZM83.8212 0.5L84.4242 0.5L84.4242 0L83.8212 0L83.8212 0.5ZM85.6303 0.5L86.2333 0.5L86.2333 0L85.6303 0L85.6303 0.5ZM87.1379 0.5L87.7409 0.5L87.7409 0L87.1379 0L87.1379 0.5ZM88.947 0.5L89.55 0.5L89.55 0L88.947 0L88.947 0.5ZM90.4545 0.5L91.0576 0.5L91.0576 0L90.4545 0L90.4545 0.5ZM92.2636 0.5L92.8667 0.5L92.8667 0L92.2636 0L92.2636 0.5ZM93.7712 0.5L94.3742 0.5L94.3742 0L93.7712 0L93.7712 0.5ZM95.5803 0.5L96.1833 0.5L96.1833 0L95.5803 0L95.5803 0.5ZM97.3894 0.5L97.9924 0.5L97.9924 0L97.3894 0L97.3894 0.5ZM98.897 0.5L99.5 0.5L99.5 0L98.897 0L98.897 0.5ZM100.706 0.5L101.309 0.5L101.309 0L100.706 0L100.706 0.5ZM102.214 0.5L102.817 0.5L102.817 0L102.214 0L102.214 0.5ZM104.023 0.5L104.626 0.5L104.626 0L104.023 0L104.023 0.5ZM105.53 0.5L106.133 0.5L106.133 0L105.53 0L105.53 0.5ZM107.339 0.5L107.942 0.5L107.942 0L107.339 0L107.339 0.5ZM109.148 0.5L109.752 0.5L109.752 0L109.148 0L109.148 0.5ZM110.656 0.5L111.259 0.5L111.259 0L110.656 0L110.656 0.5ZM112.465 0.5L113.068 0.5L113.068 0L112.465 0L112.465 0.5ZM113.973 0.5L114.576 0.5L114.576 0L113.973 0L113.973 0.5ZM115.782 0.5L116.385 0.5L116.385 0L115.782 0L115.782 0.5ZM117.289 0.5L117.892 0.5L117.892 0L117.289 0L117.289 0.5ZM119.098 0.5L119.702 0.5L119.702 0L119.098 0L119.098 0.5ZM120.908 0.5L121.511 0.5L121.511 0L120.908 0L120.908 0.5ZM122.415 0.5L123.018 0.5L123.018 0L122.415 0L122.415 0.5ZM124.224 0.5L124.827 0.5L124.827 0L124.224 0L124.224 0.5ZM125.732 0.5L126.335 0.5L126.335 0L125.732 0L125.732 0.5ZM127.541 0.5L128.144 0.5L128.144 0L127.541 0L127.541 0.5ZM129.048 0.5L129.652 0.5L129.652 0L129.048 0L129.048 0.5ZM130.858 0.5L131.461 0.5L131.461 0L130.858 0L130.858 0.5ZM132.667 0.5L133.27 0.5L133.27 0L132.667 0L132.667 0.5ZM134.174 0.5L134.777 0.5L134.777 0L134.174 0L134.174 0.5ZM135.983 0.5L136.586 0.5L136.586 0L135.983 0L135.983 0.5ZM137.491 0.5L138.094 0.5L138.094 0L137.491 0L137.491 0.5ZM139.3 0.5L139.903 0.5L139.903 0L139.3 0L139.3 0.5ZM140.808 0.5L141.411 0.5L141.411 0L140.808 0L140.808 0.5ZM142.617 0.5L143.22 0.5L143.22 0L142.617 0L142.617 0.5ZM144.426 0.5L145.029 0.5L145.029 0L144.426 0L144.426 0.5ZM145.933 0.5L146.536 0.5L146.536 0L145.933 0L145.933 0.5ZM147.742 0.5L148.345 0.5L148.345 0L147.742 0L147.742 0.5ZM149.25 0.5L149.853 0.5L149.853 0L149.25 0L149.25 0.5ZM151.059 0.5L151.662 0.5L151.662 0L151.059 0L151.059 0.5ZM152.567 0.5L153.17 0.5L153.17 0L152.567 0L152.567 0.5ZM154.376 0.5L154.979 0.5L154.979 0L154.376 0L154.376 0.5ZM156.185 0.5L156.788 0.5L156.788 0L156.185 0L156.185 0.5ZM157.692 0.5L158.295 0.5L158.295 0L157.692 0L157.692 0.5ZM159.502 0.5L160.105 0.5L160.105 0L159.502 0L159.502 0.5ZM161.009 0.5L161.612 0.5L161.612 0L161.009 0L161.009 0.5ZM162.818 0.5L163.421 0.5L163.421 0L162.818 0L162.818 0.5ZM164.326 0.5L164.929 0.5L164.929 0L164.326 0L164.326 0.5ZM166.135 0.5L166.738 0.5L166.738 0L166.135 0L166.135 0.5ZM167.944 0.5L168.547 0.5L168.547 0L167.944 0L167.944 0.5ZM169.452 0.5L170.055 0.5L170.055 0L169.452 0L169.452 0.5ZM171.261 0.5L171.864 0.5L171.864 0L171.261 0L171.261 0.5ZM172.768 0.5L173.371 0.5L173.371 0L172.768 0L172.768 0.5ZM174.577 0.5L175.18 0.5L175.18 0L174.577 0L174.577 0.5ZM176.085 0.5L176.688 0.5L176.688 0L176.085 0L176.085 0.5ZM177.894 0.5L178.497 0.5L178.497 0L177.894 0L177.894 0.5ZM179.703 0.5L180.306 0.5L180.306 0L179.703 0L179.703 0.5ZM181.211 0.5L181.814 0.5L181.814 0L181.211 0L181.211 0.5ZM183.02 0.5L183.623 0.5L183.623 0L183.02 0L183.02 0.5Z" transform="translate(6.633333 38.9453)" id="Fill-84" fill="#D4DBFC" stroke="none" />
          <path d="M0 0.5L0.60303 0.5L0.60303 0L0 0L0 0.5ZM1.50758 0.5L2.11061 0.5L2.11061 0L1.50758 0L1.50758 0.5ZM3.31667 0.5L3.9197 0.5L3.9197 0L3.31667 0L3.31667 0.5ZM4.82424 0.5L5.42727 0.5L5.42727 0L4.82424 0L4.82424 0.5ZM6.63333 0.5L7.23636 0.5L7.23636 0L6.63333 0L6.63333 0.5ZM8.14091 0.5L8.74394 0.5L8.74394 0L8.14091 0L8.14091 0.5ZM9.95 0.5L10.553 0.5L10.553 0L9.95 0L9.95 0.5ZM11.7591 0.5L12.3621 0.5L12.3621 0L11.7591 0L11.7591 0.5ZM13.2667 0.5L13.8697 0.5L13.8697 0L13.2667 0L13.2667 0.5ZM15.0758 0.5L15.6788 0.5L15.6788 0L15.0758 0L15.0758 0.5ZM16.5833 0.5L17.1864 0.5L17.1864 0L16.5833 0L16.5833 0.5ZM18.3924 0.5L18.9955 0.5L18.9955 0L18.3924 0L18.3924 0.5ZM19.9 0.5L20.503 0.5L20.503 0L19.9 0L19.9 0.5ZM21.7091 0.5L22.3121 0.5L22.3121 0L21.7091 0L21.7091 0.5ZM23.5182 0.5L24.1212 0.5L24.1212 0L23.5182 0L23.5182 0.5ZM25.0258 0.5L25.6288 0.5L25.6288 0L25.0258 0L25.0258 0.5ZM26.8348 0.5L27.4379 0.5L27.4379 0L26.8348 0L26.8348 0.5ZM28.3424 0.5L28.9455 0.5L28.9455 0L28.3424 0L28.3424 0.5ZM30.1515 0.5L30.7545 0.5L30.7545 0L30.1515 0L30.1515 0.5ZM31.6591 0.5L32.2621 0.5L32.2621 0L31.6591 0L31.6591 0.5ZM33.4682 0.5L34.0712 0.5L34.0712 0L33.4682 0L33.4682 0.5ZM35.2773 0.5L35.8803 0.5L35.8803 0L35.2773 0L35.2773 0.5ZM36.7849 0.5L37.3879 0.5L37.3879 0L36.7849 0L36.7849 0.5ZM38.5939 0.5L39.197 0.5L39.197 0L38.5939 0L38.5939 0.5ZM40.1015 0.5L40.7045 0.5L40.7045 0L40.1015 0L40.1015 0.5ZM41.9106 0.5L42.5136 0.5L42.5136 0L41.9106 0L41.9106 0.5ZM43.4182 0.5L44.0212 0.5L44.0212 0L43.4182 0L43.4182 0.5ZM45.2273 0.5L45.8303 0.5L45.8303 0L45.2273 0L45.2273 0.5ZM47.0364 0.5L47.6394 0.5L47.6394 0L47.0364 0L47.0364 0.5ZM48.5439 0.5L49.147 0.5L49.147 0L48.5439 0L48.5439 0.5ZM50.353 0.5L50.9561 0.5L50.9561 0L50.353 0L50.353 0.5ZM51.8606 0.5L52.4636 0.5L52.4636 0L51.8606 0L51.8606 0.5ZM53.6697 0.5L54.2727 0.5L54.2727 0L53.6697 0L53.6697 0.5ZM55.1773 0.5L55.7803 0.5L55.7803 0L55.1773 0L55.1773 0.5ZM56.9864 0.5L57.5894 0.5L57.5894 0L56.9864 0L56.9864 0.5ZM58.7955 0.5L59.3985 0.5L59.3985 0L58.7955 0L58.7955 0.5ZM60.303 0.5L60.9061 0.5L60.9061 0L60.303 0L60.303 0.5ZM62.1121 0.5L62.7152 0.5L62.7152 0L62.1121 0L62.1121 0.5ZM63.6197 0.5L64.2227 0.5L64.2227 0L63.6197 0L63.6197 0.5ZM65.4288 0.5L66.0318 0.5L66.0318 0L65.4288 0L65.4288 0.5ZM66.9364 0.5L67.5394 0.5L67.5394 0L66.9364 0L66.9364 0.5ZM68.7455 0.5L69.3485 0.5L69.3485 0L68.7455 0L68.7455 0.5ZM70.5545 0.5L71.1576 0.5L71.1576 0L70.5545 0L70.5545 0.5ZM72.0621 0.5L72.6652 0.5L72.6652 0L72.0621 0L72.0621 0.5ZM73.8712 0.5L74.4742 0.5L74.4742 0L73.8712 0L73.8712 0.5ZM75.3788 0.5L75.9818 0.5L75.9818 0L75.3788 0L75.3788 0.5ZM77.1879 0.5L77.7909 0.5L77.7909 0L77.1879 0L77.1879 0.5ZM78.6954 0.5L79.2985 0.5L79.2985 0L78.6954 0L78.6954 0.5ZM80.5045 0.5L81.1076 0.5L81.1076 0L80.5045 0L80.5045 0.5ZM82.3136 0.5L82.9167 0.5L82.9167 0L82.3136 0L82.3136 0.5ZM83.8212 0.5L84.4242 0.5L84.4242 0L83.8212 0L83.8212 0.5ZM85.6303 0.5L86.2333 0.5L86.2333 0L85.6303 0L85.6303 0.5ZM87.1379 0.5L87.7409 0.5L87.7409 0L87.1379 0L87.1379 0.5ZM88.947 0.5L89.55 0.5L89.55 0L88.947 0L88.947 0.5ZM90.4545 0.5L91.0576 0.5L91.0576 0L90.4545 0L90.4545 0.5ZM92.2636 0.5L92.8667 0.5L92.8667 0L92.2636 0L92.2636 0.5ZM93.7712 0.5L94.3742 0.5L94.3742 0L93.7712 0L93.7712 0.5ZM95.5803 0.5L96.1833 0.5L96.1833 0L95.5803 0L95.5803 0.5ZM97.3894 0.5L97.9924 0.5L97.9924 0L97.3894 0L97.3894 0.5ZM98.897 0.5L99.5 0.5L99.5 0L98.897 0L98.897 0.5ZM100.706 0.5L101.309 0.5L101.309 0L100.706 0L100.706 0.5ZM102.214 0.5L102.817 0.5L102.817 0L102.214 0L102.214 0.5ZM104.023 0.5L104.626 0.5L104.626 0L104.023 0L104.023 0.5ZM105.53 0.5L106.133 0.5L106.133 0L105.53 0L105.53 0.5ZM107.339 0.5L107.942 0.5L107.942 0L107.339 0L107.339 0.5ZM109.148 0.5L109.752 0.5L109.752 0L109.148 0L109.148 0.5ZM110.656 0.5L111.259 0.5L111.259 0L110.656 0L110.656 0.5ZM112.465 0.5L113.068 0.5L113.068 0L112.465 0L112.465 0.5ZM113.973 0.5L114.576 0.5L114.576 0L113.973 0L113.973 0.5ZM115.782 0.5L116.385 0.5L116.385 0L115.782 0L115.782 0.5ZM117.289 0.5L117.892 0.5L117.892 0L117.289 0L117.289 0.5ZM119.098 0.5L119.702 0.5L119.702 0L119.098 0L119.098 0.5ZM120.908 0.5L121.511 0.5L121.511 0L120.908 0L120.908 0.5ZM122.415 0.5L123.018 0.5L123.018 0L122.415 0L122.415 0.5ZM124.224 0.5L124.827 0.5L124.827 0L124.224 0L124.224 0.5ZM125.732 0.5L126.335 0.5L126.335 0L125.732 0L125.732 0.5ZM127.541 0.5L128.144 0.5L128.144 0L127.541 0L127.541 0.5ZM129.048 0.5L129.652 0.5L129.652 0L129.048 0L129.048 0.5ZM130.858 0.5L131.461 0.5L131.461 0L130.858 0L130.858 0.5ZM132.667 0.5L133.27 0.5L133.27 0L132.667 0L132.667 0.5ZM134.174 0.5L134.777 0.5L134.777 0L134.174 0L134.174 0.5ZM135.983 0.5L136.586 0.5L136.586 0L135.983 0L135.983 0.5ZM137.491 0.5L138.094 0.5L138.094 0L137.491 0L137.491 0.5ZM139.3 0.5L139.903 0.5L139.903 0L139.3 0L139.3 0.5ZM140.808 0.5L141.411 0.5L141.411 0L140.808 0L140.808 0.5ZM142.617 0.5L143.22 0.5L143.22 0L142.617 0L142.617 0.5ZM144.426 0.5L145.029 0.5L145.029 0L144.426 0L144.426 0.5ZM145.933 0.5L146.536 0.5L146.536 0L145.933 0L145.933 0.5ZM147.742 0.5L148.345 0.5L148.345 0L147.742 0L147.742 0.5ZM149.25 0.5L149.853 0.5L149.853 0L149.25 0L149.25 0.5ZM151.059 0.5L151.662 0.5L151.662 0L151.059 0L151.059 0.5ZM152.567 0.5L153.17 0.5L153.17 0L152.567 0L152.567 0.5ZM154.376 0.5L154.979 0.5L154.979 0L154.376 0L154.376 0.5ZM156.185 0.5L156.788 0.5L156.788 0L156.185 0L156.185 0.5ZM157.692 0.5L158.295 0.5L158.295 0L157.692 0L157.692 0.5ZM159.502 0.5L160.105 0.5L160.105 0L159.502 0L159.502 0.5ZM161.009 0.5L161.612 0.5L161.612 0L161.009 0L161.009 0.5ZM162.818 0.5L163.421 0.5L163.421 0L162.818 0L162.818 0.5ZM164.326 0.5L164.929 0.5L164.929 0L164.326 0L164.326 0.5ZM166.135 0.5L166.738 0.5L166.738 0L166.135 0L166.135 0.5ZM167.944 0.5L168.547 0.5L168.547 0L167.944 0L167.944 0.5ZM169.452 0.5L170.055 0.5L170.055 0L169.452 0L169.452 0.5ZM171.261 0.5L171.864 0.5L171.864 0L171.261 0L171.261 0.5ZM172.768 0.5L173.371 0.5L173.371 0L172.768 0L172.768 0.5ZM174.577 0.5L175.18 0.5L175.18 0L174.577 0L174.577 0.5ZM176.085 0.5L176.688 0.5L176.688 0L176.085 0L176.085 0.5ZM177.894 0.5L178.497 0.5L178.497 0L177.894 0L177.894 0.5ZM179.703 0.5L180.306 0.5L180.306 0L179.703 0L179.703 0.5ZM181.211 0.5L181.814 0.5L181.814 0L181.211 0L181.211 0.5ZM183.02 0.5L183.623 0.5L183.623 0L183.02 0L183.02 0.5Z" transform="translate(6.633333 54.89392)" id="Fill-85" fill="#D4DBFC" stroke="none" />
          <path d="M0 0.5L0.60303 0.5L0.60303 0L0 0L0 0.5ZM1.50758 0.5L2.11061 0.5L2.11061 0L1.50758 0L1.50758 0.5ZM3.31667 0.5L3.9197 0.5L3.9197 0L3.31667 0L3.31667 0.5ZM4.82424 0.5L5.42727 0.5L5.42727 0L4.82424 0L4.82424 0.5ZM6.63333 0.5L7.23636 0.5L7.23636 0L6.63333 0L6.63333 0.5ZM8.14091 0.5L8.74394 0.5L8.74394 0L8.14091 0L8.14091 0.5ZM9.95 0.5L10.553 0.5L10.553 0L9.95 0L9.95 0.5ZM11.7591 0.5L12.3621 0.5L12.3621 0L11.7591 0L11.7591 0.5ZM13.2667 0.5L13.8697 0.5L13.8697 0L13.2667 0L13.2667 0.5ZM15.0758 0.5L15.6788 0.5L15.6788 0L15.0758 0L15.0758 0.5ZM16.5833 0.5L17.1864 0.5L17.1864 0L16.5833 0L16.5833 0.5ZM18.3924 0.5L18.9955 0.5L18.9955 0L18.3924 0L18.3924 0.5ZM19.9 0.5L20.503 0.5L20.503 0L19.9 0L19.9 0.5ZM21.7091 0.5L22.3121 0.5L22.3121 0L21.7091 0L21.7091 0.5ZM23.5182 0.5L24.1212 0.5L24.1212 0L23.5182 0L23.5182 0.5ZM25.0258 0.5L25.6288 0.5L25.6288 0L25.0258 0L25.0258 0.5ZM26.8348 0.5L27.4379 0.5L27.4379 0L26.8348 0L26.8348 0.5ZM28.3424 0.5L28.9455 0.5L28.9455 0L28.3424 0L28.3424 0.5ZM30.1515 0.5L30.7545 0.5L30.7545 0L30.1515 0L30.1515 0.5ZM31.6591 0.5L32.2621 0.5L32.2621 0L31.6591 0L31.6591 0.5ZM33.4682 0.5L34.0712 0.5L34.0712 0L33.4682 0L33.4682 0.5ZM35.2773 0.5L35.8803 0.5L35.8803 0L35.2773 0L35.2773 0.5ZM36.7849 0.5L37.3879 0.5L37.3879 0L36.7849 0L36.7849 0.5ZM38.5939 0.5L39.197 0.5L39.197 0L38.5939 0L38.5939 0.5ZM40.1015 0.5L40.7045 0.5L40.7045 0L40.1015 0L40.1015 0.5ZM41.9106 0.5L42.5136 0.5L42.5136 0L41.9106 0L41.9106 0.5ZM43.4182 0.5L44.0212 0.5L44.0212 0L43.4182 0L43.4182 0.5ZM45.2273 0.5L45.8303 0.5L45.8303 0L45.2273 0L45.2273 0.5ZM47.0364 0.5L47.6394 0.5L47.6394 0L47.0364 0L47.0364 0.5ZM48.5439 0.5L49.147 0.5L49.147 0L48.5439 0L48.5439 0.5ZM50.353 0.5L50.9561 0.5L50.9561 0L50.353 0L50.353 0.5ZM51.8606 0.5L52.4636 0.5L52.4636 0L51.8606 0L51.8606 0.5ZM53.6697 0.5L54.2727 0.5L54.2727 0L53.6697 0L53.6697 0.5ZM55.1773 0.5L55.7803 0.5L55.7803 0L55.1773 0L55.1773 0.5ZM56.9864 0.5L57.5894 0.5L57.5894 0L56.9864 0L56.9864 0.5ZM58.7955 0.5L59.3985 0.5L59.3985 0L58.7955 0L58.7955 0.5ZM60.303 0.5L60.9061 0.5L60.9061 0L60.303 0L60.303 0.5ZM62.1121 0.5L62.7152 0.5L62.7152 0L62.1121 0L62.1121 0.5ZM63.6197 0.5L64.2227 0.5L64.2227 0L63.6197 0L63.6197 0.5ZM65.4288 0.5L66.0318 0.5L66.0318 0L65.4288 0L65.4288 0.5ZM66.9364 0.5L67.5394 0.5L67.5394 0L66.9364 0L66.9364 0.5ZM68.7455 0.5L69.3485 0.5L69.3485 0L68.7455 0L68.7455 0.5ZM70.5545 0.5L71.1576 0.5L71.1576 0L70.5545 0L70.5545 0.5ZM72.0621 0.5L72.6652 0.5L72.6652 0L72.0621 0L72.0621 0.5ZM73.8712 0.5L74.4742 0.5L74.4742 0L73.8712 0L73.8712 0.5ZM75.3788 0.5L75.9818 0.5L75.9818 0L75.3788 0L75.3788 0.5ZM77.1879 0.5L77.7909 0.5L77.7909 0L77.1879 0L77.1879 0.5ZM78.6954 0.5L79.2985 0.5L79.2985 0L78.6954 0L78.6954 0.5ZM80.5045 0.5L81.1076 0.5L81.1076 0L80.5045 0L80.5045 0.5ZM82.3136 0.5L82.9167 0.5L82.9167 0L82.3136 0L82.3136 0.5ZM83.8212 0.5L84.4242 0.5L84.4242 0L83.8212 0L83.8212 0.5ZM85.6303 0.5L86.2333 0.5L86.2333 0L85.6303 0L85.6303 0.5ZM87.1379 0.5L87.7409 0.5L87.7409 0L87.1379 0L87.1379 0.5ZM88.947 0.5L89.55 0.5L89.55 0L88.947 0L88.947 0.5ZM90.4545 0.5L91.0576 0.5L91.0576 0L90.4545 0L90.4545 0.5ZM92.2636 0.5L92.8667 0.5L92.8667 0L92.2636 0L92.2636 0.5ZM93.7712 0.5L94.3742 0.5L94.3742 0L93.7712 0L93.7712 0.5ZM95.5803 0.5L96.1833 0.5L96.1833 0L95.5803 0L95.5803 0.5ZM97.3894 0.5L97.9924 0.5L97.9924 0L97.3894 0L97.3894 0.5ZM98.897 0.5L99.5 0.5L99.5 0L98.897 0L98.897 0.5ZM100.706 0.5L101.309 0.5L101.309 0L100.706 0L100.706 0.5ZM102.214 0.5L102.817 0.5L102.817 0L102.214 0L102.214 0.5ZM104.023 0.5L104.626 0.5L104.626 0L104.023 0L104.023 0.5ZM105.53 0.5L106.133 0.5L106.133 0L105.53 0L105.53 0.5ZM107.339 0.5L107.942 0.5L107.942 0L107.339 0L107.339 0.5ZM109.148 0.5L109.752 0.5L109.752 0L109.148 0L109.148 0.5ZM110.656 0.5L111.259 0.5L111.259 0L110.656 0L110.656 0.5ZM112.465 0.5L113.068 0.5L113.068 0L112.465 0L112.465 0.5ZM113.973 0.5L114.576 0.5L114.576 0L113.973 0L113.973 0.5ZM115.782 0.5L116.385 0.5L116.385 0L115.782 0L115.782 0.5ZM117.289 0.5L117.892 0.5L117.892 0L117.289 0L117.289 0.5ZM119.098 0.5L119.702 0.5L119.702 0L119.098 0L119.098 0.5ZM120.908 0.5L121.511 0.5L121.511 0L120.908 0L120.908 0.5ZM122.415 0.5L123.018 0.5L123.018 0L122.415 0L122.415 0.5ZM124.224 0.5L124.827 0.5L124.827 0L124.224 0L124.224 0.5ZM125.732 0.5L126.335 0.5L126.335 0L125.732 0L125.732 0.5ZM127.541 0.5L128.144 0.5L128.144 0L127.541 0L127.541 0.5ZM129.048 0.5L129.652 0.5L129.652 0L129.048 0L129.048 0.5ZM130.858 0.5L131.461 0.5L131.461 0L130.858 0L130.858 0.5ZM132.667 0.5L133.27 0.5L133.27 0L132.667 0L132.667 0.5ZM134.174 0.5L134.777 0.5L134.777 0L134.174 0L134.174 0.5ZM135.983 0.5L136.586 0.5L136.586 0L135.983 0L135.983 0.5ZM137.491 0.5L138.094 0.5L138.094 0L137.491 0L137.491 0.5ZM139.3 0.5L139.903 0.5L139.903 0L139.3 0L139.3 0.5ZM140.808 0.5L141.411 0.5L141.411 0L140.808 0L140.808 0.5ZM142.617 0.5L143.22 0.5L143.22 0L142.617 0L142.617 0.5ZM144.426 0.5L145.029 0.5L145.029 0L144.426 0L144.426 0.5ZM145.933 0.5L146.536 0.5L146.536 0L145.933 0L145.933 0.5ZM147.742 0.5L148.345 0.5L148.345 0L147.742 0L147.742 0.5ZM149.25 0.5L149.853 0.5L149.853 0L149.25 0L149.25 0.5ZM151.059 0.5L151.662 0.5L151.662 0L151.059 0L151.059 0.5ZM152.567 0.5L153.17 0.5L153.17 0L152.567 0L152.567 0.5ZM154.376 0.5L154.979 0.5L154.979 0L154.376 0L154.376 0.5ZM156.185 0.5L156.788 0.5L156.788 0L156.185 0L156.185 0.5ZM157.692 0.5L158.295 0.5L158.295 0L157.692 0L157.692 0.5ZM159.502 0.5L160.105 0.5L160.105 0L159.502 0L159.502 0.5ZM161.009 0.5L161.612 0.5L161.612 0L161.009 0L161.009 0.5ZM162.818 0.5L163.421 0.5L163.421 0L162.818 0L162.818 0.5ZM164.326 0.5L164.929 0.5L164.929 0L164.326 0L164.326 0.5ZM166.135 0.5L166.738 0.5L166.738 0L166.135 0L166.135 0.5ZM167.944 0.5L168.547 0.5L168.547 0L167.944 0L167.944 0.5ZM169.452 0.5L170.055 0.5L170.055 0L169.452 0L169.452 0.5ZM171.261 0.5L171.864 0.5L171.864 0L171.261 0L171.261 0.5ZM172.768 0.5L173.371 0.5L173.371 0L172.768 0L172.768 0.5ZM174.577 0.5L175.18 0.5L175.18 0L174.577 0L174.577 0.5ZM176.085 0.5L176.688 0.5L176.688 0L176.085 0L176.085 0.5ZM177.894 0.5L178.497 0.5L178.497 0L177.894 0L177.894 0.5ZM179.703 0.5L180.306 0.5L180.306 0L179.703 0L179.703 0.5ZM181.211 0.5L181.814 0.5L181.814 0L181.211 0L181.211 0.5ZM183.02 0.5L183.623 0.5L183.623 0L183.02 0L183.02 0.5Z" transform="translate(6.633333 71.44438)" id="Fill-86" fill="#D4DBFC" stroke="none" />
          <path d="M0 96.8954L0.301514 96.8954L0.301514 0L3.21358e-15 0L0 96.8954Z" transform="translate(32.56364 0)" id="Fill-87" fill="#4027A2" fill-opacity="0.5005348" stroke="none" />
          <path d="M0 0.360596L199 0.360596L199 0L0 0L0 0.360596Z" transform="translate(0 86.18216)" id="Fill-88" fill="#4027A2" stroke="none" />
          <path d="M18.9635 3.28646C19.1357 3.12347 19.2219 2.92515 19.2219 2.69148C19.2219 2.50397 19.1748 2.35324 19.0807 2.23929C18.9867 2.12534 18.8709 2.03952 18.7334 1.98183C18.5959 1.92413 18.423 1.87077 18.2146 1.82172L18.2146 0.947643C18.4635 0.976491 18.6979 1.05438 18.9179 1.18131L19.0959 0.744268C18.9802 0.669264 18.8448 0.608684 18.69 0.562528C18.5351 0.516371 18.3766 0.488967 18.2146 0.480312L18.2146 0L17.8585 0L17.8585 0.488967C17.5343 0.520699 17.2869 0.61878 17.1161 0.783212C16.9453 0.947644 16.8599 1.14669 16.8599 1.38036C16.8599 1.56787 16.9062 1.71859 16.9988 1.83254C17.0915 1.94649 17.2065 2.03303 17.344 2.09217C17.4815 2.15131 17.653 2.2054 17.8585 2.25444L17.8585 3.11987C17.6935 3.10544 17.5343 3.06866 17.3809 3.00952C17.2275 2.95039 17.0973 2.87755 16.9902 2.791L16.7948 3.22804C16.9077 3.32613 17.0596 3.4069 17.2507 3.47036C17.4417 3.53383 17.6443 3.57277 17.8585 3.5872L17.8585 4.06751L18.2146 4.06751L18.2146 3.58287C18.5416 3.54825 18.7913 3.44945 18.9635 3.28646ZM4.25941 3.59152C4.01627 3.59152 3.79918 3.53022 3.60814 3.40762C3.4171 3.28502 3.26658 3.10616 3.15659 2.87106C3.0466 2.63595 2.9916 2.35685 2.9916 2.03375C2.9916 1.71066 3.0466 1.43156 3.15659 1.19645C3.26658 0.961345 3.4171 0.782491 3.60814 0.659889C3.79918 0.537286 4.01627 0.475985 4.25941 0.475985C4.50256 0.475985 4.72037 0.537286 4.91286 0.659889C5.10534 0.782491 5.25658 0.961345 5.36658 1.19645C5.47657 1.43156 5.53157 1.71066 5.53157 2.03375C5.53157 2.35685 5.47657 2.63595 5.36658 2.87106C5.25658 3.10616 5.10534 3.28502 4.91286 3.40762C4.72037 3.53022 4.50256 3.59152 4.25941 3.59152ZM7.48556 3.40762C7.6766 3.53022 7.89369 3.59152 8.13684 3.59152C8.37998 3.59152 8.59779 3.53022 8.79028 3.40762C8.98277 3.28502 9.13401 3.10616 9.244 2.87106C9.35399 2.63595 9.40899 2.35685 9.40899 2.03375C9.40899 1.71066 9.35399 1.43156 9.244 1.19645C9.13401 0.961345 8.98277 0.782491 8.79028 0.659889C8.59779 0.537286 8.37998 0.475985 8.13684 0.475985C7.89369 0.475985 7.6766 0.537286 7.48556 0.659889C7.29452 0.782491 7.14401 0.961345 7.03401 1.19645C6.92402 1.43156 6.86902 1.71066 6.86902 2.03375C6.86902 2.35685 6.92402 2.63595 7.03401 2.87106C7.14401 3.10616 7.29452 3.28502 7.48556 3.40762ZM10.4077 3.40762C10.5987 3.53022 10.8158 3.59152 11.059 3.59152C11.3021 3.59152 11.5199 3.53022 11.7124 3.40762C11.9049 3.28502 12.0561 3.10616 12.1661 2.87106C12.2761 2.63595 12.3311 2.35685 12.3311 2.03375C12.3311 1.71066 12.2761 1.43156 12.1661 1.19645C12.0561 0.961345 11.9049 0.782491 11.7124 0.659889C11.5199 0.537286 11.3021 0.475985 11.059 0.475985C10.8158 0.475985 10.5987 0.537286 10.4077 0.659889C10.2167 0.782491 10.0661 0.961345 9.95615 1.19645C9.84615 1.43156 9.79116 1.71066 9.79116 2.03375C9.79116 2.35685 9.84615 2.63595 9.95615 2.87106C10.0661 3.10616 10.2167 3.28502 10.4077 3.40762ZM13.3298 3.40762C13.5209 3.53022 13.738 3.59152 13.9811 3.59152C14.2242 3.59152 14.4421 3.53022 14.6345 3.40762C14.827 3.28502 14.9783 3.10616 15.0883 2.87106C15.1983 2.63595 15.2533 2.35685 15.2533 2.03375C15.2533 1.71066 15.1983 1.43156 15.0883 1.19645C14.9783 0.961345 14.827 0.782491 14.6345 0.659889C14.4421 0.537286 14.2242 0.475985 13.9811 0.475985C13.738 0.475985 13.5209 0.537286 13.3298 0.659889C13.1388 0.782491 12.9883 0.961345 12.8783 1.19645C12.7683 1.43156 12.7133 1.71066 12.7133 2.03375C12.7133 2.35685 12.7683 2.63595 12.8783 2.87106C12.9883 3.10616 13.1388 3.28502 13.3298 3.40762ZM2.75271 2.86024L2.21433 2.86024L2.21433 3.54825L1.66726 3.54825L1.66726 2.86024L0 2.86024L0 2.4708L1.49793 0.519257L2.10144 0.519257L0.690349 2.38425L1.68463 2.38425L1.68463 1.77413L2.21433 1.77413L2.21433 2.38425L2.75271 2.38425L2.75271 2.86024ZM17.42 1.35439C17.42 1.44959 17.4576 1.52604 17.5329 1.58373C17.6081 1.64143 17.7167 1.69047 17.8585 1.73085L17.8585 0.960625C17.7109 0.983703 17.6009 1.02986 17.5285 1.09909C17.4562 1.16833 17.42 1.25343 17.42 1.35439ZM4.77392 2.83428C4.64801 3.01313 4.47651 3.10256 4.25941 3.10256C4.04522 3.10256 3.87516 3.01313 3.74925 2.83428C3.62334 2.65542 3.56038 2.38858 3.56038 2.03375C3.56038 1.67893 3.62334 1.41209 3.74925 1.23323C3.87516 1.05438 4.04522 0.964952 4.25941 0.964952C4.47651 0.964952 4.64801 1.05438 4.77392 1.23323C4.89983 1.41209 4.96279 1.67893 4.96279 2.03375C4.96279 2.38858 4.89983 2.65542 4.77392 2.83428ZM8.13684 3.10256C8.35393 3.10256 8.52543 3.01313 8.65134 2.83428C8.77726 2.65542 8.84021 2.38858 8.84021 2.03375C8.84021 1.67893 8.77726 1.41209 8.65134 1.23323C8.52543 1.05438 8.35393 0.964952 8.13684 0.964952C7.92264 0.964952 7.75259 1.05438 7.62667 1.23323C7.50076 1.41209 7.4378 1.67893 7.4378 2.03375C7.4378 2.38858 7.50076 2.65542 7.62667 2.83428C7.75259 3.01313 7.92264 3.10256 8.13684 3.10256ZM11.059 3.10256C11.2761 3.10256 11.4476 3.01313 11.5735 2.83428C11.6994 2.65542 11.7623 2.38858 11.7623 2.03375C11.7623 1.67893 11.6994 1.41209 11.5735 1.23323C11.4476 1.05438 11.2761 0.964952 11.059 0.964952C10.8448 0.964952 10.6747 1.05438 10.5488 1.23323C10.4229 1.41209 10.3599 1.67893 10.3599 2.03375C10.3599 2.38858 10.4229 2.65542 10.5488 2.83428C10.6747 3.01313 10.8448 3.10256 11.059 3.10256ZM13.9811 3.10256C14.1982 3.10256 14.3697 3.01313 14.4956 2.83428C14.6215 2.65542 14.6845 2.38858 14.6845 2.03375C14.6845 1.67893 14.6215 1.41209 14.4956 1.23323C14.3697 1.05438 14.1982 0.964952 13.9811 0.964952C13.7669 0.964952 13.5969 1.05438 13.4709 1.23323C13.345 1.41209 13.2821 1.67893 13.2821 2.03375C13.2821 2.38858 13.345 2.65542 13.4709 2.83428C13.5969 3.01313 13.7669 3.10256 13.9811 3.10256ZM18.5554 2.97707C18.4816 3.04342 18.368 3.08813 18.2146 3.11121L18.2146 2.34531C18.3593 2.3857 18.4707 2.43546 18.5489 2.49459C18.627 2.55373 18.6661 2.63234 18.6661 2.73042C18.6661 2.82851 18.6292 2.91072 18.5554 2.97707ZM6.2003 3.57854C6.10188 3.57854 6.01794 3.54465 5.94847 3.47686C5.879 3.40906 5.84427 3.32324 5.84427 3.21939C5.84427 3.11265 5.87828 3.02611 5.9463 2.95976C6.01432 2.89341 6.09899 2.86024 6.2003 2.86024C6.30161 2.86024 6.38627 2.89341 6.45429 2.95976C6.52231 3.02611 6.55632 3.11265 6.55632 3.21939C6.55632 3.32324 6.52159 3.40906 6.45212 3.47686C6.38265 3.54465 6.29871 3.57854 6.2003 3.57854Z" transform="translate(8.107622 14.12089)" id="40.000-$" fill="#1D262C" fill-opacity="0.797014534" fill-rule="evenodd" stroke="none" />
          <path d="M18.6844 3.28646C18.8566 3.12347 18.9427 2.92515 18.9427 2.69148C18.9427 2.50397 18.8957 2.35324 18.8016 2.23929C18.7075 2.12534 18.5918 2.03952 18.4543 1.98183C18.3168 1.92413 18.1438 1.87077 17.9354 1.82172L17.9354 0.947643C18.1844 0.976491 18.4188 1.05438 18.6388 1.18131L18.8168 0.744268C18.701 0.669264 18.5657 0.608684 18.4109 0.562528C18.256 0.516371 18.0975 0.488967 17.9354 0.480312L17.9354 0L17.5794 0L17.5794 0.488967C17.2552 0.520699 17.0077 0.61878 16.8369 0.783212C16.6662 0.947644 16.5808 1.14669 16.5808 1.38036C16.5808 1.56787 16.6271 1.71859 16.7197 1.83254C16.8123 1.94649 16.9274 2.03303 17.0649 2.09217C17.2024 2.15131 17.3739 2.2054 17.5794 2.25444L17.5794 3.11987C17.4144 3.10544 17.2552 3.06866 17.1018 3.00952C16.9484 2.95039 16.8181 2.87755 16.711 2.791L16.5156 3.22804C16.6285 3.32613 16.7805 3.4069 16.9715 3.47036C17.1626 3.53383 17.3652 3.57277 17.5794 3.5872L17.5794 4.06751L17.9354 4.06751L17.9354 3.58287C18.2625 3.54825 18.5122 3.44945 18.6844 3.28646ZM3.98136 3.59152C3.73821 3.59152 3.52113 3.53022 3.33009 3.40762C3.13904 3.28502 2.98853 3.10616 2.87854 2.87106C2.76854 2.63595 2.71355 2.35685 2.71355 2.03375C2.71355 1.71066 2.76854 1.43156 2.87854 1.19645C2.98853 0.961345 3.13904 0.782491 3.33009 0.659889C3.52113 0.537286 3.73821 0.475985 3.98136 0.475985C4.2245 0.475985 4.44231 0.537286 4.6348 0.659889C4.82729 0.782491 4.97853 0.961345 5.08852 1.19645C5.19851 1.43156 5.25351 1.71066 5.25351 2.03375C5.25351 2.35685 5.19851 2.63595 5.08852 2.87106C4.97853 3.10616 4.82729 3.28502 4.6348 3.40762C4.44231 3.53022 4.2245 3.59152 3.98136 3.59152ZM7.20715 3.40762C7.39819 3.53022 7.61528 3.59152 7.85842 3.59152C8.10157 3.59152 8.31938 3.53022 8.51187 3.40762C8.70435 3.28502 8.85559 3.10616 8.96559 2.87106C9.07558 2.63595 9.13058 2.35685 9.13058 2.03375C9.13058 1.71066 9.07558 1.43156 8.96559 1.19645C8.85559 0.961345 8.70435 0.782491 8.51187 0.659889C8.31938 0.537286 8.10157 0.475985 7.85842 0.475985C7.61528 0.475985 7.39819 0.537286 7.20715 0.659889C7.01611 0.782491 6.86559 0.961345 6.7556 1.19645C6.64561 1.43156 6.59061 1.71066 6.59061 2.03375C6.59061 2.35685 6.64561 2.63595 6.7556 2.87106C6.86559 3.10616 7.01611 3.28502 7.20715 3.40762ZM10.1291 3.40762C10.3201 3.53022 10.5372 3.59152 10.7804 3.59152C11.0235 3.59152 11.2413 3.53022 11.4338 3.40762C11.6263 3.28502 11.7775 3.10616 11.8875 2.87106C11.9975 2.63595 12.0525 2.35685 12.0525 2.03375C12.0525 1.71066 11.9975 1.43156 11.8875 1.19645C11.7775 0.961345 11.6263 0.782491 11.4338 0.659889C11.2413 0.537286 11.0235 0.475985 10.7804 0.475985C10.5372 0.475985 10.3201 0.537286 10.1291 0.659889C9.93806 0.782491 9.78755 0.961345 9.67756 1.19645C9.56756 1.43156 9.51257 1.71066 9.51257 2.03375C9.51257 2.35685 9.56756 2.63595 9.67756 2.87106C9.78755 3.10616 9.93806 3.28502 10.1291 3.40762ZM13.0511 3.40762C13.2421 3.53022 13.4592 3.59152 13.7023 3.59152C13.9455 3.59152 14.1633 3.53022 14.3558 3.40762C14.5483 3.28502 14.6995 3.10616 14.8095 2.87106C14.9195 2.63595 14.9745 2.35685 14.9745 2.03375C14.9745 1.71066 14.9195 1.43156 14.8095 1.19645C14.6995 0.961345 14.5483 0.782491 14.3558 0.659889C14.1633 0.537286 13.9455 0.475985 13.7023 0.475985C13.4592 0.475985 13.2421 0.537286 13.0511 0.659889C12.86 0.782491 12.7095 0.961345 12.5995 1.19645C12.4895 1.43156 12.4345 1.71066 12.4345 2.03375C12.4345 2.35685 12.4895 2.63595 12.5995 2.87106C12.7095 3.10616 12.86 3.28502 13.0511 3.40762ZM1.48056 1.7698C1.76133 1.80442 1.97553 1.89961 2.12315 2.05539C2.27077 2.21117 2.34458 2.40589 2.34458 2.63955C2.34458 2.81553 2.29972 2.97563 2.20999 3.11987C2.12025 3.26411 1.98494 3.37877 1.80403 3.46387C1.62312 3.54897 1.40241 3.59152 1.1419 3.59152C0.924806 3.59152 0.715677 3.56051 0.514505 3.49849C0.313334 3.43647 0.141833 3.35065 0 3.24103L0.243142 2.80399C0.353135 2.8963 0.487007 2.96914 0.64476 3.02251C0.802514 3.07587 0.96533 3.10256 1.13321 3.10256C1.33294 3.10256 1.48997 3.06145 1.6043 2.97923C1.71864 2.89702 1.7758 2.78523 1.7758 2.64388C1.7758 2.50253 1.72153 2.39219 1.61299 2.31286C1.50444 2.23352 1.33873 2.19386 1.11585 2.19386L0.837971 2.19386L0.837971 1.80874L1.52832 0.990915L0.147622 0.990915L0.147622 0.519257L2.21867 0.519257L2.21867 0.895718L1.48056 1.7698ZM17.1409 1.35439C17.1409 1.44959 17.1785 1.52604 17.2538 1.58373C17.329 1.64143 17.4376 1.69047 17.5794 1.73085L17.5794 0.960625C17.4318 0.983703 17.3218 1.02986 17.2494 1.09909C17.1771 1.16833 17.1409 1.25343 17.1409 1.35439ZM4.49586 2.83428C4.36995 3.01313 4.19845 3.10256 3.98136 3.10256C3.76716 3.10256 3.59711 3.01313 3.47119 2.83428C3.34528 2.65542 3.28233 2.38858 3.28233 2.03375C3.28233 1.67893 3.34528 1.41209 3.47119 1.23323C3.59711 1.05438 3.76716 0.964952 3.98136 0.964952C4.19845 0.964952 4.36995 1.05438 4.49586 1.23323C4.62178 1.41209 4.68473 1.67893 4.68473 2.03375C4.68473 2.38858 4.62178 2.65542 4.49586 2.83428ZM7.85842 3.10256C8.07551 3.10256 8.24701 3.01313 8.37293 2.83428C8.49884 2.65542 8.5618 2.38858 8.5618 2.03375C8.5618 1.67893 8.49884 1.41209 8.37293 1.23323C8.24701 1.05438 8.07551 0.964952 7.85842 0.964952C7.64423 0.964952 7.47417 1.05438 7.34826 1.23323C7.22235 1.41209 7.15939 1.67893 7.15939 2.03375C7.15939 2.38858 7.22235 2.65542 7.34826 2.83428C7.47417 3.01313 7.64423 3.10256 7.85842 3.10256ZM10.7804 3.10256C10.9975 3.10256 11.169 3.01313 11.2949 2.83428C11.4208 2.65542 11.4838 2.38858 11.4838 2.03375C11.4838 1.67893 11.4208 1.41209 11.2949 1.23323C11.169 1.05438 10.9975 0.964952 10.7804 0.964952C10.5662 0.964952 10.3961 1.05438 10.2702 1.23323C10.1443 1.41209 10.0813 1.67893 10.0813 2.03375C10.0813 2.38858 10.1443 2.65542 10.2702 2.83428C10.3961 3.01313 10.5662 3.10256 10.7804 3.10256ZM13.7023 3.10256C13.9194 3.10256 14.0909 3.01313 14.2168 2.83428C14.3427 2.65542 14.4057 2.38858 14.4057 2.03375C14.4057 1.67893 14.3427 1.41209 14.2168 1.23323C14.0909 1.05438 13.9194 0.964952 13.7023 0.964952C13.4881 0.964952 13.3181 1.05438 13.1922 1.23323C13.0663 1.41209 13.0033 1.67893 13.0033 2.03375C13.0033 2.38858 13.0663 2.65542 13.1922 2.83428C13.3181 3.01313 13.4881 3.10256 13.7023 3.10256ZM18.2763 2.97707C18.2024 3.04342 18.0888 3.08813 17.9354 3.11121L17.9354 2.34531C18.0802 2.3857 18.1916 2.43546 18.2697 2.49459C18.3479 2.55373 18.387 2.63234 18.387 2.73042C18.387 2.82851 18.3501 2.91072 18.2763 2.97707ZM5.92206 3.57854C5.82365 3.57854 5.73971 3.54465 5.67024 3.47686C5.60077 3.40906 5.56603 3.32324 5.56603 3.21939C5.56603 3.11265 5.60004 3.02611 5.66806 2.95976C5.73609 2.89341 5.82075 2.86024 5.92206 2.86024C6.02337 2.86024 6.10804 2.89341 6.17606 2.95976C6.24408 3.02611 6.27809 3.11265 6.27809 3.21939C6.27809 3.32324 6.24336 3.40906 6.17389 3.47686C6.10442 3.54465 6.02048 3.57854 5.92206 3.57854Z" transform="translate(7.964342 30.34766)" id="30.000-$" fill="#1D262C" fill-opacity="0.797014534" fill-rule="evenodd" stroke="none" />
          <path d="M18.6422 3.28646C18.8144 3.12347 18.9006 2.92515 18.9006 2.69148C18.9006 2.50397 18.8535 2.35324 18.7595 2.23929C18.6654 2.12534 18.5496 2.03952 18.4121 1.98183C18.2746 1.92413 18.1017 1.87077 17.8933 1.82172L17.8933 0.947643C18.1422 0.976491 18.3766 1.05438 18.5966 1.18131L18.7746 0.744268C18.6589 0.669264 18.5235 0.608684 18.3687 0.562528C18.2138 0.516371 18.0554 0.488967 17.8933 0.480312L17.8933 0L17.5372 0L17.5372 0.488967C17.213 0.520699 16.9656 0.61878 16.7948 0.783212C16.624 0.947644 16.5386 1.14669 16.5386 1.38036C16.5386 1.56787 16.5849 1.71859 16.6775 1.83254C16.7702 1.94649 16.8852 2.03303 17.0227 2.09217C17.1602 2.15131 17.3317 2.2054 17.5372 2.25444L17.5372 3.11987C17.3722 3.10544 17.213 3.06866 17.0596 3.00952C16.9062 2.95039 16.776 2.87755 16.6689 2.791L16.4735 3.22804C16.5864 3.32613 16.7383 3.4069 16.9294 3.47036C17.1204 3.53383 17.323 3.57277 17.5372 3.5872L17.5372 4.06751L17.8933 4.06751L17.8933 3.58287C18.2203 3.54825 18.47 3.44945 18.6422 3.28646ZM2.35761 3.07227L2.35761 3.54825L0.117229 3.54825L0.117229 3.17179L1.32425 2.02943C1.4603 1.89961 1.5522 1.78639 1.59996 1.68975C1.64772 1.59311 1.6716 1.49719 1.6716 1.40199C1.6716 1.26064 1.62384 1.15246 1.52832 1.07746C1.4328 1.00245 1.29242 0.964952 1.10716 0.964952C0.797446 0.964952 0.560095 1.07024 0.395105 1.28083L0 0.977933C0.118677 0.819271 0.278599 0.695948 0.479771 0.607963C0.680943 0.519977 0.905992 0.475985 1.15492 0.475985C1.4849 0.475985 1.7483 0.553873 1.94513 0.709651C2.14196 0.865428 2.24038 1.07746 2.24038 1.34574C2.24038 1.51017 2.20564 1.66451 2.13617 1.80874C2.06671 1.95298 1.93356 2.11741 1.73673 2.30204L0.924807 3.07227L2.35761 3.07227ZM3.93812 3.59152C3.69498 3.59152 3.47789 3.53022 3.28685 3.40762C3.0958 3.28502 2.94529 3.10616 2.8353 2.87106C2.7253 2.63595 2.67031 2.35685 2.67031 2.03375C2.67031 1.71066 2.7253 1.43156 2.8353 1.19645C2.94529 0.961345 3.0958 0.782491 3.28685 0.659889C3.47789 0.537286 3.69498 0.475985 3.93812 0.475985C4.18126 0.475985 4.39907 0.537286 4.59156 0.659889C4.78405 0.782491 4.93529 0.961345 5.04528 1.19645C5.15528 1.43156 5.21027 1.71066 5.21027 2.03375C5.21027 2.35685 5.15528 2.63595 5.04528 2.87106C4.93529 3.10616 4.78405 3.28502 4.59156 3.40762C4.39907 3.53022 4.18126 3.59152 3.93812 3.59152ZM7.16427 3.40762C7.35531 3.53022 7.5724 3.59152 7.81554 3.59152C8.05868 3.59152 8.2765 3.53022 8.46898 3.40762C8.66147 3.28502 8.81271 3.10616 8.9227 2.87106C9.0327 2.63595 9.08769 2.35685 9.08769 2.03375C9.08769 1.71066 9.0327 1.43156 8.9227 1.19645C8.81271 0.961345 8.66147 0.782491 8.46898 0.659889C8.2765 0.537286 8.05868 0.475985 7.81554 0.475985C7.5724 0.475985 7.35531 0.537286 7.16427 0.659889C6.97323 0.782491 6.82271 0.961345 6.71272 1.19645C6.60273 1.43156 6.54773 1.71066 6.54773 2.03375C6.54773 2.35685 6.60273 2.63595 6.71272 2.87106C6.82271 3.10616 6.97323 3.28502 7.16427 3.40762ZM10.0864 3.40762C10.2774 3.53022 10.4945 3.59152 10.7377 3.59152C10.9808 3.59152 11.1986 3.53022 11.3911 3.40762C11.5836 3.28502 11.7348 3.10616 11.8448 2.87106C11.9548 2.63595 12.0098 2.35685 12.0098 2.03375C12.0098 1.71066 11.9548 1.43156 11.8448 1.19645C11.7348 0.961345 11.5836 0.782491 11.3911 0.659889C11.1986 0.537286 10.9808 0.475985 10.7377 0.475985C10.4945 0.475985 10.2774 0.537286 10.0864 0.659889C9.89536 0.782491 9.74485 0.961345 9.63485 1.19645C9.52486 1.43156 9.46986 1.71066 9.46986 2.03375C9.46986 2.35685 9.52486 2.63595 9.63485 2.87106C9.74485 3.10616 9.89536 3.28502 10.0864 3.40762ZM13.0085 3.40762C13.1996 3.53022 13.4167 3.59152 13.6598 3.59152C13.903 3.59152 14.1208 3.53022 14.3133 3.40762C14.5057 3.28502 14.657 3.10616 14.767 2.87106C14.877 2.63595 14.932 2.35685 14.932 2.03375C14.932 1.71066 14.877 1.43156 14.767 1.19645C14.657 0.961345 14.5057 0.782491 14.3133 0.659889C14.1208 0.537286 13.903 0.475985 13.6598 0.475985C13.4167 0.475985 13.1996 0.537286 13.0085 0.659889C12.8175 0.782491 12.667 0.961345 12.557 1.19645C12.447 1.43156 12.392 1.71066 12.392 2.03375C12.392 2.35685 12.447 2.63595 12.557 2.87106C12.667 3.10616 12.8175 3.28502 13.0085 3.40762ZM17.0987 1.35439C17.0987 1.44959 17.1363 1.52604 17.2116 1.58373C17.2869 1.64143 17.3954 1.69047 17.5372 1.73085L17.5372 0.960625C17.3896 0.983703 17.2796 1.02986 17.2073 1.09909C17.1349 1.16833 17.0987 1.25343 17.0987 1.35439ZM4.45262 2.83428C4.32671 3.01313 4.15521 3.10256 3.93812 3.10256C3.72392 3.10256 3.55387 3.01313 3.42795 2.83428C3.30204 2.65542 3.23909 2.38858 3.23909 2.03375C3.23909 1.67893 3.30204 1.41209 3.42795 1.23323C3.55387 1.05438 3.72392 0.964952 3.93812 0.964952C4.15521 0.964952 4.32671 1.05438 4.45262 1.23323C4.57854 1.41209 4.64149 1.67893 4.64149 2.03375C4.64149 2.38858 4.57854 2.65542 4.45262 2.83428ZM7.81554 3.10256C8.03263 3.10256 8.20413 3.01313 8.33005 2.83428C8.45596 2.65542 8.51892 2.38858 8.51892 2.03375C8.51892 1.67893 8.45596 1.41209 8.33005 1.23323C8.20413 1.05438 8.03263 0.964952 7.81554 0.964952C7.60134 0.964952 7.43129 1.05438 7.30538 1.23323C7.17946 1.41209 7.11651 1.67893 7.11651 2.03375C7.11651 2.38858 7.17946 2.65542 7.30538 2.83428C7.43129 3.01313 7.60134 3.10256 7.81554 3.10256ZM10.7377 3.10256C10.9548 3.10256 11.1263 3.01313 11.2522 2.83428C11.3781 2.65542 11.441 2.38858 11.441 2.03375C11.441 1.67893 11.3781 1.41209 11.2522 1.23323C11.1263 1.05438 10.9548 0.964952 10.7377 0.964952C10.5235 0.964952 10.3534 1.05438 10.2275 1.23323C10.1016 1.41209 10.0386 1.67893 10.0386 2.03375C10.0386 2.38858 10.1016 2.65542 10.2275 2.83428C10.3534 3.01313 10.5235 3.10256 10.7377 3.10256ZM13.6598 3.10256C13.8769 3.10256 14.0484 3.01313 14.1743 2.83428C14.3002 2.65542 14.3632 2.38858 14.3632 2.03375C14.3632 1.67893 14.3002 1.41209 14.1743 1.23323C14.0484 1.05438 13.8769 0.964952 13.6598 0.964952C13.4456 0.964952 13.2756 1.05438 13.1496 1.23323C13.0237 1.41209 12.9608 1.67893 12.9608 2.03375C12.9608 2.38858 13.0237 2.65542 13.1496 2.83428C13.2756 3.01313 13.4456 3.10256 13.6598 3.10256ZM18.2341 2.97707C18.1603 3.04342 18.0467 3.08813 17.8933 3.11121L17.8933 2.34531C18.038 2.3857 18.1494 2.43546 18.2276 2.49459C18.3057 2.55373 18.3448 2.63234 18.3448 2.73042C18.3448 2.82851 18.3079 2.91072 18.2341 2.97707ZM5.879 3.57854C5.78059 3.57854 5.69664 3.54465 5.62718 3.47686C5.55771 3.40906 5.52297 3.32324 5.52297 3.21939C5.52297 3.11265 5.55698 3.02611 5.625 2.95976C5.69303 2.89341 5.77769 2.86024 5.879 2.86024C5.98031 2.86024 6.06497 2.89341 6.133 2.95976C6.20102 3.02611 6.23503 3.11265 6.23503 3.21939C6.23503 3.32324 6.2003 3.40906 6.13083 3.47686C6.06136 3.54465 5.97742 3.57854 5.879 3.57854Z" transform="translate(7.994735 46.93502)" id="20.000-$" fill="#1D262C" fill-opacity="0.797014534" fill-rule="evenodd" stroke="none" />
          <path d="M17.7694 3.28646C17.9416 3.12347 18.0277 2.92515 18.0277 2.69148C18.0277 2.50397 17.9807 2.35324 17.8866 2.23929C17.7925 2.12534 17.6768 2.03952 17.5393 1.98183C17.4018 1.92413 17.2288 1.87077 17.0204 1.82172L17.0204 0.947643C17.2694 0.976491 17.5038 1.05438 17.7238 1.18131L17.9018 0.744268C17.786 0.669264 17.6507 0.608684 17.4958 0.562528C17.341 0.516371 17.1825 0.488967 17.0204 0.480312L17.0204 0L16.6644 0L16.6644 0.488967C16.3402 0.520699 16.0927 0.61878 15.9219 0.783212C15.7512 0.947644 15.6658 1.14669 15.6658 1.38036C15.6658 1.56787 15.7121 1.71859 15.8047 1.83254C15.8973 1.94649 16.0124 2.03303 16.1499 2.09217C16.2874 2.15131 16.4589 2.2054 16.6644 2.25444L16.6644 3.11987C16.4994 3.10544 16.3402 3.06866 16.1868 3.00952C16.0334 2.95039 15.9031 2.87755 15.796 2.791L15.6006 3.22804C15.7135 3.32613 15.8655 3.4069 16.0565 3.47036C16.2476 3.53383 16.4502 3.57277 16.6644 3.5872L16.6644 4.06751L17.0204 4.06751L17.0204 3.58287C17.3475 3.54825 17.5972 3.44945 17.7694 3.28646ZM3.07656 3.59152C2.83342 3.59152 2.61633 3.53022 2.42529 3.40762C2.23424 3.28502 2.08373 3.10616 1.97374 2.87106C1.86374 2.63595 1.80875 2.35685 1.80875 2.03375C1.80875 1.71066 1.86374 1.43156 1.97374 1.19645C2.08373 0.961345 2.23424 0.782491 2.42529 0.659889C2.61633 0.537286 2.83342 0.475985 3.07656 0.475985C3.3197 0.475985 3.53751 0.537286 3.73 0.659889C3.92249 0.782491 4.07373 0.961345 4.18372 1.19645C4.29372 1.43156 4.34871 1.71066 4.34871 2.03375C4.34871 2.35685 4.29372 2.63595 4.18372 2.87106C4.07373 3.10616 3.92249 3.28502 3.73 3.40762C3.53751 3.53022 3.3197 3.59152 3.07656 3.59152ZM6.29895 3.40762C6.48999 3.53022 6.70708 3.59152 6.95022 3.59152C7.19336 3.59152 7.41118 3.53022 7.60366 3.40762C7.79615 3.28502 7.94739 3.10616 8.05738 2.87106C8.16738 2.63595 8.22237 2.35685 8.22237 2.03375C8.22237 1.71066 8.16738 1.43156 8.05738 1.19645C7.94739 0.961345 7.79615 0.782491 7.60366 0.659889C7.41118 0.537286 7.19336 0.475985 6.95022 0.475985C6.70708 0.475985 6.48999 0.537286 6.29895 0.659889C6.10791 0.782491 5.95739 0.961345 5.8474 1.19645C5.73741 1.43156 5.68241 1.71066 5.68241 2.03375C5.68241 2.35685 5.73741 2.63595 5.8474 2.87106C5.95739 3.10616 6.10791 3.28502 6.29895 3.40762ZM9.2192 3.40762C9.41024 3.53022 9.62733 3.59152 9.87047 3.59152C10.1136 3.59152 10.3314 3.53022 10.5239 3.40762C10.7164 3.28502 10.8676 3.10616 10.9776 2.87106C11.0876 2.63595 11.1426 2.35685 11.1426 2.03375C11.1426 1.71066 11.0876 1.43156 10.9776 1.19645C10.8676 0.961345 10.7164 0.782491 10.5239 0.659889C10.3314 0.537286 10.1136 0.475985 9.87047 0.475985C9.62733 0.475985 9.41024 0.537286 9.2192 0.659889C9.02816 0.782491 8.87765 0.961345 8.76765 1.19645C8.65766 1.43156 8.60266 1.71066 8.60266 2.03375C8.60266 2.35685 8.65766 2.63595 8.76765 2.87106C8.87765 3.10616 9.02816 3.28502 9.2192 3.40762ZM12.1395 3.40762C12.3305 3.53022 12.5476 3.59152 12.7907 3.59152C13.0339 3.59152 13.2517 3.53022 13.4442 3.40762C13.6367 3.28502 13.7879 3.10616 13.8979 2.87106C14.0079 2.63595 14.0629 2.35685 14.0629 2.03375C14.0629 1.71066 14.0079 1.43156 13.8979 1.19645C13.7879 0.961345 13.6367 0.782491 13.4442 0.659889C13.2517 0.537286 13.0339 0.475985 12.7907 0.475985C12.5476 0.475985 12.3305 0.537286 12.1395 0.659889C11.9484 0.782491 11.7979 0.961345 11.6879 1.19645C11.5779 1.43156 11.5229 1.71066 11.5229 2.03375C11.5229 2.35685 11.5779 2.63595 11.6879 2.87106C11.7979 3.10616 11.9484 3.28502 12.1395 3.40762ZM1.20703 0.519257L1.20703 3.54825L0.642589 3.54825L0.642589 0.990915L0 0.990915L0 0.519257L1.20703 0.519257ZM16.2259 1.35439C16.2259 1.44959 16.2635 1.52604 16.3388 1.58373C16.414 1.64143 16.5226 1.69047 16.6644 1.73085L16.6644 0.960625C16.5168 0.983703 16.4068 1.02986 16.3344 1.09909C16.262 1.16833 16.2259 1.25343 16.2259 1.35439ZM3.59106 2.83428C3.46515 3.01313 3.29365 3.10256 3.07656 3.10256C2.86236 3.10256 2.69231 3.01313 2.56639 2.83428C2.44048 2.65542 2.37753 2.38858 2.37753 2.03375C2.37753 1.67893 2.44048 1.41209 2.56639 1.23323C2.69231 1.05438 2.86236 0.964952 3.07656 0.964952C3.29365 0.964952 3.46515 1.05438 3.59106 1.23323C3.71698 1.41209 3.77993 1.67893 3.77993 2.03375C3.77993 2.38858 3.71698 2.65542 3.59106 2.83428ZM6.95022 3.10256C7.16731 3.10256 7.33881 3.01313 7.46473 2.83428C7.59064 2.65542 7.6536 2.38858 7.6536 2.03375C7.6536 1.67893 7.59064 1.41209 7.46473 1.23323C7.33881 1.05438 7.16731 0.964952 6.95022 0.964952C6.73602 0.964952 6.56597 1.05438 6.44006 1.23323C6.31414 1.41209 6.25119 1.67893 6.25119 2.03375C6.25119 2.38858 6.31414 2.65542 6.44006 2.83428C6.56597 3.01313 6.73602 3.10256 6.95022 3.10256ZM9.87047 3.10256C10.0876 3.10256 10.2591 3.01313 10.385 2.83428C10.5109 2.65542 10.5738 2.38858 10.5738 2.03375C10.5738 1.67893 10.5109 1.41209 10.385 1.23323C10.2591 1.05438 10.0876 0.964952 9.87047 0.964952C9.65628 0.964952 9.48622 1.05438 9.36031 1.23323C9.2344 1.41209 9.17144 1.67893 9.17144 2.03375C9.17144 2.38858 9.2344 2.65542 9.36031 2.83428C9.48622 3.01313 9.65628 3.10256 9.87047 3.10256ZM12.7907 3.10256C13.0078 3.10256 13.1793 3.01313 13.3052 2.83428C13.4311 2.65542 13.4941 2.38858 13.4941 2.03375C13.4941 1.67893 13.4311 1.41209 13.3052 1.23323C13.1793 1.05438 13.0078 0.964952 12.7907 0.964952C12.5765 0.964952 12.4065 1.05438 12.2806 1.23323C12.1546 1.41209 12.0917 1.67893 12.0917 2.03375C12.0917 2.38858 12.1546 2.65542 12.2806 2.83428C12.4065 3.01313 12.5765 3.10256 12.7907 3.10256ZM17.3613 2.97707C17.2874 3.04342 17.1738 3.08813 17.0204 3.11121L17.0204 2.34531C17.1651 2.3857 17.2766 2.43546 17.3547 2.49459C17.4329 2.55373 17.472 2.63234 17.472 2.73042C17.472 2.82851 17.4351 2.91072 17.3613 2.97707ZM5.01556 3.57854C4.91715 3.57854 4.8332 3.54465 4.76374 3.47686C4.69427 3.40906 4.65953 3.32324 4.65953 3.21939C4.65953 3.11265 4.69354 3.02611 4.76156 2.95976C4.82959 2.89341 4.91425 2.86024 5.01556 2.86024C5.11687 2.86024 5.20153 2.89341 5.26956 2.95976C5.33758 3.02611 5.37159 3.11265 5.37159 3.21939C5.37159 3.32324 5.33686 3.40906 5.26739 3.47686C5.19792 3.54465 5.11398 3.57854 5.01556 3.57854Z" transform="translate(7.994735 62.44059)" id="10.000-$" fill="#1D262C" fill-opacity="0.797014534" fill-rule="evenodd" stroke="none" />
        </g>
        <path d="M0.458605 3.21344C0.645183 3.29626 0.849789 3.33767 1.07243 3.33767C1.46126 3.33767 1.75602 3.23688 1.95671 3.03531C2.1574 2.83373 2.25775 2.53138 2.25775 2.12823L2.25775 0L0.343365 0L0.343365 0.609405L1.50046 0.609405L1.50046 2.17042C1.50046 2.53294 1.34524 2.7142 1.0348 2.7142C0.805889 2.7142 0.602066 2.59388 0.423327 2.35324L0 2.85952C0.119159 3.01265 0.272026 3.13062 0.458605 3.21344ZM4.88237 1.00083C4.67228 0.814883 4.37125 0.721911 3.97928 0.721911C3.77545 0.721911 3.57712 0.748474 3.38427 0.801602C3.19142 0.85473 3.02601 0.929733 2.88803 1.02661L3.15144 1.53758C3.24237 1.4657 3.35291 1.40866 3.48304 1.36647C3.61318 1.32428 3.74566 1.30319 3.8805 1.30319C4.07492 1.30319 4.22073 1.34616 4.31794 1.4321C4.41515 1.51804 4.46375 1.64071 4.46375 1.80009L3.8805 1.80009C3.51048 1.80009 3.23689 1.86728 3.05972 2.00166C2.88254 2.13604 2.79396 2.32043 2.79396 2.55481C2.79396 2.7017 2.83159 2.83295 2.90685 2.94858C2.98211 3.06421 3.09107 3.15484 3.23375 3.22047C3.37643 3.2861 3.54497 3.31891 3.73939 3.31891C4.11568 3.31891 4.37281 3.20172 4.51079 2.96733L4.51079 3.28141L5.19752 3.28141L5.19752 1.84228C5.19752 1.46726 5.09247 1.18678 4.88237 1.00083ZM8.15846 1.00317C7.96561 0.815664 7.7124 0.721911 7.39882 0.721911C7.22635 0.721911 7.068 0.750818 6.92375 0.808634C6.77951 0.866449 6.65878 0.948484 6.56157 1.05474L6.56157 0.759413L5.86073 0.759413L5.86073 3.28141L6.5945 3.28141L6.5945 2.03448C6.5945 1.80946 6.64937 1.63993 6.75913 1.52586C6.86888 1.41179 7.01626 1.35475 7.20127 1.35475C7.36746 1.35475 7.49446 1.40398 7.58226 1.50242C7.67006 1.60086 7.71396 1.75009 7.71396 1.9501L7.71396 3.28141L8.44773 3.28141L8.44773 1.83759C8.44773 1.46882 8.35131 1.19068 8.15846 1.00317ZM3.92283 2.8267C4.04826 2.8267 4.15958 2.7978 4.25679 2.73998C4.354 2.68216 4.42299 2.597 4.46375 2.4845L4.46375 2.22667L3.96046 2.22667C3.65943 2.22667 3.50891 2.32511 3.50891 2.522C3.50891 2.61576 3.54576 2.68998 3.61945 2.74467C3.69314 2.79936 3.79427 2.8267 3.92283 2.8267Z" transform="translate(143.5666 91.91561)" id="Jan" fill="#232323" fill-rule="evenodd" stroke="none" />
        <path d="M1.07243 3.33767C0.849789 3.33767 0.645183 3.29626 0.458605 3.21344C0.272026 3.13062 0.119159 3.01265 0 2.85952L0.423327 2.35324C0.602066 2.59388 0.805889 2.7142 1.0348 2.7142C1.34524 2.7142 1.50046 2.53294 1.50046 2.17042L1.50046 0.609405L0.343365 0.609405L0.343365 0L2.25775 0L2.25775 2.12823C2.25775 2.53138 2.1574 2.83373 1.95671 3.03531C1.75602 3.23688 1.46126 3.33767 1.07243 3.33767ZM8.48771 1.00317C8.29486 0.815664 8.04165 0.721911 7.72807 0.721911C7.55561 0.721911 7.39725 0.750818 7.25301 0.808634C7.10876 0.866449 6.98804 0.948484 6.89083 1.05474L6.89083 0.759413L6.18999 0.759413L6.18999 3.28141L6.92375 3.28141L6.92375 2.03448C6.92375 1.80946 6.97863 1.63993 7.08838 1.52586C7.19813 1.41179 7.34551 1.35475 7.53052 1.35475C7.69672 1.35475 7.82371 1.40398 7.91152 1.50242C7.99932 1.60086 8.04322 1.75009 8.04322 1.9501L8.04322 3.28141L8.77699 3.28141L8.77699 1.83759C8.77699 1.46882 8.68056 1.19068 8.48771 1.00317ZM5.50796 0.759413L5.50796 3.28141L4.81182 3.28141L4.81182 2.9814C4.71461 3.09078 4.59859 3.17438 4.46375 3.23219C4.32891 3.29001 4.1831 3.31891 4.02631 3.31891C3.69392 3.31891 3.43052 3.2236 3.2361 3.03296C3.04168 2.84233 2.94448 2.5595 2.94448 2.18448L2.94448 0.759413L3.67824 0.759413L3.67824 2.07667C3.67824 2.48294 3.84914 2.68607 4.19094 2.68607C4.36654 2.68607 4.50765 2.62904 4.61427 2.51497C4.72088 2.4009 4.77419 2.23136 4.77419 2.00635L4.77419 0.759413L5.50796 0.759413Z" transform="translate(127.6466 91.91561)" id="Jun" fill="#232323" fill-rule="evenodd" stroke="none" />
        <path d="M0.585603 3.28844C0.828625 3.35876 1.08027 3.39392 1.34054 3.39392C1.64157 3.39392 1.89713 3.3486 2.10723 3.25797C2.31733 3.16734 2.4749 3.04468 2.57994 2.88999C2.68499 2.73529 2.73752 2.56419 2.73752 2.37668C2.73752 2.15792 2.68029 1.98447 2.56583 1.85634C2.45138 1.72821 2.31419 1.63446 2.15427 1.57508C1.99434 1.5157 1.78895 1.45632 1.53809 1.39694C1.29663 1.34382 1.11711 1.28991 0.999523 1.23522C0.881931 1.18053 0.823136 1.09693 0.823136 0.984424C0.823136 0.871918 0.874092 0.781289 0.976005 0.712535C1.07792 0.643782 1.23549 0.609405 1.44872 0.609405C1.75289 0.609405 2.05706 0.695346 2.36123 0.867231L2.59641 0.290639C2.44589 0.196884 2.27029 0.125006 2.0696 0.0750037C1.86891 0.025001 1.66352 0 1.45342 0C1.15239 0 0.897612 0.0453143 0.689083 0.135944C0.480554 0.226574 0.324551 0.349235 0.221071 0.503931C0.11759 0.658627 0.0658509 0.83129 0.0658509 1.02193C0.0658509 1.24069 0.123078 1.41569 0.237534 1.54695C0.351989 1.67821 0.489177 1.77353 0.649102 1.8329C0.809026 1.89228 1.01442 1.95166 1.26528 2.01104C1.42834 2.04854 1.55769 2.08292 1.65333 2.11417C1.74897 2.14542 1.82736 2.18683 1.88851 2.23839C1.94966 2.28996 1.98023 2.3548 1.98023 2.43293C1.98023 2.53919 1.92849 2.62435 1.82501 2.68841C1.72153 2.75248 1.56161 2.78451 1.34524 2.78451C1.15082 2.78451 0.956407 2.75326 0.761989 2.69076C0.567571 2.62825 0.39981 2.54544 0.2587 2.44231L0 3.01421C0.147381 3.12672 0.34258 3.21813 0.585603 3.28844ZM10.7878 3.33532C10.8928 3.30876 10.9814 3.26891 11.0535 3.21578L10.856 2.70013C10.7745 2.76264 10.6757 2.79389 10.5597 2.79389C10.4593 2.79389 10.3817 2.76498 10.3268 2.70717C10.272 2.64935 10.2445 2.56732 10.2445 2.46106L10.2445 1.43445L10.8748 1.43445L10.8748 0.871918L10.2445 0.871918L10.2445 0.257825L9.51075 0.257825L9.51075 0.871918L9.12035 0.871918L9.12035 1.43445L9.51075 1.43445L9.51075 2.47044C9.51075 2.76733 9.59307 2.99234 9.75769 3.14547C9.92232 3.2986 10.1551 3.37517 10.4562 3.37517C10.5722 3.37517 10.6827 3.36189 10.7878 3.33532ZM5.67259 2.28293C5.68199 2.16104 5.6867 2.09542 5.6867 2.08604C5.6867 1.82353 5.62947 1.59305 5.51501 1.3946C5.40056 1.19615 5.24299 1.0438 5.0423 0.937546C4.84161 0.831291 4.6174 0.778164 4.36968 0.778164C4.11568 0.778164 3.88599 0.833634 3.6806 0.944578C3.4752 1.05552 3.31371 1.21022 3.19612 1.40866C3.07853 1.60711 3.01973 1.82978 3.01973 2.07667C3.01973 2.32668 3.07931 2.55013 3.19847 2.74701C3.31763 2.9439 3.48696 3.09781 3.70647 3.20875C3.92597 3.3197 4.1784 3.37517 4.46375 3.37517C4.92157 3.37517 5.26964 3.23922 5.50796 2.96733L5.11756 2.54544C5.02975 2.62982 4.9349 2.69154 4.83299 2.7306C4.73107 2.76967 4.61427 2.7892 4.48257 2.7892C4.29128 2.7892 4.13136 2.74389 4.00279 2.65326C3.87423 2.56263 3.7927 2.43918 3.75821 2.28293L5.67259 2.28293ZM8.31368 0.93989C8.12083 0.832072 7.90681 0.778164 7.67163 0.778164C7.32356 0.778164 7.05859 0.887543 6.87672 1.1063L6.87672 0.815665L6.17587 0.815665L6.17587 4.24709L6.90964 4.24709L6.90964 3.07047C7.09465 3.2736 7.34865 3.37517 7.67163 3.37517C7.90681 3.37517 8.12083 3.32126 8.31368 3.21344C8.50653 3.10562 8.65783 2.95405 8.76758 2.75873C8.87733 2.56341 8.93221 2.33605 8.93221 2.07667C8.93221 1.81728 8.87733 1.58992 8.76758 1.3946C8.65783 1.19928 8.50653 1.04771 8.31368 0.93989ZM4.37438 1.33132C4.20819 1.33132 4.06865 1.37819 3.95576 1.47195C3.84287 1.5657 3.77388 1.69383 3.7488 1.85634L4.99526 1.85634C4.97018 1.69696 4.90119 1.56961 4.7883 1.47429C4.67541 1.37897 4.53744 1.33132 4.37438 1.33132ZM7.54463 2.77514C7.73278 2.77514 7.88721 2.71185 8.00794 2.58528C8.12867 2.45871 8.18903 2.28918 8.18903 2.07667C8.18903 1.86415 8.12867 1.69462 8.00794 1.56805C7.88721 1.44148 7.73278 1.37819 7.54463 1.37819C7.35649 1.37819 7.20205 1.44148 7.08132 1.56805C6.9606 1.69462 6.90023 1.86415 6.90023 2.07667C6.90023 2.28918 6.9606 2.45871 7.08132 2.58528C7.20205 2.71185 7.35649 2.77514 7.54463 2.77514Z" transform="translate(176.3372 91.85936)" id="Sept" fill="#232323" fill-rule="evenodd" stroke="none" />
        <path d="M2.60111 2.57825L1.07243 2.57825L0.780804 3.28141L0 3.28141L1.46753 0L2.22012 0L3.69235 3.28141L2.89274 3.28141L2.60111 2.57825ZM9.77886 0.759413L9.77886 2.85952C9.77886 3.32204 9.65813 3.66581 9.41668 3.89082C9.17523 4.11583 8.82246 4.22833 8.35836 4.22833C8.11377 4.22833 7.88173 4.19865 7.66222 4.13927C7.44272 4.07989 7.26085 3.99395 7.1166 3.88144L7.40823 3.35642C7.51484 3.44392 7.64968 3.51345 7.81274 3.56502C7.9758 3.61659 8.13886 3.64237 8.30192 3.64237C8.55592 3.64237 8.74328 3.58533 8.864 3.47127C8.98473 3.3572 9.04509 3.18453 9.04509 2.95327L9.04509 2.84545C8.85381 3.05484 8.58727 3.15953 8.24547 3.15953C8.01343 3.15953 7.80098 3.10875 7.60813 3.00718C7.41528 2.90561 7.26242 2.76264 7.14953 2.57825C7.03664 2.39387 6.9802 2.18136 6.9802 1.94072C6.9802 1.70008 7.03664 1.48757 7.14953 1.30319C7.26242 1.1188 7.41528 0.97583 7.60813 0.874262C7.80098 0.772694 8.01343 0.721911 8.24547 0.721911C8.61236 0.721911 8.89144 0.842228 9.08272 1.08287L9.08272 0.759413L9.77886 0.759413ZM2.36123 2.00166L1.83912 0.745349L1.31702 2.00166L2.36123 2.00166ZM6.48631 3.28141L6.48631 0.759413L5.75255 0.759413L5.75255 2.00635C5.75255 2.23136 5.69924 2.4009 5.59262 2.51497C5.48601 2.62904 5.3449 2.68607 5.1693 2.68607C4.8275 2.68607 4.6566 2.48294 4.6566 2.07667L4.6566 0.759413L3.92283 0.759413L3.92283 2.18448C3.92283 2.5595 4.02004 2.84233 4.21446 3.03296C4.40888 3.2236 4.67228 3.31891 5.00467 3.31891C5.16146 3.31891 5.30727 3.29001 5.44211 3.23219C5.57695 3.17438 5.69297 3.09078 5.79018 2.9814L5.79018 3.28141L6.48631 3.28141ZM8.86871 2.3884C8.74484 2.50247 8.58571 2.5595 8.39129 2.5595C8.19687 2.5595 8.03695 2.50247 7.91152 2.3884C7.78609 2.27433 7.72337 2.12511 7.72337 1.94072C7.72337 1.75634 7.78609 1.60711 7.91152 1.49304C8.03695 1.37897 8.19687 1.32194 8.39129 1.32194C8.58571 1.32194 8.74484 1.37897 8.86871 1.49304C8.99257 1.60711 9.0545 1.75634 9.0545 1.94072C9.0545 2.12511 8.99257 2.27433 8.86871 2.3884Z" transform="translate(160.2431 91.91561)" id="Aug" fill="#232323" fill-rule="evenodd" stroke="none" />
        <path d="M2.99151 1.31257L2.99622 3.28141L3.71117 3.28141L3.70176 0L3.07618 0L1.86264 2.03916L0.630287 0L0 0L0 3.28141L0.714953 3.28141L0.714953 1.35475L1.6792 2.93452L2.02256 2.93452L2.99151 1.31257ZM6.36402 1.00083C6.15392 0.814883 5.85289 0.721911 5.46092 0.721911C5.2571 0.721911 5.05876 0.748474 4.86591 0.801602C4.67306 0.85473 4.50765 0.929733 4.36968 1.02661L4.63308 1.53758C4.72402 1.4657 4.83455 1.40866 4.96469 1.36647C5.09482 1.32428 5.22731 1.30319 5.36215 1.30319C5.55656 1.30319 5.70237 1.34616 5.79958 1.4321C5.89679 1.51804 5.9454 1.64071 5.9454 1.80009L5.36215 1.80009C4.99212 1.80009 4.71853 1.86728 4.54136 2.00166C4.36419 2.13604 4.27561 2.32043 4.27561 2.55481C4.27561 2.7017 4.31323 2.83295 4.38849 2.94858C4.46375 3.06421 4.57272 3.15484 4.7154 3.22047C4.85807 3.2861 5.02662 3.31891 5.22104 3.31891C5.59733 3.31891 5.85446 3.20172 5.99243 2.96733L5.99243 3.28141L6.67916 3.28141L6.67916 1.84228C6.67916 1.46726 6.57412 1.18678 6.36402 1.00083ZM8.6641 3.43611L9.80708 0.759413L9.10154 0.759413L8.38658 2.47043L7.67633 0.759413L6.91905 0.759413L8.015 3.30016L8.00559 3.3236C7.95542 3.43611 7.89897 3.51658 7.83626 3.56502C7.77354 3.61346 7.69201 3.63768 7.59167 3.63768C7.51955 3.63768 7.44664 3.62362 7.37295 3.59549C7.29926 3.56736 7.23419 3.5283 7.17775 3.4783L6.90964 3.99864C6.99117 4.07051 7.09622 4.12677 7.22479 4.16739C7.35335 4.20802 7.48348 4.22833 7.61519 4.22833C7.85664 4.22833 8.06282 4.16896 8.23372 4.0502C8.40461 3.93144 8.54807 3.72675 8.6641 3.43611ZM5.40448 2.8267C5.52991 2.8267 5.64123 2.7978 5.73844 2.73998C5.83565 2.68216 5.90463 2.597 5.9454 2.4845L5.9454 2.22667L5.44211 2.22667C5.14107 2.22667 4.99056 2.32511 4.99056 2.522C4.99056 2.61576 5.0274 2.68998 5.10109 2.74467C5.17478 2.79936 5.27591 2.8267 5.40448 2.8267Z" transform="translate(111.4686 91.91561)" id="May" fill="#232323" fill-rule="evenodd" stroke="none" />
        <path d="M2.60111 2.57825L1.07243 2.57825L0.780804 3.28141L0 3.28141L1.46753 0L2.22012 0L3.69235 3.28141L2.89274 3.28141L2.60111 2.57825ZM6.12178 0.883638C5.92893 0.775819 5.71492 0.721911 5.47974 0.721911C5.13167 0.721911 4.8667 0.83129 4.68482 1.05005L4.68482 0.759413L3.98398 0.759413L3.98398 4.19083L4.71775 4.19083L4.71775 3.01421C4.90276 3.21735 5.15675 3.31891 5.47974 3.31891C5.71492 3.31891 5.92893 3.26501 6.12178 3.15719C6.31463 3.04937 6.46593 2.8978 6.57568 2.70248C6.68544 2.50715 6.74031 2.2798 6.74031 2.02041C6.74031 1.76102 6.68544 1.53367 6.57568 1.33835C6.46593 1.14302 6.31463 0.991456 6.12178 0.883638ZM8.28546 0.815665C8.13651 0.878169 8.01813 0.97036 7.93033 1.09224L7.93033 0.759413L7.22949 0.759413L7.22949 3.28141L7.96326 3.28141L7.96326 2.09073C7.96326 1.85634 8.02284 1.68055 8.14199 1.56336C8.26115 1.44616 8.42578 1.38757 8.63588 1.38757C8.6641 1.38757 8.71897 1.39069 8.8005 1.39694L8.8005 0.721911C8.60609 0.721911 8.4344 0.753162 8.28546 0.815665ZM2.36123 2.00166L1.83912 0.745349L1.31702 2.00166L2.36123 2.00166ZM5.35274 2.71888C5.54088 2.71888 5.69532 2.6556 5.81605 2.52903C5.93677 2.40246 5.99714 2.23292 5.99714 2.02041C5.99714 1.8079 5.93677 1.63836 5.81605 1.51179C5.69532 1.38522 5.54088 1.32194 5.35274 1.32194C5.16459 1.32194 5.01016 1.38522 4.88943 1.51179C4.7687 1.63836 4.70834 1.8079 4.70834 2.02041C4.70834 2.23292 4.7687 2.40246 4.88943 2.52903C5.01016 2.6556 5.16459 2.71888 5.35274 2.71888Z" transform="translate(96.2013 91.91561)" id="Apr" fill="#232323" fill-rule="evenodd" stroke="none" />
        <path d="M2.99622 3.28141L2.99151 1.31257L2.02256 2.93452L1.6792 2.93452L0.714953 1.35475L0.714953 3.28141L0 3.28141L0 0L0.630287 0L1.86264 2.03916L3.07618 0L3.70176 0L3.71117 3.28141L2.99622 3.28141ZM5.46092 0.721911C5.85289 0.721911 6.15392 0.814883 6.36402 1.00083C6.57412 1.18678 6.67916 1.46726 6.67916 1.84228L6.67916 3.28141L5.99243 3.28141L5.99243 2.96733C5.85446 3.20172 5.59733 3.31891 5.22104 3.31891C5.02662 3.31891 4.85807 3.2861 4.7154 3.22047C4.57272 3.15484 4.46375 3.06421 4.38849 2.94858C4.31323 2.83295 4.27561 2.7017 4.27561 2.55481C4.27561 2.32043 4.36419 2.13604 4.54136 2.00166C4.71853 1.86728 4.99212 1.80009 5.36215 1.80009L5.9454 1.80009C5.9454 1.64071 5.89679 1.51804 5.79958 1.4321C5.70237 1.34616 5.55656 1.30319 5.36215 1.30319C5.22731 1.30319 5.09482 1.32428 4.96469 1.36647C4.83455 1.40866 4.72402 1.4657 4.63308 1.53758L4.36968 1.02661C4.50765 0.929733 4.67306 0.85473 4.86591 0.801602C5.05876 0.748474 5.2571 0.721911 5.46092 0.721911ZM8.04322 1.09224C8.13102 0.97036 8.24939 0.878169 8.39834 0.815665C8.54729 0.753162 8.71897 0.721911 8.91339 0.721911L8.91339 1.39694C8.83186 1.39069 8.77699 1.38757 8.74876 1.38757C8.53867 1.38757 8.37404 1.44616 8.25488 1.56336C8.13572 1.68055 8.07614 1.85634 8.07614 2.09073L8.07614 3.28141L7.34238 3.28141L7.34238 0.759413L8.04322 0.759413L8.04322 1.09224ZM9.82355 3.1525C10.0383 3.26344 10.2806 3.31891 10.5503 3.31891C10.8168 3.31891 11.0496 3.26266 11.2487 3.15016C11.4479 3.03765 11.5929 2.88139 11.6838 2.68138L11.1147 2.37199C10.9861 2.60326 10.7964 2.71888 10.5456 2.71888C10.3543 2.71888 10.1959 2.65638 10.0705 2.53138C9.94506 2.40637 9.88234 2.23605 9.88234 2.02041C9.88234 1.80478 9.94506 1.63446 10.0705 1.50945C10.1959 1.38444 10.3543 1.32194 10.5456 1.32194C10.7933 1.32194 10.983 1.43757 11.1147 1.66883L11.6838 1.36413C11.5929 1.15787 11.4479 0.999269 11.2487 0.888325C11.0496 0.777382 10.8168 0.721911 10.5503 0.721911C10.2806 0.721911 10.0383 0.777382 9.82355 0.888325C9.60874 0.999269 9.44098 1.15318 9.32026 1.35007C9.19953 1.54695 9.13917 1.7704 9.13917 2.02041C9.13917 2.27043 9.19953 2.49387 9.32026 2.69076C9.44098 2.88764 9.60874 3.04156 9.82355 3.1525ZM5.73844 2.73998C5.64123 2.7978 5.52991 2.8267 5.40448 2.8267C5.27591 2.8267 5.17478 2.79936 5.10109 2.74467C5.0274 2.68998 4.99056 2.61576 4.99056 2.522C4.99056 2.32511 5.14107 2.22667 5.44211 2.22667L5.9454 2.22667L5.9454 2.4845C5.90463 2.597 5.83565 2.68216 5.73844 2.73998Z" transform="translate(78.18131 91.91561)" id="Marc" fill="#232323" fill-rule="evenodd" stroke="none" />
        <path d="M7.35178 0.918796C7.58697 0.918796 7.80098 0.972704 7.99383 1.08052C8.18668 1.18834 8.33798 1.33991 8.44773 1.53523C8.55748 1.73056 8.61236 1.95791 8.61236 2.2173C8.61236 2.47669 8.55748 2.70404 8.44773 2.89936C8.33798 3.09469 8.18668 3.24625 7.99383 3.35407C7.80098 3.46189 7.58697 3.5158 7.35178 3.5158C7.00371 3.5158 6.73874 3.40642 6.55687 3.18766L6.55687 3.4783L5.85603 3.4783L5.85603 0L6.58979 0L6.58979 1.2235C6.77481 1.02036 7.0288 0.918796 7.35178 0.918796ZM0.761989 0.80629L0.761989 1.67352L2.28597 1.67352L2.28597 2.28293L0.761989 2.28293L0.761989 3.4783L0 3.4783L0 0.196885L2.48822 0.196885L2.48822 0.80629L0.761989 0.80629ZM5.36685 2.22667C5.36685 2.23605 5.36215 2.30168 5.35274 2.42356L3.43836 2.42356C3.47285 2.57982 3.55438 2.70326 3.68295 2.79389C3.81151 2.88452 3.97144 2.92983 4.16272 2.92983C4.29442 2.92983 4.41123 2.9103 4.51314 2.87124C4.61505 2.83217 4.70991 2.77045 4.79771 2.68607L5.18811 3.10797C4.94979 3.37986 4.60173 3.5158 4.1439 3.5158C3.85855 3.5158 3.60612 3.46033 3.38662 3.34938C3.16711 3.23844 2.99778 3.08453 2.87863 2.88764C2.75947 2.69076 2.69989 2.46731 2.69989 2.2173C2.69989 1.97041 2.75868 1.74774 2.87627 1.5493C2.99387 1.35085 3.15535 1.19615 3.36075 1.08521C3.56614 0.974266 3.79583 0.918796 4.04983 0.918796C4.29756 0.918796 4.52176 0.971923 4.72245 1.07818C4.92314 1.18443 5.08071 1.33678 5.19517 1.53523C5.30962 1.73368 5.36685 1.96416 5.36685 2.22667ZM3.63591 1.61258C3.7488 1.51882 3.88834 1.47195 4.05453 1.47195C4.21759 1.47195 4.35557 1.51961 4.46845 1.61492C4.58134 1.71024 4.65033 1.83759 4.67541 1.99697L3.42895 1.99697C3.45404 1.83447 3.52302 1.70634 3.63591 1.61258ZM7.68809 2.72592C7.56737 2.85249 7.41293 2.91577 7.22479 2.91577C7.03664 2.91577 6.8822 2.85249 6.76148 2.72592C6.64075 2.59935 6.58039 2.42981 6.58039 2.2173C6.58039 2.00479 6.64075 1.83525 6.76148 1.70868C6.8822 1.58211 7.03664 1.51883 7.22479 1.51883C7.41293 1.51883 7.56737 1.58211 7.68809 1.70868C7.80882 1.83525 7.86918 2.00479 7.86918 2.2173C7.86918 2.42981 7.80882 2.59935 7.68809 2.72592Z" transform="translate(62.62313 91.71873)" id="Feb" fill="#232323" fill-rule="evenodd" stroke="none" />
        <path d="M0.458605 3.21344C0.645183 3.29626 0.849789 3.33767 1.07243 3.33767C1.46126 3.33767 1.75602 3.23688 1.95671 3.03531C2.1574 2.83373 2.25775 2.53138 2.25775 2.12823L2.25775 0L0.343365 0L0.343365 0.609405L1.50046 0.609405L1.50046 2.17042C1.50046 2.53294 1.34524 2.7142 1.0348 2.7142C0.805889 2.7142 0.602066 2.59388 0.423327 2.35324L0 2.85952C0.119159 3.01265 0.272026 3.13062 0.458605 3.21344ZM4.88237 1.00083C4.67228 0.814883 4.37125 0.721911 3.97928 0.721911C3.77545 0.721911 3.57712 0.748474 3.38427 0.801602C3.19142 0.85473 3.02601 0.929733 2.88803 1.02661L3.15144 1.53758C3.24237 1.4657 3.35291 1.40866 3.48304 1.36647C3.61318 1.32428 3.74566 1.30319 3.8805 1.30319C4.07492 1.30319 4.22073 1.34616 4.31794 1.4321C4.41515 1.51804 4.46375 1.64071 4.46375 1.80009L3.8805 1.80009C3.51048 1.80009 3.23689 1.86728 3.05972 2.00166C2.88254 2.13604 2.79396 2.32043 2.79396 2.55481C2.79396 2.7017 2.83159 2.83295 2.90685 2.94858C2.98211 3.06421 3.09107 3.15484 3.23375 3.22047C3.37643 3.2861 3.54497 3.31891 3.73939 3.31891C4.11568 3.31891 4.37281 3.20172 4.51079 2.96733L4.51079 3.28141L5.19752 3.28141L5.19752 1.84228C5.19752 1.46726 5.09247 1.18678 4.88237 1.00083ZM8.15846 1.00317C7.96561 0.815664 7.7124 0.721911 7.39882 0.721911C7.22635 0.721911 7.068 0.750818 6.92375 0.808634C6.77951 0.866449 6.65878 0.948484 6.56157 1.05474L6.56157 0.759413L5.86073 0.759413L5.86073 3.28141L6.5945 3.28141L6.5945 2.03448C6.5945 1.80946 6.64937 1.63993 6.75913 1.52586C6.86888 1.41179 7.01626 1.35475 7.20127 1.35475C7.36746 1.35475 7.49446 1.40398 7.58226 1.50242C7.67006 1.60086 7.71396 1.75009 7.71396 1.9501L7.71396 3.28141L8.44773 3.28141L8.44773 1.83759C8.44773 1.46882 8.35131 1.19068 8.15846 1.00317ZM3.92283 2.8267C4.04826 2.8267 4.15958 2.7978 4.25679 2.73998C4.354 2.68216 4.42299 2.597 4.46375 2.4845L4.46375 2.22667L3.96046 2.22667C3.65943 2.22667 3.50891 2.32511 3.50891 2.522C3.50891 2.61576 3.54576 2.68998 3.61945 2.74467C3.69314 2.79936 3.79427 2.8267 3.92283 2.8267Z" transform="translate(42.98111 91.91561)" id="Jan" fill="#232323" fill-rule="evenodd" stroke="none" />
      </g>
    </g>
    <g id="plan_analytics" transform="translate(220 133)">
      <g id="Group-43" transform="matrix(-1 0 0 1 39 0)">
        <path d="M1.31491 31.1312C1.12584 30.6702 -3.21905 19.6121 5.00234 0L6.08257 0.487255C-1.9166 19.5689 2.35509 30.5456 2.39908 30.6545L1.31491 31.1312" transform="translate(17.88991 30.76923)" id="Fill-316" fill="url(#gradient_3)" stroke="none" />
        <path d="M11.7874 0C11.7874 0 12.9602 9.19886 13.2172 15.7261C13.7088 28.211 5.58153 30.8108 2.11156 32.9412C-2.5165 23.8262 1.25972 15.5778 5.80189 9.1917C10.3434 2.8059 11.2705 2.36592 11.7874 0" transform="translate(18.6055 5.791855)" id="Fill-317" fill="url(#gradient_4)" stroke="none" />
        <path d="M11.0252 15.7261C10.5546 9.19102 9.60579 0 9.60579 0C9.62033 4.94348 6.57934 21.207 0.968609 31.2017C0.690353 31.6993 0.250166 32.4368 0 32.9412C3.8014 31.0752 11.9072 27.9585 11.0252 15.7261" transform="translate(20.75229 5.791855)" id="Fill-318" fill="url(#gradient_3)" stroke="none" />
        <path d="M7.0887 27.8733L5.87453 27.8014C5.88504 27.6217 6.85537 9.7724 0 0.735007L0.969987 0C8.09803 9.39744 7.13347 27.1234 7.0887 27.8733" transform="translate(11.44954 31.13122)" id="Fill-324" fill="url(#gradient_3)" stroke="none" />
        <path d="M0 0C0 0 8.10567 8.51693 13.3433 15.0368C23.3613 27.5082 18.0904 36.9196 16.6227 41.991C5.49209 36.4207 2.53986 24.7853 1.70098 14.4373C0.862105 4.08925 1.35291 2.86829 0 0" id="Fill-325" fill="url(#gradient_3)" stroke="none" />
        <path d="M13.4199 15.0368C7.95009 8.68906 0 0 0 0C3.82777 5.08675 13.6223 24.399 16.254 39.3885C16.3853 40.1345 16.556 41.2614 16.7182 41.991C18.7218 36.8946 23.6563 26.9186 13.4199 15.0368" id="Fill-326" fill="url(#gradient_4)" stroke="none" />
        <path d="M23.9725 0C23.9725 0 13.6751 1.44935 8.15232 4.84191C-2.41213 11.3307 -0.728101 22.0376 2.28134 26.4253C12.3994 25.3076 12.3855 18.0327 15.088 10.6498C17.7908 3.26664 21.6465 1.28405 23.9725 0" transform="translate(14.66972 34.38914)" id="Fill-334" fill="url(#gradient_4)" stroke="none" />
        <path d="M12.5741 10.6631C9.89144 17.9937 9.87657 25.2128 0.00281691 26.4253C-0.106031 22.8919 2.94544 18.5803 8.14717 10.7668C10.6199 7.05256 15.941 3.19221 21.0663 0.0608331C21.3232 0.0210707 21.4679 0 21.4679 0C19.1395 1.28565 15.2798 3.27071 12.5741 10.6631" transform="translate(17.53211 34.38914)" id="Fill-335" fill="url(#gradient_3)" stroke="none" />
      </g>
      <path d="M0 0L19.6789 0L18.4332 11.171Q18.4113 11.367 18.3806 11.5617Q18.35 11.7564 18.3105 11.9494Q18.271 12.1423 18.2229 12.3332Q18.1748 12.5241 18.118 12.7125Q18.0613 12.9009 17.9961 13.0864Q17.9309 13.2719 17.8574 13.4541Q17.7838 13.6364 17.7021 13.815Q17.6203 13.9936 17.5306 14.1682Q17.4408 14.3428 17.3433 14.5131Q17.2457 14.6834 17.1404 14.8489Q17.0352 15.0145 16.9225 15.1751Q16.8099 15.3356 16.69 15.4908Q16.5702 15.6459 16.4433 15.7954Q16.3165 15.9449 16.183 16.0884Q16.0495 16.2319 15.9096 16.3692Q15.7697 16.5064 15.6236 16.6371Q15.4776 16.7678 15.3257 16.8916Q15.1738 17.0155 15.0164 17.1322Q14.859 17.249 14.6963 17.3585Q14.5337 17.4679 14.3662 17.5698Q14.1987 17.6718 14.0267 17.7659Q13.8546 17.8601 13.6784 17.9464Q13.5022 18.0326 13.3222 18.1107Q13.1421 18.1888 12.9586 18.2587Q12.7751 18.3285 12.5886 18.39Q12.402 18.4514 12.2127 18.5043Q12.0234 18.5572 11.8319 18.6014Q11.6403 18.6457 11.4468 18.6812Q11.2533 18.7167 11.0582 18.7433Q10.8632 18.77 10.667 18.7879Q10.4708 18.8057 10.2739 18.8146Q10.077 18.8235 9.87982 18.8235L9.79908 18.8235Q9.60186 18.8235 9.40496 18.8146Q9.20806 18.8057 9.01189 18.7879Q8.81572 18.77 8.62069 18.7433Q8.42565 18.7167 8.23214 18.6812Q8.03863 18.6457 7.84704 18.6014Q7.65546 18.5572 7.46618 18.5043Q7.27691 18.4514 7.09034 18.39Q6.90376 18.3285 6.72027 18.2587Q6.53678 18.1888 6.35674 18.1107Q6.1767 18.0326 6.00049 17.9464Q5.82427 17.8601 5.65224 17.7659Q5.48021 17.6718 5.3127 17.5698Q5.1452 17.4679 4.98258 17.3585Q4.81995 17.249 4.66253 17.1322Q4.50511 17.0155 4.35321 16.8916Q4.20132 16.7678 4.05526 16.6371Q3.90921 16.5064 3.76929 16.3692Q3.62937 16.2319 3.49586 16.0884Q3.36236 15.9449 3.23556 15.7954Q3.10875 15.6459 2.98889 15.4908Q2.86904 15.3356 2.75637 15.1751Q2.64371 15.0145 2.53848 14.8489Q2.43325 14.6834 2.33565 14.5131Q2.23806 14.3428 2.1483 14.1682Q2.05855 13.9936 1.97682 13.815Q1.89509 13.6364 1.82155 13.4541Q1.748 13.2719 1.6828 13.0864Q1.6176 12.9009 1.56087 12.7125Q1.50414 12.5241 1.456 12.3332Q1.40786 12.1423 1.3684 11.9494Q1.32895 11.7564 1.29826 11.5617Q1.26757 11.367 1.24572 11.171L0 0Z" transform="translate(9.66055 61.17647)" id="planter" fill="url(#gradient_5)" stroke="none" />
    </g>
    <path d="M64.6389 28.7537L76.5555 28.7537L76.5555 99L64.6389 99L64.6389 28.7537ZM80.5278 32.3934L92.4444 32.3934L92.4444 99L80.5278 99L80.5278 32.3934ZM96.7778 36.0331L108.694 36.0331L108.694 99L96.7778 99L96.7778 36.0331ZM113.028 16.3787L124.944 16.3787L124.944 99L113.028 99L113.028 94.5056L113.028 16.3787ZM130.722 27.2978L143 27.2978L143 90.6287L130.722 90.6287L130.722 27.2978ZM0 0L11.9167 0L11.9167 98.2721L0 98.2721L0 0ZM15.5278 6.91544L27.4444 6.91544L27.4444 97.9081L15.5278 97.9081L15.5278 6.91544ZM32.1389 27.2978L44.0556 27.2978L44.0556 98.2721L32.1389 98.2721L32.1389 27.2978ZM48.3889 20.7463L60.3056 20.7463L60.3056 98.2721L48.3889 98.2721L48.3889 20.7463Z" transform="matrix(-1 0 0 1 204 62)" id="Combined-Shape" fill="url(#gradient_6)" stroke="none" />
  </g>
</svg>