<?xml version="1.0" encoding="utf-8"?>
<svg width="260px" height="80px" viewBox="0 0 260 80" version="1.1" xmlns:xlink="http://www.w3.org/1999/xlink" xmlns="http://www.w3.org/2000/svg">
  <desc>Created with Lunacy</desc>
  <defs>
    <linearGradient x1="0.956316" y1="0.253125" x2="0.3959067" y2="1.90213072" id="gradient_1">
      <stop offset="0" stop-color="#61F3AC" />
      <stop offset="1" stop-color="#029AC0" />
    </linearGradient>
    <filter filterUnits="userSpaceOnUse" color-interpolation-filters="sRGB" id="filter_1">
      <feFlood flood-opacity="0" result="BackgroundImageFix" />
      <feColorMatrix in="SourceAlpha" type="matrix" values="0 0 0 0 0 0 0 0 0 0 0 0 0 0 0 0 0 0 127 0" />
      <feOffset dx="0" dy="2" />
      <feGaussianBlur stdDeviation="5" />
      <feColorMatrix type="matrix" values="0 0 0 0 0 0 0 0 0 0 0 0 0 0 0 0 0 0 0.2039216 0" />
      <feBlend mode="normal" in2="BackgroundImageFix" result="effect0_dropShadow" />
      <feBlend mode="normal" in="SourceGraphic" in2="effect0_dropShadow" result="shape" />
    </filter>
  </defs>
  <g id="выбр-конпка">
    <g filter="url(#filter_1)">
      <path d="M6 0L254 0Q254.154 0 254.306 0.0069945Q254.459 0.013989 254.61 0.0279637Q254.762 0.0419385 254.911 0.0628649Q255.061 0.0837914 255.209 0.111627Q255.356 0.139462 255.502 0.17415Q255.647 0.208838 255.79 0.250307Q255.933 0.291776 256.073 0.339942Q256.213 0.388108 256.35 0.442873Q256.487 0.497638 256.62 0.558889Q256.754 0.620141 256.884 0.687755Q257.014 0.755368 257.139 0.829206Q257.265 0.903043 257.387 0.982954Q257.509 1.06287 257.626 1.14869Q257.743 1.23451 257.856 1.32606Q257.968 1.41762 258.076 1.51473Q258.183 1.61183 258.286 1.71429Q258.388 1.81674 258.485 1.92434Q258.582 2.03193 258.674 2.14445Q258.766 2.25697 258.851 2.37418Q258.937 2.49139 259.017 2.61306Q259.097 2.73472 259.171 2.86059Q259.245 2.98646 259.312 3.11628Q259.38 3.2461 259.441 3.3796Q259.502 3.5131 259.557 3.65001Q259.612 3.78692 259.66 3.92696Q259.708 4.06701 259.75 4.2099Q259.791 4.35279 259.826 4.49823Q259.861 4.64367 259.888 4.79138Q259.916 4.93908 259.937 5.08874Q259.958 5.23839 259.972 5.3897Q259.986 5.54101 259.993 5.69367Q260 5.84632 260 6L260 74Q260 74.1537 259.993 74.3063Q259.986 74.459 259.972 74.6103Q259.958 74.7616 259.937 74.9113Q259.916 75.0609 259.888 75.2086Q259.861 75.3563 259.826 75.5018Q259.791 75.6472 259.75 75.7901Q259.708 75.933 259.66 76.0731Q259.612 76.2131 259.557 76.35Q259.502 76.4869 259.441 76.6204Q259.38 76.7539 259.312 76.8837Q259.245 77.0136 259.171 77.1394Q259.097 77.2653 259.017 77.387Q258.937 77.5086 258.851 77.6258Q258.766 77.743 258.674 77.8556Q258.582 77.9681 258.485 78.0757Q258.388 78.1833 258.286 78.2857Q258.183 78.3882 258.076 78.4853Q257.968 78.5824 257.856 78.674Q257.743 78.7655 257.626 78.8513Q257.509 78.9371 257.387 79.0171Q257.265 79.097 257.139 79.1708Q257.014 79.2446 256.884 79.3123Q256.754 79.3799 256.62 79.4411Q256.487 79.5024 256.35 79.5571Q256.213 79.6119 256.073 79.6601Q255.933 79.7082 255.79 79.7497Q255.647 79.7912 255.502 79.8259Q255.356 79.8605 255.209 79.8884Q255.061 79.9162 254.911 79.9371Q254.762 79.9581 254.61 79.972Q254.459 79.986 254.306 79.993Q254.154 80 254 80L6 80Q5.84632 80 5.69367 79.993Q5.54101 79.986 5.3897 79.972Q5.23839 79.9581 5.08874 79.9371Q4.93908 79.9162 4.79138 79.8884Q4.64367 79.8605 4.49823 79.8259Q4.35279 79.7912 4.2099 79.7497Q4.06701 79.7082 3.92696 79.6601Q3.78692 79.6119 3.65001 79.5571Q3.5131 79.5024 3.3796 79.4411Q3.2461 79.3799 3.11628 79.3123Q2.98646 79.2447 2.86059 79.1708Q2.73472 79.097 2.61306 79.0171Q2.49139 78.9372 2.37418 78.8513Q2.25697 78.7655 2.14445 78.674Q2.03193 78.5824 1.92434 78.4853Q1.81674 78.3882 1.71429 78.2857Q1.61183 78.1833 1.51473 78.0757Q1.41762 77.9681 1.32606 77.8556Q1.23451 77.743 1.14869 77.6258Q1.06287 77.5086 0.982954 77.387Q0.903043 77.2653 0.829206 77.1394Q0.755368 77.0136 0.687755 76.8837Q0.620141 76.7539 0.558889 76.6204Q0.497638 76.4869 0.442873 76.35Q0.388108 76.2131 0.339942 76.0731Q0.291776 75.933 0.250307 75.7901Q0.208838 75.6472 0.17415 75.5018Q0.139462 75.3563 0.111627 75.2086Q0.0837914 75.0609 0.0628649 74.9113Q0.0419385 74.7616 0.0279637 74.6103Q0.013989 74.459 0.0069945 74.3063Q0 74.1537 0 74L0 6Q0 5.84632 0.0069945 5.69367Q0.013989 5.54101 0.0279637 5.3897Q0.0419385 5.23839 0.0628649 5.08874Q0.0837914 4.93908 0.111627 4.79138Q0.139462 4.64367 0.17415 4.49823Q0.208838 4.35279 0.250307 4.2099Q0.291776 4.06701 0.339942 3.92696Q0.388108 3.78692 0.442873 3.65001Q0.497638 3.5131 0.558889 3.3796Q0.620141 3.2461 0.687755 3.11628Q0.755368 2.98646 0.829206 2.86059Q0.903043 2.73472 0.982954 2.61306Q1.06287 2.49139 1.14869 2.37418Q1.23451 2.25697 1.32606 2.14445Q1.41762 2.03193 1.51473 1.92434Q1.61183 1.81674 1.71429 1.71429Q1.81674 1.61183 1.92434 1.51473Q2.03193 1.41762 2.14445 1.32606Q2.25697 1.23451 2.37418 1.14869Q2.49139 1.06287 2.61306 0.982954Q2.73472 0.903043 2.86059 0.829206Q2.98646 0.755368 3.11628 0.687755Q3.2461 0.620141 3.3796 0.558889Q3.5131 0.497638 3.65001 0.442873Q3.78692 0.388108 3.92696 0.339942Q4.06701 0.291776 4.2099 0.250307Q4.35279 0.208838 4.49823 0.17415Q4.64367 0.139462 4.79138 0.111627Q4.93908 0.0837914 5.08874 0.0628649Q5.23839 0.0419385 5.3897 0.0279637Q5.54101 0.013989 5.69367 0.0069945Q5.84632 0 6 0Z" id="Rectangle" fill="url(#gradient_1)" stroke="none" />
    </g>
    <g id="BigCommerce-logo-dark" transform="translate(35 18)">
      <path d="M58.1813 23.614C56.9962 21.9945 55.0607 20.6909 52.1771 20.6909C47.6345 20.6909 43.8819 23.8115 43.8424 28.7096C43.8424 33.5683 47.5555 36.7283 52.1376 36.7283C54.5867 36.7283 56.6012 35.8198 58.1418 34.3978L58.1418 42.2585C58.1418 42.535 57.9443 42.7325 57.6677 42.7325L0.470238 42.7325C-0.00377452 42.7325 -0.161779 42.1795 0.193731 41.8635L21.4058 26.3396L21.4058 36.1358C21.4058 36.3333 21.5638 36.4518 21.7218 36.4518L29.8195 36.4518C32.7821 36.4518 34.3226 34.5953 34.3226 32.2252C34.3226 30.5662 33.3746 29.1836 32.0711 28.6306C31.8736 28.5516 31.8736 28.2751 32.0711 28.1961C33.2166 27.6826 34.0461 26.4976 34.0461 24.878C34.0461 22.824 32.5451 20.9279 29.5825 20.9279L28.832 20.9279L57.3122 0.110877C57.6677 -0.165631 58.1813 0.110877 58.1813 0.545388L58.1813 23.614ZM40.5638 36.4518C40.7218 36.4518 40.8403 36.3333 40.8403 36.1753L40.8403 21.2044C40.8403 21.0464 40.7218 20.9279 40.5638 20.9279L37.8382 20.9279C37.6802 20.9279 37.5617 21.0464 37.5617 21.2044L37.5617 36.1753C37.5617 36.3333 37.6802 36.4518 37.8382 36.4518L40.5638 36.4518Z" transform="translate(0.003774524 0.04712751)" id="Shape" fill="#FFFFFF" fill-rule="evenodd" stroke="none" />
      <path d="M0.316008 3.23909L4.14761 3.23909C5.25364 3.23909 5.96466 2.60707 5.96466 1.61954C5.96466 0.671518 5.25364 0 4.14761 0L0.158004 0C0.0790021 0 0 0.0790021 0 0.158004L0 2.96258C0 3.12058 0.158004 3.23909 0.316008 3.23909Z" transform="translate(24.72765 23.89813)" id="Path" fill="#FFFFFF" stroke="none" />
      <path d="M0.316008 3.55509L4.30561 3.55509C5.53014 3.55509 6.28066 2.88357 6.28066 1.77755C6.28066 0.79002 5.56965 0 4.30561 0L0.316008 0C0.158004 0 0 0.118503 0 0.316008L0 3.23908C0 3.39709 0.158004 3.55509 0.316008 3.55509Z" transform="translate(24.72765 30.06029)" id="Path" fill="#FFFFFF" stroke="none" />
      <path d="M8.41372 1.77755C7.6632 0.790021 6.39917 0 4.89813 0C2.05405 0 0 2.17256 0 5.09563C0 8.01871 2.05405 10.1913 4.89813 10.1913C6.20166 10.1913 7.4262 9.63825 8.09771 9.08524C8.13721 9.04574 8.17671 8.96673 8.17671 8.88773L8.17671 7.38669C8.17671 7.26819 8.05821 7.14969 7.93971 7.14969L4.42412 7.14969C4.22661 7.14969 4.10811 6.99168 4.10811 6.83368L4.10811 4.62162C4.10811 4.42412 4.26611 4.30561 4.42412 4.30561L10.9418 4.30561L10.9418 0.790021L8.84823 1.93555C8.69023 1.97505 8.49272 1.89605 8.41372 1.77755Z" transform="translate(47.28275 23.66112)" id="Path" fill="#FFFFFF" stroke="none" />
      <path d="M0 8.01871C0 3.23909 3.43659 0 7.86071 0C10.7443 0 12.6008 1.46154 13.7069 3.23909C13.7859 3.35759 13.7464 3.55509 13.5884 3.5946L11.8108 4.54262C11.6923 4.62162 11.5343 4.58212 11.4948 4.46362C10.7443 3.27859 9.36175 2.40956 7.86071 2.40956C4.89813 2.40956 2.68607 4.74013 2.68607 8.01871C2.68607 11.2578 4.89813 13.6279 7.86071 13.6279C9.36175 13.6279 10.7443 12.7588 11.4948 11.5738C11.5738 11.4553 11.6923 11.4158 11.8108 11.4948L13.5884 12.4033C13.7464 12.4823 13.7859 12.6403 13.7069 12.7983C12.5613 14.5759 10.7048 16.0769 7.86071 16.0769C3.43659 16.0374 0 12.7588 0 8.01871Z" transform="translate(60.63409 20.73805)" id="Path" fill="#FFFFFF" stroke="none" />
      <path d="M5.53015 0.257783C2.21206 1.12681 0 4.12888 0 7.99999C0 12.6216 3.16008 16.0187 7.6632 16.0582C11.4948 16.0582 14.3784 13.5696 15.1289 9.93554C16.3534 4.04988 11.1788 -1.24326 5.53015 0.257783ZM7.6237 2.39084C10.6258 2.39084 12.6008 4.8004 12.6008 7.99999C12.6008 11.1601 10.6653 13.6091 7.6237 13.6091C4.58212 13.6091 2.64657 11.1996 2.64657 7.99999C2.64657 4.8004 4.58212 2.39084 7.6237 2.39084Z" transform="translate(75.8815 20.75677)" id="Shape" fill="#FFFFFF" fill-rule="evenodd" stroke="none" />
      <path d="M13.4304 15.3659L13.4304 3.55509L8.72973 15.4449C8.72973 15.4844 8.65073 15.5239 8.61123 15.5239L7.6237 15.5239C7.5842 15.5239 7.5052 15.4844 7.5052 15.4449L2.76507 3.55509L2.76507 15.3659C2.76507 15.4844 2.68607 15.5634 2.56757 15.5634L0.197505 15.5634C0.0790021 15.5634 0 15.4844 0 15.3659L0 0.197505C0 0.0790021 0.0790021 0 0.197505 0L3.59459 0C3.7526 0 3.8711 0.0790021 3.9501 0.237006L8.09771 10.9023L12.2058 0.237006C12.2453 0.0790021 12.4033 0 12.5613 0L15.9584 0C16.0769 0 16.1559 0.0790021 16.1559 0.197505L16.1559 15.3659C16.1559 15.4844 16.0769 15.5634 15.9584 15.5634L13.5884 15.5634C13.5489 15.5634 13.4304 15.4844 13.4304 15.3659Z" transform="translate(93.85447 20.93555)" id="Path" fill="#FFFFFF" stroke="none" />
      <path d="M0 15.2474L0 0.276507C0 0.118503 0.118503 0 0.276507 0L10.3493 0C10.5073 0 10.6258 0.118503 10.6258 0.276507L10.6258 2.09355C10.6258 2.25156 10.5073 2.37006 10.3493 2.37006L3.00208 2.37006C2.84407 2.37006 2.72557 2.48857 2.72557 2.64657L2.72557 6.08316C2.72557 6.24116 2.84407 6.35967 3.00208 6.35967L10.1913 6.35967C10.3493 6.35967 10.4678 6.47817 10.4678 6.63617L10.4678 8.45322C10.4678 8.61123 10.3493 8.72973 10.1913 8.72973L3.00208 8.72973C2.84407 8.72973 2.72557 8.84823 2.72557 9.00624L2.72557 12.7588C2.72557 12.9168 2.84407 13.0353 3.00208 13.0353L10.3493 13.0353C10.5073 13.0353 10.6258 13.1538 10.6258 13.3118L10.6258 15.1289C10.6258 15.2869 10.5073 15.4054 10.3493 15.4054L0.276507 15.4054C0.118503 15.5239 0 15.4054 0 15.2474Z" transform="translate(134.1455 20.97505)" id="Path" fill="#FFFFFF" stroke="none" />
      <path d="M5.49064 9.83576L8.76923 15.3659C8.84823 15.4844 8.92723 15.5239 9.04574 15.5239L11.5343 15.5239C11.7713 15.5239 11.8898 15.2869 11.7713 15.0894C11.0208 13.9439 9.04574 10.7838 8.41372 9.75676C8.33472 9.55925 8.41372 9.36175 8.61123 9.32225C10.3493 8.88773 11.9293 7.4262 11.9293 4.85863C11.9293 1.97505 9.91476 0 6.83368 0L0.276507 0C0.118503 0 0 0.118503 0 0.276507L0 15.2474C0 15.4054 0.118503 15.5239 0.276507 15.5239L2.40956 15.5239C2.56757 15.5239 2.68607 15.4054 2.68607 15.2474L2.68607 9.99376C2.68607 9.83576 2.80457 9.71726 2.96258 9.71726L5.25364 9.71726C5.33264 9.71726 5.45114 9.75676 5.49064 9.83576ZM6.47817 2.37006C8.01871 2.37006 9.12474 3.31809 9.12474 4.81913C9.12474 6.35967 8.01871 7.30769 6.47817 7.30769L3.00208 7.30769C2.84407 7.30769 2.72557 7.18919 2.72557 7.03118L2.72557 2.64657C2.72557 2.48857 2.84407 2.37006 3.00208 2.37006L6.47817 2.37006Z" transform="translate(148.6424 20.97505)" id="Shape" fill="#FFFFFF" fill-rule="evenodd" stroke="none" />
      <path d="M0 15.2474L0 0.276507C0 0.118503 0.118503 0 0.276507 0L10.3888 0C10.5468 0 10.6653 0.118503 10.6653 0.276507L10.6653 2.13306C10.6653 2.29106 10.5468 2.40956 10.3888 2.40956L3.00208 2.40956C2.84408 2.40956 2.72557 2.52807 2.72557 2.68607L2.72557 6.16216C2.72557 6.32017 2.84408 6.43867 3.00208 6.43867L10.1913 6.43867C10.3493 6.43867 10.4678 6.55717 10.4678 6.71518L10.4678 8.57173C10.4678 8.72973 10.3493 8.84823 10.1913 8.84823L3.00208 8.84823C2.84408 8.84823 2.72557 8.96674 2.72557 9.12474L2.72557 12.9168C2.72557 13.0748 2.84408 13.1933 3.00208 13.1933L10.3888 13.1933C10.5468 13.1933 10.6653 13.3119 10.6653 13.4699L10.6653 15.3264C10.6653 15.4844 10.5468 15.6029 10.3888 15.6029L0.276507 15.6029C0.118503 15.5239 0 15.4054 0 15.2474Z" transform="translate(178.9792 20.97505)" id="Path" fill="#FFFFFF" stroke="none" />
      <path d="M0 8.01871C0 3.23909 3.43659 0 7.86071 0C10.7443 0 12.6008 1.46154 13.7069 3.23909C13.7859 3.35759 13.7464 3.55509 13.5884 3.5946L11.8108 4.54262C11.6923 4.62162 11.5343 4.58212 11.4948 4.46362C10.7443 3.27859 9.36175 2.40956 7.86071 2.40956C4.89813 2.40956 2.68607 4.74013 2.68607 8.01871C2.68607 11.2578 4.89813 13.6279 7.86071 13.6279C9.36175 13.6279 10.7443 12.7588 11.4948 11.5738C11.5738 11.4553 11.6923 11.4158 11.8108 11.4948L13.5884 12.4033C13.7464 12.4823 13.7859 12.6403 13.7069 12.7983C12.5613 14.5759 10.7048 16.0769 7.86071 16.0769C3.43659 16.0374 0 12.7983 0 8.01871Z" transform="translate(162.5468 20.65904)" id="Path" fill="#FFFFFF" stroke="none" />
      <path d="M13.4304 15.3659L13.4304 3.55509L8.72973 15.4449C8.72973 15.4844 8.65073 15.5239 8.61123 15.5239L7.6237 15.5239C7.5842 15.5239 7.5052 15.4844 7.5052 15.4449L2.76507 3.55509L2.76507 15.3659C2.76507 15.4844 2.68607 15.5634 2.56757 15.5634L0.197505 15.5634C0.0790021 15.5634 0 15.4844 0 15.3659L0 0.197505C0 0.0790021 0.0790021 0 0.197505 0L3.5946 0C3.7526 0 3.8711 0.0790021 3.9501 0.237006L8.09772 10.9023L12.2058 0.237006C12.2453 0.0790021 12.4033 0 12.5613 0L15.9584 0C16.0769 0 16.1559 0.0790021 16.1559 0.197505L16.1559 15.3659C16.1559 15.4844 16.0769 15.5634 15.9584 15.5634L13.5884 15.5634C13.5094 15.5634 13.4304 15.4844 13.4304 15.3659Z" transform="translate(114 20.93555)" id="Path" fill="#FFFFFF" stroke="none" />
    </g>
  </g>
</svg>