<?xml version="1.0" encoding="utf-8"?>
<svg width="21px" height="22px" viewBox="0 0 21 22" version="1.1" xmlns:xlink="http://www.w3.org/1999/xlink" xmlns="http://www.w3.org/2000/svg">
  <desc>Created with Lunacy</desc>
  <g id="close">
    <path d="M1.1 7.63834e-14L25.7088 7.63834e-14Q25.8218 7.63834e-14 25.9304 0.0204649Q26.0389 0.0409298 26.1396 0.0811934Q26.2403 0.121457 26.3297 0.180208Q26.4192 0.23896 26.4945 0.314286Q26.5698 0.389612 26.6286 0.479061Q26.6873 0.568509 26.7276 0.669168Q26.7678 0.769827 26.7883 0.878419Q26.8088 0.987011 26.8088 1.1L26.8088 1.08033Q26.8088 1.19332 26.7883 1.30191Q26.7678 1.4105 26.7276 1.51116Q26.6873 1.61182 26.6286 1.70127Q26.5698 1.79072 26.4945 1.86604Q26.4192 1.94137 26.3297 2.00012Q26.2403 2.05887 26.1396 2.09914Q26.0389 2.1394 25.9304 2.15986Q25.8218 2.18033 25.7088 2.18033L1.1 2.18033Q0.987011 2.18033 0.878419 2.15986Q0.769827 2.1394 0.669168 2.09914Q0.568509 2.05887 0.479061 2.00012Q0.389612 1.94137 0.314286 1.86604Q0.23896 1.79072 0.180208 1.70127Q0.121457 1.61182 0.0811934 1.51116Q0.0409298 1.4105 0.0204649 1.30191Q7.63833e-14 1.19332 7.63833e-14 1.08033L7.63833e-14 1.1Q7.63833e-14 0.987011 0.0204649 0.878419Q0.0409298 0.769827 0.0811934 0.669168Q0.121457 0.568509 0.180208 0.479061Q0.23896 0.389612 0.314286 0.314286Q0.389612 0.23896 0.479061 0.180208Q0.568509 0.121457 0.669168 0.0811934Q0.769827 0.0409298 0.878419 0.0204649Q0.987011 7.63834e-14 1.1 7.63834e-14Z" transform="matrix(-0.7071068 0.7071068 -0.7071068 -0.7071068 20.61783 2.288678)" id="menu_bar_1" fill="#FFFFFF" stroke="none" />
    <path d="M1.1 0L25.7088 0Q25.8218 0 25.9304 0.0204649Q26.0389 0.0409298 26.1396 0.0811934Q26.2403 0.121457 26.3297 0.180208Q26.4192 0.23896 26.4945 0.314286Q26.5698 0.389612 26.6286 0.479061Q26.6873 0.568509 26.7276 0.669168Q26.7678 0.769827 26.7883 0.878419Q26.8088 0.987011 26.8088 1.1L26.8088 1.08033Q26.8088 1.19332 26.7883 1.30191Q26.7678 1.4105 26.7276 1.51116Q26.6873 1.61182 26.6286 1.70127Q26.5698 1.79072 26.4945 1.86604Q26.4192 1.94137 26.3297 2.00012Q26.2403 2.05887 26.1396 2.09914Q26.0389 2.1394 25.9304 2.15986Q25.8218 2.18033 25.7088 2.18033L1.1 2.18033Q0.987011 2.18033 0.878419 2.15986Q0.769827 2.1394 0.669168 2.09914Q0.568509 2.05887 0.479061 2.00012Q0.389612 1.94137 0.314286 1.86604Q0.23896 1.79072 0.180208 1.70127Q0.121457 1.61182 0.0811934 1.51116Q0.0409298 1.4105 0.0204649 1.30191Q0 1.19332 0 1.08033L0 1.1Q0 0.987011 0.0204649 0.878419Q0.0409298 0.769827 0.0811934 0.669168Q0.121457 0.568509 0.180208 0.479061Q0.23896 0.389612 0.314286 0.314286Q0.389612 0.23896 0.479061 0.180208Q0.568509 0.121457 0.669168 0.0811934Q0.769827 0.0409298 0.878419 0.0204649Q0.987011 0 1.1 0Z" transform="matrix(0.7071068 0.7071068 -0.7071068 0.7071068 1.661165 0.7469521)" id="menu_bar_1" fill="#FFFFFF" stroke="none" />
  </g>
</svg>