<?xml version="1.0" encoding="utf-8"?>
<svg width="285px" height="232px" viewBox="0 0 285 232" version="1.1" xmlns:xlink="http://www.w3.org/1999/xlink" xmlns="http://www.w3.org/2000/svg">
  <desc>Created with Lunacy</desc>
  <defs>
    <linearGradient x1="0.1608725" y1="-0.08713625" x2="0.658734262" y2="1.22639656" id="gradient_1">
      <stop offset="0" stop-color="#8AB5FF" />
      <stop offset="1" stop-color="#CCE3FF" />
    </linearGradient>
    <linearGradient x1="0.689776659" y1="0.7344376" x2="0.7268388" y2="0.9763476" id="gradient_2">
      <stop offset="0" stop-color="#FFFFFF" stop-opacity="0" />
      <stop offset="1" stop-color="#FFFFFF" />
    </linearGradient>
    <linearGradient x1="0" y1="0.4120433" x2="0.20287329" y2="0.8670063" id="gradient_3">
      <stop offset="0" stop-color="#8AB5FF" />
      <stop offset="1" stop-color="#CCE3FF" />
    </linearGradient>
    <linearGradient x1="-0.220231682" y1="0.6918248" x2="0.20287329" y2="0.8670063" id="gradient_4">
      <stop offset="0" stop-color="#8AB5FF" />
      <stop offset="1" stop-color="#CCE3FF" />
    </linearGradient>
    <linearGradient x1="0.748554051" y1="0.5836475" x2="1.8432951" y2="1.38367748" id="gradient_5">
      <stop offset="0" stop-color="#6CA2FF" />
      <stop offset="1" stop-color="#CCE3FF" />
    </linearGradient>
    <linearGradient x1="0.6084516" y1="0.451680779" x2="0.6084516" y2="1" id="gradient_6">
      <stop offset="0" stop-color="#8AB5FF" />
      <stop offset="1" stop-color="#CCE3FF" />
    </linearGradient>
    <linearGradient x1="0.157977715" y1="0.149158448" x2="0.7972584" y2="0.6641453" id="gradient_7">
      <stop offset="0" stop-color="#8AB5FF" />
      <stop offset="1" stop-color="#CCE3FF" />
    </linearGradient>
    <linearGradient x1="0.8826112" y1="0.7258404" x2="0.334292" y2="0.7258404" id="gradient_8">
      <stop offset="0" stop-color="#8AB5FF" />
      <stop offset="1" stop-color="#CCE3FF" />
    </linearGradient>
    <linearGradient x1="0.5863532" y1="-0.144402266" x2="0.20287329" y2="0.8670063" id="gradient_9">
      <stop offset="0" stop-color="#8AB5FF" />
      <stop offset="1" stop-color="#CCE3FF" />
    </linearGradient>
    <linearGradient x1="0.7972584" y1="0.16403842" x2="0.20287329" y2="0.8670063" id="gradient_10">
      <stop offset="0" stop-color="#8AB5FF" />
      <stop offset="1" stop-color="#CCE3FF" />
    </linearGradient>
    <linearGradient x1="1.59559965" y1="1.900869" x2="0.20287329" y2="0.8670063" id="gradient_11">
      <stop offset="0" stop-color="#8AB5FF" />
      <stop offset="1" stop-color="#CCE3FF" />
    </linearGradient>
    <linearGradient x1="0.114910826" y1="-0.07643898" x2="1.59559965" y2="1.900869" id="gradient_12">
      <stop offset="0" stop-color="#8AB5FF" />
      <stop offset="0.229501292" stop-color="#99BFFF" />
      <stop offset="1" stop-color="#CCE3FF" />
    </linearGradient>
    <linearGradient x1="0.967879951" y1="0.53751" x2="0.178614751" y2="0.734052" id="gradient_13">
      <stop offset="0" stop-color="#2627C5" />
      <stop offset="1" stop-color="#43BEFF" />
    </linearGradient>
    <linearGradient x1="0.07519531" y1="-0.09423828" x2="0.5" y2="0.405557156" id="gradient_14">
      <stop offset="0" stop-color="#FFFFFF" />
      <stop offset="1" stop-color="#43A1FF" stop-opacity="0.533333361" />
    </linearGradient>
    <linearGradient x1="0.408565551" y1="0.7826936" x2="0.606817842" y2="0.2626668" id="gradient_15">
      <stop offset="0" stop-color="#F9F7F7" />
      <stop offset="1" stop-color="#FFFFFF" />
    </linearGradient>
    <linearGradient x1="0.263307" y1="0.7053041" x2="-0.109524667" y2="1" id="gradient_16">
      <stop offset="0" stop-color="#50E3C2" />
      <stop offset="1" stop-color="#85FEF4" />
    </linearGradient>
    <linearGradient x1="0.33084" y1="0.6407953" x2="0.735677063" y2="0.191253886" id="gradient_17">
      <stop offset="0" stop-color="#FFFFFF" stop-opacity="0" />
      <stop offset="0.346731871" stop-color="#FFFFFF" stop-opacity="0.933333337" />
      <stop offset="1" stop-color="#D7D7D7" />
    </linearGradient>
    <linearGradient x1="0.12347468" y1="0" x2="0.832443535" y2="0.9603516" id="gradient_18">
      <stop offset="0" stop-color="#FCAD5E" />
      <stop offset="0.291341215" stop-color="#F78B6E" />
      <stop offset="0.698628247" stop-color="#F36781" />
      <stop offset="1" stop-color="#EF4A8F" />
    </linearGradient>
    <linearGradient x1="0.35140413" y1="0" x2="0.7136824" y2="0.5725337" id="gradient_19">
      <stop offset="0" stop-color="#FCE6CE" />
      <stop offset="1" stop-color="#FAC99D" />
    </linearGradient>
    <linearGradient x1="0.5" y1="0.6464078" x2="1.69283152" y2="1.16191792" id="gradient_20">
      <stop offset="0" stop-color="#FFFFFF" stop-opacity="0" />
      <stop offset="1" stop-color="#FFFFFF" />
    </linearGradient>
    <linearGradient x1="0.5" y1="0" x2="0.5" y2="1" id="gradient_21">
      <stop offset="0" stop-color="#4027A2" />
      <stop offset="1" stop-color="#415DD1" />
    </linearGradient>
    <linearGradient x1="0.2936726" y1="0.316758931" x2="0.5630226" y2="0.7377027" id="gradient_22">
      <stop offset="0" stop-color="#FCE6CE" />
      <stop offset="1" stop-color="#FAC99D" />
    </linearGradient>
    <linearGradient x1="0.4488555" y1="0.253474832" x2="0.585864961" y2="0.3994529" id="gradient_23">
      <stop offset="0" stop-color="#4027A2" />
      <stop offset="1" stop-color="#415DD1" />
    </linearGradient>
    <linearGradient x1="0.2327181" y1="0.4900101" x2="0.483664036" y2="0.779655039" id="gradient_24">
      <stop offset="0" stop-color="#4027A2" />
      <stop offset="1" stop-color="#415DD1" />
    </linearGradient>
    <linearGradient x1="0.719639" y1="0.2610934" x2="0.8492187" y2="0.0193157326" id="gradient_25">
      <stop offset="0" stop-color="#FFFFFF" stop-opacity="0" />
      <stop offset="1" stop-color="#FFFFFF" stop-opacity="0.3372549" />
    </linearGradient>
    <linearGradient x1="1" y1="0.5" x2="0.2481705" y2="0.251862973" id="gradient_26">
      <stop offset="0" stop-color="#2A2114" />
      <stop offset="1" stop-color="#120E08" />
    </linearGradient>
    <linearGradient x1="1.18141806" y1="0.6781796" x2="0.6660898" y2="0" id="gradient_27">
      <stop offset="0" stop-color="#FFFFFF" stop-opacity="0" />
      <stop offset="1" stop-color="#FFFFFF" stop-opacity="0.7294118" />
    </linearGradient>
    <linearGradient x1="0.2309543" y1="0.5" x2="-0.106123343" y2="0.263591081" id="gradient_28">
      <stop offset="0" stop-color="#FFFFFF" stop-opacity="0" />
      <stop offset="1" stop-color="#FFFFFF" />
    </linearGradient>
    <linearGradient x1="0.281317353" y1="0.2015625" x2="0.7996363" y2="0.834355" id="gradient_29">
      <stop offset="0" stop-color="#61F3AC" />
      <stop offset="1" stop-color="#029AC0" />
    </linearGradient>
    <linearGradient x1="0.5729391" y1="0.7203526" x2="0.4271619" y2="1" id="gradient_30">
      <stop offset="0" stop-color="#DADADA" stop-opacity="0" />
      <stop offset="1" stop-color="#004CC0" />
    </linearGradient>
    <linearGradient x1="1" y1="0.844555438" x2="0" y2="0.5" id="gradient_31">
      <stop offset="0" stop-color="#FCE6CE" />
      <stop offset="1" stop-color="#FAC99D" />
    </linearGradient>
    <linearGradient x1="0.131349415" y1="0.5" x2="-0.0428464" y2="0.5" id="gradient_32">
      <stop offset="0" stop-color="#FFFFFF" stop-opacity="0" />
      <stop offset="1" stop-color="#FFFFFF" />
    </linearGradient>
    <linearGradient x1="0.270353615" y1="0.342156649" x2="0.7136824" y2="0.5725337" id="gradient_33">
      <stop offset="0" stop-color="#FCE6CE" />
      <stop offset="1" stop-color="#FAC99D" />
    </linearGradient>
    <linearGradient x1="0.5" y1="0.0659722239" x2="0.5" y2="1" id="gradient_34">
      <stop offset="0" stop-color="#61F3AC" />
      <stop offset="1" stop-color="#029AC0" />
    </linearGradient>
    <linearGradient x1="-5.526693" y1="0.5" x2="2.279948" y2="0.5" id="gradient_35">
      <stop offset="0" stop-color="#FAD961" />
      <stop offset="1" stop-color="#9E0902" />
    </linearGradient>
    <linearGradient x1="0.115048684" y1="0.116428085" x2="1.11926544" y2="0.7673427" id="gradient_36">
      <stop offset="0" stop-color="#F093FB" />
      <stop offset="1" stop-color="#F5576C" />
    </linearGradient>
    <linearGradient x1="0.9812477" y1="0.481247753" x2="0.0187522583" y2="0.481247753" id="gradient_37">
      <stop offset="0" stop-color="#F15765" />
      <stop offset="1" stop-color="#FFD7D7" />
    </linearGradient>
    <linearGradient x1="0" y1="0" x2="1.02" y2="1.01" id="gradient_38">
      <stop offset="0" stop-color="#3023AE" />
      <stop offset="1" stop-color="#C86DD7" />
    </linearGradient>
    <filter filterUnits="userSpaceOnUse" color-interpolation-filters="sRGB" id="filter_1">
      <feFlood flood-opacity="0" result="BackgroundImageFix" />
      <feColorMatrix in="SourceAlpha" type="matrix" values="0 0 0 0 0 0 0 0 0 0 0 0 0 0 0 0 0 0 127 0" />
      <feOffset dx="0" dy="2" />
      <feGaussianBlur stdDeviation="5" />
      <feColorMatrix type="matrix" values="0 0 0 0 0 0 0 0 0 0 0 0 0 0 0 0 0 0 0.2039216 0" />
      <feBlend mode="normal" in2="BackgroundImageFix" result="effect0_dropShadow" />
      <feBlend mode="normal" in="SourceGraphic" in2="effect0_dropShadow" result="shape" />
    </filter>
    <filter filterUnits="userSpaceOnUse" color-interpolation-filters="sRGB" id="filter_2">
      <feFlood flood-opacity="0" result="BackgroundImageFix" />
      <feColorMatrix in="SourceAlpha" type="matrix" values="0 0 0 0 0 0 0 0 0 0 0 0 0 0 0 0 0 0 127 0" />
      <feOffset dx="0" dy="2" />
      <feGaussianBlur stdDeviation="11.5" />
      <feColorMatrix type="matrix" values="0 0 0 0 0 0 0 0 0 0 0 0 0 0 0 0 0 0 0.1019608 0" />
      <feBlend mode="normal" in2="BackgroundImageFix" result="effect0_dropShadow" />
      <feBlend mode="normal" in="SourceGraphic" in2="effect0_dropShadow" result="shape" />
    </filter>
    <path d="M97.2471 183.551C80.3339 178.479 4.84437 187.19 9.41144 135.501C13.9785 83.8123 -9.64113 71.3247 4.65609 39.3014C18.9533 7.27804 40.3119 -11.0408 83.6648 7.27804C127.018 25.5969 115.66 49.5722 149.202 57.8864C182.743 66.2006 227.909 65.5071 232.633 113.089C237.356 160.672 195.942 194.807 166.371 194.807C136.8 194.807 114.16 188.623 97.2471 183.551Z" id="path_1" />
    <path d="M73.8658 148.17C40.257 131.501 4.02651 155.927 7.82254 112.871C11.6186 69.8147 -8.01345 59.4126 3.87002 32.7376C15.7535 6.06252 33.5062 -9.19685 69.5399 6.06252C105.574 21.3219 96.1337 41.2931 124.013 48.2187C151.891 55.1443 189.432 54.5667 193.358 94.2021C197.284 133.838 171.62 165.241 147.041 165.241C122.463 165.241 107.475 164.84 73.8658 148.17Z" transform="translate(19.32938 23.38624)" id="path_2" />
    <path d="M21.6399 3.34855C21.6399 3.34855 15.0217 1.28956 9.23096 12.8181C1.70094 27.8093 -8.55503 53.9918 12.5405 54.4036C12.5405 54.4036 32.8077 56.0508 39.8396 24.3467C46.8714 -7.35731 28.258 -0.357626 21.6399 3.34855" id="path_3" />
    <path d="M13.1703 2.07391C13.1703 2.07391 9.1424 0.798687 5.61807 7.93887C1.03521 17.2236 -5.20669 33.4396 7.63228 33.6947C7.63228 33.6947 19.9672 34.7148 24.2468 15.0791C28.5265 -4.55672 17.1982 -0.221494 13.1703 2.07391" id="path_4" />
    <path d="M29.7013 53.6517C29.7013 53.6517 35.4407 38.417 25.6005 14.1253C15.7604 -10.1673 6.73958 4.24301 6.73958 4.24301C6.73958 4.24301 -3.10055 3.41942 0.999356 35.1235L8.78997 26.4766L5.10014 40.476L12.4798 49.9455L16.5806 42.9467L16.9907 52.8281C16.9907 52.8281 28.061 55.7098 29.7013 53.6517" id="path_5" />
    <path d="M24.2751 42.3867C24.2751 42.3867 28.9659 30.3507 20.9235 11.1595C12.8811 -8.03251 5.5083 3.35213 5.5083 3.35213C5.5083 3.35213 -2.5341 2.70146 0.81678 27.7488L7.1841 20.9174L4.16838 31.9774L10.1998 39.4587L13.5514 33.9294L13.8866 41.7361C13.8866 41.7361 22.9345 44.0127 24.2751 42.3867" transform="translate(0.1709947 0.3032773)" id="path_6" />
    <path d="M4.38235 26.827L144.618 0.0127019C147.038 -0.130868 149 0.959126 149 2.44727L149 132.613C149 134.101 147.038 135.424 144.618 135.568L4.38235 125.006C1.96205 125.149 0 124.059 0 122.571L0 29.7815C0 28.2934 1.96205 26.9706 4.38235 26.827Z" id="path_7" />
    <path d="M2.55695 18.47C3.46287 18.3715 103.244 0.00870829 103.244 0.00870829C104.149 -0.0897216 104.884 0.657564 104.884 1.67782L104.884 14.3112C104.884 15.3314 104.149 16.2383 103.244 16.3367C103.244 16.3367 3.46287 33.7809 2.55695 33.8793C2.38507 33.898 0.749364 34.2284 0.647017 33.1258C0.0559888 26.759 -0.0982796 24.3007 0.0559888 21.0026C0.159129 18.7976 2.26284 18.5019 2.55695 18.47Z" transform="translate(0.1161423 7.105427E-14)" id="path_8" />
    <path d="M1.64706 9.72092L54.3529 0.0086411C55.2626 -0.0890295 56 0.652491 56 1.66487L56 58.2663C56 59.2787 55.2626 60.1786 54.3529 60.2763L1.64706 62.8803C0.737413 62.9779 0 62.2364 0 61.224L0 11.7308C0 10.7185 0.737413 9.81859 1.64706 9.72092Z" id="path_9" />
    <path d="M1.20158 8.12124C1.20158 8.12124 7.44159 17.4761 7.4374 21.9869C7.4361 23.3939 7.32802 24.7064 7.25688 25.8763C7.09996 28.4574 7.12283 30.3447 8.86852 31.0226C11.4055 32.0078 14.6957 32.6565 20.9269 31.6696C27.158 30.6827 30.8647 26.9165 27.8845 26.9193C25.6077 26.9214 15.226 25.45 14.447 24.7537C11.1465 21.8039 10.9444 20.5279 11.5741 12.9475C12.2037 5.36711 14.6133 2.09132 11.5858 0.329852C8.55829 -1.43161 3.92106e-19 6.21344 3.92106e-19 6.21344L1.20158 8.12124Z" transform="matrix(0.9876884 0.1564345 -0.1564345 0.9876884 5.324734 0.9508638)" id="path_10" />
    <path d="M1.20158 12.171C1.20158 12.171 7.44159 21.5258 7.4374 26.0366C7.4361 27.4436 7.32802 28.7561 7.25688 29.9261C7.09995 32.5071 7.12283 34.3945 8.86852 35.0723C11.4055 36.0575 14.6957 36.7062 20.9269 35.7193C27.158 34.7324 30.8647 30.9663 27.8845 30.969C25.6077 30.9711 15.226 29.4997 14.447 28.8034C11.1465 25.8536 11.1433 24.8823 11.5741 16.9972C12.0048 9.11215 12.9487 1.99033 9.92121 0.228864C6.89372 -1.5326 2.05618e-13 10.2632 2.05618e-13 10.2632L1.20158 12.171Z" transform="matrix(0.9876884 0.1564345 -0.1564345 0.9876884 5.95825 0.1105843)" id="path_11" />
    <path d="M29.1528 9.77548C29.1528 9.77548 30.4492 11.3221 31.4573 10.5488C32.4653 9.77548 32.1691 7.76543 34.4969 7.76543C36.8246 7.76543 35.1918 4.17659 37.579 5.70743C39.9661 7.23827 39.8831 9.00218 39.8831 9.77548C39.8831 10.5488 41.8988 8.82947 41.412 5.70743C40.9252 2.58539 37.394 -0.948115 35.3203 0.233297C33.2466 1.41471 31.7767 -0.518541 29.1528 2.16856C26.5288 4.85566 28.248 2.88016 22.8894 6.32782C17.5308 9.77548 19.6868 14.2127 17.6384 15.9753C15.59 17.7379 9.08234 15.0615 5.23342 22.5993C1.38451 30.1372 -1.35788 31.1532 0.707766 34.4121C2.77341 37.671 0.463856 42.7232 5.23342 44.2782C10.003 45.8332 9.59209 45.6981 9.59209 45.6981C9.59209 45.6981 18.0603 52.8561 23.888 46.861C29.7156 40.866 30.0319 24.6711 30.0319 24.6711L31.4573 17.6762L28.6508 12.816C28.6508 12.816 27.1715 11.3221 27.1715 10.5488C27.1715 9.77548 28.6508 9.16012 28.6508 9.16012L29.1528 9.77548Z" transform="translate(0.2641621 0.3163295)" id="path_12" />
    <path d="M26.8765 11.4292C26.8765 11.4292 28.173 12.9758 29.181 12.2025C30.1891 11.4292 29.8929 9.41917 32.2206 9.41917C34.5484 9.41917 31.9548 7.05476 34.3419 8.5856C36.7291 10.1164 37.6069 10.6559 37.6069 11.4292C37.6069 12.2025 39.6226 10.4832 39.1358 7.36117C38.649 4.23913 33.736 -1.01133 31.6623 0.170078C29.5886 1.35149 28.1187 -0.58176 25.4947 2.10534C22.8708 4.79244 25.6263 2.47355 20.2677 5.92121C14.9091 9.36887 17.4106 15.8665 15.3622 17.629C13.3137 19.3916 6.1152 15.3417 2.26628 22.8795C-1.58264 30.4173 0.200639 33.0166 2.26628 36.2755C4.33192 39.5344 -2.50328 43.0034 2.26628 44.5584C7.03585 46.1134 7.31586 47.3518 7.31586 47.3518L27.7557 26.3248L29.181 19.3299L26.3746 14.4698C26.3746 14.4698 24.8952 12.9758 24.8952 12.2025C24.8952 11.4292 26.3746 10.8139 26.3746 10.8139L26.8765 11.4292Z" transform="translate(6.421687 2.123565)" id="path_13" />
    <path d="M0 6.64919C0 6.64919 0 24.6004 0 34.8202C0 45.04 0 63.549 0 65.2551C0 66.9612 12.7664 66.9612 12.7664 66.9612L27.2909 6.64919L5.34088 -2.0634e-31L0 6.64919Z" transform="matrix(-1 0 0 1 54.58182 79.32332)" id="path_14" />
    <path d="M2.30827 0.309707C2.30827 0.309707 -0.865286 7.92349 0.324364 11.7356C1.51401 15.5477 10.4524 17.1804 10.4524 17.1804C10.4524 17.1804 20.6272 16.7108 24.8435 16.6986C29.0597 16.6864 28.5679 15.8206 29.6165 17.1797C30.1468 17.867 35.2938 16.7912 35.8912 17.1615C36.4886 17.5317 38.3785 17.7051 37.1253 16.9057C36.1786 16.3017 34.5057 15.0046 32.9247 14.3272C32.0955 13.9718 31.1379 13.4251 30.3434 13.4274C28.0342 13.4341 27.6316 13.6715 26.2116 13.6756C24.7915 13.6797 8.20531 9.93561 8.21061 8.11201C8.21534 6.48433 10.7142 1.50469 10.3516 0.0502767C10.3079 -0.124784 2.30827 0.309707 2.30827 0.309707Z" transform="matrix(0.7880108 0.6156615 -0.6156615 0.7880108 43.6104 47.98526)" id="path_15" />
    <path d="M9.81709 0.0723628C9.81709 0.0723628 6.14671 -0.61586 1.933 5.24142C-2.28071 11.0987 2.69097 21.8152 2.69097 21.8152C2.69097 21.8152 7.14091 29.0267 7.14091 31.0424C7.14091 33.058 7.97457 45.2409 6.14671 49.9323C4.31886 54.6236 0.507506 64.2016 0.507506 64.2016C0.507506 64.2016 13.0903 66.9612 20.2734 66.9612C27.4566 66.9612 34.3593 66.08 34.3593 66.08C34.3593 66.08 40.0727 64.2016 40.0727 64.2016L34.3593 43.6371C34.3593 43.6371 29.1464 28.935 29.1464 24.7251C29.1464 20.5152 31.1631 14.197 28.924 10.9718C26.6848 7.74655 20.7928 0.948588 20.7928 0.948588C20.7928 0.948588 18.7234 0.0723628 18.1203 0.0723628C17.5173 0.0723628 9.81709 0.0723628 9.81709 0.0723628Z" transform="translate(20.03636 21.63363)" id="path_16" />
    <path d="M3.22897 0.386869C3.22897 0.386869 -1.24969 11.3371 0.483661 16.8424C2.21701 22.3476 15.0198 24.7742 15.0198 24.7742C15.0198 24.7742 28.8136 23.8623 33.6848 23.2988C38.5561 22.7353 41.5048 22.1037 43.0164 24.0715C43.7807 25.0666 48.1768 22.383 49.0347 22.9217C49.8925 23.4603 52.598 23.7256 50.7984 22.563C49.4388 21.6845 49.4186 21.8339 47.1509 20.8443C45.9615 20.3253 44.5869 19.5293 43.4501 19.5261C40.146 19.5169 39.5719 19.8559 37.5401 19.8503C35.5083 19.8446 11.7454 14.3118 11.7381 11.6829C11.7315 9.33646 15.2663 2.17814 14.7356 0.0784801C14.6717 -0.174245 3.22897 0.386869 3.22897 0.386869Z" transform="matrix(0.8290376 -0.5591929 0.5591929 0.8290376 19.26139 49.39523)" id="path_17" />
    <path d="M0 0.506805C0 0.506805 0.45035 8.78729 0.45035 9.33242C0.45035 9.87754 2.04837 15.0062 6.03714 15.0062C10.0259 15.0062 11.7827 17.5129 11.7827 17.5129C11.7827 17.5129 12.7818 12.932 12.7818 12.3326C12.7818 11.7332 10.4871 9.72693 9.51253 9.00987C8.5379 8.29281 7.97786 7.24955 8.25788 5.76778C8.5379 4.28602 9.51253 0 9.51253 0L0 0.506805Z" transform="translate(29.70909 13.04886)" id="path_18" />
    <path d="M4.29414 5.19919C3.28381 5.9692 1.98438 4.42917 1.98438 4.42917L1.48125 3.81642C1.48125 3.81642 0.875049 4.06694 0.437875 4.44891C0.261969 4.68794 0.10662 4.96394 0.000365908 5.24707C0.0582858 6.02914 1.48125 7.45682 1.48125 7.45682L1.95865 8.27818C2.01931 8.31664 2.05404 8.3377 2.05404 8.3377C2.05404 8.3377 2.09357 8.45528 2.17633 8.65269L3.32797 10.6341C4.08462 11.6113 5.20521 12.5849 6.76012 12.8379C10.138 13.3876 12.2638 12.7625 12.7247 12.1127C13.1856 11.4629 13.3323 5.6837 12.7247 3.21971C12.6676 2.98815 12.6107 2.76465 12.5535 2.54912C12.1906 1.85819 11.5512 1.0928 10.4298 0.378387C9.18104 -0.417231 9.02987 0.175948 8.839 0.924928C8.66418 1.61094 8.45604 2.42765 7.34069 2.42765C5.0076 2.42765 5.30447 4.42917 4.29414 5.19919Z" transform="translate(27.29091 5.494256)" id="path_19" />
    <path d="M0.911765 1.68288L30.0882 0.00475748C30.5918 -0.0490164 31 0.359238 31 0.91662L31 35.7485C31 36.3058 30.5918 36.8013 30.0882 36.8551L0.911765 34.6196C0.408211 34.6734 0 34.2651 0 33.7078L0 2.78947C0 2.23209 0.408211 1.73665 0.911765 1.68288Z" id="path_20" />
    <clipPath id="mask_1">
      <use xlink:href="#path_1" />
    </clipPath>
    <clipPath id="mask_2">
      <use xlink:href="#path_3" />
    </clipPath>
    <clipPath id="mask_3">
      <use xlink:href="#path_4" />
    </clipPath>
    <clipPath id="mask_4">
      <use xlink:href="#path_5" />
    </clipPath>
    <clipPath id="mask_5">
      <use xlink:href="#path_6" />
    </clipPath>
    <clipPath id="mask_6">
      <use xlink:href="#path_7" />
    </clipPath>
    <clipPath id="mask_7">
      <use xlink:href="#path_8" />
    </clipPath>
    <clipPath id="mask_8">
      <use xlink:href="#path_9" />
    </clipPath>
    <clipPath id="mask_9">
      <use xlink:href="#path_10" />
    </clipPath>
    <clipPath id="mask_10">
      <use xlink:href="#path_11" />
    </clipPath>
    <clipPath id="mask_11">
      <use xlink:href="#path_12" />
    </clipPath>
    <clipPath id="mask_12">
      <use xlink:href="#path_20" />
    </clipPath>
  </defs>
  <g id="Group-18" transform="translate(0.5 0.5)">
    <g id="фон-растения" opacity="0.65">
      <g id="Group-15">
        <g id="Group-11" transform="translate(18.0215 0)">
          <g id="bg-pic-1" transform="matrix(-1 0 0 1 234.2959 0)">
            <path d="M97.2471 183.551C80.3339 178.479 4.84437 187.19 9.41144 135.501C13.9785 83.8123 -9.64113 71.3247 4.65609 39.3014C18.9533 7.27804 40.3119 -11.0408 83.6648 7.27804C127.018 25.5969 115.66 49.5722 149.202 57.8864C182.743 66.2006 227.909 65.5071 232.633 113.089C237.356 160.672 195.942 194.807 166.371 194.807C136.8 194.807 114.16 188.623 97.2471 183.551Z" id="Path-7" fill="#EBF1FF" stroke="none" />
            <g clip-path="url(#mask_1)">
              <g id="Path-7">
                <use stroke="none" fill="url(#gradient_1)" fill-opacity="0.8210798" xlink:href="#path_2" />
                <use stroke="none" fill="url(#gradient_2)" fill-opacity="0.8210798" xlink:href="#path_2" />
              </g>
            </g>
          </g>
          <path d="M77.6481 46.1582C76.9929 42.2341 72.6709 38.3114 65.3283 35.957C57.9877 33.6032 57.9993 37.0032 62.5831 38.05C67.1688 39.0956 73.5873 43.2803 75.2897 45.112C76.9929 46.943 75.5516 52.5661 72.0157 56.4895C71.6223 52.5661 67.0379 46.6816 62.0588 43.6763C57.0816 40.6729 54.4621 44.1959 58.7847 46.4189C63.108 48.6427 71.4908 58.4512 71.4908 58.4512L65.2032 67.8676C65.2032 67.8676 64.0244 61.9825 59.0472 56.2281C54.0687 50.4743 47.6502 49.5588 46.8635 51.5205C46.3628 52.772 47.781 53.3847 50.4718 54.5471C51.9988 55.2067 53.9355 56.0434 56.1639 57.2743C62.3212 60.6749 65.0723 69.8293 65.0723 69.8293L59.9642 74.5368C59.9642 74.5368 54.0687 64.2056 50.0086 59.8901C45.9478 55.5746 44.2434 63.1594 50.5322 65.2524C56.8198 67.3448 59.0472 74.2761 59.0472 74.2761C59.0472 74.2761 58.9163 77.0226 53.4135 81.3381C52.3656 70.0913 42.4106 70.4834 45.8156 73.2299C49.2225 75.9758 49.7461 82.3843 49.7461 82.3843L41.1002 87.3545C41.1002 87.3545 27.3456 85.6542 24.8564 84.2153C22.3671 82.777 21.1889 74.7989 26.5601 69.5679C31.9307 64.3363 37.9558 58.0597 34.9429 57.2743C33.2221 56.8259 32.1848 57.8715 30.4639 59.6063C29.1724 60.9082 27.4958 62.5982 24.8564 64.3363C18.701 68.391 18.0445 69.5679 12.4115 77.4147C12.6733 69.0451 15.1632 65.3831 20.4035 61.9831C25.6425 58.5825 35.2054 52.3053 30.096 50.605C24.9873 48.9047 15.5553 58.3211 8.35134 71.3989C7.04095 67.0834 11.7537 54.0511 15.9487 51.6512C20.1442 49.2507 29.9645 43.1503 28.1311 41.8427C26.2977 40.5345 16.4729 46.1582 14.5074 49.5588C12.5437 52.9588 5.60029 63.6828 5.60029 63.6828C5.60029 63.6828 5.20691 58.4518 1.40793 52.3053C2.19404 43.411 15.9159 38.6714 23.186 36.0236C30.456 33.3751 22.5969 32.4916 16.5057 34.65C10.4145 36.8078 6.97549 38.0827 0 43.0856C2.16067 39.0635 4.32262 30.2365 9.03862 28.0781C13.754 25.921 23.5787 27.2933 27.6068 25.3316C31.6361 23.3699 23.186 20.232 13.6558 22.8792C7.6525 24.5481 5.27686 26.4489 4.33931 27.6284C5.96799 24.5968 10.4831 16.3618 12.871 13.6595C15.8177 10.3248 21.418 13.1694 27.2147 16.504C33.0107 19.8393 31.5373 12.9733 26.1334 10.4831C20.7301 7.99412 14.8353 10.4831 14.8353 10.4831C14.8353 10.4831 16.2111 1.69323 29.2772 0.124258C42.3445 -1.44536 42.3445 12.2865 41.2638 16.9947C40.1825 21.7029 43.5233 20.9175 43.5233 20.9175L44.638 20.6561C45.4973 20.4534 45.4197 16.5129 45.3396 12.4404C45.3159 11.236 45.2919 10.0201 45.2919 8.88591C45.2919 3.91568 52.234 3.26221 58.6538 3.39226C65.0723 3.52424 72.8018 12.2859 73.9806 17.9096C69.2646 15.4245 53.5444 16.9941 50.1395 20.7862C46.8955 24.3988 55.5332 23.8585 60.0968 23.573C60.3251 23.5588 60.5431 23.5451 60.749 23.5327C62.5765 23.4224 63.7017 22.5409 64.9163 21.5895C66.5751 20.29 68.4004 18.8601 72.4084 19.0865C79.3512 19.4786 80.9228 25.8871 78.5657 30.988C77.1244 28.1102 62.1903 26.0178 55.5094 26.0178C48.8291 26.0178 53.8069 31.1181 61.2733 29.2871C68.1831 27.5928 71.2778 29.0339 75.5424 31.0199C75.8867 31.1802 76.2386 31.3441 76.6008 31.5102C81.447 33.7332 79.7446 41.3193 77.6481 46.1582ZM29.877 29.8844C29.1208 27.4971 30.3545 27.7264 31.7788 27.9912C32.5202 28.129 33.3133 28.2765 33.9042 28.0693C34.5504 28.0693 34.4708 28.4509 34.3787 28.8927C34.3068 29.2376 34.2273 29.6192 34.4795 29.8844C32.7536 31.0952 29.877 30.4895 29.877 29.8844ZM46.8365 34.8486L46.8365 36.5832C49.5773 38.3186 52.867 38.8968 56.156 37.7404C56.156 33.1139 49.5773 32.5356 46.8365 34.8486ZM33.0814 80.1975C34.2073 76.3137 33.645 72.9854 37.5848 70.7658C39.2742 69.5524 38.7106 67.9922 38.1484 66.8821C38.1396 66.8686 38.1309 66.8552 38.1222 66.8418C37.8204 66.3756 37.5884 66.0172 35.227 67.2991C30.4946 69.7195 26.4901 74.4984 28.5781 79.6427C29.1416 81.3076 32.5185 81.8623 33.0814 80.1975Z" transform="matrix(-0.9205049 -0.3907311 -0.3907311 0.9205049 264.7607 84.73717)" id="Fill-424" fill="url(#gradient_3)" fill-opacity="0.21693638" fill-rule="evenodd" stroke="none" />
          <g id="Group-43" transform="translate(176.3078 97.67196)">
            <path d="M7.6811 6.87831L6.6831 6.28979C6.69219 6.27325 6.89965 5.88992 6.65355 5.2626C6.3289 4.43613 5.03188 2.7937 0 1.07746L0.383422 0C4.62379 1.44584 7.10905 3.10545 7.77038 4.93239C8.17393 6.04675 7.7324 6.79623 7.6811 6.87831" transform="translate(28.99406 50.89947)" id="Fill-315" fill="url(#gradient_3)" stroke="none" />
            <path d="M1.26849 29.5767C1.0861 29.1387 -3.10542 18.6328 4.82575 0L5.86785 0.462925C-1.84894 18.5917 2.27196 29.0203 2.31439 29.1238L1.26849 29.5767" transform="translate(38.31358 29.2328)" id="Fill-316" fill="url(#gradient_3)" stroke="none" />
            <path d="M11.3713 0C11.3713 0 12.5027 8.73952 12.7506 14.9408C13.2249 26.8024 5.38449 29.2723 2.03702 31.2963C-2.42766 22.6364 1.21525 14.8 5.59708 8.73272C9.97827 2.6658 10.8726 2.24778 11.3713 0" transform="translate(39.00392 5.502645)" id="Fill-317" fill="url(#gradient_4)" stroke="none" />
            <path d="M10.636 14.9408C10.182 8.73207 9.2667 0 9.2667 0C9.28072 4.69663 6.34708 20.1481 0.934416 29.6437C0.665983 30.1164 0.241335 30.8171 0 31.2963C3.66721 29.5235 11.4868 26.5624 10.636 14.9408" transform="translate(41.07492 5.502645)" id="Fill-318" fill="url(#gradient_3)" stroke="none" />
            <path d="M0 7.48066C0 7.48066 8.16679 1.6844 14.2527 0.418535C25.8933 -2.0035 31.6946 6.65749 32.4457 11.7426C24.6206 17.6537 19.8865 12.5179 13.1762 9.10343C6.46555 5.68959 2.46855 6.84511 0 7.48066" transform="translate(0 40.92593)" id="Fill-319" fill="url(#gradient_4)" stroke="none" />
            <path d="M13.1153 3.28145C19.7381 6.65433 24.4291 11.7076 32.1006 6.05114C29.8858 3.50199 24.9625 2.48839 16.2697 0.43674C12.1376 -0.538358 5.92391 0.261229 0.319444 1.4425C0.114871 1.58376 0 1.66466 0 1.66466C2.45714 1.03146 6.43567 -0.119806 13.1153 3.28145" transform="translate(0 46.77249)" id="Fill-320" fill="url(#gradient_3)" stroke="none" />
            <path d="M26.2327 0.0527282C26.2327 0.0527282 16.2506 -0.461077 10.4224 1.71911C-0.724832 5.88829 -1.07511 16.2478 0.971053 20.9159C10.7243 21.7085 12.0284 14.8752 15.9175 8.4346C19.8063 1.99402 23.8048 0.834309 26.2327 0.0527282" transform="translate(42.80076 33.7037)" id="Fill-321" fill="url(#gradient_4)" stroke="none" />
            <path d="M14.6067 8.41454C10.7774 14.8134 9.46574 21.5941 0 20.9342C0.533309 17.5946 4.16587 14.0993 10.4418 7.70558C13.4243 4.66647 19.1024 2.00851 24.4648 0C24.7121 0.00910594 24.8521 0.0162606 24.8521 0.0162606C22.4406 0.799372 18.4691 1.96136 14.6067 8.41454" transform="translate(43.83626 33.7037)" id="Fill-322" fill="url(#gradient_3)" stroke="none" />
            <path d="M11.654 9.19335L11.6592 9.20115C15.4637 14.9916 17.6132 20.806 26.6387 19.387C28.327 14.5764 27.2144 4.26222 15.8308 0.927145C10.5741 -0.613693 2.25655 0.183852 0.385848 0.390467L0.335717 0.396315C0.121608 0.42003 0 0.435298 0 0.435298C2.47033 1.0363 6.52869 1.89687 10.8678 8.03716C11.0036 8.22883 11.1359 8.42115 11.2669 8.61314L11.3131 8.68266C11.4283 8.85289 11.5421 9.02312 11.654 9.19335" transform="translate(4.832344 25.79365)" id="Fill-323" fill="url(#gradient_3)" stroke="none" />
            <path d="M6.83846 26.4815L5.66715 26.4132C5.67729 26.2425 6.61336 9.28443 0 0.698305L0.935745 0C7.81216 8.92819 6.88165 25.769 6.83846 26.4815" transform="translate(32.10057 29.57672)" id="Fill-324" fill="url(#gradient_3)" stroke="none" />
            <path d="M0 0C0 0 7.81953 8.09165 12.8722 14.286C22.5366 26.1346 17.4518 35.0761 16.0359 39.8942C5.29821 34.602 2.4502 23.5477 1.64093 13.7164C0.831671 3.88506 1.30515 2.72507 0 0" transform="translate(21.05521 0)" id="Fill-325" fill="url(#gradient_3)" stroke="none" />
            <path d="M12.9462 14.286C7.66945 8.25518 0 0 0 0C3.69265 4.83275 13.1415 23.1806 15.6802 37.4217C15.8069 38.1305 15.9715 39.201 16.128 39.8942C18.0609 35.0523 22.8212 25.5744 12.9462 14.286" transform="translate(21.05521 0)" id="Fill-326" fill="url(#gradient_4)" stroke="none" />
            <path d="M22.0907 0C22.0907 0 20.5213 11.1354 18.7455 18.9236C15.3489 33.8216 5.16605 35.301 0.494996 37.1429C-1.94018 25.4255 5.02625 16.3917 12.2824 9.71605C19.5385 3.04136 20.7444 2.70202 22.0907 0" transform="translate(40.03942 15.13228)" id="Fill-330" fill="url(#gradient_4)" stroke="none" />
            <path d="M18.0854 18.9236C19.5994 11.0831 21.4004 0 21.4004 0C19.8626 5.86288 11.2519 24.5387 1.66085 35.2737C1.1837 35.8082 0.446546 36.595 0 37.1429C4.95615 35.6858 15.2509 33.5991 18.0854 18.9236" transform="translate(41.07492 15.13228)" id="Fill-331" fill="url(#gradient_4)" stroke="none" />
            <path d="M0 0C0 0 0.768484 8.78364 1.85976 14.8957C3.94657 26.5874 12.1897 27.2959 15.9176 28.545C18.4449 19.1147 13.1745 12.2505 7.55902 7.2757C1.94353 2.30127 0.974513 2.08715 0 0" transform="translate(21.74555 25.44974)" id="Fill-332" fill="url(#gradient_3)" stroke="none" />
            <path d="M1.8551 14.8957C0.971103 8.73084 0 0 0 0C0.994332 4.59153 7.21165 19.0441 14.5991 27.1362C14.9663 27.5388 15.5364 28.1303 15.8777 28.545C11.8729 27.6169 3.50952 26.4355 1.8551 14.8957" transform="translate(21.74555 25.44974)" id="Fill-333" fill="url(#gradient_4)" stroke="none" />
            <path d="M23.1262 0C23.1262 0 13.1924 1.37698 7.86453 4.60014C-2.32698 10.7649 -0.702398 20.9372 2.20081 25.1058C11.9617 24.0439 11.9483 17.1322 14.5554 10.118C17.1628 3.10352 20.8824 1.21993 23.1262 0" transform="translate(35.20708 32.67196)" id="Fill-334" fill="url(#gradient_4)" stroke="none" />
            <path d="M12.1302 10.1307C9.54226 17.0952 9.52791 23.9538 0.00271747 25.1058C-0.102288 21.7488 2.84146 17.6525 7.85956 10.2291C10.245 6.7004 15.3782 3.03281 20.3226 0.0577954C20.5705 0.0200185 20.71 0 20.71 0C18.4638 1.22145 14.7404 3.10739 12.1302 10.1307" transform="translate(37.96842 32.67196)" id="Fill-335" fill="url(#gradient_3)" stroke="none" />
          </g>
          <g id="Group" transform="translate(156.6332 5.846561)">
            <path d="M3.79684 18.2275C2.53087 12.1516 1.26561 6.07596 0 0C1.26561 6.0756 2.53123 12.1516 3.79684 18.2275" transform="translate(16.9132 73.25397)" id="Fill-356" fill="#B2A491" stroke="none" />
            <path d="M16.7159 0.151669C13.9363 -0.961081 11.9382 4.34574 12.8068 6.39971C12.8411 6.48148 12.8703 6.56325 12.8961 6.64465L12.9164 6.71152C12.9363 6.77911 12.9536 6.84634 12.968 6.91357L12.9784 6.95754C12.9935 7.03749 13.0057 7.11635 13.0145 7.19485L13.02 7.2559C13.0252 7.31841 13.0293 7.38055 13.0307 7.44196L13.0326 7.50265C13.0326 7.57933 13.0307 7.65492 13.0256 7.72978L13.0215 7.77521C13.016 7.83735 13.009 7.89913 13.0005 7.96054L12.9913 8.02487C12.9798 8.09573 12.9673 8.16623 12.9514 8.23564L12.9492 8.24473C12.9334 8.31596 12.9149 8.38609 12.8946 8.4555L12.8769 8.51401C12.8592 8.57107 12.8411 8.62776 12.822 8.683L12.8083 8.72079C12.784 8.78693 12.7589 8.85162 12.732 8.91521L12.7128 8.961C12.6899 9.01261 12.6671 9.06312 12.6434 9.11291L12.6239 9.15506C12.5944 9.21502 12.5641 9.27426 12.5335 9.33131L12.5225 9.35239C12.4941 9.40363 12.4664 9.45342 12.4387 9.50139L12.4181 9.53627C12.3539 9.64421 12.2897 9.74414 12.2277 9.83463L12.213 9.85643C12.1831 9.90004 12.1532 9.9422 12.1245 9.98145C11.9209 10.2598 11.7645 10.4223 11.7645 10.4223C10.6063 11.0502 8.98442 10.0799 9.41856 7.16977C9.85307 4.25998 8.02909 2.03484 4.9879 2.50363C1.94745 2.97243 0.991751 6.48511 0.210152 8.45369C-0.571448 10.4223 0.905808 16.6707 3.33766 20.1794C5.77024 23.6888 10.0268 25.5716 10.1142 26.5986C10.2005 27.6259 11.3447 36.295 14.8093 38.8624C13.5822 33.9841 20.1909 29.0806 22.2757 19.837C24.3612 10.5934 19.4956 1.26442 16.7159 0.151669" transform="translate(30.37473 38.86243)" id="Fill-361" fill="url(#gradient_5)" stroke="none" />
            <path d="M3.44695 47.8042C-5.06065 6.2049 4.80565 0.233671 5.22927 0L5.86785 1.10802C5.8445 1.12155 3.49958 2.5755 2.18017 8.98117C0.954154 14.9316 0.398593 26.4538 4.71299 47.5519L3.44695 47.8042" transform="translate(35.55225 35.42328)" id="Fill-363" fill="url(#gradient_6)" stroke="none" />
            <path d="M3.46824 56.4021C-5.07208 7.29889 4.79508 0.275045 5.21889 0L5.86785 1.07217C5.84415 1.08854 3.45883 2.82103 2.11909 10.4484C0.879028 17.5047 0.314065 31.166 4.66369 56.1751L3.46824 56.4021" transform="translate(32.7909 14.78836)" id="Fill-364" fill="url(#gradient_6)" stroke="none" />
            <path d="M12.0765 61.5608L10.8143 61.5546C10.9465 33.3547 7.99787 18.4286 5.50039 10.873C2.79256 2.67891 0.0278785 1.15858 0 1.14398L0.552501 0C1.03368 0.231425 12.3361 6.30432 12.0765 61.5608" transform="translate(21.05521 9.62963)" id="Fill-365" fill="url(#gradient_6)" stroke="none" />
            <path d="M0 0C0 0 5.21217 5.36928 5.21217 9.45611C9.93112 12.7665 18.4103 17.9269 20.0518 21.0641C21.6929 24.2017 25.6229 29.0726 30.032 29.284C34.4403 29.4958 36.9329 31.2963 36.9329 31.2963C36.9329 31.2963 35.2616 28.0136 34.006 25.4724C32.7508 22.9312 32.4718 19.9628 29.7585 18.9589C27.0454 17.9549 25.5269 13.9873 23.3809 11.1002C21.2353 8.2134 18.2219 6.3076 14.13 5.24862C10.0366 4.19 10.4443 1.23104 7.91609 0.751677C5.38748 0.27231 0 0 0 0" transform="translate(35.55225 27.85714)" id="Fill-366" fill="url(#gradient_7)" stroke="none" />
            <path d="M0.014285 13.4639C0.014285 13.4639 3.79236 4.40745 1.90369 0.0031472C5.36638 -0.184131 8.20879 8.03832 9.83014 10.8845C11.4526 13.7314 15.0525 15.1001 14.0919 18.1579C13.1314 21.216 15.7017 25.8544 16.568 27.8571C13.2358 26.3814 11.988 22.8928 9.32076 20.7714C6.6532 18.65 -0.358176 14.4279 0.014285 13.4639" transform="translate(40.38459 23.38624)" id="Fill-367" fill="url(#gradient_3)" stroke="none" />
            <path d="M14.2601 12.8285C14.2601 12.8285 16.5767 10.4053 15.5235 7.87697C14.4704 5.34824 16.8924 -1.18287 20.2621 0.186681C23.6322 1.55623 29.5284 13.0396 27.0008 24.4171C24.474 35.7946 19.2891 41.7994 20.7762 47.8042C16.5767 44.644 12.3644 34.0036 12.2593 32.7392C12.1538 31.4752 6.99391 29.1572 4.04582 24.8382C1.097 20.5192 -0.693169 12.8285 0.255208 10.4053C1.2025 7.98252 2.36078 3.65879 6.04626 3.08174C9.73246 2.50432 11.9432 5.24342 11.4164 8.82506C10.8904 12.4071 12.856 13.6011 14.2601 12.8285" transform="translate(21.05521 47.80423)" id="Fill-368" fill="url(#gradient_7)" stroke="none" />
            <path d="M5.65196 0.186681C2.23038 -1.18287 -0.228964 5.34824 0.840394 7.87697C1.60385 9.68248 0.623578 11.4329 0 12.287C4.74825 20.6842 1.95503 31.2637 2.97911 40.5086C3.40649 44.3738 5.94203 47.6327 6.17393 47.8042C4.66395 41.7994 9.92865 35.7946 12.4944 24.4171C15.0608 13.0396 9.0739 1.55623 5.65196 0.186681" transform="translate(35.55225 47.80423)" id="Fill-369" fill="url(#gradient_3)" stroke="none" />
            <path d="M10.8521 10.8775C10.8521 10.8775 11.3808 8.31567 9.63495 7.08051C7.88766 5.84609 6.78085 0.523667 9.58105 0.0323887C12.3809 -0.459622 21.0528 4.68636 24.1008 13.2552C27.1489 21.8244 26.2078 27.9437 29.6844 31.2963C25.5908 30.9485 18.3857 25.6616 17.7907 24.8687C17.1971 24.0772 12.8179 24.6845 9.07219 23.0515C5.32649 21.4191 0.949466 17.0774 0.57112 15.0823C0.193139 13.0879 -0.834117 9.74996 1.36704 7.83976C3.56857 5.93029 6.17007 6.82389 7.30767 9.40988C8.44601 11.9962 10.2428 11.9702 10.8521 10.8775" transform="translate(41.07492 52.27513)" id="Fill-370" fill="url(#gradient_7)" stroke="none" />
            <path d="M1.70041 0.0323887C-1.09169 0.523667 0.0119132 5.84609 1.75414 7.08051C2.99776 7.9624 3.08366 9.52007 3.03248 10.339C9.59527 13.9511 12.1567 22.085 16.6486 27.7786C18.5265 30.1585 21.524 31.2776 21.7455 31.2963C18.279 27.9437 19.2174 21.8244 16.1782 13.2552C13.1389 4.68636 4.49214 -0.459622 1.70041 0.0323887" transform="translate(49.01377 52.27513)" id="Fill-371" fill="url(#gradient_3)" stroke="none" />
            <path d="M22.7777 16.5006C22.7777 16.5006 25.3235 13.6502 23.8384 8.16661C22.3529 2.68301 25.0054 -1.32995 28.8253 0.41153C32.6444 2.15301 30.6285 10.5713 29.6734 13.4126C28.7186 16.2538 32.8563 24.4017 29.0371 27.0604C25.2176 29.7185 22.5651 31.7293 19.9133 32.8444C17.2601 33.9596 14.3961 37.352 12.381 38.5182C10.3648 39.6848 5.06013 48.3783 4.52941 52.619C2.19541 45.5159 -1.30559 35.839 0.498058 29.1742C2.3017 22.5094 1.02878 21.2571 3.25612 17.0061C5.48456 12.7552 3.14983 10.552 7.28784 8.20785C11.4255 5.86374 13.4413 0.847721 16.3057 0.758293C19.1704 0.668499 23.8384 -0.194758 22.6714 4.31863C21.5044 8.83239 19.7011 17.0649 22.7777 16.5006" transform="translate(0 26.13757)" id="Fill-372" fill="url(#gradient_7)" stroke="none" />
            <path d="M25.193 13.4126C26.1435 10.5713 28.1495 2.15301 24.349 0.41153C20.5478 -1.32995 17.9082 2.68301 19.3864 8.16661C20.8643 13.6502 18.3309 16.5006 18.3309 16.5006C17.9674 16.5674 17.6737 16.5094 17.4382 16.3498C4.87969 23.5844 1.59022 38.4638 0 52.0953C0.057793 52.2708 0.115222 52.446 0.171561 52.619C0.699695 48.3783 5.97848 39.6848 7.98488 38.5182C9.99019 37.352 12.8402 33.9596 15.4805 32.8444C18.1194 31.7293 20.7589 29.7185 24.5598 27.0604C28.3603 24.4017 24.2429 16.2538 25.193 13.4126" transform="translate(4.142009 26.13757)" id="Fill-373" fill="url(#gradient_3)" stroke="none" />
            <path d="M11.8948 8.73555C11.8948 8.73555 13.2246 7.22614 12.4484 4.32324C11.6732 1.42034 13.0581 -0.704205 15.0534 0.217945C17.0477 1.13973 15.9948 5.59605 15.4959 7.10033C14.9973 8.60496 17.1581 12.9182 15.1635 14.3257C13.1685 15.7331 11.784 16.7979 10.3991 17.3881C9.01347 17.9783 7.51815 19.7742 6.46526 20.3919C5.41238 21.0092 2.64259 25.6119 2.36561 27.8571C1.14618 24.0963 -0.681886 18.9738 0.260205 15.4448C1.20157 11.9165 0.537185 11.2533 1.70086 9.00295C2.86381 6.75259 1.6451 5.58615 3.80554 4.34488C5.96706 3.10397 7.01886 0.448666 8.51563 0.401348C10.011 0.353663 12.4484 -0.10301 11.839 2.286C11.2304 4.6761 10.2879 9.03413 11.8948 8.73555" transform="translate(14.15186 66.37566)" id="Fill-374" fill="url(#gradient_7)" stroke="none" />
            <path d="M13.4142 7.10033C13.9205 5.59605 14.9887 1.13973 12.9653 0.217945C10.9409 -0.704205 9.53574 1.42034 10.3222 4.32324C11.1098 7.22614 9.76056 8.73555 9.76056 8.73555C9.56733 8.77076 9.41047 8.74031 9.28557 8.65558C2.59865 12.4858 0.847115 20.3629 0 27.5791C0.031225 27.6723 0.0617152 27.7658 0.0922055 27.8571C0.37323 25.6119 3.18348 21.0092 4.25174 20.3919C5.32 19.7742 6.83717 17.9783 8.24302 17.3881C9.64815 16.7979 11.0529 15.7331 13.077 14.3257C15.1008 12.9182 12.9084 8.60496 13.4142 7.10033" transform="translate(16.56804 66.37566)" id="Fill-375" fill="url(#gradient_3)" stroke="none" />
            <path d="M13.0243 9.99609C13.0243 9.99609 20.0606 10.9348 19.267 4.93027C18.4726 -1.07431 1.97093 -4.42055 0 12.037C7.48563 9.13226 13.0243 9.99609 13.0243 9.99609" transform="translate(10.35502 2.063492)" id="Fill-376" fill="url(#gradient_3)" stroke="none" />
            <path d="M5.47877 11.6872C5.62217 12.0952 5.40288 12.5402 4.98727 12.6815C4.57313 12.8229 4.11994 12.6069 3.97617 12.1989L0.0441587 1.03812C-0.0999714 0.630138 0.12042 0.184839 0.534931 0.0431043C0.949806 -0.0979129 1.40263 0.118457 1.54603 0.526079L5.47877 11.6872" transform="translate(18.63904 0)" id="Fill-377" fill="url(#gradient_8)" stroke="none" />
            <path d="M19.3294 7.42602C19.3294 7.42602 16.5381 -1.32454 9.23793 0.172246C1.9378 1.6694 -1.1066 6.10258 0.357811 13.7566C1.49928 8.72667 10.2558 0.567794 19.3294 7.42602" transform="translate(8.629186 8.597883)" id="Fill-378" fill="url(#gradient_3)" stroke="none" />
            <path d="M6.3049 9.99607C6.3049 9.99607 -0.731564 10.9352 0.0624827 4.93018C0.856167 -1.0741 17.358 -4.42075 19.3294 12.037C11.8436 9.13186 6.3049 9.99607 6.3049 9.99607" transform="translate(29.6844 10.66138)" id="Fill-379" fill="url(#gradient_3)" stroke="none" />
            <path d="M0.0440553 11.6869C-0.0997268 12.0949 0.119961 12.5399 0.53525 12.6816C0.94981 12.823 1.40269 12.6066 1.54574 12.1986L5.47858 1.03757C5.62236 0.629593 5.40304 0.184658 4.98775 0.043284C4.57356 -0.0980905 4.12068 0.118277 3.9769 0.525895L0.0440553 11.6869" transform="translate(35.20708 8.597883)" id="Fill-380" fill="url(#gradient_8)" stroke="none" />
            <path d="M0 7.42589C0 7.42589 2.79062 -1.32485 10.0912 0.172328C17.3915 1.66915 20.4355 6.10243 18.9718 13.7566C17.8304 8.72656 9.07299 0.567523 0 7.42589" transform="translate(31.41024 17.19577)" id="Fill-381" fill="url(#gradient_3)" stroke="none" />
          </g>
        </g>
        <g id="Group-12" transform="translate(0 12.79602)">
          <path d="M27.2682 11.7779C26.35 9.6679 24.0398 8.7011 21.8355 8.93511C19.3516 9.19883 20.2517 10.4888 21.6819 10.2024C23.1126 9.91584 25.7108 10.8769 26.473 11.5539C27.2363 12.2315 27.5481 15.3312 26.6834 17.6752C26.3819 15.3914 24.8601 13.392 22.7435 12.6114C20.9608 11.9541 20.8613 13.7762 22.3255 14.2045C23.7895 14.6328 26.5538 18.749 26.5538 18.749C25.8607 20.9247 25.3974 21.9959 24.2811 24.0628C24.2811 24.0628 24.7236 20.8948 23.2467 18.5978C21.7698 16.3008 19.7867 16.7881 19.7434 17.6576C19.719 18.148 20.0663 18.2646 20.6758 18.4693C21.1467 18.6275 21.774 18.8382 22.5072 19.3143C24.19 20.4065 23.972 25.1035 23.972 25.1035C23.1738 26.1508 22.753 26.6587 21.8791 27.6368C22.1917 25.3969 22.0438 22.8767 20.8961 20.9403C19.9306 19.3106 19.3564 22.6464 20.8153 23.3327C22.2743 24.0189 21.7149 27.5067 21.7149 27.5067C21.7149 27.5067 21.1314 29.007 18.7359 30.9974C21.6135 25.4393 18.3357 25.8928 18.7275 27.1041C19.1196 28.3157 17.6511 31.4081 17.6511 31.4081C16.3545 32.2584 15.7016 32.6488 14.4079 33.3598C14.4079 33.3598 12.1305 32.0188 11.9169 31.3891C11.7033 30.7594 12.6925 27.9939 14.4322 25.9428C16.1721 23.8914 17.7224 21.0147 16.9036 20.9555C16.474 20.9243 16.2363 21.3322 15.8626 21.9734C15.5244 22.5537 15.0748 23.3251 14.2709 24.1351C12.579 25.8405 12.4586 26.3014 10.2744 28.7538C11.2798 26.0934 11.7843 24.9812 13.1504 23.5777C14.5164 22.1742 16.308 18.784 15.2081 19.049C13.0405 19.5712 11.2885 24.463 9.81237 26.9372C10.017 24.9055 10.4851 22.3493 11.5409 20.8204C12.2701 19.7634 14.2495 16.6892 13.5554 16.5667C12.8615 16.4441 11.1583 19.2919 10.969 20.4047C10.7797 21.5184 9.31628 24.8779 9.31628 24.8779C9.31628 24.8779 9.22202 23.4021 7.729 22.4258C7.47901 20.443 9.02584 18.5109 10.3266 16.886C10.6442 16.4894 10.9471 16.111 11.2056 15.7547C12.5056 13.9626 10.3325 15.0564 9.24499 16.5325C8.1575 18.0086 7.56927 18.8507 6.39201 20.7194C6.40844 20.3373 6.27619 19.8491 6.1337 19.3231C5.88919 18.4204 5.61451 17.4064 6.00918 16.6261C6.63332 15.3911 9.27007 13.7362 9.61726 12.5378C9.96418 11.3393 7.18195 12.5612 5.77975 14.9105C4.89713 16.3897 4.76512 17.1015 4.80077 17.448C4.5246 16.7058 3.31276 14.7519 2.90643 13.9397C2.40585 12.9372 4.31999 11.8313 6.66738 11.0428C9.01477 10.254 6.1433 9.49726 4.21438 10.5109C2.28493 11.5247 2.21761 13.1935 2.21761 13.1935C2.21761 13.1935 -0.822039 12.1458 0.216083 8.97008C1.36509 5.45522 7.16796 6.35261 9.68485 8.0046C11.3527 9.09918 11.6869 8.33379 11.6869 8.33379C11.6869 8.33379 11.6882 8.33458 11.8276 8.03957C11.967 7.74456 9.25186 6.41439 6.83239 5.73235C4.41292 5.05031 4.91192 3.08964 5.95347 1.75158C7.90431 -0.754671 13.8495 -0.165707 16.7785 1.01406C14.5254 1.60934 12.2994 4.83997 13.0622 6.90792C13.6354 8.46078 15.6358 6.40546 16.4984 5.45049C16.8697 5.03925 16.7195 4.51425 16.5585 3.9514C16.3456 3.20758 16.1139 2.39767 17.042 1.69689C19.2355 0.0396419 22.4697 2.61689 23.5403 4.67169C21.1446 3.79377 18.0006 5.79993 16.2597 7.23211C14.7207 8.49838 17.6131 9.17832 18.7703 7.17821C19.9282 5.17809 21.4292 5.0653 23.2485 5.23489C25.871 5.47941 27.0861 9.4147 27.2682 11.7779ZM17.0898 11.9194C17.2315 12.0743 17.369 12.2316 17.5019 12.3914C18.6114 12.4854 19.6059 12.2473 20.1963 11.4387C19.1203 10.0037 17.2251 10.899 17.0898 11.9194ZM11.5248 13.0548C10.6629 12.6232 11.0389 12.4263 11.475 12.1979C11.7054 12.0773 11.9524 11.9479 12.0427 11.7705C12.2103 11.6342 12.3039 11.7489 12.4126 11.8821C12.4964 11.9848 12.5892 12.0984 12.7316 12.1164C12.6308 12.7849 11.6941 13.2035 11.5248 13.0548ZM14.8373 30.0523C15.9058 28.5418 16.1973 27.2605 17.4664 26.2901C18.0408 25.7684 18.0444 25.144 17.9754 24.7243C17.9743 24.7202 17.9732 24.7161 17.9721 24.712C17.925 24.5371 17.8914 24.4121 17.1718 24.9904C15.7467 26.0869 14.3683 27.7975 13.8946 29.7628C13.7149 30.3969 14.3605 30.6984 14.8373 30.0523Z" transform="matrix(0.9876884 -0.1564345 0.1564345 0.9876884 168.7616 130.8914)" id="Fill-432" fill="url(#gradient_3)" fill-rule="evenodd" stroke="none" />
          <path d="M39.6644 23.4425C39.3297 21.4496 37.1219 19.4574 33.3712 18.2616C29.6214 17.0662 29.6273 18.7929 31.9688 19.3246C34.3113 19.8556 37.59 21.981 38.4597 22.9112C39.3297 23.8411 38.5934 26.6969 36.7872 28.6895C36.5863 26.6969 34.2445 23.7084 31.701 22.182C29.1586 20.6567 27.8205 22.4459 30.0286 23.575C32.237 24.7043 36.5191 29.6858 36.5191 29.6858L33.3073 34.4682C33.3073 34.4682 32.7051 31.4793 30.1626 28.5568C27.6195 25.6346 24.3408 25.1696 23.9389 26.1659C23.6832 26.8015 24.4076 27.1127 25.7821 27.703C26.5621 28.0381 27.5515 28.463 28.6898 29.0881C31.8351 30.8152 33.2404 35.4645 33.2404 35.4645L30.6311 37.8553C30.6311 37.8553 27.6195 32.6083 25.5455 30.4166C23.4712 28.2249 22.6005 32.077 25.813 33.14C29.0248 34.2027 30.1626 37.7229 30.1626 37.7229C30.1626 37.7229 30.0958 39.1178 27.2848 41.3095C26.7495 35.5975 21.6643 35.7967 23.4036 37.1916C25.1439 38.5861 25.4114 41.8408 25.4114 41.8408L20.9949 44.3651C20.9949 44.3651 13.9687 43.5015 12.6972 42.7707C11.4256 42.0403 10.8238 37.9884 13.5675 35.3317C16.3109 32.6747 19.3887 29.487 17.8496 29.0881C16.9706 28.8604 16.4407 29.3914 15.5616 30.2725C14.9019 30.9337 14.0455 31.792 12.6972 32.6747C9.55289 34.734 9.21754 35.3317 6.34007 39.3169C6.47382 35.0662 7.7457 33.2064 10.4226 31.4796C13.0988 29.7525 17.9837 26.5645 15.3737 25.701C12.7641 24.8374 7.94599 29.6198 4.26605 36.2616C3.59667 34.0699 6.00407 27.4512 8.14693 26.2323C10.2901 25.0131 15.3065 21.9149 14.37 21.2508C13.4334 20.5864 8.41475 23.4425 7.41068 25.1696C6.4076 26.8964 2.86075 32.3428 2.86075 32.3428C2.86075 32.3428 2.65981 29.6861 0.719204 26.5645C1.12076 22.0473 8.13021 19.6402 11.8439 18.2954C15.5576 16.9504 11.543 16.5017 8.43147 17.5978C5.31994 18.6937 3.56324 19.3412 0 21.882C1.10372 19.8393 2.20809 15.3563 4.61713 14.2602C7.02584 13.1646 12.0445 13.8616 14.1022 12.8653C16.1604 11.869 11.8439 10.2753 6.97569 11.6197C3.90907 12.4673 2.69554 13.4327 2.21662 14.0317C3.04858 12.4921 5.35502 8.30972 6.57478 6.93729C8.08006 5.24372 10.9408 6.68838 13.9019 8.38195C16.8626 10.0758 16.11 6.58881 13.3495 5.32408C10.5894 4.06 7.57819 5.32408 7.57819 5.32408C7.57819 5.32408 8.281 0.859949 14.9554 0.0631075C21.6305 -0.734059 21.6305 6.24001 21.0785 8.63119C20.5262 11.0224 22.2327 10.6235 22.2327 10.6235L22.8021 10.4907C23.241 10.3877 23.2014 8.38649 23.1605 6.31815C23.1484 5.70649 23.1361 5.08896 23.1361 4.51292C23.1361 1.98867 26.6823 1.65679 29.9617 1.72284C33.2404 1.78987 37.1888 6.23969 37.791 9.09582C35.3819 7.83369 27.3517 8.63086 25.6124 10.5567C23.9553 12.3915 28.3676 12.1171 30.6988 11.9721C30.8154 11.9649 30.9268 11.958 31.032 11.9516C31.9655 11.8957 32.5403 11.448 33.1607 10.9647C34.008 10.3048 34.9404 9.57857 36.9879 9.69353C40.5344 9.89266 41.3372 13.1474 40.1331 15.738C39.3969 14.2764 31.7682 13.2138 28.3554 13.2138C24.943 13.2138 27.4858 15.8041 31.2998 14.8741C34.8295 14.0137 36.4103 14.7456 38.5887 15.7542C38.7646 15.8356 38.9444 15.9188 39.1294 16.0032C41.605 17.1322 40.7353 20.985 39.6644 23.4425ZM15.1812 14.9856C14.8031 13.7919 15.42 13.9066 16.1321 14.039C16.5028 14.1079 16.8994 14.1816 17.1948 14.0781C17.5179 14.0781 17.4781 14.2689 17.4321 14.4897C17.3961 14.6622 17.3564 14.853 17.4825 14.9856C16.6195 15.591 15.1812 15.2881 15.1812 14.9856ZM23.6526 17.9849L23.6526 18.8522C25.0738 19.7199 26.7795 20.009 28.4849 19.4308C28.4849 17.1175 25.0738 16.8284 23.6526 17.9849ZM16.8835 40.8154C17.4646 38.8284 17.1744 37.1255 19.2078 35.9899C20.0798 35.3691 19.7889 34.5708 19.4987 34.0029C19.4942 33.996 19.4897 33.9891 19.4852 33.9823C19.3295 33.7438 19.2097 33.5604 17.9909 34.2162C15.5484 35.4546 13.4815 37.8996 14.5592 40.5316C14.8501 41.3833 16.593 41.6672 16.8835 40.8154Z" transform="matrix(0.9510565 0.309017 -0.309017 0.9510565 138.67 111.9966)" id="Fill-424" fill="url(#gradient_3)" fill-rule="evenodd" stroke="none" />
          <g id=",jkmijt-hfcntybt">
            <path d="M0.195873 1.17308C2.11827 7.33701 17.633 58.1113 20.5906 96.6402L22.4359 96.5006C20.8405 75.7733 15.6734 51.6681 10.906 32.725C6.13854 13.7837 1.76995 0.0122927 1.76552 0L0 0.549661C0 0.550539 0.0673591 0.76215 0.195873 1.17308Z" transform="translate(22.78105 44.29393)" id="Fill-50" fill="url(#gradient_6)" stroke="none" />
            <path d="M30.6703 0C30.4918 0.231393 11.0944 24.0209 0 128.087L1.83508 128.28C7.36947 76.3429 14.9767 44.5031 21.1829 25.6793C24.2856 16.267 27.0373 10.1091 29.0023 6.31887C29.9853 4.42374 30.7711 3.12072 31.305 2.29809C31.5729 1.88721 31.777 1.59599 31.9114 1.41123C31.9786 1.31885 32.029 1.25286 32.0608 1.21239L32.0944 1.16928L32.1006 1.16136L31.9777 1.06194L32.0997 1.16224L32.1006 1.16136L31.9777 1.06194L32.0997 1.16224L30.6703 0" transform="translate(51.42995 12.65371)" id="Fill-53" fill="url(#gradient_6)" stroke="none" />
            <g id="листик-1" transform="translate(0 35.69604)">
              <path d="M21.6399 3.34855C21.6399 3.34855 15.0217 1.28956 9.23096 12.8181C1.70094 27.8093 -8.55503 53.9918 12.5405 54.4036C12.5405 54.4036 32.8077 56.0508 39.8396 24.3467C46.8714 -7.35731 28.258 -0.357626 21.6399 3.34855" id="Fill-51" fill="url(#gradient_9)" stroke="none" />
              <g clip-path="url(#mask_2)">
                <path d="M21.6399 3.67204C21.6399 3.67204 15.0217 1.41414 9.23096 14.0564C1.70094 30.4958 -8.55503 59.2076 12.5405 59.6592C12.5405 59.6592 32.8077 61.4655 39.8396 26.6987C46.8714 -8.06805 28.258 -0.392174 21.6399 3.67204" transform="translate(8.801898 -5.256992)" id="Fill-51" fill="url(#gradient_3)" stroke="none" />
              </g>
            </g>
            <g id="Group-28" transform="matrix(-0.9925461 -0.1218693 -0.1218693 0.9925461 68.95852 57.40186)">
              <path d="M13.1703 2.07391C13.1703 2.07391 9.1424 0.798687 5.61807 7.93887C1.03521 17.2236 -5.20669 33.4396 7.63228 33.6947C7.63228 33.6947 19.9672 34.7148 24.2468 15.0791C28.5265 -4.55672 17.1982 -0.221494 13.1703 2.07391" id="Fill-51" fill="url(#gradient_9)" stroke="none" />
              <g clip-path="url(#mask_3)">
                <path d="M13.1703 2.29222C13.1703 2.29222 9.1424 0.88276 5.61807 8.77454C1.03521 19.0366 -5.20669 36.9596 7.63228 37.2415C7.63228 37.2415 19.9672 38.369 24.2468 16.6663C28.5265 -5.03638 17.1982 -0.244809 13.1703 2.29222" transform="translate(5.213218 -3.547758)" id="Fill-51" fill="url(#gradient_4)" stroke="none" />
              </g>
            </g>
            <path d="M0.581305 1.83384L0.497604 0.930136L0.497604 1.83736L0.581305 1.83384L0.497604 0.930136L0.497604 1.83736L0.497604 1.08061L0.0662246 1.72561C0.141647 1.77488 0.307209 1.83912 0.497604 1.83736L0.497604 1.08061L0.0662246 1.72561L0.286973 1.39563L0.000919786 1.67809L0.0662246 1.72561L0.286973 1.39563L0.000919786 1.67809L0.0183957 1.66137L0 1.67633L0.000919786 1.67809L0.0183957 1.66137L0 1.67633C0.0211551 1.69569 0.193155 1.91832 0.414824 2.48148C0.810332 3.4679 1.38336 5.4777 2.01065 9.3081C3.90173 20.8134 6.33549 48.7226 7.05292 115.899L8.97435 115.88C8.36086 58.5939 6.50565 29.8337 4.78565 15.3489C3.92289 8.10258 3.1006 4.43232 2.45307 2.49556C2.12563 1.52498 1.85061 0.985573 1.57099 0.616875C1.42935 0.433847 1.28218 0.289536 1.1019 0.177783C0.924385 0.0660294 0.699037 -0.00172642 0.497604 3.34676e-05L0.412064 0.00355325L0.581305 1.83384" transform="translate(41.07492 25.03467)" id="Fill-56" fill="url(#gradient_6)" stroke="none" />
            <path d="M12.0809 3.71015C12.0586 3.67672 11.5289 2.8154 10.6631 1.91802C10.2275 1.4702 9.70753 1.01007 9.09865 0.64408C8.49065 0.280727 7.77687 0.00183312 6.97687 7.35365e-05C6.22221 -0.00520521 5.42399 0.273688 4.73688 0.844672C4.04532 1.41478 3.43999 2.24882 2.88888 3.40486C2.76888 3.65912 2.68177 3.9345 2.59733 4.26178C2.27911 5.5146 2.02577 7.57683 1.79288 10.3798C0.984887 20.1605 0.539554 38.7557 0.292444 57.9387C0.0453332 77.1172 0 96.865 0 108.881C0 115.971 0.016 120.369 0.016 120.37L1.872 120.363C1.872 120.361 1.86755 119.265 1.864 117.281C1.86044 115.296 1.856 112.425 1.856 108.881C1.856 94.7113 1.92 69.7815 2.30133 47.7331C2.49244 36.7085 2.76266 26.4035 3.14399 18.532C3.33421 14.5976 3.55288 11.2693 3.80088 8.77598C3.92532 7.52932 4.05688 6.49117 4.19288 5.70112C4.32355 4.91722 4.48177 4.35504 4.56888 4.187C5.0391 3.19459 5.51643 2.59018 5.92265 2.2585C6.33332 1.92857 6.64798 1.84235 6.97687 1.83708C7.32265 1.83532 7.72087 1.96553 8.13687 2.21539C8.75998 2.5849 9.37687 3.20779 9.81064 3.73654C10.0293 4.00048 10.2053 4.23978 10.3235 4.40958C10.3831 4.49492 10.4284 4.56179 10.4578 4.60754L10.4898 4.6568L10.4969 4.66824L12.0809 3.71015" transform="translate(48.32344 15.40504)" id="Fill-61" fill="url(#gradient_6)" stroke="none" />
            <g id="Group-25" transform="translate(53.15578 11.62197)">
              <path d="M29.7013 53.6517C29.7013 53.6517 35.4407 38.417 25.6005 14.1253C15.7604 -10.1673 6.73958 4.24301 6.73958 4.24301C6.73958 4.24301 -3.10055 3.41942 0.999356 35.1235L8.78997 26.4766L5.10014 40.476L12.4798 49.9455L16.5806 42.9467L16.9907 52.8281C16.9907 52.8281 28.061 55.7098 29.7013 53.6517" id="Fill-62" fill="url(#gradient_10)" stroke="none" />
              <g clip-path="url(#mask_4)">
                <path d="M29.7013 53.6517C29.7013 53.6517 35.4407 38.417 25.6005 14.1253C15.7604 -10.1673 6.73958 4.24301 6.73958 4.24301C6.73958 4.24301 -3.10055 3.41942 0.999356 35.1235L8.78997 26.4766L5.10014 40.476L12.4798 49.9455L16.5806 42.9467L16.9907 52.8281C16.9907 52.8281 28.061 55.7098 29.7013 53.6517" transform="translate(-1.745013 3.504661)" id="Fill-62" fill="url(#gradient_10)" stroke="none" />
                <path d="M24.0742 49.9283C24.0716 49.9116 22.584 37.5358 19.0381 25.1232C17.2635 18.9155 14.9784 12.7 12.0764 7.98975C10.6237 5.63462 9.01565 3.65274 7.2148 2.24211C5.41743 0.833236 3.4063 -0.00174958 1.21893 2.75265e-06C0.985971 2.75265e-06 0.750394 0.00876441 0.513945 0.02804C0.206822 0.0534488 -0.022647 0.323308 0.00178314 0.632594C0.0262133 0.941004 0.295818 1.17144 0.60294 1.14603C0.810597 1.12938 1.01564 1.12149 1.21893 1.12149C3.11925 1.12325 4.87124 1.83294 6.52901 3.12704C9.4266 5.38754 11.9586 9.45733 14.0631 14.2938C17.2277 21.5475 19.4604 30.5019 20.8931 37.6322C21.6103 41.1973 22.1285 44.3077 22.468 46.5253C22.6372 47.6345 22.762 48.5203 22.844 49.1275C22.926 49.7355 22.9653 50.0623 22.9653 50.0632C23.0028 50.3707 23.2803 50.5898 23.5865 50.5521C23.8928 50.5153 24.1109 50.2358 24.0742 49.9283" transform="translate(6.107546 4.380826)" id="Fill-63" fill="url(#gradient_11)" stroke="none" />
              </g>
            </g>
            <g id="list4" transform="matrix(0.7660444 -0.6427876 0.6427876 0.7660444 73.66782 17.78896)">
              <path d="M24.2751 42.3867C24.2751 42.3867 28.9659 30.3507 20.9235 11.1595C12.8811 -8.03251 5.5083 3.35213 5.5083 3.35213C5.5083 3.35213 -2.5341 2.70146 0.81678 27.7488L7.1841 20.9174L4.16838 31.9774L10.1998 39.4587L13.5514 33.9294L13.8866 41.7361C13.8866 41.7361 22.9345 44.0127 24.2751 42.3867" transform="translate(0.1709947 0.3032773)" id="Fill-62" fill="url(#gradient_10)" stroke="none" />
              <g clip-path="url(#mask_5)">
                <path d="M24.2751 42.3867C24.2751 42.3867 28.9659 30.3507 20.9235 11.1595C12.8811 -8.03251 5.5083 3.35213 5.5083 3.35213C5.5083 3.35213 -2.5341 2.70146 0.81678 27.7488L7.1841 20.9174L4.16838 31.9774L10.1998 39.4587L13.5514 33.9294L13.8866 41.7361C13.8866 41.7361 22.9345 44.0127 24.2751 42.3867" transform="translate(-3.238217 4.33413)" id="Fill-62" fill="url(#gradient_7)" stroke="none" />
                <path d="M15.3765 20.047C13.9431 15.0936 12.0975 10.1339 9.75372 6.3754C8.5804 4.49613 7.28165 2.91469 5.82716 1.78908C4.37549 0.664878 2.75116 -0.00139607 0.984491 2.19647e-06C0.796337 2.19647e-06 0.606069 0.00699353 0.415096 0.0223745C0.167044 0.0426493 -0.0182913 0.257982 0.00144018 0.504777C0.0211717 0.750872 0.238923 0.934744 0.486975 0.914469C0.654693 0.901185 0.820296 0.894893 0.984491 0.894893C2.51932 0.896291 3.93435 1.46259 5.27327 2.49521C7.61356 4.29897 9.65859 7.54645 11.3583 11.4057C13.9142 17.1938 15.7176 24.3389 16.8747 30.0285C17.4539 32.8733 17.8725 35.3552 18.1466 37.1247C18.2834 38.0098 18.3841 38.7166 18.4504 39.2011C18.5166 39.6863 18.5483 39.9471 18.5483 39.9478C18.5786 40.1932 18.8027 40.368 19.0501 40.3379C19.2974 40.3085 15.969 39.6994 19.444 39.8401C19.4419 39.8268 18.2404 29.9516 15.3765 20.047Z" transform="translate(6.027978 4.491373)" id="Fill-63" fill="url(#gradient_12)" stroke="none" />
              </g>
            </g>
            <g id="list2" transform="matrix(0.1736482 0.9848077 0.9848077 -0.1736482 1.81751 8.37315)">
              <path d="M24.2751 42.3867C24.2751 42.3867 28.9659 30.3507 20.9235 11.1595C12.8811 -8.03251 5.5083 3.35213 5.5083 3.35213C5.5083 3.35213 -2.5341 2.70146 0.81678 27.7488L7.1841 20.9174L4.16838 31.9774L10.1998 39.4587L13.5514 33.9294L13.8866 41.7361C13.8866 41.7361 22.9345 44.0127 24.2751 42.3867" transform="translate(0.1709947 0.3032773)" id="Fill-62" fill="url(#gradient_10)" stroke="none" />
              <g clip-path="url(#mask_5)">
                <path d="M24.2751 42.3867C24.2751 42.3867 28.9659 30.3507 20.9235 11.1595C12.8811 -8.03251 5.5083 3.35213 5.5083 3.35213C5.5083 3.35213 -2.5341 2.70146 0.81678 27.7488L7.1841 20.9174L4.16838 31.9774L10.1998 39.4587L13.5514 33.9294L13.8866 41.7361C13.8866 41.7361 22.9345 44.0127 24.2751 42.3867" transform="translate(-3.238217 4.33413)" id="Fill-62" fill="url(#gradient_7)" stroke="none" />
                <path d="M15.3765 20.047C13.9431 15.0936 12.0975 10.1339 9.75372 6.3754C8.5804 4.49613 7.28165 2.91469 5.82716 1.78908C4.37549 0.664878 2.75116 -0.00139607 0.984491 2.19647e-06C0.796337 2.19647e-06 0.606069 0.00699353 0.415096 0.0223745C0.167044 0.0426493 -0.0182913 0.257982 0.00144018 0.504777C0.0211717 0.750872 0.238923 0.934744 0.486975 0.914469C0.654693 0.901185 0.820296 0.894893 0.984491 0.894893C2.51932 0.896291 3.93435 1.46259 5.27327 2.49521C7.61356 4.29897 9.65859 7.54645 11.3583 11.4057C13.9142 17.1938 15.7176 24.3389 16.8747 30.0285C17.4539 32.8733 17.8725 35.3552 18.1466 37.1247C18.2834 38.0098 18.3841 38.7166 18.4504 39.2011C18.5166 39.6863 18.5483 39.9471 18.5483 39.9478C18.5786 40.1932 18.8027 40.368 19.0501 40.3379C19.2974 40.3085 15.969 39.6994 19.444 39.8401C19.4419 39.8268 18.2404 29.9516 15.3765 20.047Z" transform="translate(6.027978 4.491373)" id="Fill-63" fill="url(#gradient_12)" stroke="none" />
              </g>
            </g>
          </g>
          <g id="Group-6" transform="translate(61.09464 12.65371)" />
        </g>
      </g>
      <g id="Group-43" transform="matrix(-1 0 0 1 57.64296 96.64021)">
        <path d="M1.26849 29.5767C1.0861 29.1387 -3.10542 18.6328 4.82575 0L5.86785 0.462925C-1.84894 18.5917 2.27195 29.0203 2.31439 29.1238L1.26849 29.5767" transform="translate(17.25837 29.2328)" id="Fill-316" fill="url(#gradient_3)" stroke="none" />
        <path d="M11.3713 0C11.3713 0 12.5027 8.73952 12.7506 14.9408C13.2249 26.8024 5.38449 29.2723 2.03702 31.2963C-2.42766 22.6364 1.21525 14.8 5.59708 8.73272C9.97827 2.6658 10.8726 2.24778 11.3713 0" transform="translate(17.94871 5.502645)" id="Fill-317" fill="url(#gradient_4)" stroke="none" />
        <path d="M10.636 14.9408C10.182 8.73207 9.2667 0 9.2667 0C9.28072 4.69663 6.34708 20.1481 0.934416 29.6437C0.665983 30.1164 0.241335 30.8171 0 31.2963C3.66721 29.5235 11.4868 26.5624 10.636 14.9408" transform="translate(20.01971 5.502645)" id="Fill-318" fill="url(#gradient_3)" stroke="none" />
        <path d="M6.83846 26.4815L5.66715 26.4132C5.67729 26.2425 6.61336 9.28443 0 0.698305L0.935745 0C7.81216 8.92819 6.88165 25.769 6.83846 26.4815" transform="translate(11.04536 29.57672)" id="Fill-324" fill="url(#gradient_3)" stroke="none" />
        <path d="M0 0C0 0 7.81953 8.09165 12.8722 14.286C22.5366 26.1346 17.4518 35.0761 16.0359 39.8942C5.29821 34.602 2.4502 23.5477 1.64093 13.7164C0.831671 3.88506 1.30515 2.72507 0 0" id="Fill-325" fill="url(#gradient_3)" stroke="none" />
        <path d="M12.9462 14.286C7.66945 8.25518 0 0 0 0C3.69265 4.83275 13.1415 23.1806 15.6802 37.4217C15.8069 38.1305 15.9715 39.201 16.128 39.8942C18.0609 35.0523 22.8212 25.5744 12.9462 14.286" id="Fill-326" fill="url(#gradient_4)" stroke="none" />
        <path d="M23.1262 0C23.1262 0 13.1924 1.37698 7.86453 4.60014C-2.32698 10.7649 -0.702398 20.9372 2.20081 25.1058C11.9617 24.0439 11.9483 17.1322 14.5554 10.118C17.1628 3.10352 20.8824 1.21993 23.1262 0" transform="translate(14.15186 32.67196)" id="Fill-334" fill="url(#gradient_4)" stroke="none" />
        <path d="M12.1302 10.1307C9.54226 17.0952 9.52791 23.9538 0.00271747 25.1058C-0.102288 21.7488 2.84146 17.6525 7.85956 10.2291C10.245 6.7004 15.3782 3.03281 20.3226 0.0577954C20.5705 0.0200185 20.71 0 20.71 0C18.4638 1.22145 14.7404 3.10739 12.1302 10.1307" transform="translate(16.9132 32.67196)" id="Fill-335" fill="url(#gradient_3)" stroke="none" />
      </g>
    </g>
    <g id="screen" transform="translate(61 22)">
      <g id="Group-3" transform="translate(0 0.1010221)">
        <g filter="url(#filter_1)">
          <path d="M4.38235 26.827L144.618 0.0127019C147.038 -0.130868 149 0.959126 149 2.44727L149 132.613C149 134.101 147.038 135.424 144.618 135.568L4.38235 125.006C1.96205 125.149 0 124.059 0 122.571L0 29.7815C0 28.2934 1.96205 26.9706 4.38235 26.827Z" id="Rectangle" fill="url(#gradient_13)" stroke="none" />
        </g>
        <g clip-path="url(#mask_6)">
          <g filter="url(#filter_2)">
            <path d="M4.67322 25.4946L154.216 0.0182858C156.797 -0.188399 158.89 1.38076 158.89 3.52311L158.89 128.223C158.89 130.366 156.797 132.27 154.216 132.477L4.67322 137.987C2.09227 138.194 0 136.625 0 134.482L0 29.7478C0 27.6055 2.09227 25.7012 4.67322 25.4946Z" transform="translate(39.85097 2.614872)" id="Rectangle" fill="url(#gradient_14)" fill-opacity="0.5807292" stroke="none" />
          </g>
          <g filter="url(#filter_2)">
            <path d="M3.71744 25.4946L122.676 0.0182858C124.729 -0.188399 126.393 1.38076 126.393 3.52311L126.393 128.223C126.393 130.366 124.729 132.27 122.676 132.477L3.71744 137.987C1.66436 138.194 0 136.625 0 134.482L0 29.7478C0 27.6055 1.66436 25.7012 3.71744 25.4946Z" transform="translate(7.951276 28.42301)" id="Rectangle" fill="url(#gradient_14)" fill-opacity="0.5807292" stroke="none" />
          </g>
          <g filter="url(#filter_2)">
            <path d="M3.81912 12.8017L126.031 0.00918192C128.14 -0.0946016 129.85 0.693329 129.85 1.76907L129.85 64.3854C129.85 65.4612 128.14 66.4174 126.031 66.5211L3.81912 69.2881C1.70988 69.3919 0 68.604 0 67.5282L0 14.9374C0 13.8617 1.70988 12.9055 3.81912 12.8017Z" transform="translate(19.01392 71.47028)" id="Rectangle" fill="url(#gradient_14)" fill-opacity="0.5807292" stroke="none" />
          </g>
        </g>
      </g>
    </g>
    <g id="Group" transform="translate(78 45)">
      <g id="Group-8">
        <g filter="url(#filter_2)">
          <path d="M2.55695 18.47C3.46287 18.3715 103.244 0.00870829 103.244 0.00870829C104.149 -0.0897216 104.884 0.657564 104.884 1.67782L104.884 14.3112C104.884 15.3314 104.149 16.2383 103.244 16.3367C103.244 16.3367 3.46287 33.7809 2.55695 33.8793C2.38507 33.898 0.749364 34.2284 0.647017 33.1258C0.0559888 26.759 -0.0982796 24.3007 0.0559888 21.0026C0.159129 18.7976 2.26284 18.5019 2.55695 18.47Z" transform="translate(0.1161423 7.105427E-14)" id="Rectangle" fill="url(#gradient_15)" stroke="none" />
        </g>
        <g clip-path="url(#mask_7)">
          <path d="M1.69889 5.13414L29.629 0.00899018C30.5672 -0.092626 31.3279 0.67885 31.3279 1.73213L31.3279 15.8152C31.3279 16.8685 30.5672 17.8048 29.629 17.9064L1.69889 22.4301C0.760619 22.5317 0 21.7602 0 20.7069L0 7.22526C0 6.17198 0.760619 5.23576 1.69889 5.13414Z" transform="translate(79.18033 -2.081633)" id="Rectangle" fill="url(#gradient_16)" stroke="none" />
          <path d="M10.4849 0.470121C10.4239 0.480932 10.3698 0.520185 10.3357 0.572217L9.52771 0.623424C9.49652 0.567744 9.43384 0.5371 9.36151 0.549931C9.30412 0.560111 9.25281 0.595498 9.21848 0.643022L8.36261 0.697266C8.33186 0.640144 8.26847 0.608485 8.19516 0.62149C8.13678 0.631847 8.08468 0.668287 8.05036 0.717056L7.19932 0.770994C7.17502 0.698521 7.10448 0.655566 7.02112 0.670353C6.95256 0.682516 6.89267 0.730659 6.86005 0.792496L5.9853 0.847936C5.96299 0.766271 5.88194 0.719493 5.79644 0.737902C5.72657 0.75321 5.66716 0.80541 5.63738 0.869987L4.62617 0.934076L4.62466 0.922208C4.61149 0.819821 4.51842 0.762768 4.41532 0.793747C4.33916 0.817098 4.27954 0.883016 4.25919 0.957335L3.13713 1.02845C3.11357 0.931587 3.01516 0.885037 2.91545 0.925034C2.85715 0.948185 2.81113 0.995603 2.78677 1.05065L1.72131 1.11818L1.83979 1.46115L2.82049 1.39899L3.27491 3.46961L2.39709 3.62533L1.36768 0.339542C1.30753 0.14765 1.14388 0.024922 0.940182 0.0192405L0.224 0.000114574C0.121601 -0.0035704 0.0237825 0.0821039 0.00367582 0.189096C-0.0166217 0.296316 0.0491915 0.385251 0.150488 0.388006L0.866501 0.407162C0.93452 0.409106 0.989176 0.449997 1.0093 0.513991L2.7939 6.21053L1.81764 8.23518C1.72292 8.4314 1.7275 8.64226 1.82971 8.79908C1.93211 8.95583 2.11237 9.0284 2.31204 8.99298L10.1104 7.6096C10.2139 7.59124 10.2976 7.49089 10.2976 7.38521C10.2976 7.27954 10.2139 7.2089 10.1104 7.22726L2.31208 8.61063C2.21608 8.62766 2.16764 8.57109 2.15137 8.546C2.13492 8.52092 2.10183 8.4523 2.14734 8.35799L3.11202 6.35755L10.1523 4.56949C10.4437 4.49557 10.6721 4.2038 10.6721 3.90545L10.6721 0.901368L10.8069 0.892826C10.8146 0.892491 10.8222 0.891487 10.8297 0.890157C10.9228 0.873647 11.0035 0.794754 11.015 0.704359C11.0275 0.60676 10.9547 0.532838 10.8522 0.539483L10.6554 0.55195C10.626 0.491036 10.5607 0.456665 10.4849 0.470121ZM9.54875 0.972567L10.2977 0.925102L10.2977 2.22382L9.54875 2.35667L9.54875 0.972567ZM9.17427 0.9963L8.38239 1.04649L8.38239 2.56357L9.17427 2.4231L9.17427 0.9963ZM7.20836 2.77184L7.20836 1.1209L8.00792 1.07022L8.00792 2.63L7.20836 2.77184ZM6.83389 1.14463L6.00386 1.19724L6.07639 2.97266L6.83389 2.83829L6.83389 1.14463ZM4.91175 3.17926L4.67039 1.28175L5.62739 1.2211L5.70166 3.03914L4.91175 3.17926ZM4.28745 1.30602L3.21304 1.37412L3.65801 3.4016L4.53429 3.24616L4.28745 1.30602ZM10.2977 2.60614L10.2977 3.9719C10.2977 4.07141 10.2216 4.16853 10.1243 4.19326L9.54875 4.33943L9.54875 2.73899L10.2977 2.60614ZM9.17429 4.43451L9.17429 2.80539L8.38241 2.94587L8.38241 4.63564L9.17429 4.43451ZM8.00794 3.01232L8.00794 4.73074L7.20838 4.93382L7.20838 3.15415L8.00794 3.01232ZM6.83393 5.02887L6.83393 3.22056L6.09191 3.35219L6.16731 5.19817L6.83393 5.02887ZM5.79373 5.29309L5.1999 5.44386L4.95937 3.55314L5.71718 3.41871L5.79373 5.29309ZM4.16392 5.70694L4.82594 5.53881L4.58184 3.62009L3.73876 3.76965L4.16392 5.70694ZM3.78692 5.80268L3.13138 5.96917L2.51056 3.98752L3.35567 3.8376L3.78692 5.80268ZM9.19391 8.63374C9.19391 8.91565 9.44628 9.09942 9.7576 9.04419C10.0689 8.98897 10.3213 8.71566 10.3213 8.43375C10.3213 8.15184 10.0689 7.96808 9.7576 8.0233C9.44628 8.07853 9.19391 8.35183 9.19391 8.63374ZM2.99334 10.2441C2.68203 10.2994 2.42965 10.1156 2.42965 9.83368C2.42965 9.55177 2.68203 9.27847 2.99334 9.22324C3.30466 9.16802 3.55704 9.35178 3.55704 9.63369C3.55704 9.9156 3.30466 10.1889 2.99334 10.2441Z" transform="translate(86.7541 6.244898)" id="Combined-Shape" fill="#FFFFFF" fill-rule="evenodd" stroke="none" />
        </g>
      </g>
    </g>
    <g id="dress" transform="translate(86 48)">
      <g id="Group-3">
        <g filter="url(#filter_2)">
          <path d="M1.64706 9.72092L54.3529 0.0086411C55.2626 -0.0890295 56 0.652491 56 1.66487L56 58.2663C56 59.2787 55.2626 60.1786 54.3529 60.2763L1.64706 62.8803C0.737413 62.9779 0 62.2364 0 61.224L0 11.7308C0 10.7185 0.737413 9.81859 1.64706 9.72092Z" id="Rectangle" fill="url(#gradient_15)" stroke="none" />
        </g>
        <g clip-path="url(#mask_8)">
          <g filter="url(#filter_2)">
            <path d="M1.43355 8.44379L47.3072 0.00750584C48.0989 -0.0773329 48.7407 0.566767 48.7407 1.44614L48.7407 50.6114C48.7407 51.4907 48.0989 52.2724 47.3072 52.3572L1.43355 54.6191C0.641823 54.7039 0 54.0598 0 53.1805L0 10.1897C0 9.31028 0.641823 8.52863 1.43355 8.44379Z" transform="translate(10.37037 20.65574)" id="Rectangle" fill="url(#gradient_17)" fill-opacity="0.561942" stroke="none" />
          </g>
        </g>
      </g>
      <path d="M5.91167 2.93195C5.91167 2.93195 4.67204 3.1517 4.29068 4.77692C3.90932 6.40213 -5.89487e-14 27.6451 -5.89487e-14 27.6451C-5.89487e-14 27.6451 0.535947 27.9611 1.40848 27.8634C2.11217 27.7847 3.05122 27.251 3.05122 27.251L6.76703 9.26527C6.76703 9.26527 8.67163 15.9294 7.84642 18.4542C7.84642 18.4542 3.88465 26.4068 7.43363 42.2878C7.43363 42.2878 7.92883 42.5751 8.34162 42.7182L7.84642 33.6669L9.82721 42.8363C9.82721 42.8363 15.4398 45.6427 19.0713 42.4039C19.0713 42.4039 22.3729 23.9367 18.6587 15.3735C18.6587 15.3735 18.0809 14.6937 19.9793 5.36423L23.3633 21.8659C23.3633 21.8659 24.1611 21.9936 25.0965 21.6178C26.0492 21.2353 26.7473 20.5917 26.7473 20.5917L22.1253 0.35969C22.1253 0.35969 21.4649 -0.133855 20.4745 0.035316C20.4745 0.035316 19.0792 2.18549 12.9674 4.57577" transform="translate(12.79012 11.30529)" id="Fill-69" fill="url(#gradient_18)" stroke="none" />
    </g>
    <g id="women" transform="translate(28 58)">
      <g id="нога" transform="matrix(0.9848077 0.1736482 -0.1736482 0.9848077 27.76892 121.3549)">
        <g id="Path-5">
          <use stroke="none" fill="url(#gradient_19)" xlink:href="#path_10" />
          <use stroke="none" fill="url(#gradient_20)" xlink:href="#path_10" />
        </g>
        <g clip-path="url(#mask_9)">
          <path d="M2.06558 2.22105L5.94627 7.23617L14.2257 8.86704L20.4891 0L20.4891 3.28698L26.737 12.641C26.737 12.641 14.8211 12.641 13.3685 12.641C11.9158 12.641 4.09957 11.1507 4.09957 11.1507L0 8.68848L2.06558 2.22105Z" transform="translate(6.604119 24.37282)" id="Path-6" fill="url(#gradient_21)" stroke="none" />
        </g>
      </g>
      <g id="нога" transform="matrix(0.9961947 -0.08715574 0.08715574 0.9961947 36.64609 131.3994)">
        <path d="M1.20158 12.171C1.20158 12.171 7.44159 21.5258 7.4374 26.0366C7.4361 27.4436 7.32802 28.7561 7.25688 29.9261C7.09995 32.5071 7.12283 34.3945 8.86852 35.0723C11.4055 36.0575 14.6957 36.7062 20.9269 35.7193C27.158 34.7324 30.8647 30.9663 27.8845 30.969C25.6077 30.9711 15.226 29.4997 14.447 28.8034C11.1465 25.8536 11.1433 24.8823 11.5741 16.9972C12.0048 9.11215 12.9487 1.99033 9.92121 0.228864C6.89372 -1.5326 2.05618e-13 10.2632 2.05618e-13 10.2632L1.20158 12.171Z" transform="matrix(0.9876884 0.1564345 -0.1564345 0.9876884 5.95825 0.1105843)" id="Path-5" fill="url(#gradient_22)" stroke="none" />
        <g clip-path="url(#mask_10)">
          <path d="M2.06558 2.22105L5.94627 7.23617L14.2257 8.86704L20.4891 0L20.4891 3.28698L26.737 12.641C26.737 12.641 14.8211 12.641 13.3685 12.641C11.9158 12.641 4.09957 11.1507 4.09957 11.1507L0 8.68848L2.06558 2.22105Z" transform="translate(6.604119 27.5324)" id="Path-6" fill="url(#gradient_21)" stroke="none" />
        </g>
      </g>
      <g id="hair">
        <path d="M29.1528 9.77548C29.1528 9.77548 30.4492 11.3221 31.4573 10.5488C32.4653 9.77548 32.1691 7.76543 34.4969 7.76543C36.8246 7.76543 35.1918 4.17659 37.579 5.70743C39.9661 7.23827 39.8831 9.00218 39.8831 9.77548C39.8831 10.5488 41.8988 8.82947 41.412 5.70743C40.9252 2.58539 37.394 -0.948115 35.3203 0.233297C33.2466 1.41471 31.7767 -0.518541 29.1528 2.16856C26.5288 4.85566 28.248 2.88016 22.8894 6.32782C17.5308 9.77548 19.6868 14.2127 17.6384 15.9753C15.59 17.7379 9.08234 15.0615 5.23342 22.5993C1.38451 30.1372 -1.35788 31.1532 0.707766 34.4121C2.77341 37.671 0.463856 42.7232 5.23342 44.2782C10.003 45.8332 9.59209 45.6981 9.59209 45.6981C9.59209 45.6981 18.0603 52.8561 23.888 46.861C29.7156 40.866 30.0319 24.6711 30.0319 24.6711L31.4573 17.6762L28.6508 12.816C28.6508 12.816 27.1715 11.3221 27.1715 10.5488C27.1715 9.77548 28.6508 9.16012 28.6508 9.16012L29.1528 9.77548Z" transform="translate(0.2641621 0.3163295)" id="волосы" fill="url(#gradient_23)" stroke="none" />
        <g clip-path="url(#mask_11)">
          <g id="волосы">
            <use stroke="none" fill="url(#gradient_24)" xlink:href="#path_13" />
            <use stroke="none" fill="url(#gradient_25)" xlink:href="#path_13" />
          </g>
        </g>
      </g>
      <path d="M0 6.00132C0 6.00132 0 22.2034 0 31.4274C0 40.6515 0 57.3571 0 58.8969C0 60.4368 13.2512 60.4368 13.2512 60.4368L28.3273 6.00132L5.5437 -1.86235e-31L0 6.00132Z" transform="translate(29.36364 79.32332)" id="Path-4" fill="url(#gradient_26)" stroke="none" />
      <g id="Path-4">
        <use stroke="none" fill="url(#gradient_26)" xlink:href="#path_14" />
        <use stroke="none" fill="url(#gradient_27)" xlink:href="#path_14" />
      </g>
      <g id="Path-2">
        <use stroke="none" fill="#F8C99F" xlink:href="#path_15" />
        <use stroke="none" fill="url(#gradient_28)" xlink:href="#path_15" />
      </g>
      <g id="Path-3">
        <use stroke="none" fill="url(#gradient_29)" xlink:href="#path_16" />
        <use stroke="none" fill="url(#gradient_30)" xlink:href="#path_16" />
      </g>
      <g id="hand">
        <use stroke="none" fill="url(#gradient_31)" xlink:href="#path_17" />
        <use stroke="none" fill="url(#gradient_32)" xlink:href="#path_17" />
      </g>
      <g id="шея">
        <use stroke="none" fill="url(#gradient_19)" xlink:href="#path_18" />
        <use stroke="none" fill="url(#gradient_20)" xlink:href="#path_18" />
      </g>
      <g id="Combined-Shape">
        <use stroke="none" fill="url(#gradient_33)" xlink:href="#path_19" fill-rule="evenodd" />
        <use stroke="none" fill="url(#gradient_20)" xlink:href="#path_19" fill-rule="evenodd" />
      </g>
      <path d="M18.1332 5.2195e-18C18.1332 5.2195e-18 11.8811 0.427429 8.94153 3.75197C6.00197 7.07651 1.81791e-15 21.6121 1.81791e-15 21.6121C1.81791e-15 21.6121 5.4292 22.2577 6.68605 22.2612C7.9429 22.2647 13.9386 24.0707 13.9386 24.0707C13.9386 24.0707 13.5685 14.3286 14.1282 11.2568C14.3006 10.3106 15.7089 6.46999 15.9448 5.9068C17.4474 2.31948 19.642 0.144642 21.2537 0.149114C22.8653 0.153585 18.1332 5.2195e-18 18.1332 5.2195e-18Z" transform="matrix(0.8290376 -0.5591929 0.5591929 0.8290376 10.03194 33.86592)" id="ff" fill="url(#gradient_34)" stroke="none" />
      <g id="face" transform="translate(32.81818 7.897993)">
        <path d="M3.92695e-13 1.78446e-18C0.20678 0.237746 0.449665 0.448016 0.726462 0.604321C1.00493 0.757313 1.32119 0.852078 1.64589 0.841339C1.97281 0.839113 2.2865 0.737081 2.59078 0.615663C2.73793 0.545497 2.88398 0.470129 3.02892 0.392396C3.16943 0.307572 3.30606 0.218022 3.45378 0.136029C3.34044 0.248736 3.21601 0.353886 3.09545 0.464236C2.95993 0.559463 2.81941 0.651856 2.67446 0.739996C2.36848 0.896897 2.02203 1.01173 1.64903 1.02867C1.27717 1.02527 0.909301 0.914472 0.627548 0.720799C0.348016 0.525231 0.129591 0.277563 3.92695e-13 1.78446e-18" transform="matrix(-0.9848077 -0.1736482 -0.1736482 0.9848077 6.260922 7.298364)" id="Fill-146" fill="url(#gradient_35)" stroke="none" />
        <path d="M1.31045e-19 0.155608C0.145124 0.314498 0.315468 0.455129 0.509452 0.559834C0.704599 0.662332 0.9261 0.726069 1.15332 0.719469C1.38211 0.718549 1.60147 0.651054 1.81421 0.570616C1.91707 0.524082 2.01916 0.474078 2.12046 0.422495C2.21865 0.366175 2.31411 0.306697 2.41735 0.252278C2.33823 0.327238 2.25132 0.397139 2.16714 0.470513C2.07246 0.533778 1.97428 0.595145 1.87299 0.653668C1.65912 0.757763 1.41685 0.833741 1.15584 0.844392C0.895588 0.841479 0.637946 0.766963 0.440428 0.637332C0.244462 0.506442 0.0911712 0.340915 1.31045e-19 0.155608" transform="matrix(-0.9659258 0.258819 -0.258819 -0.9659258 2.894819 1.79308)" id="Fill-146" fill="#2C2B3C" stroke="none" />
        <path d="M2.74878e-13 0.155608C0.145124 0.314498 0.315468 0.455129 0.509452 0.559834C0.704599 0.662332 0.9261 0.726069 1.15332 0.719469C1.38211 0.718549 1.60147 0.651054 1.81421 0.570616C1.91707 0.524082 2.01916 0.474078 2.12046 0.422495C2.21865 0.366175 2.31411 0.306697 2.41735 0.252278C2.33823 0.327238 2.25132 0.397139 2.16714 0.470513C2.07246 0.533778 1.97428 0.595145 1.87299 0.653668C1.65912 0.757763 1.41685 0.833741 1.15584 0.844392C0.895588 0.841479 0.637946 0.766963 0.440428 0.637332C0.244462 0.506442 0.0911712 0.340915 2.74878e-13 0.155608" transform="matrix(0.9659258 -0.258819 -0.258819 -0.9659258 4.70394 1.731955)" id="Fill-146" fill="#2C2B3C" stroke="none" />
        <path d="M0 0C0.146593 0.214609 0.279174 0.430413 0.412832 0.642033C0.54703 0.850066 0.683383 1.06169 0.840755 1.2213C0.890877 1.27331 0.901117 1.26613 0.989504 1.34145C1.08921 1.48552 1.00244 1.58356 0.978725 1.63796C0.902195 1.76051 0.813269 1.85018 0.723265 1.93985C0.540023 2.1144 0.343847 2.26624 0.139587 2.40374C0.31151 2.22021 0.481817 2.03669 0.639728 1.8454C0.717875 1.75094 0.796022 1.65051 0.845605 1.54949L0.872014 1.48313L0.723804 1.38748C0.510381 1.21651 0.374028 0.98457 0.254921 0.751429C0.139048 0.5153 0.049044 0.264824 0 0" transform="translate(4.490909 3.777301)" id="Fill-147" fill="#2C2B3C" stroke="none" />
        <path d="M0.500678 1.03049C0.69141 1.03074 0.845725 0.800256 0.84535 0.515696C0.844975 0.231135 0.690053 0.000250001 0.499321 2.02861e-07C0.30859 -0.000249596 0.154275 0.23023 0.15465 0.514791C0.155025 0.799352 0.309947 1.03024 0.500678 1.03049Z" transform="matrix(0.9743701 -0.224951 0.224951 0.9743701 1.469638 2.529261)" id="Oval" fill="#2C2B3C" stroke="none" />
        <path d="M0.500678 1.03049C0.69141 1.03074 0.845725 0.800257 0.84535 0.515696C0.844975 0.231135 0.690053 0.000250001 0.499322 2.02861e-07C0.30859 -0.000249596 0.154275 0.23023 0.15465 0.514791C0.155025 0.799352 0.309947 1.03024 0.500678 1.03049Z" transform="matrix(0.9743701 -0.224951 0.224951 0.9743701 4.924183 1.842479)" id="Oval" fill="#2C2B3C" stroke="none" />
      </g>
    </g>
    <g id="shoes" transform="translate(135 76)">
      <g filter="url(#filter_2)">
        <path d="M1 5.85654L33 0.00520599C33.5523 -0.0536374 34 0.393105 34 1.00303L34 35.1036C34 35.7135 33.5523 36.2557 33 36.3145L1 37.8833C0.447715 37.9422 0 37.4954 0 36.8855L0 7.06746C0 6.45753 0.447715 5.91538 1 5.85654Z" id="Rectangle" fill="url(#gradient_15)" stroke="none" />
      </g>
      <path d="M13.0127 17.6983C12.6075 17.6983 12.2146 17.6855 11.8441 17.6576C8.69643 17.4157 8.48261 15.1668 7.57127 13.519C7.03604 12.5528 5.74193 10.7174 4.68653 9.95289C4.35179 12.8927 4.57472 16.5293 4.57472 16.5293L4.30447 16.6405L4.30412 16.6405L4.30412 16.6416L3.48251 16.6416L3.48251 16.6405L3.48076 16.6405C3.48076 16.6405 3.60239 13.2143 3.41766 10.555L3.41206 10.479C3.39698 10.5353 3.38507 10.5896 3.37876 10.6393C3.01352 13.6081 3.24591 17.3943 3.24591 17.3943L2.97601 17.5056L2.97566 17.5056L2.97566 17.5066L2.15406 17.5066L2.15406 17.5056L2.1523 17.5056C2.1523 17.5056 2.27358 14.0793 2.08921 11.42C2.03383 10.6269 1.95146 9.90418 1.83053 9.35905C1.74535 8.97491 1.64195 8.67678 1.51437 8.50993L1.48107 8.46709C1.45267 8.43082 1.42358 8.39385 1.39309 8.35585C0.408138 7.13329 -1.70652 5.0312 2.61148 0.865018C2.61148 0.865018 2.70051 0.982818 2.83826 1.18007C3.14742 0.805945 3.5116 0.413164 3.93993 0C3.93993 0 4.24138 0.397273 4.60591 0.977636C5.69601 1.78945 6.39705 2.94327 7.13313 4.07291C8.08653 5.53764 9.0154 7.03 9.77952 8.59836C10.449 9.98364 10.8521 11.3067 11.2096 12.7887C11.4269 13.6904 11.7109 14.2569 12.6537 14.5747C12.9657 14.6804 13.3509 14.7627 13.6184 14.9195C14.2963 14.3968 14.8245 13.8773 15.3741 13.7149C15.985 13.2167 16.4866 12.7956 17.0454 12.7956C17.1947 12.7956 17.3478 12.8257 17.5084 12.8924C18.868 13.4575 20.0356 13.7629 21.0065 14.1222C21.981 14.4815 22.9869 15.4591 22.0125 15.8115C21.8211 15.8802 21.4836 15.969 21.0433 16.0654C21.1387 16.3141 21.0577 16.5414 20.6841 16.6765C19.8242 16.9843 16.053 17.6983 13.0127 17.6983" transform="translate(5.958763 11.05455)" id="Fill-38" fill="url(#gradient_36)" stroke="none" />
      <g id="like-(1)" transform="translate(24.18557 29.70909)">
        <path d="M3.0609 7.86017e-05C3.65951 7.86017e-05 4.13783 0.476484 4.19923 1.13312C4.20401 1.16213 4.22391 1.31477 4.1634 1.56362C4.07619 1.92276 3.87477 2.24927 3.58105 2.50795L2.09051 3.8L0.625124 2.50787C0.331401 2.24927 0.129976 1.92268 0.0427734 1.56362C-0.0177348 1.31469 0.00216497 1.16205 0.00701857 1.13304C0.0683357 0.476405 0.546739 0 1.14527 0C1.53768 0 1.88787 0.204286 2.09148 0.542823C2.29695 0.208609 2.6621 7.86017e-05 3.0609 7.86017e-05Z" id="Shape" fill="url(#gradient_37)" fill-rule="evenodd" stroke="none" />
      </g>
    </g>
    <g id="bag" transform="translate(111 107)">
      <g id="Group-2" />
      <g id="Group-4">
        <g filter="url(#filter_2)">
          <path d="M0.911765 1.68288L30.0882 0.00475748C30.5918 -0.0490164 31 0.359238 31 0.91662L31 35.7485C31 36.3058 30.5918 36.8013 30.0882 36.8551L0.911765 34.6196C0.408211 34.6734 0 34.2651 0 33.7078L0 2.78947C0 2.23209 0.408211 1.73665 0.911765 1.68288Z" id="Rectangle" fill="url(#gradient_15)" stroke="none" />
        </g>
        <g clip-path="url(#mask_12)">
          <g filter="url(#filter_2)">
            <path d="M0.911765 1.68288L30.0882 0.00475748C30.5918 -0.0490164 31 0.359238 31 0.91662L31 35.7485C31 36.3058 30.5918 36.8013 30.0882 36.8551L0.911765 34.6196C0.408211 34.6734 0 34.2651 0 33.7078L0 2.78947C0 2.23209 0.408211 1.73665 0.911765 1.68288Z" transform="translate(6.966292 10.37383)" id="Rectangle" fill="url(#gradient_17)" fill-opacity="0.411249071" stroke="none" />
          </g>
          <g filter="url(#filter_2)">
            <path d="M0.911765 1.68288L30.0882 0.00475748C30.5918 -0.0490164 31 0.359238 31 0.91662L31 35.7485C31 36.3058 30.5918 36.8013 30.0882 36.8551L0.911765 34.6196C0.408211 34.6734 0 34.2651 0 33.7078L0 2.78947C0 2.23209 0.408211 1.73665 0.911765 1.68288Z" transform="translate(17.41573 3.457944)" id="Rectangle" fill="url(#gradient_17)" fill-opacity="0.411249071" stroke="none" />
          </g>
          <g id="like-(1)" transform="translate(23.68539 30.42991)" opacity="0.9759347">
            <path d="M3.04168 7.8679e-05C3.63654 7.8679e-05 4.11185 0.476952 4.17287 1.13424C4.17761 1.16327 4.19738 1.31606 4.13726 1.56516C4.0506 1.92465 3.85044 2.25148 3.55856 2.51041L2.07738 3.80374L0.621199 2.51033C0.32932 2.25148 0.12916 1.92457 0.0425048 1.56516C-0.0176234 1.31599 0.00215138 1.16319 0.0069745 1.13416C0.0679066 0.476874 0.543306 0 1.13808 0C1.52803 0 1.87601 0.204487 2.07835 0.543357C2.28252 0.208814 2.64538 7.8679e-05 3.04168 7.8679e-05Z" id="Shape" fill="url(#gradient_37)" fill-rule="evenodd" stroke="none" />
          </g>
        </g>
      </g>
      <path d="M0.725829 20.9995L0.721443 20.978C0.711795 20.9334 0.70105 20.8845 0.689209 20.8327L0.679999 20.7921C0.668596 20.742 0.656316 20.6893 0.643159 20.6336C0.637677 20.6111 0.632195 20.5879 0.626713 20.5646C0.617722 20.527 0.608293 20.4884 0.598864 20.4487C0.583075 20.384 0.567068 20.3179 0.550402 20.2488C0.323224 19.318 0 18.0342 0 17.5621C0 17.3092 0.00219284 17.0595 0.00548209 16.8115C0.00285069 16.7731 0 16.7349 0 16.7034C0 12.3762 0.395807 8.71685 4.86963 7.48925C5.12005 3.28281 6.70043 0.0758968 8.67399 0.00127605C10.6423 -0.0731457 12.2198 3.11578 12.4766 7.46426C17.1114 8.77665 17.4157 12.817 17.4157 17.5976C17.4157 17.6267 17.4131 17.662 17.4111 17.6958C17.4142 17.974 17.4157 18.2542 17.4157 18.5378C17.4157 19.0773 17.0631 20.4521 16.8357 21.3959C16.8184 21.4677 16.8022 21.5359 16.7866 21.6021L16.7798 21.63C16.766 21.6894 16.7533 21.7446 16.741 21.7987L16.7318 21.8389C16.7204 21.8891 16.711 21.9341 16.7015 21.9783L16.693 22.0185C16.6827 22.0688 16.6743 22.1131 16.6673 22.1534L16.6651 22.1647L0.750827 21.1252C0.744249 21.089 0.735477 21.0458 0.725829 20.9995ZM8.88213 0.344093C10.4794 0.28661 11.8603 3.19271 12.191 7.00257C11.5837 4.22409 10.3449 2.39048 8.88213 2.42729C7.41915 2.46411 6.1803 4.3087 5.57303 7.01172C5.90377 3.31703 7.28468 0.401584 8.88213 0.344093ZM5.92135 7.35653C6.74347 7.20903 7.67671 7.12826 8.74421 7.12745C9.7794 7.12666 10.691 7.19847 11.4944 7.33604C10.9613 4.84635 9.90056 3.12778 8.71038 3.15327C7.51626 3.17884 6.45291 4.9131 5.92135 7.35653Z" transform="translate(6.617978 6.244903)" id="Fill-40" fill="url(#gradient_38)" fill-rule="evenodd" stroke="none" />
    </g>
  </g>
</svg>