<?xml version="1.0" encoding="utf-8"?>
<svg width="116px" height="35px" viewBox="0 0 116 35" version="1.1" xmlns:xlink="http://www.w3.org/1999/xlink" xmlns="http://www.w3.org/2000/svg">
  <desc>Created with Lunacy</desc>
  <defs>
    <linearGradient x1="0.9393111" y1="0.9519531" x2="0" y2="0" id="gradient_1">
      <stop offset="0" stop-color="#2627C5" />
      <stop offset="1" stop-color="#43BEFF" />
    </linearGradient>
    <linearGradient x1="0.8492187" y1="0.717753232" x2="0.21898675" y2="0.273718774" id="gradient_2">
      <stop offset="0" stop-color="#FFFFFF" stop-opacity="0" />
      <stop offset="1" stop-color="#FFFFFF" />
    </linearGradient>
    <linearGradient x1="0.21898675" y1="0.273718774" x2="0.683543" y2="0" id="gradient_3">
      <stop offset="0" stop-color="#FFFFFF" stop-opacity="0" />
      <stop offset="1" stop-color="#FFFFFF" />
    </linearGradient>
    <linearGradient x1="1.18746614" y1="0.5" x2="0.658346832" y2="0.864616454" id="gradient_4">
      <stop offset="0" stop-color="#FFFFFF" stop-opacity="0" />
      <stop offset="1" stop-color="#FFFFFF" />
    </linearGradient>
    <filter filterUnits="userSpaceOnUse" color-interpolation-filters="sRGB" id="filter_1">
      <feFlood flood-opacity="0" result="BackgroundImageFix" />
      <feColorMatrix in="SourceAlpha" type="matrix" values="0 0 0 0 0 0 0 0 0 0 0 0 0 0 0 0 0 0 127 0" />
      <feOffset dx="0" dy="2" />
      <feGaussianBlur stdDeviation="5" />
      <feColorMatrix type="matrix" values="0 0 0 0 0 0 0 0 0 0 0 0 0 0 0 0 0 0 0.2039216 0" />
      <feBlend mode="normal" in2="BackgroundImageFix" result="effect0_dropShadow" />
      <feBlend mode="normal" in="SourceGraphic" in2="effect0_dropShadow" result="shape" />
    </filter>
    <filter filterUnits="userSpaceOnUse" color-interpolation-filters="sRGB" id="filter_2">
      <feFlood flood-opacity="0" result="BackgroundImageFix" />
      <feColorMatrix in="SourceAlpha" type="matrix" values="0 0 0 0 0 0 0 0 0 0 0 0 0 0 0 0 0 0 127 0" />
      <feOffset dx="0" dy="2" />
      <feGaussianBlur stdDeviation="2" />
      <feColorMatrix type="matrix" values="0 0 0 0 0.01176471 0 0 0 0 0.09411765 0 0 0 0 0.4156863 0 0 0 0.5019608 0" />
      <feBlend mode="normal" in2="BackgroundImageFix" result="effect0_dropShadow" />
      <feBlend mode="normal" in="SourceGraphic" in2="effect0_dropShadow" result="shape" />
    </filter>
    <filter filterUnits="userSpaceOnUse" color-interpolation-filters="sRGB" id="filter_3">
      <feFlood flood-opacity="0" result="BackgroundImageFix" />
      <feBlend mode="normal" in="SourceGraphic" in2="BackgroundImageFix" result="shape" />
      <feColorMatrix in="SourceAlpha" type="matrix" values="0 0 0 0 0 0 0 0 0 0 0 0 0 0 0 0 0 0 127 0" result="hardAlpha" />
      <feOffset dx="0" dy="1" />
      <feGaussianBlur stdDeviation="4.5" />
      <feComposite in2="hardAlpha" operator="arithmetic" k2="-1" k3="1" />
      <feColorMatrix type="matrix" values="0 0 0 0 0 0 0 0 0 0.07843138 0 0 0 0 0.3254902 0 0 0 0.5019608 0" />
      <feBlend mode="normal" in2="shape" result="effect0_innerShadow" />
    </filter>
    <filter filterUnits="userSpaceOnUse" color-interpolation-filters="sRGB" id="filter_4">
      <feFlood flood-opacity="0" result="BackgroundImageFix" />
      <feColorMatrix in="SourceAlpha" type="matrix" values="0 0 0 0 0 0 0 0 0 0 0 0 0 0 0 0 0 0 127 0" />
      <feOffset dx="0" dy="2" />
      <feGaussianBlur stdDeviation="2" />
      <feColorMatrix type="matrix" values="0 0 0 0 0 0 0 0 0 0 0 0 0 0 0 0 0 0 0.5019608 0" />
      <feBlend mode="normal" in2="BackgroundImageFix" result="effect0_dropShadow" />
      <feBlend mode="normal" in="SourceGraphic" in2="effect0_dropShadow" result="shape" />
    </filter>
    <path d="M6 0L29.02 0Q29.1737 0 29.3263 0.0069945Q29.479 0.013989 29.6303 0.0279637Q29.7816 0.0419385 29.9313 0.0628649Q30.0809 0.0837914 30.2286 0.111627Q30.3763 0.139462 30.5218 0.17415Q30.6672 0.208838 30.8101 0.250307Q30.953 0.291776 31.093 0.339942Q31.2331 0.388108 31.37 0.442873Q31.5069 0.497638 31.6404 0.558889Q31.7739 0.620141 31.9037 0.687755Q32.0335 0.755368 32.1594 0.829206Q32.2853 0.903043 32.4069 0.982954Q32.5286 1.06287 32.6458 1.14869Q32.763 1.23451 32.8756 1.32606Q32.9881 1.41762 33.0957 1.51473Q33.2033 1.61183 33.3057 1.71429Q33.4082 1.81674 33.5053 1.92434Q33.6024 2.03193 33.6939 2.14445Q33.7855 2.25697 33.8713 2.37418Q33.9571 2.49139 34.0371 2.61306Q34.117 2.73472 34.1908 2.86059Q34.2646 2.98646 34.3323 3.11628Q34.3999 3.2461 34.4611 3.3796Q34.5224 3.5131 34.5771 3.65001Q34.6319 3.78692 34.6801 3.92696Q34.7282 4.06701 34.7697 4.2099Q34.8112 4.35279 34.8459 4.49823Q34.8805 4.64367 34.9084 4.79138Q34.9362 4.93908 34.9571 5.08874Q34.9781 5.23839 34.992 5.3897Q35.006 5.54101 35.013 5.69367Q35.02 5.84632 35.02 6L35.02 29Q35.02 29.1537 35.013 29.3063Q35.006 29.459 34.992 29.6103Q34.9781 29.7616 34.9571 29.9113Q34.9362 30.0609 34.9084 30.2086Q34.8805 30.3563 34.8459 30.5018Q34.8112 30.6472 34.7697 30.7901Q34.7282 30.933 34.6801 31.073Q34.6319 31.2131 34.5771 31.35Q34.5224 31.4869 34.4611 31.6204Q34.3999 31.7539 34.3323 31.8837Q34.2646 32.0135 34.1908 32.1394Q34.117 32.2653 34.0371 32.3869Q33.9571 32.5086 33.8713 32.6258Q33.7855 32.743 33.6939 32.8555Q33.6024 32.9681 33.5053 33.0757Q33.4082 33.1833 33.3057 33.2857Q33.2033 33.3882 33.0957 33.4853Q32.9881 33.5824 32.8756 33.6739Q32.763 33.7655 32.6458 33.8513Q32.5286 33.9371 32.4069 34.017Q32.2853 34.097 32.1594 34.1708Q32.0335 34.2446 31.9037 34.3122Q31.7739 34.3799 31.6404 34.4411Q31.5069 34.5024 31.37 34.5571Q31.2331 34.6119 31.093 34.6601Q30.953 34.7082 30.8101 34.7497Q30.6672 34.7912 30.5218 34.8259Q30.3763 34.8605 30.2286 34.8884Q30.0809 34.9162 29.9313 34.9371Q29.7816 34.9581 29.6303 34.972Q29.479 34.986 29.3263 34.993Q29.1737 35 29.02 35L6 35Q5.84632 35 5.69367 34.993Q5.54101 34.986 5.3897 34.972Q5.23839 34.9581 5.08874 34.9371Q4.93908 34.9162 4.79138 34.8884Q4.64367 34.8605 4.49823 34.8259Q4.35279 34.7912 4.2099 34.7497Q4.06701 34.7082 3.92696 34.6601Q3.78692 34.6119 3.65001 34.5571Q3.5131 34.5024 3.3796 34.4411Q3.2461 34.3799 3.11628 34.3122Q2.98646 34.2446 2.86059 34.1708Q2.73472 34.097 2.61306 34.017Q2.49139 33.9371 2.37418 33.8513Q2.25697 33.7655 2.14445 33.6739Q2.03193 33.5824 1.92434 33.4853Q1.81674 33.3882 1.71429 33.2857Q1.61183 33.1833 1.51473 33.0757Q1.41762 32.9681 1.32606 32.8555Q1.23451 32.743 1.14869 32.6258Q1.06287 32.5086 0.982954 32.3869Q0.903043 32.2653 0.829206 32.1394Q0.755368 32.0135 0.687755 31.8837Q0.620141 31.7539 0.558889 31.6204Q0.497638 31.4869 0.442873 31.35Q0.388108 31.2131 0.339942 31.073Q0.291776 30.933 0.250307 30.7901Q0.208838 30.6472 0.17415 30.5018Q0.139462 30.3563 0.111627 30.2086Q0.0837914 30.0609 0.0628649 29.9113Q0.0419385 29.7616 0.0279637 29.6103Q0.013989 29.459 0.0069945 29.3063Q0 29.1537 0 29L0 6Q0 5.84632 0.0069945 5.69367Q0.013989 5.54101 0.0279637 5.3897Q0.0419385 5.23839 0.0628649 5.08874Q0.0837914 4.93908 0.111627 4.79138Q0.139462 4.64367 0.17415 4.49823Q0.208838 4.35279 0.250307 4.2099Q0.291776 4.06701 0.339942 3.92696Q0.388108 3.78692 0.442873 3.65001Q0.497638 3.5131 0.558889 3.3796Q0.620141 3.2461 0.687755 3.11628Q0.755368 2.98646 0.829206 2.86059Q0.903043 2.73472 0.982954 2.61306Q1.06287 2.49139 1.14869 2.37418Q1.23451 2.25697 1.32606 2.14445Q1.41762 2.03193 1.51473 1.92434Q1.61183 1.81674 1.71429 1.71429Q1.81674 1.61183 1.92434 1.51473Q2.03193 1.41762 2.14445 1.32606Q2.25697 1.23451 2.37418 1.14869Q2.49139 1.06287 2.61306 0.982954Q2.73472 0.903043 2.86059 0.829206Q2.98646 0.755368 3.11628 0.687755Q3.2461 0.620141 3.3796 0.558889Q3.5131 0.497638 3.65001 0.442873Q3.78692 0.388108 3.92696 0.339942Q4.06701 0.291776 4.2099 0.250307Q4.35279 0.208838 4.49823 0.17415Q4.64367 0.139462 4.79138 0.111627Q4.93908 0.0837914 5.08874 0.0628649Q5.23839 0.0419385 5.3897 0.0279637Q5.54101 0.013989 5.69367 0.0069945Q5.84632 0 6 0Z" id="path_1" />
    <path d="M22.2818 9C21.4032 9 20.6095 8.80625 19.9007 8.41875C19.192 8.03125 18.6366 7.49584 18.2346 6.8125C17.8325 6.12916 17.6315 5.35834 17.6315 4.5C17.6315 3.64166 17.8346 2.87084 18.2408 2.1875C18.6469 1.50416 19.2044 0.968752 19.9132 0.58125C20.6219 0.193748 21.4156 0 22.2943 0C23.0072 0 23.6579 0.124999 24.2464 0.375C24.835 0.625001 25.3323 0.987498 25.7385 1.4625L24.694 2.45C24.0641 1.76666 23.289 1.425 22.3689 1.425C21.772 1.425 21.2374 1.55625 20.7649 1.81875C20.2924 2.08125 19.9235 2.44583 19.6583 2.9125C19.393 3.37917 19.2604 3.90833 19.2604 4.5C19.2604 5.09167 19.393 5.62083 19.6583 6.0875C19.9235 6.55417 20.2924 6.91875 20.7649 7.18125C21.2374 7.44375 21.772 7.575 22.3689 7.575C23.289 7.575 24.0641 7.22917 24.694 6.5375L25.7385 7.5375C25.3323 8.0125 24.8329 8.375 24.2402 8.625C23.6475 8.875 22.9947 9 22.2818 9ZM29.2076 8.41875C29.9205 8.80625 30.7204 9 31.6074 9C32.4944 9 33.2943 8.80625 34.0072 8.41875C34.7201 8.03125 35.2796 7.49584 35.6858 6.8125C36.0919 6.12916 36.295 5.35834 36.295 4.5C36.295 3.64166 36.0919 2.87084 35.6858 2.1875C35.2796 1.50416 34.7201 0.968752 34.0072 0.58125C33.2943 0.193748 32.4944 0 31.6074 0C30.7204 0 29.9205 0.193748 29.2076 0.58125C28.4947 0.968752 27.9352 1.50625 27.529 2.19375C27.1228 2.88125 26.9197 3.65 26.9197 4.5C26.9197 5.35 27.1228 6.11875 27.529 6.80625C27.9352 7.49375 28.4947 8.03125 29.2076 8.41875ZM5.6948 8.875L3.91673 6.3125C3.84212 6.32083 3.73022 6.325 3.58101 6.325L1.61643 6.325L1.61643 8.875L0 8.875L0 0.125L3.58101 0.125C4.33535 0.125 4.99227 0.249999 5.55181 0.5C6.11134 0.750001 6.54031 1.10833 6.83873 1.575C7.13715 2.04167 7.28636 2.59583 7.28636 3.2375C7.28636 3.89584 7.12679 4.4625 6.80765 4.9375C6.48851 5.4125 6.03052 5.76667 5.43368 6L7.43557 8.875L5.6948 8.875ZM16.0524 8.875L16.0524 7.5125L11.1409 7.5125L11.1409 5.1L15.3436 5.1L15.3436 3.7625L11.1409 3.7625L11.1409 1.4875L15.8783 1.4875L15.8783 0.125L9.52449 0.125L9.52449 8.875L16.0524 8.875ZM46.4288 3.075L46.4412 8.875L47.9706 8.875L47.9582 0.125L46.6277 0.125L43.2332 5.925L39.7766 0.125L38.4461 0.125L38.4461 8.875L39.9879 8.875L39.9879 3.15L42.8478 7.875L43.569 7.875L46.4288 3.075ZM55.9284 6.85L60.2803 6.85L61.1507 8.875L62.8418 8.875L58.9126 0.125L57.321 0.125L53.4043 8.875L55.0705 8.875L55.9284 6.85ZM66 0.125L64.3836 0.125L64.3836 8.875L66 8.875L66 0.125ZM31.6074 7.575C32.1876 7.575 32.7099 7.44375 33.1741 7.18125C33.6383 6.91875 34.003 6.55208 34.2683 6.08125C34.5335 5.61041 34.6662 5.08334 34.6662 4.5C34.6662 3.91666 34.5335 3.38959 34.2683 2.91875C34.003 2.44791 33.6383 2.08125 33.1741 1.81875C32.7099 1.55625 32.1876 1.425 31.6074 1.425C31.0271 1.425 30.5049 1.55625 30.0407 1.81875C29.5765 2.08125 29.2118 2.44791 28.9465 2.91875C28.6812 3.38959 28.5486 3.91666 28.5486 4.5C28.5486 5.08334 28.6812 5.61041 28.9465 6.08125C29.2118 6.55208 29.5765 6.91875 30.0407 7.18125C30.5049 7.44375 31.0271 7.575 31.6074 7.575ZM5.6575 3.2375C5.6575 2.67916 5.47513 2.25 5.1104 1.95C4.74567 1.65 4.21101 1.5 3.50641 1.5L1.61643 1.5L1.61643 4.9875L3.50641 4.9875C4.21101 4.9875 4.74567 4.83542 5.1104 4.53125C5.47513 4.22708 5.6575 3.79584 5.6575 3.2375ZM59.7457 5.575L58.1044 1.75L56.4755 5.575L59.7457 5.575ZM51.104 8.9625C50.8222 8.9625 50.5818 8.86458 50.3828 8.66875C50.1839 8.47292 50.0844 8.225 50.0844 7.925C50.0844 7.61666 50.1818 7.36667 50.3766 7.175C50.5714 6.98333 50.8139 6.8875 51.104 6.8875C51.3941 6.8875 51.6366 6.98333 51.8314 7.175C52.0262 7.36667 52.1236 7.61666 52.1236 7.925C52.1236 8.225 52.0241 8.47292 51.8252 8.66875C51.6262 8.86458 51.3858 8.9625 51.104 8.9625Z" transform="translate(50 15)" id="path_2" />
    <clipPath id="mask_1">
      <use xlink:href="#path_1" />
    </clipPath>
  </defs>
  <g id="logo_small">
    <g id="Group-3">
      <g id="Group-2">
        <g id="Group-3-Copy-5">
          <g filter="url(#filter_1)">
            <path d="M6 0L29.02 0Q29.1737 0 29.3263 0.0069945Q29.479 0.013989 29.6303 0.0279637Q29.7816 0.0419385 29.9313 0.0628649Q30.0809 0.0837914 30.2286 0.111627Q30.3763 0.139462 30.5218 0.17415Q30.6672 0.208838 30.8101 0.250307Q30.953 0.291776 31.093 0.339942Q31.2331 0.388108 31.37 0.442873Q31.5069 0.497638 31.6404 0.558889Q31.7739 0.620141 31.9037 0.687755Q32.0335 0.755368 32.1594 0.829206Q32.2853 0.903043 32.4069 0.982954Q32.5286 1.06287 32.6458 1.14869Q32.763 1.23451 32.8756 1.32606Q32.9881 1.41762 33.0957 1.51473Q33.2033 1.61183 33.3057 1.71429Q33.4082 1.81674 33.5053 1.92434Q33.6024 2.03193 33.6939 2.14445Q33.7855 2.25697 33.8713 2.37418Q33.9571 2.49139 34.0371 2.61306Q34.117 2.73472 34.1908 2.86059Q34.2646 2.98646 34.3323 3.11628Q34.3999 3.2461 34.4611 3.3796Q34.5224 3.5131 34.5771 3.65001Q34.6319 3.78692 34.6801 3.92696Q34.7282 4.06701 34.7697 4.2099Q34.8112 4.35279 34.8459 4.49823Q34.8805 4.64367 34.9084 4.79138Q34.9362 4.93908 34.9571 5.08874Q34.9781 5.23839 34.992 5.3897Q35.006 5.54101 35.013 5.69367Q35.02 5.84632 35.02 6L35.02 29Q35.02 29.1537 35.013 29.3063Q35.006 29.459 34.992 29.6103Q34.9781 29.7616 34.9571 29.9113Q34.9362 30.0609 34.9084 30.2086Q34.8805 30.3563 34.8459 30.5018Q34.8112 30.6472 34.7697 30.7901Q34.7282 30.933 34.6801 31.073Q34.6319 31.2131 34.5771 31.35Q34.5224 31.4869 34.4611 31.6204Q34.3999 31.7539 34.3323 31.8837Q34.2646 32.0135 34.1908 32.1394Q34.117 32.2653 34.0371 32.3869Q33.9571 32.5086 33.8713 32.6258Q33.7855 32.743 33.6939 32.8555Q33.6024 32.9681 33.5053 33.0757Q33.4082 33.1833 33.3057 33.2857Q33.2033 33.3882 33.0957 33.4853Q32.9881 33.5824 32.8756 33.6739Q32.763 33.7655 32.6458 33.8513Q32.5286 33.9371 32.4069 34.017Q32.2853 34.097 32.1594 34.1708Q32.0335 34.2446 31.9037 34.3122Q31.7739 34.3799 31.6404 34.4411Q31.5069 34.5024 31.37 34.5571Q31.2331 34.6119 31.093 34.6601Q30.953 34.7082 30.8101 34.7497Q30.6672 34.7912 30.5218 34.8259Q30.3763 34.8605 30.2286 34.8884Q30.0809 34.9162 29.9313 34.9371Q29.7816 34.9581 29.6303 34.972Q29.479 34.986 29.3263 34.993Q29.1737 35 29.02 35L6 35Q5.84632 35 5.69367 34.993Q5.54101 34.986 5.3897 34.972Q5.23839 34.9581 5.08874 34.9371Q4.93908 34.9162 4.79138 34.8884Q4.64367 34.8605 4.49823 34.8259Q4.35279 34.7912 4.2099 34.7497Q4.06701 34.7082 3.92696 34.6601Q3.78692 34.6119 3.65001 34.5571Q3.5131 34.5024 3.3796 34.4411Q3.2461 34.3799 3.11628 34.3122Q2.98646 34.2446 2.86059 34.1708Q2.73472 34.097 2.61306 34.017Q2.49139 33.9371 2.37418 33.8513Q2.25697 33.7655 2.14445 33.6739Q2.03193 33.5824 1.92434 33.4853Q1.81674 33.3882 1.71429 33.2857Q1.61183 33.1833 1.51473 33.0757Q1.41762 32.9681 1.32606 32.8555Q1.23451 32.743 1.14869 32.6258Q1.06287 32.5086 0.982954 32.3869Q0.903043 32.2653 0.829206 32.1394Q0.755368 32.0135 0.687755 31.8837Q0.620141 31.7539 0.558889 31.6204Q0.497638 31.4869 0.442873 31.35Q0.388108 31.2131 0.339942 31.073Q0.291776 30.933 0.250307 30.7901Q0.208838 30.6472 0.17415 30.5018Q0.139462 30.3563 0.111627 30.2086Q0.0837914 30.0609 0.0628649 29.9113Q0.0419385 29.7616 0.0279637 29.6103Q0.013989 29.459 0.0069945 29.3063Q0 29.1537 0 29L0 6Q0 5.84632 0.0069945 5.69367Q0.013989 5.54101 0.0279637 5.3897Q0.0419385 5.23839 0.0628649 5.08874Q0.0837914 4.93908 0.111627 4.79138Q0.139462 4.64367 0.17415 4.49823Q0.208838 4.35279 0.250307 4.2099Q0.291776 4.06701 0.339942 3.92696Q0.388108 3.78692 0.442873 3.65001Q0.497638 3.5131 0.558889 3.3796Q0.620141 3.2461 0.687755 3.11628Q0.755368 2.98646 0.829206 2.86059Q0.903043 2.73472 0.982954 2.61306Q1.06287 2.49139 1.14869 2.37418Q1.23451 2.25697 1.32606 2.14445Q1.41762 2.03193 1.51473 1.92434Q1.61183 1.81674 1.71429 1.71429Q1.81674 1.61183 1.92434 1.51473Q2.03193 1.41762 2.14445 1.32606Q2.25697 1.23451 2.37418 1.14869Q2.49139 1.06287 2.61306 0.982954Q2.73472 0.903043 2.86059 0.829206Q2.98646 0.755368 3.11628 0.687755Q3.2461 0.620141 3.3796 0.558889Q3.5131 0.497638 3.65001 0.442873Q3.78692 0.388108 3.92696 0.339942Q4.06701 0.291776 4.2099 0.250307Q4.35279 0.208838 4.49823 0.17415Q4.64367 0.139462 4.79138 0.111627Q4.93908 0.0837914 5.08874 0.0628649Q5.23839 0.0419385 5.3897 0.0279637Q5.54101 0.013989 5.69367 0.0069945Q5.84632 0 6 0Z" id="Rectangle" fill="url(#gradient_1)" stroke="none" />
          </g>
          <g clip-path="url(#mask_1)">
            <g id="Group" transform="translate(-6.526454 -6.204545)">
              <g filter="url(#filter_2)">
                <path d="M0 0L44.4175 22.494L44.4175 36.0127L0 13.5187L0 0Z" transform="translate(0.01243608 0.1491477)" id="Rectangle" fill="url(#gradient_2)" fill-opacity="0.135300413" stroke="none" />
              </g>
              <g filter="url(#filter_3)">
                <path d="M0 0L44.4175 22.494L44.4175 36.0127L0 13.5187L0 0Z" transform="translate(0.01243608 12.64582)" id="Rectangle" fill="url(#gradient_3)" fill-opacity="0.0181826632" stroke="none" />
              </g>
              <g filter="url(#filter_4)">
                <path d="M0 0L44.4175 22.494L44.4175 36.0127L0 13.5187L0 0Z" transform="translate(0.01243608 26.22128)" id="Rectangle" fill="url(#gradient_4)" fill-opacity="0.135300413" stroke="none" />
              </g>
            </g>
          </g>
        </g>
        <g id="Group-4" transform="translate(5.6032 6.533333)">
          <path d="M0 0L13.4944 6.19091L13.4944 19.2027L0 13.0118L0 0Z" transform="translate(10.31923 0)" id="Rectangle" fill="#FFFFFF" stroke="none" />
          <path d="M0 0L11.2718 5.44323L11.2718 15.9917L0 10.5484L0 0Z" transform="translate(5.238992 4.75)" id="Rectangle" fill="#FF5B6E" fill-opacity="0.9122256" stroke="none" />
          <path d="M0 0L9.36668 4.52705L9.36668 13.3L0 8.77295L0 0Z" transform="translate(0 8.866667)" id="Rectangle" fill="#F8E71C" fill-opacity="0.899902344" stroke="none" />
        </g>
      </g>
    </g>
    <g id="Recom.ai">
      <use stroke="none" fill="#1D262C" xlink:href="#path_2" fill-rule="evenodd" />
      <use stroke="none" fill="#1D262C" xlink:href="#path_2" fill-rule="evenodd" />
    </g>
  </g>
</svg>