<?xml version="1.0" encoding="utf-8"?>
<svg width="130px" height="39px" viewBox="0 0 130 39" version="1.1" xmlns:xlink="http://www.w3.org/1999/xlink" xmlns="http://www.w3.org/2000/svg">
  <desc>Created with Lunacy</desc>
  <defs>
    <linearGradient x1="0.9393111" y1="0.9519531" x2="0" y2="0" id="gradient_1">
      <stop offset="0" stop-color="#2627C5" />
      <stop offset="1" stop-color="#43BEFF" />
    </linearGradient>
    <linearGradient x1="0.8492187" y1="0.717753232" x2="0.21898675" y2="0.273718774" id="gradient_2">
      <stop offset="0" stop-color="#FFFFFF" stop-opacity="0" />
      <stop offset="1" stop-color="#FFFFFF" />
    </linearGradient>
    <linearGradient x1="1.18746614" y1="0.5" x2="0.658346832" y2="0.864616454" id="gradient_3">
      <stop offset="0" stop-color="#FFFFFF" stop-opacity="0" />
      <stop offset="1" stop-color="#FFFFFF" />
    </linearGradient>
    <filter filterUnits="userSpaceOnUse" color-interpolation-filters="sRGB" id="filter_1">
      <feFlood flood-opacity="0" result="BackgroundImageFix" />
      <feColorMatrix in="SourceAlpha" type="matrix" values="0 0 0 0 0 0 0 0 0 0 0 0 0 0 0 0 0 0 127 0" />
      <feOffset dx="0" dy="2" />
      <feGaussianBlur stdDeviation="2" />
      <feColorMatrix type="matrix" values="0 0 0 0 0.01176471 0 0 0 0 0.09411765 0 0 0 0 0.4156863 0 0 0 0.5019608 0" />
      <feBlend mode="normal" in2="BackgroundImageFix" result="effect0_dropShadow" />
      <feBlend mode="normal" in="SourceGraphic" in2="effect0_dropShadow" result="shape" />
    </filter>
    <filter filterUnits="userSpaceOnUse" color-interpolation-filters="sRGB" id="filter_2">
      <feFlood flood-opacity="0" result="BackgroundImageFix" />
      <feColorMatrix in="SourceAlpha" type="matrix" values="0 0 0 0 0 0 0 0 0 0 0 0 0 0 0 0 0 0 127 0" />
      <feOffset dx="0" dy="2" />
      <feGaussianBlur stdDeviation="2" />
      <feColorMatrix type="matrix" values="0 0 0 0 0 0 0 0 0 0 0 0 0 0 0 0 0 0 0.5019608 0" />
      <feBlend mode="normal" in2="BackgroundImageFix" result="effect0_dropShadow" />
      <feBlend mode="normal" in="SourceGraphic" in2="effect0_dropShadow" result="shape" />
    </filter>
    <path d="M6 0L33 0Q33.1537 0 33.3063 0.0069945Q33.459 0.013989 33.6103 0.0279637Q33.7616 0.0419385 33.9113 0.0628649Q34.0609 0.0837914 34.2086 0.111627Q34.3563 0.139462 34.5018 0.17415Q34.6472 0.208838 34.7901 0.250307Q34.933 0.291776 35.073 0.339942Q35.2131 0.388108 35.35 0.442873Q35.4869 0.497638 35.6204 0.558889Q35.7539 0.620141 35.8837 0.687755Q36.0135 0.755368 36.1394 0.829206Q36.2653 0.903043 36.3869 0.982954Q36.5086 1.06287 36.6258 1.14869Q36.743 1.23451 36.8556 1.32606Q36.9681 1.41762 37.0757 1.51473Q37.1833 1.61183 37.2857 1.71429Q37.3882 1.81674 37.4853 1.92434Q37.5824 2.03193 37.6739 2.14445Q37.7655 2.25697 37.8513 2.37418Q37.9371 2.49139 38.017 2.61306Q38.097 2.73472 38.1708 2.86059Q38.2446 2.98646 38.3122 3.11628Q38.3799 3.2461 38.4411 3.3796Q38.5024 3.5131 38.5571 3.65001Q38.6119 3.78692 38.6601 3.92696Q38.7082 4.06701 38.7497 4.2099Q38.7912 4.35279 38.8259 4.49823Q38.8605 4.64367 38.8884 4.79138Q38.9162 4.93908 38.9371 5.08874Q38.9581 5.23839 38.972 5.3897Q38.986 5.54101 38.993 5.69367Q39 5.84632 39 6L39 33Q39 33.1537 38.993 33.3063Q38.986 33.459 38.972 33.6103Q38.9581 33.7616 38.9371 33.9113Q38.9162 34.0609 38.8884 34.2086Q38.8605 34.3563 38.8259 34.5018Q38.7912 34.6472 38.7497 34.7901Q38.7082 34.933 38.6601 35.073Q38.6119 35.2131 38.5571 35.35Q38.5024 35.4869 38.4411 35.6204Q38.3799 35.7539 38.3122 35.8837Q38.2446 36.0135 38.1708 36.1394Q38.097 36.2653 38.017 36.3869Q37.9371 36.5086 37.8513 36.6258Q37.7655 36.743 37.6739 36.8556Q37.5824 36.9681 37.4853 37.0757Q37.3882 37.1833 37.2857 37.2857Q37.1833 37.3882 37.0757 37.4853Q36.9681 37.5824 36.8556 37.6739Q36.743 37.7655 36.6258 37.8513Q36.5086 37.9371 36.3869 38.017Q36.2653 38.097 36.1394 38.1708Q36.0135 38.2446 35.8837 38.3122Q35.7539 38.3799 35.6204 38.4411Q35.4869 38.5024 35.35 38.5571Q35.2131 38.6119 35.073 38.6601Q34.933 38.7082 34.7901 38.7497Q34.6472 38.7912 34.5018 38.8259Q34.3563 38.8605 34.2086 38.8884Q34.0609 38.9162 33.9113 38.9371Q33.7616 38.9581 33.6103 38.972Q33.459 38.986 33.3063 38.993Q33.1537 39 33 39L6 39Q5.84632 39 5.69367 38.993Q5.54101 38.986 5.3897 38.972Q5.23839 38.9581 5.08874 38.9371Q4.93908 38.9162 4.79138 38.8884Q4.64367 38.8605 4.49823 38.8259Q4.35279 38.7912 4.2099 38.7497Q4.06701 38.7082 3.92696 38.6601Q3.78692 38.6119 3.65001 38.5571Q3.5131 38.5024 3.3796 38.4411Q3.2461 38.3799 3.11628 38.3122Q2.98646 38.2446 2.86059 38.1708Q2.73472 38.097 2.61306 38.017Q2.49139 37.9371 2.37418 37.8513Q2.25697 37.7655 2.14445 37.6739Q2.03193 37.5824 1.92434 37.4853Q1.81674 37.3882 1.71429 37.2857Q1.61183 37.1833 1.51473 37.0757Q1.41762 36.9681 1.32606 36.8556Q1.23451 36.743 1.14869 36.6258Q1.06287 36.5086 0.982954 36.3869Q0.903043 36.2653 0.829206 36.1394Q0.755368 36.0135 0.687755 35.8837Q0.620141 35.7539 0.558889 35.6204Q0.497638 35.4869 0.442873 35.35Q0.388108 35.2131 0.339942 35.073Q0.291776 34.933 0.250307 34.7901Q0.208838 34.6472 0.17415 34.5018Q0.139462 34.3563 0.111627 34.2086Q0.0837914 34.0609 0.0628649 33.9113Q0.0419385 33.7616 0.0279637 33.6103Q0.013989 33.459 0.0069945 33.3063Q0 33.1537 0 33L0 6Q0 5.84632 0.0069945 5.69367Q0.013989 5.54101 0.0279637 5.3897Q0.0419385 5.23839 0.0628649 5.08874Q0.0837914 4.93908 0.111627 4.79138Q0.139462 4.64367 0.17415 4.49823Q0.208838 4.35279 0.250307 4.2099Q0.291776 4.06701 0.339942 3.92696Q0.388108 3.78692 0.442873 3.65001Q0.497638 3.5131 0.558889 3.3796Q0.620141 3.2461 0.687755 3.11628Q0.755368 2.98646 0.829206 2.86059Q0.903043 2.73472 0.982954 2.61306Q1.06287 2.49139 1.14869 2.37418Q1.23451 2.25697 1.32606 2.14445Q1.41762 2.03193 1.51473 1.92434Q1.61183 1.81674 1.71429 1.71429Q1.81674 1.61183 1.92434 1.51473Q2.03193 1.41762 2.14445 1.32606Q2.25697 1.23451 2.37418 1.14869Q2.49139 1.06287 2.61306 0.982954Q2.73472 0.903043 2.86059 0.829206Q2.98646 0.755368 3.11628 0.687755Q3.2461 0.620141 3.3796 0.558889Q3.5131 0.497638 3.65001 0.442873Q3.78692 0.388108 3.92696 0.339942Q4.06701 0.291776 4.2099 0.250307Q4.35279 0.208838 4.49823 0.17415Q4.64367 0.139462 4.79138 0.111627Q4.93908 0.0837914 5.08874 0.0628649Q5.23839 0.0419385 5.3897 0.0279637Q5.54101 0.013989 5.69367 0.0069945Q5.84632 0 6 0Z" id="path_1" />
    <path d="M24.6451 10C23.6732 10 22.7953 9.78472 22.0114 9.35417C21.2275 8.92361 20.6132 8.32871 20.1685 7.56944C19.7238 6.81018 19.5015 5.95371 19.5015 5C19.5015 4.04629 19.7261 3.18982 20.1754 2.43056C20.6247 1.67129 21.2412 1.07639 22.0252 0.645833C22.8091 0.215276 23.6869 0 24.6588 0C25.4473 0 26.167 0.138887 26.818 0.416667C27.469 0.694446 28.0191 1.09722 28.4683 1.625L27.3131 2.72222C26.6163 1.96296 25.759 1.58333 24.7413 1.58333C24.0812 1.58333 23.4898 1.72917 22.9672 2.02083C22.4446 2.3125 22.0366 2.71759 21.7432 3.23611C21.4498 3.75463 21.3031 4.34259 21.3031 5C21.3031 5.65741 21.4498 6.24537 21.7432 6.76389C22.0366 7.28241 22.4446 7.6875 22.9672 7.97917C23.4898 8.27083 24.0812 8.41667 24.7413 8.41667C25.759 8.41667 26.6163 8.03241 27.3131 7.26389L28.4683 8.375C28.0191 8.90278 27.4667 9.30555 26.8111 9.58333C26.1556 9.86111 25.4336 10 24.6451 10ZM32.3054 9.35417C33.0939 9.78472 33.9786 10 34.9597 10C35.9407 10 36.8255 9.78472 37.614 9.35417C38.4025 8.92361 39.0214 8.32871 39.4706 7.56944C39.9199 6.81018 40.1445 5.95371 40.1445 5C40.1445 4.04629 39.9199 3.18982 39.4706 2.43056C39.0214 1.67129 38.4025 1.07639 37.614 0.645833C36.8255 0.215276 35.9407 0 34.9597 0C33.9786 0 33.0939 0.215276 32.3054 0.645833C31.5169 1.07639 30.898 1.67361 30.4488 2.4375C29.9995 3.20139 29.7749 4.05555 29.7749 5C29.7749 5.94445 29.9995 6.79861 30.4488 7.5625C30.898 8.32639 31.5169 8.92361 32.3054 9.35417ZM6.29879 9.86111L4.33214 7.01389C4.24962 7.02315 4.12585 7.02778 3.96081 7.02778L1.78787 7.02778L1.78787 9.86111L0 9.86111L0 0.138889L3.96081 0.138889C4.79516 0.138889 5.52176 0.277776 6.14064 0.555556C6.75952 0.833335 7.23398 1.23148 7.56405 1.75C7.89412 2.26852 8.05916 2.88426 8.05916 3.59722C8.05916 4.32871 7.88266 4.95833 7.52967 5.48611C7.17668 6.01389 6.67012 6.40741 6.00998 6.66667L8.22419 9.86111L6.29879 9.86111ZM17.7549 9.86111L17.7549 8.34722L12.3225 8.34722L12.3225 5.66667L16.971 5.66667L16.971 4.18056L12.3225 4.18056L12.3225 1.65278L17.5624 1.65278L17.5624 0.138889L10.5347 0.138889L10.5347 9.86111L17.7549 9.86111ZM51.3531 3.41667L51.3668 9.86111L53.0584 9.86111L53.0447 0.138889L51.5731 0.138889L47.8186 6.58333L43.9953 0.138889L42.5237 0.138889L42.5237 9.86111L44.2291 9.86111L44.2291 3.5L47.3922 8.75L48.1899 8.75L51.3531 3.41667ZM66.6737 7.61111L67.6364 9.86111L69.5068 9.86111L65.1609 0.138889L63.4005 0.138889L59.0684 9.86111L60.9113 9.86111L61.8602 7.61111L66.6737 7.61111ZM73 0.138889L71.2121 0.138889L71.2121 9.86111L73 9.86111L73 0.138889ZM34.9597 8.41667C35.6015 8.41667 36.1791 8.27083 36.6925 7.97917C37.206 7.6875 37.6094 7.2801 37.9028 6.75694C38.1962 6.23379 38.3429 5.64815 38.3429 5C38.3429 4.35185 38.1962 3.76621 37.9028 3.24306C37.6094 2.7199 37.206 2.3125 36.6925 2.02083C36.1791 1.72917 35.6015 1.58333 34.9597 1.58333C34.3179 1.58333 33.7403 1.72917 33.2268 2.02083C32.7134 2.3125 32.31 2.7199 32.0166 3.24306C31.7232 3.76621 31.5765 4.35185 31.5765 5C31.5765 5.64815 31.7232 6.23379 32.0166 6.75694C32.31 7.2801 32.7134 7.6875 33.2268 7.97917C33.7403 8.27083 34.3179 8.41667 34.9597 8.41667ZM6.25754 3.59722C6.25754 2.97685 6.05583 2.5 5.65241 2.16667C5.24899 1.83333 4.65763 1.66667 3.8783 1.66667L1.78787 1.66667L1.78787 5.54167L3.8783 5.54167C4.65763 5.54167 5.24899 5.37269 5.65241 5.03472C6.05583 4.69676 6.25754 4.2176 6.25754 3.59722ZM66.0823 6.19444L64.267 1.94444L62.4653 6.19444L66.0823 6.19444ZM56.5241 9.95833C56.2124 9.95833 55.9465 9.84954 55.7264 9.63194C55.5064 9.41435 55.3964 9.13889 55.3964 8.80556C55.3964 8.46296 55.5041 8.18519 55.7196 7.97222C55.935 7.75926 56.2032 7.65278 56.5241 7.65278C56.845 7.65278 57.1132 7.75926 57.3287 7.97222C57.5441 8.18519 57.6518 8.46296 57.6518 8.80556C57.6518 9.13889 57.5418 9.41435 57.3218 9.63194C57.1017 9.84954 56.8358 9.95833 56.5241 9.95833Z" transform="translate(57 17)" id="path_2" />
    <clipPath id="mask_1">
      <use xlink:href="#path_1" />
    </clipPath>
  </defs>
  <g id="logo">
    <g id="Group-3">
      <g id="Group-2">
        <g id="Group-3-Copy-5">
          <path d="M6 0L33 0Q33.1537 0 33.3063 0.0069945Q33.459 0.013989 33.6103 0.0279637Q33.7616 0.0419385 33.9113 0.0628649Q34.0609 0.0837914 34.2086 0.111627Q34.3563 0.139462 34.5018 0.17415Q34.6472 0.208838 34.7901 0.250307Q34.933 0.291776 35.073 0.339942Q35.2131 0.388108 35.35 0.442873Q35.4869 0.497638 35.6204 0.558889Q35.7539 0.620141 35.8837 0.687755Q36.0135 0.755368 36.1394 0.829206Q36.2653 0.903043 36.3869 0.982954Q36.5086 1.06287 36.6258 1.14869Q36.743 1.23451 36.8556 1.32606Q36.9681 1.41762 37.0757 1.51473Q37.1833 1.61183 37.2857 1.71429Q37.3882 1.81674 37.4853 1.92434Q37.5824 2.03193 37.6739 2.14445Q37.7655 2.25697 37.8513 2.37418Q37.9371 2.49139 38.017 2.61306Q38.097 2.73472 38.1708 2.86059Q38.2446 2.98646 38.3122 3.11628Q38.3799 3.2461 38.4411 3.3796Q38.5024 3.5131 38.5571 3.65001Q38.6119 3.78692 38.6601 3.92696Q38.7082 4.06701 38.7497 4.2099Q38.7912 4.35279 38.8259 4.49823Q38.8605 4.64367 38.8884 4.79138Q38.9162 4.93908 38.9371 5.08874Q38.9581 5.23839 38.972 5.3897Q38.986 5.54101 38.993 5.69367Q39 5.84632 39 6L39 33Q39 33.1537 38.993 33.3063Q38.986 33.459 38.972 33.6103Q38.9581 33.7616 38.9371 33.9113Q38.9162 34.0609 38.8884 34.2086Q38.8605 34.3563 38.8259 34.5018Q38.7912 34.6472 38.7497 34.7901Q38.7082 34.933 38.6601 35.073Q38.6119 35.2131 38.5571 35.35Q38.5024 35.4869 38.4411 35.6204Q38.3799 35.7539 38.3122 35.8837Q38.2446 36.0135 38.1708 36.1394Q38.097 36.2653 38.017 36.3869Q37.9371 36.5086 37.8513 36.6258Q37.7655 36.743 37.6739 36.8556Q37.5824 36.9681 37.4853 37.0757Q37.3882 37.1833 37.2857 37.2857Q37.1833 37.3882 37.0757 37.4853Q36.9681 37.5824 36.8556 37.6739Q36.743 37.7655 36.6258 37.8513Q36.5086 37.9371 36.3869 38.017Q36.2653 38.097 36.1394 38.1708Q36.0135 38.2446 35.8837 38.3122Q35.7539 38.3799 35.6204 38.4411Q35.4869 38.5024 35.35 38.5571Q35.2131 38.6119 35.073 38.6601Q34.933 38.7082 34.7901 38.7497Q34.6472 38.7912 34.5018 38.8259Q34.3563 38.8605 34.2086 38.8884Q34.0609 38.9162 33.9113 38.9371Q33.7616 38.9581 33.6103 38.972Q33.459 38.986 33.3063 38.993Q33.1537 39 33 39L6 39Q5.84632 39 5.69367 38.993Q5.54101 38.986 5.3897 38.972Q5.23839 38.9581 5.08874 38.9371Q4.93908 38.9162 4.79138 38.8884Q4.64367 38.8605 4.49823 38.8259Q4.35279 38.7912 4.2099 38.7497Q4.06701 38.7082 3.92696 38.6601Q3.78692 38.6119 3.65001 38.5571Q3.5131 38.5024 3.3796 38.4411Q3.2461 38.3799 3.11628 38.3122Q2.98646 38.2446 2.86059 38.1708Q2.73472 38.097 2.61306 38.017Q2.49139 37.9371 2.37418 37.8513Q2.25697 37.7655 2.14445 37.6739Q2.03193 37.5824 1.92434 37.4853Q1.81674 37.3882 1.71429 37.2857Q1.61183 37.1833 1.51473 37.0757Q1.41762 36.9681 1.32606 36.8556Q1.23451 36.743 1.14869 36.6258Q1.06287 36.5086 0.982954 36.3869Q0.903043 36.2653 0.829206 36.1394Q0.755368 36.0135 0.687755 35.8837Q0.620141 35.7539 0.558889 35.6204Q0.497638 35.4869 0.442873 35.35Q0.388108 35.2131 0.339942 35.073Q0.291776 34.933 0.250307 34.7901Q0.208838 34.6472 0.17415 34.5018Q0.139462 34.3563 0.111627 34.2086Q0.0837914 34.0609 0.0628649 33.9113Q0.0419385 33.7616 0.0279637 33.6103Q0.013989 33.459 0.0069945 33.3063Q0 33.1537 0 33L0 6Q0 5.84632 0.0069945 5.69367Q0.013989 5.54101 0.0279637 5.3897Q0.0419385 5.23839 0.0628649 5.08874Q0.0837914 4.93908 0.111627 4.79138Q0.139462 4.64367 0.17415 4.49823Q0.208838 4.35279 0.250307 4.2099Q0.291776 4.06701 0.339942 3.92696Q0.388108 3.78692 0.442873 3.65001Q0.497638 3.5131 0.558889 3.3796Q0.620141 3.2461 0.687755 3.11628Q0.755368 2.98646 0.829206 2.86059Q0.903043 2.73472 0.982954 2.61306Q1.06287 2.49139 1.14869 2.37418Q1.23451 2.25697 1.32606 2.14445Q1.41762 2.03193 1.51473 1.92434Q1.61183 1.81674 1.71429 1.71429Q1.81674 1.61183 1.92434 1.51473Q2.03193 1.41762 2.14445 1.32606Q2.25697 1.23451 2.37418 1.14869Q2.49139 1.06287 2.61306 0.982954Q2.73472 0.903043 2.86059 0.829206Q2.98646 0.755368 3.11628 0.687755Q3.2461 0.620141 3.3796 0.558889Q3.5131 0.497638 3.65001 0.442873Q3.78692 0.388108 3.92696 0.339942Q4.06701 0.291776 4.2099 0.250307Q4.35279 0.208838 4.49823 0.17415Q4.64367 0.139462 4.79138 0.111627Q4.93908 0.0837914 5.08874 0.0628649Q5.23839 0.0419385 5.3897 0.0279637Q5.54101 0.013989 5.69367 0.0069945Q5.84632 0 6 0Z" id="Rectangle" fill="url(#gradient_1)" stroke="none" />
          <g clip-path="url(#mask_1)">
            <g id="Group" transform="translate(-7.268182 -6.913636)">
              <g filter="url(#filter_1)">
                <path d="M0 0L49.4655 25.0648L49.4655 40.1285L0 15.0637L0 0Z" transform="translate(0.01384943 0.1661932)" id="Rectangle" fill="url(#gradient_2)" fill-opacity="0.135300413" stroke="none" />
              </g>
              <g filter="url(#filter_2)">
                <path d="M0 0L49.4655 25.0648L49.4655 40.1285L0 15.0637L0 0Z" transform="translate(0.01384943 29.21799)" id="Rectangle" fill="url(#gradient_3)" fill-opacity="0.135300413" stroke="none" />
              </g>
            </g>
          </g>
        </g>
        <g id="Group-4" transform="translate(6.24 7.28)">
          <path d="M0 0L15.028 6.89844L15.028 21.3973L0 14.4989L0 0Z" transform="translate(11.492 0)" id="Rectangle" fill="#FFFFFF" stroke="none" />
          <path d="M0 0L12.5528 6.06532L12.5528 17.8193L0 11.754L0 0Z" transform="translate(5.8344 5.292857)" id="Rectangle" fill="#FF5B6E" fill-opacity="0.9122256" stroke="none" />
          <path d="M0 0L10.4312 5.04442L10.4312 14.82L0 9.77558L0 0Z" transform="translate(0 9.88)" id="Rectangle" fill="#F8E71C" fill-opacity="0.899902344" stroke="none" />
        </g>
      </g>
    </g>
    <g id="Recom.ai">
      <use stroke="none" fill="#1D262C" xlink:href="#path_2" fill-rule="evenodd" />
      <use stroke="none" fill="#1D262C" xlink:href="#path_2" fill-rule="evenodd" />
    </g>
  </g>
</svg>