<?xml version="1.0" encoding="utf-8"?>
<svg width="767px" height="721px" viewBox="0 0 767 721" version="1.1" xmlns:xlink="http://www.w3.org/1999/xlink" xmlns="http://www.w3.org/2000/svg">
  <desc>Created with Lunacy</desc>
  <defs>
    <linearGradient x1="1.11926544" y1="0.7673427" x2="0.115048684" y2="0.116428085" id="gradient_1">
      <stop offset="0" stop-color="#FAD0C4" />
      <stop offset="1" stop-color="#FFD1FF" />
    </linearGradient>
    <linearGradient x1="0.689776659" y1="0.7344376" x2="0.7268388" y2="0.9763476" id="gradient_2">
      <stop offset="0" stop-color="#FFFFFF" stop-opacity="0" />
      <stop offset="1" stop-color="#FFFFFF" />
    </linearGradient>
    <linearGradient x1="0.5" y1="0.098009415" x2="0.352678567" y2="0.7673427" id="gradient_3">
      <stop offset="0" stop-color="#FAD0C4" />
      <stop offset="1" stop-color="#FFD1FF" />
    </linearGradient>
    <linearGradient x1="0.6542785" y1="0.5" x2="0.7268388" y2="0.9763476" id="gradient_4">
      <stop offset="0" stop-color="#FFFFFF" stop-opacity="0" />
      <stop offset="0.961434245" stop-color="#FFFFFF" stop-opacity="0.854901969" />
      <stop offset="1" stop-color="#FFFFFF" />
    </linearGradient>
    <linearGradient x1="0.57711947" y1="0.533862352" x2="0.655307949" y2="1.18980241" id="gradient_5">
      <stop offset="0" stop-color="#FAD0C4" />
      <stop offset="1" stop-color="#FFD1FF" />
    </linearGradient>
    <linearGradient x1="0.3646351" y1="0.8573138" x2="0.3868629" y2="0.223453313" id="gradient_6">
      <stop offset="0" stop-color="#FAD0C4" />
      <stop offset="1" stop-color="#FFD1FF" />
    </linearGradient>
    <linearGradient x1="0.0703931153" y1="-0.08372662" x2="0.277564764" y2="0.8561341" id="gradient_7">
      <stop offset="0" stop-color="#FAD0C4" />
      <stop offset="1" stop-color="#FFD1FF" />
    </linearGradient>
    <linearGradient x1="0.183273852" y1="0.416435659" x2="0.293676645" y2="0.7125791" id="gradient_8">
      <stop offset="0" stop-color="#FAD0C4" />
      <stop offset="1" stop-color="#FFD1FF" />
    </linearGradient>
    <linearGradient x1="0.09167266" y1="0.359015346" x2="0.761005938" y2="0.506336749" id="gradient_9">
      <stop offset="0" stop-color="#FAD0C4" />
      <stop offset="1" stop-color="#FFD1FF" />
    </linearGradient>
    <linearGradient x1="0" y1="0.1612675" x2="1" y2="0.9124798" id="gradient_10">
      <stop offset="0" stop-color="#FFC8BA" />
      <stop offset="1" stop-color="#FFD1FF" />
    </linearGradient>
    <linearGradient x1="0.302055031" y1="0" x2="0.8621773" y2="0.19140625" id="gradient_11">
      <stop offset="0" stop-color="#FFC8BA" />
      <stop offset="1" stop-color="#FFD1FF" />
    </linearGradient>
    <linearGradient x1="0.655468762" y1="0" x2="-1.70747769" y2="0.5" id="gradient_12">
      <stop offset="0" stop-color="#FFC8BA" />
      <stop offset="1" stop-color="#FFD1FF" />
    </linearGradient>
    <linearGradient x1="0" y1="0.4120433" x2="0.20287329" y2="0.8670063" id="gradient_13">
      <stop offset="0" stop-color="#8AB5FF" />
      <stop offset="1" stop-color="#CCE3FF" />
    </linearGradient>
    <linearGradient x1="-1.58159018" y1="-0.309751153" x2="-1.70747769" y2="0.5" id="gradient_14">
      <stop offset="0" stop-color="#FFC8BA" />
      <stop offset="1" stop-color="#FFD1FF" />
    </linearGradient>
    <linearGradient x1="0.5" y1="1" x2="0.5" y2="-2.48949816E-17" id="gradient_15">
      <stop offset="0" stop-color="#FDDF9F" />
      <stop offset="1" stop-color="#FF1249" />
    </linearGradient>
    <linearGradient x1="0.5" y1="0" x2="0.5" y2="1" id="gradient_16">
      <stop offset="0" stop-color="#35677D" />
      <stop offset="1" stop-color="#183647" />
    </linearGradient>
    <linearGradient x1="0.398153424" y1="0.459039629" x2="0.668927252" y2="0.1759334" id="gradient_17">
      <stop offset="0" stop-color="#35677D" />
      <stop offset="1" stop-color="#183647" />
    </linearGradient>
    <radialGradient gradientUnits="objectBoundingBox" cx="50%" cy="0%" fx="50%" fy="0%" r="102.6899%" gradientTransform="translate(0.5,0),rotate(90),scale(1,0.8363947),translate(-0.5,0)" id="gradient_18">
      <stop offset="0%" stop-color="#7A858F" />
      <stop offset="100%" stop-color="#FFFFFF" />
    </radialGradient>
    <linearGradient x1="-1.110223E-16" y1="5.81132364E-17" x2="0.9393111" y2="0.9519531" id="gradient_19">
      <stop offset="0" stop-color="#2627C5" />
      <stop offset="1" stop-color="#43BEFF" />
    </linearGradient>
    <linearGradient x1="0.5" y1="0.240505636" x2="0.261393219" y2="0" id="gradient_20">
      <stop offset="0" stop-color="#FFFFFF" stop-opacity="0.956862748" />
      <stop offset="1" stop-color="#FFFFFF" stop-opacity="0.3372549" />
    </linearGradient>
    <radialGradient gradientUnits="objectBoundingBox" cx="50%" cy="-18.66455%" fx="50%" fy="-18.66455%" r="230.5452%" gradientTransform="translate(0.5,-0.1866455),scale(0.3478261,1),rotate(134.3352),translate(-0.5,0.1866455)" id="gradient_21">
      <stop offset="0%" stop-color="#61F3AC" />
      <stop offset="100%" stop-color="#029AC0" />
    </radialGradient>
    <linearGradient x1="0.7136824" y1="0.5725337" x2="0.270353615" y2="0.342156649" id="gradient_22">
      <stop offset="0" stop-color="#FCE6CE" />
      <stop offset="1" stop-color="#FAC99D" />
    </linearGradient>
    <linearGradient x1="0.3768295" y1="0.6790096" x2="0.6072065" y2="0.235680774" id="gradient_23">
      <stop offset="0" stop-color="#FCE6CE" />
      <stop offset="1" stop-color="#FAC99D" />
    </linearGradient>
    <linearGradient x1="0.818926752" y1="1.05645883" x2="-0.256777763" y2="0.494309843" id="gradient_24">
      <stop offset="0" stop-color="#7A858F" />
      <stop offset="1" stop-color="#FFFFFF" />
    </linearGradient>
    <linearGradient x1="0" y1="1.31323659" x2="0.562149" y2="0.237532079" id="gradient_25">
      <stop offset="0" stop-color="#7A858F" />
      <stop offset="1" stop-color="#FFFFFF" />
    </linearGradient>
    <linearGradient x1="0.5" y1="0.6464078" x2="1.69283152" y2="1.16191792" id="gradient_26">
      <stop offset="0" stop-color="#FFFFFF" stop-opacity="0" />
      <stop offset="1" stop-color="#FFFFFF" />
    </linearGradient>
    <linearGradient x1="0.5" y1="0" x2="0.5" y2="1" id="gradient_27">
      <stop offset="0" stop-color="#FAD961" />
      <stop offset="1" stop-color="#F76B1C" />
    </linearGradient>
    <linearGradient x1="0.5" y1="0.240505636" x2="0.261393219" y2="0" id="gradient_28">
      <stop offset="0" stop-color="#FFFFFF" stop-opacity="0" />
      <stop offset="1" stop-color="#FFFFFF" stop-opacity="0.3372549" />
    </linearGradient>
    <linearGradient x1="-5.526693" y1="0.5" x2="2.279948" y2="0.5" id="gradient_29">
      <stop offset="0" stop-color="#FAD961" />
      <stop offset="1" stop-color="#9E0902" />
    </linearGradient>
    <path d="M199.675 386.487C108.823 342.387 10.8845 407.009 21.146 293.102C31.4074 179.195 -21.6621 151.675 10.4615 81.1056C42.585 10.5358 163.16 -24.5593 220.055 19.3929C276.95 63.3451 257.058 92.1104 332.421 110.432C407.783 128.754 512.074 138.855 522.688 243.712C533.301 348.569 463.925 431.648 397.484 431.648C331.043 431.648 290.527 430.588 199.675 386.487Z" transform="matrix(0.8660254 -0.5000001 -0.5000001 -0.8660254 249.9496 668.022)" id="path_1" />
    <path d="M25 50C38.8071 50 50 38.8071 50 25C50 11.1929 38.8071 0 25 0C11.1929 0 0 11.1929 0 25C0 38.8071 11.1929 50 25 50Z" transform="translate(224 180)" id="path_2" />
    <path d="M22.2969 122.316C22.2969 114.606 89.1953 93.129 119.195 69.9534C149.195 46.7778 170.195 -35.286 232.195 17.2481C294.195 69.7822 234.614 131.655 310.195 143.189C385.777 154.724 415.195 65.6056 487.652 62.1515C560.109 58.6974 559.195 91.2356 559.195 104.324C559.195 117.412 528.266 245.939 528.266 245.939C528.266 245.939 296.763 286.606 273.683 286.606C250.604 286.606 19.9336 236.846 12.1953 228.405C4.45703 219.963 3.28637e-16 155.196 0 152.437C0 149.677 22.2969 130.027 22.2969 122.316Z" transform="translate(90 299)" id="path_3" />
    <path d="M49.4267 14.4862C48.6572 14.4862 47.8892 14.5611 47.135 14.7104C46.5663 11.933 44.7277 9.56379 42.1462 8.28139C39.5652 6.999 36.5255 6.94521 33.8983 8.13511C31.5208 1.72666 24.2844 -1.58212 17.7354 0.744384C11.1864 3.07089 7.80506 10.1524 10.1826 16.5604C4.4458 16.7378 2.06676e-19 27 2.06676e-19 27L61 25.8111C61 25.8111 55.818 14.4862 49.4267 14.4862Z" id="path_4" />
    <path d="M70.4939 20.9246C69.3963 20.9246 68.3009 21.0328 67.2253 21.2484C66.4143 17.2366 63.7919 13.8144 60.1102 11.962C56.4291 10.1097 52.0938 10.032 48.3468 11.7507C44.9559 2.49407 34.6351 -2.28528 25.2948 1.07522C15.9544 4.43573 11.1318 14.6646 14.5227 23.9206C6.34073 24.1769 2.94767e-19 39 2.94767e-19 39L87 37.2827C87 37.2827 79.6093 20.9246 70.4939 20.9246Z" id="path_5" />
    <path d="M32.6815 16.2277C31.4309 25.9947 36.435 50.1019 36.435 50.1019L36.435 50.1019L0 110.602C0 110.602 7.6627 118.323 12.1981 120.529L12.1981 120.529C12.1981 120.529 40.9704 97.2096 52.5405 79.0909L52.5405 79.0909C64.1124 60.9721 62.08 43.9566 61.7669 37.4976L61.7669 37.4976C61.4538 31.0368 56.6071 0 56.6071 0L56.6071 0C56.6071 0 33.9338 6.45903 32.6815 16.2277" transform="translate(0.7368649 0.7476857)" id="path_6" />
    <path d="M56.9215 16.5336C57.9932 26.156 64.383 45.2653 66.7555 60.5736L66.7555 60.5736C68.0182 68.613 68.1693 75.6163 65.8524 79.6464L65.8524 79.6464C59.1638 91.3394 0 129.447 0 129.447L0 129.447C0 129.447 0.0590526 129.976 0.132 130.86L0.132 130.86C0.547105 134.945 1.84626 146.638 3.31563 148.464L3.31563 148.464C5.08895 150.667 71.2592 123.497 89.3848 95.406L89.3848 95.406C107.491 67.2957 91.2294 9.24745 77.6455 2.69544L77.6455 2.69544C73.8662 0.874761 70.462 -0.00173306 67.5475 2.57251e-06L67.5475 2.57251e-06C59.9784 2.57251e-06 55.737 5.91504 56.9215 16.5336" transform="translate(63.22579 8.593307)" id="path_7" />
    <path d="M6.46182 38.1398C6.46182 38.1398 11.2646 52.3673 23.4795 54.3467C35.6943 56.3261 43.3815 54.0749 45.0481 51.7348C46.7146 49.3946 47.2453 28.5819 45.0481 19.7082C42.8509 10.8345 40.7466 5.24258 36.1871 2.65106C31.6276 0.0595457 17.6359 -2.90151 15.803 5.87958C13.9702 14.6607 8.29466 23.9797 8.29466 23.9797C8.29466 23.9797 4.81728 20.3888 2.47701 22.1842C0.136748 23.9797 -0.679055 28.2982 0.60968 31.2205C1.89842 34.1427 6.46182 38.1398 6.46182 38.1398Z" transform="matrix(-0.9876884 -0.1564345 -0.1564345 0.9876884 55.93211 8.116184)" id="path_8" />
    <path d="M49.833 35.322C49.833 34.8016 49.4606 33.8717 49.2197 33.4182C48.1449 31.2637 45.3983 30.7204 43.4451 32.1038L36.7697 36.8872L36.5936 37C30.2036 33.6669 31.8957 21.5381 31.8957 21.5381C26.5098 23.1662 15.3478 21.2207 11.7326 21C4.47071 20.5568 4.95542 33.1236 4.95542 33.1236C3.21877 31.3766 1.21076 29.8966 0.71702 28.2733C-2.25559 18.5 4.97566 11.8146 4.97566 11.8146C2.32008 9.70612 4.97566 0 4.97566 0C4.97566 0 20.3909 3.65219 20.3909 3.65219C19.7311 1.93026 21.8868 8.97143e-14 21.8868 8.97143e-14C21.8868 8.97143e-14 29.8757 1.77144 33.3672 3.63129C40.0851 7.21099 44.9591 13.173 44.9591 13.173C50.9766 18.9552 51.4361 25.983 50.8876 30.5386C50.5597 33.4182 49.833 35.322 49.833 35.322Z" transform="translate(0.9401582 0)" id="path_9" />
    <clipPath id="mask_1">
      <use xlink:href="#path_1" />
    </clipPath>
    <clipPath id="mask_2">
      <use xlink:href="#path_6" />
    </clipPath>
    <clipPath id="mask_3">
      <use xlink:href="#path_7" />
    </clipPath>
    <clipPath id="mask_4">
      <use xlink:href="#path_9" />
    </clipPath>
  </defs>
  <g id="pic-Shopify" transform="translate(0.5 0.5)">
    <g id="bg-pic2" transform="matrix(-1 0 0 1 766 0)" opacity="0.8210798">
      <path d="M238.243 451.135C192.472 437.716 -11.8218 460.763 0.537866 324.005C12.8975 187.246 -13.8074 148.583 24.8845 63.8558C63.5764 -20.8713 217.745 -11.8161 280.1 36.1839C342.455 84.1839 288.074 96.6543 378.846 118.652C469.618 140.649 591.847 138.815 604.631 264.707C617.414 390.6 505.335 480.914 425.309 480.914C345.283 480.914 284.015 464.555 238.243 451.135Z" transform="matrix(0.8660254 -0.5000001 -0.5000001 -0.8660254 241.0892 719.3458)" id="Path-7" fill="#FFEBEB" stroke="none" />
      <g id="Path-7">
        <use stroke="none" fill="url(#gradient_1)" fill-opacity="0.8210798" xlink:href="#path_1" />
        <use stroke="none" fill="url(#gradient_2)" fill-opacity="0.8210798" xlink:href="#path_1" />
      </g>
      <g clip-path="url(#mask_1)">
        <g id="Oval">
          <use stroke="none" fill="url(#gradient_3)" xlink:href="#path_2" />
          <use stroke="none" fill="url(#gradient_4)" fill-opacity="0.6" xlink:href="#path_2" />
        </g>
        <path d="M22.2969 122.316C22.2969 114.606 89.1953 93.129 119.195 69.9534C149.195 46.7778 170.195 -35.286 232.195 17.2481C294.195 69.7822 234.614 131.655 310.195 143.189C385.777 154.724 415.195 65.6056 487.652 62.1515C560.109 58.6974 559.195 91.2356 559.195 104.324C559.195 117.412 528.266 245.939 528.266 245.939C528.266 245.939 296.763 286.606 273.683 286.606C250.604 286.606 19.9336 236.846 12.1953 228.405C4.45703 219.963 3.28637e-16 155.196 0 152.437C0 149.677 22.2969 130.027 22.2969 122.316Z" transform="translate(96.80469 272.3944)" id="Path-4" fill="url(#gradient_5)" stroke="none" />
        <g id="Path-4">
          <use stroke="none" fill="url(#gradient_6)" fill-opacity="0.590936542" xlink:href="#path_3" />
          <use stroke="none" fill="url(#gradient_2)" fill-opacity="0.590936542" xlink:href="#path_3" />
        </g>
        <path d="M22.3441 174.528C22.3441 174.528 -25.6247 77.2376 29.387 68.1978C84.3987 59.1579 87.0276 90.283 120.301 27.4845C153.575 -35.3141 299.195 28.3742 299.195 33.968C299.195 39.5618 200.325 115.053 200.325 122.769C200.325 130.484 79.4605 204.604 74.1675 205.685C68.8745 206.766 22.3441 174.528 22.3441 174.528Z" transform="matrix(0.6156615 0.7880107 -0.7880107 0.6156615 204.0894 272)" id="Path-26" fill="url(#gradient_7)" stroke="none" />
        <path d="M15.1546 188.724C15.1546 188.724 -18.3411 41.9312 22.1976 82.3935C62.7362 122.856 81.4356 68.4625 113.112 41.6802C144.788 14.8979 173.103 20.49 174.306 18.819C212.928 -34.8366 292.005 42.7389 292.005 48.1637C292.005 53.7575 193.135 129.249 193.135 136.964C193.135 144.68 72.271 218.799 66.9781 219.881C61.6851 220.962 15.1546 188.724 15.1546 188.724Z" transform="matrix(0.6156615 0.7880107 -0.7880107 0.6156615 203.3316 299)" id="Path-26" fill="url(#gradient_8)" stroke="none" />
        <g id="cloud" transform="translate(351 198)">
          <g id="Path">
            <use stroke="none" fill="url(#gradient_9)" xlink:href="#path_4" />
            <use stroke="none" fill="url(#gradient_4)" fill-opacity="0.6" xlink:href="#path_4" />
          </g>
        </g>
      </g>
    </g>
    <g id="Group-43" transform="translate(102 353)">
      <path d="M32.9444 0C32.9444 0 36.2221 25.4118 36.9403 43.4433C38.3145 77.933 15.5997 85.1147 5.90155 91C-7.03329 65.8198 3.52075 43.0338 16.2155 25.3921C28.9085 7.75131 31.4996 6.53584 32.9444 0" transform="translate(113 16)" id="Fill-317" fill="url(#gradient_10)" stroke="none" />
      <path d="M30.8139 43.4433C29.4987 25.3902 26.847 0 26.847 0C26.8876 13.6564 18.3884 58.5844 2.70714 86.1946C1.92945 87.5692 0.699183 89.6066 0 91C10.6244 85.8453 33.2791 77.2354 30.8139 43.4433" transform="translate(119 16)" id="Fill-318" fill="url(#gradient_11)" stroke="none" />
      <path d="M0 21.7515C0 21.7515 23.6604 4.89772 41.2922 1.21697C75.0167 -5.82557 91.824 19.3579 94 34.1437C71.3295 51.3317 57.614 36.3983 38.1733 26.47C18.7316 16.5436 7.15174 19.9035 0 21.7515" transform="translate(0 119)" id="Fill-319" fill="url(#gradient_12)" stroke="none" />
      <path d="M37.9968 9.54146C57.1841 19.3488 70.7746 34.0422 93 17.5948C86.5834 10.1827 72.3198 7.23548 47.1357 1.26991C35.1643 -1.56538 17.1624 0.759574 0.925475 4.19436C0.332797 4.60509 0 4.84033 0 4.84033C7.11868 2.99915 18.6451 -0.34836 37.9968 9.54146" transform="translate(0 136)" id="Fill-320" fill="url(#gradient_10)" stroke="none" />
      <path d="M76 0.153317C76 0.153317 47.0803 -1.34067 30.1953 4.99863C-2.09994 17.1213 -3.11475 47.2436 2.81328 60.8169C31.07 63.1216 34.848 43.2524 46.1153 24.5252C57.3817 5.798 68.9659 2.42591 76 0.153317" transform="translate(124 98)" id="Fill-321" fill="url(#gradient_12)" stroke="none" />
      <path d="M42.3176 24.4669C31.2237 43.0729 27.4236 62.789 0 60.8703C1.54507 51.1598 12.0691 40.9963 30.2513 22.4055C38.8921 13.5687 55.3424 5.84013 70.8781 0C71.5946 0.0264773 72 0.0472809 72 0.0472809C65.0135 2.32433 53.5077 5.70302 42.3176 24.4669" transform="translate(127 98)" id="Fill-322" fill="url(#gradient_11)" stroke="none" />
      <path d="M33.7634 26.7314L33.7784 26.7541C44.8005 43.5908 51.0279 60.4974 77.1762 56.3714C82.0674 42.3836 78.844 12.3932 45.864 2.69585C30.6347 -1.78443 6.53754 0.534586 1.11786 1.13536L0.97262 1.15236C0.352317 1.22132 0 1.26571 0 1.26571C7.15691 3.01324 18.9145 5.51551 31.4855 23.3696C31.8791 23.9269 32.2623 24.4861 32.6418 25.0444L32.7758 25.2465C33.1094 25.7415 33.4392 26.2365 33.7634 26.7314" transform="translate(14 75)" id="Fill-323" fill="url(#gradient_10)" stroke="none" />
      <path d="M19.812 77L16.4185 76.8015C16.4479 76.3051 19.1599 26.9963 0 2.03046L2.71099 0C22.633 25.9604 19.9371 74.9283 19.812 77" transform="translate(93 86)" id="Fill-324" fill="url(#gradient_13)" stroke="none" />
      <path d="M0 0C0 0 22.6543 23.528 37.2927 41.5392C65.2919 75.9913 50.5603 101.99 46.4583 116C15.3497 100.612 7.09858 68.4694 4.75403 39.883C2.40947 11.2966 3.78121 7.92366 0 0" transform="translate(61 0)" id="Fill-325" fill="url(#gradient_10)" stroke="none" />
      <path d="M37.5069 41.5392C22.2195 24.0035 0 0 0 0C10.6981 14.0522 38.0727 67.4021 45.4278 108.811C45.7949 110.872 46.2718 113.985 46.7251 116C52.3249 101.921 66.1163 74.3625 37.5069 41.5392" transform="translate(61 0)" id="Fill-326" fill="url(#gradient_12)" stroke="none" />
      <path d="M64 0C64 0 59.4533 32.3784 54.3085 55.024C44.4681 98.3428 14.9668 102.645 1.43407 108C-5.62099 73.9296 14.5618 47.6621 35.5838 28.2513C56.6058 8.84334 60.0995 7.85666 64 0" transform="translate(116 44)" id="Fill-330" fill="url(#gradient_12)" stroke="none" />
      <path d="M52.3961 55.024C56.7822 32.2264 62 0 62 0C57.5448 17.0475 32.5985 71.351 4.81174 102.565C3.42935 104.119 1.29371 106.407 0 108C14.3587 103.763 44.184 97.696 52.3961 55.024" transform="translate(119 44)" id="Fill-331" fill="url(#gradient_14)" stroke="none" />
      <path d="M0 0C0 0 2.22641 25.5401 5.38799 43.3123C11.4338 77.308 35.3152 79.368 46.1155 83C53.4376 55.5798 38.1685 35.6205 21.8996 21.1555C5.63068 6.69139 2.8233 6.06878 0 0" transform="translate(63 74)" id="Fill-332" fill="url(#gradient_12)" stroke="none" />
      <path d="M5.37449 43.3123C2.81343 25.3866 0 0 0 0C2.88072 13.3508 20.8932 55.3745 42.2958 78.9036C43.3595 80.0744 45.0111 81.7943 46 83C34.3977 80.3014 10.1676 76.8662 5.37449 43.3123" transform="translate(63 74)" id="Fill-333" fill="url(#gradient_11)" stroke="none" />
      <path d="M67 0C67 0 38.2203 4.00383 22.7847 13.3758C-6.7416 31.3011 -2.03495 60.8788 6.37605 73C34.6546 69.9123 34.616 49.8153 42.1691 29.4202C49.7231 9.02408 60.4992 3.54719 67 0" transform="translate(102 95)" id="Fill-334" fill="url(#gradient_12)" stroke="none" />
      <path d="M35.143 29.4569C27.6453 49.7075 27.6037 69.6502 0.0078729 73C-0.296344 63.2389 8.23212 51.3279 22.7703 29.7432C29.6813 19.4827 44.553 8.81847 58.8776 0.168051C59.5956 0.0582077 60 0 60 0C53.4924 3.55161 42.705 9.03534 35.143 29.4569" transform="translate(110 95)" id="Fill-335" fill="url(#gradient_11)" stroke="none" />
    </g>
    <g id="cloud" transform="matrix(-1 0 0 1 648 253)">
      <g id="Path">
        <use stroke="none" fill="url(#gradient_3)" xlink:href="#path_5" />
        <use stroke="none" fill="url(#gradient_4)" fill-opacity="0.6" xlink:href="#path_5" />
      </g>
    </g>
    <g id="Group-9" transform="translate(181 86)">
      <g id="Group-7" transform="matrix(-1 0 0 1 390 146)">
        <path d="M36.8954 0C36.8954 0 27.0027 12.673 23.6471 13.5166C20.2914 14.3602 4.03618 13.9573 1.21779 19.6256C-1.6006 25.2986 0.949144 28 4.03618 28C7.12792 28 53.4617 28 53.4617 28C53.4617 28 54.6729 18.1422 53.4617 11.9289C52.2551 5.71564 51.4021 2.34123 51.4021 2.34123C51.4021 2.34123 37.6589 1.44076 36.8954 0" transform="translate(140 215)" id="Fill-390" fill="url(#gradient_15)" stroke="none" />
        <path d="M28.6983 8.21532C16.6552 14.3872 3.67188 15.2041 1.28294 20.196C-2.17746 27.4236 2.32161 48.1463 3.56801 55.5889C4.81441 63.0314 10.1827 126.441 11.6642 129.642C12.1452 130.674 30.8303 133.043 32.0767 131.591C33.3176 130.139 38.0026 73.7797 36.4337 63.3945C34.6679 51.686 36.6961 51.2322 37.6309 49.8994C38.5438 48.6001 49.2101 -5.4376 46 0.447907C40.2336 11.0203 33.8582 5.57215 28.6983 8.21532Z" transform="matrix(0.9271839 -0.3746066 0.3746066 0.9271839 161.7094 101.092)" id="Fill-391" fill="url(#gradient_16)" stroke="none" />
        <path d="M28.6983 55.6065C16.6552 61.7784 3.67188 62.5952 1.28294 67.5872C-2.17746 74.8148 2.32161 95.5374 3.56801 102.98C4.81441 110.423 10.1827 173.832 11.6642 177.033C12.1452 178.065 30.8303 180.434 32.0767 178.982C33.3176 177.53 38.0026 121.171 36.4337 110.786C34.6679 99.0772 36.6961 98.6234 37.6309 97.2906C38.5438 95.9912 148.129 81.6555 148.129 81.6555C148.129 81.6555 162.471 29.4637 145 7.1408C127.534 -15.1821 55 32.2789 55 32.2789C55 32.2789 40.7469 49.4346 28.6983 55.6065Z" transform="translate(161 38.55929)" id="Fill-391" fill="url(#gradient_17)" stroke="none" />
        <g id="Group-11" transform="translate(7 204)">
          <path d="M33 66C51.2254 66 66 51.2254 66 33C66 14.7746 51.2254 0 33 0C14.7746 0 0 14.7746 0 33C0 51.2254 14.7746 66 33 66Z" transform="translate(12 12)" id="Oval" fill="url(#gradient_18)" stroke="none" />
          <path d="M44.4979 89C19.9233 89 0 69.0767 0 44.4979C0 19.9233 19.9233 0 44.4979 0C69.0767 0 89 19.9233 89 44.4979C89 69.0767 69.0767 89 44.4979 89ZM44.4979 12C26.5494 12 12 26.5494 12 44.4979C12 62.4464 26.5494 77 44.4979 77C62.4464 77 77 62.4464 77 44.4979C77 26.5494 62.4464 12 44.4979 12Z" id="Fill-392" fill="#3D4C52" fill-rule="evenodd" stroke="none" />
        </g>
        <g id="Group-11" transform="translate(297 204)">
          <path d="M33 66C51.2254 66 66 51.2254 66 33C66 14.7746 51.2254 0 33 0C14.7746 0 0 14.7746 0 33C0 51.2254 14.7746 66 33 66Z" transform="translate(12 12)" id="Oval" fill="url(#gradient_18)" stroke="none" />
          <path d="M44.4979 89C19.9233 89 0 69.0767 0 44.4979C0 19.9233 19.9233 0 44.4979 0C69.0767 0 89 19.9233 89 44.4979C89 69.0767 69.0767 89 44.4979 89ZM44.4979 12C26.5494 12 12 26.5494 12 44.4979C12 62.4464 26.5494 77 44.4979 77C62.4464 77 77 62.4464 77 44.4979C77 26.5494 62.4464 12 44.4979 12Z" id="Fill-392" fill="#3D4C52" fill-rule="evenodd" stroke="none" />
        </g>
        <path d="M117 48L1.0943 34.5413C1.0943 34.5413 -1.82369 32.0724 1.87021 26.0252C5.56411 19.9827 18.4832 -2.4359 62.9624 0.217135C107.437 2.87016 117 48 117 48" transform="translate(0 186)" id="Fill-393" fill="url(#gradient_19)" stroke="none" />
        <path d="M13.5 27C20.9558 27 27 20.9558 27 13.5C27 6.04416 20.9558 0 13.5 0C6.04416 0 0 6.04416 0 13.5C0 20.9558 6.04416 27 13.5 27Z" transform="translate(76 79)" id="Oval" fill="url(#gradient_20)" stroke="none" />
        <path d="M0 0L0 41C0 41 20 36.9379 20 19.4953C20 2.05743 0 0 0 0" transform="translate(86 72)" id="Fill-394" fill="url(#gradient_19)" stroke="none" />
        <path d="M63.3608 2.3188C63.3608 2.3188 44.3176 70.9062 41.8686 91.0498C39.4196 111.189 71.2521 182.77 71.2521 182.77L141.448 182.77C141.448 182.77 147.434 155.282 149.339 146.571C151.239 137.86 149.611 97.0336 153.421 92.5445C157.226 88.0555 235.04 72.8117 247.285 76.8948C259.526 80.978 310.54 113.228 313.944 131.332C315.113 137.569 297.889 192.298 281.839 199.103C265.784 205.903 163.756 215.975 124.032 212.164C84.3135 208.353 46.6139 203.921 42.9428 201.199C39.2668 198.477 4.04967 109.283 0.240082 99.7557C-3.5695 90.2284 39.1475 0.957744 44.0455 0.141114C48.9436 -0.675517 63.3608 2.3188 63.3608 2.3188" transform="translate(76 60)" id="Fill-395" fill="url(#gradient_19)" stroke="none" />
        <path d="M0 89C0 89 0.185715 13.7698 36.281 3.47372C62.2096 -3.92613 114.053 2.18968 141.195 6.22251C150.848 7.65872 157.057 17.2414 154.372 26.6149C149.291 44.3726 139.667 70.2055 125.3 77.4627C102.772 88.8478 0 89 0 89" transform="translate(233 183)" id="Fill-397" fill="url(#gradient_19)" stroke="none" />
        <path d="M7.47183 32C7.47183 32 -2.42082 18.1712 0.559812 14.9397C3.54044 11.7081 81.284 1.73454 86.1614 0.118747C91.0388 -1.49705 93.216 13.853 91.3192 17.2263C89.4225 20.5949 7.47183 32 7.47183 32" transform="translate(224 119)" id="Fill-398" fill="url(#gradient_21)" stroke="none" />
        <path d="M107.307 22.5443C108.935 20.7857 129.829 0 129.829 0L151 8.49441C151 8.49441 130.644 28.0808 122.639 34.2905C114.63 40.5049 110.292 40.3864 104.65 40.5143C98.9213 40.6423 42.719 41.7231 40.0048 41.9933C40.0024 41.9935 40.0001 41.9938 39.9977 41.994L40 42.0064C40 42.0064 35.4902 42.0064 30.3806 42.9992C25.2806 43.9921 2.12693 48.3246 0.217445 44.3531C-1.16171 41.499 4.28807 37.6659 8.98629 34.3615C10.8256 33.0678 12.5497 31.8551 13.7038 30.814C17.5498 27.3442 22.9184 29.6668 26.1992 31.0861C26.4176 31.1806 26.6267 31.271 26.8255 31.3555C30.0208 32.7094 38.5319 34.0349 38.5319 34.0349L38.5328 34.04C38.5825 34.0314 38.6335 34.0248 38.6858 34.0203C41.8428 33.7548 88.1741 25.2462 93.8739 25.1088C99.5737 24.9713 105.678 24.2982 107.307 22.5443Z" transform="translate(128 0)" id="Combined-Shape" fill="url(#gradient_22)" fill-rule="evenodd" stroke="none" />
        <path d="M4.12255 0L0 8.17703L5.15319 10L9 1.69378L4.12255 0" transform="translate(133 40)" id="Fill-402" fill="#544949" stroke="none" />
        <path d="M19.2611 15C19.2611 15 24.055 2.74501 17.7235 0.274753C11.3967 -2.19551 0 12.8042 0 12.8042L19.2611 15" transform="translate(119 47)" id="Fill-403" fill="#544949" stroke="none" />
        <path d="M0 5C0 7.75939 2.23614 10 5 10C7.75939 10 10 7.75939 10 5C10 2.23614 7.75939 0 5 0C2.23614 0 0 2.23614 0 5" transform="translate(135 35)" id="Fill-406" fill="#3B3232" stroke="none" />
      </g>
      <g id="girl" transform="matrix(-1 0 0 1 253 0)">
        <g id="Group-5" transform="translate(51 85)">
          <path d="M32.6815 16.2277C31.4309 25.9947 36.435 50.1019 36.435 50.1019L36.435 50.1019L0 110.602C0 110.602 7.6627 118.323 12.1981 120.529L12.1981 120.529C12.1981 120.529 40.9704 97.2096 52.5405 79.0909L52.5405 79.0909C64.1124 60.9721 62.08 43.9566 61.7669 37.4976L61.7669 37.4976C61.4538 31.0368 56.6071 0 56.6071 0L56.6071 0C56.6071 0 33.9338 6.45903 32.6815 16.2277" transform="translate(0.7368649 0.7476857)" id="Clip-4" fill="none" stroke="none" />
        </g>
        <g id="Group-66" transform="translate(104 50)">
          <path d="M0 26.1423L19.872 22.8546L17.2852 0L0 1.94552L0 26.1423Z" transform="translate(0.8892581 0.07677845)" id="Fill-62" fill="url(#gradient_23)" stroke="none" />
        </g>
        <g id="Group-79" transform="translate(0 62)">
          <path d="M56.9215 16.5336C57.9932 26.156 64.383 45.2653 66.7555 60.5736L66.7555 60.5736C68.0182 68.613 68.1693 75.6163 65.8524 79.6464L65.8524 79.6464C59.1638 91.3394 0 129.447 0 129.447L0 129.447C0 129.447 0.0590526 129.976 0.132 130.86L0.132 130.86C0.547105 134.945 1.84626 146.638 3.31563 148.464L3.31563 148.464C5.08895 150.667 71.2592 123.497 89.3848 95.406L89.3848 95.406C107.491 67.2957 91.2294 9.24745 77.6455 2.69544L77.6455 2.69544C73.8662 0.874761 70.462 -0.00173306 67.5475 2.57251e-06L67.5475 2.57251e-06C59.9784 2.57251e-06 55.737 5.91504 56.9215 16.5336" transform="translate(63.22579 8.593307)" id="Clip-78" fill="none" stroke="none" />
          <path d="M31.8008 25C23.3585 50 14.4159 83.1301 14.4159 89C14.4159 94.8698 5.51955 141.338 0.228388 155C-5.06277 168.662 112.228 151 112.228 151C112.228 151 99.2284 80.5001 99.2284 68.2403C99.2284 61.5231 106.203 41.471 88.0211 19.658C84.6956 15.6684 75.8652 6.92994 75.8652 6.92994C75.8652 6.92994 65.6493 10.4112 59.2284 0C48.1237 0 40.243 -1.50112e-12 31.8008 25Z" transform="matrix(-1 0 0 1 182.2284 5)" id="Path-3" fill="url(#gradient_24)" stroke="none" />
          <path d="M87.6157 2.88457C87.866 3.7226 87.2347 10.153 87.604 11.304C91.3938 23.2073 101.082 52.2891 95.7159 70.0443C74.1873 92.8744 51.3493 109.747 22.8498 121.862C22.6013 121.966 22.6823 121.909 22.6427 121.923C20.7982 122.653 17.2966 123.722 15.6502 123.518C12.9988 123.193 8.74063 122.35 7.15913 123.853C5.57583 125.358 10.205 126.612 10.5095 127.254C8.57131 127.933 -0.391724 131.514 0.0135577 133.345C0.417038 135.175 7.28701 131.082 8.44882 131.095C7.4149 131.438 -1.10322 135.166 0.119832 136.557C1.34288 137.947 8.79106 133.69 10.749 133.337C9.63945 133.699 2.14264 137.621 2.88115 138.677C3.61966 139.732 8.58572 136.584 10.1132 136.711C9.72771 136.459 6.30713 140.078 7.44553 139.79C11.9937 138.641 21.8465 132.244 24.8294 132.009C27.8105 131.771 68.8178 122.31 86.3494 110.069C94.0894 104.663 100.925 99.4259 107.601 93.6082C115.877 86.3967 120.724 76.3727 122.346 66.4835C124.26 54.8032 123.208 39.3517 121.74 30.1171C119.664 17.0664 117.145 10.7254 114.002 7.48091e-15C105.196 1.70664 96.4256 2.9529 87.6157 2.88457Z" transform="matrix(0.9455186 0.3255681 -0.3255681 0.9455186 45.61026 0.06716537)" id="Fill-74" fill="url(#gradient_22)" stroke="none" />
          <g id="anchor" transform="translate(116 80)">
            <path d="M14.1284 9.20534L14.9929 13.1716C15.019 13.2914 14.9719 13.4155 14.8737 13.4857C14.7755 13.5559 14.6457 13.5582 14.5452 13.4916L13.6869 12.923C13.4301 13.8672 12.806 14.7244 11.8672 15.4003C11.3749 15.7547 10.8172 16.0424 10.2149 16.2573C9.18764 16.6238 8.26911 17.211 7.50006 17.9999L7.49998 18L7.49991 17.9999C6.73724 17.2176 5.80376 16.6207 4.78504 16.2573C4.18272 16.0424 3.62501 15.7547 3.13277 15.4003C2.19397 14.7244 1.56991 13.8672 1.31308 12.923L0.454786 13.4916C0.354259 13.5582 0.224454 13.5559 0.126259 13.4857C0.0280635 13.4155 -0.018989 13.2914 0.0071173 13.1716L0.87157 9.20538C0.895612 9.09516 0.977486 9.00784 1.08394 8.97898C1.19039 8.95009 1.30364 8.98447 1.37764 9.06811L4.04018 12.0777C4.12061 12.1686 4.13949 12.3004 4.08796 12.4112C4.03644 12.522 3.92471 12.5899 3.80523 12.5829L2.79411 12.5243C2.96302 13.1116 3.38068 13.6626 4.01117 14.1165C4.53341 14.4925 5.15756 14.7725 5.84202 14.9448C6.05725 14.9989 6.28502 14.948 6.45936 14.8077C6.6337 14.6673 6.7356 14.4526 6.7356 14.2253L6.7356 7.43317C6.03776 7.17195 5.5018 6.56372 5.32593 5.81316L3.1476 5.81316C2.81143 5.81316 2.53894 5.53364 2.53894 5.18878C2.53894 4.84393 2.81143 4.5644 3.1476 4.5644L5.37474 4.5644C5.58833 3.89587 6.09341 3.3616 6.73556 3.12124L6.73556 2.69961C6.33743 2.43992 6.07304 1.98368 6.07304 1.46383C6.07304 0.655396 6.71194 0 7.50002 0C8.2881 0 8.927 0.655396 8.927 1.46387C8.927 1.98371 8.66261 2.43992 8.26448 2.69965L8.26448 3.12124C8.90663 3.3616 9.41171 3.89587 9.62534 4.5644L11.8524 4.5644C12.1886 4.5644 12.4611 4.84393 12.4611 5.18878C12.4611 5.53364 12.1886 5.81316 11.8524 5.81316L9.67415 5.81316C9.49828 6.56372 8.96232 7.17199 8.26448 7.43317L8.26448 14.2253C8.26448 14.4527 8.36623 14.6677 8.54064 14.8081C8.71506 14.9485 8.94271 14.9989 9.15806 14.9447C9.84252 14.7725 10.4667 14.4925 10.9889 14.1165C11.6193 13.6626 12.037 13.1116 12.2059 12.5242L11.1948 12.5829C11.0753 12.5898 10.9636 12.522 10.9121 12.4112C10.8606 12.3003 10.8794 12.1686 10.9599 12.0777L13.6224 9.06807C13.6964 8.98443 13.8096 8.95009 13.9161 8.97894C14.0225 9.0078 14.1044 9.09512 14.1284 9.20534ZM6.48099 5.2772C6.48099 5.85363 6.93814 6.32254 7.50002 6.32254C8.0619 6.32254 8.51901 5.85363 8.51901 5.2772C8.51901 4.70078 8.06194 4.23186 7.50002 4.23186C6.9381 4.23186 6.48099 4.70081 6.48099 5.2772Z" transform="matrix(0.8910065 0.4539905 -0.4539905 0.8910065 8.903366 0.5760126)" id="Shape" fill="url(#gradient_17)" fill-opacity="0.6234654" fill-rule="evenodd" stroke="none" />
          </g>
          <path d="M0 60.5736C0 60.5736 9.10071 67.4067 30.9484 71.4067C49.055 43.2964 35.4738 9.24745 21.89 2.69544C18.1106 0.874761 14.7064 -0.00173306 11.792 2.57251e-06C4.22284 2.57251e-06 -0.0185263 5.91504 1.166 16.5336C2.23763 26.156 0 60.5736 0 60.5736Z" transform="translate(118.9813 8.593307)" id="Fill-77" fill="url(#gradient_25)" stroke="none" />
        </g>
        <g id="Group-126" transform="translate(85 0)">
          <g id="Combined-Shape">
            <use stroke="none" fill="url(#gradient_22)" xlink:href="#path_8" />
            <use stroke="none" fill="url(#gradient_26)" xlink:href="#path_8" />
          </g>
          <path d="M49.833 35.322C49.833 34.8016 49.4606 33.8717 49.2197 33.4182C48.1449 31.2637 45.3983 30.7204 43.4451 32.1038L36.7697 36.8872L36.5936 37C30.2036 33.6669 31.8957 21.5381 31.8957 21.5381C26.5098 23.1662 15.3478 21.2207 11.7326 21C4.47071 20.5568 4.95542 33.1236 4.95542 33.1236C3.21877 31.3766 1.21076 29.8966 0.71702 28.2733C-2.25559 18.5 4.97566 11.8146 4.97566 11.8146C2.32008 9.70612 4.97566 0 4.97566 0C4.97566 0 20.3909 3.65219 20.3909 3.65219C19.7311 1.93026 21.8868 8.97143e-14 21.8868 8.97143e-14C21.8868 8.97143e-14 29.8757 1.77144 33.3672 3.63129C40.0851 7.21099 44.9591 13.173 44.9591 13.173C50.9766 18.9552 51.4361 25.983 50.8876 30.5386C50.5597 33.4182 49.833 35.322 49.833 35.322Z" transform="translate(0.9401582 0)" id="Fill-112" fill="url(#gradient_27)" stroke="none" />
          <g clip-path="url(#mask_4)">
            <path d="M52.7732 34.322C52.7732 33.8016 52.4007 32.8717 52.1599 32.4182C51.0851 30.2637 48.3384 29.7204 46.3852 31.1038L39.7099 35.8872L39.5338 36C33.1438 32.6669 34.8359 20.5381 34.8359 20.5381C29.4499 22.1662 14.6152 25.8618 11 25.6412C3.73816 25.1979 7.89557 32.1236 7.89557 32.1236C6.15892 30.3766 4.75422 28.7466 3.65718 27.2733C-6.5765 13.5334 7.91581 10.8146 7.91581 10.8146C5.26024 8.70612 7.89557 0.398188 7.89557 0.398188C7.89557 0.398188 23.3311 2.65219 23.3311 2.65219C22.6713 0.930255 24.7358 0.159147 24.7358 0.159147C28.7981 -0.453142 32.8159 0.771436 36.3074 2.63129C43.0253 6.21099 47.8992 12.173 47.8992 12.173C53.9168 17.9552 54.3762 24.983 53.8277 29.5386C53.4998 32.4182 52.7732 34.322 52.7732 34.322Z" transform="translate(1 5)" id="Fill-112" fill="url(#gradient_28)" stroke="none" />
          </g>
        </g>
        <g id="face" transform="matrix(-0.9945219 -0.1045285 -0.1045285 0.9945219 116.6942 30.24795)">
          <path d="M0 0C0.599389 0.692837 1.30323 1.30579 2.10509 1.76171C2.91178 2.20799 3.82774 2.48485 4.7678 2.45455C5.71429 2.44904 6.62221 2.15289 7.50281 1.80028C7.92865 1.59642 8.35128 1.37741 8.77069 1.15152C9.17725 0.904959 9.57255 0.644628 10 0.406336C9.67218 0.73416 9.31223 1.03994 8.96352 1.36088C8.57143 1.63774 8.16487 1.90634 7.74546 2.16253C6.86003 2.61846 5.8573 2.95179 4.77744 3C3.70079 2.98898 2.63538 2.66529 1.81906 2.10055C1.00916 1.5303 0.376024 0.80854 0 0" transform="matrix(-0.9848077 -0.1736482 -0.1736482 0.9848077 18.12759 21.24376)" id="Fill-146" fill="url(#gradient_29)" stroke="none" />
          <path d="M0.536612 0.903581C1.10129 1.2011 1.74246 1.38568 2.4005 1.36547C3.06305 1.3618 3.69859 1.16437 4.31501 0.929293C4.6131 0.793388 4.90894 0.647383 5.20253 0.496786C5.48712 0.332415 5.76383 0.158861 6.06305 -1.11635e-12C5.83358 0.218549 5.58161 0.422406 5.33751 0.636364C5.06305 0.820937 4.49436 1.47981 4.20077 1.65061C3.58097 1.95456 3.94682 2.15182 3.19092 2.18396C2.43726 2.17661 0.907816 1.50597 0.336387 1.12948C-0.230542 0.749311 -0.0246924 0.599633 0.536612 0.903581Z" transform="matrix(-0.9659258 0.258819 -0.258819 -0.9659258 7.288017 4.764817)" id="Fill-146" fill="#2C2B3C" stroke="none" />
          <path d="M0.536612 0.903581C1.10129 1.2011 1.74246 1.38567 2.4005 1.36547C3.06305 1.3618 3.69859 1.16437 4.31501 0.929293C4.6131 0.793388 4.90894 0.647383 5.20253 0.496786C5.48712 0.332415 5.76383 0.158861 6.06305 -5.58192e-13C5.83358 0.218549 5.58161 0.422406 5.33751 0.636364C5.06305 0.820937 4.49436 1.47981 4.20077 1.65061C3.58097 1.95456 3.94682 2.15182 3.19092 2.18396C2.43726 2.17661 0.907816 1.50597 0.336387 1.12948C-0.230542 0.749311 -0.0246924 0.599633 0.536612 0.903581Z" transform="matrix(0.9975641 0.06975647 0.06975647 -0.9975641 13.15982 3.157253)" id="Fill-146" fill="#2C2B3C" stroke="none" />
          <path d="M0 0C0.424349 0.624969 0.808135 1.25342 1.19504 1.86968C1.58351 2.4755 1.97821 3.09177 2.43376 3.55658C2.57885 3.70803 2.6085 3.68714 2.86435 3.90649C3.15297 4.32604 2.9018 4.61154 2.83315 4.76996C2.61162 5.12683 2.3542 5.38796 2.09366 5.64909C1.56323 6.15742 0.995347 6.5996 0.404067 7C0.901741 6.46556 1.39473 5.93111 1.85185 5.37404C2.07806 5.09898 2.30428 4.80652 2.44781 4.51231L2.52425 4.31908L2.09522 4.04054C1.47742 3.54265 1.08271 2.8672 0.73793 2.18826C0.402507 1.50062 0.14197 0.771201 0 0" transform="translate(13 11)" id="Fill-147" fill="#2C2B3C" stroke="none" />
          <path d="M1 3C1.55228 3 2 2.32843 2 1.5C2 0.671573 1.55228 0 1 0C0.447715 0 0 0.671573 0 1.5C0 2.32843 0.447715 3 1 3Z" transform="matrix(0.9743701 -0.224951 0.224951 0.9743701 4.688203 7.263396)" id="Oval" fill="#2C2B3C" stroke="none" />
          <path d="M1 3C1.55228 3 2 2.32843 2 1.5C2 0.671573 1.55228 0 1 0C0.447715 0 0 0.671573 0 1.5C0 2.32843 0.447715 3 1 3Z" transform="matrix(0.9743701 -0.224951 0.224951 0.9743701 14.6882 5.263396)" id="Oval" fill="#2C2B3C" stroke="none" />
        </g>
      </g>
    </g>
  </g>
</svg>