<?xml version="1.0" encoding="utf-8"?>
<svg width="616px" height="546px" viewBox="0 0 616 546" version="1.1" xmlns:xlink="http://www.w3.org/1999/xlink" xmlns="http://www.w3.org/2000/svg">
  <desc>Created with Lunacy</desc>
  <defs>
    <linearGradient x1="1.11926544" y1="0.7673427" x2="0.115048684" y2="0.116428085" id="gradient_1">
      <stop offset="0" stop-color="#FAD0C4" />
      <stop offset="1" stop-color="#FFD1FF" />
    </linearGradient>
    <linearGradient x1="0.689776659" y1="0.7344376" x2="0.7268388" y2="0.9763476" id="gradient_2">
      <stop offset="0" stop-color="#FFFFFF" stop-opacity="0" />
      <stop offset="1" stop-color="#FFFFFF" />
    </linearGradient>
    <linearGradient x1="0.5" y1="0.098009415" x2="0.352678567" y2="0.7673427" id="gradient_3">
      <stop offset="0" stop-color="#FAD0C4" />
      <stop offset="1" stop-color="#FFD1FF" />
    </linearGradient>
    <linearGradient x1="0.6542785" y1="0.5" x2="0.7268388" y2="0.9763476" id="gradient_4">
      <stop offset="0" stop-color="#FFFFFF" stop-opacity="0" />
      <stop offset="0.961434245" stop-color="#FFFFFF" stop-opacity="0.854901969" />
      <stop offset="1" stop-color="#FFFFFF" />
    </linearGradient>
    <linearGradient x1="0.57711947" y1="0.533862352" x2="0.655307949" y2="1.18980241" id="gradient_5">
      <stop offset="0" stop-color="#FAD0C4" />
      <stop offset="1" stop-color="#FFD1FF" />
    </linearGradient>
    <linearGradient x1="0.3646351" y1="0.8573138" x2="0.3868629" y2="0.223453313" id="gradient_6">
      <stop offset="0" stop-color="#FAD0C4" />
      <stop offset="1" stop-color="#FFD1FF" />
    </linearGradient>
    <linearGradient x1="0.0703931153" y1="-0.08372662" x2="0.277564764" y2="0.8561341" id="gradient_7">
      <stop offset="0" stop-color="#FAD0C4" />
      <stop offset="1" stop-color="#FFD1FF" />
    </linearGradient>
    <linearGradient x1="0.6084516" y1="0.451680779" x2="0.6084516" y2="1" id="gradient_8">
      <stop offset="0" stop-color="#8AB5FF" />
      <stop offset="1" stop-color="#CCE3FF" />
    </linearGradient>
    <linearGradient x1="0.655468762" y1="0" x2="-1.70747769" y2="0.5" id="gradient_9">
      <stop offset="0" stop-color="#FFC8BA" />
      <stop offset="1" stop-color="#FFD1FF" />
    </linearGradient>
    <linearGradient x1="0.5863532" y1="-0.144402266" x2="0.20287329" y2="0.8670063" id="gradient_10">
      <stop offset="0" stop-color="#8AB5FF" />
      <stop offset="1" stop-color="#CCE3FF" />
    </linearGradient>
    <linearGradient x1="0" y1="0.4120433" x2="0.20287329" y2="0.8670063" id="gradient_11">
      <stop offset="0" stop-color="#8AB5FF" />
      <stop offset="1" stop-color="#CCE3FF" />
    </linearGradient>
    <linearGradient x1="-0.220231682" y1="0.6918248" x2="0.20287329" y2="0.8670063" id="gradient_12">
      <stop offset="0" stop-color="#8AB5FF" />
      <stop offset="1" stop-color="#CCE3FF" />
    </linearGradient>
    <linearGradient x1="1.11926544" y1="0.7673427" x2="0.230019763" y2="1.5614984" id="gradient_13">
      <stop offset="0" stop-color="#FAD0C4" />
      <stop offset="1" stop-color="#FFD1FF" />
    </linearGradient>
    <linearGradient x1="0.6220111" y1="0.444130421" x2="0.115048684" y2="0.116428085" id="gradient_14">
      <stop offset="0" stop-color="#FAD0C4" />
      <stop offset="1" stop-color="#FFD1FF" />
    </linearGradient>
    <linearGradient x1="0.157977715" y1="0.149158448" x2="0.7972584" y2="0.6641453" id="gradient_15">
      <stop offset="0" stop-color="#8AB5FF" />
      <stop offset="1" stop-color="#CCE3FF" />
    </linearGradient>
    <linearGradient x1="0.114910826" y1="-0.07643898" x2="1.59559965" y2="1.900869" id="gradient_16">
      <stop offset="0" stop-color="#8AB5FF" />
      <stop offset="0.229501292" stop-color="#99BFFF" />
      <stop offset="1" stop-color="#CCE3FF" />
    </linearGradient>
    <linearGradient x1="0.183273852" y1="0.416435659" x2="0.293676645" y2="0.7125791" id="gradient_17">
      <stop offset="0" stop-color="#FAD0C4" />
      <stop offset="1" stop-color="#FFD1FF" />
    </linearGradient>
    <linearGradient x1="0" y1="0.1612675" x2="1" y2="0.9124798" id="gradient_18">
      <stop offset="0" stop-color="#FFC8BA" />
      <stop offset="1" stop-color="#FFD1FF" />
    </linearGradient>
    <linearGradient x1="0.302055031" y1="0" x2="0.8621773" y2="0.19140625" id="gradient_19">
      <stop offset="0" stop-color="#FFC8BA" />
      <stop offset="1" stop-color="#FFD1FF" />
    </linearGradient>
    <linearGradient x1="-1.58159018" y1="-0.309751153" x2="-1.70747769" y2="0.5" id="gradient_20">
      <stop offset="0" stop-color="#FFC8BA" />
      <stop offset="1" stop-color="#FFD1FF" />
    </linearGradient>
    <linearGradient x1="0.7136824" y1="0.5725337" x2="0.270353615" y2="0.342156649" id="gradient_21">
      <stop offset="0" stop-color="#FCE6CE" />
      <stop offset="1" stop-color="#FAC99D" />
    </linearGradient>
    <linearGradient x1="0.5" y1="-2.48949816E-17" x2="0.5" y2="1" id="gradient_22">
      <stop offset="0" stop-color="#FFB099" />
      <stop offset="1" stop-color="#FF1249" />
    </linearGradient>
    <linearGradient x1="1" y1="0.5" x2="-2.220446E-16" y2="0.5" id="gradient_23">
      <stop offset="0" stop-color="#7A858F" />
      <stop offset="1" stop-color="#120E08" />
    </linearGradient>
    <radialGradient gradientUnits="objectBoundingBox" cx="50%" cy="100%" fx="50%" fy="100%" r="99.99999%" gradientTransform="translate(0.5,1),scale(0.9997637,1),rotate(-90),translate(-0.5,-1)" id="gradient_24">
      <stop offset="0%" stop-color="#FDDF9F" />
      <stop offset="100%" stop-color="#FF1249" />
    </radialGradient>
    <radialGradient gradientUnits="objectBoundingBox" cx="50%" cy="100%" fx="50%" fy="100%" r="99.99999%" gradientTransform="translate(0.5,1),scale(0.9997635,1),rotate(-90),translate(-0.5,-1)" id="gradient_25">
      <stop offset="0%" stop-color="#FDDF9F" />
      <stop offset="100%" stop-color="#FF1249" />
    </radialGradient>
    <linearGradient x1="0.5" y1="-2.48949816E-17" x2="0.5" y2="1" id="gradient_26">
      <stop offset="0" stop-color="#FAD961" />
      <stop offset="1" stop-color="#F76B1C" />
    </linearGradient>
    <linearGradient x1="0.5" y1="1" x2="0.5" y2="-2.48949816E-17" id="gradient_27">
      <stop offset="0" stop-color="#FAD961" />
      <stop offset="1" stop-color="#F76B1C" />
    </linearGradient>
    <linearGradient x1="1" y1="0.844555438" x2="0" y2="0.5" id="gradient_28">
      <stop offset="0" stop-color="#FCE6CE" />
      <stop offset="1" stop-color="#FAC99D" />
    </linearGradient>
    <linearGradient x1="0.131349415" y1="0.5" x2="-0.0428464" y2="0.5" id="gradient_29">
      <stop offset="0" stop-color="#FFFFFF" stop-opacity="0" />
      <stop offset="1" stop-color="#FFFFFF" />
    </linearGradient>
    <linearGradient x1="0.6250596" y1="0.5" x2="0" y2="0.28258422" id="gradient_30">
      <stop offset="0" stop-color="#61F3AC" />
      <stop offset="1" stop-color="#029AC0" />
    </linearGradient>
    <linearGradient x1="0.588574" y1="1" x2="0.4022635" y2="-0.395434856" id="gradient_31">
      <stop offset="0" stop-color="#000000" stop-opacity="0" />
      <stop offset="1" stop-color="#FFFFFF" stop-opacity="0.533333361" />
    </linearGradient>
    <linearGradient x1="0.5" y1="1" x2="0.802079" y2="0" id="gradient_32">
      <stop offset="0" stop-color="#61F3AC" />
      <stop offset="1" stop-color="#029AC0" />
    </linearGradient>
    <linearGradient x1="0.2667624" y1="0.24029465" x2="0.8154552" y2="0.678652" id="gradient_33">
      <stop offset="0" stop-color="#2D1A4B" />
      <stop offset="1" stop-color="#7914BC" />
    </linearGradient>
    <linearGradient x1="0.7018355" y1="0.866039038" x2="0.169808954" y2="0.4121884" id="gradient_34">
      <stop offset="0" stop-color="#2D1A4B" />
      <stop offset="1" stop-color="#7914BC" />
    </linearGradient>
    <linearGradient x1="0.3768295" y1="0.6790096" x2="0.6072065" y2="0.235680774" id="gradient_35">
      <stop offset="0" stop-color="#FCE6CE" />
      <stop offset="1" stop-color="#FAC99D" />
    </linearGradient>
    <linearGradient x1="0.405069739" y1="0.06546501" x2="0.6311348" y2="0.7345663" id="gradient_36">
      <stop offset="0" stop-color="#FFB099" />
      <stop offset="1" stop-color="#FF1249" />
    </linearGradient>
    <linearGradient x1="0.5" y1="0.6464078" x2="1.69283152" y2="1.16191792" id="gradient_37">
      <stop offset="0" stop-color="#FFFFFF" stop-opacity="0" />
      <stop offset="1" stop-color="#FFFFFF" />
    </linearGradient>
    <linearGradient x1="0.5" y1="0.240505636" x2="0.261393219" y2="0" id="gradient_38">
      <stop offset="0" stop-color="#FFFFFF" stop-opacity="0" />
      <stop offset="1" stop-color="#FFFFFF" stop-opacity="0.3372549" />
    </linearGradient>
    <linearGradient x1="-5.526693" y1="0.5" x2="2.279948" y2="0.5" id="gradient_39">
      <stop offset="0" stop-color="#FAD961" />
      <stop offset="1" stop-color="#9E0902" />
    </linearGradient>
    <path d="M199.675 386.487C108.823 342.387 10.8845 407.009 21.146 293.102C31.4074 179.195 -21.6621 151.675 10.4615 81.1056C42.585 10.5358 163.16 -24.5593 220.055 19.3929C276.95 63.3451 257.058 92.1104 332.421 110.432C407.783 128.754 512.074 138.855 522.688 243.712C533.301 348.569 463.925 431.648 397.484 431.648C331.043 431.648 290.527 430.588 199.675 386.487Z" transform="translate(27.36438 32.32378)" id="path_1" />
    <path d="M25 50C38.8071 50 50 38.8071 50 25C50 11.1929 38.8071 0 25 0C11.1929 0 0 11.1929 0 25C0 38.8071 11.1929 50 25 50Z" transform="translate(214 41)" id="path_2" />
    <path d="M22.2969 122.316C22.2969 114.606 89.1953 93.129 119.195 69.9534C149.195 46.7778 170.195 -35.286 232.195 17.2481C294.195 69.7822 234.614 131.655 310.195 143.189C385.777 154.724 415.195 65.6056 487.652 62.1515C560.109 58.6974 559.195 91.2356 559.195 104.324C559.195 117.412 528.266 245.939 528.266 245.939C528.266 245.939 296.763 286.606 273.683 286.606C250.604 286.606 19.9336 236.846 12.1953 228.405C4.45703 219.963 3.28637e-16 155.196 0 152.437C0 149.677 22.2969 130.027 22.2969 122.316Z" transform="translate(10 220)" id="path_3" />
    <path d="M62.6939 9.73656C62.6939 9.73656 43.5201 3.74966 26.7434 37.2712C4.92787 80.861 -24.7852 156.992 36.3316 158.189C36.3316 158.189 95.0487 162.978 115.421 70.7928C135.793 -21.3928 81.8676 -1.03987 62.6939 9.73656" id="path_4" />
    <path d="M86.049 156.003C86.049 156.003 102.677 111.705 74.1685 41.072C45.6602 -29.5633 19.5255 12.3374 19.5255 12.3374C19.5255 12.3374 -8.98275 9.94261 2.89528 102.128L25.4658 76.9858L14.7758 117.692L36.1558 145.226L48.0363 124.876L49.2244 153.608C49.2244 153.608 81.2968 161.987 86.049 156.003" id="path_5" />
    <path d="M86.049 156.003C86.049 156.003 102.677 111.705 74.1685 41.072C45.6602 -29.5633 19.5255 12.3374 19.5255 12.3374C19.5255 12.3374 -8.98275 9.94261 2.89528 102.128L25.4658 76.9858L14.7758 117.692L36.1558 145.226L48.0363 124.876L49.2244 153.608C49.2244 153.608 81.2968 161.987 86.049 156.003" transform="translate(-5.055555 10.19048)" id="path_6" />
    <path d="M70.3285 123.248C70.3285 123.248 83.9184 88.2506 60.6184 32.4483C37.3184 -23.3561 15.9583 9.74696 15.9583 9.74696C15.9583 9.74696 -7.34166 7.85501 2.36633 80.6849L20.8134 60.8214L12.0764 92.9805L29.5504 114.734L39.2604 98.6563L40.2314 121.356C40.2314 121.356 66.4445 127.975 70.3285 123.248" transform="translate(0.4953965 0.8818369)" id="path_7" />
    <path d="M70.3285 123.248C70.3285 123.248 83.9184 88.2506 60.6184 32.4483C37.3184 -23.3561 15.9583 9.74695 15.9583 9.74695C15.9583 9.74695 -7.34166 7.85501 2.36633 80.6848L20.8134 60.8214L12.0764 92.9805L29.5504 114.734L39.2604 98.6563L40.2314 121.356C40.2314 121.356 66.4445 127.975 70.3285 123.248" transform="translate(-9.381584 12.60232)" id="path_8" />
    <path d="M49.4267 14.4862C48.6572 14.4862 47.8892 14.5611 47.135 14.7104C46.5663 11.933 44.7277 9.56379 42.1462 8.28139C39.5652 6.999 36.5255 6.94521 33.8983 8.13511C31.5208 1.72666 24.2844 -1.58212 17.7354 0.744384C11.1864 3.07089 7.80506 10.1524 10.1826 16.5604C4.4458 16.7378 2.06676e-19 27 2.06676e-19 27L61 25.8111C61 25.8111 55.818 14.4862 49.4267 14.4862Z" id="path_9" />
    <path d="M32.6815 16.2277C31.4309 25.9947 36.435 50.1019 36.435 50.1019L36.435 50.1019L0 110.602C0 110.602 7.6627 118.323 12.1981 120.529L12.1981 120.529C12.1981 120.529 40.9704 97.2096 52.5405 79.0909L52.5405 79.0909C64.1124 60.9721 62.08 43.9566 61.7669 37.4976L61.7669 37.4976C61.4538 31.0368 56.6071 0 56.6071 0L56.6071 0C56.6071 0 33.9338 6.45903 32.6815 16.2277" transform="translate(0.7368649 0.7476857)" id="path_10" />
    <path d="M0 0L69.1289 0L69.1289 69.1155L0 69.1155L0 0Z" transform="translate(0.0006949721 0.3680892)" id="path_11" />
    <path d="M0 0L69.1289 0L69.1289 69.1155L0 69.1155L0 0Z" transform="translate(0.4853291 0.3680892)" id="path_12" />
    <path d="M11.1543 0C7.28157 5.26338 3.54088 10.6188 0 16.1115C11.196 19.0576 22.4719 22.0871 33.9477 25.6481C35.2281 21.5486 36.6546 17.4716 37.9733 13.4294C29.0446 8.7862 20.0951 4.36183 11.1543 0" transform="translate(210.1922 159.9095)" id="path_13" />
    <path d="M17.5203 0L11.1103 9.99405C8.57963 8.24721 4.88273 5.98213 3.65636 6.71258C1.72889 7.86076 -1.29139 12.1541 0.598234 16.4341C1.88469 19.3358 5.57937 19.7022 7.82957 19.6374C7.82957 19.6374 1.91016 31.3268 0.598234 36.8388C-0.713688 42.3508 4.72719 43.4743 4.72719 43.4743L26.6101 11.0328C28.0524 8.78332 27.3134 5.69174 25.0143 4.35369L17.5203 0Z" transform="translate(225 169)" id="path_14" />
    <path d="M0 0C1.60712 13.8516 2.60788 22.3702 2.60788 22.3702L15.06 23.0824C15.821 15.3454 16.6689 7.05432 17.2145 0L0 0Z" transform="translate(166.1746 235.2389)" id="path_15" />
    <path d="M50.2785 8.3164L38.9414 8.3164C39.0309 5.36927 38.9329 1.2125 37.7121 0.599133C35.7924 -0.364724 30.7833 -0.576302 28.3288 3.16586C26.667 5.7048 27.1122 9.32262 28.3288 11.1029C28.3288 11.1029 8.2237 12.1535 2.74123 14.3468C-2.74123 16.5402 2.74123 21.368 2.74123 21.368L46.1387 21.368C48.6911 21.368 50.7855 19.1732 50.6684 16.6235L50.2785 8.3164Z" transform="translate(132.716 247)" id="path_16" />
    <path d="M80.308 0C77.4732 0.69728 74.6851 1.35457 71.9854 1.97534C52.3755 6.49636 32.4955 6.01817 12.5653 5.74865C10.6587 13.7387 0.91959 55.4816 0.360249 77.019C0.11781 86.0924 -0.147141 98.2765 0.0970295 110.577L0.0970295 110.671C0.528225 130.779 2.38981 151.19 8.19449 158.773C12.477 164.355 37.9695 174.351 64.4005 183.557L72.9101 269.745C72.9101 269.745 84.426 271.858 92.1858 269.745C92.1858 269.745 94.8907 230.565 94.8145 194.875L94.8145 193.726C113.995 199.932 128.723 204.347 128.723 204.347C128.723 204.347 139.375 193.35 140.313 187.368C140.371 186.972 140.014 186.407 139.262 185.71C135.184 181.802 119.687 173.485 102.366 164.809C99.4364 163.336 96.4683 161.866 93.4793 160.413C93.3114 158.754 93.1417 157.151 92.9356 155.641C92.7105 153.736 92.4282 151.945 92.1477 150.301C92.0715 149.943 92.0161 149.585 91.9416 149.246L97.5766 38.4443C97.5766 38.4443 101.764 15.281 93.4984 0L80.308 0Z" transform="translate(0.02511683 0.6240892)" id="path_17" />
    <path d="M56.9215 16.5336C57.9932 26.156 64.383 45.2653 66.7555 60.5736L66.7555 60.5736C68.0182 68.613 68.1693 75.6163 65.8524 79.6464L65.8524 79.6464C59.1638 91.3394 0 129.447 0 129.447L0 129.447C0 129.447 0.0590526 129.976 0.132 130.86L0.132 130.86C0.547105 134.945 1.84626 146.638 3.31563 148.464L3.31563 148.464C5.08895 150.667 71.2592 123.497 89.3848 95.406L89.3848 95.406C107.491 67.2957 91.2294 9.24745 77.6455 2.69544L77.6455 2.69544C73.8662 0.874761 70.462 -0.00173306 67.5475 2.57251e-06L67.5475 2.57251e-06C59.9784 2.57251e-06 55.737 5.91504 56.9215 16.5336" transform="translate(0.2257895 3.593308)" id="path_18" />
    <path d="M6.46182 38.1398C6.46182 38.1398 11.2646 52.3673 23.4795 54.3467C35.6943 56.3261 43.3815 54.0749 45.0481 51.7348C46.7146 49.3946 47.2453 28.5819 45.0481 19.7082C42.8509 10.8345 40.7466 5.24258 36.1871 2.65106C31.6276 0.0595457 17.6359 -2.90151 15.803 5.87958C13.9702 14.6607 8.29466 23.9797 8.29466 23.9797C8.29466 23.9797 4.81728 20.3888 2.47701 22.1842C0.136748 23.9797 -0.679055 28.2982 0.60968 31.2205C1.89842 34.1427 6.46182 38.1398 6.46182 38.1398Z" transform="matrix(-0.9876884 -0.1564345 -0.1564345 0.9876884 57.93211 8.116184)" id="path_19" />
    <path d="M52.7732 34.322C52.7732 33.8016 52.4007 32.8717 52.1599 32.4182C51.0851 30.2637 48.3384 29.7204 46.3852 31.1038L39.7099 35.8872L39.5338 36C33.1438 32.6669 34.8359 20.5381 34.8359 20.5381C29.4499 22.1662 14.6152 25.8618 11 25.6412C3.73816 25.1979 7.89557 32.1236 7.89557 32.1236C6.15892 30.3766 4.75422 28.7466 3.65718 27.2733C-6.5765 13.5334 7.91581 10.8146 7.91581 10.8146C5.26024 8.70612 6.18119 5.73662 6.18119 5.73662C9.71723 -2.33389 23.3311 2.65219 23.3311 2.65219C22.6713 0.930255 24.7358 0.159147 24.7358 0.159147C28.7981 -0.453142 32.8159 0.771436 36.3074 2.63129C43.0253 6.21099 47.8992 12.173 47.8992 12.173C53.9168 17.9552 54.3762 24.983 53.8277 29.5386C53.4998 32.4182 52.7732 34.322 52.7732 34.322Z" transform="translate(0 1)" id="path_20" />
    <path d="M70.4939 20.9246C69.3963 20.9246 68.3009 21.0328 67.2253 21.2484C66.4143 17.2366 63.7919 13.8144 60.1102 11.962C56.4291 10.1097 52.0938 10.032 48.3468 11.7507C44.9559 2.49407 34.6351 -2.28528 25.2948 1.07522C15.9544 4.43573 11.1318 14.6646 14.5227 23.9206C6.34073 24.1769 2.94767e-19 39 2.94767e-19 39L87 37.2827C87 37.2827 79.6093 20.9246 70.4939 20.9246Z" id="path_21" />
    <clipPath id="mask_1">
      <use xlink:href="#path_1" />
    </clipPath>
    <clipPath id="mask_2">
      <use xlink:href="#path_4" />
    </clipPath>
    <clipPath id="mask_3">
      <use xlink:href="#path_5" />
    </clipPath>
    <clipPath id="mask_4">
      <use xlink:href="#path_7" />
    </clipPath>
    <clipPath id="mask_5">
      <use xlink:href="#path_10" />
    </clipPath>
    <clipPath id="mask_6">
      <use xlink:href="#path_11" />
    </clipPath>
    <clipPath id="mask_7">
      <use xlink:href="#path_12" />
    </clipPath>
    <clipPath id="mask_8">
      <use xlink:href="#path_17" />
    </clipPath>
    <clipPath id="mask_9">
      <use xlink:href="#path_18" />
    </clipPath>
    <clipPath id="mask_10">
      <use xlink:href="#path_20" />
    </clipPath>
  </defs>
  <g id="pic-Basic" transform="translate(5 5)">
    <g id="bg-pic2" transform="matrix(-1 0 0 1 606 54)" opacity="0.8210798">
      <path d="M238.243 451.135C192.472 437.716 -11.8218 460.763 0.537866 324.005C12.8975 187.246 -13.8074 148.583 24.8845 63.8558C63.5764 -20.8713 217.745 -11.8161 280.1 36.1839C342.455 84.1839 288.074 96.6543 378.846 118.652C469.618 140.649 591.847 138.815 604.631 264.707C617.414 390.6 505.335 480.914 425.309 480.914C345.283 480.914 284.015 464.555 238.243 451.135Z" transform="translate(0.2907652 0.2379405)" id="Path-7" fill="#FFEBEB" stroke="none" />
      <g id="Path-7">
        <use stroke="none" fill="url(#gradient_1)" fill-opacity="0.8210798" xlink:href="#path_1" />
        <use stroke="none" fill="url(#gradient_2)" fill-opacity="0.8210798" xlink:href="#path_1" />
      </g>
      <g clip-path="url(#mask_1)">
        <g id="Oval">
          <use stroke="none" fill="url(#gradient_3)" xlink:href="#path_2" />
          <use stroke="none" fill="url(#gradient_4)" fill-opacity="0.6" xlink:href="#path_2" />
        </g>
        <path d="M22.2969 122.316C22.2969 114.606 89.1953 93.129 119.195 69.9534C149.195 46.7778 170.195 -35.286 232.195 17.2481C294.195 69.7822 234.614 131.655 310.195 143.189C385.777 154.724 415.195 65.6056 487.652 62.1515C560.109 58.6974 559.195 91.2356 559.195 104.324C559.195 117.412 528.266 245.939 528.266 245.939C528.266 245.939 296.763 286.606 273.683 286.606C250.604 286.606 19.9336 236.846 12.1953 228.405C4.45703 219.963 3.28637e-16 155.196 0 152.437C0 149.677 22.2969 130.027 22.2969 122.316Z" transform="translate(16.80469 193.3944)" id="Path-4" fill="url(#gradient_5)" stroke="none" />
        <g id="Path-4">
          <use stroke="none" fill="url(#gradient_6)" fill-opacity="0.590936542" xlink:href="#path_3" />
          <use stroke="none" fill="url(#gradient_2)" fill-opacity="0.590936542" xlink:href="#path_3" />
        </g>
        <path d="M22.3441 174.528C22.3441 174.528 -25.6247 77.2376 29.387 68.1978C84.3987 59.1579 87.0276 90.283 120.301 27.4845C153.575 -35.3141 299.195 28.3742 299.195 33.968C299.195 39.5618 200.325 115.053 200.325 122.769C200.325 130.484 79.4605 204.604 74.1675 205.685C68.8745 206.766 22.3441 174.528 22.3441 174.528Z" transform="matrix(0.6156615 0.7880107 -0.7880107 0.6156615 124.0894 193)" id="Path-26" fill="url(#gradient_7)" stroke="none" />
        <g id=",jkmijt-hfcntybt" transform="translate(-108 125)">
          <path d="M0.567473 3.41095C6.13692 21.3338 51.0854 168.97 59.6539 281L65 280.594C60.3781 220.325 45.4081 150.235 31.5962 95.1543C17.7842 40.0787 5.1278 0.0357435 5.11496 0L0 1.59824C0 1.6008 0.195149 2.2161 0.567473 3.41095Z" transform="translate(73 127)" id="Fill-50" fill="url(#gradient_8)" stroke="none" />
          <path d="M88.8564 0C88.3391 0.672819 32.1422 69.8452 0 372.437L5.31648 373C21.3504 221.982 43.3898 129.401 61.37 74.6675C70.3589 47.2994 78.331 29.3943 84.024 18.3733C86.8717 12.8629 89.1484 9.0741 90.6952 6.68214C91.4711 5.48744 92.0627 4.64066 92.452 4.10343C92.6466 3.83481 92.7926 3.64294 92.8848 3.52526L92.9821 3.39991L93 3.37689L92.644 3.0878L92.9974 3.37944L93 3.37689L92.644 3.0878L92.9974 3.37944L88.8564 0" transform="translate(156 35)" id="Fill-53" fill="url(#gradient_9)" stroke="none" />
          <g id="листик-1" transform="translate(7 102)">
            <path d="M62.6939 9.73656C62.6939 9.73656 43.5201 3.74966 26.7434 37.2712C4.92787 80.861 -24.7852 156.992 36.3316 158.189C36.3316 158.189 95.0487 162.978 115.421 70.7928C135.793 -21.3928 81.8676 -1.03987 62.6939 9.73656" id="Fill-51" fill="url(#gradient_10)" stroke="none" />
            <g clip-path="url(#mask_2)">
              <path d="M62.6939 10.6771C62.6939 10.6771 43.5201 4.11189 26.7434 40.8718C4.92787 88.6725 -24.7852 172.157 36.3316 173.47C36.3316 173.47 95.0487 178.723 115.421 77.6316C135.793 -23.4594 81.8676 -1.14032 62.6939 10.6771" transform="translate(25.50037 -15.28571)" id="Fill-51" fill="url(#gradient_11)" stroke="none" />
            </g>
          </g>
          <g id="Group-28" transform="matrix(-0.9925461 -0.1218693 -0.1218693 0.9925461 191.8113 155.8454)">
            <path d="M38.1562 6.66507C38.1562 6.66507 26.4869 2.56679 16.2764 25.5137C2.99916 55.3526 -15.0845 107.467 22.1118 108.287C22.1118 108.287 57.8477 111.565 70.2465 48.4606C82.6453 -14.6442 49.8256 -0.711831 38.1562 6.66507" transform="translate(0.1034483 0.6842105)" id="Fill-51" fill="url(#gradient_12)" stroke="none" />
          </g>
          <path d="M1.68412 5.33224L1.44163 2.70455L1.44163 5.34248L1.68412 5.33224L1.44163 2.70455L1.44163 5.34248L1.44163 3.14207L0.191862 5.01754C0.410372 5.16082 0.890028 5.3476 1.44163 5.34248L1.44163 3.14207L0.191862 5.01754L0.831403 4.05806L0.00266475 4.87937L0.191862 5.01754L0.831403 4.05806L0.00266475 4.87937L0.0532951 4.83076L0 4.87425L0.00266475 4.87937L0.0532951 4.83076L0 4.87425C0.0612893 4.93054 0.559598 5.57787 1.2018 7.21538C2.34765 10.0836 4.00779 15.9275 5.82515 27.0651C11.3039 60.5189 18.3548 141.67 20.4333 337L26 336.944C24.2226 170.373 18.8478 86.7473 13.8647 44.63C11.3652 23.5598 8.98288 12.8878 7.1069 7.25632C6.15825 4.43417 5.36148 2.86574 4.5514 1.79368C4.14103 1.26149 3.71467 0.841881 3.19237 0.516937C2.67808 0.191993 2.02521 -0.00501991 1.44163 9.73135e-05L1.19381 0.0103318L1.68412 5.33224" transform="translate(126 71)" id="Fill-56" fill="url(#gradient_8)" stroke="none" />
          <path d="M35 10.788C34.9356 10.6908 33.4008 8.18633 30.8925 5.577C29.6306 4.2749 28.1241 2.93698 26.3601 1.87279C24.5986 0.816267 22.5307 0.00533014 20.213 0.000213822C18.0266 -0.0151351 15.7141 0.795802 13.7234 2.45605C11.7199 4.11374 9.96615 6.53887 8.36951 9.90029C8.02185 10.6396 7.76948 11.4403 7.52483 12.3919C6.6029 16.0348 5.86896 22.0311 5.19425 30.1814C2.85336 58.6205 1.56317 112.69 0.847252 168.468C0.131337 224.233 0 281.654 0 316.593C0 337.209 0.0463542 349.997 0.0463542 350L5.42344 349.98C5.42344 349.972 5.41057 346.787 5.40026 341.016C5.38996 335.245 5.37709 326.897 5.37709 316.593C5.37709 275.391 5.5625 202.903 6.66728 138.793C7.22095 106.737 8.00383 76.7732 9.1086 53.8853C9.6597 42.4452 10.2932 32.7677 11.0117 25.5179C11.3722 21.8929 11.7534 18.8743 12.1474 16.5771C12.5259 14.2978 12.9843 12.6631 13.2367 12.1745C14.599 9.28889 15.9819 7.53144 17.1588 6.56701C18.3485 5.6077 19.2602 5.357 20.213 5.34165C21.2148 5.33654 22.3685 5.71514 23.5737 6.44166C25.3789 7.51609 27.1661 9.32727 28.4229 10.8647C29.0564 11.6322 29.5663 12.328 29.9088 12.8217C30.0813 13.0699 30.2126 13.2643 30.2976 13.3973L30.3903 13.5406L30.4109 13.5738L35 10.788" transform="translate(147 43)" id="Fill-61" fill="url(#gradient_9)" stroke="none" />
          <g id="Group-25" transform="translate(161 32)">
            <path d="M86.049 156.003C86.049 156.003 102.677 111.705 74.1685 41.072C45.6602 -29.5633 19.5255 12.3374 19.5255 12.3374C19.5255 12.3374 -8.98275 9.94261 2.89528 102.128L25.4658 76.9858L14.7758 117.692L36.1558 145.226L48.0363 124.876L49.2244 153.608C49.2244 153.608 81.2968 161.987 86.049 156.003" id="Fill-62" fill="url(#gradient_13)" stroke="none" />
            <g clip-path="url(#mask_3)">
              <g id="Fill-62">
                <use stroke="none" fill="url(#gradient_3)" xlink:href="#path_6" />
                <use stroke="none" fill="url(#gradient_4)" fill-opacity="0.6" xlink:href="#path_6" />
              </g>
              <path d="M69.7466 145.176C69.739 145.128 65.4291 109.143 55.1562 73.0504C50.0147 55.0006 43.3945 36.9277 34.9871 23.2317C30.7783 16.3837 26.1196 10.621 20.9023 6.51937C15.6951 2.42279 9.86855 -0.00508723 3.53142 8.00387e-06C2.8565 8.00387e-06 2.174 0.0254842 1.48897 0.0815318C0.599194 0.155413 -0.0656118 0.940079 0.00516601 1.83939C0.0759438 2.73615 0.857027 3.40617 1.7468 3.33229C2.34842 3.28389 2.94244 3.26096 3.53142 3.26096C9.03692 3.26606 14.1127 5.32963 18.9155 9.09246C27.3102 15.6653 34.6458 27.499 40.7428 41.5619C49.9111 62.6536 56.3797 88.6903 60.5303 109.423C62.6081 119.789 64.1096 128.833 65.0929 135.281C65.5833 138.506 65.9448 141.082 66.1824 142.848C66.42 144.616 66.5338 145.566 66.5338 145.568C66.6424 146.463 67.4463 147.1 68.3335 146.99C69.2208 146.883 69.8527 146.07 69.7466 145.176" transform="translate(17.69444 12.7381)" id="Fill-63" fill="url(#gradient_1)" stroke="none" />
            </g>
          </g>
          <g id="list4" transform="matrix(0.7660444 -0.6427876 0.6427876 0.7660444 220.2777 49.84373)">
            <path d="M70.3285 123.248C70.3285 123.248 83.9184 88.2506 60.6184 32.4483C37.3184 -23.3561 15.9583 9.74696 15.9583 9.74696C15.9583 9.74696 -7.34166 7.85501 2.36633 80.6849L20.8134 60.8214L12.0764 92.9805L29.5504 114.734L39.2604 98.6563L40.2314 121.356C40.2314 121.356 66.4445 127.975 70.3285 123.248" transform="translate(0.4953965 0.8818369)" id="Fill-62" fill="url(#gradient_3)" stroke="none" />
            <g clip-path="url(#mask_4)">
              <g id="Fill-62">
                <use stroke="none" fill="url(#gradient_3)" xlink:href="#path_8" />
                <use stroke="none" fill="url(#gradient_4)" fill-opacity="0.6" xlink:href="#path_8" />
              </g>
              <path d="M44.5479 58.2904C40.3953 43.8875 35.0483 29.4664 28.2579 18.5377C24.8587 13.0734 21.096 8.47502 16.8821 5.20211C12.6764 1.93326 7.97052 -0.00405934 2.85221 6.38666e-06C2.3071 6.38666e-06 1.75587 0.020335 1.20259 0.0650581C0.48395 0.124011 -0.0529925 0.750134 0.00417242 1.46773C0.0613374 2.1833 0.692193 2.71795 1.41084 2.65899C1.89674 2.62037 2.37652 2.60207 2.85221 2.60207C7.29883 2.60614 11.3984 4.25276 15.2774 7.2553C22.0576 12.5001 27.9823 21.9428 32.9067 33.1642C40.3116 49.9943 45.5361 70.7701 48.8884 87.3136C50.5666 95.5853 51.7793 102.802 52.5735 107.947C52.9695 110.521 53.2615 112.576 53.4534 113.985C53.6453 115.396 53.7372 116.154 53.7372 116.156C53.825 116.869 54.4742 117.378 55.1908 117.29C55.9074 117.205 46.2646 115.434 56.3321 115.843C56.3259 115.804 52.845 87.09 44.5479 58.2904Z" transform="translate(17.46392 13.05953)" id="Fill-63" fill="url(#gradient_14)" stroke="none" />
            </g>
          </g>
          <g id="list2" transform="matrix(0.1736482 0.9848077 0.9848077 -0.1736482 0.3911285 21.91058)">
            <path d="M70.3285 123.248C70.3285 123.248 83.9184 88.2506 60.6184 32.4483C37.3184 -23.3561 15.9583 9.74696 15.9583 9.74696C15.9583 9.74696 -7.34166 7.85501 2.36633 80.6849L20.8134 60.8214L12.0764 92.9805L29.5504 114.734L39.2604 98.6563L40.2314 121.356C40.2314 121.356 66.4445 127.975 70.3285 123.248" transform="translate(0.6184162 0.6023169)" id="Fill-62" fill="url(#gradient_15)" stroke="none" />
            <path d="M44.5479 58.2904C40.3953 43.8875 35.0483 29.4664 28.2579 18.5377C24.8587 13.0734 21.096 8.47502 16.8821 5.20211C12.6764 1.93326 7.97052 -0.00405934 2.85221 6.38667e-06C2.3071 6.38667e-06 1.75587 0.020335 1.20259 0.0650581C0.48395 0.124011 -0.0529925 0.750134 0.00417242 1.46773C0.0613374 2.1833 0.692193 2.71795 1.41084 2.65899C1.89674 2.62037 2.37652 2.60207 2.85221 2.60207C7.29883 2.60614 11.3984 4.25276 15.2774 7.2553C22.0576 12.5001 27.9823 21.9428 32.9067 33.1642C40.3116 49.9943 45.5361 70.7701 48.8884 87.3136C50.5666 95.5853 51.7793 102.802 52.5735 107.947C52.9695 110.521 53.2615 112.576 53.4534 113.985C53.6453 115.396 53.7372 116.154 53.7372 116.156C53.825 116.869 54.4742 117.378 55.1908 117.29C55.9074 117.205 46.2646 115.434 56.3321 115.843C56.3259 115.804 52.845 87.09 44.5479 58.2904Z" transform="translate(27.46392 1.059531)" id="Fill-63" fill="url(#gradient_16)" stroke="none" />
          </g>
        </g>
        <path d="M15.1546 188.724C15.1546 188.724 -18.3411 41.9312 22.1976 82.3935C62.7362 122.856 81.4356 68.4625 113.112 41.6802C144.788 14.8979 173.103 20.49 174.306 18.819C212.928 -34.8366 292.005 42.7389 292.005 48.1637C292.005 53.7575 193.135 129.249 193.135 136.964C193.135 144.68 72.271 218.799 66.9781 219.881C61.6851 220.962 15.1546 188.724 15.1546 188.724Z" transform="matrix(0.6156615 0.7880107 -0.7880107 0.6156615 123.3316 220)" id="Path-26" fill="url(#gradient_17)" stroke="none" />
        <g id="cloud" transform="translate(421 199)">
          <g id="Path">
            <use stroke="none" fill="url(#gradient_3)" xlink:href="#path_9" />
            <use stroke="none" fill="url(#gradient_4)" fill-opacity="0.6" xlink:href="#path_9" />
          </g>
        </g>
      </g>
    </g>
    <g id="Group-43" transform="translate(22 328)">
      <path d="M22.2533 20L19.3619 18.2888C19.3882 18.2407 19.9893 17.1261 19.2763 15.302C18.3357 12.8989 14.5781 8.12321 0 3.13292L1.11083 0C13.3958 4.20405 20.596 9.02969 22.5119 14.3419C23.6811 17.5821 22.4019 19.7614 22.2533 20" transform="translate(84 148)" id="Fill-315" fill="url(#gradient_11)" stroke="none" />
      <path d="M32.9444 0C32.9444 0 36.2221 25.4118 36.9403 43.4433C38.3145 77.933 15.5997 85.1147 5.90155 91C-7.03329 65.8198 3.52075 43.0338 16.2155 25.3921C28.9085 7.75131 31.4996 6.53584 32.9444 0" transform="translate(113 16)" id="Fill-317" fill="url(#gradient_18)" stroke="none" />
      <path d="M30.8139 43.4433C29.4987 25.3902 26.847 0 26.847 0C26.8876 13.6564 18.3884 58.5844 2.70714 86.1946C1.92945 87.5692 0.699183 89.6066 0 91C10.6244 85.8453 33.2791 77.2354 30.8139 43.4433" transform="translate(119 16)" id="Fill-318" fill="url(#gradient_19)" stroke="none" />
      <path d="M0 21.7515C0 21.7515 23.6604 4.89772 41.2922 1.21697C75.0167 -5.82557 91.824 19.3579 94 34.1437C71.3295 51.3317 57.614 36.3983 38.1733 26.47C18.7316 16.5436 7.15174 19.9035 0 21.7515" transform="translate(0 119)" id="Fill-319" fill="url(#gradient_9)" stroke="none" />
      <path d="M37.9968 9.54146C57.1841 19.3488 70.7746 34.0422 93 17.5948C86.5834 10.1827 72.3198 7.23548 47.1357 1.26991C35.1643 -1.56538 17.1624 0.759574 0.925475 4.19436C0.332797 4.60509 0 4.84033 0 4.84033C7.11868 2.99915 18.6451 -0.34836 37.9968 9.54146" transform="translate(0 136)" id="Fill-320" fill="url(#gradient_18)" stroke="none" />
      <path d="M76 0.153317C76 0.153317 47.0803 -1.34067 30.1953 4.99863C-2.09994 17.1213 -3.11475 47.2436 2.81328 60.8169C31.07 63.1216 34.848 43.2524 46.1153 24.5252C57.3817 5.798 68.9659 2.42591 76 0.153317" transform="translate(124 98)" id="Fill-321" fill="url(#gradient_9)" stroke="none" />
      <path d="M42.3176 24.4669C31.2237 43.0729 27.4236 62.789 0 60.8703C1.54507 51.1598 12.0691 40.9963 30.2513 22.4055C38.8921 13.5687 55.3424 5.84013 70.8781 0C71.5946 0.0264773 72 0.0472809 72 0.0472809C65.0135 2.32433 53.5077 5.70302 42.3176 24.4669" transform="translate(127 98)" id="Fill-322" fill="url(#gradient_19)" stroke="none" />
      <path d="M33.7634 26.7314L33.7784 26.7541C44.8005 43.5908 51.0279 60.4974 77.1762 56.3714C82.0674 42.3836 78.844 12.3932 45.864 2.69585C30.6347 -1.78443 6.53754 0.534586 1.11786 1.13536L0.97262 1.15236C0.352317 1.22132 0 1.26571 0 1.26571C7.15691 3.01324 18.9145 5.51551 31.4855 23.3696C31.8791 23.9269 32.2623 24.4861 32.6418 25.0444L32.7758 25.2465C33.1094 25.7415 33.4392 26.2365 33.7634 26.7314" transform="translate(14 75)" id="Fill-323" fill="url(#gradient_18)" stroke="none" />
      <path d="M19.812 77L16.4185 76.8015C16.4479 76.3051 19.1599 26.9963 0 2.03046L2.71099 0C22.633 25.9604 19.9371 74.9283 19.812 77" transform="translate(93 86)" id="Fill-324" fill="url(#gradient_11)" stroke="none" />
      <path d="M0 0C0 0 22.6543 23.528 37.2927 41.5392C65.2919 75.9913 50.5603 101.99 46.4583 116C15.3497 100.612 7.09858 68.4694 4.75403 39.883C2.40947 11.2966 3.78121 7.92366 0 0" transform="translate(61 0)" id="Fill-325" fill="url(#gradient_18)" stroke="none" />
      <path d="M37.5069 41.5392C22.2195 24.0035 0 0 0 0C10.6981 14.0522 38.0727 67.4021 45.4278 108.811C45.7949 110.872 46.2718 113.985 46.7251 116C52.3249 101.921 66.1163 74.3625 37.5069 41.5392" transform="translate(61 0)" id="Fill-326" fill="url(#gradient_9)" stroke="none" />
      <path d="M64 0C64 0 59.4533 32.3784 54.3085 55.024C44.4681 98.3428 14.9668 102.645 1.43407 108C-5.62099 73.9296 14.5618 47.6621 35.5838 28.2513C56.6058 8.84334 60.0995 7.85666 64 0" transform="translate(116 44)" id="Fill-330" fill="url(#gradient_9)" stroke="none" />
      <path d="M52.3961 55.024C56.7822 32.2264 62 0 62 0C57.5448 17.0475 32.5985 71.351 4.81174 102.565C3.42935 104.119 1.29371 106.407 0 108C14.3587 103.763 44.184 97.696 52.3961 55.024" transform="translate(119 44)" id="Fill-331" fill="url(#gradient_20)" stroke="none" />
      <path d="M0 0C0 0 2.22641 25.5401 5.38799 43.3123C11.4338 77.308 35.3152 79.368 46.1155 83C53.4376 55.5798 38.1685 35.6205 21.8996 21.1555C5.63068 6.69139 2.8233 6.06878 0 0" transform="translate(63 74)" id="Fill-332" fill="url(#gradient_9)" stroke="none" />
      <path d="M5.37449 43.3123C2.81343 25.3866 0 0 0 0C2.88072 13.3508 20.8932 55.3745 42.2958 78.9036C43.3595 80.0744 45.0111 81.7943 46 83C34.3977 80.3014 10.1676 76.8662 5.37449 43.3123" transform="translate(63 74)" id="Fill-333" fill="url(#gradient_19)" stroke="none" />
      <path d="M67 0C67 0 38.2203 4.00383 22.7847 13.3758C-6.7416 31.3011 -2.03495 60.8788 6.37605 73C34.6546 69.9123 34.616 49.8153 42.1691 29.4202C49.7231 9.02408 60.4992 3.54719 67 0" transform="translate(102 95)" id="Fill-334" fill="url(#gradient_9)" stroke="none" />
      <path d="M35.143 29.4569C27.6453 49.7075 27.6037 69.6502 0.0078729 73C-0.296344 63.2389 8.23212 51.3279 22.7703 29.7432C29.6813 19.4827 44.553 8.81847 58.8776 0.168051C59.5956 0.0582077 60 0 60 0C53.4924 3.55161 42.705 9.03534 35.143 29.4569" transform="translate(110 95)" id="Fill-335" fill="url(#gradient_19)" stroke="none" />
    </g>
    <g id="girl" transform="matrix(-1 0 0 1 397 0)">
      <path d="M74.8867 34.4248C74.0565 22.7864 72.7485 12.1982 71.3811 3.28268C71.2067 2.15437 71.0305 1.07112 70.8544 0C63.3617 5.983 55.9754 12.0735 47.67 16.7722C48.9815 25.939 50.0594 35.0505 50.8704 43.9175C29.7301 82.0479 15.3134 102.978 12.0065 107.47C11.9839 107.512 11.9455 107.552 11.9159 107.593C10.3863 109.399 8.14336 111.852 6.95214 112.219C5.03188 112.812 0.329775 115.103 0.0140922 116.485C-0.301591 117.866 4.79119 117.546 4.79119 117.546C4.79119 117.546 4.12843 118.461 3.23022 119.74C5.1749 120.239 7.0655 120.915 8.91077 121.879C10.4595 122.688 11.6595 123.775 12.7286 125C15.5593 121.168 18.308 116.192 19.1085 114.708L19.1138 114.713L19.1207 114.726C34.6398 103.314 41.5621 97.1874 53.2389 82.3044C58.3892 75.7286 63.1663 69.0212 67.565 62.3622C73.0205 54.1018 75.5879 44.2798 74.8867 34.4248" transform="translate(55 92)" id="Fill-1" fill="url(#gradient_21)" stroke="none" />
      <g id="Group-5" transform="translate(68 85)">
        <path d="M32.6815 16.2277C31.4309 25.9947 36.435 50.1019 36.435 50.1019L36.435 50.1019L0 110.602C0 110.602 7.6627 118.323 12.1981 120.529L12.1981 120.529C12.1981 120.529 40.9704 97.2096 52.5405 79.0909L52.5405 79.0909C64.1124 60.9721 62.08 43.9566 61.7669 37.4976L61.7669 37.4976C61.4538 31.0368 56.6071 0 56.6071 0L56.6071 0C56.6071 0 33.9338 6.45903 32.6815 16.2277" transform="translate(0.7368649 0.7476857)" id="Clip-4" fill="none" stroke="none" />
        <g clip-path="url(#mask_5)">
          <path d="M32.6815 16.2277C31.4309 25.9947 36.435 50.1019 36.435 50.1019L36.435 50.1019L0 110.602C0 110.602 7.6627 118.323 12.1981 120.529L12.1981 120.529C12.1981 120.529 40.9704 97.2096 52.5405 79.0909L52.5405 79.0909C64.1124 60.9721 62.08 43.9566 61.7669 37.4976L61.7669 37.4976C61.4538 31.0368 56.6071 0 56.6071 0L56.6071 0C56.6071 0 33.9338 6.45903 32.6815 16.2277L32.6815 16.2277Z" transform="translate(0.7368649 0.7476857)" id="Fill-3" fill="url(#gradient_22)" stroke="none" />
        </g>
      </g>
      <path d="M104.421 28.4675C104.421 28.4675 108.174 32.9714 111.092 30.7194C114.01 28.4675 113.153 22.614 119.891 22.614C126.629 22.614 121.903 12.1628 128.813 16.6208C135.723 21.0788 135.483 26.2155 135.483 28.4675C135.483 30.7194 141.318 25.7126 139.909 16.6208C138.499 7.529 128.278 -2.76104 122.275 0.679393C116.272 4.11982 112.017 -1.51006 104.421 6.31513C96.8256 14.1403 101.802 8.3874 86.2904 18.4274C70.7787 28.4675 77.0199 41.3894 71.0902 46.5222C65.1605 51.655 46.3227 43.861 35.181 65.8122C24.0394 87.7634 -5.18142 78.5098 0.798074 88C6.77757 97.4902 35.181 88.1654 42.6828 99.3913C50.1846 110.617 79.0383 108.027 79.0383 108.027C79.0383 108.027 72.3116 153.924 89.181 136.466C106.051 119.007 106.966 71.8454 106.966 71.8454L111.092 51.4753L102.968 37.322C102.968 37.322 98.6859 32.9714 98.6859 30.7194C98.6859 28.4675 102.968 26.6755 102.968 26.6755L104.421 28.4675Z" transform="matrix(-1 0 0 1 246.1282 4)" id="волосы" fill="#09304E" stroke="none" />
      <g id="Group-42" transform="translate(0 205)">
        <g id="Group-10" transform="translate(0 235.7793)">
          <path d="M0 0L69.1289 0L69.1289 69.1155L0 69.1155L0 0Z" transform="translate(0.0006949721 0.3680892)" id="Clip-9" fill="none" stroke="none" />
          <g clip-path="url(#mask_6)">
            <path d="M69.1289 34.5577C69.1289 53.6431 53.6536 69.117 34.5627 69.117C15.4736 69.117 0 53.6431 0 34.5577C0 15.4723 15.4736 0 34.5627 0C53.6536 0 69.1289 15.4723 69.1289 34.5577" transform="translate(0.0006949721 0.3680892)" id="Fill-8" fill="url(#gradient_23)" stroke="none" />
          </g>
        </g>
        <path d="M43.6842 21.8369C43.6842 33.8976 33.906 43.6739 21.843 43.6739C9.77826 43.6739 0 33.8976 0 21.8369C0 9.77634 9.77826 0 21.843 0C33.906 0 43.6842 9.77634 43.6842 21.8369" transform="translate(12.72181 248.8681)" id="Fill-11" fill="url(#gradient_24)" stroke="none" />
        <g id="Group-15" transform="translate(240.7654 235.7793)">
          <path d="M0 0L69.1289 0L69.1289 69.1155L0 69.1155L0 0Z" transform="translate(0.4853291 0.3680892)" id="Clip-14" fill="none" stroke="none" />
          <g clip-path="url(#mask_7)">
            <path d="M69.1289 34.5577C69.1289 53.6431 53.6553 69.117 34.5644 69.117C15.4753 69.117 0 53.6431 0 34.5577C0 15.4723 15.4753 0 34.5644 0C53.6553 0 69.1289 15.4723 69.1289 34.5577" transform="translate(0.4853291 0.3680892)" id="Fill-13" fill="url(#gradient_23)" stroke="none" />
          </g>
        </g>
        <path d="M43.6842 21.8369C43.6842 33.8976 33.906 43.6739 21.843 43.6739C9.77826 43.6739 0 33.8976 0 21.8369C0 9.77634 9.77826 0 21.843 0C33.906 0 43.6842 9.77634 43.6842 21.8369" transform="translate(253.9734 248.8681)" id="Fill-16" fill="url(#gradient_25)" stroke="none" />
        <path d="M196.448 9.42197L4.71191 9.42197C2.10924 9.42197 0 7.31314 0 4.71098C0 2.10883 2.10924 0 4.71191 0L196.448 0C199.05 0 201.16 2.10883 201.16 4.71098C201.16 7.31314 199.05 9.42197 196.448 9.42197" transform="translate(79.10345 265.9939)" id="Fill-18" fill="url(#gradient_26)" stroke="none" />
        <path d="M62.4753 27.5021C66.7713 33.9574 69.2698 41.687 69.2698 49.9396C69.2698 52.5417 71.3791 54.6505 73.9817 54.6505C76.5844 54.6505 78.6936 52.5417 78.6936 49.9396C78.6936 23.7251 58.2232 1.79266 32.0905 0.0121448C31.2269 -0.0497413 30.4013 0.127356 29.6777 0.486949C20.2539 0.296143 10.6999 2.74814 2.20946 8.07463C0.00162935 9.44897 -0.660782 12.3651 0.721272 14.5689C2.10192 16.7736 5.01008 17.4391 7.21701 16.0547C25.2244 4.76015 49.127 9.39799 61.6347 26.6133C61.8813 26.9527 62.1646 27.2494 62.4753 27.5021L62.4753 27.5021Z" transform="translate(8.124365 220.7654)" id="Combined-Shape" fill="url(#gradient_26)" fill-rule="evenodd" stroke="none" />
        <path d="M4.71191 54.6489C2.10924 54.6489 0 52.5401 0 49.9379C0 23.7235 20.4704 1.79105 46.6031 0.0105324C49.1658 -0.161439 51.447 1.79279 51.6243 4.38973C51.8032 6.98494 49.8417 9.23274 47.2442 9.40992C26.0371 10.8569 9.42382 28.6586 9.42382 49.9379C9.42382 52.5401 7.31458 54.6489 4.71191 54.6489" transform="translate(224.8212 220.767)" id="Fill-22" fill="url(#gradient_26)" stroke="none" />
        <path d="M50.5599 4.79728C49.6964 2.34277 47.0034 1.05385 44.5501 1.91719L36.7247 4.66874L35.7448 2.65197C34.6068 0.312116 31.7869 -0.662391 29.4484 0.475402C27.1063 1.6132 26.1316 4.43249 27.2714 6.77235L29.4901 11.3357L0.0301917 271.866C-0.261697 274.453 1.59562 276.785 4.18265 277.079C4.36161 277.1 4.54056 277.109 4.71778 277.109C7.08416 277.109 9.12216 275.332 9.39494 272.926L38.6758 13.9708L47.6792 10.8041C50.1342 9.9408 51.4234 7.25179 50.5599 4.79728" transform="translate(29.45417 0.03970138)" id="Fill-24" fill="url(#gradient_27)" stroke="none" />
        <g id="Fill-26">
          <use stroke="none" fill="url(#gradient_28)" xlink:href="#path_13" />
          <use stroke="none" fill="url(#gradient_29)" xlink:href="#path_13" />
        </g>
        <g id="Fill-28">
          <use stroke="none" fill="url(#gradient_30)" xlink:href="#path_14" />
          <use stroke="none" fill="url(#gradient_31)" xlink:href="#path_14" />
        </g>
        <g id="Fill-34">
          <use stroke="none" fill="url(#gradient_28)" xlink:href="#path_15" />
          <use stroke="none" fill="url(#gradient_29)" xlink:href="#path_15" />
        </g>
        <g id="Fill-36">
          <use stroke="none" fill="url(#gradient_32)" xlink:href="#path_16" />
          <use stroke="none" fill="url(#gradient_31)" xlink:href="#path_16" />
        </g>
      </g>
      <g id="Group-45" transform="translate(93 181)">
        <path d="M80.308 0C77.4732 0.69728 74.6851 1.35457 71.9854 1.97534C52.3755 6.49636 32.4955 6.01817 12.5653 5.74865C10.6587 13.7387 0.91959 55.4816 0.360249 77.019C0.11781 86.0924 -0.147141 98.2765 0.0970295 110.577L0.0970295 110.671C0.528225 130.779 2.38981 151.19 8.19449 158.773C12.477 164.355 37.9695 174.351 64.4005 183.557L72.9101 269.745C72.9101 269.745 84.426 271.858 92.1858 269.745C92.1858 269.745 94.8907 230.565 94.8145 194.875L94.8145 193.726C113.995 199.932 128.723 204.347 128.723 204.347C128.723 204.347 139.375 193.35 140.313 187.368C140.371 186.972 140.014 186.407 139.262 185.71C135.184 181.802 119.687 173.485 102.366 164.809C99.4364 163.336 96.4683 161.866 93.4793 160.413C93.3114 158.754 93.1417 157.151 92.9356 155.641C92.7105 153.736 92.4282 151.945 92.1477 150.301C92.0715 149.943 92.0161 149.585 91.9416 149.246L97.5766 38.4443C97.5766 38.4443 101.764 15.281 93.4984 0L80.308 0Z" transform="translate(0.02511683 0.6240892)" id="Clip-44" fill="none" stroke="none" />
        <g clip-path="url(#mask_8)">
          <path d="M80.308 0C77.4732 0.69728 74.6851 1.35457 71.9854 1.97534C52.3755 6.49636 32.4955 6.01817 12.5653 5.74865C10.6587 13.7387 0.91959 55.4816 0.360249 77.019C0.11781 86.0924 -0.147141 98.2765 0.0970295 110.577L0.0970295 110.671C0.528225 130.779 2.38981 151.19 8.19449 158.773C12.477 164.355 34.5438 178.163 60.9749 187.368L72.9101 269.745C72.9101 269.745 84.426 271.858 92.1858 269.745C92.1858 269.745 94.8907 230.565 94.8145 194.875L94.8145 193.726C113.995 199.932 128.723 204.347 128.723 204.347C128.723 204.347 139.375 193.35 140.313 187.368C140.371 186.972 140.014 186.407 139.262 185.71C135.184 181.802 119.687 173.485 102.366 164.809C99.4364 163.336 96.4683 161.866 93.4793 160.413C93.3114 158.754 93.1417 157.151 92.9356 155.641C92.7105 153.736 92.4282 151.945 92.1477 150.301C92.0715 149.943 92.0161 149.585 91.9416 149.246L97.5766 38.4443C97.5766 38.4443 101.764 15.281 93.4984 0L80.308 0Z" transform="translate(0.02511683 0.6240892)" id="Fill-43" fill="url(#gradient_33)" stroke="none" />
          <path d="M69.9527 0C67.1179 0.69728 0 18.3759 0 18.3759L53.6196 183.799L62.5549 269.745C62.5549 269.745 74.0707 271.858 81.8305 269.745C81.8305 269.745 84.5354 230.565 84.4592 194.875L84.4592 193.726C103.64 199.932 118.368 204.347 118.368 204.347C118.368 204.347 129.02 193.35 129.958 187.368C130.015 186.972 129.659 186.407 128.907 185.71C124.829 181.802 109.332 173.485 92.0112 164.809C89.0812 163.336 86.113 161.866 83.1241 160.413C82.9561 158.754 82.7864 157.151 82.5803 155.641C82.3552 153.736 82.0729 151.945 81.7924 150.301C81.7162 149.943 81.6608 149.585 81.5863 149.246L87.2213 38.4443C87.2213 38.4443 91.4086 15.281 83.1431 0L69.9527 0Z" transform="translate(10.38038 0.6240892)" id="Fill-43" fill="url(#gradient_34)" stroke="none" />
        </g>
      </g>
      <g id="Group-66" transform="translate(121 50)">
        <path d="M2.58503 24.8001L19.872 22.8546L17.2852 0L0 1.94552L2.58503 24.8001Z" transform="translate(0.8892581 0.07677845)" id="Fill-62" fill="url(#gradient_35)" stroke="none" />
      </g>
      <g id="Group-76" transform="translate(51 84)">
        <path d="M114.002 0C105.196 1.70664 96.4256 2.9529 87.6157 2.88457C87.866 3.7226 88.1524 4.66135 88.5217 5.81229C92.3115 17.7156 101.082 52.2891 95.7159 70.0443C74.1873 92.8744 51.3493 109.747 22.8498 121.862C22.6013 121.966 22.6823 121.909 22.6427 121.923C20.7982 122.653 17.2966 123.722 15.6502 123.518C12.9988 123.193 8.74063 122.35 7.15913 123.853C5.57583 125.358 10.205 126.612 10.5095 127.254C8.57131 127.933 -0.391724 131.514 0.0135577 133.345C0.417038 135.175 7.28701 131.082 8.44882 131.095C7.4149 131.438 -1.10322 135.166 0.119832 136.557C1.34288 137.947 8.79106 133.69 10.749 133.337C9.63945 133.699 2.14264 137.621 2.88115 138.677C3.61966 139.732 8.58572 136.584 10.1132 136.711C9.72771 136.459 6.30713 140.078 7.44553 139.79C11.9937 138.641 21.8465 132.244 24.8294 132.009C27.8105 131.771 68.8178 122.31 86.3494 110.069C94.0894 104.663 100.925 99.4259 107.601 93.6082C115.877 86.3967 120.724 76.3727 122.346 66.4835C124.26 54.8032 123.208 39.3517 121.74 30.1171C119.664 17.0664 117.145 10.7254 114.002 0" transform="translate(0.1979932 0.1873596)" id="Fill-74" fill="url(#gradient_21)" stroke="none" />
      </g>
      <g id="Group-79" transform="translate(80 67)">
        <path d="M56.9215 16.5336C57.9932 26.156 64.383 45.2653 66.7555 60.5736L66.7555 60.5736C68.0182 68.613 68.1693 75.6163 65.8524 79.6464L65.8524 79.6464C59.1638 91.3394 0 129.447 0 129.447L0 129.447C0 129.447 0.0590526 129.976 0.132 130.86L0.132 130.86C0.547105 134.945 1.84626 146.638 3.31563 148.464L3.31563 148.464C5.08895 150.667 71.2592 123.497 89.3848 95.406L89.3848 95.406C107.491 67.2957 91.2294 9.24745 77.6455 2.69544L77.6455 2.69544C73.8662 0.874761 70.462 -0.00173306 67.5475 2.57251e-06L67.5475 2.57251e-06C59.9784 2.57251e-06 55.737 5.91504 56.9215 16.5336" transform="translate(0.2257895 3.593308)" id="Clip-78" fill="none" stroke="none" />
        <path d="M23.4201 25C14.9779 50 18.6693 77 18.6693 77C18.6693 77 24.5188 83.5297 24.5188 89.3995C24.5188 95.2694 5.56793 108.73 0.276772 122.392C-5.01439 136.054 90.8478 134 90.8478 134C90.8478 134 88.2188 83.2626 88.2188 71.0028C88.2188 58.743 94.0567 40.3437 87.575 30.9513C81.0932 21.559 68.9585 6.16786 68.9585 6.16786C68.9585 6.16786 57.2687 10.4112 50.8478 0C39.7431 0 31.8624 -1.50112e-12 23.4201 25Z" transform="matrix(-1 0 0 1 110.8478 4.547474E-13)" id="Path-3" fill="url(#gradient_36)" stroke="none" />
        <path d="M56.9215 16.5336C57.9932 26.156 64.383 45.2653 66.7555 60.5736L66.7555 60.5736C68.0182 68.613 68.1693 75.6163 65.8524 79.6464L65.8524 79.6464C59.1638 91.3394 0 129.447 0 129.447L0 129.447C0 129.447 0.0590526 129.976 0.132 130.86L0.132 130.86C0.547105 134.945 1.84626 146.638 3.31563 148.464L3.31563 148.464C5.08895 150.667 71.2592 123.497 89.3848 95.406L89.3848 95.406C107.491 67.2957 91.2294 9.24745 77.6455 2.69544L77.6455 2.69544C73.8662 0.874761 70.462 -0.00173306 67.5475 2.57251e-06L67.5475 2.57251e-06C59.9784 2.57251e-06 55.737 5.91504 56.9215 16.5336" transform="translate(0.2257895 3.593308)" id="Fill-77" fill="url(#gradient_22)" stroke="none" />
      </g>
      <g id="Group-126" transform="translate(100 0)">
        <g id="Combined-Shape">
          <use stroke="none" fill="url(#gradient_21)" xlink:href="#path_19" />
          <use stroke="none" fill="url(#gradient_37)" xlink:href="#path_19" />
        </g>
        <path d="M52.7732 34.322C52.7732 33.8016 52.4007 32.8717 52.1599 32.4182C51.0851 30.2637 48.3384 29.7204 46.3852 31.1038L39.7099 35.8872L39.5338 36C33.1438 32.6669 34.8359 20.5381 34.8359 20.5381C29.4499 22.1662 14.6152 25.8618 11 25.6412C3.73816 25.1979 7.89557 32.1236 7.89557 32.1236C6.15892 30.3766 4.75422 28.7466 3.65718 27.2733C-6.5765 13.5334 7.91581 10.8146 7.91581 10.8146C5.26024 8.70612 6.18119 5.73662 6.18119 5.73662C9.71723 -2.33389 23.3311 2.65219 23.3311 2.65219C22.6713 0.930255 24.7358 0.159147 24.7358 0.159147C28.7981 -0.453142 32.8159 0.771436 36.3074 2.63129C43.0253 6.21099 47.8992 12.173 47.8992 12.173C53.9168 17.9552 54.3762 24.983 53.8277 29.5386C53.4998 32.4182 52.7732 34.322 52.7732 34.322Z" transform="translate(0 1)" id="Fill-112" fill="#09304E" stroke="none" />
        <g clip-path="url(#mask_10)">
          <path d="M52.7732 34.322C52.7732 33.8016 52.4007 32.8717 52.1599 32.4182C51.0851 30.2637 48.3384 29.7204 46.3852 31.1038L39.7099 35.8872L39.5338 36C33.1438 32.6669 34.8359 20.5381 34.8359 20.5381C29.4499 22.1662 14.6152 25.8618 11 25.6412C3.73816 25.1979 7.89557 32.1236 7.89557 32.1236C6.15892 30.3766 4.75422 28.7466 3.65718 27.2733C-6.5765 13.5334 7.91581 10.8146 7.91581 10.8146C5.26024 8.70612 6.18119 5.73662 6.18119 5.73662C9.71723 -2.33389 23.3311 2.65219 23.3311 2.65219C22.6713 0.930255 24.7358 0.159147 24.7358 0.159147C28.7981 -0.453142 32.8159 0.771436 36.3074 2.63129C43.0253 6.21099 47.8992 12.173 47.8992 12.173C53.9168 17.9552 54.3762 24.983 53.8277 29.5386C53.4998 32.4182 52.7732 34.322 52.7732 34.322Z" transform="translate(3 5)" id="Fill-112" fill="url(#gradient_38)" stroke="none" />
        </g>
      </g>
      <g id="face" transform="matrix(-0.9945219 -0.1045285 -0.1045285 0.9945219 133.6942 30.35248)">
        <path d="M0 0C0.599389 0.692837 1.30323 1.30579 2.10509 1.76171C2.91178 2.20799 3.82774 2.48485 4.7678 2.45455C5.71429 2.44904 6.62221 2.15289 7.50281 1.80028C7.92865 1.59642 8.35128 1.37741 8.77069 1.15152C9.17725 0.904959 9.57255 0.644628 10 0.406336C9.67218 0.73416 9.31223 1.03994 8.96352 1.36088C8.57143 1.63774 8.16487 1.90634 7.74546 2.16253C6.86003 2.61846 5.8573 2.95179 4.77744 3C3.70079 2.98898 2.63538 2.66529 1.81906 2.10055C1.00916 1.5303 0.376024 0.80854 0 0" transform="matrix(-0.9848077 -0.1736482 -0.1736482 0.9848077 18.12759 21.24376)" id="Fill-146" fill="url(#gradient_39)" stroke="none" />
        <path d="M0 0C0.419573 0.461892 0.912261 0.870524 1.47357 1.17447C2.03825 1.47199 2.67942 1.65657 3.33746 1.63636C4 1.63269 4.63555 1.43526 5.25197 1.20018C5.55006 1.06428 5.84589 0.918274 6.13948 0.767677C6.42407 0.603306 6.70079 0.429752 7 0.270891C6.77053 0.48944 6.51856 0.693297 6.27447 0.907254C6 1.09183 5.71541 1.27089 5.42182 1.44169C4.80202 1.74564 4.10011 1.96786 3.34421 2C2.59055 1.99265 1.84477 1.77686 1.27334 1.40037C0.706412 1.0202 0.263217 0.539027 0 0" transform="matrix(-0.9659258 0.258819 -0.258819 -0.9659258 8.263158 4.783976)" id="Fill-146" fill="#2C2B3C" stroke="none" />
        <path d="M0 0C0.419573 0.461892 0.912261 0.870523 1.47357 1.17447C2.03824 1.47199 2.67941 1.65657 3.33746 1.63636C4 1.63269 4.63554 1.43526 5.25197 1.20018C5.55006 1.06428 5.84589 0.918274 6.13948 0.767677C6.42407 0.603306 6.70079 0.429752 7 0.270891C6.77053 0.48944 6.51856 0.693297 6.27446 0.907254C6 1.09183 5.71541 1.27089 5.42182 1.44169C4.80202 1.74564 4.10011 1.96786 3.34421 2C2.59055 1.99265 1.84477 1.77686 1.27334 1.40037C0.706412 1.0202 0.263217 0.539027 0 0" transform="matrix(0.9659258 -0.258819 -0.258819 -0.9659258 13.50168 4.595709)" id="Fill-146" fill="#2C2B3C" stroke="none" />
        <path d="M0 0C0.424349 0.624969 0.808135 1.25342 1.19504 1.86968C1.58351 2.4755 1.97821 3.09177 2.43376 3.55658C2.57885 3.70803 2.6085 3.68714 2.86435 3.90649C3.15297 4.32604 2.9018 4.61154 2.83315 4.76996C2.61162 5.12683 2.3542 5.38796 2.09366 5.64909C1.56323 6.15742 0.995347 6.5996 0.404067 7C0.901741 6.46556 1.39473 5.93111 1.85185 5.37404C2.07806 5.09898 2.30428 4.80652 2.44781 4.51231L2.52425 4.31908L2.09522 4.04054C1.47742 3.54265 1.08271 2.8672 0.73793 2.18826C0.402507 1.50062 0.14197 0.771201 0 0" transform="translate(13 11)" id="Fill-147" fill="#2C2B3C" stroke="none" />
        <path d="M1 3C1.55228 3 2 2.32843 2 1.5C2 0.671573 1.55228 0 1 0C0.447715 0 0 0.671573 0 1.5C0 2.32843 0.447715 3 1 3Z" transform="matrix(0.9743701 -0.224951 0.224951 0.9743701 4.688203 7.263396)" id="Oval" fill="#2C2B3C" stroke="none" />
        <path d="M1 3C1.55228 3 2 2.32843 2 1.5C2 0.671573 1.55228 0 1 0C0.447715 0 0 0.671573 0 1.5C0 2.32843 0.447715 3 1 3Z" transform="matrix(0.9743701 -0.224951 0.224951 0.9743701 14.6882 5.263396)" id="Oval" fill="#2C2B3C" stroke="none" />
      </g>
    </g>
    <g id="cloud" transform="matrix(-1 0 0 1 523 148)">
      <g id="Path">
        <use stroke="none" fill="url(#gradient_3)" xlink:href="#path_21" />
        <use stroke="none" fill="url(#gradient_4)" fill-opacity="0.6" xlink:href="#path_21" />
      </g>
    </g>
  </g>
</svg>