<?xml version="1.0" encoding="utf-8"?>
<svg width="639px" height="514px" viewBox="0 0 639 514" version="1.1" xmlns:xlink="http://www.w3.org/1999/xlink" xmlns="http://www.w3.org/2000/svg">
  <desc>Created with Lunacy</desc>
  <defs>
    <linearGradient x1="0.4054297" y1="0.26797846" x2="0.922714531" y2="0.5948804" id="gradient_1">
      <stop offset="0" stop-color="#FAD0C4" />
      <stop offset="1" stop-color="#DDC4FF" />
    </linearGradient>
    <linearGradient x1="0.689776659" y1="0.7344376" x2="0.7268388" y2="0.9763476" id="gradient_2">
      <stop offset="0" stop-color="#FFFFFF" stop-opacity="0" />
      <stop offset="1" stop-color="#FFFFFF" />
    </linearGradient>
    <linearGradient x1="0.5" y1="0.098009415" x2="0.244846344" y2="0.5" id="gradient_3">
      <stop offset="0" stop-color="#FAD0C4" />
      <stop offset="1" stop-color="#EFC7F9" />
    </linearGradient>
    <linearGradient x1="0.6542785" y1="0.5" x2="0.7268388" y2="0.9763476" id="gradient_4">
      <stop offset="0" stop-color="#FFFFFF" stop-opacity="0" />
      <stop offset="0.961434245" stop-color="#FFFFFF" stop-opacity="0.854901969" />
      <stop offset="1" stop-color="#FFFFFF" />
    </linearGradient>
    <linearGradient x1="0.57711947" y1="0.533862352" x2="0.655307949" y2="1.18980241" id="gradient_5">
      <stop offset="0" stop-color="#FAD0C4" />
      <stop offset="1" stop-color="#FFD1FF" />
    </linearGradient>
    <linearGradient x1="0.114605881" y1="0.5777697" x2="0.677217" y2="0.7698275" id="gradient_6">
      <stop offset="0" stop-color="#FAD0C4" />
      <stop offset="1" stop-color="#FFD1FF" />
    </linearGradient>
    <linearGradient x1="0.183273852" y1="0.416435659" x2="0.293676645" y2="0.7125791" id="gradient_7">
      <stop offset="0" stop-color="#FAD0C4" />
      <stop offset="1" stop-color="#FFD1FF" />
    </linearGradient>
    <linearGradient x1="0.5" y1="0.098009415" x2="0.352678567" y2="0.7673427" id="gradient_8">
      <stop offset="0" stop-color="#FAD0C4" />
      <stop offset="1" stop-color="#FFD1FF" />
    </linearGradient>
    <linearGradient x1="0" y1="0.1612675" x2="1" y2="0.9124798" id="gradient_9">
      <stop offset="0" stop-color="#FFC8BA" />
      <stop offset="1" stop-color="#FFD1FF" />
    </linearGradient>
    <linearGradient x1="0.302055031" y1="0" x2="0.8621773" y2="0.19140625" id="gradient_10">
      <stop offset="0" stop-color="#FFC8BA" />
      <stop offset="1" stop-color="#FFD1FF" />
    </linearGradient>
    <linearGradient x1="0.655468762" y1="0" x2="-1.70747769" y2="0.5" id="gradient_11">
      <stop offset="0" stop-color="#FFC8BA" />
      <stop offset="1" stop-color="#FFD1FF" />
    </linearGradient>
    <linearGradient x1="0" y1="0.4120433" x2="0.20287329" y2="0.8670063" id="gradient_12">
      <stop offset="0" stop-color="#8AB5FF" />
      <stop offset="1" stop-color="#CCE3FF" />
    </linearGradient>
    <linearGradient x1="-1.58159018" y1="-0.309751153" x2="-1.70747769" y2="0.5" id="gradient_13">
      <stop offset="0" stop-color="#FFC8BA" />
      <stop offset="1" stop-color="#FFD1FF" />
    </linearGradient>
    <linearGradient x1="0.5" y1="1" x2="0.5" y2="-2.48949816E-17" id="gradient_14">
      <stop offset="0" stop-color="#FDDF9F" />
      <stop offset="1" stop-color="#FF1249" />
    </linearGradient>
    <linearGradient x1="0.719639" y1="0.2610934" x2="0.8492187" y2="0.0193157326" id="gradient_15">
      <stop offset="0" stop-color="#FFFFFF" stop-opacity="0" />
      <stop offset="1" stop-color="#FFFFFF" stop-opacity="0.3372549" />
    </linearGradient>
    <linearGradient x1="0.2309543" y1="0.5" x2="-0.106123343" y2="0.263591081" id="gradient_16">
      <stop offset="0" stop-color="#FFFFFF" stop-opacity="0" />
      <stop offset="1" stop-color="#FFFFFF" />
    </linearGradient>
    <linearGradient x1="0.5" y1="1" x2="0.5" y2="-2.48949816E-17" id="gradient_17">
      <stop offset="0" stop-color="#FDDF9F" />
      <stop offset="1" stop-color="#D2FCFD" />
    </linearGradient>
    <linearGradient x1="0.5729391" y1="0.7203526" x2="0.4271619" y2="1" id="gradient_18">
      <stop offset="0" stop-color="#DADADA" stop-opacity="0" />
      <stop offset="1" stop-color="#004CC0" />
    </linearGradient>
    <linearGradient x1="0.35140413" y1="0" x2="0.7136824" y2="0.5725337" id="gradient_19">
      <stop offset="0" stop-color="#FCE6CE" />
      <stop offset="1" stop-color="#FAC99D" />
    </linearGradient>
    <linearGradient x1="0.5" y1="0.6464078" x2="1.69283152" y2="1.16191792" id="gradient_20">
      <stop offset="0" stop-color="#FFFFFF" stop-opacity="0" />
      <stop offset="1" stop-color="#FFFFFF" />
    </linearGradient>
    <linearGradient x1="0.270353615" y1="0.342156649" x2="0.7136824" y2="0.5725337" id="gradient_21">
      <stop offset="0" stop-color="#FCE6CE" />
      <stop offset="1" stop-color="#FAC99D" />
    </linearGradient>
    <linearGradient x1="-5.526693" y1="0.5" x2="2.279948" y2="0.5" id="gradient_22">
      <stop offset="0" stop-color="#FAD961" />
      <stop offset="1" stop-color="#9E0902" />
    </linearGradient>
    <linearGradient x1="1" y1="0.844555438" x2="0" y2="0.5" id="gradient_23">
      <stop offset="0" stop-color="#FCE6CE" />
      <stop offset="1" stop-color="#FAC99D" />
    </linearGradient>
    <linearGradient x1="0.131349415" y1="0.5" x2="-0.0428464" y2="0.5" id="gradient_24">
      <stop offset="0" stop-color="#FFFFFF" stop-opacity="0" />
      <stop offset="1" stop-color="#FFFFFF" />
    </linearGradient>
    <linearGradient x1="0.5" y1="1" x2="0.9195382" y2="0.465308577" id="gradient_25">
      <stop offset="0" stop-color="#FDDF9F" />
      <stop offset="1" stop-color="#D2FCFD" />
    </linearGradient>
    <linearGradient x1="-0.93508184" y1="0" x2="1.45535719" y2="1" id="gradient_26">
      <stop offset="0" stop-color="#FAD961" />
      <stop offset="1" stop-color="#F76B1C" />
    </linearGradient>
    <linearGradient x1="0.5" y1="1" x2="0.5" y2="3.061617E-17" id="gradient_27">
      <stop offset="0" stop-color="#FCF8F8" stop-opacity="0" />
      <stop offset="1" stop-color="#FFFFFF" />
    </linearGradient>
    <linearGradient x1="1" y1="0.5" x2="0" y2="0.5" id="gradient_28">
      <stop offset="0" stop-color="#F5515F" />
      <stop offset="1" stop-color="#9F041B" />
    </linearGradient>
    <linearGradient x1="0.5" y1="0" x2="0.5" y2="1" id="gradient_29">
      <stop offset="0" stop-color="#FAD961" />
      <stop offset="1" stop-color="#F76B1C" />
    </linearGradient>
    <linearGradient x1="-1.110223E-16" y1="0.5" x2="1" y2="0.5" id="gradient_30">
      <stop offset="0" stop-color="#F5515F" />
      <stop offset="1" stop-color="#9F041B" />
    </linearGradient>
    <linearGradient x1="0.5769606" y1="0.6008113" x2="0.5769606" y2="-0.07804988" id="gradient_31">
      <stop offset="0" stop-color="#FFFFFF" stop-opacity="0" />
      <stop offset="1" stop-color="#FFFFFF" stop-opacity="0.7294118" />
    </linearGradient>
    <radialGradient gradientUnits="objectBoundingBox" cx="100%" cy="50%" fx="100%" fy="50%" r="122.7645%" gradientTransform="translate(1,0.5),scale(1,0.9999998),rotate(-144.5446),scale(1,0),translate(-1,-0.5)" id="gradient_32">
      <stop offset="0%" stop-color="#2A2114" />
      <stop offset="100%" stop-color="#120E08" />
    </radialGradient>
    <linearGradient x1="0.5769606" y1="1.19894624" x2="0.5769606" y2="-0.07804988" id="gradient_33">
      <stop offset="0" stop-color="#FFFFFF" stop-opacity="0" />
      <stop offset="1" stop-color="#FFFFFF" stop-opacity="0.7294118" />
    </linearGradient>
    <radialGradient gradientUnits="objectBoundingBox" cx="100%" cy="50%" fx="100%" fy="50%" r="122.7645%" gradientTransform="translate(1,0.5),rotate(-144.5446),scale(1,0),translate(-1,-0.5)" id="gradient_34">
      <stop offset="0%" stop-color="#2A2114" />
      <stop offset="100%" stop-color="#120E08" />
    </radialGradient>
    <radialGradient gradientUnits="objectBoundingBox" cx="100%" cy="50%" fx="100%" fy="50%" r="823.0863%" gradientTransform="translate(1,0.5),scale(0.1219512,1),rotate(-175.0367),scale(1,0),translate(-1,-0.5)" id="gradient_35">
      <stop offset="0%" stop-color="#2A2114" />
      <stop offset="100%" stop-color="#120E08" />
    </radialGradient>
    <linearGradient x1="-1.02410448" y1="-0.07804988" x2="0.716749251" y2="-0.07804988" id="gradient_36">
      <stop offset="0" stop-color="#FFFFFF" stop-opacity="0" />
      <stop offset="1" stop-color="#FFFFFF" stop-opacity="0.7294118" />
    </linearGradient>
    <path d="M211.656 404.505C117.989 357.998 2.05355 437.108 12.633 316.986C23.2124 196.865 -20.486 182.258 12.633 107.838C45.752 33.4182 137.521 -28.6805 237.946 13.8911C338.372 56.4627 288.958 150.183 366.656 169.505C444.354 188.826 519.714 143.028 530.656 253.605C541.598 364.183 468.156 422.647 399.656 422.647C331.156 422.647 305.323 451.011 211.656 404.505Z" transform="translate(44.15266 46.4954)" id="path_1" />
    <path d="M25 50C38.8071 50 50 38.8071 50 25C50 11.1929 38.8071 0 25 0C11.1929 0 0 11.1929 0 25C0 38.8071 11.1929 50 25 50Z" transform="translate(304 75)" id="path_2" />
    <path d="M49.4267 14.4862C48.6572 14.4862 47.8892 14.5611 47.135 14.7104C46.5663 11.933 44.7277 9.56379 42.1462 8.28139C39.5652 6.999 36.5255 6.94521 33.8983 8.13511C31.5208 1.72666 24.2844 -1.58212 17.7354 0.744384C11.1864 3.07089 7.80506 10.1524 10.1826 16.5604C4.4458 16.7378 2.06676e-19 27 2.06676e-19 27L61 25.8111C61 25.8111 55.818 14.4862 49.4267 14.4862Z" id="path_3" />
    <path d="M70.4939 20.9246C69.3963 20.9246 68.3009 21.0328 67.2253 21.2484C66.4143 17.2366 63.7919 13.8144 60.1102 11.962C56.4291 10.1097 52.0938 10.032 48.3468 11.7507C44.9559 2.49407 34.6351 -2.28528 25.2948 1.07522C15.9544 4.43573 11.1318 14.6646 14.5227 23.9206C6.34073 24.1769 2.94767e-19 39 2.94767e-19 39L87 37.2827C87 37.2827 79.6093 20.9246 70.4939 20.9246Z" id="path_4" />
    <path d="M82.1249 28.4675C82.1249 28.4675 85.8778 32.9714 88.7958 30.7194C91.7137 28.4675 90.8563 22.614 97.5946 22.614C104.333 22.614 99.6063 12.1628 106.516 16.6208C113.427 21.0788 113.186 26.2155 113.186 28.4675C113.186 30.7194 119.021 25.7126 117.612 16.6208C116.203 7.529 105.981 -2.76104 99.9783 0.679393C93.9754 4.11982 89.7206 -1.51006 82.1249 6.31514C74.5292 14.1403 67.5819 23.1185 76.3895 36.0788C64.5819 45.7302 60.2835 41.4208 54.9706 49.4208C49.6576 57.4208 18.7987 55.8876 13.8846 70.8122C12.1691 76.0224 6.81341 81.9238 0.97057 85.5013C-4.87227 89.0788 24.4589 103.079 24.4589 103.079C24.4589 103.079 44.5285 120.537 61.3979 103.079C78.2674 85.6205 84.6698 71.8454 84.6698 71.8454L88.7958 51.4753L80.6717 37.322C80.6717 37.322 76.3895 32.9714 76.3895 30.7194C76.3895 28.4675 80.6717 26.6755 80.6717 26.6755L82.1249 28.4675Z" transform="translate(0.0294296 0.9211933)" id="path_5" />
    <path d="M79.1828 33.2834C79.1828 33.2834 82.9358 37.7873 85.8537 35.5353C88.7717 33.2834 87.9143 27.4299 94.6526 27.4299C101.391 27.4299 93.8831 20.5444 100.793 25.0024C107.703 29.4604 110.244 31.0314 110.244 33.2834C110.244 35.5353 116.079 30.5285 114.67 21.4367C113.261 12.3449 99.0391 -2.94514 93.0363 0.49529C87.0334 3.93572 75.2113 -0.61095 67.6155 7.21424C60.0198 15.0394 74.3236 24.7759 58.8119 34.8159C43.3002 44.8559 51.7815 46.2052 45.8518 51.3381C39.9221 56.4709 16.9348 49.8647 5.79324 71.8159C-5.34836 93.7671 1.96313 96.1488 7.94262 105.639C13.9221 115.129 -5.86402 125.232 7.94262 129.76C21.7493 134.288 22.5598 137.895 22.5598 137.895L81.7278 76.6613L85.8537 56.2912L77.7297 42.1379C77.7297 42.1379 73.4475 37.7873 73.4475 35.5353C73.4475 33.2834 77.7297 31.4914 77.7297 31.4914L79.1828 33.2834Z" transform="translate(14.20676 6.184103)" id="path_6" />
    <path d="M6.62069 0.837962C6.62069 0.837962 -2.52259 22.9333 0.961148 34.0196C4.44489 45.1058 30.3919 49.9251 30.3919 49.9251C30.3919 49.9251 59.9085 48.6467 72.1411 48.6467C84.3736 48.6467 82.9394 46.1272 85.9933 50.0849C87.5377 52.0862 102.462 49.004 104.198 50.0849C105.935 51.1657 111.419 51.6853 107.777 49.352C105.025 47.5891 100.16 43.8064 95.5675 41.8246C93.1585 40.7851 90.3756 39.1884 88.0705 39.1884C81.3708 39.1884 80.2049 39.8748 76.0849 39.8748C71.9649 39.8748 23.8112 28.8562 23.8112 23.5577C23.8112 18.8284 31.019 4.38098 29.9548 0.152057C29.8267 -0.356957 6.62069 0.837962 6.62069 0.837962Z" transform="matrix(0.7880108 0.6156615 -0.6156615 0.7880108 123.2528 139.8522)" id="path_7" />
    <path d="M28.4179 0.21073C28.4179 0.21073 17.7931 -1.79347 5.59553 15.2637C-6.60206 32.3209 7.78965 63.5287 7.78965 63.5287C7.78965 63.5287 20.6711 84.5297 20.6711 90.3996C20.6711 96.2694 23.0843 131.748 17.7931 145.409C12.502 159.071 37.8929 195 58.6862 195C79.4795 195 99.4611 192.434 99.4611 192.434C99.4611 192.434 116 186.964 116 186.964L99.4611 127.077C99.4611 127.077 84.3711 84.2626 84.3711 72.0028C84.3711 59.743 90.209 41.3437 83.7272 31.9513C77.2455 22.559 60.1896 2.76241 60.1896 2.76241C60.1896 2.76241 54.1993 0.21073 52.4536 0.21073C50.7078 0.21073 28.4179 0.21073 28.4179 0.21073Z" transform="translate(55 63)" id="path_8" />
    <path d="M0 1.47588C0 1.47588 1.30364 25.5898 1.30364 27.1772C1.30364 28.7647 17.4759 43.7001 17.4759 43.7001L39 64.4263C39 64.4263 43.6425 48.3179 37 38.4038C30.3575 28.4896 30.3575 28.3261 27.5363 26.2379C24.715 24.1498 23.0938 21.1116 23.9044 16.7966C24.715 12.4815 27.5363 0 27.5363 0L0 1.47588Z" transform="translate(83 38)" id="path_9" />
    <path d="M12.4304 15.1407C9.50578 17.3831 5.74426 12.8983 5.74426 12.8983L4.28782 11.1139C4.28782 11.1139 2.53304 11.8435 1.26754 12.9558C0.758332 13.6519 0.308638 14.4557 0.00105748 15.2802C0.168726 17.5577 4.28782 21.7152 4.28782 21.7152L5.66979 24.1072C5.84538 24.2191 5.9459 24.2805 5.9459 24.2805C5.9459 24.2805 6.06032 24.6229 6.2999 25.1978L9.63361 30.9678C11.8239 33.8136 15.0677 36.649 19.5688 37.3858C29.3469 38.9864 35.5006 37.166 36.8347 35.2737C38.1688 33.3813 38.5936 16.5517 36.8347 9.37622C36.6694 8.7019 36.5048 8.05101 36.3391 7.42337C35.2886 5.41129 33.4376 3.18238 30.1916 1.10191C26.5767 -1.21503 26.1391 0.512384 25.5866 2.69351C25.0805 4.69126 24.478 7.06964 21.2494 7.06964C14.4957 7.06964 15.355 12.8983 12.4304 15.1407Z" transform="translate(76 16)" id="path_10" />
    <path d="M9.46926 5.30896C9.46926 5.30896 -3.60794 37.174 1.37468 53.1622C6.35731 69.1503 43.4681 76.1005 43.4681 76.1005C43.4681 76.1005 83.4799 73.3385 97.6119 71.6613C111.744 69.9841 120.301 68.1244 124.669 73.832C126.878 76.7182 139.649 68.8825 142.132 70.4413C144.616 72.0001 152.46 72.7494 147.25 69.3844C143.314 66.842 143.254 67.2764 136.686 64.4183C133.24 62.9191 129.26 60.6165 125.963 60.6165C116.381 60.6165 114.713 61.6064 108.821 61.6064C102.928 61.6064 34.056 45.7157 34.056 38.0745C34.056 31.2541 46.9928 4.38515 37.1021 0.536208C31.3884 -1.68722 9.46926 5.30896 9.46926 5.30896Z" transform="matrix(0.9998477 0.01745241 -0.01745241 0.9998477 50.0237 117.8164)" id="path_11" />
    <path d="M104 52.0013C104 80.7217 80.7226 104 52.0007 104C23.2787 104 0 80.7217 0 52.0013C0 23.2822 23.2787 0 52.0007 0C80.7226 0 104 23.2822 104 52.0013" transform="translate(78.19154 89)" id="path_12" />
    <path d="M43 21.502C43 33.3768 33.378 43 21.5007 43C9.62732 43 0 33.3768 0 21.502C0 9.62453 9.62732 0 21.5007 0C33.378 0 43 9.62453 43 21.502" transform="translate(109.1915 119)" id="path_13" />
    <path d="M104 52.0013C104 80.7217 80.7298 104 52.0066 104C23.2834 104 0 80.7217 0 52.0013C0 23.2822 23.2834 0 52.0066 0C80.7298 0 104 23.2822 104 52.0013" transform="translate(427.1915 89)" id="path_14" />
    <path d="M43 21.502C43 33.3768 33.3783 43 21.5066 43C9.62173 43 0 33.3768 0 21.502C0 9.62453 9.62173 0 21.5066 0C33.3783 0 43 9.62453 43 21.502" transform="translate(458.1915 119)" id="path_15" />
    <path d="M2.5 5L38.5 5Q38.6281 5 38.7543 4.98835Q38.8805 4.9767 39.0036 4.95349Q39.1267 4.93028 39.2459 4.89571Q39.365 4.86113 39.4792 4.81547Q39.5933 4.76981 39.7016 4.71344Q39.8098 4.65706 39.9112 4.59044Q40.0127 4.52381 40.1065 4.44747Q40.2003 4.37114 40.2857 4.28571Q40.3711 4.20029 40.4475 4.10648Q40.5238 4.01266 40.5904 3.91123Q40.6571 3.80979 40.7134 3.70155Q40.7698 3.59332 40.8155 3.47916Q40.8611 3.36501 40.8957 3.24588Q40.9303 3.12674 40.9535 3.00359Q40.9767 2.88045 40.9884 2.75429Q41 2.62813 41 2.5L41 2.5Q41 2.37187 40.9884 2.24571Q40.9767 2.11955 40.9535 1.99641Q40.9303 1.87326 40.8957 1.75412Q40.8611 1.63499 40.8155 1.52084Q40.7698 1.40669 40.7134 1.29845Q40.6571 1.19021 40.5904 1.08877Q40.5238 0.987336 40.4475 0.893522Q40.3711 0.799709 40.2857 0.714286Q40.2003 0.628863 40.1065 0.552527Q40.0127 0.476191 39.9112 0.409564Q39.8098 0.342938 39.7016 0.286564Q39.5933 0.230191 39.4792 0.18453Q39.365 0.13887 39.2459 0.104295Q39.1267 0.0697193 39.0036 0.0465112Q38.8805 0.0233031 38.7543 0.0116516Q38.6281 0 38.5 0L2.5 0Q2.37187 0 2.24571 0.0116516Q2.11955 0.0233031 1.99641 0.0465112Q1.87326 0.0697193 1.75412 0.104295Q1.63499 0.13887 1.52084 0.18453Q1.40669 0.230191 1.29845 0.286564Q1.19021 0.342938 1.08877 0.409564Q0.987336 0.476191 0.893522 0.552527Q0.799709 0.628863 0.714286 0.714286Q0.628863 0.799709 0.552527 0.893522Q0.476191 0.987336 0.409564 1.08877Q0.342938 1.19021 0.286564 1.29845Q0.230191 1.40669 0.18453 1.52084Q0.13887 1.63499 0.104295 1.75412Q0.0697193 1.87326 0.0465112 1.99641Q0.0233031 2.11955 0.0116516 2.24571Q0 2.37187 0 2.5L0 2.5Q0 2.62813 0.0116516 2.75429Q0.0233031 2.88045 0.0465112 3.00359Q0.0697193 3.12674 0.104295 3.24588Q0.13887 3.36501 0.18453 3.47916Q0.230191 3.59332 0.286564 3.70155Q0.342938 3.80979 0.409564 3.91123Q0.476191 4.01266 0.552527 4.10648Q0.628863 4.20029 0.714286 4.28571Q0.799709 4.37114 0.893522 4.44747Q0.987336 4.52381 1.08877 4.59044Q1.19021 4.65706 1.29845 4.71344Q1.40669 4.76981 1.52084 4.81547Q1.63499 4.86113 1.75412 4.89571Q1.87326 4.93028 1.99641 4.95349Q2.11955 4.9767 2.24571 4.98835Q2.37187 5 2.5 5Z" transform="translate(378.1915 90)" id="path_16" />
    <clipPath id="mask_1">
      <use xlink:href="#path_1" />
    </clipPath>
    <clipPath id="mask_2">
      <use xlink:href="#path_5" />
    </clipPath>
  </defs>
  <g id="Group-9" transform="translate(0.5 0.5)">
    <g id="bg_analytics" transform="translate(0.1915361 0)">
      <path d="M261.687 471.559C216.174 458.327 13.0359 481.052 25.3257 346.204C37.6154 211.356 -25.9438 178.778 12.5293 95.2346C51.0024 11.691 195.975 -27.005 312.635 20.7858C429.296 68.5766 351.163 139.499 441.421 161.189C531.68 182.88 613.291 163.601 626.002 287.735C638.713 411.869 527.268 500.922 447.695 500.922C368.121 500.922 307.199 484.791 261.687 471.559Z" transform="matrix(0.9998477 0.01745241 -0.01745241 0.9998477 9.604596 0.6463938)" id="Path-7" fill="#FFEBEB" stroke="none" />
      <g id="Path-7">
        <use stroke="none" fill="url(#gradient_1)" fill-opacity="0.8210798" xlink:href="#path_1" />
        <use stroke="none" fill="url(#gradient_2)" fill-opacity="0.8210798" xlink:href="#path_1" />
      </g>
      <g clip-path="url(#mask_1)">
        <g id="bg-pic2" transform="matrix(-1 0 0 1 684 152)" opacity="0.8210798">
          <g id="Oval">
            <use stroke="none" fill="url(#gradient_3)" xlink:href="#path_2" />
            <use stroke="none" fill="url(#gradient_4)" fill-opacity="0.6" xlink:href="#path_2" />
          </g>
          <path d="M22.2969 122.316C22.2969 114.606 89.1953 93.1289 119.195 69.9534C149.195 46.7778 170.195 -35.286 232.195 17.2481C294.195 69.7822 234.614 131.655 310.195 143.189C385.777 154.723 415.195 65.6056 487.652 62.1515C560.109 58.6974 559.195 91.2356 559.195 104.324C559.195 117.412 504.919 169.883 503.387 170.151C417.796 185.171 582.081 244.994 549.387 261.189C524.245 273.644 300.556 250.798 259.387 272.305C243.22 280.751 19.9336 236.846 12.1953 228.405C4.45703 219.963 3.28637e-16 155.196 0 152.437C0 149.677 22.2969 130.027 22.2969 122.316Z" transform="matrix(-1 0 0 1 726.0003 67.39441)" id="Path-4" fill="url(#gradient_5)" stroke="none" />
          <path d="M22.3441 229.733C22.3441 229.733 -25.6247 132.443 29.387 123.403C84.3987 114.363 87.0276 145.488 120.301 82.6894C153.575 19.8909 380.954 -4.82554 380.954 0.768259C380.954 6.36206 282.084 81.8531 282.084 89.5689C282.084 97.2847 79.4605 259.809 74.1675 260.89C68.8745 261.971 22.3441 229.733 22.3441 229.733Z" transform="matrix(-0.6156615 -0.7880107 -0.7880107 0.6156615 513.1171 300.2085)" id="Path-26" fill="url(#gradient_6)" stroke="none" />
          <path d="M15.1546 188.724C15.1546 188.724 -18.3411 41.9312 22.1976 82.3935C62.7362 122.856 81.4356 68.4625 113.112 41.6802C144.788 14.8979 173.103 20.49 174.306 18.819C212.928 -34.8366 292.005 42.7389 292.005 48.1637C292.005 53.7575 193.135 129.249 193.135 136.964C193.135 144.68 72.271 218.799 66.9781 219.881C61.6851 220.962 15.1546 188.724 15.1546 188.724Z" transform="matrix(0.6156615 0.7880107 -0.7880107 0.6156615 173.3316 54)" id="Path-26" fill="url(#gradient_7)" stroke="none" />
          <g id="cloud" transform="translate(591 53)">
            <g id="Path">
              <use stroke="none" fill="url(#gradient_8)" xlink:href="#path_3" />
              <use stroke="none" fill="url(#gradient_4)" fill-opacity="0.6" xlink:href="#path_3" />
            </g>
          </g>
        </g>
      </g>
    </g>
    <g id="Group-43" transform="matrix(-1 0 0 1 620 233)">
      <path d="M32.9444 0C32.9444 0 36.2221 25.4118 36.9403 43.4433C38.3145 77.933 15.5997 85.1147 5.90155 91C-7.03329 65.8198 3.52075 43.0338 16.2155 25.3921C28.9085 7.75131 31.4996 6.53584 32.9444 0" transform="translate(99 16)" id="Fill-317" fill="url(#gradient_9)" stroke="none" />
      <path d="M30.8139 43.4433C29.4987 25.3902 26.847 0 26.847 0C26.8876 13.6564 18.3884 58.5844 2.70714 86.1946C1.92945 87.5692 0.699183 89.6066 0 91C10.6244 85.8453 33.2791 77.2354 30.8139 43.4433" transform="translate(105 16)" id="Fill-318" fill="url(#gradient_10)" stroke="none" />
      <path d="M76 0.153317C76 0.153317 47.0803 -1.34067 30.1953 4.99863C-2.09994 17.1213 -3.11475 47.2436 2.81328 60.8169C31.07 63.1216 34.848 43.2524 46.1153 24.5252C57.3817 5.798 68.9659 2.42591 76 0.153317" transform="translate(110 98)" id="Fill-321" fill="url(#gradient_11)" stroke="none" />
      <path d="M33.7634 26.7314L33.7784 26.7541C44.8005 43.5908 51.0279 60.4974 77.1762 56.3714C82.0674 42.3836 78.844 12.3932 45.864 2.69585C30.6347 -1.78443 6.53754 0.534586 1.11786 1.13536L0.97262 1.15236C0.352317 1.22132 0 1.26571 0 1.26571C7.15691 3.01324 18.9145 5.51551 31.4855 23.3696C31.8791 23.9269 32.2623 24.4861 32.6418 25.0444L32.7758 25.2465C33.1094 25.7415 33.4392 26.2365 33.7634 26.7314" transform="translate(0 75)" id="Fill-323" fill="url(#gradient_9)" stroke="none" />
      <path d="M19.812 77L16.4185 76.8015C16.4479 76.3051 19.1599 26.9963 0 2.03046L2.71099 0C22.633 25.9604 19.9371 74.9283 19.812 77" transform="translate(79 86)" id="Fill-324" fill="url(#gradient_12)" stroke="none" />
      <path d="M0 0C0 0 22.6543 23.528 37.2927 41.5392C65.2919 75.9913 50.5603 101.99 46.4583 116C15.3497 100.612 7.09858 68.4694 4.75403 39.883C2.40947 11.2966 3.78121 7.92366 0 0" transform="translate(47 0)" id="Fill-325" fill="url(#gradient_9)" stroke="none" />
      <path d="M37.5069 41.5392C22.2195 24.0035 0 0 0 0C10.6981 14.0522 38.0727 67.4021 45.4278 108.811C45.7949 110.872 46.2718 113.985 46.7251 116C52.3249 101.921 66.1163 74.3625 37.5069 41.5392" transform="translate(47 0)" id="Fill-326" fill="url(#gradient_11)" stroke="none" />
      <path d="M64 0C64 0 59.4533 32.3784 54.3085 55.024C44.4681 98.3428 14.9668 102.645 1.43407 108C-5.62099 73.9296 14.5618 47.6621 35.5838 28.2513C56.6058 8.84334 60.0995 7.85666 64 0" transform="translate(102 44)" id="Fill-330" fill="url(#gradient_11)" stroke="none" />
      <path d="M52.3961 55.024C56.7822 32.2264 62 0 62 0C57.5448 17.0475 32.5985 71.351 4.81174 102.565C3.42935 104.119 1.29371 106.407 0 108C14.3587 103.763 44.184 97.696 52.3961 55.024" transform="translate(105 44)" id="Fill-331" fill="url(#gradient_13)" stroke="none" />
      <path d="M0 0C0 0 2.22641 25.5401 5.38799 43.3123C11.4338 77.308 35.3152 79.368 46.1155 83C53.4376 55.5798 38.1685 35.6205 21.8996 21.1555C5.63068 6.69139 2.8233 6.06878 0 0" transform="translate(49 74)" id="Fill-332" fill="url(#gradient_11)" stroke="none" />
      <path d="M5.37449 43.3123C2.81343 25.3866 0 0 0 0C2.88072 13.3508 20.8932 55.3745 42.2958 78.9036C43.3595 80.0744 45.0111 81.7943 46 83C34.3977 80.3014 10.1676 76.8662 5.37449 43.3123" transform="translate(49 74)" id="Fill-333" fill="url(#gradient_10)" stroke="none" />
      <path d="M67 0C67 0 38.2203 4.00383 22.7847 13.3758C-6.7416 31.3011 -2.03495 60.8788 6.37605 73C34.6546 69.9123 34.616 49.8153 42.1691 29.4202C49.7231 9.02408 60.4992 3.54719 67 0" transform="translate(88 95)" id="Fill-334" fill="url(#gradient_11)" stroke="none" />
    </g>
    <g id="cloud" transform="matrix(-1 0 0 1 332 136)">
      <g id="Path">
        <use stroke="none" fill="url(#gradient_8)" xlink:href="#path_4" />
        <use stroke="none" fill="url(#gradient_4)" fill-opacity="0.6" xlink:href="#path_4" />
      </g>
    </g>
    <g id="Group-7" transform="translate(105 155)">
      <g id="women">
        <g id="hair">
          <g id="волосы">
            <use stroke="none" fill="url(#gradient_14)" xlink:href="#path_5" />
            <use stroke="none" fill="url(#gradient_15)" xlink:href="#path_5" />
          </g>
          <g clip-path="url(#mask_2)">
            <g id="волосы">
              <use stroke="none" fill="url(#gradient_14)" xlink:href="#path_6" />
              <use stroke="none" fill="url(#gradient_15)" xlink:href="#path_6" />
            </g>
          </g>
        </g>
        <g id="Path-2">
          <use stroke="none" fill="#F8C99F" xlink:href="#path_7" />
          <use stroke="none" fill="url(#gradient_16)" xlink:href="#path_7" />
        </g>
        <g id="Path-3">
          <use stroke="none" fill="url(#gradient_17)" xlink:href="#path_8" />
          <use stroke="none" fill="url(#gradient_18)" xlink:href="#path_8" />
        </g>
        <g id="шея">
          <use stroke="none" fill="url(#gradient_19)" xlink:href="#path_9" />
          <use stroke="none" fill="url(#gradient_20)" xlink:href="#path_9" />
        </g>
        <g id="Combined-Shape">
          <use stroke="none" fill="url(#gradient_21)" xlink:href="#path_10" fill-rule="evenodd" />
          <use stroke="none" fill="url(#gradient_20)" xlink:href="#path_10" fill-rule="evenodd" />
        </g>
        <g id="face" transform="translate(92 23)">
          <path d="M0 0C0.599389 0.692837 1.30323 1.30579 2.10509 1.76171C2.91178 2.20799 3.82774 2.48485 4.7678 2.45455C5.71429 2.44904 6.62221 2.15289 7.50281 1.80028C7.92865 1.59642 8.35128 1.37741 8.77069 1.15152C9.17725 0.904959 9.57255 0.644628 10 0.406336C9.67218 0.73416 9.31223 1.03994 8.96352 1.36088C8.57143 1.63774 8.16487 1.90634 7.74546 2.16253C6.86003 2.61846 5.8573 2.95179 4.77744 3C3.70079 2.98898 2.63538 2.66529 1.81906 2.10055C1.00916 1.5303 0.376024 0.80854 0 0" transform="matrix(-0.9848077 -0.1736482 -0.1736482 0.9848077 18.12759 21.24376)" id="Fill-146" fill="url(#gradient_22)" stroke="none" />
          <path d="M0 0C0.419573 0.461892 0.912261 0.870524 1.47357 1.17447C2.03825 1.47199 2.67942 1.65657 3.33746 1.63636C4 1.63269 4.63555 1.43526 5.25197 1.20018C5.55006 1.06428 5.84589 0.918274 6.13948 0.767677C6.42407 0.603306 6.70079 0.429752 7 0.270891C6.77053 0.48944 6.51856 0.693297 6.27447 0.907254C6 1.09183 5.71541 1.27089 5.42182 1.44169C4.80202 1.74564 4.10011 1.96786 3.34421 2C2.59055 1.99265 1.84477 1.77686 1.27334 1.40037C0.706412 1.0202 0.263217 0.539027 0 0" transform="matrix(-0.9659258 0.258819 -0.258819 -0.9659258 8.263158 4.783976)" id="Fill-146" fill="#2C2B3C" stroke="none" />
          <path d="M0 0C0.419573 0.461892 0.912261 0.870523 1.47357 1.17447C2.03824 1.47199 2.67941 1.65657 3.33746 1.63636C4 1.63269 4.63554 1.43526 5.25197 1.20018C5.55006 1.06428 5.84589 0.918274 6.13948 0.767677C6.42407 0.603306 6.70079 0.429752 7 0.270891C6.77053 0.48944 6.51856 0.693297 6.27446 0.907254C6 1.09183 5.71541 1.27089 5.42182 1.44169C4.80202 1.74564 4.10011 1.96786 3.34421 2C2.59055 1.99265 1.84477 1.77686 1.27334 1.40037C0.706412 1.0202 0.263217 0.539027 0 0" transform="matrix(0.9659258 -0.258819 -0.258819 -0.9659258 13.50168 4.595709)" id="Fill-146" fill="#2C2B3C" stroke="none" />
          <path d="M0 0C0.424349 0.624969 0.808135 1.25342 1.19504 1.86968C1.58351 2.4755 1.97821 3.09177 2.43376 3.55658C2.57885 3.70803 2.6085 3.68714 2.86435 3.90649C3.15297 4.32604 2.9018 4.61154 2.83315 4.76996C2.61162 5.12683 2.3542 5.38796 2.09366 5.64909C1.56323 6.15742 0.995347 6.5996 0.404067 7C0.901741 6.46556 1.39473 5.93111 1.85185 5.37404C2.07806 5.09898 2.30428 4.80652 2.44781 4.51231L2.52425 4.31908L2.09522 4.04054C1.47742 3.54265 1.08271 2.8672 0.73793 2.18826C0.402507 1.50062 0.14197 0.771201 0 0" transform="translate(13 11)" id="Fill-147" fill="#2C2B3C" stroke="none" />
          <path d="M1 3C1.55228 3 2 2.32843 2 1.5C2 0.671573 1.55228 0 1 0C0.447715 0 0 0.671573 0 1.5C0 2.32843 0.447715 3 1 3Z" transform="matrix(0.9743701 -0.224951 0.224951 0.9743701 4.688203 7.263396)" id="Oval" fill="#2C2B3C" stroke="none" />
          <path d="M1 3C1.55228 3 2 2.32843 2 1.5C2 0.671573 1.55228 0 1 0C0.447715 0 0 0.671573 0 1.5C0 2.32843 0.447715 3 1 3Z" transform="matrix(0.9743701 -0.224951 0.224951 0.9743701 14.6882 5.263396)" id="Oval" fill="#2C2B3C" stroke="none" />
        </g>
      </g>
      <g id="hand">
        <use stroke="none" fill="url(#gradient_23)" xlink:href="#path_11" />
        <use stroke="none" fill="url(#gradient_24)" xlink:href="#path_11" />
      </g>
      <path d="M47.2332 -5.40211e-13C47.2332 -5.40211e-13 31.2879 6.11305 22.7359 15.8002C14.1838 25.4873 0 68.9938 0 68.9938C0 68.9938 15.7404 70.8267 19.3855 70.8267C23.0305 70.8267 40.4046 76.0279 40.4046 76.0279C40.4046 76.0279 47.4585 58.0598 49.1067 49.1264C49.6143 46.3747 54.425 27.53 55.1136 25.8911C59.5002 15.4518 47.2332 -5.40211e-13 47.2332 -5.40211e-13Z" transform="matrix(0.9455186 -0.3255681 0.3255681 0.9455186 28.35878 81.46272)" id="ff" fill="url(#gradient_25)" stroke="none" />
    </g>
    <g id="Group" transform="matrix(-1 0 0 1 615.1915 278)">
      <path d="M21 7.49934C21 11.645 17.6811 15 13.5828 15L7.4172 15C3.31894 15 0 11.645 0 7.49934C0 3.36155 3.31894 0 7.4172 0L13.5828 0C17.6811 0 21 3.36155 21 7.49934" transform="translate(19.19154 124)" id="Fill-33" fill="url(#gradient_26)" stroke="none" />
      <path d="M53 2.43796L13.382 65L0 45.6216L47.1932 0L53 2.43796" transform="translate(289.1915 3)" id="Fill-35" fill="url(#gradient_27)" stroke="none" />
      <path d="M292.395 109L186.245 109C194.802 72.589 167.196 37.8201 130.001 37.8201C92.8096 37.8201 65.181 72.5745 73.7441 109L47.0363 109C47.0363 109 3.87764 70.7704 0.394997 60.1737C-3.08764 49.5771 24.1357 39.3206 24.1357 39.3206C77.7073 21.1403 196.773 0 292.395 0L292.395 109Z" transform="translate(0.7965391 45)" id="Fill-37" fill="url(#gradient_28)" stroke="none" />
      <path d="M37 8.50472C37 13.1976 33.3026 17 28.7105 17L8.28947 17C3.71053 17 0 13.1976 0 8.50472C0 3.80776 3.71053 0 8.28947 0L28.7105 0C33.3026 0 37 3.80776 37 8.50472" transform="translate(572.1915 108)" id="Fill-38" fill="url(#gradient_29)" stroke="none" />
      <path d="M305 86.1908L244.227 99.9725C246.801 67.115 220.665 37.9591 186.662 37.9591C166.479 37.9591 148.725 48.3019 138.402 63.9733C129.704 77.1277 126.786 93.4659 130.443 109L0 109L0 0.212753C17.292 26.4449 98.7495 43.462 168.182 4.33694C207.967 0.212753 251.329 -5.26372 305 10.8567C316 22.7134 305 86.1908 305 86.1908Z" transform="translate(293.1915 45)" id="Fill-39" fill="url(#gradient_30)" stroke="none" />
      <g id="Fill-40">
        <use stroke="none" fill="#D8D8D8" xlink:href="#path_12" />
        <use stroke="none" fill="url(#gradient_31)" xlink:href="#path_12" />
      </g>
      <path d="M62 31.0039C62 48.1207 48.1195 62 30.9974 62C13.874 62 0 48.1207 0 31.0039C0 13.8833 13.874 0 30.9974 0C48.1195 0 62 13.8833 62 31.0039" transform="translate(99.19154 109)" id="Fill-41" fill="#D4DBFC" stroke="none" />
      <g id="Fill-42">
        <use stroke="none" fill="url(#gradient_32)" xlink:href="#path_13" />
        <use stroke="none" fill="url(#gradient_33)" xlink:href="#path_13" />
      </g>
      <path d="M156 0.0854696C152.93 4.63452 150.508 9.64832 148.894 15L0 15C5.59742 13.5048 11.3669 12.1442 17.2554 10.9144C68.2144 0.340496 127.814 -0.322314 156 0.0854696" transform="translate(276.1915 109)" id="Fill-43" fill="url(#gradient_30)" stroke="none" />
      <g id="Fill-44">
        <use stroke="none" fill="#D8D8D8" xlink:href="#path_14" />
        <use stroke="none" fill="url(#gradient_31)" xlink:href="#path_14" />
      </g>
      <path d="M62 31.0039C62 48.1207 48.1147 62 31 62C13.8722 62 0 48.1207 0 31.0039C0 13.8833 13.8722 0 31 0C48.1147 0 62 13.8833 62 31.0039" transform="translate(449.1915 109)" id="Fill-45" fill="#D4DBFC" stroke="none" />
      <g id="Fill-46">
        <use stroke="none" fill="url(#gradient_34)" xlink:href="#path_15" />
        <use stroke="none" fill="url(#gradient_33)" xlink:href="#path_15" />
      </g>
      <g id="Fill-47">
        <use stroke="none" fill="url(#gradient_35)" xlink:href="#path_16" />
        <use stroke="none" fill="url(#gradient_36)" xlink:href="#path_16" />
      </g>
    </g>
    <path d="M3 6C4.65685 6 6 4.65685 6 3C6 1.34315 4.65685 0 3 0C1.34315 0 0 1.34315 0 3C0 4.65685 1.34315 6 3 6Z" transform="translate(255 111)" id="Oval" fill="#FFFFFF" fill-opacity="0.532552063" stroke="none" />
    <path d="M3 6C4.65685 6 6 4.65685 6 3C6 1.34315 4.65685 0 3 0C1.34315 0 0 1.34315 0 3C0 4.65685 1.34315 6 3 6Z" transform="translate(145 131)" id="Oval" fill="#FFFFFF" fill-opacity="0.532552063" stroke="none" />
    <path d="M3 6C4.65685 6 6 4.65685 6 3C6 1.34315 4.65685 0 3 0C1.34315 0 0 1.34315 0 3C0 4.65685 1.34315 6 3 6Z" transform="translate(95 101)" id="Oval" fill="#FFFFFF" fill-opacity="0.532552063" stroke="none" />
    <path d="M3 6C4.65685 6 6 4.65685 6 3C6 1.34315 4.65685 0 3 0C1.34315 0 0 1.34315 0 3C0 4.65685 1.34315 6 3 6Z" transform="translate(85 251)" id="Oval" fill="#FFFFFF" fill-opacity="0.532552063" stroke="none" />
    <path d="M3 6C4.65685 6 6 4.65685 6 3C6 1.34315 4.65685 0 3 0C1.34315 0 0 1.34315 0 3C0 4.65685 1.34315 6 3 6Z" transform="translate(295 201)" id="Oval" fill="#FFFFFF" fill-opacity="0.38792783" stroke="none" />
  </g>
</svg>