<?xml version="1.0" encoding="utf-8"?>
<svg width="293px" height="154px" viewBox="0 0 293 154" version="1.1" xmlns:xlink="http://www.w3.org/1999/xlink" xmlns="http://www.w3.org/2000/svg">
  <desc>Created with Lunacy</desc>
  <defs>
    <linearGradient x1="0.12347468" y1="0" x2="0.832443535" y2="0.9603516" id="gradient_1">
      <stop offset="0" stop-color="#FCAD5E" />
      <stop offset="0.291341215" stop-color="#F78B6E" />
      <stop offset="0.698628247" stop-color="#FF7F97" />
      <stop offset="1" stop-color="#FF368A" />
    </linearGradient>
    <linearGradient x1="1" y1="0.864616454" x2="0.658346832" y2="0.864616454" id="gradient_2">
      <stop offset="0" stop-color="#FFFFFF" stop-opacity="0" />
      <stop offset="1" stop-color="#FFFFFF" />
    </linearGradient>
    <linearGradient x1="0.781806" y1="0.92381376" x2="0.550334454" y2="0.786369443" id="gradient_3">
      <stop offset="0" stop-color="#FFFFFF" stop-opacity="0" />
      <stop offset="1" stop-color="#FFFFFF" />
    </linearGradient>
    <filter filterUnits="userSpaceOnUse" color-interpolation-filters="sRGB" id="filter_1">
      <feFlood flood-opacity="0" result="BackgroundImageFix" />
      <feColorMatrix in="SourceAlpha" type="matrix" values="0 0 0 0 0 0 0 0 0 0 0 0 0 0 0 0 0 0 127 0" />
      <feOffset dx="0" dy="2" />
      <feGaussianBlur stdDeviation="5" />
      <feColorMatrix type="matrix" values="0 0 0 0 0 0 0 0 0 0 0 0 0 0 0 0 0 0 0.2039216 0" />
      <feBlend mode="normal" in2="BackgroundImageFix" result="effect0_dropShadow" />
      <feBlend mode="normal" in="SourceGraphic" in2="effect0_dropShadow" result="shape" />
    </filter>
    <filter filterUnits="userSpaceOnUse" color-interpolation-filters="sRGB" id="filter_2">
      <feFlood flood-opacity="0" result="BackgroundImageFix" />
      <feColorMatrix in="SourceAlpha" type="matrix" values="0 0 0 0 0 0 0 0 0 0 0 0 0 0 0 0 0 0 127 0" />
      <feOffset dx="0" dy="2" />
      <feGaussianBlur stdDeviation="2" />
      <feColorMatrix type="matrix" values="0 0 0 0 0 0 0 0 0 0 0 0 0 0 0 0 0 0 0.5019608 0" />
      <feBlend mode="normal" in2="BackgroundImageFix" result="effect0_dropShadow" />
      <feBlend mode="normal" in="SourceGraphic" in2="effect0_dropShadow" result="shape" />
    </filter>
    <filter filterUnits="userSpaceOnUse" color-interpolation-filters="sRGB" id="filter_3">
      <feFlood flood-opacity="0" result="BackgroundImageFix" />
      <feColorMatrix in="SourceAlpha" type="matrix" values="0 0 0 0 0 0 0 0 0 0 0 0 0 0 0 0 0 0 127 0" />
      <feOffset dx="0" dy="2" />
      <feGaussianBlur stdDeviation="2" />
      <feColorMatrix type="matrix" values="0 0 0 0 0 0 0 0 0 0 0 0 0 0 0 0 0 0 0.1803922 0" />
      <feBlend mode="normal" in2="BackgroundImageFix" result="effect0_dropShadow" />
      <feBlend mode="normal" in="SourceGraphic" in2="effect0_dropShadow" result="shape" />
    </filter>
    <filter filterUnits="userSpaceOnUse" color-interpolation-filters="sRGB" id="filter_4">
      <feFlood flood-opacity="0" result="BackgroundImageFix" />
      <feColorMatrix in="SourceAlpha" type="matrix" values="0 0 0 0 0 0 0 0 0 0 0 0 0 0 0 0 0 0 127 0" />
      <feOffset dx="0" dy="2" />
      <feGaussianBlur stdDeviation="7" />
      <feColorMatrix type="matrix" values="0 0 0 0 0 0 0 0 0 0 0 0 0 0 0 0 0 0 0.01176471 0" />
      <feBlend mode="normal" in2="BackgroundImageFix" result="effect0_dropShadow" />
      <feBlend mode="normal" in="SourceGraphic" in2="effect0_dropShadow" result="shape" />
    </filter>
    <filter filterUnits="userSpaceOnUse" color-interpolation-filters="sRGB" id="filter_5">
      <feFlood flood-opacity="0" result="BackgroundImageFix" />
      <feColorMatrix in="SourceAlpha" type="matrix" values="0 0 0 0 0 0 0 0 0 0 0 0 0 0 0 0 0 0 127 0" />
      <feOffset dx="0" dy="2" />
      <feGaussianBlur stdDeviation="4.5" />
      <feColorMatrix type="matrix" values="0 0 0 0 0 0 0 0 0 0 0 0 0 0 0 0 0 0 0.1607843 0" />
      <feBlend mode="normal" in2="BackgroundImageFix" result="effect0_dropShadow" />
      <feBlend mode="normal" in="SourceGraphic" in2="effect0_dropShadow" result="shape" />
    </filter>
    <path d="M4 0L260 0Q260.205 0 260.407 0.0186425Q260.609 0.037285 260.806 0.0744179Q261.003 0.111551 261.193 0.166871Q261.384 0.222192 261.567 0.295249Q261.749 0.368306 261.923 0.458503Q262.096 0.5487 262.258 0.655303Q262.42 0.761905 262.57 0.884043Q262.72 1.00618 262.857 1.14286Q262.994 1.27953 263.116 1.42964Q263.238 1.57974 263.345 1.74204Q263.451 1.90434 263.542 2.07752Q263.632 2.2507 263.705 2.43334Q263.778 2.61598 263.833 2.8066Q263.888 2.99721 263.926 3.19425Q263.963 3.39129 263.981 3.59314Q264 3.79499 264 4L264 60Q264 60.205 263.981 60.4069Q263.963 60.6087 263.926 60.8058Q263.888 61.0028 263.833 61.1934Q263.778 61.384 263.705 61.5667Q263.632 61.7493 263.542 61.9225Q263.451 62.0957 263.345 62.258Q263.238 62.4203 263.116 62.5704Q262.994 62.7205 262.857 62.8571Q262.72 62.9938 262.57 63.116Q262.42 63.2381 262.258 63.3447Q262.096 63.4513 261.923 63.5415Q261.749 63.6317 261.567 63.7048Q261.384 63.7778 261.193 63.8331Q261.003 63.8885 260.806 63.9256Q260.609 63.9627 260.407 63.9814Q260.205 64 260 64L4 64Q3.79499 64 3.59314 63.9814Q3.39129 63.9627 3.19425 63.9256Q2.99721 63.8885 2.8066 63.8331Q2.61598 63.7778 2.43334 63.7048Q2.2507 63.6317 2.07752 63.5415Q1.90434 63.4513 1.74204 63.3447Q1.57974 63.2381 1.42964 63.116Q1.27953 62.9938 1.14286 62.8571Q1.00618 62.7205 0.884043 62.5704Q0.761905 62.4203 0.655303 62.258Q0.5487 62.0957 0.458503 61.9225Q0.368306 61.7493 0.295249 61.5667Q0.222192 61.384 0.166871 61.1934Q0.111551 61.0028 0.0744179 60.8058Q0.037285 60.6087 0.0186425 60.4069Q0 60.205 0 60L0 4Q0 3.79499 0.0186425 3.59314Q0.037285 3.39129 0.0744179 3.19425Q0.111551 2.99721 0.166871 2.8066Q0.222192 2.61598 0.295249 2.43334Q0.368306 2.2507 0.458503 2.07752Q0.5487 1.90434 0.655303 1.74204Q0.761905 1.57974 0.884043 1.42964Q1.00618 1.27953 1.14286 1.14286Q1.27953 1.00618 1.42964 0.884043Q1.57974 0.761905 1.74204 0.655303Q1.90434 0.5487 2.07752 0.458503Q2.2507 0.368306 2.43334 0.295249Q2.61598 0.222192 2.8066 0.166871Q2.99721 0.111551 3.19425 0.0744179Q3.39129 0.037285 3.59314 0.0186425Q3.79499 0 4 0Z" id="path_1" />
    <clipPath id="mask_1">
      <use xlink:href="#path_1" />
    </clipPath>
  </defs>
  <g id="play-button" transform="translate(-10 0.5)">
    <g id="bt-play-video" transform="translate(38.00003 45)">
      <g filter="url(#filter_1)">
        <path d="M4 0L260 0Q260.205 0 260.407 0.0186425Q260.609 0.037285 260.806 0.0744179Q261.003 0.111551 261.193 0.166871Q261.384 0.222192 261.567 0.295249Q261.749 0.368306 261.923 0.458503Q262.096 0.5487 262.258 0.655303Q262.42 0.761905 262.57 0.884043Q262.72 1.00618 262.857 1.14286Q262.994 1.27953 263.116 1.42964Q263.238 1.57974 263.345 1.74204Q263.451 1.90434 263.542 2.07752Q263.632 2.2507 263.705 2.43334Q263.778 2.61598 263.833 2.8066Q263.888 2.99721 263.926 3.19425Q263.963 3.39129 263.981 3.59314Q264 3.79499 264 4L264 60Q264 60.205 263.981 60.4069Q263.963 60.6087 263.926 60.8058Q263.888 61.0028 263.833 61.1934Q263.778 61.384 263.705 61.5667Q263.632 61.7493 263.542 61.9225Q263.451 62.0957 263.345 62.258Q263.238 62.4203 263.116 62.5704Q262.994 62.7205 262.857 62.8571Q262.72 62.9938 262.57 63.116Q262.42 63.2381 262.258 63.3447Q262.096 63.4513 261.923 63.5415Q261.749 63.6317 261.567 63.7048Q261.384 63.7778 261.193 63.8331Q261.003 63.8885 260.806 63.9256Q260.609 63.9627 260.407 63.9814Q260.205 64 260 64L4 64Q3.79499 64 3.59314 63.9814Q3.39129 63.9627 3.19425 63.9256Q2.99721 63.8885 2.8066 63.8331Q2.61598 63.7778 2.43334 63.7048Q2.2507 63.6317 2.07752 63.5415Q1.90434 63.4513 1.74204 63.3447Q1.57974 63.2381 1.42964 63.116Q1.27953 62.9938 1.14286 62.8571Q1.00618 62.7205 0.884043 62.5704Q0.761905 62.4203 0.655303 62.258Q0.5487 62.0957 0.458503 61.9225Q0.368306 61.7493 0.295249 61.5667Q0.222192 61.384 0.166871 61.1934Q0.111551 61.0028 0.0744179 60.8058Q0.037285 60.6087 0.0186425 60.4069Q0 60.205 0 60L0 4Q0 3.79499 0.0186425 3.59314Q0.037285 3.39129 0.0744179 3.19425Q0.111551 2.99721 0.166871 2.8066Q0.222192 2.61598 0.295249 2.43334Q0.368306 2.2507 0.458503 2.07752Q0.5487 1.90434 0.655303 1.74204Q0.761905 1.57974 0.884043 1.42964Q1.00618 1.27953 1.14286 1.14286Q1.27953 1.00618 1.42964 0.884043Q1.57974 0.761905 1.74204 0.655303Q1.90434 0.5487 2.07752 0.458503Q2.2507 0.368306 2.43334 0.295249Q2.61598 0.222192 2.8066 0.166871Q2.99721 0.111551 3.19425 0.0744179Q3.39129 0.037285 3.59314 0.0186425Q3.79499 0 4 0Z" id="Rectangle" fill="url(#gradient_1)" stroke="none" />
      </g>
      <g clip-path="url(#mask_1)">
        <g filter="url(#filter_2)">
          <path d="M0 0L137.686 69.6291L137.686 111.476L0 41.8466L0 0Z" transform="translate(-46 -20)" id="Rectangle" fill="url(#gradient_2)" fill-opacity="0.07796224" stroke="none" />
        </g>
        <g filter="url(#filter_3)">
          <path d="M0 0L167.686 85.2444L167.686 136.476L0 51.2313L0 0Z" transform="translate(44 -92.5)" id="Rectangle" fill="url(#gradient_3)" fill-opacity="0.104422435" stroke="none" />
        </g>
        <g id="Play-the-Video" fill="#FFFFFF" transform="translate(103.2901 25)">
          <path d="M88.9139 5.792Q88.2259 5.792 87.7939 5.392Q87.3619 4.992 87.3619 4.4Q87.3619 3.808 87.7939 3.408Q88.2259 3.008 88.9139 3.008Q89.6019 3.008 90.0339 3.392Q90.466 3.776 90.466 4.352Q90.466 4.976 90.0339 5.384Q89.6019 5.792 88.9139 5.792ZM16.802 3.728L14.306 3.728L14.306 15.6L16.802 15.6L16.802 3.728ZM57.866 7.824Q56.882 6.864 55.282 6.864Q54.45 6.864 53.746 7.128Q53.042 7.392 52.546 7.888L52.546 3.728L50.05 3.728L50.05 15.6L52.546 15.6L52.546 11.344Q52.546 10.192 53.106 9.608Q53.666 9.024 54.61 9.024Q55.458 9.024 55.906 9.528Q56.354 10.032 56.354 11.056L56.354 15.6L58.85 15.6L58.85 10.672Q58.85 8.784 57.866 7.824ZM101.25 15.6L101.25 3.728L98.754 3.728L98.754 7.904Q97.826 6.864 96.1779 6.864Q94.9619 6.864 93.978 7.408Q92.9939 7.952 92.4339 8.96Q91.8739 9.968 91.8739 11.296Q91.8739 12.624 92.4339 13.632Q92.9939 14.64 93.978 15.184Q94.962 15.728 96.1779 15.728Q97.938 15.728 98.866 14.608L98.866 15.6L101.25 15.6ZM10.202 4.896Q9.10596 4.4 7.61796 4.4L2.76996 4.4L2.76996 15.6L5.36196 15.6L5.36196 12.512L7.61796 12.512Q9.10596 12.512 10.202 12.024Q11.298 11.536 11.89 10.616Q12.482 9.696 12.482 8.464Q12.482 7.216 11.89 6.304Q11.298 5.392 10.202 4.896ZM81.826 15.6L86.674 4.4L84.0979 4.4L80.642 12.4L77.2339 4.4L74.434 4.4L79.266 15.6L81.826 15.6ZM48.642 15.184Q48.274 15.456 47.738 15.592Q47.202 15.728 46.61 15.728Q45.074 15.728 44.234 14.944Q43.394 14.16 43.394 12.64L43.394 9.104L42.066 9.104L42.066 7.184L43.394 7.184L43.394 5.088L45.89 5.088L45.89 7.184L48.034 7.184L48.034 9.104L45.89 9.104L45.89 12.608Q45.89 13.152 46.17 13.448Q46.45 13.744 46.962 13.744Q47.554 13.744 47.97 13.424L48.642 15.184ZM9.24996 9.896Q8.64196 10.4 7.47396 10.4L5.36196 10.4L5.36196 6.512L7.47396 6.512Q8.64196 6.512 9.24996 7.016Q9.85796 7.52 9.85796 8.464Q9.85795 9.392 9.24996 9.896ZM22.594 6.864Q24.594 6.864 25.666 7.816Q26.738 8.768 26.738 10.688L26.738 15.6L24.402 15.6L24.402 14.528Q23.698 15.728 21.778 15.728Q20.786 15.728 20.058 15.392Q19.33 15.056 18.946 14.464Q18.562 13.872 18.562 13.12Q18.562 11.92 19.466 11.232Q20.37 10.544 22.258 10.544L24.242 10.544Q24.242 9.728 23.746 9.288Q23.25 8.848 22.258 8.848Q21.57 8.848 20.906 9.064Q20.242 9.28 19.778 9.648L18.882 7.904Q19.586 7.408 20.57 7.136Q21.554 6.864 22.594 6.864ZM69.538 11.328Q69.5379 11.376 69.49 12L62.978 12Q63.154 12.8 63.81 13.264Q64.466 13.728 65.442 13.728Q66.114 13.728 66.634 13.528Q67.154 13.328 67.602 12.896L68.93 14.336Q67.714 15.728 65.378 15.728Q63.922 15.728 62.802 15.16Q61.682 14.592 61.074 13.584Q60.466 12.576 60.466 11.296Q60.466 10.032 61.066 9.016Q61.666 8 62.714 7.432Q63.762 6.864 65.058 6.864Q66.322 6.864 67.346 7.408Q68.3699 7.952 68.9539 8.968Q69.538 9.984 69.538 11.328ZM111.986 11.328Q111.986 11.376 111.938 12L105.426 12Q105.602 12.8 106.258 13.264Q106.914 13.728 107.89 13.728Q108.562 13.728 109.082 13.528Q109.602 13.328 110.05 12.896L111.378 14.336Q110.162 15.728 107.826 15.728Q106.37 15.728 105.25 15.16Q104.13 14.592 103.522 13.584Q102.914 12.576 102.914 11.296Q102.914 10.032 103.514 9.016Q104.114 8 105.162 7.432Q106.21 6.864 107.506 6.864Q108.77 6.864 109.794 7.408Q110.818 7.952 111.402 8.968Q111.986 9.984 111.986 11.328ZM115.306 15.16Q116.386 15.728 117.746 15.728Q119.106 15.728 120.178 15.16Q121.25 14.592 121.858 13.584Q122.466 12.576 122.466 11.296Q122.466 10.016 121.858 9.008Q121.25 8 120.178 7.432Q119.106 6.864 117.746 6.864Q116.386 6.864 115.306 7.432Q114.226 8 113.618 9.008Q113.01 10.016 113.01 11.296Q113.01 12.576 113.618 13.584Q114.226 14.592 115.306 15.16ZM33.65 16.128L37.538 6.992L35.138 6.992L32.706 12.832L30.29 6.992L27.714 6.992L31.442 15.664L31.41 15.744Q31.154 16.32 30.834 16.568Q30.514 16.816 30.002 16.816Q29.634 16.816 29.258 16.672Q28.882 16.528 28.594 16.272L27.682 18.048Q28.098 18.416 28.754 18.624Q29.41 18.832 30.082 18.832Q31.314 18.832 32.186 18.224Q33.058 17.616 33.65 16.128ZM87.6659 6.992L90.1619 6.992L90.1619 15.6L87.6659 15.6L87.6659 6.992ZM65.074 8.752Q64.226 8.752 63.65 9.232Q63.074 9.712 62.946 10.544L67.186 10.544Q67.058 9.728 66.482 9.24Q65.906 8.752 65.074 8.752ZM107.522 8.752Q106.674 8.752 106.098 9.232Q105.522 9.712 105.394 10.544L109.634 10.544Q109.506 9.728 108.93 9.24Q108.354 8.752 107.522 8.752ZM98.1779 13.032Q97.5539 13.68 96.6099 13.68Q95.6499 13.68 95.0259 13.032Q94.4019 12.384 94.4019 11.296Q94.4019 10.208 95.0259 9.56Q95.6499 8.912 96.6099 8.912Q97.5539 8.912 98.1779 9.56Q98.8019 10.208 98.8019 11.296Q98.8019 12.384 98.1779 13.032ZM119.322 13.032Q118.706 13.68 117.746 13.68Q116.786 13.68 116.162 13.032Q115.538 12.384 115.538 11.296Q115.538 10.208 116.162 9.56Q116.786 8.912 117.746 8.912Q118.706 8.912 119.322 9.56Q119.938 10.208 119.938 11.296Q119.938 12.384 119.322 13.032ZM22.402 14.048Q23.042 14.048 23.538 13.752Q24.034 13.456 24.242 12.88L24.242 12L22.53 12Q20.994 12 20.994 13.008Q20.994 13.488 21.37 13.768Q21.746 14.048 22.402 14.048Z" />
        </g>
      </g>
    </g>
    <g id="play">
      <g filter="url(#filter_4)">
        <path d="M76.5 153C118.75 153 153 118.75 153 76.5C153 34.2502 118.75 0 76.5 0C34.2502 0 0 34.2502 0 76.5C0 118.75 34.2502 153 76.5 153Z" id="Oval-3" fill="#FFFFFF" fill-opacity="0.149600074" stroke="none" />
      </g>
      <g filter="url(#filter_4)">
        <path d="M53 106C82.2711 106 106 82.2711 106 53C106 23.7289 82.2711 0 53 0C23.7289 0 0 23.7289 0 53C0 82.2711 23.7289 106 53 106Z" transform="translate(24 24)" id="Oval-2" fill="#FFFFFF" fill-opacity="0.260649174" stroke="none" />
      </g>
      <g filter="url(#filter_4)">
        <path d="M37.5 75C58.2107 75 75 58.2107 75 37.5C75 16.7893 58.2107 0 37.5 0C16.7893 0 0 16.7893 0 37.5C0 58.2107 16.7893 75 37.5 75Z" transform="translate(39.00001 39)" id="Oval1" fill="#FFFFFF" fill-opacity="0.260649174" stroke="none" />
      </g>
      <g filter="url(#filter_5)">
        <path d="M20.5 41C31.8218 41 41 31.8218 41 20.5C41 9.17816 31.8218 0 20.5 0C9.17817 0 0 9.17816 0 20.5C0 31.8218 9.17817 41 20.5 41Z" transform="translate(56 56)" id="Combined-Shape" fill="url(#gradient_1)" stroke="none" />
      </g>
      <g filter="url(#filter_5)">
        <path d="M0 0L0 13.7854L10.1687 6.8927L0 0Z" transform="translate(74 70)" id="Path-21" fill="#FFFFFF" stroke="none" />
      </g>
    </g>
  </g>
</svg>