<?xml version="1.0" encoding="utf-8"?>
<svg width="657px" height="650px" viewBox="0 0 657 650" version="1.1" xmlns:xlink="http://www.w3.org/1999/xlink" xmlns="http://www.w3.org/2000/svg">
  <desc>Created with Lunacy</desc>
  <defs>
    <linearGradient x1="-0.182244346" y1="0.239403144" x2="0.560825467" y2="1.16671145" id="gradient_1">
      <stop offset="0" stop-color="#8AB5FF" />
      <stop offset="1" stop-color="#CCE3FF" />
    </linearGradient>
    <linearGradient x1="0.7022423" y1="0.9064195" x2="-0.0440161265" y2="0.296351075" id="gradient_2">
      <stop offset="0" stop-color="#FFFFFF" stop-opacity="0" />
      <stop offset="1" stop-color="#FFFFFF" />
    </linearGradient>
    <linearGradient x1="1.10970581" y1="0.214432567" x2="0.10305398" y2="0.06272894" id="gradient_3">
      <stop offset="0" stop-color="#F15765" />
      <stop offset="1" stop-color="#FFD7D7" />
    </linearGradient>
    <linearGradient x1="0.6983153" y1="0.592290759" x2="0.8605537" y2="0" id="gradient_4">
      <stop offset="0" stop-color="#FFFFFF" stop-opacity="0" />
      <stop offset="1" stop-color="#FFFFFF" />
    </linearGradient>
    <linearGradient x1="1.27539063" y1="0.169566765" x2="0.116193183" y2="0.5" id="gradient_5">
      <stop offset="0" stop-color="#F15765" />
      <stop offset="1" stop-color="#FFD7D7" />
    </linearGradient>
    <linearGradient x1="0.408565551" y1="0.7826936" x2="0.5" y2="0.2723809" id="gradient_6">
      <stop offset="0" stop-color="#E6EFFF" />
      <stop offset="1" stop-color="#FFFFFF" />
    </linearGradient>
    <linearGradient x1="1" y1="0.6783577" x2="-0.4502551" y2="0.5" id="gradient_7">
      <stop offset="0" stop-color="#FFD849" />
      <stop offset="1" stop-color="#FFB023" />
    </linearGradient>
    <linearGradient x1="1.25837052" y1="0.6798122" x2="0.7853157" y2="0.406790227" id="gradient_8">
      <stop offset="0" stop-color="#FFEA56" />
      <stop offset="1" stop-color="#FFD12B" />
    </linearGradient>
    <linearGradient x1="0.408565551" y1="0.7826936" x2="0.606817842" y2="0.2626668" id="gradient_9">
      <stop offset="0" stop-color="#F9F7F7" />
      <stop offset="1" stop-color="#FFFFFF" />
    </linearGradient>
    <linearGradient x1="0.7136824" y1="0.5725337" x2="0.270353615" y2="0.342156649" id="gradient_10">
      <stop offset="0" stop-color="#FCE6CE" />
      <stop offset="1" stop-color="#FAC99D" />
    </linearGradient>
    <linearGradient x1="1" y1="0.844555438" x2="0" y2="0.5" id="gradient_11">
      <stop offset="0" stop-color="#FCE6CE" />
      <stop offset="1" stop-color="#FAC99D" />
    </linearGradient>
    <linearGradient x1="0.131349415" y1="0.5" x2="-0.0428464" y2="0.5" id="gradient_12">
      <stop offset="0" stop-color="#FFFFFF" stop-opacity="0" />
      <stop offset="1" stop-color="#FFFFFF" />
    </linearGradient>
    <linearGradient x1="1.02" y1="1.01" x2="0" y2="6.24500451E-17" id="gradient_13">
      <stop offset="0" stop-color="#3023AE" />
      <stop offset="0" stop-color="#3D29B1" />
      <stop offset="1" stop-color="#C86DD7" />
    </linearGradient>
    <linearGradient x1="1" y1="0.5" x2="0.2481705" y2="0.251862973" id="gradient_14">
      <stop offset="0" stop-color="#002375" />
      <stop offset="1" stop-color="#120E08" />
    </linearGradient>
    <linearGradient x1="1" y1="0.5" x2="0.2481705" y2="0.251862973" id="gradient_15">
      <stop offset="0" stop-color="#002375" />
      <stop offset="1" stop-color="#053AB7" />
    </linearGradient>
    <linearGradient x1="1.18141806" y1="0.6781796" x2="0.6660898" y2="0" id="gradient_16">
      <stop offset="0" stop-color="#FFFFFF" stop-opacity="0" />
      <stop offset="1" stop-color="#FFFFFF" stop-opacity="0.7294118" />
    </linearGradient>
    <linearGradient x1="0.5" y1="0" x2="0.5" y2="1" id="gradient_17">
      <stop offset="0" stop-color="#FAD961" />
      <stop offset="1" stop-color="#F76B1C" />
    </linearGradient>
    <linearGradient x1="1" y1="-0.1970432" x2="0" y2="0.786364138" id="gradient_18">
      <stop offset="0" stop-color="#B7C3CB" />
      <stop offset="1" stop-color="#120E08" />
    </linearGradient>
    <linearGradient x1="0.5" y1="-2.48949816E-17" x2="0.5" y2="1" id="gradient_19">
      <stop offset="0" stop-color="#FAD961" />
      <stop offset="1" stop-color="#F76B1C" />
    </linearGradient>
    <linearGradient x1="0.5" y1="0" x2="0.5" y2="1" id="gradient_20">
      <stop offset="0" stop-color="#4027A2" />
      <stop offset="1" stop-color="#415DD1" />
    </linearGradient>
    <linearGradient x1="1" y1="0.5" x2="-2.220446E-16" y2="0.5" id="gradient_21">
      <stop offset="0" stop-color="#FFB099" />
      <stop offset="1" stop-color="#FF1249" />
    </linearGradient>
    <linearGradient x1="0.5" y1="1" x2="0.5" y2="-2.48949816E-17" id="gradient_22">
      <stop offset="0" stop-color="#FFB099" />
      <stop offset="1" stop-color="#FF1249" />
    </linearGradient>
    <linearGradient x1="0.5" y1="0" x2="2.59201145" y2="5.850163" id="gradient_23">
      <stop offset="0" stop-color="#FAD961" />
      <stop offset="1" stop-color="#F76B1C" />
    </linearGradient>
    <filter filterUnits="userSpaceOnUse" color-interpolation-filters="sRGB" id="filter_1">
      <feFlood flood-opacity="0" result="BackgroundImageFix" />
      <feColorMatrix in="SourceAlpha" type="matrix" values="0 0 0 0 0 0 0 0 0 0 0 0 0 0 0 0 0 0 127 0" />
      <feOffset dx="0" dy="2" />
      <feGaussianBlur stdDeviation="11.5" />
      <feColorMatrix type="matrix" values="0 0 0 0 0 0 0 0 0 0 0 0 0 0 0 0 0 0 0.1019608 0" />
      <feBlend mode="normal" in2="BackgroundImageFix" result="effect0_dropShadow" />
      <feBlend mode="normal" in="SourceGraphic" in2="effect0_dropShadow" result="shape" />
    </filter>
    <path d="M245.41 465.458C202.728 452.596 12.2251 474.686 23.7504 343.611C35.2757 212.535 -24.33 180.869 11.75 99.6623C47.83 18.456 101.73 -27.9978 211.134 18.456C320.538 64.9098 291.876 125.708 376.521 146.791C461.165 167.875 575.143 166.116 587.064 286.777C598.985 407.439 494.472 494 419.848 494C345.224 494 288.091 478.32 245.41 465.458Z" transform="translate(0.6167543 0.8075513)" id="path_1" />
    <path d="M186.42 374.818C101.599 332.65 10.162 394.44 19.7422 285.523C29.3225 176.606 -20.2241 150.293 9.76702 82.8143C39.7581 15.336 84.5617 -23.2647 175.502 15.336C266.443 53.9367 242.619 104.457 312.978 121.976C383.338 139.495 478.081 138.034 487.99 238.297C497.899 338.561 433.128 418 371.098 418C309.067 418 271.241 416.986 186.42 374.818Z" transform="translate(61.72977 51.78399)" id="path_2" />
    <path d="M247.499 72.0767C247.804 73.7725 249.102 82.6941 245.739 97.4385C240.896 118.865 229.306 139.042 212.236 155.982L125.769 247L38.2525 170.956C20.6759 154.492 8.44724 132.541 2.9025 107.678C-0.947462 90.3412 0.0516713 79.5934 0.304806 77.5517C3.17531 31.5023 30.8855 -1.02359 66.23 0.0246212C89.4029 0.718221 110.285 14.6446 122.637 36.7517C134.44 15.4258 155.802 2.73852 179.353 3.46317C214.702 4.56065 243.339 33.4975 247.499 72.0767Z" id="path_3" />
    <path d="M109.778 32.0989C109.913 32.8542 110.489 36.8273 108.997 43.3937C106.849 52.9358 101.708 61.9217 94.1368 69.4656L55.7845 110L16.9668 76.1341C9.17078 68.802 3.74676 59.0265 1.2874 47.9536C-0.420245 40.2329 0.0229187 35.4465 0.135196 34.5372C1.4084 14.0294 13.6992 -0.455848 29.3762 0.0109649C39.6545 0.319855 48.9169 6.52187 54.3955 16.3672C59.6307 6.86977 69.1059 1.21958 79.5516 1.5423C95.2307 2.03106 107.933 14.9179 109.778 32.0989Z" id="path_4" />
    <path d="M6.82353 28.237L225.176 0.0251004C228.945 -0.258609 232 1.89533 232 4.83606L232 169.25C232 172.191 228.945 174.805 225.176 175.088L6.82353 182.652C3.055 182.936 0 180.782 0 177.841L0 34.0753C0 31.1346 3.055 28.5207 6.82353 28.237Z" id="path_5" />
    <path d="M4.26471 4.8667L140.735 0.0137581C143.091 -0.14175 145 1.03888 145 2.65077L145 103.381C145 104.993 143.091 106.425 140.735 106.581L4.26471 100.116C1.90937 100.272 0 99.0911 0 97.4792L0 8.06685C0 6.45496 1.90937 5.0222 4.26471 4.8667Z" id="path_6" />
    <path d="M0 12.0255L3.43668 23L21 17.5127L10.5 5.66994e-31L0 12.0255Z" transform="translate(73 480)" id="path_7" />
    <path d="M0 11.7988C0 11.7988 0 38.1641 0 38.1641C0 38.1641 17.7598 33.9766 26.7734 38.1641C35.7871 42.3516 55.9004 41.8477 55.9004 38.1641C55.9004 34.4805 64.627 20.4688 53.0566 20.4688C41.4863 20.4688 36.1947 23.1113 29.528 15.457C22.8613 7.80273 19.1602 0 19.1602 0C19.1602 0 19.1602 2.72754 11.4727 7.41016C3.78516 12.0928 0 11.7988 0 11.7988Z" transform="translate(0.8691406 0.9140625)" id="path_8" />
    <path d="M0 12.0255L3.43668 23L21 17.5127L10.5 5.66994e-31L0 12.0255Z" transform="translate(27 498)" id="path_9" />
    <path d="M98.1718 32.792L37.4633 282.889C36.2851 287.743 23.7974 286.65 0 279.612L21.8637 10.2218L90.1259 0L98.1718 32.792Z" transform="translate(22.27628 227.7878)" id="path_10" />
    <path d="M6.52259 14.344C24.8042 12.1658 35.8739 9.75057 41.5242 17.1631C44.3816 20.9115 60.9027 10.7352 64.1155 12.7596C67.3282 14.7839 77.4757 15.7571 70.7364 11.387C65.6446 8.08517 65.5672 8.64922 57.0698 4.93741C52.6127 2.99045 47.4637 -1.59872e-14 43.1987 -6.39488e-14C30.8027 -2.55795e-13 28.6455 1.28558 21.0226 1.28558C13.3997 1.28558 -11.759 16.5222 6.52259 14.344Z" transform="matrix(0.2756374 -0.9612617 0.9612617 0.2756374 228.1667 123.0482)" id="path_11" />
    <path d="M7.1696 17.95C25.4512 15.7718 36.5209 13.3566 42.1713 20.7691C45.0286 24.5175 61.5497 14.3412 64.7625 16.3656C67.9753 18.3899 78.1228 19.3632 71.3834 14.993C66.2916 11.6912 66.2142 12.2552 57.7168 8.54342C53.2597 6.59646 48.1108 3.60602 43.8458 3.60602C31.4497 3.60602 25.6826 4.51265e-13 18.0597 3.0704e-13C10.4368 8.33566e-14 -11.112 20.1282 7.1696 17.95Z" transform="matrix(0.2756374 -0.9612617 0.9612617 0.2756374 224.5221 122.6762)" id="path_12" />
    <path d="M6.10467 23.6049C24.3862 21.4266 38.1744 9.75057 43.8247 17.1631C44.9357 18.6204 45.6727 26.5628 47.9541 26.2005C50.2354 25.8383 46.8359 15.7135 47.6208 15.426C52.7901 13.5329 64.7112 11.6854 66.416 12.7596C69.6287 14.7839 79.7762 15.7571 73.0369 11.387C67.9451 8.08517 67.8677 8.64922 59.3703 4.93741C54.9132 2.99045 49.7642 6.1014e-13 45.4992 5.62178e-13C33.1032 3.70332e-13 30.946 1.28558 23.3231 1.28558C15.7002 1.28558 -12.1769 25.7831 6.10467 23.6049Z" transform="matrix(0.9335805 -0.3583679 -0.3583679 -0.9335805 77.2353 252.0533)" id="path_13" />
    <path d="M0.682951 24.8652C0.682951 21.1991 -2.73111 6.11906 5.70737 2.90421C14.1458 -0.31063 12.1849 -1.5743 20.429 2.90421C28.6732 7.38273 38.6859 2.90421 41.389 2.90421C44.0921 2.90421 45.6371 3.83976 45.6371 9.35343C45.6371 14.8671 57.1292 6.52238 52.0394 18.6825C46.9496 30.8427 46.973 33.3896 41.389 32.1161C35.805 30.8427 31.4535 21.1592 18.5804 18.6825C5.70737 16.2059 0.682951 28.5312 0.682951 24.8652Z" transform="translate(82 -2.273737E-13)" id="path_14" />
    <path d="M0.734166 24.8652C0.734166 21.1991 -2.93592 6.11906 6.13537 2.90421C15.2067 -0.31063 13.0987 -1.5743 21.961 2.90421C30.8234 7.38273 41.587 2.90421 44.4928 2.90421C47.3986 2.90421 49.0594 3.83976 49.0594 9.35343C49.0594 14.8671 61.4134 6.52238 55.9419 18.6825C50.4703 30.8427 50.4955 33.3896 44.4928 32.1161C38.4901 30.8427 33.8122 21.1592 19.9738 18.6825C6.13537 16.2059 0.734166 28.5312 0.734166 24.8652Z" transform="translate(78 6)" id="path_15" />
    <clipPath id="mask_1">
      <use xlink:href="#path_1" />
    </clipPath>
    <clipPath id="mask_2">
      <use xlink:href="#path_3" />
    </clipPath>
    <clipPath id="mask_3">
      <use xlink:href="#path_4" />
    </clipPath>
    <clipPath id="mask_4">
      <use xlink:href="#path_5" />
    </clipPath>
    <clipPath id="mask_5">
      <use xlink:href="#path_6" />
    </clipPath>
    <clipPath id="mask_6">
      <use xlink:href="#path_8" />
    </clipPath>
    <clipPath id="mask_7">
      <use xlink:href="#path_14" />
    </clipPath>
  </defs>
  <g id="bg_Reviews_pic" transform="matrix(0.9876884 -0.1564345 0.1564345 0.9876884 -3.755219 92.71204)">
    <path d="M245.41 465.458C202.728 452.596 12.2251 474.686 23.7504 343.611C35.2757 212.535 -24.33 180.869 11.75 99.6623C47.83 18.456 101.73 -27.9978 211.134 18.456C320.538 64.9098 291.876 125.708 376.521 146.791C461.165 167.875 575.143 166.116 587.064 286.777C598.985 407.439 494.472 494 419.848 494C345.224 494 288.091 478.32 245.41 465.458Z" transform="translate(0.6167543 0.8075513)" id="Path-7" fill="#EBF1FF" fill-opacity="0.59870255" stroke="none" />
    <g clip-path="url(#mask_1)">
      <g id="Path-7">
        <use stroke="none" fill="url(#gradient_1)" fill-opacity="0.9327567" xlink:href="#path_2" />
        <use stroke="none" fill="url(#gradient_2)" fill-opacity="0.9327567" xlink:href="#path_2" />
      </g>
    </g>
  </g>
  <g id="heart_big" transform="translate(84 224.381)">
    <path d="M247.499 72.0767C247.804 73.7725 249.102 82.6941 245.739 97.4385C240.896 118.865 229.306 139.042 212.236 155.982L125.769 247L38.2525 170.956C20.6759 154.492 8.44724 132.541 2.9025 107.678C-0.947462 90.3412 0.0516713 79.5934 0.304806 77.5517C3.17531 31.5023 30.8855 -1.02359 66.23 0.0246212C89.4029 0.718221 110.285 14.6446 122.637 36.7517C134.44 15.4258 155.802 2.73852 179.353 3.46317C214.702 4.56065 243.339 33.4975 247.499 72.0767Z" id="Shape" fill="url(#gradient_3)" stroke="none" />
    <g clip-path="url(#mask_2)">
      <path d="M102.792 31.0626C102.919 31.6584 103.458 34.7852 102.061 39.9025C100.05 47.3847 95.2361 54.508 88.1463 60.6432L52.2346 96L15.8871 68.1399C8.58718 61.6441 3.50833 52.7246 1.20547 42.4877C-0.393503 35.3079 0.0214602 30.8779 0.126593 30.0377C1.31878 11.0916 12.8275 -1.42273 27.5068 0.12983C37.1311 1.13982 45.804 7.15702 50.934 15.9339C55.836 8.13212 64.7082 4.00007 74.4892 5.00084C89.1706 6.48995 101.064 17.501 102.792 31.0626Z" transform="translate(48 159)" id="Shape" fill="url(#gradient_4)" stroke="none" />
      <path d="M187.62 56.6645C187.851 57.8013 188.835 63.7707 186.286 73.563C182.615 87.8598 173.829 101.436 160.888 113.059L95.3407 179L28.9978 126.357C15.6737 114.283 6.40355 97.8076 2.20028 78.9512C-0.718238 65.7422 0.0391701 57.584 0.231063 56.0361C2.40709 21.1322 23.4132 -2.25628 50.2066 0.172946C67.7732 1.75509 83.6035 12.7299 92.9669 29.0218C101.914 14.2751 118.108 6.24451 135.961 7.81812C162.758 10.1626 184.467 30.7918 187.62 56.6645Z" transform="translate(80 108)" id="Shape" fill="url(#gradient_4)" fill-opacity="0.2836914" stroke="none" />
    </g>
  </g>
  <g id="heart_small" transform="translate(284 298.381)">
    <path d="M109.778 32.0989C109.913 32.8542 110.489 36.8273 108.997 43.3937C106.849 52.9358 101.708 61.9217 94.1368 69.4656L55.7845 110L16.9668 76.1341C9.17078 68.802 3.74676 59.0265 1.2874 47.9536C-0.420245 40.2329 0.0229187 35.4465 0.135196 34.5372C1.4084 14.0294 13.6992 -0.455848 29.3762 0.0109649C39.6545 0.319855 48.9169 6.52187 54.3955 16.3672C59.6307 6.86977 69.1059 1.21958 79.5516 1.5423C95.2307 2.03106 107.933 14.9179 109.778 32.0989Z" id="Shape" fill="url(#gradient_5)" stroke="none" />
    <g clip-path="url(#mask_3)">
      <path d="M45.9071 13.9135C45.9636 14.1803 46.2044 15.5809 45.5805 17.873C44.6824 21.2244 42.5326 24.415 39.3663 27.1631L23.3281 43L7.09521 30.521C3.83505 27.6114 1.56683 23.6162 0.538367 19.0309C-0.175739 15.815 0.00958418 13.8307 0.0565366 13.4544C0.588969 4.96811 5.72877 -0.637264 12.2846 0.0581529C16.5828 0.510544 20.4562 3.20575 22.7472 7.13704C24.9365 3.64251 28.8988 1.7917 33.267 2.23996C39.8237 2.90696 45.1355 7.83897 45.9071 13.9135Z" transform="translate(13 33)" id="Shape" fill="url(#gradient_4)" fill-opacity="0.660784066" stroke="none" />
      <path d="M82.8323 25.3249C82.9344 25.833 83.3687 28.5009 82.2432 32.8773C80.6225 39.2669 76.7436 45.3345 71.0305 50.5292L42.0919 80L12.8022 56.4723C6.91977 51.0761 2.8271 43.7129 0.971402 35.2854C-0.317094 29.382 0.0172932 25.7358 0.102012 25.0441C1.0627 9.44454 10.3367 -1.00839 22.1657 0.0772943C29.9211 0.784396 36.9101 5.68935 41.0439 12.9706C44.9941 6.37992 52.1435 2.79084 60.0253 3.49413C71.8559 4.54196 81.4401 13.7617 82.8323 25.3249Z" transform="translate(36 58)" id="Shape" fill="url(#gradient_4)" fill-opacity="0.2836914" stroke="none" />
    </g>
  </g>
  <g id="Group-22" transform="matrix(-1 0 0 1 435 12.38098)">
    <g id="rev_3">
      <g id="Group-3">
        <g filter="url(#filter_1)">
          <path d="M6.82353 28.237L225.176 0.0251004C228.945 -0.258609 232 1.89533 232 4.83606L232 169.25C232 172.191 228.945 174.805 225.176 175.088L6.82353 182.652C3.055 182.936 0 180.782 0 177.841L0 34.0753C0 31.1346 3.055 28.5207 6.82353 28.237Z" id="Rectangle" fill="url(#gradient_6)" stroke="none" />
        </g>
        <g clip-path="url(#mask_4)">
          <g id="текст" transform="translate(24 35)">
            <path d="M22.5 45C34.9264 45 45 34.9264 45 22.5C45 10.0736 34.9264 0 22.5 0C10.0736 0 0 10.0736 0 22.5C0 34.9264 10.0736 45 22.5 45Z" transform="translate(127 0)" id="Oval" fill="#D8D8D8" fill-opacity="0.198404953" stroke="none" />
            <path d="M102.037 0L0 11.0469" transform="translate(0.8434286 15.19531)" id="Path-24" fill="none" stroke="#979797" stroke-opacity="0.252557665" stroke-width="2" />
            <path d="M79.5352 0L-1.10377e-15 8.61079" transform="translate(21.34476 39.19531)" id="Path-24" fill="none" stroke="#979797" stroke-opacity="0.252557665" stroke-width="2" />
            <path d="M102.037 0L0 11.0469" transform="translate(1.843428 65.19531)" id="Path-24" fill="none" stroke="#979797" stroke-opacity="0.252557665" stroke-width="2" />
          </g>
          <g id="звезды" transform="matrix(0.9986295 -0.05233596 0.05233596 0.9986295 65.68011 131.7841)">
            <g id="favorite" transform="translate(87 0)">
              <path d="M9.88 5.26402L3.33564 4.31156L1.95005e-15 0L0 12.3006L6.10602 15L5.39726 9.45512L9.88 5.26402Z" transform="translate(9.12 0)" id="Path" fill="url(#gradient_7)" stroke="none" />
              <path d="M6.54436 4.73375L0 5.93926L4.48274 9.47492L3.77398 14.2857L9.88 12.7508L9.88 0L6.54436 4.73375Z" id="Path" fill="url(#gradient_8)" stroke="none" />
            </g>
            <g id="favorite" transform="translate(66 0)">
              <path d="M9.88 5.26402L3.33564 4.31156L1.95005e-15 0L0 12.3006L6.10602 15L5.39726 9.45512L9.88 5.26402Z" transform="translate(9.12 0)" id="Path" fill="url(#gradient_7)" stroke="none" />
              <path d="M6.54436 4.73375L0 5.93926L4.48274 9.47492L3.77398 14.2857L9.88 12.7508L9.88 0L6.54436 4.73375Z" id="Path" fill="url(#gradient_8)" stroke="none" />
            </g>
            <g id="favorite" transform="translate(44 0)">
              <path d="M9.88 5.26402L3.33564 4.31156L1.95005e-15 0L0 12.3006L6.10602 15L5.39726 9.45512L9.88 5.26402Z" transform="translate(9.12 0)" id="Path" fill="url(#gradient_7)" stroke="none" />
              <path d="M6.54436 4.73375L0 5.93926L4.48274 9.47492L3.77398 14.2857L9.88 12.7508L9.88 0L6.54436 4.73375Z" id="Path" fill="url(#gradient_8)" stroke="none" />
            </g>
            <g id="favorite" transform="translate(21 0)">
              <path d="M9.88 5.26402L3.33564 4.31156L1.95005e-15 0L0 12.3006L6.10602 15L5.39726 9.45512L9.88 5.26402Z" transform="translate(9.12 0)" id="Path" fill="url(#gradient_7)" stroke="none" />
              <path d="M6.54436 4.73375L0 5.93926L4.48274 9.47492L3.77398 14.2857L9.88 12.7508L9.88 0L6.54436 4.73375Z" id="Path" fill="url(#gradient_8)" stroke="none" />
            </g>
            <g id="favorite">
              <path d="M9.88 5.26402L3.33564 4.31156L1.95005e-15 0L0 12.3006L6.10602 15L5.39726 9.45512L9.88 5.26402Z" transform="translate(9.12 0)" id="Path" fill="url(#gradient_7)" stroke="none" />
              <path d="M6.54436 4.73375L0 5.93926L4.48274 9.47492L3.77398 14.2857L9.88 12.7508L9.88 0L6.54436 4.73375Z" id="Path" fill="url(#gradient_8)" stroke="none" />
            </g>
          </g>
        </g>
      </g>
    </g>
    <g id="rev_2" transform="translate(143 83)">
      <g filter="url(#filter_1)">
        <path d="M4.82353 16.9531L159.176 0.01507C161.84 -0.155266 164 1.13794 164 2.90352L164 101.616C164 103.381 161.84 104.951 159.176 105.121L4.82353 109.662C2.15957 109.833 0 108.539 0 106.774L0 20.4584C0 18.6928 2.15957 17.1235 4.82353 16.9531Z" id="Rectangle" fill="url(#gradient_9)" stroke="none" />
      </g>
      <g id="текст" transform="translate(21 22)">
        <path d="M17 34C26.3888 34 34 26.3888 34 17C34 7.61116 26.3888 0 17 0C7.61116 0 0 7.61116 0 17C0 26.3888 7.61116 34 17 34Z" transform="translate(91 0)" id="Oval" fill="#D8D8D8" fill-opacity="0.198404953" stroke="none" />
        <path d="M79 0L0 7.19531" transform="translate(1 13)" id="Path-24" fill="none" stroke="#979797" stroke-opacity="0.190266922" stroke-width="2" />
        <path d="M69.4292 0L0 5.49699" transform="translate(0.5708449 30)" id="Path-24" fill="none" stroke="#979797" stroke-opacity="0.190266922" stroke-width="2" />
      </g>
      <g id="stars" transform="matrix(0.9975641 -0.06975647 0.06975647 0.9975641 82.60593 79.71536)">
        <g id="favorite" transform="translate(87 0)">
          <path d="M9.88 5.26402L3.33564 4.31156L1.95005e-15 0L0 12.3006L6.10602 15L5.39726 9.45512L9.88 5.26402Z" transform="translate(9.12 0)" id="Path" fill="url(#gradient_7)" stroke="none" />
          <path d="M6.54436 4.73375L0 5.93926L4.48274 9.47492L3.77398 14.2857L9.88 12.7508L9.88 0L6.54436 4.73375Z" id="Path" fill="url(#gradient_8)" stroke="none" />
        </g>
        <g id="favorite" transform="translate(66 0)">
          <path d="M9.88 5.26402L3.33564 4.31156L1.95005e-15 0L0 12.3006L6.10602 15L5.39726 9.45512L9.88 5.26402Z" transform="translate(9.12 0)" id="Path" fill="url(#gradient_7)" stroke="none" />
          <path d="M6.54436 4.73375L0 5.93926L4.48274 9.47492L3.77398 14.2857L9.88 12.7508L9.88 0L6.54436 4.73375Z" id="Path" fill="url(#gradient_8)" stroke="none" />
        </g>
        <g id="favorite" transform="translate(44 0)">
          <path d="M9.88 5.26402L3.33564 4.31156L1.95005e-15 0L0 12.3006L6.10602 15L5.39726 9.45512L9.88 5.26402Z" transform="translate(9.12 0)" id="Path" fill="url(#gradient_7)" stroke="none" />
          <path d="M6.54436 4.73375L0 5.93926L4.48274 9.47492L3.77398 14.2857L9.88 12.7508L9.88 0L6.54436 4.73375Z" id="Path" fill="url(#gradient_8)" stroke="none" />
        </g>
        <g id="favorite" transform="translate(21 0)">
          <path d="M9.88 5.26402L3.33564 4.31156L1.95005e-15 0L0 12.3006L6.10602 15L5.39726 9.45512L9.88 5.26402Z" transform="translate(9.12 0)" id="Path" fill="url(#gradient_7)" stroke="none" />
          <path d="M6.54436 4.73375L0 5.93926L4.48274 9.47492L3.77398 14.2857L9.88 12.7508L9.88 0L6.54436 4.73375Z" id="Path" fill="url(#gradient_8)" stroke="none" />
        </g>
        <g id="favorite">
          <path d="M9.88 5.26402L3.33564 4.31156L1.95005e-15 0L0 12.3006L6.10602 15L5.39726 9.45512L9.88 5.26402Z" transform="translate(9.12 0)" id="Path" fill="url(#gradient_7)" stroke="none" />
          <path d="M6.54436 4.73375L0 5.93926L4.48274 9.47492L3.77398 14.2857L9.88 12.7508L9.88 0L6.54436 4.73375Z" id="Path" fill="url(#gradient_8)" stroke="none" />
        </g>
      </g>
    </g>
    <g id="Group-5" transform="translate(71 171)">
      <g id="Group-2" />
      <g id="rev_1">
        <g filter="url(#filter_1)">
          <path d="M4.26471 4.8667L140.735 0.0137581C143.091 -0.14175 145 1.03888 145 2.65077L145 103.381C145 104.993 143.091 106.425 140.735 106.581L4.26471 100.116C1.90937 100.272 0 99.0911 0 97.4792L0 8.06685C0 6.45496 1.90937 5.0222 4.26471 4.8667Z" id="Rectangle" fill="url(#gradient_9)" stroke="none" />
        </g>
        <g clip-path="url(#mask_5)">
          <path d="M14.5 29C22.5081 29 29 22.5081 29 14.5C29 6.49187 22.5081 0 14.5 0C6.49187 0 0 6.49187 0 14.5C0 22.5081 6.49187 29 14.5 29Z" transform="translate(97 23)" id="Oval" fill="#D8D8D8" fill-opacity="0.198404953" stroke="none" />
          <g id="звезды" transform="translate(25 68)">
            <g id="favorite" transform="translate(87 0)">
              <path d="M9.88 5.26402L3.33564 4.31156L1.95005e-15 0L0 12.3006L6.10602 15L5.39726 9.45512L9.88 5.26402Z" transform="translate(9.12 0)" id="Path" fill="url(#gradient_7)" stroke="none" />
              <path d="M6.54436 4.73375L0 5.93926L4.48274 9.47492L3.77398 14.2857L9.88 12.7508L9.88 0L6.54436 4.73375Z" id="Path" fill="url(#gradient_8)" stroke="none" />
            </g>
            <g id="favorite" transform="translate(66 0)">
              <path d="M9.88 5.26402L3.33564 4.31156L1.95005e-15 0L0 12.3006L6.10602 15L5.39726 9.45512L9.88 5.26402Z" transform="translate(9.12 0)" id="Path" fill="url(#gradient_7)" stroke="none" />
              <path d="M6.54436 4.73375L0 5.93926L4.48274 9.47492L3.77398 14.2857L9.88 12.7508L9.88 0L6.54436 4.73375Z" id="Path" fill="url(#gradient_8)" stroke="none" />
            </g>
            <g id="favorite" transform="translate(44 0)">
              <path d="M9.88 5.26402L3.33564 4.31156L1.95005e-15 0L0 12.3006L6.10602 15L5.39726 9.45512L9.88 5.26402Z" transform="translate(9.12 0)" id="Path" fill="url(#gradient_7)" stroke="none" />
              <path d="M6.54436 4.73375L0 5.93926L4.48274 9.47492L3.77398 14.2857L9.88 12.7508L9.88 0L6.54436 4.73375Z" id="Path" fill="url(#gradient_8)" stroke="none" />
            </g>
            <g id="favorite" transform="translate(21 0)">
              <path d="M9.88 5.26402L3.33564 4.31156L1.95005e-15 0L0 12.3006L6.10602 15L5.39726 9.45512L9.88 5.26402Z" transform="translate(9.12 0)" id="Path" fill="url(#gradient_7)" stroke="none" />
              <path d="M6.54436 4.73375L0 5.93926L4.48274 9.47492L3.77398 14.2857L9.88 12.7508L9.88 0L6.54436 4.73375Z" id="Path" fill="url(#gradient_8)" stroke="none" />
            </g>
            <g id="favorite">
              <path d="M9.88 5.26402L3.33564 4.31156L1.95005e-15 0L0 12.3006L6.10602 15L5.39726 9.45512L9.88 5.26402Z" transform="translate(9.12 0)" id="Path" fill="url(#gradient_7)" stroke="none" />
              <path d="M6.54436 4.73375L0 5.93926L4.48274 9.47492L3.77398 14.2857L9.88 12.7508L9.88 0L6.54436 4.73375Z" id="Path" fill="url(#gradient_8)" stroke="none" />
            </g>
          </g>
          <path d="M56.9292 0.5L0 0.5" transform="translate(24.07084 30.5)" id="Path-25" fill="none" stroke="#979797" stroke-opacity="0.4070173" stroke-width="1" stroke-linecap="round" stroke-linejoin="round" />
          <path d="M41.4292 0.5L0 0.5" transform="translate(24.07084 46.5)" id="Path-25" fill="none" stroke="#979797" stroke-opacity="0.4070173" stroke-width="1" stroke-linecap="round" stroke-linejoin="round" />
        </g>
      </g>
    </g>
  </g>
  <g id="man_Reviews" transform="translate(344 102.381)">
    <g id="Group-21" transform="matrix(-1 0 0 1 266 0)">
      <path d="M6.40879 7.45041C6.40879 7.45041 -3.16827 15.2668 1.56628 15.2668C6.30083 15.2668 11.7812 37.5213 17.8958 37.9898C24.0104 38.4584 29 17.3689 29 17.3689L25.3725 3.58454L6.40879 0L6.40879 7.45041Z" transform="translate(86 67)" id="Path-12" fill="url(#gradient_10)" stroke="none" />
      <g id="Path-20">
        <use stroke="none" fill="url(#gradient_11)" xlink:href="#path_7" />
        <use stroke="none" fill="url(#gradient_12)" xlink:href="#path_7" />
      </g>
      <g id="Group-16" transform="translate(71 488)">
        <path d="M0 11.7988C0 11.7988 0 38.1641 0 38.1641C0 38.1641 17.7598 33.9766 26.7734 38.1641C35.7871 42.3516 55.9004 41.8477 55.9004 38.1641C55.9004 34.4805 64.627 20.4688 53.0566 20.4688C41.4863 20.4688 36.1947 23.1113 29.528 15.457C22.8613 7.80273 19.1602 0 19.1602 0C19.1602 0 19.1602 2.72754 11.4727 7.41016C3.78516 12.0928 0 11.7988 0 11.7988Z" transform="translate(0.8691406 0.9140625)" id="Path-19" fill="#E6E2E2" stroke="none" />
        <g clip-path="url(#mask_6)">
          <path d="M0 12.7129C0 12.7129 0 39.0781 0 39.0781C0 39.0781 17.7598 34.8906 26.7734 39.0781C35.7871 43.2656 58.9004 42.7617 58.9004 39.0781C58.9004 35.3945 67.627 21.3828 56.0566 21.3828C44.4863 21.3828 36.1947 24.0254 29.528 16.3711C22.8613 8.7168 17.7305 0 17.7305 0C17.7305 0 22.9453 3.93555 11.4727 8.32422C0 12.7129 0 12.7129 0 12.7129Z" transform="translate(0.8691406 -4)" id="Path-19" fill="url(#gradient_13)" stroke="none" />
        </g>
      </g>
      <g id="Path-20">
        <use stroke="none" fill="url(#gradient_11)" xlink:href="#path_9" />
        <use stroke="none" fill="url(#gradient_12)" xlink:href="#path_9" />
      </g>
      <g id="Group-16" transform="translate(26 504)">
        <path d="M0 11.7988C0 11.7988 0 38.1641 0 38.1641C0 38.1641 17.7598 33.9766 26.7734 38.1641C35.7871 42.3516 55.9004 41.8477 55.9004 38.1641C55.9004 34.4805 64.627 20.4688 53.0566 20.4688C41.4863 20.4688 36.1947 23.1113 29.528 15.457C22.8613 7.80273 19.1602 0 19.1602 0C19.1602 0 19.1602 2.72754 11.4727 7.41016C3.78516 12.0928 0 11.7988 0 11.7988Z" transform="translate(0.8691406 0.9140625)" id="Path-19" fill="#E6E2E2" stroke="none" />
        <g clip-path="url(#mask_6)">
          <path d="M0 12.7129C0 12.7129 0 39.0781 0 39.0781C0 39.0781 17.7598 34.8906 26.7734 39.0781C35.7871 43.2656 58.9004 42.7617 58.9004 39.0781C58.9004 35.3945 67.627 21.3828 56.0566 21.3828C44.4863 21.3828 36.1947 24.0254 29.528 16.3711C22.8613 8.7168 17.7305 0 17.7305 0C17.7305 0 22.9453 3.93555 11.4727 8.32422C0 12.7129 0 12.7129 0 12.7129Z" transform="translate(0.8691406 -4)" id="Path-19" fill="url(#gradient_13)" stroke="none" />
        </g>
      </g>
      <path d="M0 26.5129C0 26.5129 0 98.0911 0 138.841C0 179.592 0 253.394 0 260.197C0 267 38.3586 267 38.3586 267L82 26.5129L16.0476 -8.22757e-31L0 26.5129Z" transform="translate(64 232)" id="Path-4" fill="url(#gradient_14)" stroke="none" />
      <g id="Path-4">
        <use stroke="none" fill="url(#gradient_15)" xlink:href="#path_10" />
        <use stroke="none" fill="url(#gradient_16)" xlink:href="#path_10" />
      </g>
      <path d="M62.0624 0C62.0624 0 72.7801 28.1322 77.9242 24.8279C83.0683 21.5236 86.4183 6.22933 91.1973 6.22933C95.9763 6.22933 94.6664 0.347314 117.023 12.5876C139.38 24.8279 164.788 45.6007 164.788 45.6007L187.524 59.0221L203.409 24.8279C203.409 24.8279 223.072 30.9557 223.409 40.543C224.383 68.1896 204.811 100.047 200.909 100.047C193.026 100.047 163.409 82.6211 163.409 82.6211L117.023 77.4396L122.844 195.941C122.844 195.941 -7.09072 192.481 0.409284 165C7.90928 137.519 16.5602 32.1872 16.5602 32.1872L49.3086 0L62.0624 0Z" transform="translate(26.59072 77)" id="свитер" fill="url(#gradient_17)" stroke="none" />
      <g id="Path-2">
        <use stroke="none" fill="url(#gradient_11)" xlink:href="#path_11" />
        <use stroke="none" fill="url(#gradient_12)" xlink:href="#path_11" />
      </g>
      <g id="Path-2">
        <use stroke="none" fill="url(#gradient_11)" xlink:href="#path_12" />
        <use stroke="none" fill="url(#gradient_12)" xlink:href="#path_12" />
      </g>
      <path d="M3 0L18 0Q18.1538 0 18.3052 0.0139819Q18.4565 0.0279637 18.6043 0.0558134Q18.7521 0.0836631 18.8951 0.125154Q19.038 0.166644 19.175 0.221437Q19.312 0.276229 19.4419 0.343877Q19.5718 0.411525 19.6935 0.491477Q19.8152 0.571429 19.9278 0.663032Q20.0404 0.754635 20.1429 0.857143Q20.2454 0.959651 20.337 1.07223Q20.4286 1.1848 20.5085 1.30653Q20.5885 1.42826 20.6561 1.55814Q20.7238 1.68802 20.7786 1.825Q20.8334 1.96199 20.8749 2.10495Q20.9163 2.24791 20.9442 2.39569Q20.972 2.54347 20.986 2.69485Q21 2.84624 21 3L21 40Q21 40.1538 20.986 40.3051Q20.972 40.4565 20.9442 40.6043Q20.9163 40.7521 20.8749 40.8951Q20.8334 41.038 20.7786 41.175Q20.7238 41.312 20.6561 41.4419Q20.5885 41.5717 20.5085 41.6935Q20.4286 41.8152 20.337 41.9278Q20.2454 42.0404 20.1429 42.1429Q20.0404 42.2454 19.9278 42.337Q19.8152 42.4286 19.6935 42.5085Q19.5718 42.5885 19.4419 42.6561Q19.312 42.7238 19.175 42.7786Q19.038 42.8334 18.8951 42.8748Q18.7521 42.9163 18.6043 42.9442Q18.4565 42.972 18.3052 42.986Q18.1538 43 18 43L3 43Q2.84624 43 2.69485 42.986Q2.54347 42.972 2.39569 42.9442Q2.24791 42.9163 2.10495 42.8748Q1.96199 42.8334 1.825 42.7786Q1.68802 42.7238 1.55814 42.6561Q1.42826 42.5885 1.30653 42.5085Q1.1848 42.4286 1.07223 42.337Q0.959651 42.2454 0.857143 42.1429Q0.754635 42.0404 0.663032 41.9278Q0.571429 41.8152 0.491477 41.6935Q0.411525 41.5717 0.343877 41.4419Q0.276229 41.312 0.221437 41.175Q0.166644 41.038 0.125154 40.8951Q0.0836631 40.7521 0.0558134 40.6043Q0.0279637 40.4565 0.0139819 40.3051Q0 40.1538 0 40L0 3Q0 2.84624 0.0139819 2.69485Q0.0279637 2.54347 0.0558134 2.39569Q0.0836631 2.24791 0.125154 2.10495Q0.166644 1.96199 0.221437 1.825Q0.276229 1.68802 0.343877 1.55814Q0.411525 1.42826 0.491477 1.30653Q0.571429 1.1848 0.663032 1.07223Q0.754635 0.959651 0.857143 0.857143Q0.959651 0.754635 1.07223 0.663032Q1.1848 0.571429 1.30653 0.491477Q1.42826 0.411525 1.55814 0.343877Q1.68802 0.276229 1.825 0.221437Q1.96199 0.166644 2.10495 0.125154Q2.24791 0.0836631 2.39569 0.0558134Q2.54347 0.0279637 2.69485 0.0139819Q2.84624 0 3 0Z" transform="matrix(-0.9743701 0.224951 0.224951 0.9743701 134.7037 205)" id="Rectangle" fill="url(#gradient_18)" stroke="none" />
      <g id="Path-2">
        <use stroke="none" fill="url(#gradient_11)" xlink:href="#path_13" />
        <use stroke="none" fill="url(#gradient_12)" xlink:href="#path_13" />
      </g>
      <path d="M85.8926 1.96866C83.1005 1.96866 56.693 -6.69827 44.7857 12.3378C32.8784 31.3739 25.3382 37.9993 17.7041 57.0471C10.0701 76.0948 -8.65837 109.246 4.64598 113.941C17.9503 118.636 11.7148 122.172 40 130.203C68.2852 138.234 89.5 166 89.5 166L109 138.519C109 138.519 88.1164 122.284 61.2027 103.012C58.7569 101.26 53.125 93.1462 50.8164 83C50.5982 82.0408 61.1673 72.4296 61.2027 71.505C61.5893 61.4103 67.5795 54.4158 69.2529 43.878C73.9869 14.0673 88.6848 1.96866 85.8926 1.96866Z" transform="translate(0 76)" id="Path-13" fill="url(#gradient_19)" stroke="none" />
      <path d="M4.64476 16.9806C4.64476 16.9806 -1.54825 22.0214 0.516084 30.7572C2.58042 39.4929 4.64476 37.2595 4.64476 37.2595C4.64476 37.2595 0.57291 53.536 8.37761 57.3132C16.1823 61.0904 41.5383 76.7243 41.5383 61.3862C41.5383 46.0482 44.6559 38.7818 44.6559 30.7572C44.6559 22.7326 53.9557 14.7001 41.5383 10.4958C29.1209 6.29155 24.6729 -5.1537 16.5252 2.67107C8.37761 10.4958 4.64476 16.9806 4.64476 16.9806Z" transform="translate(79 6)" id="Path-9" fill="url(#gradient_10)" stroke="none" />
      <g id="лицо" transform="matrix(0.9702957 0.2419219 -0.2419219 0.9702957 97.98453 26.0297)">
        <path d="M2.10514 1.76287C2.91183 2.20899 3.8278 2.48506 4.76786 2.45311C5.71434 2.44602 6.62226 2.14758 7.50285 1.79256C7.92869 1.58746 8.35131 1.36716 8.77071 1.13997C9.17726 0.892086 9.57256 0.630408 10 0.390774C9.67219 0.720011 9.31225 1.02721 8.96355 1.34957C8.57146 1.62782 8.16491 1.8978 7.74551 2.15538C6.8601 2.61398 5.85738 2.94986 4.77751 3C3.70086 2.99074 2.63545 2.66796 1.81911 2.10309C1.0092 1.53268 0.376045 0.810056 2.12608e-13 -2.98886e-13C0.599407 0.693676 1.30326 1.30708 2.10514 1.76287Z" transform="matrix(-0.9998477 0.01745241 0.01745241 0.9998477 20.32926 30.67943)" id="Fill-146" fill="#A64708" stroke="none" />
        <path d="M2.26814 1.0273C2.99364 1.47398 3.71044 1.64228 4.55658 1.61608C5.40848 1.61454 6.22464 1.4454 7.01767 1.09877C7.40121 0.898033 7.84517 0.957798 8.22295 0.73514C8.58918 0.491905 8.94531 0.234939 9.33033 2.32169e-11C9.03487 0.324292 8.7105 0.626558 8.39624 0.943923C8.04298 1.21732 7.67672 1.48245 7.29891 1.73521C6.5014 2.18444 5.59847 2.5114 4.62647 2.5548C3.65744 2.53938 2.50707 2.60679 1.77305 2.0424C1.04482 1.47256 0.378249 1.51532 0.0408322 0.710572C-0.296585 -0.0941806 1.547 0.571066 2.26814 1.0273Z" transform="matrix(0.9781476 -0.2079117 -0.2079117 -0.9781476 15.45342 5.295184)" id="Fill-146" fill="#2C2B3C" stroke="none" />
        <path d="M2.26814 1.0273C2.99364 1.47398 3.71044 1.64227 4.55658 1.61608C5.40847 1.61454 6.22464 1.4454 7.01767 1.09877C7.40121 0.898033 7.84517 0.957798 8.22295 0.73514C8.58918 0.491904 8.94531 0.234939 9.33033 2.32169e-11C9.03487 0.324292 8.7105 0.626558 8.39624 0.943922C8.04298 1.21732 7.67672 1.48245 7.29891 1.73521C6.5014 2.18444 5.59847 2.5114 4.62647 2.5548C3.65744 2.53938 2.50707 2.60679 1.77305 2.0424C1.04482 1.47256 0.378249 1.51532 0.0408322 0.710572C-0.296585 -0.0941806 1.547 0.571066 2.26814 1.0273Z" transform="matrix(-0.8910065 0.4539905 -0.4539905 -0.8910065 9.691323 4.754519)" id="Fill-146" fill="#2C2B3C" stroke="none" />
        <path d="M0 0C0.565798 0.803531 1.07751 1.61154 1.59339 2.40388C2.11134 3.18279 2.63762 3.97513 3.24502 4.57274C3.43847 4.76747 3.47799 4.74061 3.81914 5.02263C4.20396 5.56205 3.86906 5.92912 3.77753 6.1328C3.48216 6.59164 3.13893 6.92738 2.79155 7.26312C2.0843 7.91669 1.32713 8.4852 0.538756 9C1.20232 8.31286 1.85965 7.62571 2.46913 6.90947C2.77075 6.55583 3.07237 6.17981 3.26374 5.80154L3.36567 5.5531L2.79363 5.19498C1.96989 4.55484 1.44362 3.6864 0.983906 2.81348C0.536676 1.92937 0.189293 0.991544 0 0" transform="translate(15.95344 14.11151)" id="Fill-147" fill="#2C2B3C" fill-opacity="0.4597982" stroke="none" />
        <path d="M1.50397 4C2.33239 4.00023 3.00219 3.10499 2.99999 2.00042C2.9978 0.895855 2.32446 0.00023448 1.49603 4.60325e-08C0.66761 -0.000234388 -0.00218499 0.895006 5.35685e-06 1.99958C0.00219571 3.10415 0.675542 3.99977 1.50397 4Z" transform="matrix(0.9743701 -0.224951 0.224951 0.9743701 4.711007 9.644307)" id="Oval" fill="#2C2B3C" stroke="none" />
        <path d="M1.50397 4C2.33239 4.00023 3.00219 3.10499 2.99999 2.00042C2.9978 0.895855 2.32446 0.00023448 1.49603 4.60326e-08C0.66761 -0.000234388 -0.00218499 0.895006 5.35685e-06 1.99958C0.00219571 3.10415 0.675542 3.99977 1.50397 4Z" transform="matrix(0.9743701 -0.224951 0.224951 0.9743701 17.43073 6.296394)" id="Oval" fill="#2C2B3C" stroke="none" />
      </g>
      <path d="M0.682951 24.8652C0.682951 21.1991 -2.73111 6.11906 5.70737 2.90421C14.1458 -0.31063 12.1849 -1.5743 20.429 2.90421C28.6732 7.38273 38.6859 2.90421 41.389 2.90421C44.0921 2.90421 45.6371 3.83976 45.6371 9.35343C45.6371 14.8671 57.1292 6.52238 52.0394 18.6825C46.9496 30.8427 46.973 33.3896 41.389 32.1161C35.805 30.8427 31.4535 21.1592 18.5804 18.6825C5.70737 16.2059 0.682951 28.5312 0.682951 24.8652Z" transform="translate(82 -2.273737E-13)" id="Path-11" fill="url(#gradient_20)" stroke="none" />
      <g clip-path="url(#mask_7)">
        <g id="Path-11">
          <use stroke="none" fill="url(#gradient_20)" xlink:href="#path_15" />
          <use stroke="none" fill="url(#gradient_4)" xlink:href="#path_15" />
        </g>
        <path d="M69.6531 0C69.6531 0 80.3708 28.1322 85.5149 24.8279C90.659 21.5236 94.009 6.22933 98.788 6.22933C103.567 6.22933 102.257 0.347314 124.614 12.5876C146.971 24.8279 172.379 45.6007 172.379 45.6007L195.114 59.0221C195.114 59.0221 219.921 89.6592 216.61 92.7827C213.299 95.9061 188.145 105.78 180.262 105.78C172.379 105.78 149.909 100.047 149.909 100.047L128.118 92.7827L98.788 100.047L0 111L24.1509 32.1872L56.8993 0L69.6531 0Z" transform="translate(19 76)" id="свитер" fill="url(#gradient_21)" stroke="none" />
        <path d="M85.8927 1.96866C83.1005 1.96866 56.693 -6.69827 44.7857 12.3378C32.8784 31.3739 25.3382 37.9993 17.7041 57.0471C10.0701 76.0949 -8.65837 109.246 4.64598 113.941C17.9503 118.636 21.8582 116.606 50.1434 124.637C78.4286 132.669 107.734 118.459 107.734 118.459L114.022 132L128 109.103C128 109.103 75.0003 88.5366 69.2529 88.5366C66.5503 88.5366 60.598 88.9942 58.2894 78.848C58.0711 77.8888 61.1673 72.4296 61.2027 71.505C61.5893 61.4102 67.5795 54.4158 69.2529 43.878C73.9869 14.0673 88.6848 1.96866 85.8927 1.96866Z" transform="translate(0 75)" id="Path-13" fill="url(#gradient_22)" stroke="none" />
      </g>
    </g>
    <path d="M2.83691 0C2.83691 0 -2.83691 16.9023 2.83691 20.5293C8.51074 24.1562 21.7705 25.0312 21.7705 20.5293C21.7705 16.0273 24.5225 0 24.5225 0L2.83691 0Z" transform="translate(172 125)" id="Path-23" fill="url(#gradient_23)" stroke="none" />
  </g>
</svg>