<?xml version="1.0" encoding="utf-8"?>
<svg width="245px" height="242px" viewBox="0 0 245 242" version="1.1" xmlns:xlink="http://www.w3.org/1999/xlink" xmlns="http://www.w3.org/2000/svg">
  <desc>Created with Lunacy</desc>
  <defs>
    <linearGradient x1="-0.182244346" y1="0.239403144" x2="0.560825467" y2="1.16671145" id="gradient_1">
      <stop offset="0" stop-color="#8AB5FF" />
      <stop offset="1" stop-color="#CCE3FF" />
    </linearGradient>
    <linearGradient x1="0.7022423" y1="0.9064195" x2="-0.0440161265" y2="0.296351075" id="gradient_2">
      <stop offset="0" stop-color="#FFFFFF" stop-opacity="0" />
      <stop offset="1" stop-color="#FFFFFF" />
    </linearGradient>
    <linearGradient x1="1.10970581" y1="0.214432567" x2="0.10305398" y2="0.06272894" id="gradient_3">
      <stop offset="0" stop-color="#F15765" />
      <stop offset="1" stop-color="#FFD7D7" />
    </linearGradient>
    <linearGradient x1="0.6983153" y1="0.592290759" x2="0.8605537" y2="0" id="gradient_4">
      <stop offset="0" stop-color="#FFFFFF" stop-opacity="0" />
      <stop offset="1" stop-color="#FFFFFF" />
    </linearGradient>
    <linearGradient x1="1.27539063" y1="0.169566765" x2="0.116193183" y2="0.5" id="gradient_5">
      <stop offset="0" stop-color="#F15765" />
      <stop offset="1" stop-color="#FFD7D7" />
    </linearGradient>
    <linearGradient x1="0.408565551" y1="0.7826936" x2="0.5" y2="0.2723809" id="gradient_6">
      <stop offset="0" stop-color="#E6EFFF" />
      <stop offset="1" stop-color="#FFFFFF" />
    </linearGradient>
    <linearGradient x1="1" y1="0.6783577" x2="-0.4502551" y2="0.5" id="gradient_7">
      <stop offset="0" stop-color="#FFD849" />
      <stop offset="1" stop-color="#FFB023" />
    </linearGradient>
    <linearGradient x1="1.25837052" y1="0.6798122" x2="0.7853157" y2="0.406790227" id="gradient_8">
      <stop offset="0" stop-color="#FFEA56" />
      <stop offset="1" stop-color="#FFD12B" />
    </linearGradient>
    <linearGradient x1="0.408565551" y1="0.7826936" x2="0.606817842" y2="0.2626668" id="gradient_9">
      <stop offset="0" stop-color="#F9F7F7" />
      <stop offset="1" stop-color="#FFFFFF" />
    </linearGradient>
    <linearGradient x1="0.7136824" y1="0.5725337" x2="0.270353615" y2="0.342156649" id="gradient_10">
      <stop offset="0" stop-color="#FCE6CE" />
      <stop offset="1" stop-color="#FAC99D" />
    </linearGradient>
    <linearGradient x1="1" y1="0.844555438" x2="0" y2="0.5" id="gradient_11">
      <stop offset="0" stop-color="#FCE6CE" />
      <stop offset="1" stop-color="#FAC99D" />
    </linearGradient>
    <linearGradient x1="0.131349415" y1="0.5" x2="-0.0428464" y2="0.5" id="gradient_12">
      <stop offset="0" stop-color="#FFFFFF" stop-opacity="0" />
      <stop offset="1" stop-color="#FFFFFF" />
    </linearGradient>
    <linearGradient x1="1.02" y1="1.01" x2="0" y2="6.24500451E-17" id="gradient_13">
      <stop offset="0" stop-color="#3023AE" />
      <stop offset="0" stop-color="#3D29B1" />
      <stop offset="1" stop-color="#C86DD7" />
    </linearGradient>
    <linearGradient x1="1" y1="0.5" x2="0.2481705" y2="0.251862973" id="gradient_14">
      <stop offset="0" stop-color="#002375" />
      <stop offset="1" stop-color="#120E08" />
    </linearGradient>
    <linearGradient x1="1" y1="0.5" x2="0.2481705" y2="0.251862973" id="gradient_15">
      <stop offset="0" stop-color="#002375" />
      <stop offset="1" stop-color="#053AB7" />
    </linearGradient>
    <linearGradient x1="1.18141806" y1="0.6781796" x2="0.6660898" y2="0" id="gradient_16">
      <stop offset="0" stop-color="#FFFFFF" stop-opacity="0" />
      <stop offset="1" stop-color="#FFFFFF" stop-opacity="0.7294118" />
    </linearGradient>
    <linearGradient x1="0.5" y1="0" x2="0.5" y2="1" id="gradient_17">
      <stop offset="0" stop-color="#FAD961" />
      <stop offset="1" stop-color="#F76B1C" />
    </linearGradient>
    <linearGradient x1="1" y1="-0.1970432" x2="0" y2="0.786364138" id="gradient_18">
      <stop offset="0" stop-color="#B7C3CB" />
      <stop offset="1" stop-color="#120E08" />
    </linearGradient>
    <linearGradient x1="0.5" y1="-2.48949816E-17" x2="0.5" y2="1" id="gradient_19">
      <stop offset="0" stop-color="#FAD961" />
      <stop offset="1" stop-color="#F76B1C" />
    </linearGradient>
    <linearGradient x1="0.5" y1="0" x2="0.5" y2="1" id="gradient_20">
      <stop offset="0" stop-color="#4027A2" />
      <stop offset="1" stop-color="#415DD1" />
    </linearGradient>
    <linearGradient x1="1" y1="0.5" x2="-2.220446E-16" y2="0.5" id="gradient_21">
      <stop offset="0" stop-color="#FFB099" />
      <stop offset="1" stop-color="#FF1249" />
    </linearGradient>
    <linearGradient x1="0.5" y1="1" x2="0.5" y2="-2.48949816E-17" id="gradient_22">
      <stop offset="0" stop-color="#FFB099" />
      <stop offset="1" stop-color="#FF1249" />
    </linearGradient>
    <linearGradient x1="0.5" y1="0" x2="2.59201145" y2="5.850163" id="gradient_23">
      <stop offset="0" stop-color="#FAD961" />
      <stop offset="1" stop-color="#F76B1C" />
    </linearGradient>
    <filter filterUnits="userSpaceOnUse" color-interpolation-filters="sRGB" id="filter_1">
      <feFlood flood-opacity="0" result="BackgroundImageFix" />
      <feColorMatrix in="SourceAlpha" type="matrix" values="0 0 0 0 0 0 0 0 0 0 0 0 0 0 0 0 0 0 127 0" />
      <feOffset dx="0" dy="2" />
      <feGaussianBlur stdDeviation="11.5" />
      <feColorMatrix type="matrix" values="0 0 0 0 0 0 0 0 0 0 0 0 0 0 0 0 0 0 0.1019608 0" />
      <feBlend mode="normal" in2="BackgroundImageFix" result="effect0_dropShadow" />
      <feBlend mode="normal" in="SourceGraphic" in2="effect0_dropShadow" result="shape" />
    </filter>
    <path d="M90.4141 172.079C74.6893 167.324 4.50398 175.49 8.75014 127.032C12.9963 78.5737 -8.9637 66.8666 4.32893 36.8448C17.6216 6.82313 37.4794 -10.3507 77.7861 6.82313C118.093 23.9969 107.533 46.4737 138.718 54.2682C169.903 62.0627 211.895 61.4126 216.287 106.021C220.679 150.629 182.174 182.63 154.681 182.63C127.188 182.63 106.139 176.834 90.4141 172.079Z" transform="translate(0.2272253 0.2985493)" id="path_1" />
    <path d="M68.681 138.569C37.4312 122.98 3.74388 145.823 7.27346 105.557C10.803 65.2907 -7.45097 55.5627 3.59837 30.6162C14.6477 5.66967 31.1543 -8.6009 64.6588 5.66967C98.1632 19.9402 89.3858 38.6173 115.308 45.0942C141.23 51.571 176.135 51.0308 179.786 88.0978C183.436 125.165 159.573 154.533 136.72 154.533C113.867 154.533 99.9308 154.158 68.681 138.569Z" transform="translate(22.74255 19.14438)" id="path_2" />
    <path d="M91.8141 26.8464C91.9273 27.478 92.4087 30.801 91.1611 36.2929C89.3647 44.2736 85.0652 51.7891 78.7326 58.0985L46.6561 92L14.1904 63.6758C7.67011 57.5435 3.13365 49.3676 1.07673 40.1066C-0.351478 33.6494 0.0191684 29.6461 0.113073 28.8856C1.17794 11.7336 11.4575 -0.381255 24.5692 0.00917064C33.1656 0.267515 40.9123 5.45465 45.4944 13.6889C49.873 5.74563 57.7977 1.02001 66.534 1.28992C79.6475 1.6987 90.271 12.4768 91.8141 26.8464Z" id="path_3" />
    <path d="M40.9172 11.9641C40.9676 12.2456 41.1821 13.7266 40.6261 16.174C39.8256 19.7306 37.9095 23.0799 35.0874 25.8917L20.7924 41L6.32399 28.3773C3.4182 25.6444 1.39652 22.0008 0.479849 17.8736C-0.156637 14.9959 0.00854242 13.2119 0.0503914 12.8729C0.52495 5.22913 5.10607 -0.169907 10.9493 0.00408692C14.7803 0.119219 18.2327 2.43088 20.2747 6.10049C22.226 2.56055 25.7577 0.454572 29.651 0.574858C35.4951 0.75703 40.2295 5.56031 40.9172 11.9641Z" id="path_4" />
    <path d="M2.4844 10.4732L81.9851 0.0093098C83.3572 -0.0959191 84.4695 0.702985 84.4695 1.79371L84.4695 62.7753C84.4695 63.8661 83.3572 64.8356 81.9851 64.9408L2.4844 67.7463C1.1123 67.8515 0 67.0526 0 65.9619L0 12.6386C0 11.5479 1.1123 10.5784 2.4844 10.4732Z" id="path_5" />
    <path d="M1.55275 1.80507L51.2407 0.00510293C52.0982 -0.0525756 52.7934 0.385323 52.7934 0.983178L52.7934 38.3442C52.7934 38.9421 52.0982 39.4735 51.2407 39.5312L1.55275 37.1334C0.695189 37.1911 0 36.7532 0 36.1554L0 2.99202C0 2.39417 0.695189 1.86275 1.55275 1.80507Z" id="path_6" />
    <path d="M0 4.42146L1.25323 8.45651L7.65789 6.43899L3.82895 2.08469e-31L0 4.42146Z" transform="translate(26.6203 176.4837)" id="path_7" />
    <path d="M0 4.33813C0 4.33813 0 14.0319 0 14.0319C0 14.0319 6.47631 12.4923 9.76325 14.0319C13.0502 15.5716 20.3847 15.3863 20.3847 14.0319C20.3847 12.6776 23.567 7.52584 19.3477 7.52584C15.1285 7.52584 13.1988 8.49744 10.7677 5.68316C8.33665 2.86887 6.98697 0 6.98697 0C6.98697 0 6.98697 1.00285 4.18364 2.72452C1.3803 4.4462 0 4.33813 0 4.33813Z" transform="translate(0.3169422 0.3360774)" id="path_8" />
    <path d="M0 4.42146L1.25323 8.45651L7.6579 6.43899L3.82895 2.08469e-31L0 4.42146Z" transform="translate(9.845864 183.1019)" id="path_9" />
    <path d="M35.7995 12.0568L13.6614 104.011C13.2318 105.796 8.67798 105.394 0 102.806L7.97284 3.75831L32.8655 0L35.7995 12.0568Z" transform="translate(8.123306 83.75175)" id="path_10" />
    <path d="M2.39573 5.26327C9.11495 4.45386 13.1844 3.56375 15.2547 6.26398C16.3016 7.62946 22.3804 3.90304 23.5593 4.63915C24.7382 5.37526 28.466 5.72228 25.9932 4.13302C24.1248 2.93229 24.096 3.13817 20.9766 1.79055C19.3404 1.08368 17.4508 -0.00339659 15.8837 7.97761e-06C11.3288 0.00990324 10.5351 0.480722 7.73413 0.486807C4.93312 0.492892 -4.32349 6.07267 2.39573 5.26327Z" transform="matrix(0.2756374 -0.9612617 0.9612617 0.2756374 83.16762 45.24224)" id="path_11" />
    <path d="M2.63239 6.5585C9.35161 5.74909 13.4211 4.85898 15.4913 7.55921C16.5383 8.92469 22.617 5.19827 23.7959 5.93438C24.9748 6.67049 28.7027 7.01751 26.2298 5.42825C24.3615 4.22752 24.3326 4.4334 21.2133 3.08578C19.5771 2.37891 17.6875 1.29183 16.1203 1.29524C11.5655 1.30513 9.44923 -0.00606395 6.64823 2.11146e-05C3.84723 0.00610617 -4.08683 7.3679 2.63239 6.5585Z" transform="matrix(0.2756374 -0.9612617 0.9612617 0.2756374 81.85732 45.11272)" id="path_12" />
    <path d="M2.22617 8.70949C8.90203 7.89103 13.9471 3.58866 16.0023 6.30547C16.4064 6.83963 16.6675 9.75602 17.5006 9.62066C18.3338 9.48531 17.103 5.77002 17.3898 5.66366C19.2788 4.96314 23.6324 4.27254 24.2537 4.66535C25.4244 5.40564 29.1278 5.75286 26.672 4.15454C24.8166 2.94697 24.7877 3.15422 21.6895 1.79948C20.0644 1.08888 18.1878 -0.00428631 16.6309 1.2641e-05C12.1057 0.0125074 11.317 0.486859 8.53423 0.494543C5.7515 0.502227 -4.44969 9.52795 2.22617 8.70949Z" transform="matrix(0.9335805 -0.3583679 -0.3583679 -0.9335805 28.15212 92.6406)" id="path_13" />
    <path d="M0.249046 9.14228C0.249046 7.79438 -0.995931 2.24982 2.08126 1.06781C5.15845 -0.114211 4.44337 -0.57883 7.44969 1.06781C10.456 2.71444 14.1073 1.06781 15.093 1.06781C16.0787 1.06781 16.6421 1.41178 16.6421 3.43902C16.6421 5.46625 20.8328 2.39811 18.9768 6.86909C17.1207 11.3401 17.1292 12.2765 15.093 11.8083C13.0567 11.3401 11.4699 7.77969 6.77556 6.86909C2.08126 5.95849 0.249046 10.4902 0.249046 9.14228Z" transform="translate(29.90226 -2.273737E-13)" id="path_14" />
    <path d="M0.267722 9.14228C0.267722 7.79438 -1.07062 2.24982 2.23733 1.06781C5.54528 -0.114211 4.77658 -0.57883 8.00835 1.06781C11.2401 2.71444 15.1652 1.06781 16.2248 1.06781C17.2845 1.06781 17.8901 1.41178 17.8901 3.43902C17.8901 5.46625 22.3951 2.39811 20.3999 6.86909C18.4046 11.3401 18.4138 12.2765 16.2248 11.8083C14.0358 11.3401 12.33 7.77969 7.28367 6.86909C2.23733 5.95849 0.267722 10.4902 0.267722 9.14228Z" transform="translate(28.44361 2.206047)" id="path_15" />
    <clipPath id="mask_1">
      <use xlink:href="#path_1" />
    </clipPath>
    <clipPath id="mask_2">
      <use xlink:href="#path_3" />
    </clipPath>
    <clipPath id="mask_3">
      <use xlink:href="#path_4" />
    </clipPath>
    <clipPath id="mask_4">
      <use xlink:href="#path_5" />
    </clipPath>
    <clipPath id="mask_5">
      <use xlink:href="#path_6" />
    </clipPath>
    <clipPath id="mask_6">
      <use xlink:href="#path_8" />
    </clipPath>
    <clipPath id="mask_7">
      <use xlink:href="#path_14" />
    </clipPath>
  </defs>
  <g id="Group-7" transform="translate(1 1)">
    <g id="bg_Reviews_pic" transform="matrix(0.9876884 -0.1564345 0.1564345 0.9876884 0.02205753 34.09966)">
      <path d="M90.4141 172.079C74.6893 167.324 4.50398 175.49 8.75014 127.032C12.9963 78.5737 -8.9637 66.8666 4.32893 36.8448C17.6216 6.82313 37.4794 -10.3507 77.7861 6.82313C118.093 23.9969 107.533 46.4737 138.718 54.2682C169.903 62.0627 211.895 61.4126 216.287 106.021C220.679 150.629 182.174 182.63 154.681 182.63C127.188 182.63 106.139 176.834 90.4141 172.079Z" transform="translate(0.2272253 0.2985493)" id="Path-7" fill="#EBF1FF" fill-opacity="0.59870255" stroke="none" />
      <g clip-path="url(#mask_1)">
        <g id="Path-7">
          <use stroke="none" fill="url(#gradient_1)" fill-opacity="0.9327567" xlink:href="#path_2" />
          <use stroke="none" fill="url(#gradient_2)" fill-opacity="0.9327567" xlink:href="#path_2" />
        </g>
      </g>
    </g>
    <g id="heart_big" transform="translate(31 82)">
      <path d="M91.8141 26.8464C91.9273 27.478 92.4087 30.801 91.1611 36.2929C89.3647 44.2736 85.0652 51.7891 78.7326 58.0985L46.6561 92L14.1904 63.6758C7.67011 57.5435 3.13365 49.3676 1.07673 40.1066C-0.351478 33.6494 0.0191684 29.6461 0.113073 28.8856C1.17794 11.7336 11.4575 -0.381255 24.5692 0.00917064C33.1656 0.267515 40.9123 5.45465 45.4944 13.6889C49.873 5.74563 57.7977 1.02001 66.534 1.28992C79.6475 1.6987 90.271 12.4768 91.8141 26.8464Z" id="Shape" fill="url(#gradient_3)" stroke="none" />
      <g clip-path="url(#mask_2)">
        <path d="M38.1325 11.5699C38.1795 11.7918 38.3794 12.9564 37.8613 14.8625C37.1152 17.6494 35.3295 20.3026 32.6994 22.5877L19.3773 35.7571L5.8936 25.38C3.18557 22.9605 1.30148 19.6383 0.447192 15.8254C-0.145977 13.1511 0.00796106 11.5011 0.0469619 11.1881C0.489224 4.13128 4.75857 -0.529924 10.2041 0.0483576C13.7744 0.424548 16.9918 2.66577 18.8949 5.93488C20.7134 3.02897 24.0047 1.4899 27.6331 1.86266C33.0794 2.41731 37.4916 6.51858 38.1325 11.5699Z" transform="translate(17.80645 59.22267)" id="Shape" fill="url(#gradient_4)" stroke="none" />
        <path d="M69.601 21.1058C69.6868 21.5292 70.0518 23.7527 69.106 27.4C67.7442 32.7251 64.4849 37.7818 59.6844 42.1111L35.3683 66.6721L10.7573 47.064C5.81444 42.5668 2.37551 36.4304 0.816234 29.4069C-0.266443 24.487 0.0145309 21.4483 0.0857169 20.8718C0.892952 7.87109 8.68555 -0.840395 18.625 0.0644172C25.1417 0.653716 31.0142 4.74151 34.4877 10.8097C37.8069 5.31703 43.8144 2.32589 50.4371 2.91201C60.3779 3.78527 68.4312 11.469 69.601 21.1058Z" transform="translate(29.67742 40.22672)" id="Shape" fill="url(#gradient_4)" fill-opacity="0.2836914" stroke="none" />
      </g>
    </g>
    <g id="heart_small" transform="translate(105 110)">
      <path d="M40.9172 11.9641C40.9676 12.2456 41.1821 13.7266 40.6261 16.174C39.8256 19.7306 37.9095 23.0799 35.0874 25.8917L20.7924 41L6.32399 28.3773C3.4182 25.6444 1.39652 22.0008 0.479849 17.8736C-0.156637 14.9959 0.00854242 13.2119 0.0503914 12.8729C0.52495 5.22913 5.10607 -0.169907 10.9493 0.00408692C14.7803 0.119219 18.2327 2.43088 20.2747 6.10049C22.226 2.56055 25.7577 0.454572 29.651 0.574858C35.4951 0.75703 40.2295 5.56031 40.9172 11.9641Z" id="Shape" fill="url(#gradient_5)" stroke="none" />
      <g clip-path="url(#mask_3)">
        <path d="M17.1108 5.18593C17.1319 5.28539 17.2216 5.80741 16.9891 6.66175C16.6543 7.91091 15.8531 9.10015 14.6729 10.1244L8.695 16.0273L2.64458 11.376C1.42943 10.2915 0.583999 8.80241 0.200664 7.09335C-0.0655027 5.89468 0.00357229 5.15509 0.0210728 5.01481C0.219525 1.85175 2.13527 -0.237526 4.57881 0.0216752C6.18086 0.190294 7.62457 1.19487 8.47851 2.66017C9.29451 1.35766 10.7714 0.667815 12.3995 0.834895C14.8434 1.0835 16.8232 2.9218 17.1108 5.18593Z" transform="translate(4.845455 12.3)" id="Shape" fill="url(#gradient_4)" fill-opacity="0.660784066" stroke="none" />
        <path d="M30.8739 9.43928C30.9119 9.62865 31.0738 10.6231 30.6543 12.2543C30.0502 14.6359 28.6044 16.8974 26.475 18.8336L15.6888 29.8182L4.77174 21.0488C2.57919 19.0374 1.05374 16.293 0.362068 13.1518C-0.11819 10.9515 0.00644565 9.59245 0.0380226 9.33461C0.396099 3.52024 3.85277 -0.375855 8.26176 0.0288097C11.1524 0.292366 13.7574 2.12058 15.2982 4.83451C16.7705 2.37797 19.4353 1.04022 22.3731 1.30236C26.7826 1.69291 30.355 5.12936 30.8739 9.43928Z" transform="translate(13.41818 21.61818)" id="Shape" fill="url(#gradient_4)" fill-opacity="0.2836914" stroke="none" />
      </g>
    </g>
    <g id="Group-22" transform="matrix(-1 0 0 1 161 2)">
      <g id="rev_3">
        <g id="Group-3">
          <g filter="url(#filter_1)">
            <path d="M2.4844 10.4732L81.9851 0.0093098C83.3572 -0.0959191 84.4695 0.702985 84.4695 1.79371L84.4695 62.7753C84.4695 63.8661 83.3572 64.8356 81.9851 64.9408L2.4844 67.7463C1.1123 67.8515 0 67.0526 0 65.9619L0 12.6386C0 11.5479 1.1123 10.5784 2.4844 10.4732Z" id="Rectangle" fill="url(#gradient_6)" stroke="none" />
          </g>
          <g clip-path="url(#mask_4)">
            <g id="текст" transform="translate(8.738224 12.98162)">
              <path d="M8.19209 16.6906C12.7164 16.6906 16.3842 12.9543 16.3842 8.34532C16.3842 3.73633 12.7164 0 8.19209 0C3.66772 0 0 3.73633 0 8.34532C0 12.9543 3.66772 16.6906 8.19209 16.6906Z" transform="translate(46.23977 0)" id="Oval" fill="#D8D8D8" fill-opacity="0.198404953" stroke="none" />
              <path d="M37.1508 0L0 4.09732" transform="translate(0.3070861 5.635991)" id="Path-24" fill="none" stroke="#979797" stroke-opacity="0.252557665" stroke-width="2" />
              <path d="M28.9582 0L-4.01876e-16 3.19377" transform="translate(7.771471 14.53767)" id="Path-24" fill="none" stroke="#979797" stroke-opacity="0.252557665" stroke-width="2" />
              <path d="M37.1508 0L0 4.09732" transform="translate(0.6711788 24.18115)" id="Path-24" fill="none" stroke="#979797" stroke-opacity="0.252557665" stroke-width="2" />
            </g>
            <g id="звезды" transform="matrix(0.9986295 -0.05233596 0.05233596 0.9986295 23.91083 48.85994)">
              <g id="favorite" transform="translate(31.67606 0)">
                <path d="M3.59724 1.95244L1.21448 1.59917L7.09997e-16 0L0 4.56233L2.22316 5.56355L1.9651 3.50694L3.59724 1.95244Z" transform="translate(3.320525 0)" id="Path" fill="url(#gradient_7)" stroke="none" />
                <path d="M2.38275 1.75576L0 2.20289L1.63213 3.51428L1.37408 5.29862L3.59724 4.72933L3.59724 0L2.38275 1.75576Z" id="Path" fill="url(#gradient_8)" stroke="none" />
              </g>
              <g id="favorite" transform="translate(24.03012 0)">
                <path d="M3.59724 1.95244L1.21448 1.59917L7.09997e-16 0L0 4.56233L2.22316 5.56355L1.9651 3.50694L3.59724 1.95244Z" transform="translate(3.320525 0)" id="Path" fill="url(#gradient_7)" stroke="none" />
                <path d="M2.38275 1.75576L0 2.20289L1.63213 3.51428L1.37408 5.29862L3.59724 4.72933L3.59724 0L2.38275 1.75576Z" id="Path" fill="url(#gradient_8)" stroke="none" />
              </g>
              <g id="favorite" transform="translate(16.02008 0)">
                <path d="M3.59724 1.95244L1.21448 1.59917L7.09997e-16 0L0 4.56233L2.22316 5.56355L1.9651 3.50694L3.59724 1.95244Z" transform="translate(3.320525 0)" id="Path" fill="url(#gradient_7)" stroke="none" />
                <path d="M2.38275 1.75576L0 2.20289L1.63213 3.51428L1.37408 5.29862L3.59724 4.72933L3.59724 0L2.38275 1.75576Z" id="Path" fill="url(#gradient_8)" stroke="none" />
              </g>
              <g id="favorite" transform="translate(7.645946 0)">
                <path d="M3.59724 1.95244L1.21448 1.59917L7.09997e-16 0L0 4.56233L2.22316 5.56355L1.9651 3.50694L3.59724 1.95244Z" transform="translate(3.320525 0)" id="Path" fill="url(#gradient_7)" stroke="none" />
                <path d="M2.38275 1.75576L0 2.20289L1.63213 3.51428L1.37408 5.29862L3.59724 4.72933L3.59724 0L2.38275 1.75576Z" id="Path" fill="url(#gradient_8)" stroke="none" />
              </g>
              <g id="favorite">
                <path d="M3.59724 1.95244L1.21448 1.59917L7.09997e-16 0L0 4.56233L2.22316 5.56355L1.9651 3.50694L3.59724 1.95244Z" transform="translate(3.320525 0)" id="Path" fill="url(#gradient_7)" stroke="none" />
                <path d="M2.38275 1.75576L0 2.20289L1.63213 3.51428L1.37408 5.29862L3.59724 4.72933L3.59724 0L2.38275 1.75576Z" id="Path" fill="url(#gradient_8)" stroke="none" />
              </g>
            </g>
          </g>
        </g>
      </g>
      <g id="rev_2" transform="translate(52.06525 30.78497)">
        <g filter="url(#filter_1)">
          <path d="M1.75621 6.28797L57.955 0.0055895C58.9249 -0.0575887 59.7112 0.422064 59.7112 1.07692L59.7112 37.6896C59.7112 38.3444 58.9249 38.9265 57.955 38.9897L1.75621 40.6741C0.786283 40.7373 0 40.2576 0 39.6028L0 7.5881C0 6.93324 0.786283 6.35115 1.75621 6.28797Z" id="Rectangle" fill="url(#gradient_9)" stroke="none" />
        </g>
        <g id="текст" transform="translate(7.645946 8.159872)">
          <path d="M6.18958 12.6107C9.60798 12.6107 12.3792 9.78771 12.3792 6.30536C12.3792 2.823 9.60798 0 6.18958 0C2.77117 0 0 2.823 0 6.30536C0 9.78771 2.77117 12.6107 6.18958 12.6107Z" transform="translate(33.13243 0)" id="Oval" fill="#D8D8D8" fill-opacity="0.198404953" stroke="none" />
          <path d="M28.7633 0L0 2.66877" transform="translate(0.3640927 4.821743)" id="Path-24" fill="none" stroke="#979797" stroke-opacity="0.190266922" stroke-width="2" />
          <path d="M25.2786 0L0 2.03885" transform="translate(0.2078404 11.1271)" id="Path-24" fill="none" stroke="#979797" stroke-opacity="0.190266922" stroke-width="2" />
        </g>
        <g id="stars" transform="matrix(0.9975641 -0.06975647 0.06975647 0.9975641 30.07246 29.54109)">
          <g id="favorite" transform="translate(31.67606 0)">
            <path d="M3.59724 1.95244L1.21448 1.59917L7.09997e-16 0L0 4.56233L2.22316 5.56355L1.9651 3.50694L3.59724 1.95244Z" transform="translate(3.320525 0)" id="Path" fill="url(#gradient_7)" stroke="none" />
            <path d="M2.38275 1.75576L0 2.20289L1.63213 3.51428L1.37408 5.29862L3.59724 4.72933L3.59724 0L2.38275 1.75576Z" id="Path" fill="url(#gradient_8)" stroke="none" />
          </g>
          <g id="favorite" transform="translate(24.03012 0)">
            <path d="M3.59724 1.95244L1.21448 1.59917L7.09997e-16 0L0 4.56233L2.22316 5.56355L1.9651 3.50694L3.59724 1.95244Z" transform="translate(3.320525 0)" id="Path" fill="url(#gradient_7)" stroke="none" />
            <path d="M2.38275 1.75576L0 2.20289L1.63213 3.51428L1.37408 5.29862L3.59724 4.72933L3.59724 0L2.38275 1.75576Z" id="Path" fill="url(#gradient_8)" stroke="none" />
          </g>
          <g id="favorite" transform="translate(16.02008 0)">
            <path d="M3.59724 1.95244L1.21448 1.59917L7.09997e-16 0L0 4.56233L2.22316 5.56355L1.9651 3.50694L3.59724 1.95244Z" transform="translate(3.320525 0)" id="Path" fill="url(#gradient_7)" stroke="none" />
            <path d="M2.38275 1.75576L0 2.20289L1.63213 3.51428L1.37408 5.29862L3.59724 4.72933L3.59724 0L2.38275 1.75576Z" id="Path" fill="url(#gradient_8)" stroke="none" />
          </g>
          <g id="favorite" transform="translate(7.645946 0)">
            <path d="M3.59724 1.95244L1.21448 1.59917L7.09997e-16 0L0 4.56233L2.22316 5.56355L1.9651 3.50694L3.59724 1.95244Z" transform="translate(3.320525 0)" id="Path" fill="url(#gradient_7)" stroke="none" />
            <path d="M2.38275 1.75576L0 2.20289L1.63213 3.51428L1.37408 5.29862L3.59724 4.72933L3.59724 0L2.38275 1.75576Z" id="Path" fill="url(#gradient_8)" stroke="none" />
          </g>
          <g id="favorite">
            <path d="M3.59724 1.95244L1.21448 1.59917L7.09997e-16 0L0 4.56233L2.22316 5.56355L1.9651 3.50694L3.59724 1.95244Z" transform="translate(3.320525 0)" id="Path" fill="url(#gradient_7)" stroke="none" />
            <path d="M2.38275 1.75576L0 2.20289L1.63213 3.51428L1.37408 5.29862L3.59724 4.72933L3.59724 0L2.38275 1.75576Z" id="Path" fill="url(#gradient_8)" stroke="none" />
          </g>
        </g>
      </g>
      <g id="Group-5" transform="translate(25.85058 63.42446)">
        <g id="Group-2" />
        <g id="rev_1">
          <g filter="url(#filter_1)">
            <path d="M1.55275 1.80507L51.2407 0.00510293C52.0982 -0.0525756 52.7934 0.385323 52.7934 0.983178L52.7934 38.3442C52.7934 38.9421 52.0982 39.4735 51.2407 39.5312L1.55275 37.1334C0.695189 37.1911 0 36.7532 0 36.1554L0 2.99202C0 2.39417 0.695189 1.86275 1.55275 1.80507Z" id="Rectangle" fill="url(#gradient_9)" stroke="none" />
          </g>
          <g clip-path="url(#mask_5)">
            <path d="M5.27934 10.7562C8.19505 10.7562 10.5587 8.34834 10.5587 5.3781C10.5587 2.40786 8.19505 0 5.27934 0C2.36364 0 0 2.40786 0 5.3781C0 8.34834 2.36364 10.7562 5.27934 10.7562Z" transform="translate(35.31699 8.530775)" id="Oval" fill="#D8D8D8" fill-opacity="0.198404953" stroke="none" />
            <g id="звезды" transform="translate(9.102317 25.22142)">
              <g id="favorite" transform="translate(31.67606 0)">
                <path d="M3.59724 1.95244L1.21448 1.59917L7.09997e-16 0L0 4.56233L2.22316 5.56355L1.9651 3.50694L3.59724 1.95244Z" transform="translate(3.320525 0)" id="Path" fill="url(#gradient_7)" stroke="none" />
                <path d="M2.38275 1.75576L0 2.20289L1.63213 3.51428L1.37408 5.29862L3.59724 4.72933L3.59724 0L2.38275 1.75576Z" id="Path" fill="url(#gradient_8)" stroke="none" />
              </g>
              <g id="favorite" transform="translate(24.03012 0)">
                <path d="M3.59724 1.95244L1.21448 1.59917L7.09997e-16 0L0 4.56233L2.22316 5.56355L1.9651 3.50694L3.59724 1.95244Z" transform="translate(3.320525 0)" id="Path" fill="url(#gradient_7)" stroke="none" />
                <path d="M2.38275 1.75576L0 2.20289L1.63213 3.51428L1.37408 5.29862L3.59724 4.72933L3.59724 0L2.38275 1.75576Z" id="Path" fill="url(#gradient_8)" stroke="none" />
              </g>
              <g id="favorite" transform="translate(16.02008 0)">
                <path d="M3.59724 1.95244L1.21448 1.59917L7.09997e-16 0L0 4.56233L2.22316 5.56355L1.9651 3.50694L3.59724 1.95244Z" transform="translate(3.320525 0)" id="Path" fill="url(#gradient_7)" stroke="none" />
                <path d="M2.38275 1.75576L0 2.20289L1.63213 3.51428L1.37408 5.29862L3.59724 4.72933L3.59724 0L2.38275 1.75576Z" id="Path" fill="url(#gradient_8)" stroke="none" />
              </g>
              <g id="favorite" transform="translate(7.645946 0)">
                <path d="M3.59724 1.95244L1.21448 1.59917L7.09997e-16 0L0 4.56233L2.22316 5.56355L1.9651 3.50694L3.59724 1.95244Z" transform="translate(3.320525 0)" id="Path" fill="url(#gradient_7)" stroke="none" />
                <path d="M2.38275 1.75576L0 2.20289L1.63213 3.51428L1.37408 5.29862L3.59724 4.72933L3.59724 0L2.38275 1.75576Z" id="Path" fill="url(#gradient_8)" stroke="none" />
              </g>
              <g id="favorite">
                <path d="M3.59724 1.95244L1.21448 1.59917L7.09997e-16 0L0 4.56233L2.22316 5.56355L1.9651 3.50694L3.59724 1.95244Z" transform="translate(3.320525 0)" id="Path" fill="url(#gradient_7)" stroke="none" />
                <path d="M2.38275 1.75576L0 2.20289L1.63213 3.51428L1.37408 5.29862L3.59724 4.72933L3.59724 0L2.38275 1.75576Z" id="Path" fill="url(#gradient_8)" stroke="none" />
              </g>
            </g>
            <path d="M20.7275 0.185452L0 0.185452" transform="translate(8.764018 11.31255)" id="Path-25" fill="none" stroke="#979797" stroke-opacity="0.4070173" stroke-width="1" stroke-linecap="round" stroke-linejoin="round" />
            <path d="M15.0841 0.185452L0 0.185452" transform="translate(8.764018 17.247)" id="Path-25" fill="none" stroke="#979797" stroke-opacity="0.4070173" stroke-width="1" stroke-linecap="round" stroke-linejoin="round" />
          </g>
        </g>
      </g>
    </g>
    <g id="man_Reviews" transform="translate(128 38)">
      <g id="Group-21" transform="matrix(-1 0 0 1 97 0)">
        <path d="M2.33704 2.73933C2.33704 2.73933 -1.15535 5.61319 0.571162 5.61319C2.29767 5.61319 4.29614 13.7956 6.5259 13.9679C8.75567 14.1402 10.5752 6.38609 10.5752 6.38609L9.25239 1.31794L2.33704 0L2.33704 2.73933Z" transform="translate(31.3609 24.63419)" id="Path-12" fill="url(#gradient_10)" stroke="none" />
        <g id="Path-20">
          <use stroke="none" fill="url(#gradient_11)" xlink:href="#path_7" />
          <use stroke="none" fill="url(#gradient_12)" xlink:href="#path_7" />
        </g>
        <g id="Group-16" transform="translate(25.89098 179.4251)">
          <path d="M0 4.33813C0 4.33813 0 14.0319 0 14.0319C0 14.0319 6.47631 12.4923 9.76325 14.0319C13.0502 15.5716 20.3847 15.3863 20.3847 14.0319C20.3847 12.6776 23.567 7.52584 19.3477 7.52584C15.1285 7.52584 13.1988 8.49744 10.7677 5.68316C8.33665 2.86887 6.98697 0 6.98697 0C6.98697 0 6.98697 1.00285 4.18364 2.72452C1.3803 4.4462 0 4.33813 0 4.33813Z" transform="translate(0.3169422 0.3360774)" id="Path-19" fill="#E6E2E2" stroke="none" />
          <g clip-path="url(#mask_6)">
            <path d="M0 4.6742C0 4.6742 0 14.368 0 14.368C0 14.368 6.47631 12.8284 9.76325 14.368C13.0502 15.9077 21.4787 15.7224 21.4787 14.368C21.4787 13.0137 24.661 7.86191 20.4417 7.86191C16.2225 7.86191 13.1988 8.83352 10.7677 6.01923C8.33665 3.20494 6.46562 0 6.46562 0C6.46562 0 8.36728 1.447 4.18364 3.0606C0 4.6742 0 4.6742 0 4.6742Z" transform="translate(0.3169422 -1.470698)" id="Path-19" fill="url(#gradient_13)" stroke="none" />
          </g>
        </g>
        <g id="Path-20">
          <use stroke="none" fill="url(#gradient_11)" xlink:href="#path_9" />
          <use stroke="none" fill="url(#gradient_12)" xlink:href="#path_9" />
        </g>
        <g id="Group-16" transform="translate(9.481203 185.3079)">
          <path d="M0 4.33813C0 4.33813 0 14.0319 0 14.0319C0 14.0319 6.47631 12.4923 9.76325 14.0319C13.0502 15.5716 20.3847 15.3863 20.3847 14.0319C20.3847 12.6776 23.567 7.52584 19.3477 7.52584C15.1285 7.52584 13.1988 8.49744 10.7677 5.68316C8.33665 2.86887 6.98697 0 6.98697 0C6.98697 0 6.98697 1.00285 4.18364 2.72452C1.3803 4.4462 0 4.33813 0 4.33813Z" transform="translate(0.3169422 0.3360774)" id="Path-19" fill="#E6E2E2" stroke="none" />
          <g clip-path="url(#mask_6)">
            <path d="M0 4.6742C0 4.6742 0 14.368 0 14.368C0 14.368 6.47631 12.8284 9.76325 14.368C13.0502 15.9077 21.4787 15.7224 21.4787 14.368C21.4787 13.0137 24.661 7.86191 20.4417 7.86191C16.2225 7.86191 13.1988 8.83352 10.7677 6.01923C8.33665 3.20494 6.46562 0 6.46562 0C6.46562 0 8.36728 1.447 4.18364 3.0606C0 4.6742 0 4.6742 0 4.6742Z" transform="translate(0.3169422 -1.470698)" id="Path-19" fill="url(#gradient_13)" stroke="none" />
          </g>
        </g>
        <path d="M0 9.7481C0 9.7481 0 36.0656 0 51.0484C0 66.0312 0 93.1666 0 95.6678C0 98.1691 13.9879 98.1691 13.9879 98.1691L29.9023 9.7481L5.85193 -3.02507e-31L0 9.7481Z" transform="translate(23.33835 85.30046)" id="Path-4" fill="url(#gradient_14)" stroke="none" />
        <g id="Path-4">
          <use stroke="none" fill="url(#gradient_15)" xlink:href="#path_10" />
          <use stroke="none" fill="url(#gradient_16)" xlink:href="#path_10" />
        </g>
        <path d="M22.6318 0C22.6318 0 26.5401 10.3435 28.416 9.12857C30.2918 7.91367 31.5134 2.29037 33.2562 2.29037C34.9989 2.29037 34.5212 0.127699 42.6739 4.62814C50.8265 9.12857 60.0919 16.7662 60.0919 16.7662L68.3827 21.7009L74.1756 9.12857C74.1756 9.12857 81.3457 11.3816 81.4688 14.9066C81.8239 25.0716 74.6869 36.7846 73.2639 36.7846C70.3893 36.7846 59.5891 30.3777 59.5891 30.3777L42.6739 28.4726L44.7966 72.0426C44.7966 72.0426 -2.58571 70.7704 0.14925 60.6663C2.88421 50.5622 6.03885 11.8344 6.03885 11.8344L17.9809 0L22.6318 0Z" transform="translate(9.696614 28.31093)" id="свитер" fill="url(#gradient_17)" stroke="none" />
        <g id="Path-2">
          <use stroke="none" fill="url(#gradient_11)" xlink:href="#path_11" />
          <use stroke="none" fill="url(#gradient_12)" xlink:href="#path_11" />
        </g>
        <g id="Path-2">
          <use stroke="none" fill="url(#gradient_11)" xlink:href="#path_12" />
          <use stroke="none" fill="url(#gradient_12)" xlink:href="#path_12" />
        </g>
        <path d="M3.02299 0.00299218L4.68409 -1.45994e-05Q4.83785 -0.000292924 4.98921 0.0134149Q5.14057 0.0271227 5.2883 0.0547049Q5.43603 0.082287 5.57892 0.123519Q5.7218 0.16475 5.85869 0.219295Q5.99557 0.273839 6.12533 0.341252Q6.25509 0.408665 6.37668 0.488396Q6.49826 0.568128 6.61067 0.659527Q6.72308 0.750926 6.8254 0.853248Q6.92773 0.95557 7.01913 1.06798Q7.11053 1.18039 7.19026 1.30197Q7.27 1.42355 7.33741 1.55331Q7.40482 1.68307 7.45937 1.81996Q7.51392 1.95684 7.55515 2.09973Q7.59638 2.24261 7.62397 2.39034Q7.65155 2.53807 7.66526 2.68943Q7.67897 2.84079 7.6787 2.99455L7.66108 12.798Q7.6608 12.9518 7.64655 13.1032Q7.6323 13.2546 7.60418 13.4024Q7.57607 13.5502 7.53432 13.6933Q7.49257 13.8363 7.43753 13.9734Q7.38249 14.1105 7.31461 14.2405Q7.24673 14.3705 7.16656 14.4924Q7.08639 14.6142 6.99459 14.727Q6.90278 14.8397 6.80009 14.9424Q6.6974 15.0451 6.58466 15.1369Q6.47192 15.2287 6.35005 15.3089Q6.22818 15.3891 6.09817 15.4569Q5.96817 15.5248 5.83109 15.5799Q5.69401 15.6349 5.55097 15.6767Q5.40793 15.7184 5.26011 15.7465Q5.11228 15.7746 4.96087 15.7889Q4.80946 15.8031 4.65569 15.8034L2.99459 15.8064Q2.84083 15.8067 2.68947 15.793Q2.53811 15.7793 2.39038 15.7517Q2.24265 15.7241 2.09976 15.6829Q1.95688 15.6417 1.81999 15.5871Q1.68311 15.5326 1.55335 15.4652Q1.42359 15.3978 1.30201 15.318Q1.18042 15.2383 1.06801 15.1469Q0.9556 15.0555 0.853277 14.9532Q0.750953 14.8509 0.659553 14.7384Q0.568152 14.626 0.488419 14.5045Q0.408686 14.3829 0.341271 14.2531Q0.273857 14.1233 0.21931 13.9865Q0.164764 13.8496 0.12353 13.7067Q0.082297 13.5638 0.0547129 13.4161Q0.0271288 13.2684 0.0134189 13.117Q-0.000290908 12.9656 -1.46343e-05 12.8119L0.0175999 3.00842Q0.0178762 2.85466 0.0321301 2.70325Q0.0463839 2.55183 0.0744991 2.40401Q0.102614 2.25618 0.144361 2.11314Q0.186109 1.9701 0.241147 1.83302Q0.296186 1.69594 0.364067 1.56594Q0.431949 1.43593 0.512119 1.31406Q0.592289 1.19219 0.684095 1.07945Q0.7759 0.966706 0.878592 0.864013Q0.981283 0.76132 1.09402 0.669513Q1.20676 0.577706 1.32863 0.497534Q1.4505 0.417362 1.58051 0.349479Q1.71051 0.281596 1.84759 0.226555Q1.98467 0.171515 2.12771 0.129766Q2.27075 0.0880165 2.41857 0.0598994Q2.5664 0.0317822 2.71781 0.0175264Q2.86922 0.00327051 3.02299 0.00299218Z" transform="matrix(-0.9743701 0.224951 0.224951 0.9743701 49.11723 75.37978)" id="Rectangle" fill="url(#gradient_18)" stroke="none" />
        <g id="Path-2">
          <use stroke="none" fill="url(#gradient_11)" xlink:href="#path_13" />
          <use stroke="none" fill="url(#gradient_12)" xlink:href="#path_13" />
        </g>
        <path d="M31.3218 0.723828C30.3036 0.723828 20.6738 -2.46278 16.3316 4.53629C11.9895 11.5354 9.23986 13.9714 6.45602 20.9748C3.67218 27.9781 -3.15738 40.1668 1.69421 41.8931C6.5458 43.6194 4.27194 44.9195 14.5865 47.8724C24.901 50.8253 32.6372 61.034 32.6372 61.034L39.7481 50.9299C39.7481 50.9299 32.1327 44.9606 22.3183 37.8748C21.4264 37.2309 19.3726 34.2475 18.5308 30.517C18.4512 30.1643 22.3054 26.6305 22.3183 26.2906C22.4592 22.579 24.6437 20.0073 25.2539 16.1328C26.9802 5.17218 32.34 0.723828 31.3218 0.723828Z" transform="translate(0 27.94325)" id="Path-13" fill="url(#gradient_19)" stroke="none" />
        <path d="M1.69377 6.24332C1.69377 6.24332 -0.564589 8.09671 0.188196 11.3086C0.940981 14.5205 1.69377 13.6994 1.69377 13.6994C1.69377 13.6994 0.208918 19.6838 3.055 21.0726C5.90107 22.4614 15.1474 28.2095 15.1474 22.5701C15.1474 16.9307 16.2843 14.2591 16.2843 11.3086C16.2843 8.35819 19.6756 5.40486 15.1474 3.85905C10.6193 2.31324 8.99724 -1.89488 6.02612 0.982085C3.055 3.85905 1.69377 6.24332 1.69377 6.24332Z" transform="translate(28.80827 2.206047)" id="Path-9" fill="url(#gradient_10)" stroke="none" />
        <g id="лицо" transform="matrix(0.9702957 0.2419219 -0.2419219 0.9702957 35.74289 9.579492)">
          <path d="M0.767573 0.648051C1.06172 0.812036 1.39572 0.913491 1.73853 0.901696C2.08368 0.899036 2.41478 0.78926 2.73592 0.658683C2.89121 0.583249 3.04534 0.502231 3.19829 0.418677C3.34656 0.327514 3.49072 0.231281 3.64661 0.143152C3.52705 0.264221 3.39577 0.377187 3.2686 0.495731C3.12561 0.598055 2.97734 0.697343 2.82438 0.792068C2.50148 0.960731 2.13581 1.08428 1.74202 1.10277C1.34941 1.09942 0.960911 0.980802 0.663252 0.773155C0.367937 0.563473 0.137087 0.297817 -3.10928e-13 -5.01629e-13C0.218545 0.255015 0.475183 0.480509 0.767573 0.648051Z" transform="matrix(-0.9998477 0.01745241 0.01745241 0.9998477 7.413148 11.28057)" id="Fill-146" fill="#A64708" stroke="none" />
          <path d="M0.827102 0.410965C1.09148 0.574695 1.35286 0.63611 1.66154 0.625963C1.97231 0.624875 2.27014 0.562208 2.55965 0.434322C2.69968 0.360307 2.8616 0.382001 2.99954 0.299933C3.13329 0.210309 3.26336 0.115644 3.40396 0.029058C3.29598 0.148431 3.17747 0.259726 3.06263 0.376563C2.9336 0.477266 2.79983 0.574937 2.66185 0.668069C2.37065 0.833668 2.04107 0.954394 1.68647 0.970942C1.33298 0.965868 0.913293 0.991349 0.645874 0.78436C0.380571 0.575364 0.137385 0.591491 0.0147912 0.295916C-0.107803 0.000340833 0.564315 0.243719 0.827102 0.410965Z" transform="matrix(0.9781476 -0.2079117 -0.2079117 -0.9781476 5.641931 1.975326)" id="Fill-146" fill="#2C2B3C" stroke="none" />
          <path d="M0.82792 0.413942C1.09239 0.577013 1.35402 0.637911 1.66313 0.627264C1.97431 0.625661 2.27265 0.562582 2.56275 0.434386C2.7031 0.360237 2.86519 0.381633 3.00346 0.299445C3.13754 0.209718 3.26794 0.114964 3.40887 0.0282596C3.30054 0.147652 3.18169 0.258995 3.06651 0.375868C2.93714 0.47665 2.80303 0.574413 2.66471 0.66765C2.37285 0.833512 2.04262 0.954625 1.68752 0.97174C1.33357 0.967261 0.913271 0.993407 0.645834 0.787139C0.38052 0.578864 0.13698 0.595374 0.0147085 0.300398C-0.107563 0.00542244 0.565056 0.247357 0.82792 0.413942Z" transform="matrix(-0.8910065 0.4539905 -0.4539905 -0.8910065 3.552633 1.783126)" id="Fill-146" fill="#2C2B3C" stroke="none" />
          <path d="M0 0C0.206325 0.295438 0.392928 0.592522 0.581047 0.883845C0.769926 1.17023 0.961838 1.46155 1.18333 1.68128C1.25388 1.75288 1.26829 1.743 1.39269 1.84669C1.53302 2.04502 1.4109 2.17999 1.37752 2.25487C1.26981 2.42358 1.14465 2.54702 1.01797 2.67046C0.760065 2.91076 0.483953 3.11979 0.196464 3.30907C0.43844 3.05643 0.678142 2.80378 0.900396 2.54044C1.01039 2.41041 1.12037 2.27216 1.19016 2.13308L1.22733 2.04173L1.01873 1.91006C0.718345 1.6747 0.526432 1.35539 0.358793 1.03444C0.195705 0.70938 0.0690278 0.364565 0 0" transform="translate(5.817606 5.18844)" id="Fill-147" fill="#2C2B3C" fill-opacity="0.4597982" stroke="none" />
          <path d="M0.547345 1.47008C0.849566 1.46962 1.09451 1.14016 1.09444 0.734207C1.09437 0.328255 0.849313 -0.000460409 0.547093 4.84071e-07C0.244872 0.000461377 -6.96498e-05 0.329924 1.48567e-08 0.735876C6.96795e-05 1.14183 0.245124 1.47054 0.547345 1.47008Z" transform="matrix(0.9743701 -0.224951 0.224951 0.9743701 1.716417 3.545299)" id="Oval" fill="#2C2B3C" stroke="none" />
          <path d="M0.547345 1.47008C0.849566 1.46962 1.09451 1.14016 1.09444 0.734207C1.09437 0.328255 0.849313 -0.000460409 0.547093 4.84073e-07C0.244872 0.000461377 -6.96498e-05 0.329924 1.48565e-08 0.735876C6.96795e-05 1.14183 0.245124 1.47054 0.547345 1.47008Z" transform="matrix(0.9743701 -0.224951 0.224951 0.9743701 6.354814 2.314356)" id="Oval" fill="#2C2B3C" stroke="none" />
        </g>
        <path d="M0.249046 9.14228C0.249046 7.79438 -0.995931 2.24982 2.08126 1.06781C5.15845 -0.114211 4.44337 -0.57883 7.44969 1.06781C10.456 2.71444 14.1073 1.06781 15.093 1.06781C16.0787 1.06781 16.6421 1.41178 16.6421 3.43902C16.6421 5.46625 20.8328 2.39811 18.9768 6.86909C17.1207 11.3401 17.1292 12.2765 15.093 11.8083C13.0567 11.3401 11.4699 7.77969 6.77556 6.86909C2.08126 5.95849 0.249046 10.4902 0.249046 9.14228Z" transform="translate(29.90226 -2.273737E-13)" id="Path-11" fill="url(#gradient_20)" stroke="none" />
        <g clip-path="url(#mask_7)">
          <g id="Path-11">
            <use stroke="none" fill="url(#gradient_20)" xlink:href="#path_15" />
            <use stroke="none" fill="url(#gradient_4)" xlink:href="#path_15" />
          </g>
          <path d="M25.3998 0C25.3998 0 29.3081 10.3435 31.184 9.12857C33.0599 7.91367 34.2815 2.29037 36.0242 2.29037C37.7669 2.29037 37.2892 0.127699 45.4419 4.62814C53.5946 9.12857 62.8599 16.7662 62.8599 16.7662L71.1507 21.7009C71.1507 21.7009 80.1968 32.9654 78.9894 34.1138C77.782 35.2622 68.6092 38.8926 65.7346 38.8926C62.8599 38.8926 54.666 36.7846 54.666 36.7846L46.7198 34.1138L36.0242 36.7846L0 40.8119L8.8069 11.8344L20.749 0L25.3998 0Z" transform="translate(6.928571 27.94325)" id="свитер" fill="url(#gradient_21)" stroke="none" />
          <path d="M31.3218 0.723828C30.3036 0.723828 20.6738 -2.46278 16.3316 4.53629C11.9895 11.5354 9.23986 13.9714 6.45602 20.9748C3.67218 27.9781 -3.15738 40.1668 1.69421 41.8931C6.5458 43.6194 7.97085 42.8731 18.2854 45.826C28.5999 48.7789 39.2864 43.5542 39.2864 43.5542L41.5793 48.533L46.6767 40.1145C46.6767 40.1145 27.3497 32.5527 25.2539 32.5527C24.2683 32.5527 22.0978 32.7209 21.2559 28.9904C21.1763 28.6377 22.3054 26.6305 22.3183 26.2906C22.4592 22.579 24.6437 20.0073 25.2539 16.1328C26.9802 5.17218 32.34 0.723828 31.3218 0.723828Z" transform="translate(0 27.57558)" id="Path-13" fill="url(#gradient_22)" stroke="none" />
        </g>
      </g>
      <path d="M1.03451 0C1.03451 0 -1.03451 6.21456 1.03451 7.5481C3.10354 8.88164 7.93887 9.20335 7.93887 7.5481C7.93887 5.89284 8.9424 0 8.9424 0L1.03451 0Z" transform="translate(62.72181 45.9593)" id="Path-23" fill="url(#gradient_23)" stroke="none" />
    </g>
  </g>
</svg>