<?xml version="1.0" encoding="utf-8"?>
<svg width="37px" height="17px" viewBox="0 0 37 17" version="1.1" xmlns:xlink="http://www.w3.org/1999/xlink" xmlns="http://www.w3.org/2000/svg">
  <desc>Created with Lunacy</desc>
  <path d="M36.6731 7.68776L29.5311 0.336394C29.0954 -0.112131 28.3887 -0.112131 27.9529 0.336394C27.5171 0.785011 27.5171 1.51224 27.9529 1.96086L33.1899 7.35134L1.11594 7.35134C0.499672 7.35134 0 7.86566 0 8.49999C0 9.13423 0.499672 9.64864 1.11594 9.64864L33.1899 9.64864L27.9531 15.0391C27.5173 15.4877 27.5173 16.215 27.9531 16.6636C28.1709 16.8877 28.4566 17 28.7422 17C29.0278 17 29.3134 16.8877 29.5313 16.6636L36.6731 9.31222C37.109 8.86361 37.109 8.13637 36.6731 7.68776Z" id="Path" fill="#3471E2" stroke="none" />
</svg>