<?xml version="1.0" encoding="utf-8"?>
<svg width="240px" height="44px" viewBox="0 0 240 44" version="1.1" xmlns:xlink="http://www.w3.org/1999/xlink" xmlns="http://www.w3.org/2000/svg">
  <desc>Created with Lunacy</desc>
  <defs>
    <linearGradient x1="0.956316" y1="0.253125" x2="0.3959067" y2="1.90213072" id="gradient_1">
      <stop offset="0" stop-color="#61F3AC" />
      <stop offset="1" stop-color="#029AC0" />
    </linearGradient>
    <linearGradient x1="1" y1="0.864616454" x2="0.658346832" y2="0.864616454" id="gradient_2">
      <stop offset="0" stop-color="#FFFFFF" stop-opacity="0" />
      <stop offset="1" stop-color="#FFFFFF" />
    </linearGradient>
    <linearGradient x1="0.781806" y1="0.92381376" x2="0.550334454" y2="0.786369443" id="gradient_3">
      <stop offset="0" stop-color="#FFFFFF" stop-opacity="0" />
      <stop offset="1" stop-color="#FFFFFF" />
    </linearGradient>
    <filter filterUnits="userSpaceOnUse" color-interpolation-filters="sRGB" id="filter_1">
      <feFlood flood-opacity="0" result="BackgroundImageFix" />
      <feColorMatrix in="SourceAlpha" type="matrix" values="0 0 0 0 0 0 0 0 0 0 0 0 0 0 0 0 0 0 127 0" />
      <feOffset dx="0" dy="2" />
      <feGaussianBlur stdDeviation="5" />
      <feColorMatrix type="matrix" values="0 0 0 0 0 0 0 0 0 0 0 0 0 0 0 0 0 0 0.2039216 0" />
      <feBlend mode="normal" in2="BackgroundImageFix" result="effect0_dropShadow" />
      <feBlend mode="normal" in="SourceGraphic" in2="effect0_dropShadow" result="shape" />
    </filter>
    <filter filterUnits="userSpaceOnUse" color-interpolation-filters="sRGB" id="filter_2">
      <feFlood flood-opacity="0" result="BackgroundImageFix" />
      <feColorMatrix in="SourceAlpha" type="matrix" values="0 0 0 0 0 0 0 0 0 0 0 0 0 0 0 0 0 0 127 0" />
      <feOffset dx="0" dy="2" />
      <feGaussianBlur stdDeviation="2" />
      <feColorMatrix type="matrix" values="0 0 0 0 0 0 0 0 0 0 0 0 0 0 0 0 0 0 0.5019608 0" />
      <feBlend mode="normal" in2="BackgroundImageFix" result="effect0_dropShadow" />
      <feBlend mode="normal" in="SourceGraphic" in2="effect0_dropShadow" result="shape" />
    </filter>
    <filter filterUnits="userSpaceOnUse" color-interpolation-filters="sRGB" id="filter_3">
      <feFlood flood-opacity="0" result="BackgroundImageFix" />
      <feColorMatrix in="SourceAlpha" type="matrix" values="0 0 0 0 0 0 0 0 0 0 0 0 0 0 0 0 0 0 127 0" />
      <feOffset dx="0" dy="2" />
      <feGaussianBlur stdDeviation="2" />
      <feColorMatrix type="matrix" values="0 0 0 0 0 0 0 0 0 0 0 0 0 0 0 0 0 0 0.1803922 0" />
      <feBlend mode="normal" in2="BackgroundImageFix" result="effect0_dropShadow" />
      <feBlend mode="normal" in="SourceGraphic" in2="effect0_dropShadow" result="shape" />
    </filter>
    <path d="M4 0L236 0Q236.205 0 236.407 0.0186425Q236.609 0.037285 236.806 0.0744179Q237.003 0.111551 237.193 0.166871Q237.384 0.222192 237.567 0.295249Q237.749 0.368306 237.923 0.458503Q238.096 0.5487 238.258 0.655303Q238.42 0.761905 238.57 0.884043Q238.72 1.00618 238.857 1.14286Q238.994 1.27953 239.116 1.42964Q239.238 1.57974 239.345 1.74204Q239.451 1.90434 239.542 2.07752Q239.632 2.2507 239.705 2.43334Q239.778 2.61598 239.833 2.8066Q239.888 2.99721 239.926 3.19425Q239.963 3.39129 239.981 3.59314Q240 3.79499 240 4L240 40Q240 40.205 239.981 40.4069Q239.963 40.6087 239.926 40.8058Q239.888 41.0028 239.833 41.1934Q239.778 41.384 239.705 41.5667Q239.632 41.7493 239.542 41.9225Q239.451 42.0957 239.345 42.258Q239.238 42.4203 239.116 42.5704Q238.994 42.7205 238.857 42.8571Q238.72 42.9938 238.57 43.116Q238.42 43.2381 238.258 43.3447Q238.096 43.4513 237.922 43.5415Q237.749 43.6317 237.567 43.7048Q237.384 43.7778 237.193 43.8331Q237.003 43.8885 236.806 43.9256Q236.609 43.9627 236.407 43.9814Q236.205 44 236 44L4 44Q3.79499 44 3.59314 43.9814Q3.39129 43.9627 3.19425 43.9256Q2.99721 43.8885 2.8066 43.8331Q2.61598 43.7778 2.43334 43.7048Q2.2507 43.6317 2.07752 43.5415Q1.90434 43.4513 1.74204 43.3447Q1.57974 43.2381 1.42964 43.116Q1.27953 42.9938 1.14286 42.8571Q1.00618 42.7205 0.884043 42.5704Q0.761905 42.4203 0.655303 42.258Q0.5487 42.0957 0.458503 41.9225Q0.368306 41.7493 0.295249 41.5667Q0.222192 41.384 0.166871 41.1934Q0.111551 41.0028 0.0744179 40.8058Q0.037285 40.6087 0.0186425 40.4069Q0 40.205 0 40L0 4Q0 3.79499 0.0186425 3.59314Q0.037285 3.39129 0.0744179 3.19425Q0.111551 2.99721 0.166871 2.8066Q0.222192 2.61598 0.295249 2.43334Q0.368306 2.2507 0.458503 2.07752Q0.5487 1.90434 0.655303 1.74204Q0.761905 1.57974 0.884043 1.42964Q1.00618 1.27953 1.14286 1.14286Q1.27953 1.00618 1.42964 0.884043Q1.57974 0.761905 1.74204 0.655303Q1.90434 0.5487 2.07752 0.458503Q2.2507 0.368306 2.43334 0.295249Q2.61598 0.222192 2.8066 0.166871Q2.99721 0.111551 3.19425 0.0744179Q3.39129 0.037285 3.59314 0.0186425Q3.79499 0 4 0Z" id="path_1" />
    <clipPath id="mask_1">
      <use xlink:href="#path_1" />
    </clipPath>
  </defs>
  <g id="s-button">
    <g id="Group-6">
      <g id="Group-4">
        <g filter="url(#filter_1)">
          <path d="M4 0L236 0Q236.205 0 236.407 0.0186425Q236.609 0.037285 236.806 0.0744179Q237.003 0.111551 237.193 0.166871Q237.384 0.222192 237.567 0.295249Q237.749 0.368306 237.923 0.458503Q238.096 0.5487 238.258 0.655303Q238.42 0.761905 238.57 0.884043Q238.72 1.00618 238.857 1.14286Q238.994 1.27953 239.116 1.42964Q239.238 1.57974 239.345 1.74204Q239.451 1.90434 239.542 2.07752Q239.632 2.2507 239.705 2.43334Q239.778 2.61598 239.833 2.8066Q239.888 2.99721 239.926 3.19425Q239.963 3.39129 239.981 3.59314Q240 3.79499 240 4L240 40Q240 40.205 239.981 40.4069Q239.963 40.6087 239.926 40.8058Q239.888 41.0028 239.833 41.1934Q239.778 41.384 239.705 41.5667Q239.632 41.7493 239.542 41.9225Q239.451 42.0957 239.345 42.258Q239.238 42.4203 239.116 42.5704Q238.994 42.7205 238.857 42.8571Q238.72 42.9938 238.57 43.116Q238.42 43.2381 238.258 43.3447Q238.096 43.4513 237.922 43.5415Q237.749 43.6317 237.567 43.7048Q237.384 43.7778 237.193 43.8331Q237.003 43.8885 236.806 43.9256Q236.609 43.9627 236.407 43.9814Q236.205 44 236 44L4 44Q3.79499 44 3.59314 43.9814Q3.39129 43.9627 3.19425 43.9256Q2.99721 43.8885 2.8066 43.8331Q2.61598 43.7778 2.43334 43.7048Q2.2507 43.6317 2.07752 43.5415Q1.90434 43.4513 1.74204 43.3447Q1.57974 43.2381 1.42964 43.116Q1.27953 42.9938 1.14286 42.8571Q1.00618 42.7205 0.884043 42.5704Q0.761905 42.4203 0.655303 42.258Q0.5487 42.0957 0.458503 41.9225Q0.368306 41.7493 0.295249 41.5667Q0.222192 41.384 0.166871 41.1934Q0.111551 41.0028 0.0744179 40.8058Q0.037285 40.6087 0.0186425 40.4069Q0 40.205 0 40L0 4Q0 3.79499 0.0186425 3.59314Q0.037285 3.39129 0.0744179 3.19425Q0.111551 2.99721 0.166871 2.8066Q0.222192 2.61598 0.295249 2.43334Q0.368306 2.2507 0.458503 2.07752Q0.5487 1.90434 0.655303 1.74204Q0.761905 1.57974 0.884043 1.42964Q1.00618 1.27953 1.14286 1.14286Q1.27953 1.00618 1.42964 0.884043Q1.57974 0.761905 1.74204 0.655303Q1.90434 0.5487 2.07752 0.458503Q2.2507 0.368306 2.43334 0.295249Q2.61598 0.222192 2.8066 0.166871Q2.99721 0.111551 3.19425 0.0744179Q3.39129 0.037285 3.59314 0.0186425Q3.79499 0 4 0Z" id="Rectangle" fill="url(#gradient_1)" stroke="none" />
        </g>
        <g clip-path="url(#mask_1)">
          <g filter="url(#filter_2)">
            <path d="M0 0L116.354 55.7033L116.354 89.1806L0 33.4773L0 0Z" transform="translate(3.380282 -21.6)" id="Rectangle" fill="url(#gradient_2)" fill-opacity="0.07796224" stroke="none" />
          </g>
          <g filter="url(#filter_3)">
            <path d="M0 0L141.706 68.1956L141.706 109.181L0 40.985L0 0Z" transform="translate(79.43662 -79.6)" id="Rectangle" fill="url(#gradient_3)" fill-opacity="0.104422435" stroke="none" />
          </g>
          <g id="TRY-IT-FOR-FREE" fill="#FFFFFF" transform="translate(69.5871 14.4)">
            <path d="M67.8588 13.568Q66.3329 13.568 65.1078 12.91Q63.8829 12.252 63.1898 11.097Q62.4969 9.942 62.4969 8.5Q62.4969 7.058 63.1898 5.903Q63.8829 4.748 65.1078 4.09Q66.3328 3.432 67.8588 3.432Q69.3848 3.432 70.6029 4.09Q71.8209 4.748 72.5209 5.903Q73.2209 7.058 73.2209 8.5Q73.2209 9.942 72.5209 11.097Q71.8209 12.252 70.6029 12.91Q69.3848 13.568 67.8588 13.568ZM3.48685 5.448L6.62285 5.448L6.62285 13.4L8.89085 13.4L8.89085 5.448L12.0268 5.448L12.0268 3.6L3.48685 3.6L3.48685 5.448ZM17.5988 10.67L19.4888 13.4L21.9248 13.4L19.7268 10.25Q20.6928 9.83 21.2178 9.039Q21.7428 8.248 21.7428 7.156Q21.7428 6.064 21.2248 5.266Q20.7068 4.468 19.7478 4.034Q18.7888 3.6 17.4868 3.6L13.2448 3.6L13.2448 13.4L15.5128 13.4L15.5128 10.67L17.5988 10.67ZM28.2388 9.928L28.2388 13.4L25.9708 13.4L25.9708 9.9L22.1768 3.6L24.5848 3.6L27.2028 7.954L29.8208 3.6L32.0468 3.6L28.2388 9.928ZM39.2289 3.6L36.9608 3.6L36.9608 13.4L39.2289 13.4L39.2289 3.6ZM43.5829 5.448L40.4468 5.448L40.4468 3.6L48.9869 3.6L48.9869 5.448L45.8508 5.448L45.8508 13.4L43.5829 13.4L43.5829 5.448ZM56.4349 8.01L56.4349 5.42L61.5729 5.42L61.5729 3.6L54.1669 3.6L54.1669 13.4L56.4349 13.4L56.4349 9.83L60.9709 9.83L60.9709 8.01L56.4349 8.01ZM79.2829 10.67L81.1729 13.4L83.6089 13.4L81.4109 10.25Q82.3769 9.83 82.9019 9.039Q83.4269 8.248 83.4269 7.156Q83.4268 6.064 82.9089 5.266Q82.3909 4.468 81.4319 4.034Q80.4729 3.6 79.1709 3.6L74.9289 3.6L74.9289 13.4L77.1969 13.4L77.1969 10.67L79.2829 10.67ZM91.4489 5.42L91.4489 8.01L95.9849 8.01L95.9849 9.83L91.4489 9.83L91.4489 13.4L89.1809 13.4L89.1809 3.6L96.5869 3.6L96.5869 5.42L91.4489 5.42ZM102.481 10.67L104.371 13.4L106.807 13.4L104.609 10.25Q105.575 9.83 106.1 9.039Q106.625 8.248 106.625 7.156Q106.625 6.064 106.107 5.266Q105.589 4.468 104.63 4.034Q103.671 3.6 102.369 3.6L98.1269 3.6L98.1269 13.4L100.395 13.4L100.395 10.67L102.481 10.67ZM116.005 11.58L116.005 13.4L108.417 13.4L108.417 3.6L115.823 3.6L115.823 5.42L110.671 5.42L110.671 7.548L115.221 7.548L115.221 9.312L110.671 9.312L110.671 11.58L116.005 11.58ZM125.399 13.4L125.399 11.58L120.065 11.58L120.065 9.312L124.615 9.312L124.615 7.548L120.065 7.548L120.065 5.42L125.217 5.42L125.217 3.6L117.811 3.6L117.811 13.4L125.399 13.4ZM67.8588 11.636Q68.7269 11.636 69.4268 11.237Q70.1269 10.838 70.5258 10.124Q70.9249 9.41 70.9249 8.5Q70.9249 7.59 70.5258 6.876Q70.1269 6.162 69.4268 5.763Q68.7269 5.364 67.8588 5.364Q66.9909 5.364 66.2908 5.763Q65.5909 6.162 65.1918 6.876Q64.7929 7.59 64.7929 8.5Q64.7929 9.41 65.1918 10.124Q65.5909 10.838 66.2908 11.237Q66.9909 11.636 67.8588 11.636ZM18.9148 5.889Q19.4468 6.33 19.4468 7.156Q19.4468 7.968 18.9148 8.416Q18.3828 8.864 17.3608 8.864L15.5128 8.864L15.5128 5.448L17.3608 5.448Q18.3828 5.448 18.9148 5.889ZM80.5989 5.889Q81.1309 6.33 81.1309 7.156Q81.1309 7.968 80.5989 8.416Q80.0669 8.864 79.0449 8.864L77.1969 8.864L77.1969 5.448L79.0449 5.448Q80.0669 5.448 80.5989 5.889ZM103.797 5.889Q104.329 6.33 104.329 7.156Q104.329 7.968 103.797 8.416Q103.265 8.864 102.243 8.864L100.395 8.864L100.395 5.448L102.243 5.448Q103.265 5.448 103.797 5.889Z" />
          </g>
        </g>
      </g>
    </g>
  </g>
</svg>