<?xml version="1.0" encoding="UTF-8"?>
<svg width="309px" height="86px" viewBox="0 0 309 86" version="1.1" xmlns="http://www.w3.org/2000/svg" xmlns:xlink="http://www.w3.org/1999/xlink">
    <!-- Generator: Sketch 52.1 (67048) - http://www.bohemiancoding.com/sketch -->
    <title>s button</title>
    <desc>Created with Sketch.</desc>
    <defs>
        <linearGradient x1="95.6316021%" y1="25.3125%" x2="39.590669%" y2="190.213068%" id="linearGradient-1">
            <stop stop-color="#61F3AC" offset="0%"></stop>
            <stop stop-color="#029AC0" offset="100%"></stop>
        </linearGradient>
        <rect id="path-2" x="0" y="0" width="284" height="55" rx="4"></rect>
        <filter x="-5.6%" y="-25.5%" width="111.3%" height="158.2%" filterUnits="objectBoundingBox" id="filter-4">
            <feOffset dx="0" dy="2" in="SourceAlpha" result="shadowOffsetOuter1"></feOffset>
            <feGaussianBlur stdDeviation="5" in="shadowOffsetOuter1" result="shadowBlurOuter1"></feGaussianBlur>
            <feColorMatrix values="0 0 0 0 0   0 0 0 0 0   0 0 0 0 0  0 0 0 0.204398777 0" type="matrix" in="shadowBlurOuter1"></feColorMatrix>
        </filter>
        <linearGradient x1="100%" y1="86.4616444%" x2="65.8346861%" y2="86.4616444%" id="linearGradient-5">
            <stop stop-color="#FFFFFF" stop-opacity="0" offset="0%"></stop>
            <stop stop-color="#FFFFFF" offset="100%"></stop>
        </linearGradient>
        <polygon id="path-6" points="4 -27 141.685665 42.6291247 141.685665 84.4756929 4 14.8465682"></polygon>
        <filter x="-5.1%" y="-4.5%" width="110.2%" height="112.6%" filterUnits="objectBoundingBox" id="filter-7">
            <feOffset dx="0" dy="2" in="SourceAlpha" result="shadowOffsetOuter1"></feOffset>
            <feGaussianBlur stdDeviation="2" in="shadowOffsetOuter1" result="shadowBlurOuter1"></feGaussianBlur>
            <feColorMatrix values="0 0 0 0 0   0 0 0 0 0   0 0 0 0 0  0 0 0 0.5 0" type="matrix" in="shadowBlurOuter1"></feColorMatrix>
        </filter>
        <linearGradient x1="78.1805983%" y1="92.3813775%" x2="55.0334479%" y2="78.6369428%" id="linearGradient-8">
            <stop stop-color="#FFFFFF" stop-opacity="0" offset="0%"></stop>
            <stop stop-color="#FFFFFF" offset="100%"></stop>
        </linearGradient>
        <polygon id="path-9" points="94 -99.5 261.685665 -14.2555597 261.685665 36.9756929 94 -48.2687474"></polygon>
        <filter x="-4.2%" y="-3.7%" width="108.3%" height="110.3%" filterUnits="objectBoundingBox" id="filter-10">
            <feOffset dx="0" dy="2" in="SourceAlpha" result="shadowOffsetOuter1"></feOffset>
            <feGaussianBlur stdDeviation="2" in="shadowOffsetOuter1" result="shadowBlurOuter1"></feGaussianBlur>
            <feColorMatrix values="0 0 0 0 0   0 0 0 0 0   0 0 0 0 0  0 0 0 0.182065217 0" type="matrix" in="shadowBlurOuter1"></feColorMatrix>
        </filter>
    </defs>
    <g id="home-02.08" stroke="none" stroke-width="1" fill="none" fill-rule="evenodd">
        <g id="home-02.08-" transform="translate(-230.000000, -643.000000)">
            <g id="s-button" transform="translate(230.000000, 643.000000)">
                <g id="Group-6" transform="translate(15.000000, 19.000000)">
                    <g id="Group-4">
                        <mask id="mask-3" fill="white">
                            <use xlink:href="#path-2"></use>
                        </mask>
                        <g id="Rectangle">
                            <use fill="black" fill-opacity="1" filter="url(#filter-4)" xlink:href="#path-2"></use>
                            <use fill="url(#linearGradient-1)" fill-rule="evenodd" xlink:href="#path-2"></use>
                        </g>
                        <g id="Rectangle" opacity="0.0779622396" mask="url(#mask-3)">
                            <use fill="black" fill-opacity="1" filter="url(#filter-7)" xlink:href="#path-6"></use>
                            <use fill="url(#linearGradient-5)" fill-rule="evenodd" xlink:href="#path-6"></use>
                        </g>
                        <g id="Rectangle" opacity="0.104422433" mask="url(#mask-3)">
                            <use fill="black" fill-opacity="1" filter="url(#filter-10)" xlink:href="#path-9"></use>
                            <use fill="url(#linearGradient-8)" fill-rule="evenodd" xlink:href="#path-9"></use>
                        </g>
                        <text id="Try-it-for-free" mask="url(#mask-3)" font-family="Montserrat-Bold, Montserrat" font-size="18" font-weight="bold" fill="#FFFFFF">
                            <tspan x="83.678" y="33">TRY IT FOR FREE</tspan>
                        </text>
                    </g>
                </g>
                <g id="Group-40">
                    <path d="M32.2486137,2.76307723 C32.6917771,2.76307723 33.138138,2.91383719 33.5659538,3.2089418 C30.2751615,4.76209016 26.748399,8.67415075 25.2590373,16.4854413 C23.0822287,17.1616158 20.9546605,17.8223935 18.9876031,18.4337732 C20.732759,12.4752264 24.8747065,2.76307723 32.2486137,2.76307723 Z M35.299599,5.65895154 C35.9301316,7.24610108 36.3413208,9.52353878 36.3413208,12.5971174 C36.3413208,12.7542927 36.3394024,12.8979958 36.3387629,13.044265 C33.8396536,13.8198769 31.1250377,14.6628496 28.4040269,15.5083885 C29.9323972,9.59346574 32.7953738,6.73672488 35.299599,5.65895154 Z M42.8723861,11.0151001 C41.732823,11.3692256 40.4365859,11.771466 39.0316363,12.2077076 C39.0322757,11.9363397 39.0335547,11.6694625 39.0335547,11.376924 C39.0335547,8.83004297 38.6811982,6.7797075 38.115893,5.15406606 C40.386706,5.44018921 41.8990892,8.032619 42.8723861,11.0151001 Z M61.3100317,15.548805 C61.2550359,15.1472061 60.9045979,14.9252361 60.6155505,14.9008579 C60.3258635,14.8764797 54.2072664,14.4216337 54.2072664,14.4216337 C54.2072664,14.4216337 49.9578853,10.1900903 49.4917004,9.72177209 C49.024876,9.25345392 48.1136092,9.39523243 47.7599737,9.49980211 C47.7075359,9.51519887 46.8314408,9.7865668 45.3817272,10.2362806 C43.9627089,6.13881729 41.4572047,2.37302593 37.0505102,2.37302593 C36.9283685,2.37302593 36.8030293,2.37879972 36.6776902,2.38521504 C35.4242986,0.722364747 33.8716279,0 32.5306268,0 C22.2643268,0 17.3594731,12.8755422 15.8215105,19.4178829 C11.8324,20.6579638 8.99820031,21.5394284 8.63625152,21.6536211 C6.40956305,22.3548153 6.33921964,22.4247422 6.04761426,24.5296079 C5.82635228,26.1231727 0,71.3261412 0,71.3261412 L45.4009117,79.8591549 L70,74.5203277 C70,74.5203277 61.3650275,15.9510454 61.3100317,15.548805 Z" id="Fill-16" fill="#9FE3C2"></path>
                    <path d="M60.5959559,15.3068366 C60.3056642,15.2826105 54.1742915,14.8306028 54.1742915,14.8306028 C54.1742915,14.8306028 49.9160378,10.6254643 49.4488795,10.1600684 C49.2745763,9.98666064 49.0381135,9.89740664 48.7913975,9.85915493 L45.3521127,79.8591549 L70,74.5542797 C70,74.5542797 61.3469978,16.3504709 61.2918872,15.951378 C61.2367767,15.5516476 60.8856069,15.3310627 60.5959559,15.3068366" id="Fill-18" fill="#69E3C2"></path>
                    <path d="M37.4647887,28.7956427 L34.3969157,37.827932 C34.3969157,37.827932 31.7075129,36.4074749 28.4125577,36.4074749 C23.5804312,36.4074749 23.3378221,39.4077825 23.3378221,40.1637806 C23.3378221,44.2888034 34.2047693,45.869294 34.2047693,55.5314751 C34.2047693,63.1330651 29.3318845,68.028169 22.7613829,68.028169 C14.8769103,68.028169 10.8450704,63.1727534 10.8450704,63.1727534 L12.9560931,56.2714699 C12.9560931,56.2714699 17.1005037,59.7922063 20.5979566,59.7922063 C22.8830109,59.7922063 23.812689,58.0119939 23.812689,56.711882 C23.812689,51.3302763 14.896966,51.0902261 14.896966,42.2486967 C14.896966,34.8071401 20.2951804,27.6056338 31.1918876,27.6056338 C35.3906426,27.6056338 37.4647887,28.7956427 37.4647887,28.7956427" id="Fill-19" fill="#FFFFFE"></path>
                </g>
            </g>
        </g>
    </g>
</svg>