<?xml version="1.0" encoding="UTF-8"?>
<svg width="388px" height="485px" viewBox="0 0 388 485" version="1.1" xmlns="http://www.w3.org/2000/svg" xmlns:xlink="http://www.w3.org/1999/xlink">
    <!-- Generator: Sketch 52.1 (67048) - http://www.bohemiancoding.com/sketch -->
    <title>web</title>
    <desc>Created with Sketch.</desc>
    <defs>
        <linearGradient x1="93.931108%" y1="95.1953125%" x2="0%" y2="0%" id="linearGradient-1">
            <stop stop-color="#2627C5" offset="0%"></stop>
            <stop stop-color="#43BEFF" offset="100%"></stop>
        </linearGradient>
        <path d="M5.1277704,-2.07168062e-16 L22.1468648,2.07168062e-16 C23.9299023,-1.2037061e-16 24.5764748,0.185651222 25.2283266,0.534265408 C25.8801785,0.882879593 26.3917556,1.39445674 26.7403698,2.04630859 C27.088984,2.69816044 27.2746352,3.34473292 27.2746352,5.1277704 L27.2746352,22.8142586 C27.2746352,24.5972961 27.088984,25.2438685 26.7403698,25.8957204 C26.3917556,26.5475722 25.8801785,27.0591494 25.2283266,27.4077636 C24.5764748,27.7563778 23.9299023,27.942029 22.1468648,27.942029 L5.1277704,27.942029 C3.34473292,27.942029 2.69816044,27.7563778 2.04630859,27.4077636 C1.39445674,27.0591494 0.882879593,26.5475722 0.534265408,25.8957204 C0.185651222,25.2438685 8.02470732e-17,24.5972961 -1.38112041e-16,22.8142586 L1.38112041e-16,5.1277704 C-8.02470732e-17,3.34473292 0.185651222,2.69816044 0.534265408,2.04630859 C0.882879593,1.39445674 1.39445674,0.882879593 2.04630859,0.534265408 C2.69816044,0.185651222 3.34473292,1.2037061e-16 5.1277704,-2.07168062e-16 Z" id="path-2"></path>
        <filter x="-34.8%" y="-30.4%" width="169.7%" height="168.0%" filterUnits="objectBoundingBox" id="filter-4">
            <feOffset dx="0" dy="1" in="SourceAlpha" result="shadowOffsetOuter1"></feOffset>
            <feGaussianBlur stdDeviation="3" in="shadowOffsetOuter1" result="shadowBlurOuter1"></feGaussianBlur>
            <feColorMatrix values="0 0 0 0 0   0 0 0 0 0   0 0 0 0 0  0 0 0 0.204398777 0" type="matrix" in="shadowBlurOuter1"></feColorMatrix>
        </filter>
        <linearGradient x1="84.921875%" y1="71.7753233%" x2="21.8986742%" y2="27.3718777%" id="linearGradient-5">
            <stop stop-color="#FFFFFF" stop-opacity="0" offset="0%"></stop>
            <stop stop-color="#FFFFFF" offset="100%"></stop>
        </linearGradient>
        <polygon id="path-6" points="0.00968559489 0.119071146 34.6033703 18.0770188 34.6033703 28.8696071 0.00968559489 10.9116595"></polygon>
        <filter x="-10.1%" y="-8.7%" width="120.2%" height="124.3%" filterUnits="objectBoundingBox" id="filter-7">
            <feOffset dx="0" dy="1" in="SourceAlpha" result="shadowOffsetOuter1"></feOffset>
            <feGaussianBlur stdDeviation="1" in="shadowOffsetOuter1" result="shadowBlurOuter1"></feGaussianBlur>
            <feColorMatrix values="0 0 0 0 0.0134893625   0 0 0 0 0.095688522   0 0 0 0 0.414142219  0 0 0 0.5 0" type="matrix" in="shadowBlurOuter1"></feColorMatrix>
        </filter>
        <linearGradient x1="21.8986742%" y1="27.3718777%" x2="68.3543019%" y2="0%" id="linearGradient-8">
            <stop stop-color="#FFFFFF" stop-opacity="0" offset="0%"></stop>
            <stop stop-color="#FFFFFF" offset="100%"></stop>
        </linearGradient>
        <polygon id="path-9" points="0.00968559489 10.095708 34.6033703 28.0536556 34.6033703 38.8462439 0.00968559489 20.8882963"></polygon>
        <filter x="-10.1%" y="-12.2%" width="120.2%" height="124.3%" filterUnits="objectBoundingBox" id="filter-10">
            <feGaussianBlur stdDeviation="3" in="SourceAlpha" result="shadowBlurInner1"></feGaussianBlur>
            <feOffset dx="0" dy="1" in="shadowBlurInner1" result="shadowOffsetInner1"></feOffset>
            <feComposite in="shadowOffsetInner1" in2="SourceAlpha" operator="arithmetic" k2="-1" k3="1" result="shadowInnerInner1"></feComposite>
            <feColorMatrix values="0 0 0 0 0   0 0 0 0 0.0771245632   0 0 0 0 0.325759991  0 0 0 0.5 0" type="matrix" in="shadowInnerInner1"></feColorMatrix>
        </filter>
        <linearGradient x1="118.746618%" y1="50%" x2="65.8346861%" y2="86.4616444%" id="linearGradient-11">
            <stop stop-color="#FFFFFF" stop-opacity="0" offset="0%"></stop>
            <stop stop-color="#FFFFFF" offset="100%"></stop>
        </linearGradient>
        <polygon id="path-12" points="0.00968559489 20.9335917 34.6033703 38.8915393 34.6033703 49.6841276 0.00968559489 31.72618"></polygon>
        <filter x="-10.1%" y="-8.7%" width="120.2%" height="124.3%" filterUnits="objectBoundingBox" id="filter-13">
            <feOffset dx="0" dy="1" in="SourceAlpha" result="shadowOffsetOuter1"></feOffset>
            <feGaussianBlur stdDeviation="1" in="shadowOffsetOuter1" result="shadowBlurOuter1"></feGaussianBlur>
            <feColorMatrix values="0 0 0 0 0   0 0 0 0 0   0 0 0 0 0  0 0 0 0.5 0" type="matrix" in="shadowBlurOuter1"></feColorMatrix>
        </filter>
    </defs>
    <g id="для-видео" stroke="none" stroke-width="1" fill="none" fill-rule="evenodd">
        <g id="web-mob-copy-2" transform="translate(-2741.000000, -285.000000)">
            <g id="web" transform="translate(2741.000000, 289.000000)">
                <g>
                    <g id="Group-6" transform="translate(220.000000, 99.000000)">
                        <path d="M11.0297484,38.1553571 C11.0297484,39.11478 10.6840344,39.9290929 9.99259605,40.59832 C9.30115769,41.2675471 8.29887763,41.673223 6.98572579,41.8153597 L6.98572579,43.805264 L5.55637298,43.805264 L5.55637298,41.8331267 C4.69643284,41.7739031 3.88298815,41.6140016 3.11601451,41.3534176 C2.34904087,41.0928336 1.73895736,40.7611862 1.28574566,40.3584654 L2.0701466,38.5639981 C2.50011667,38.91934 3.0230454,39.2184149 3.63894847,39.4612318 C4.25485154,39.7040487 4.89398665,39.8550667 5.55637298,39.9142904 L5.55637298,36.3608898 C4.73129528,36.1595294 4.04277245,35.9374441 3.49078385,35.6946272 C2.93879524,35.4518102 2.47687487,35.0964737 2.10500886,34.628607 C1.73314286,34.1607402 1.54721264,33.5418625 1.54721264,32.7719552 C1.54721264,31.8125322 1.89002147,30.9952582 2.57564942,30.3201087 C3.26127737,29.6449592 4.25484196,29.2422445 5.55637298,29.1119525 L5.55637298,27.1042812 L6.98572579,27.1042812 L6.98572579,29.0764185 C7.63649131,29.1119527 8.27272126,29.2244759 8.89443474,29.4139916 C9.51614822,29.6035072 10.0594131,29.8522428 10.5242456,30.1602057 L9.80956916,31.954673 C8.9263874,31.433505 7.98511569,31.1137021 6.98572579,30.9952549 L6.98572579,34.5841895 C7.82242431,34.7855498 8.51675745,35.004674 9.06874606,35.2415686 C9.62073466,35.4784631 10.0855602,35.8308385 10.4632366,36.2987053 C10.840913,36.766572 11.0297484,37.3854498 11.0297484,38.1553571 Z M3.48600434,32.6003047 C3.48600434,32.9972618 3.64783222,33.3160256 3.97149282,33.5566056 C4.29515343,33.7971856 4.7619646,34.0016756 5.37194036,34.1700816 L5.37194036,30.9583542 C4.73706763,31.0545862 4.26403231,31.2470473 3.95282019,31.5357434 C3.64160807,31.8244394 3.48600434,32.1792896 3.48600434,32.6003047 Z M6.9435537,39.9511911 C7.58429158,39.8544154 8.05879317,39.6669153 8.36707271,39.3886851 C8.67535225,39.110455 8.82948971,38.7656967 8.82948971,38.3544 C8.82948971,37.9431033 8.66628534,37.613466 8.33987171,37.3654783 C8.01345808,37.1174905 7.54802339,36.9088211 6.9435537,36.7394636 L6.9435537,39.9511911 Z M17.9273847,34.4509947 C19.0566237,34.5921305 19.918092,34.980248 20.5118156,35.615359 C21.1055391,36.25047 21.4023965,37.0443468 21.4023965,37.9970132 C21.4023965,38.7144534 21.2219538,39.3671966 20.861063,39.9552623 C20.5001722,40.543328 19.9559337,41.0108332 19.2283313,41.357792 C18.5007289,41.7047508 17.6130673,41.8782276 16.5653198,41.8782276 C15.692197,41.8782276 14.8511012,41.7517953 14.0420073,41.4989271 C13.2329134,41.2460588 12.5431567,40.896165 11.9727164,40.449235 L12.9506091,38.6674048 C13.3929914,39.0437669 13.9314091,39.3407356 14.5658784,39.5583199 C15.2003477,39.7759042 15.8551801,39.8846947 16.5303951,39.8846947 C17.3336682,39.8846947 17.9652176,39.7170985 18.4250623,39.3819011 C18.884907,39.0467036 19.1148259,38.5909595 19.1148259,38.0146551 C19.1148259,37.4383507 18.8965485,36.9884872 18.459987,36.665051 C18.0234256,36.3416149 17.3569518,36.1798993 16.4605456,36.1798993 L15.3429539,36.1798993 L15.3429539,34.6097716 L18.1194708,31.2754557 L12.566437,31.2754557 L12.566437,29.3524904 L20.8959877,29.3524904 L20.8959877,30.8873343 L17.9273847,34.4509947 Z M27.4363796,29.3524904 C29.1097766,29.3524904 30.4083829,29.8743909 31.3322376,30.9182076 C32.2560922,31.9620242 32.7180125,33.458139 32.7180125,35.4065967 C32.7180125,36.7751563 32.4681688,37.9436335 31.9684739,38.9120634 C31.4687789,39.8804933 30.7686355,40.6169529 29.8680225,41.1214643 C28.9674095,41.6259756 27.9244572,41.8782276 26.7391343,41.8782276 C26.1116104,41.8782276 25.521863,41.8115403 24.9698744,41.6781637 C24.4178858,41.5447871 23.9385345,41.3505242 23.531806,41.095369 L24.3685004,39.390477 C24.9727826,39.7848077 25.7455551,39.9819701 26.6868409,39.9819701 C27.860543,39.9819701 28.7785734,39.6224387 29.4409597,38.903365 C30.1033461,38.1842913 30.4345343,37.1462892 30.4345343,35.7893276 L30.4345343,35.7719307 C30.0742891,36.1894574 29.6152739,36.5054971 29.0574748,36.7200594 C28.4996758,36.9346217 27.8721614,37.0419013 27.1749126,37.0419013 C26.3730765,37.0419013 25.6525969,36.8882306 25.0134522,36.5808846 C24.3743075,36.2735385 23.8746201,35.835722 23.5143749,35.2674218 C23.1541297,34.6991217 22.9740098,34.0438466 22.9740098,33.301577 C22.9740098,32.5129155 23.1715607,31.8199476 23.5666683,31.2226526 C23.9617759,30.6253575 24.4963253,30.1643454 25.1703324,29.8396024 C25.8443396,29.5148595 26.5996811,29.3524904 27.4363796,29.3524904 Z M27.5149692,35.1335999 C28.2171829,35.1335999 28.7884197,34.9347806 29.2286965,34.5371362 C29.6689734,34.1394918 29.8891085,33.636596 29.8891085,33.028434 C29.8891085,32.4319673 29.6745464,31.937843 29.2454158,31.5460463 C28.8162852,31.1542496 28.2227563,30.9583542 27.4648113,30.9583542 C26.7848901,30.9583542 26.233159,31.148402 25.8096015,31.5285033 C25.3860441,31.9086046 25.1742685,32.4144241 25.1742685,33.045977 C25.1742685,33.6892254 25.3860441,34.1979687 25.8096015,34.5722223 C26.233159,34.9464759 26.8016092,35.1335999 27.5149692,35.1335999 Z M36.0184006,41.8782276 C35.6274119,41.8782276 35.2939265,41.7418272 35.0179345,41.4690225 C34.7419425,41.1962178 34.6039486,40.8508638 34.6039486,40.4329502 C34.6039486,40.0034279 34.7390676,39.6551717 35.0093098,39.3881714 C35.279552,39.121171 35.6159122,38.9876728 36.0184006,38.9876728 C36.4208889,38.9876728 36.7572491,39.121171 37.0274913,39.3881714 C37.2977335,39.6551717 37.4328526,40.0034279 37.4328526,40.4329502 C37.4328526,40.8508638 37.2948586,41.1962178 37.0188666,41.4690225 C36.7428746,41.7418272 36.4093893,41.8782276 36.0184006,41.8782276 Z M43.4668357,29.3524904 C45.1402327,29.3524904 46.4388391,29.8743909 47.3626937,30.9182076 C48.2865483,31.9620242 48.7484687,33.458139 48.7484687,35.4065967 C48.7484687,36.7751563 48.4986249,37.9436335 47.99893,38.9120634 C47.499235,39.8804933 46.7990916,40.6169529 45.8984786,41.1214643 C44.9978656,41.6259756 43.9549133,41.8782276 42.7695904,41.8782276 C42.1420665,41.8782276 41.5523191,41.8115403 41.0003305,41.6781637 C40.4483419,41.5447871 39.9689906,41.3505242 39.5622621,41.095369 L40.3989565,39.390477 C41.0032387,39.7848077 41.7760112,39.9819701 42.717297,39.9819701 C43.8909991,39.9819701 44.8090295,39.6224387 45.4714159,38.903365 C46.1338022,38.1842913 46.4649904,37.1462892 46.4649904,35.7893276 L46.4649904,35.7719307 C46.1047452,36.1894574 45.64573,36.5054971 45.087931,36.7200594 C44.5301319,36.9346217 43.9026175,37.0419013 43.2053687,37.0419013 C42.4035326,37.0419013 41.6830531,36.8882306 41.0439084,36.5808846 C40.4047637,36.2735385 39.9050762,35.835722 39.544831,35.2674218 C39.1845858,34.6991217 39.0044659,34.0438466 39.0044659,33.301577 C39.0044659,32.5129155 39.2020168,31.8199476 39.5971244,31.2226526 C39.992232,30.6253575 40.5267814,30.1643454 41.2007885,29.8396024 C41.8747957,29.5148595 42.6301372,29.3524904 43.4668357,29.3524904 Z M43.5454253,35.1335999 C44.2476391,35.1335999 44.8188758,34.9347806 45.2591526,34.5371362 C45.6994295,34.1394918 45.9195646,33.636596 45.9195646,33.028434 C45.9195646,32.4319673 45.7050025,31.937843 45.2758719,31.5460463 C44.8467413,31.1542496 44.2532124,30.9583542 43.4952675,30.9583542 C42.8153462,30.9583542 42.2636151,31.148402 41.8400577,31.5285033 C41.4165002,31.9086046 41.2047246,32.4144241 41.2047246,33.045977 C41.2047246,33.6892254 41.4165002,34.1979687 41.8400577,34.5722223 C42.2636151,34.9464759 42.8320653,35.1335999 43.5454253,35.1335999 Z M58.7507435,35.3022156 C59.3753622,35.5921646 59.8551757,35.98359 60.1901985,36.4765034 C60.5252212,36.9694168 60.6927301,37.5464068 60.6927301,38.2074907 C60.6927301,38.9497603 60.4911516,39.5992365 60.0879886,40.1559387 C59.6848257,40.7126409 59.1141599,41.1388596 58.3759742,41.4346077 C57.6377885,41.7303557 56.7803702,41.8782276 55.8036937,41.8782276 C54.8270172,41.8782276 53.9724381,41.7303557 53.2399308,41.4346077 C52.5074234,41.1388596 51.9424359,40.7126409 51.5449513,40.1559387 C51.1474667,39.5992365 50.9487273,38.9497603 50.9487273,38.2074907 C50.9487273,37.5464068 51.1133971,36.9694168 51.4427415,36.4765034 C51.7720859,35.98359 52.243382,35.5921646 52.856644,35.3022156 C52.3796624,35.0354624 52.0134142,34.6846293 51.7578884,34.2497057 C51.5023626,33.8147821 51.3746016,33.3131777 51.3746016,32.7448776 C51.3746016,32.0605978 51.5591452,31.4633116 51.9282381,30.9530013 C52.297331,30.4426909 52.8168923,30.0483661 53.4869378,29.770015 C54.1569833,29.4916639 54.9292276,29.3524904 55.8036937,29.3524904 C56.6895166,29.3524904 57.4674391,29.4916639 58.1374846,29.770015 C58.8075301,30.0483661 59.3299306,30.4426909 59.7047018,30.9530013 C60.079473,31.4633116 60.2668558,32.0605978 60.2668558,32.7448776 C60.2668558,33.3131777 60.1362557,33.8118827 59.8750515,34.2410073 C59.6138473,34.6701319 59.2390818,35.0238645 58.7507435,35.3022156 Z M55.8030037,30.9583542 C55.082185,30.9583542 54.5120377,31.1137763 54.0925449,31.4246253 C53.673052,31.7354742 53.4633087,32.1718518 53.4633087,32.733771 C53.4633087,33.2717788 53.673052,33.6991897 54.0925449,34.0160165 C54.5120377,34.3328433 55.082185,34.4912544 55.8030037,34.4912544 C56.5356392,34.4912544 57.1146488,34.3328433 57.5400501,34.0160165 C57.9654513,33.6991897 58.1781487,33.2717788 58.1781487,32.733771 C58.1781487,32.1718518 57.9624972,31.7354742 57.5311876,31.4246253 C57.099878,31.1137763 56.5238225,30.9583542 55.8030037,30.9583542 Z M55.8034917,39.9511911 C56.6308742,39.9511911 57.2858755,39.7799007 57.7685153,39.4373147 C58.2511551,39.0947287 58.4924714,38.6208252 58.4924714,38.01559 C58.4924714,37.4217743 58.2511551,36.9535805 57.7685153,36.6109945 C57.2858755,36.2684085 56.6308742,36.0971181 55.8034917,36.0971181 C54.9761091,36.0971181 54.3268534,36.2684085 53.855705,36.6109945 C53.3845567,36.9535805 53.148986,37.4217743 53.148986,38.01559 C53.148986,38.6208252 53.3845567,39.0947287 53.855705,39.4373147 C54.3268534,39.7799007 54.9761091,39.9511911 55.8034917,39.9511911 Z" id="$39.98" fill="#1D262C" opacity="0.295968192"></path>
                        <path d="M1.51466377,0.420014601 L134.659678,0.420014601 C135.215755,0.420014601 135.666545,0.870804182 135.666545,1.42688131 L135.666545,1.42688131 C135.666545,1.98295844 135.215755,2.43374802 134.659678,2.43374802 L1.51466377,2.43374802 C0.958586638,2.43374802 0.507797057,1.98295844 0.507797057,1.42688131 L0.507797057,1.42688131 C0.507797057,0.870804182 0.958586638,0.420014601 1.51466377,0.420014601 Z" id="Rectangle-Copy" fill="#000124"></path>
                        <path d="M1.51466377,10.4886817 L67.0803041,10.4886817 C67.6363813,10.4886817 68.0871709,10.9394713 68.0871709,11.4955484 L68.0871709,11.4955484 C68.0871709,12.0516255 67.6363813,12.5024151 67.0803041,12.5024151 L1.51466377,12.5024151 C0.958586638,12.5024151 0.507797057,12.0516255 0.507797057,11.4955484 L0.507797057,11.4955484 C0.507797057,10.9394713 0.958586638,10.4886817 1.51466377,10.4886817 Z" id="Rectangle-Copy" fill="#000124"></path>
                        <path d="M1.51466377,58.2311091 L97.923216,58.2311091 C98.4792931,58.2311091 98.9300827,58.6818986 98.9300827,59.2379758 L98.9300827,59.2379758 C98.9300827,59.7940529 98.4792931,60.2448425 97.923216,60.2448425 L1.51466377,60.2448425 C0.958586638,60.2448425 0.507797057,59.7940529 0.507797057,59.2379758 L0.507797057,59.2379758 C0.507797057,58.6818986 0.958586638,58.2311091 1.51466377,58.2311091 Z" id="Rectangle-Copy" fill="#000124" opacity="0.197730655"></path>
                        <path d="M1.51466377,68.2997762 L78.0815976,68.2997762 C78.6376747,68.2997762 79.0884643,68.7505657 79.0884643,69.3066429 L79.0884643,69.3066429 C79.0884643,69.86272 78.6376747,70.3135096 78.0815976,70.3135096 L1.51466377,70.3135096 C0.958586638,70.3135096 0.507797057,69.86272 0.507797057,69.3066429 L0.507797057,69.3066429 C0.507797057,68.7505657 0.958586638,68.2997762 1.51466377,68.2997762 Z" id="Rectangle-Copy" fill="#000124" opacity="0.197730655"></path>
                        <path d="M1.51466377,77.5014739 L97.923216,77.5014739 C98.4792931,77.5014739 98.9300827,77.9522635 98.9300827,78.5083406 L98.9300827,78.5083406 C98.9300827,79.0644177 98.4792931,79.5152073 97.923216,79.5152073 L1.51466377,79.5152073 C0.958586638,79.5152073 0.507797057,79.0644177 0.507797057,78.5083406 L0.507797057,78.5083406 C0.507797057,77.9522635 0.958586638,77.5014739 1.51466377,77.5014739 Z" id="Rectangle-Copy" fill="#000124" opacity="0.197730655"></path>
                        <path d="M1.51466377,87.570141 L48.7120732,87.570141 C49.2681503,87.570141 49.7189399,88.0209305 49.7189399,88.5770077 L49.7189399,88.5770077 C49.7189399,89.1330848 49.2681503,89.5838744 48.7120732,89.5838744 L1.51466377,89.5838744 C0.958586638,89.5838744 0.507797057,89.1330848 0.507797057,88.5770077 L0.507797057,88.5770077 C0.507797057,88.0209305 0.958586638,87.570141 1.51466377,87.570141 Z" id="Rectangle-Copy" fill="#000124" opacity="0.197730655"></path>
                        <path d="M1.51466377,96.4506659 L75.9756979,96.4506659 C76.531775,96.4506659 76.9825646,96.9014555 76.9825646,97.4575327 L76.9825646,97.4575327 C76.9825646,98.0136098 76.531775,98.4643994 75.9756979,98.4643994 L1.51466377,98.4643994 C0.958586638,98.4643994 0.507797057,98.0136098 0.507797057,97.4575327 L0.507797057,97.4575327 C0.507797057,96.9014555 0.958586638,96.4506659 1.51466377,96.4506659 Z" id="Rectangle-Copy" fill="#000124" opacity="0.197730655"></path>
                        <path d="M1.51466377,106.519333 L37.7383141,106.519333 C38.2943912,106.519333 38.7451808,106.970123 38.7451808,107.5262 L38.7451808,107.5262 C38.7451808,108.082277 38.2943912,108.533066 37.7383141,108.533066 L1.51466377,108.533066 C0.958586638,108.533066 0.507797057,108.082277 0.507797057,107.5262 L0.507797057,107.5262 C0.507797057,106.970123 0.958586638,106.519333 1.51466377,106.519333 Z" id="Rectangle-Copy" fill="#000124" opacity="0.197730655"></path>
                    </g>
                    <path d="M62.1115748,165.119884 C67.2189557,165.119884 71.5593407,163.292238 75.1344067,159.634887 C78.7084666,155.977537 80.4959996,151.537596 80.4959996,146.314035 C80.4959996,141.088759 78.7074605,136.648818 75.1344067,132.991125 C71.5593407,129.335147 67.2186203,127.506472 62.1115748,127.506472 C57.0048647,127.506472 52.664815,129.335147 49.089749,132.991125 C45.5160245,136.648475 43.7284915,141.088416 43.7284915,146.314035 C43.7284915,151.537596 45.5150184,155.978566 49.089749,159.634887 C52.664815,163.291209 57.0048647,165.119884 62.1115748,165.119884 Z" id="Path" fill="#C4DAFF"></path>
                    <path d="M83.7764678,191.983795 L71.0865755,179.003499 C70.3765403,178.277215 69.2121735,178.264043 68.4858894,178.974078 C68.4759501,178.983795 68.4661213,178.993624 68.4564049,179.003564 L39.6565165,208.465428 C39.3206213,208.809044 39.132553,209.270478 39.132553,209.750996 L39.132553,225.969823 C39.132553,226.985519 39.9559374,227.808904 40.9716335,227.808904 L172.107669,227.808904 C173.123365,227.808904 173.946749,226.985519 173.946749,225.969823 L173.946749,184.676525 C173.946749,184.196018 173.75869,183.734595 173.422809,183.390981 L135.430613,144.524114 C134.720627,143.797782 133.556261,143.784531 132.829929,144.494517 C132.819962,144.50426 132.810106,144.514117 132.800362,144.524084 L86.4066322,191.983736 C85.6966293,192.710052 84.532263,192.723276 83.8059474,192.013273 C83.7960098,192.003558 83.7861826,191.993732 83.7764678,191.983795 Z" id="Path" fill="#C4DAFF"></path>
                    <rect id="Rectangle" stroke-opacity="0.524598053" stroke="#4A4A4A" stroke-width="1.83908046" x="25.7536179" y="89.7677828" width="161.572067" height="176.302218" rx="12.2605364"></rect>
                    <path d="M264.555483,476.425785 C264.555483,477.136865 264.299889,477.740396 263.788693,478.236397 C263.277497,478.732397 262.536488,479.033065 261.565646,479.13841 L261.565646,480.613236 L260.508893,480.613236 L260.508893,479.151578 C259.87312,479.107685 259.271722,478.989173 258.704681,478.79604 C258.13764,478.602907 257.686591,478.357106 257.351522,478.058627 L257.931447,476.728651 C258.249333,476.992014 258.635947,477.213675 259.091298,477.393639 C259.546649,477.573604 260.019176,477.685532 260.508893,477.729425 L260.508893,475.095809 C259.898894,474.94657 259.389854,474.78197 258.981756,474.602006 C258.573658,474.422041 258.23215,474.158682 257.957221,473.811921 C257.682292,473.46516 257.54483,473.006476 257.54483,472.435856 C257.54483,471.724776 257.798276,471.11905 258.305177,470.618661 C258.812077,470.118271 259.546642,469.819798 260.508893,469.723231 L260.508893,468.235238 L261.565646,468.235238 L261.565646,469.696895 C262.046771,469.723231 262.51715,469.806628 262.976797,469.947089 C263.436444,470.087549 263.838092,470.2719 264.181753,470.500148 L263.653377,471.830124 C263.000421,471.443859 262.304517,471.206836 261.565646,471.119048 L261.565646,473.779001 C262.184236,473.92824 262.697572,474.090644 263.10567,474.26622 C263.513767,474.441795 263.857423,474.702959 264.136648,475.049721 C264.415873,475.396482 264.555483,475.855165 264.555483,476.425785 Z M259.207283,472.356848 C259.207283,472.646547 259.318971,472.879181 259.542351,473.054756 C259.76573,473.230331 260.087908,473.379568 260.508893,473.502471 L260.508893,471.158552 C260.070725,471.228782 259.744252,471.36924 259.529463,471.579931 C259.314675,471.790621 259.207283,472.049591 259.207283,472.356848 Z M261.565646,477.703089 C262.020997,477.632859 262.358209,477.49679 262.577293,477.294879 C262.796377,477.092967 262.905917,476.842776 262.905917,476.544298 C262.905917,476.24582 262.789934,476.006602 262.557962,475.826637 C262.325991,475.646673 261.995222,475.495241 261.565646,475.372339 L261.565646,477.703089 Z M269.800585,473.620984 C270.633963,473.726329 271.269727,474.016024 271.707895,474.490077 C272.146063,474.96413 272.365144,475.556688 272.365144,476.267768 C272.365144,476.803273 272.231977,477.290487 271.965639,477.729425 C271.699302,478.168364 271.297654,478.517314 270.760683,478.776288 C270.223713,479.035262 269.568619,479.164746 268.795381,479.164746 C268.151016,479.164746 267.530288,479.070376 266.933176,478.881633 C266.336065,478.692889 265.827025,478.431725 265.40604,478.098132 L266.127725,476.768155 C266.454203,477.049076 266.851555,477.270736 267.319793,477.433144 C267.788032,477.595551 268.271298,477.676753 268.769607,477.676753 C269.362422,477.676753 269.828506,477.551658 270.167871,477.301463 C270.507236,477.051268 270.676916,476.711096 270.676916,476.280936 C270.676916,475.850777 270.515828,475.514994 270.193645,475.273578 C269.871463,475.032162 269.379605,474.911456 268.718058,474.911456 L267.893275,474.911456 L267.893275,473.739496 L269.942344,471.250729 L265.844205,471.250729 L265.844205,469.815408 L271.991414,469.815408 L271.991414,470.961031 L269.800585,473.620984 Z M281.953242,476.93934 L280.355225,476.93934 L280.355225,479.033066 L278.731435,479.033066 L278.731435,476.93934 L273.782738,476.93934 L273.782738,475.754213 L278.228833,469.815408 L280.020158,469.815408 L275.831808,475.490851 L278.782983,475.490851 L278.782983,473.634152 L280.355225,473.634152 L280.355225,475.490851 L281.953242,475.490851 L281.953242,476.93934 Z M284.376041,479.125242 C284.083929,479.125242 283.834778,479.022093 283.628581,478.815792 C283.422385,478.609491 283.319288,478.348327 283.319288,478.032291 C283.319288,477.707477 283.420237,477.444118 283.622138,477.242206 C283.824039,477.040295 284.075337,476.93934 284.376041,476.93934 C284.676744,476.93934 284.928043,477.040295 285.129944,477.242206 C285.331845,477.444118 285.432794,477.707477 285.432794,478.032291 C285.432794,478.348327 285.329697,478.609491 285.1235,478.815792 C284.917303,479.022093 284.668153,479.125242 284.376041,479.125242 Z M290.909866,473.344454 C291.502681,473.344454 292.035348,473.460771 292.507882,473.693408 C292.980416,473.926045 293.349847,474.257439 293.616184,474.687598 C293.882521,475.117758 294.015688,475.613751 294.015688,476.175592 C294.015688,476.772548 293.869634,477.297071 293.577522,477.749178 C293.28541,478.201284 292.890206,478.550235 292.391897,478.79604 C291.893588,479.041846 291.335147,479.164746 290.716557,479.164746 C289.479377,479.164746 288.519288,478.769708 287.836262,477.979619 C287.153235,477.18953 286.811727,476.057086 286.811727,474.582254 C286.811727,473.546359 286.996442,472.661912 287.365878,471.928885 C287.735313,471.195858 288.252945,470.638415 288.918789,470.256539 C289.584632,469.874662 290.35571,469.683727 291.232046,469.683727 C291.695989,469.683727 292.132003,469.734204 292.5401,469.83516 C292.948198,469.936116 293.302593,470.083158 293.603297,470.276291 L292.98471,471.566763 C292.53795,471.268285 291.966622,471.119048 291.270708,471.119048 C290.402964,471.119048 289.724243,471.391186 289.234526,471.935469 C288.744809,472.479753 288.499954,473.26544 288.499954,474.292556 L288.499954,474.305724 C288.766291,473.989688 289.105652,473.750471 289.518045,473.588063 C289.930438,473.425656 290.394374,473.344454 290.909866,473.344454 Z M290.626347,477.821602 C291.15043,477.821602 291.575704,477.678949 291.902182,477.393639 C292.228661,477.108329 292.391897,476.728654 292.391897,476.2546 C292.391897,475.771768 292.228661,475.389897 291.902182,475.108977 C291.575704,474.828056 291.137543,474.687598 290.587685,474.687598 C290.046419,474.687598 289.606109,474.836835 289.266744,475.135313 C288.927379,475.433791 288.757698,475.811272 288.757698,476.267768 C288.757698,476.715485 288.923083,477.086383 289.253857,477.380471 C289.584631,477.67456 290.042123,477.821602 290.626347,477.821602 Z M302.083093,469.815408 L302.083093,470.961031 L298.577767,479.033066 L296.786442,479.033066 L300.175783,471.263897 L296.631795,471.263897 L296.631795,472.830899 L295.072441,472.830899 L295.072441,469.815408 L302.083093,469.815408 Z" id="$34.67" fill="#1D262C" opacity="0.295968192"></path>
                    <g id="picture" transform="translate(263.790029, 343.322802)" fill="#C4DAFF">
                        <path d="M14.7629119,24.164801 C18.0441575,24.164801 20.8326453,22.9906268 23.1294526,20.6409558 C25.4256135,18.2912848 26.5740171,15.4388372 26.5740171,12.0829516 C26.5740171,8.72596385 25.4249671,5.87351619 23.1294526,3.52362479 C20.8326453,1.17483549 18.0439421,0 14.7629119,0 C11.4820973,0 8.69382493,1.17483549 6.39701765,3.52362479 C4.10107221,5.87329577 2.95266857,8.72574344 2.95266857,12.0829516 C2.95266857,15.4388372 4.10042583,18.2919461 6.39701765,20.6409558 C8.69382493,22.9899655 11.4820973,24.164801 14.7629119,24.164801 Z" id="Path"></path>
                        <path d="M28.2113434,40.9425898 L20.9991349,33.5653328 C20.2890996,32.8390487 19.1247328,32.8258764 18.3984487,33.5359116 C18.3885095,33.5456285 18.3786807,33.5554578 18.3689643,33.5653975 L0.523963507,51.8205721 C0.18806825,52.164188 7.41280431e-15,52.6256218 5.55111512e-15,53.1061398 L-2.22044605e-16,62.600389 C3.96187936e-15,63.6160851 0.823384368,64.4394694 1.83908046,64.4394694 L84.7725309,64.4394694 C85.788227,64.4394694 86.6116114,63.6160851 86.6116114,62.600389 L86.6116114,36.9969959 C86.6116114,36.5164895 86.4235521,36.0550658 86.0876711,35.711452 L62.3370692,11.4140542 C61.6270829,10.6877223 60.462717,10.6744716 59.7363851,11.3844579 C59.7264178,11.3942009 59.7165615,11.404057 59.7068182,11.4140241 L30.8415079,40.9425313 C30.131505,41.668847 28.9671387,41.682071 28.2408231,40.9720681 C28.2308855,40.9623537 28.2210583,40.952527 28.2113434,40.9425898 Z" id="Path"></path>
                    </g>
                    <path d="M259.547707,444.680718 L355.956259,444.680718 C356.512336,444.680718 356.963126,445.131507 356.963126,445.687584 L356.963126,445.687584 C356.963126,446.243661 356.512336,446.694451 355.956259,446.694451 L259.547707,446.694451 C258.99163,446.694451 258.54084,446.243661 258.54084,445.687584 L258.54084,445.687584 C258.54084,445.131507 258.99163,444.680718 259.547707,444.680718 Z" id="Rectangle-Copy" fill="#000124"></path>
                    <path d="M259.547707,454.749385 L306.745116,454.749385 C307.301193,454.749385 307.751983,455.200174 307.751983,455.756251 L307.751983,455.756251 C307.751983,456.312329 307.301193,456.763118 306.745116,456.763118 L259.547707,456.763118 C258.99163,456.763118 258.54084,456.312329 258.54084,455.756251 L258.54084,455.756251 C258.54084,455.200174 258.99163,454.749385 259.547707,454.749385 Z" id="Rectangle-Copy" fill="#000124"></path>
                    <rect id="Rectangle" stroke="#2B41CF" stroke-width="1.83908046" x="255.523489" y="319.406297" width="103.144691" height="112.608102" rx="12.2605364"></rect>
                    <path d="M149.513386,476.425785 C149.513386,477.136865 149.257792,477.740396 148.746596,478.236397 C148.2354,478.732397 147.494392,479.033065 146.523549,479.13841 L146.523549,480.613236 L145.466796,480.613236 L145.466796,479.151578 C144.831023,479.107685 144.229625,478.989173 143.662584,478.79604 C143.095543,478.602907 142.644494,478.357106 142.309425,478.058627 L142.88935,476.728651 C143.207237,476.992014 143.59385,477.213675 144.049201,477.393639 C144.504552,477.573604 144.977079,477.685532 145.466796,477.729425 L145.466796,475.095809 C144.856797,474.94657 144.347757,474.78197 143.939659,474.602006 C143.531562,474.422041 143.190054,474.158682 142.915125,473.811921 C142.640196,473.46516 142.502733,473.006476 142.502733,472.435856 C142.502733,471.724776 142.75618,471.11905 143.26308,470.618661 C143.76998,470.118271 144.504545,469.819798 145.466796,469.723231 L145.466796,468.235238 L146.523549,468.235238 L146.523549,469.696895 C147.004674,469.723231 147.475054,469.806628 147.9347,469.947089 C148.394347,470.087549 148.795995,470.2719 149.139656,470.500148 L148.61128,471.830124 C147.958324,471.443859 147.26242,471.206836 146.523549,471.119048 L146.523549,473.779001 C147.142139,473.92824 147.655475,474.090644 148.063573,474.26622 C148.47167,474.441795 148.815326,474.702959 149.094551,475.049721 C149.373776,475.396482 149.513386,475.855165 149.513386,476.425785 Z M144.165186,472.356848 C144.165186,472.646547 144.276874,472.879181 144.500254,473.054756 C144.723634,473.230331 145.045811,473.379568 145.466796,473.502471 L145.466796,471.158552 C145.028628,471.228782 144.702155,471.36924 144.487367,471.579931 C144.272578,471.790621 144.165186,472.049591 144.165186,472.356848 Z M146.523549,477.703089 C146.9789,477.632859 147.316112,477.49679 147.535196,477.294879 C147.75428,477.092967 147.863821,476.842776 147.863821,476.544298 C147.863821,476.24582 147.747837,476.006602 147.515865,475.826637 C147.283894,475.646673 146.953125,475.495241 146.523549,475.372339 L146.523549,477.703089 Z M153.972367,469.815408 L153.972367,479.033066 L152.297027,479.033066 L152.297027,471.250729 L150.389717,471.250729 L150.389717,469.815408 L153.972367,469.815408 Z M163.019202,469.815408 L163.019202,470.961031 L159.513875,479.033066 L157.722551,479.033066 L161.111892,471.263897 L157.567904,471.263897 L157.567904,472.830899 L156.008549,472.830899 L156.008549,469.815408 L163.019202,469.815408 Z M164.862075,479.125242 C164.569963,479.125242 164.320813,479.022093 164.114616,478.815792 C163.908419,478.609491 163.805323,478.348327 163.805323,478.032291 C163.805323,477.707477 163.906271,477.444118 164.108172,477.242206 C164.310073,477.040295 164.561372,476.93934 164.862075,476.93934 C165.162779,476.93934 165.414077,477.040295 165.615978,477.242206 C165.817879,477.444118 165.918828,477.707477 165.918828,478.032291 C165.918828,478.348327 165.815731,478.609491 165.609535,478.815792 C165.403338,479.022093 165.154187,479.125242 164.862075,479.125242 Z M170.493794,469.683727 C171.730974,469.683727 172.691063,470.078765 173.37409,470.868854 C174.057117,471.658943 174.398625,472.791387 174.398625,474.26622 C174.398625,475.302114 174.21391,476.186561 173.844474,476.919588 C173.475038,477.652615 172.957406,478.210059 172.291563,478.591935 C171.625719,478.973811 170.854641,479.164746 169.978305,479.164746 C169.514363,479.164746 169.078349,479.114269 168.670251,479.013313 C168.262154,478.912358 167.907758,478.765316 167.607055,478.572183 L168.225642,477.281711 C168.672401,477.580189 169.24373,477.729425 169.939643,477.729425 C170.807388,477.729425 171.486109,477.457288 171.975826,476.913004 C172.465543,476.368721 172.710398,475.583033 172.710398,474.555918 L172.710398,474.542749 C172.44406,474.858785 172.1047,475.098003 171.692307,475.26041 C171.279913,475.422817 170.815978,475.504019 170.300486,475.504019 C169.70767,475.504019 169.175004,475.387703 168.702469,475.155065 C168.229935,474.922428 167.860505,474.591035 167.594168,474.160875 C167.32783,473.730716 167.194664,473.234723 167.194664,472.672882 C167.194664,472.075926 167.340717,471.551402 167.632829,471.099296 C167.924941,470.647189 168.320146,470.298239 168.818454,470.052433 C169.316763,469.806628 169.875204,469.683727 170.493794,469.683727 Z M170.622667,474.160875 C171.163933,474.160875 171.604242,474.011638 171.943608,473.71316 C172.282973,473.414682 172.452653,473.037201 172.452653,472.580705 C172.452653,472.132988 172.287269,471.762091 171.956495,471.468002 C171.625721,471.173913 171.168229,471.026871 170.584005,471.026871 C170.059922,471.026871 169.634647,471.169524 169.308169,471.454834 C168.981691,471.740144 168.818454,472.11982 168.818454,472.593873 C168.818454,473.076705 168.981691,473.458576 169.308169,473.739496 C169.634647,474.020417 170.072809,474.160875 170.622667,474.160875 Z M181.834556,474.187211 C182.30709,474.40668 182.670077,474.702959 182.923527,475.076057 C183.176977,475.449154 183.3037,475.885891 183.3037,476.386281 C183.3037,476.948122 183.151203,477.439726 182.846203,477.861106 C182.541204,478.282487 182.109486,478.605102 181.551037,478.82896 C180.992587,479.052819 180.343937,479.164746 179.605065,479.164746 C178.866194,479.164746 178.219691,479.052819 177.665537,478.82896 C177.111384,478.605102 176.683961,478.282487 176.383258,477.861106 C176.082554,477.439726 175.932205,476.948122 175.932205,476.386281 C175.932205,475.885891 176.05678,475.449154 176.305934,475.076057 C176.555089,474.702959 176.911632,474.40668 177.375574,474.187211 C177.01473,473.9853 176.737658,473.719746 176.544348,473.390542 C176.351039,473.061338 176.254386,472.681663 176.254386,472.251503 C176.254386,471.733556 176.393996,471.281456 176.67322,470.895191 C176.952445,470.508925 177.345502,470.210451 177.852402,469.999761 C178.359302,469.789071 178.943517,469.683727 179.605065,469.683727 C180.275204,469.683727 180.863715,469.789071 181.370616,469.999761 C181.877516,470.210451 182.27272,470.508925 182.556241,470.895191 C182.839761,471.281456 182.981519,471.733556 182.981519,472.251503 C182.981519,472.681663 182.882718,473.059144 182.685113,473.383958 C182.487508,473.708772 182.203992,473.976521 181.834556,474.187211 Z M179.605065,471.026871 C179.080982,471.026871 178.666447,471.140994 178.361448,471.369242 C178.056448,471.597489 177.903951,471.91791 177.903951,472.330512 C177.903951,472.725556 178.056448,473.039392 178.361448,473.272029 C178.666447,473.504667 179.080982,473.620984 179.605065,473.620984 C180.13774,473.620984 180.558719,473.504667 180.868014,473.272029 C181.177309,473.039392 181.331954,472.725556 181.331954,472.330512 C181.331954,471.91791 181.175161,471.597489 180.86157,471.369242 C180.547979,471.140994 180.129148,471.026871 179.605065,471.026871 Z M179.605065,477.821602 C180.223655,477.821602 180.713365,477.689922 181.074209,477.42656 C181.435054,477.163197 181.615473,476.798883 181.615473,476.333609 C181.615473,475.877113 181.435054,475.517189 181.074209,475.253826 C180.713365,474.990463 180.223655,474.858783 179.605065,474.858783 C178.986475,474.858783 178.501061,474.990463 178.148808,475.253826 C177.796556,475.517189 177.620432,475.877113 177.620432,476.333609 C177.620432,476.798883 177.796556,477.163197 178.148808,477.42656 C178.501061,477.689922 178.986475,477.821602 179.605065,477.821602 Z" id="$17.98" fill="#1D262C" opacity="0.295968192"></path>
                    <g id="picture" transform="translate(148.747932, 343.322802)" fill="#C4DAFF">
                        <path d="M14.7629119,24.164801 C18.0441575,24.164801 20.8326453,22.9906268 23.1294526,20.6409558 C25.4256135,18.2912848 26.5740171,15.4388372 26.5740171,12.0829516 C26.5740171,8.72596385 25.4249671,5.87351619 23.1294526,3.52362479 C20.8326453,1.17483549 18.0439421,0 14.7629119,0 C11.4820973,0 8.69382493,1.17483549 6.39701765,3.52362479 C4.10107221,5.87329577 2.95266857,8.72574344 2.95266857,12.0829516 C2.95266857,15.4388372 4.10042583,18.2919461 6.39701765,20.6409558 C8.69382493,22.9899655 11.4820973,24.164801 14.7629119,24.164801 Z" id="Path"></path>
                        <path d="M28.2113434,40.9425898 L20.9991349,33.5653328 C20.2890996,32.8390487 19.1247328,32.8258764 18.3984487,33.5359116 C18.3885095,33.5456285 18.3786807,33.5554578 18.3689643,33.5653975 L0.523963507,51.8205721 C0.18806825,52.164188 5.04817943e-15,52.6256218 5.10702591e-15,53.1061398 L0,62.600389 C-3.93515018e-15,63.6160851 0.823384368,64.4394694 1.83908046,64.4394694 L84.7725309,64.4394694 C85.788227,64.4394694 86.6116114,63.6160851 86.6116114,62.600389 L86.6116114,36.9969959 C86.6116114,36.5164895 86.4235521,36.0550658 86.0876711,35.711452 L62.3370692,11.4140542 C61.6270829,10.6877223 60.462717,10.6744716 59.7363851,11.3844579 C59.7264178,11.3942009 59.7165615,11.404057 59.7068182,11.4140241 L30.8415079,40.9425313 C30.131505,41.668847 28.9671387,41.682071 28.2408231,40.9720681 C28.2308855,40.9623537 28.2210583,40.952527 28.2113434,40.9425898 Z" id="Path"></path>
                    </g>
                    <path d="M144.50561,444.680718 L240.914162,444.680718 C241.470239,444.680718 241.921029,445.131507 241.921029,445.687584 L241.921029,445.687584 C241.921029,446.243661 241.470239,446.694451 240.914162,446.694451 L144.50561,446.694451 C143.949533,446.694451 143.498743,446.243661 143.498743,445.687584 L143.498743,445.687584 C143.498743,445.131507 143.949533,444.680718 144.50561,444.680718 Z" id="Rectangle-Copy" fill="#000124"></path>
                    <path d="M144.50561,454.749385 L191.703019,454.749385 C192.259096,454.749385 192.709886,455.200174 192.709886,455.756251 L192.709886,455.756251 C192.709886,456.312329 192.259096,456.763118 191.703019,456.763118 L144.50561,456.763118 C143.949533,456.763118 143.498743,456.312329 143.498743,455.756251 L143.498743,455.756251 C143.498743,455.200174 143.949533,454.749385 144.50561,454.749385 Z" id="Rectangle-Copy" fill="#000124"></path>
                    <rect id="Rectangle" stroke="#2B41CF" stroke-width="1.83908046" x="140.481392" y="319.406297" width="103.144691" height="112.608102" rx="12.2605364"></rect>
                    <path d="M34.7856119,476.425785 C34.7856119,477.136865 34.5300178,477.740396 34.0188218,478.236397 C33.5076258,478.732397 32.7666175,479.033065 31.7957747,479.13841 L31.7957747,480.613236 L30.7390219,480.613236 L30.7390219,479.151578 C30.1032487,479.107685 29.5018507,478.989173 28.9348098,478.79604 C28.3677688,478.602907 27.9167203,478.357106 27.5816507,478.058627 L28.161576,476.728651 C28.4794626,476.992014 28.8660756,477.213675 29.3214267,477.393639 C29.7767777,477.573604 30.2493047,477.685532 30.7390219,477.729425 L30.7390219,475.095809 C30.1290233,474.94657 29.6199828,474.78197 29.2118852,474.602006 C28.8037876,474.422041 28.4622794,474.158682 28.1873505,473.811921 C27.9124215,473.46516 27.7749591,473.006476 27.7749591,472.435856 C27.7749591,471.724776 28.0284054,471.11905 28.5353057,470.618661 C29.0422059,470.118271 29.7767706,469.819798 30.7390219,469.723231 L30.7390219,468.235238 L31.7957747,468.235238 L31.7957747,469.696895 C32.2769003,469.723231 32.7472795,469.806628 33.2069263,469.947089 C33.6665731,470.087549 34.0682211,470.2719 34.4118823,470.500148 L33.8835059,471.830124 C33.2305496,471.443859 32.5346462,471.206836 31.7957747,471.119048 L31.7957747,473.779001 C32.4143648,473.92824 32.927701,474.090644 33.3357986,474.26622 C33.7438963,474.441795 34.0875523,474.702959 34.366777,475.049721 C34.6460017,475.396482 34.7856119,475.855165 34.7856119,476.425785 Z M29.4374117,472.356848 C29.4374117,472.646547 29.5490999,472.879181 29.7724797,473.054756 C29.9958594,473.230331 30.318037,473.379568 30.7390219,473.502471 L30.7390219,471.158552 C30.3008539,471.228782 29.9743807,471.36924 29.7595925,471.579931 C29.5448042,471.790621 29.4374117,472.049591 29.4374117,472.356848 Z M31.7957747,477.703089 C32.2511258,477.632859 32.5883382,477.49679 32.8074222,477.294879 C33.0265062,477.092967 33.1360466,476.842776 33.1360466,476.544298 C33.1360466,476.24582 33.0200627,476.006602 32.7880914,475.826637 C32.5561201,475.646673 32.2253512,475.495241 31.7957747,475.372339 L31.7957747,477.703089 Z M40.030714,473.620984 C40.8640923,473.726329 41.499856,474.016024 41.9380239,474.490077 C42.3761919,474.96413 42.5952726,475.556688 42.5952726,476.267768 C42.5952726,476.803273 42.4621059,477.290487 42.1957685,477.729425 C41.9294311,478.168364 41.5277832,478.517314 40.9908126,478.776288 C40.453842,479.035262 39.7987477,479.164746 39.0255101,479.164746 C38.3811454,479.164746 37.7604167,479.070376 37.1633054,478.881633 C36.5661942,478.692889 36.0571537,478.431725 35.6361688,478.098132 L36.3578536,476.768155 C36.6843317,477.049076 37.081684,477.270736 37.5499223,477.433144 C38.0181607,477.595551 38.5014269,477.676753 38.9997356,477.676753 C39.5925512,477.676753 40.0586346,477.551658 40.398,477.301463 C40.7373654,477.051268 40.9070456,476.711096 40.9070456,476.280936 C40.9070456,475.850777 40.7459568,475.514994 40.4237745,475.273578 C40.1015921,475.032162 39.6097345,474.911456 38.9481867,474.911456 L38.123404,474.911456 L38.123404,473.739496 L40.1724735,471.250729 L36.0743346,471.250729 L36.0743346,469.815408 L42.221543,469.815408 L42.221543,470.961031 L40.030714,473.620984 Z M47.183126,469.683727 C48.4203062,469.683727 49.3803952,470.078765 50.0634218,470.868854 C50.7464484,471.658943 51.0879565,472.791387 51.0879565,474.26622 C51.0879565,475.302114 50.9032414,476.186561 50.5338057,476.919588 C50.1643699,477.652615 49.646738,478.210059 48.9808945,478.591935 C48.315051,478.973811 47.5439728,479.164746 46.6676368,479.164746 C46.2036942,479.164746 45.7676807,479.114269 45.359583,479.013313 C44.9514854,478.912358 44.5970901,478.765316 44.2963866,478.572183 L44.9149736,477.281711 C45.3617331,477.580189 45.9330613,477.729425 46.6289751,477.729425 C47.4967196,477.729425 48.1754402,477.457288 48.6651574,476.913004 C49.1548746,476.368721 49.3997295,475.583033 49.3997295,474.555918 L49.3997295,474.542749 C49.1333921,474.858785 48.7940317,475.098003 48.3816383,475.26041 C47.9692449,475.422817 47.5053093,475.504019 46.9898176,475.504019 C46.397002,475.504019 45.8643352,475.387703 45.3918011,475.155065 C44.919267,474.922428 44.5498368,474.591035 44.2834994,474.160875 C44.017162,473.730716 43.8839953,473.234723 43.8839953,472.672882 C43.8839953,472.075926 44.0300491,471.551402 44.3221611,471.099296 C44.6142731,470.647189 45.0094775,470.298239 45.5077862,470.052433 C46.0060949,469.806628 46.5645359,469.683727 47.183126,469.683727 Z M47.3119983,474.160875 C47.8532646,474.160875 48.2935739,474.011638 48.6329393,473.71316 C48.9723047,473.414682 49.1419849,473.037201 49.1419849,472.580705 C49.1419849,472.132988 48.9766004,471.762091 48.6458265,471.468002 C48.3150527,471.173913 47.8575606,471.026871 47.2733366,471.026871 C46.7492533,471.026871 46.323979,471.169524 45.9975009,471.454834 C45.6710228,471.740144 45.5077862,472.11982 45.5077862,472.593873 C45.5077862,473.076705 45.6710228,473.458576 45.9975009,473.739496 C46.323979,474.020417 46.7621404,474.160875 47.3119983,474.160875 Z M53.5236426,479.125242 C53.2315306,479.125242 52.98238,479.022093 52.7761833,478.815792 C52.5699866,478.609491 52.4668898,478.348327 52.4668898,478.032291 C52.4668898,477.707477 52.5678387,477.444118 52.7697396,477.242206 C52.9716406,477.040295 53.222939,476.93934 53.5236426,476.93934 C53.8243461,476.93934 54.0756445,477.040295 54.2775455,477.242206 C54.4794464,477.444118 54.5803954,477.707477 54.5803954,478.032291 C54.5803954,478.348327 54.4772986,478.609491 54.2711019,478.815792 C54.0649052,479.022093 53.8157546,479.125242 53.5236426,479.125242 Z M59.1553615,469.683727 C60.3925417,469.683727 61.3526307,470.078765 62.0356573,470.868854 C62.7186839,471.658943 63.060192,472.791387 63.060192,474.26622 C63.060192,475.302114 62.8754769,476.186561 62.5060412,476.919588 C62.1366054,477.652615 61.6189735,478.210059 60.95313,478.591935 C60.2872865,478.973811 59.5162083,479.164746 58.6398723,479.164746 C58.1759298,479.164746 57.7399162,479.114269 57.3318185,479.013313 C56.9237209,478.912358 56.5693256,478.765316 56.2686221,478.572183 L56.8872091,477.281711 C57.3339686,477.580189 57.9052968,477.729425 58.6012106,477.729425 C59.4689551,477.729425 60.1476757,477.457288 60.6373929,476.913004 C61.1271101,476.368721 61.371965,475.583033 61.371965,474.555918 L61.371965,474.542749 C61.1056276,474.858785 60.7662672,475.098003 60.3538738,475.26041 C59.9414804,475.422817 59.4775448,475.504019 58.9620531,475.504019 C58.3692375,475.504019 57.8365707,475.387703 57.3640366,475.155065 C56.8915025,474.922428 56.5220723,474.591035 56.2557349,474.160875 C55.9893975,473.730716 55.8562308,473.234723 55.8562308,472.672882 C55.8562308,472.075926 56.0022846,471.551402 56.2943966,471.099296 C56.5865086,470.647189 56.981713,470.298239 57.4800217,470.052433 C57.9783304,469.806628 58.5367714,469.683727 59.1553615,469.683727 Z M59.2842338,474.160875 C59.8255001,474.160875 60.2658094,474.011638 60.6051748,473.71316 C60.9445402,473.414682 61.1142204,473.037201 61.1142204,472.580705 C61.1142204,472.132988 60.9488359,471.762091 60.618062,471.468002 C60.2872882,471.173913 59.8297961,471.026871 59.2455721,471.026871 C58.7214888,471.026871 58.2962145,471.169524 57.9697364,471.454834 C57.6432583,471.740144 57.4800217,472.11982 57.4800217,472.593873 C57.4800217,473.076705 57.6432583,473.458576 57.9697364,473.739496 C58.2962145,474.020417 58.7343759,474.160875 59.2842338,474.160875 Z M70.4961231,474.187211 C70.9686572,474.40668 71.3316439,474.702959 71.585094,475.076057 C71.8385441,475.449154 71.9652672,475.885891 71.9652672,476.386281 C71.9652672,476.948122 71.8127699,477.439726 71.5077706,477.861106 C71.2027713,478.282487 70.7710534,478.605102 70.212604,478.82896 C69.6541546,479.052819 69.0055039,479.164746 68.2666324,479.164746 C67.5277609,479.164746 66.881258,479.052819 66.3271044,478.82896 C65.7729507,478.605102 65.3455286,478.282487 65.044825,477.861106 C64.7441215,477.439726 64.593772,476.948122 64.593772,476.386281 C64.593772,475.885891 64.7183473,475.449154 64.9675017,475.076057 C65.216656,474.702959 65.5731991,474.40668 66.0371417,474.187211 C65.6762975,473.9853 65.3992248,473.719746 65.2059154,473.390542 C65.012606,473.061338 64.9159527,472.681663 64.9159527,472.251503 C64.9159527,471.733556 65.055563,471.281456 65.3347877,470.895191 C65.6140124,470.508925 66.007069,470.210451 66.5139692,469.999761 C67.0208694,469.789071 67.6050846,469.683727 68.2666324,469.683727 C68.9367717,469.683727 69.5252826,469.789071 70.0321828,469.999761 C70.539083,470.210451 70.9342875,470.508925 71.2178079,470.895191 C71.5013284,471.281456 71.6430865,471.733556 71.6430865,472.251503 C71.6430865,472.681663 71.5442854,473.059144 71.3466802,473.383958 C71.1490751,473.708772 70.8655588,473.976521 70.4961231,474.187211 Z M68.2666324,471.026871 C67.7425491,471.026871 67.328014,471.140994 67.0230148,471.369242 C66.7180155,471.597489 66.5655181,471.91791 66.5655181,472.330512 C66.5655181,472.725556 66.7180155,473.039392 67.0230148,473.272029 C67.328014,473.504667 67.7425491,473.620984 68.2666324,473.620984 C68.7993072,473.620984 69.2202858,473.504667 69.5295809,473.272029 C69.8388759,473.039392 69.9935211,472.725556 69.9935211,472.330512 C69.9935211,471.91791 69.8367281,471.597489 69.5231373,471.369242 C69.2095464,471.140994 68.7907157,471.026871 68.2666324,471.026871 Z M68.2666324,477.821602 C68.8852225,477.821602 69.3749323,477.689922 69.7357765,477.42656 C70.0966208,477.163197 70.2770402,476.798883 70.2770402,476.333609 C70.2770402,475.877113 70.0966208,475.517189 69.7357765,475.253826 C69.3749323,474.990463 68.8852225,474.858783 68.2666324,474.858783 C67.6480423,474.858783 67.1626282,474.990463 66.8103755,475.253826 C66.4581228,475.517189 66.2819991,475.877113 66.2819991,476.333609 C66.2819991,476.798883 66.4581228,477.163197 66.8103755,477.42656 C67.1626282,477.689922 67.6480423,477.821602 68.2666324,477.821602 Z" id="$39.98" fill="#1D262C" opacity="0.295968192"></path>
                    <g id="picture" transform="translate(34.020158, 343.322802)" fill="#C4DAFF">
                        <path d="M14.7629119,24.164801 C18.0441575,24.164801 20.8326453,22.9906268 23.1294526,20.6409558 C25.4256135,18.2912848 26.5740171,15.4388372 26.5740171,12.0829516 C26.5740171,8.72596385 25.4249671,5.87351619 23.1294526,3.52362479 C20.8326453,1.17483549 18.0439421,0 14.7629119,0 C11.4820973,0 8.69382493,1.17483549 6.39701765,3.52362479 C4.10107221,5.87329577 2.95266857,8.72574344 2.95266857,12.0829516 C2.95266857,15.4388372 4.10042583,18.2919461 6.39701765,20.6409558 C8.69382493,22.9899655 11.4820973,24.164801 14.7629119,24.164801 Z" id="Path"></path>
                        <path d="M28.2113434,40.9425898 L20.9991349,33.5653328 C20.2890996,32.8390487 19.1247328,32.8258764 18.3984487,33.5359116 C18.3885095,33.5456285 18.3786807,33.5554578 18.3689643,33.5653975 L0.523963507,51.8205721 C0.18806825,52.164188 5.04817943e-15,52.6256218 5.10702591e-15,53.1061398 L0,62.600389 C-3.93515018e-15,63.6160851 0.823384368,64.4394694 1.83908046,64.4394694 L84.7725309,64.4394694 C85.788227,64.4394694 86.6116114,63.6160851 86.6116114,62.600389 L86.6116114,36.9969959 C86.6116114,36.5164895 86.4235521,36.0550658 86.0876711,35.711452 L62.3370692,11.4140542 C61.6270829,10.6877223 60.462717,10.6744716 59.7363851,11.3844579 C59.7264178,11.3942009 59.7165615,11.404057 59.7068182,11.4140241 L30.8415079,40.9425313 C30.131505,41.668847 28.9671387,41.682071 28.2408231,40.9720681 C28.2308855,40.9623537 28.2210583,40.952527 28.2113434,40.9425898 Z" id="Path"></path>
                    </g>
                    <path d="M29.7778358,444.680718 L126.186388,444.680718 C126.742465,444.680718 127.193255,445.131507 127.193255,445.687584 L127.193255,445.687584 C127.193255,446.243661 126.742465,446.694451 126.186388,446.694451 L29.7778358,446.694451 C29.2217587,446.694451 28.7709691,446.243661 28.7709691,445.687584 L28.7709691,445.687584 C28.7709691,445.131507 29.2217587,444.680718 29.7778358,444.680718 Z" id="Rectangle-Copy" fill="#000124"></path>
                    <path d="M29.7778358,454.749385 L76.9752452,454.749385 C77.5313223,454.749385 77.9821119,455.200174 77.9821119,455.756251 L77.9821119,455.756251 C77.9821119,456.312329 77.5313223,456.763118 76.9752452,456.763118 L29.7778358,456.763118 C29.2217587,456.763118 28.7709691,456.312329 28.7709691,455.756251 L28.7709691,455.756251 C28.7709691,455.200174 29.2217587,454.749385 29.7778358,454.749385 Z" id="Rectangle-Copy" fill="#000124"></path>
                    <rect id="Rectangle" stroke="#2B41CF" stroke-width="1.83908046" x="25.7536179" y="319.406297" width="103.144691" height="112.608102" rx="12.2605364"></rect>
                    <g id="Group-2" transform="translate(22.319496, 0.846910)">
                        <g id="Group-3-Copy-5">
                            <mask id="mask-3" fill="white">
                                <use xlink:href="#path-2"></use>
                            </mask>
                            <g id="Rectangle">
                                <use fill="black" fill-opacity="1" filter="url(#filter-4)" xlink:href="#path-2"></use>
                                <use fill="url(#linearGradient-1)" fill-rule="evenodd" xlink:href="#path-2"></use>
                            </g>
                            <g id="Group" mask="url(#mask-3)">
                                <g transform="translate(-5.083000, -4.953360)" id="Rectangle">
                                    <g opacity="0.135300409">
                                        <use fill="black" fill-opacity="1" filter="url(#filter-7)" xlink:href="#path-6"></use>
                                        <use fill="url(#linearGradient-5)" fill-rule="evenodd" xlink:href="#path-6"></use>
                                    </g>
                                    <g opacity="0.0181826637">
                                        <use fill="url(#linearGradient-8)" fill-rule="evenodd" xlink:href="#path-9"></use>
                                        <use fill="black" fill-opacity="1" filter="url(#filter-10)" xlink:href="#path-9"></use>
                                    </g>
                                    <g opacity="0.135300409">
                                        <use fill="black" fill-opacity="1" filter="url(#filter-13)" xlink:href="#path-12"></use>
                                        <use fill="url(#linearGradient-11)" fill-rule="evenodd" xlink:href="#path-12"></use>
                                    </g>
                                </g>
                            </g>
                        </g>
                        <g id="Group-4" transform="translate(4.363942, 5.215845)">
                            <polygon id="Rectangle" fill="#FFFFFF" points="8.03692584 0 18.5467519 4.94247074 18.5467519 15.3303893 8.03692584 10.3879186"></polygon>
                            <polygon id="Rectangle" fill="#FF5B6E" opacity="0.912225632" points="4.08028543 3.79213251 12.8590814 8.13770456 12.8590814 16.5589786 4.08028543 12.2134065"></polygon>
                            <polygon id="Rectangle" fill="#F8E71C" opacity="0.899902344" points="0 7.07864734 7.29505577 10.6927865 7.29505577 17.6966184 0 14.0824792"></polygon>
                        </g>
                    </g>
                    <path d="M56.1720995,17.845068 L55.5091127,17.845068 L55.5091127,11.1174788 L57.424408,11.1174788 C57.7436255,11.1174788 58.0398181,11.1491527 58.3129946,11.2125013 C58.5861711,11.2758499 58.8225113,11.3787898 59.0220222,11.5213242 C59.2215331,11.6638586 59.3765355,11.8491505 59.4870338,12.0772055 C59.5975322,12.3052605 59.6527805,12.5839903 59.6527805,12.9134031 C59.6527805,13.1604627 59.6098096,13.3853469 59.5238664,13.5880624 C59.4379233,13.790778 59.3212878,13.9665678 59.1739567,14.115437 C59.0266255,14.2643062 58.8516724,14.3830831 58.6490921,14.4717712 C58.4465118,14.5604592 58.2255184,14.6174721 57.9861052,14.6428116 L59.8921925,17.845068 L59.0818752,17.845068 L57.2770776,14.699825 L56.1720995,14.699825 L56.1720995,17.845068 Z M56.1720995,14.1106859 L57.3231184,14.1106859 C57.8571938,14.1106859 58.2684871,14.0109133 58.5570106,13.8113652 C58.8455341,13.611817 58.9897937,13.3124993 58.9897937,12.9134031 C58.9897937,12.6916829 58.9498921,12.5048073 58.8700877,12.3527706 C58.7902833,12.200734 58.6797866,12.077206 58.5385943,11.9821831 C58.3974019,11.8871602 58.2255182,11.8174777 58.0229378,11.7731337 C57.8203575,11.7287897 57.5962947,11.706618 57.3507428,11.706618 L56.1720995,11.706618 L56.1720995,14.1106859 Z M62.1677217,17.2369244 L65.6576109,17.2369244 L65.6576109,17.845068 L61.5047348,17.845068 L61.5047348,11.1174788 L65.5471131,11.1174788 L65.5471131,11.7256225 L62.1677217,11.7256225 L62.1677217,14.0441702 L65.3261175,14.0441702 L65.3261175,14.6428116 L62.1677217,14.6428116 L62.1677217,17.2369244 Z M72.9239579,16.7618121 C72.8134595,16.9328534 72.6799427,17.0943899 72.5234033,17.2464266 C72.366864,17.3984633 72.1857722,17.5314934 71.9801224,17.6455209 C71.7744727,17.7595484 71.5473406,17.8498188 71.2987193,17.9163348 C71.050098,17.9828509 70.7784602,18.0161084 70.4837979,18.0161084 C69.9926941,18.0161084 69.5384298,17.9274217 69.1209916,17.7500456 C68.7035533,17.5726694 68.344439,17.3271972 68.0436379,17.0136216 C67.7428368,16.700046 67.5080313,16.3278784 67.3392144,15.8971079 C67.1703975,15.4663373 67.0859902,14.9943972 67.0859902,14.4812734 C67.0859902,13.9681496 67.1719321,13.4962095 67.3438185,13.065439 C67.5157048,12.6346684 67.7535797,12.2625009 68.0574502,11.9489252 C68.3613207,11.6353496 68.720435,11.3898774 69.1348038,11.2125013 C69.5491727,11.0351252 69.9988329,10.9464384 70.4837979,10.9464384 C70.723211,10.9464384 70.9580165,10.9717775 71.1882215,11.0224564 C71.4184264,11.0731353 71.6348158,11.1444014 71.8373961,11.2362569 C72.0399764,11.3281124 72.2241376,11.4389708 72.3898851,11.5688354 C72.5556327,11.6987001 72.6937536,11.8459834 72.8042519,12.0106898 L72.2517629,12.4287886 C72.1842361,12.3210959 72.0936902,12.2134049 71.9801224,12.1057123 C71.8665547,11.9980196 71.7330378,11.9029981 71.5795679,11.8206449 C71.4260979,11.7382917 71.2588182,11.6717767 71.0777236,11.6210978 C70.8966291,11.5704189 70.7017252,11.5450798 70.4930061,11.5450798 C70.069429,11.5450798 69.6903639,11.6242644 69.3557994,11.782636 C69.0212349,11.9410075 68.7373198,12.1548059 68.5040455,12.4240375 C68.2707712,12.6932691 68.0927487,13.0052563 67.9699727,13.3600086 C67.8471968,13.7147608 67.7858097,14.088512 67.7858097,14.4812734 C67.7858097,14.8740348 67.8487314,15.247786 67.9745768,15.6025383 C68.1004222,15.9572905 68.2799793,16.2692778 68.5132536,16.5385094 C68.746528,16.807741 69.0304431,17.0215394 69.3650076,17.1799109 C69.6995721,17.3382824 70.0755678,17.417467 70.4930061,17.417467 C70.8674727,17.417467 71.2235177,17.3382824 71.5611516,17.1799109 C71.8987855,17.0215394 72.1811659,16.7681487 72.4083014,16.4197313 L72.9239579,16.7618121 Z M80.8809162,14.4812734 C80.8809162,14.9943972 80.7949743,15.4663373 80.623088,15.8971079 C80.4512017,16.3278784 80.2133268,16.700046 79.9094563,17.0136216 C79.6055858,17.3271972 79.2464715,17.5726694 78.8321027,17.7500456 C78.4177338,17.9274217 77.9680736,18.0161084 77.4831086,18.0161084 C76.9981435,18.0161084 76.5484833,17.9274217 76.1341145,17.7500456 C75.7197456,17.5726694 75.3606313,17.3271972 75.0567608,17.0136216 C74.7528903,16.700046 74.5150155,16.3278784 74.3431291,15.8971079 C74.1712428,15.4663373 74.0853009,14.9943972 74.0853009,14.4812734 C74.0853009,13.9681496 74.1712428,13.4962095 74.3431291,13.065439 C74.5150155,12.6346684 74.7528903,12.2625009 75.0567608,11.9489252 C75.3606313,11.6353496 75.7197456,11.3898774 76.1341145,11.2125013 C76.5484833,11.0351252 76.9981435,10.9464384 77.4831086,10.9464384 C77.9680736,10.9464384 78.4177338,11.0351252 78.8321027,11.2125013 C79.2464715,11.3898774 79.6055858,11.6353496 79.9094563,11.9489252 C80.2133268,12.2625009 80.4512017,12.6346684 80.623088,13.065439 C80.7949743,13.4962095 80.8809162,13.9681496 80.8809162,14.4812734 Z M80.1810968,14.4812734 C80.1810968,14.088512 80.1197097,13.7147608 79.9969337,13.3600086 C79.8741578,13.0052563 79.6961353,12.6932691 79.462861,12.4240375 C79.2295867,12.1548059 78.9456715,11.9410075 78.611107,11.782636 C78.2765425,11.6242644 77.9005468,11.5450798 77.4831086,11.5450798 C77.0656703,11.5450798 76.6896746,11.6242644 76.3551101,11.782636 C76.0205456,11.9410075 75.7366304,12.1548059 75.5033561,12.4240375 C75.2700818,12.6932691 75.0920593,13.0052563 74.9692834,13.3600086 C74.8465074,13.7147608 74.7851204,14.088512 74.7851204,14.4812734 C74.7851204,14.8740348 74.8465074,15.247786 74.9692834,15.6025383 C75.0920593,15.9572905 75.2700818,16.2676941 75.5033561,16.5337583 C75.7366304,16.7998224 76.0205456,17.0120371 76.3551101,17.1704086 C76.6896746,17.3287802 77.0656703,17.4079648 77.4831086,17.4079648 C77.9005468,17.4079648 78.2765425,17.3287802 78.611107,17.1704086 C78.9456715,17.0120371 79.2295867,16.7998224 79.462861,16.5337583 C79.6961353,16.2676941 79.8741578,15.9572905 79.9969337,15.6025383 C80.1197097,15.247786 80.1810968,14.8740348 80.1810968,14.4812734 Z M85.9649315,16.6857942 L85.9741396,16.6857942 L88.1564714,11.1174788 L89.169368,11.1174788 L89.169368,17.845068 L88.5063811,17.845068 L88.5063811,12.0011876 L88.4879648,12.0011876 L86.1306782,17.845068 L85.7807685,17.845068 L83.4234818,12.0011876 L83.4050655,12.0011876 L83.4050655,17.845068 L82.7420787,17.845068 L82.7420787,11.1174788 L83.7549753,11.1174788 L85.9649315,16.6857942 Z M92.2091737,17.3889603 C92.2091737,17.5219924 92.1631335,17.6407692 92.0710515,17.7452944 C91.9789695,17.8498197 91.8592648,17.9020815 91.7119336,17.9020815 C91.5646024,17.9020815 91.4448977,17.8498197 91.3528157,17.7452944 C91.2607337,17.6407692 91.2146935,17.5219924 91.2146935,17.3889603 C91.2146935,17.2559282 91.2607337,17.1371513 91.3528157,17.0326261 C91.4448977,16.9281009 91.5646024,16.8758391 91.7119336,16.8758391 C91.8592648,16.8758391 91.9789695,16.9281009 92.0710515,17.0326261 C92.1631335,17.1371513 92.2091737,17.2559282 92.2091737,17.3889603 Z M94.2084585,17.845068 L93.4810145,17.845068 L96.2987087,11.1174788 L96.9432793,11.1174788 L99.7425571,17.845068 L99.0059051,17.845068 L98.2876693,16.0776505 L94.9174861,16.0776505 L94.2084585,17.845068 Z M95.1661062,15.4505024 L98.0390492,15.4505024 L96.6025777,11.8776584 L95.1661062,15.4505024 Z M101.843132,17.845068 L101.180145,17.845068 L101.180145,11.1174788 L101.843132,11.1174788 L101.843132,17.845068 Z" id="Recom.ai" fill="#4A4A4A"></path>
                    <path d="M0.945554823,36.6576712 L387.562437,36.6576712" id="Path-2" stroke-opacity="0.288043478" stroke="#979797" stroke-width="0.61302682"></path>
                    <path d="M142.725629,15.2996835 L165.444347,15.2996835 C165.976483,15.2996835 166.407865,15.7310653 166.407865,16.2632017 L166.407865,16.2632017 C166.407865,16.7953382 165.976483,17.22672 165.444347,17.22672 L142.725629,17.22672 C142.193492,17.22672 141.76211,16.7953382 141.76211,16.2632017 L141.76211,16.2632017 C141.76211,15.7310653 142.193492,15.2996835 142.725629,15.2996835 Z" id="Rectangle" fill="#000124"></path>
                    <path d="M180.515786,15.2996835 L203.234504,15.2996835 C203.766641,15.2996835 204.198022,15.7310653 204.198022,16.2632017 L204.198022,16.2632017 C204.198022,16.7953382 203.766641,17.22672 203.234504,17.22672 L180.515786,17.22672 C179.983649,17.22672 179.552268,16.7953382 179.552268,16.2632017 L179.552268,16.2632017 C179.552268,15.7310653 179.983649,15.2996835 180.515786,15.2996835 Z" id="Rectangle-Copy" fill="#000124"></path>
                    <path d="M219.291773,15.2996835 L242.010492,15.2996835 C242.542628,15.2996835 242.97401,15.7310653 242.97401,16.2632017 L242.97401,16.2632017 C242.97401,16.7953382 242.542628,17.22672 242.010492,17.22672 L219.291773,17.22672 C218.759637,17.22672 218.328255,16.7953382 218.328255,16.2632017 L218.328255,16.2632017 C218.328255,15.7310653 218.759637,15.2996835 219.291773,15.2996835 Z" id="Rectangle-Copy-2" fill="#000124"></path>
                    <path d="M146.504351,60.9062136 L242.317964,60.9062136 C243.027479,60.9062136 243.602655,61.4813893 243.602655,62.1909045 L243.602655,62.1909045 C243.602655,62.9004198 243.027479,63.4755955 242.317964,63.4755955 L146.504351,63.4755955 C145.794836,63.4755955 145.21966,62.9004198 145.21966,62.1909045 L145.21966,62.1909045 C145.21966,61.4813893 145.794836,60.9062136 146.504351,60.9062136 Z" id="Rectangle-Copy" fill="#000124" transform="translate(194.411157, 62.190905) scale(1, -1) translate(-194.411157, -62.190905) "></path>
                    <path d="M365.108694,6.40771489 C365.083369,6.12342683 364.851667,5.90538064 364.572009,5.90538064 L361.877809,5.90538064 L361.877809,4.80134933 C361.877809,2.97472951 360.428329,1.48925537 358.644768,1.48925537 C356.861746,1.48925537 355.411728,2.97472951 355.411728,4.80134933 L355.411728,5.90538064 L352.717527,5.90538064 C352.438408,5.90538064 352.206168,6.12342683 352.180842,6.40771489 L351.103162,18.5520594 C351.089691,18.7060718 351.139803,18.8595321 351.242183,18.9737994 C351.344024,19.0886186 351.488433,19.1537565 351.639847,19.1537565 L365.64969,19.1537565 C365.801104,19.1537565 365.945513,19.0886186 366.047354,18.9737994 C366.148656,18.8595321 366.199845,18.7066238 366.186374,18.5520594 L365.108694,6.40771489 Z M356.489408,4.80134933 C356.489408,3.58360278 357.456626,2.59328669 358.644768,2.59328669 C359.832911,2.59328669 360.800129,3.58360278 360.800129,4.80134933 L360.800129,5.90538064 L356.489408,5.90538064 L356.489408,4.80134933 Z M352.230416,18.0497251 L353.209488,7.00941196 L355.411728,7.00941196 L355.411728,8.26635162 C355.090579,8.45790105 354.872887,8.81008704 354.872887,9.2174746 C354.872887,9.82689988 355.355688,10.3215059 355.950568,10.3215059 C356.545447,10.3215059 357.028248,9.82689988 357.028248,9.2174746 C357.028248,8.81008704 356.810556,8.45790105 356.489408,8.26635162 L356.489408,7.00941196 L360.800129,7.00941196 L360.800129,8.26635162 C360.47898,8.45790105 360.261289,8.80953502 360.261289,9.2174746 C360.261289,9.82689988 360.744089,10.3215059 361.338969,10.3215059 C361.933848,10.3215059 362.416649,9.82689988 362.416649,9.2174746 C362.416649,8.81008704 362.199496,8.45790105 361.877809,8.26635162 L361.877809,7.00941196 L364.080048,7.00941196 L365.059121,18.0497251 L352.230416,18.0497251 Z" id="Shape" fill="#000000" fill-rule="nonzero"></path>
                    <path d="M336.430478,18.5415619 L332.274363,14.2948716 C333.304572,13.0114915 333.925519,11.3676114 333.925519,9.57592632 C333.925519,5.46622607 330.662016,2.13160087 326.639969,2.13160087 C322.614393,2.13160087 319.354418,5.46622607 319.354418,9.57592632 C319.354418,13.6856266 322.614393,17.0202518 326.639969,17.0202518 C328.39344,17.0202518 329.998731,16.3893767 331.254739,15.3367167 L335.410854,19.5798019 C335.693103,19.868202 336.148229,19.868202 336.430478,19.5798019 C336.712727,19.2950069 336.712727,18.8263569 336.430478,18.5415619 Z M326.639969,15.5385967 C323.418803,15.5385967 320.800944,12.8636865 320.800944,9.57592632 C320.800944,6.28816612 323.418803,3.60965096 326.639969,3.60965096 C329.857607,3.60965096 332.478993,6.28816612 332.478993,9.57592632 C332.478993,12.8636865 329.857607,15.5385967 326.639969,15.5385967 Z" id="Shape" fill="#000000" fill-rule="nonzero"></path>
                </g>
                <rect id="Rectangle" stroke="#000124" stroke-width="2" x="222" y="230" width="135" height="34.140736" rx="4"></rect>
                <text id="buy" font-family="Montserrat-Bold, Montserrat" font-size="14" font-weight="bold" fill="#000124">
                    <tspan x="274.397" y="253">BUY</tspan>
                </text>
                <text id="SIMILAR-PRODUCTS" font-family="Montserrat-Bold, Montserrat" font-size="16" font-weight="bold" fill="#000124">
                    <tspan x="100.592" y="302">SIMILAR PRODUCTS</tspan>
                </text>
            </g>
        </g>
    </g>
</svg>